<svg width="101" height="84" viewBox="0 0 101 84" fill="none" xmlns="http://www.w3.org/2000/svg">
<g clip-path="url(#clip0)">
<path d="M34.6929 67.6019C34.6873 67.6915 34.6873 67.7813 34.6929 67.8708C34.6929 68.2293 34.6929 68.5878 34.6929 68.9911C34.7871 69.8873 35.1113 70.744 35.6339 71.4782C35.8097 71.7156 36.0497 71.8976 36.3257 72.0029C36.6017 72.1081 36.902 72.1321 37.1912 72.072C37.8432 71.9351 38.4398 71.6075 38.9052 71.1309C39.7321 70.3189 40.4411 69.395 41.0114 68.3861C41.3139 67.9268 41.5716 67.4563 41.8293 66.9857C41.8965 66.8737 41.9749 66.7729 42.1205 66.8065C42.2662 66.8401 42.255 66.9745 42.255 67.0866C42.2866 67.5585 42.3578 68.0269 42.4678 68.487C42.589 69.1296 42.8575 69.7355 43.252 70.2571C43.4336 70.4903 43.6765 70.6683 43.9535 70.7712C44.2305 70.8741 44.5307 70.8978 44.8205 70.8396C45.8226 70.5473 46.6956 69.9231 47.2964 69.0695C47.2964 69.0695 47.2964 68.9463 47.3636 68.8903C48.3681 67.5542 49.2422 66.1248 49.9739 64.6219C50.017 64.5218 50.0799 64.4315 50.1588 64.3564C50.2378 64.2813 50.3311 64.223 50.4332 64.185C51.4286 63.7961 52.3979 63.3433 53.3348 62.8294C57.0457 60.6899 59.918 57.3514 61.4795 53.3628C61.5107 53.2655 61.5678 53.1786 61.6449 53.1114C61.7219 53.0443 61.8158 52.9995 61.9164 52.9819C62.6272 52.8188 63.2979 52.5139 63.8882 52.0856C64.1195 51.9532 64.313 51.7636 64.4501 51.535C64.5872 51.3064 64.6634 51.0465 64.6713 50.78C64.6791 50.5136 64.6185 50.2496 64.4951 50.0133C64.3717 49.777 64.1897 49.5763 63.9666 49.4305L63.5633 49.0832C62.443 48.1533 62.7791 47.9629 62.7678 46.3944C62.7678 45.5766 64.0562 44.4563 63.5633 43.7729C63.0703 43.0895 64.3251 42.451 63.3616 42.3389L63.5073 41.958C63.9295 41.0048 64.2197 39.9985 64.3699 38.9668C64.4611 38.3592 64.384 37.7382 64.147 37.1713C63.91 36.6044 63.5221 36.1134 63.0255 35.7515C62.5006 35.3621 61.908 35.0734 61.2778 34.9001C61.1942 34.8776 61.1166 34.8368 61.0507 34.7806C60.9848 34.7244 60.9323 34.6542 60.8969 34.5752C59.5464 31.5384 57.5463 28.8347 55.0377 26.6546C55.0113 26.6367 54.9889 26.6136 54.9717 26.5868C54.9545 26.56 54.9429 26.53 54.9377 26.4985C54.9324 26.4671 54.9336 26.4349 54.9412 26.404C54.9488 26.373 54.9626 26.344 54.9817 26.3185C55.1232 26.0173 55.2321 25.7018 55.3066 25.3774C55.5755 24.0918 55.5755 22.7644 55.3066 21.4788C54.9925 19.697 54.466 17.9593 53.7382 16.3029C53.6709 16.1685 53.6373 16.0901 53.4469 16.1685C50.5386 17.3363 48.0782 19.4004 46.4225 22.0613C46.2881 22.2854 46.1761 22.3638 45.9072 22.2966C44.0655 21.9061 42.1883 21.7071 40.3056 21.7028C38.894 21.7028 37.5049 21.8036 36.1045 21.9045C35.858 21.9717 35.8356 22.0165 35.9028 22.207C36.6198 22.207 37.3256 22.0725 38.0426 22.0725C39.5632 22.0221 41.0854 22.0558 42.6023 22.1733C44.4724 22.3371 46.3178 22.713 48.103 23.2937C51.183 24.2862 53.9566 26.0529 56.158 28.4247C59.5764 32.1669 61.7182 36.8978 62.2749 41.9356C62.2975 42.0202 62.2935 42.1096 62.2634 42.1918C62.2334 42.274 62.1787 42.3449 62.1069 42.3949C62.1069 42.3949 62.1069 42.4734 62.1069 42.4958C62.1775 44.4954 62.1177 46.4976 61.9276 48.4894C61.937 48.5938 61.937 48.6988 61.9276 48.8031C61.9276 48.9264 61.9276 48.96 61.9276 49.0944C61.9276 49.2288 61.9276 49.2064 61.838 49.4417C61.4057 51.3713 60.7042 53.2305 59.7542 54.9648C59.6056 55.1744 59.4886 55.4046 59.4069 55.6482C59.4629 55.7602 59.4069 55.8163 59.3061 55.8835C58.7127 56.873 58.0017 57.7871 57.1887 58.6058C55.9441 59.9031 54.5176 61.0126 52.9539 61.8995C52.3571 62.2587 51.7268 62.5588 51.0718 62.7958C50.9113 62.8436 50.7636 62.9268 50.6395 63.0393C50.5155 63.1517 50.4182 63.2906 50.3548 63.4456C49.7423 64.6319 49.0654 65.7838 48.3271 66.8961C47.9385 67.5268 47.4962 68.1228 47.0051 68.6774C46.5747 69.2446 46.003 69.6889 45.347 69.9658C45.0799 70.0821 44.7793 70.0961 44.5025 70.0052C44.2257 69.9143 43.992 69.7248 43.8458 69.4728C43.5186 68.9829 43.2867 68.4355 43.1624 67.8596C43.0056 67.2994 42.8935 66.7393 42.7927 66.1455C42.7346 65.9383 42.7185 65.7215 42.7454 65.5079C42.7724 65.2943 42.8418 65.0883 42.9496 64.902C42.9768 64.8676 42.9969 64.828 43.0084 64.7856C43.02 64.7433 43.0228 64.699 43.0168 64.6555C43.0147 64.6283 43.0037 64.6026 42.9855 64.5823C42.9672 64.562 42.9428 64.5484 42.916 64.5435C42.6919 64.6331 42.6359 64.8572 42.535 65.0476C41.9678 66.1439 41.3433 67.2097 40.6641 68.2405C40.2654 68.8642 39.8236 69.4594 39.3422 70.0218C38.8923 70.5698 38.31 70.9939 37.6505 71.2541C37.383 71.372 37.0817 71.3882 36.8031 71.2994C36.5246 71.2107 36.2881 71.0233 36.1381 70.7724C35.8084 70.2715 35.5765 69.7127 35.4547 69.1255C35.2002 68.1158 35.0131 67.0904 34.8945 66.0559C34.8945 65.9102 34.8945 65.7422 34.6929 65.675C33.3924 65.4685 32.1162 65.1307 30.8838 64.6667C30.1128 64.3826 29.3639 64.0419 28.6432 63.6472C26.239 62.264 24.1302 60.4216 22.4367 58.2249C22.235 57.9673 22.2462 57.9336 22.5599 57.8888C23.3849 57.7885 24.1854 57.5419 24.9238 57.1606C25.4532 56.8852 25.9657 56.5784 26.4586 56.242C26.9067 55.9059 27.3436 55.5362 27.7582 55.1217C28.8265 54.1208 29.7672 52.992 30.5589 51.7607C30.5787 51.7188 30.6071 51.6816 30.6425 51.6515C30.6778 51.6215 30.7191 51.5994 30.7637 51.5866C30.8082 51.5739 30.855 51.5709 30.9009 51.5777C30.9467 51.5845 30.9906 51.6011 31.0295 51.6263C32.0376 52.0583 33.1257 52.2721 34.2223 52.2537C35.1674 52.2616 36.0978 52.0204 36.92 51.5543C37.7421 51.0881 38.4268 50.4136 38.9052 49.5985C39.4067 48.8644 39.6146 47.969 39.4878 47.089C39.4424 46.7887 39.3084 46.5088 39.1027 46.2852C38.8971 46.0616 38.6294 45.9046 38.3339 45.8343C37.8637 45.7483 37.3788 45.7949 36.9335 45.9687C36.4078 46.1078 35.8617 46.1533 35.3203 46.1032C35.1074 46.1032 34.9505 46.0135 34.973 45.7671C34.979 45.0155 34.8143 44.2723 34.4912 43.5937C33.4354 41.0435 31.7971 38.776 29.7075 36.9726C29.3571 36.6564 28.9825 36.368 28.5872 36.11C28.3183 35.9308 28.1503 35.998 28.0046 36.3117C28.0521 36.4278 28.1395 36.5231 28.2511 36.5805C29.3014 37.4124 30.2625 38.351 31.1191 39.3813C32.401 40.9019 33.3853 42.6501 34.0207 44.5347C34.1 44.7996 34.1636 45.069 34.2111 45.3414C34.2111 45.4758 34.2896 45.6438 34.2111 45.7111C34.1327 45.7783 33.9871 45.655 33.8863 45.5878C33.7618 45.497 33.6522 45.3874 33.5614 45.2629C33.0796 44.6916 32.5419 44.1426 32.0489 43.6273C31.3319 42.8095 30.5701 42.014 29.8083 41.185C29.1559 40.4012 28.3519 39.7572 27.4445 39.2917C26.0193 38.6161 24.5132 38.1266 22.9632 37.8353C21.6202 37.5591 20.2624 37.3609 18.8965 37.2415C18.0119 37.135 17.121 37.0901 16.2302 37.1071C16.1517 37.1071 16.0285 37.1071 16.0957 37.2751C16.1457 37.3179 16.2092 37.3417 16.275 37.3423C16.5326 37.3423 16.5551 37.4992 16.5102 37.7008C16.1931 39.075 15.9871 40.4724 15.8941 41.8796C15.8009 43.3292 15.8421 44.7844 16.0173 46.2264C16.2885 48.1113 16.7811 49.9576 17.4849 51.7271C17.4849 51.8616 17.6193 51.996 17.4849 52.1416C17.3505 52.2873 17.4177 52.2313 17.4849 52.2873C17.6144 52.375 17.7656 52.4254 17.9218 52.4329C18.8181 52.5674 19.7367 52.6458 20.6442 52.713C21.9565 52.8207 23.277 52.768 24.5765 52.5562C26.0723 52.2912 27.5073 51.756 28.8112 50.9765C28.9286 50.877 29.0775 50.8224 29.2314 50.8224C29.3852 50.8224 29.5341 50.877 29.6515 50.9765L29.8195 51.0773C30.1332 51.2678 30.1444 51.3014 29.9428 51.5815C28.7434 53.3133 27.2584 54.8287 25.5511 56.0627C24.6901 56.6902 23.7045 57.1257 22.6607 57.3399C21.5404 57.5639 20.4201 57.8104 19.2998 58.0681C19.1207 58.0745 18.9482 58.1372 18.8069 58.2473C18.8069 58.3482 18.8629 58.3706 18.9301 58.393C19.4479 58.3627 19.9618 58.2839 20.4649 58.1577C20.5971 58.1245 20.7363 58.1337 20.863 58.1839C20.9897 58.2342 21.0973 58.323 21.1707 58.4378C21.5539 58.9709 21.9653 59.4833 22.4031 59.9726C22.6383 60.2415 22.6495 60.3087 22.4031 60.5552C21.8232 61.2021 21.1421 61.7508 20.3865 62.1796C20.0784 62.3656 19.7342 62.4839 19.3768 62.5264C19.0194 62.5689 18.6571 62.5347 18.3139 62.4261C17.9661 62.3148 17.6402 62.1442 17.3505 61.9219C16.5499 61.2846 15.8511 60.529 15.2779 59.6813C13.6722 57.2507 12.4058 54.6123 11.5137 51.8392C10.3037 48.3326 9.27304 44.77 8.32078 41.185C8.10065 40.4759 7.92479 39.7538 7.79423 39.0228C7.72559 38.9016 7.62635 38.8006 7.50642 38.7298C7.38649 38.6591 7.25009 38.621 7.11084 38.6195C8.23115 43.1007 9.54191 47.5148 11.0655 51.8616C11.9748 54.6358 13.2562 57.2739 14.8746 59.7037C15.485 60.6332 16.2416 61.458 17.1152 62.146C17.626 62.598 18.2768 62.8603 18.9583 62.8889C19.6397 62.9174 20.3102 62.7105 20.857 62.3029C21.472 61.9064 22.0299 61.4277 22.5151 60.8801C22.9296 60.4543 22.9296 60.4543 23.3105 60.8801C26.083 64.0308 29.8658 66.1182 34.0095 66.7841C34.6705 66.8737 34.6705 66.8737 34.6929 67.6019Z" fill="#A45C65"/>
<path opacity="0.2" fill-rule="evenodd" clip-rule="evenodd" d="M42.5683 68.4756C42.6824 68.8911 42.8323 69.2959 43.0164 69.6855C43.107 69.9257 43.2505 70.1426 43.4361 70.32C43.6218 70.4974 43.8449 70.6308 44.089 70.7104C44.3332 70.79 44.592 70.8137 44.8466 70.7798C45.1011 70.7459 45.3448 70.6552 45.5596 70.5145C46.2797 70.0996 46.9085 69.5432 47.4081 68.8789C47.4977 69.0021 47.6321 68.9909 47.7666 69.0133C49.4283 69.2229 51.06 69.6252 52.6287 70.212C52.9442 70.3439 53.2386 70.5213 53.5026 70.7386C53.5975 70.798 53.6757 70.8806 53.7299 70.9786C53.7842 71.0766 53.8126 71.1867 53.8126 71.2987C53.8126 71.4107 53.7842 71.5209 53.7299 71.6189C53.6757 71.7168 53.5975 71.7994 53.5026 71.8589C53.0155 72.2036 52.4684 72.4544 51.8893 72.5983C50.359 73.0093 48.7959 73.2867 47.2176 73.4273C46.0077 73.5506 44.7865 73.6402 43.5654 73.6962C43.0613 73.6962 42.5571 73.6962 42.053 73.7522C41.3024 73.7522 40.5518 73.8194 39.8124 73.7522C38.2663 73.7522 36.7203 73.7522 35.1855 73.6066C32.3055 73.4802 29.44 73.1281 26.6151 72.5535C25.6078 72.3745 24.6309 72.0539 23.7135 71.6012C23.3662 71.3996 22.9629 71.2091 22.9629 70.7498C22.9629 70.2905 23.355 70.0888 23.7135 69.8983C24.7184 69.4458 25.7819 69.1365 26.8728 68.9797C28.2171 68.722 29.5839 68.5876 30.9507 68.4644C31.903 68.3747 32.8664 68.3635 33.8187 68.3075H34.1884C34.6477 68.3075 34.6589 68.3075 34.7037 67.837C34.7572 68.5198 34.8621 69.1977 35.0174 69.8647C35.1259 70.2957 35.2997 70.7075 35.5328 71.0859C35.6315 71.2811 35.769 71.4543 35.9368 71.5947C36.1046 71.7352 36.2992 71.8401 36.5088 71.903C36.7184 71.9658 36.9386 71.9854 37.156 71.9605C37.3734 71.9356 37.5835 71.8667 37.7734 71.7581C38.5142 71.3937 39.1589 70.8603 39.6555 70.2008C40.138 69.6077 40.5905 68.9908 41.0111 68.3523C41.5386 68.2411 42.0869 68.2839 42.5907 68.4756" fill="black"/>
<path fill-rule="evenodd" clip-rule="evenodd" d="M7.74919 38.9893L7.12182 38.6084C5.85587 37.8242 4.60112 37.0064 3.31276 36.267C2.5238 35.7662 1.82027 35.1421 1.22898 34.4185C1.59183 34.5551 1.93471 34.7397 2.24847 34.9674C2.28974 35.0077 2.33962 35.0381 2.39435 35.0563C2.44908 35.0745 2.50722 35.08 2.5644 35.0725C2.62158 35.0649 2.67629 35.0445 2.72442 35.0127C2.77255 34.9809 2.81283 34.9386 2.84223 34.889C3.74536 33.8652 4.59064 32.7918 5.37413 31.6737C5.46948 31.4691 5.58991 31.2772 5.73263 31.1024C6.23237 30.4131 6.79088 29.7683 7.40189 29.1754C7.47863 29.095 7.56099 29.0201 7.64836 28.9514C8.05167 28.6265 8.45498 28.2792 8.89191 27.9767C9.07116 27.8535 9.05995 27.7302 8.89191 27.5622C8.58942 27.1477 8.28694 26.722 7.96205 26.3186C7.89483 26.2066 7.73799 26.1394 7.74919 25.9713C6.92222 24.8991 5.90899 23.9846 4.75796 23.2714C3.49782 22.42 2.17163 21.6708 0.792062 21.0308C0.680031 20.986 0.736047 20.7619 0.680031 20.5939C0.624016 20.4258 0.814469 20.4258 0.915297 20.3922L10.83 16.7064C10.9457 16.6713 11.0582 16.6263 11.1661 16.5719C11.2653 16.4961 11.379 16.4416 11.5001 16.4117C11.6213 16.3818 11.7473 16.3772 11.8704 16.3982C11.9934 16.4193 12.1107 16.4654 12.2151 16.5339C12.3195 16.6023 12.4086 16.6916 12.4769 16.796C13.0121 17.44 13.4396 18.1664 13.7428 18.947C14.1721 19.9261 14.5461 20.9285 14.8632 21.9494C15.0088 22.3751 15.3113 22.1511 15.5465 22.1847C15.7818 22.2183 15.737 21.983 15.7482 21.8486C16.0431 19.5101 16.8051 17.2546 17.9888 15.2164C18.4253 14.5252 18.9529 13.8959 19.5573 13.3454L22.9182 10.119C23.0414 9.99572 23.1198 9.9285 23.2879 10.119C25.3791 11.9114 27.4779 13.7002 29.584 15.4852C29.7857 15.6533 29.7857 15.7317 29.584 15.8886C29.3824 16.0454 28.9343 16.4487 28.6094 16.74C28.5309 16.74 28.4413 16.8408 28.4749 16.9753C28.7438 17.8491 28.9567 18.7229 29.1695 19.6528C29.6798 18.9356 30.2296 18.2474 30.8164 17.5914C31.6686 16.5663 32.7256 15.7306 33.9196 15.1379L34.4462 14.9475C34.7274 14.8386 35.0305 14.7981 35.3304 14.8293C35.6304 14.8605 35.9186 14.9624 36.1715 15.1267C38.3785 16.4151 40.5967 17.6923 42.8149 18.947L43.1734 19.1599C42.6132 19.2383 42.1427 19.2719 41.6722 19.3615C39.7003 19.6227 37.831 20.3952 36.2499 21.6021L36.0594 21.7814C35.9588 21.8427 35.8743 21.9272 35.813 22.0279C35.8128 22.0615 35.8058 22.0948 35.7923 22.1256C35.7788 22.1564 35.7592 22.1842 35.7345 22.2071C35.0443 22.9967 34.4742 23.8839 34.0429 24.8398C33.9196 25.0751 33.8636 25.3664 33.6284 25.5344C33.5237 25.482 33.4351 25.4023 33.372 25.3037C33.3089 25.2051 33.2736 25.0913 33.2699 24.9743C33.5275 24.4141 33.7292 23.854 33.9981 23.2602C34.8762 21.4438 36.4091 20.027 38.2888 19.2943C39.0095 18.9827 39.7603 18.7462 40.5295 18.5885C40.115 18.286 39.7228 18.062 39.3307 17.8155C38.1768 17.1433 36.9445 16.3815 35.7457 15.5861C35.607 15.4944 35.4495 15.4347 35.2848 15.4115C35.1201 15.3882 34.9522 15.4019 34.7935 15.4516C34.0856 15.633 33.4223 15.9571 32.8441 16.4039C31.5708 17.36 30.4393 18.4915 29.4832 19.7648C29.4255 19.8404 29.3872 19.9288 29.3716 20.0226C29.356 20.1163 29.3635 20.2124 29.3936 20.3026C29.5728 21.154 29.6961 22.0279 29.8081 22.9017C29.8081 23.0697 29.9089 23.2602 29.8081 23.4394C29.6939 23.4638 29.5758 23.4633 29.4618 23.4382C29.3478 23.4131 29.2405 23.3638 29.1471 23.2938C28.9118 22.4984 28.7774 21.6918 28.5758 20.8963C28.2957 19.776 28.0156 18.6557 27.7019 17.6138C27.6123 17.2665 27.5675 17.2441 27.209 17.3225C24.453 17.8939 21.6971 18.4429 18.9411 19.0366H18.8739C18.5154 19.115 18.5042 19.1262 18.7282 19.4063L20.2631 21.3333C20.4348 21.5499 20.5917 21.7627 20.7336 21.9718C20.9016 22.2071 21.0473 22.4648 21.361 22.5432C21.3705 22.5516 21.3781 22.5619 21.3834 22.5735C21.3886 22.5851 21.3913 22.5977 21.3913 22.6104C21.3913 22.6231 21.3886 22.6357 21.3834 22.6473C21.3781 22.6589 21.3705 22.6692 21.361 22.6776C21.2527 22.7302 21.134 22.7575 21.0137 22.7575C20.8934 22.7575 20.7746 22.7302 20.6664 22.6776C20.4185 22.4932 20.2059 22.2655 20.039 22.0054C19.266 21.0868 18.4706 20.1681 17.6863 19.2607C17.2606 18.7677 17.2718 18.7229 17.888 18.5661C20.9689 17.8043 24.0609 17.0649 27.153 16.3255C27.5502 16.2196 27.9107 16.0064 28.1949 15.7093C28.3517 15.5637 28.1949 15.474 28.1388 15.3844C27.5899 14.9139 27.0745 14.4209 26.548 13.9392L24.2065 11.8442C23.9058 11.5978 23.6178 11.336 23.3439 11.06C23.1535 10.8472 22.9854 10.9592 22.8398 11.06C22.4701 11.4297 22.0668 11.7658 21.7195 12.1131C21.0361 12.7741 20.3303 13.3454 19.7253 13.9952C18.7819 14.9028 18.0213 15.9829 17.4847 17.1769C16.8458 18.6094 16.3831 20.1142 16.1067 21.6581C16.0059 22.1399 16.0059 22.1511 16.4988 22.2071C16.9917 22.2631 17.6191 22.3751 18.2017 22.4872C18.2801 22.4872 18.5042 22.4872 18.4257 22.6888C18.1317 22.7222 17.8348 22.7222 17.5407 22.6888C17.4287 22.6888 17.2942 22.6888 17.227 22.7897V22.8905C17.227 23.0137 17.227 23.1482 17.0702 23.2266C16.5772 23.2266 16.0955 23.1033 15.5914 23.1482H15.2217C13.8625 23.1511 12.5165 23.4134 11.2558 23.9212C10.7319 24.0989 10.2193 24.3084 9.72093 24.5485C9.42965 24.6942 9.42966 24.7166 9.66492 24.9295L12.0848 26.946C13.7877 28.3576 15.4831 29.7767 17.171 31.2032C17.3748 31.3905 17.592 31.5628 17.8208 31.7185C17.8728 31.763 17.911 31.8215 17.9308 31.887C17.9507 31.9525 17.9514 32.0223 17.9328 32.0882C17.7536 32.2339 17.6527 32.0882 17.5407 31.9762L14.1798 29.4107C13.2499 28.6937 12.3201 27.9767 11.4126 27.2485C11.3385 27.1922 11.248 27.1617 11.1549 27.1617C11.0619 27.1617 10.9713 27.1922 10.8973 27.2485C8.93775 28.3234 7.25425 29.8382 5.9791 31.6737C5.13887 32.8725 4.29863 34.0712 3.35757 35.1915C3.18953 35.3819 3.17832 35.4604 3.41359 35.5948L9.54169 39.1126L10.7628 39.8072C10.9757 39.9416 11.0989 39.9304 11.2222 39.6839C11.8006 38.6272 12.5588 37.6794 13.4628 36.8832C14.837 35.65 16.2849 34.5015 17.7984 33.4438C17.9328 33.343 18.0672 33.1973 18.2689 33.231C18.3484 33.2809 18.4111 33.3534 18.449 33.4392C18.487 33.5251 18.4984 33.6203 18.4818 33.7127C18.1433 34.1025 17.7681 34.4589 17.3615 34.777C16.127 35.7873 14.9454 36.8605 13.8213 37.9923C13.0452 38.7244 12.4176 39.5993 11.9728 40.569C11.8315 40.8243 11.6057 41.0223 11.3342 41.1291C11.2907 41.1508 11.2427 41.1621 11.1941 41.1621C11.1455 41.1621 11.0976 41.1508 11.0541 41.1291C9.98981 40.4906 8.94792 39.8296 7.89483 39.1798C7.85908 39.1652 7.82728 39.1423 7.80198 39.1131C7.77668 39.0839 7.7586 39.0492 7.74919 39.0118" fill="#5F9D45"/>
<path fill-rule="evenodd" clip-rule="evenodd" d="M7.8389 25.9712L8.10778 26.2737C8.10778 26.4305 7.96214 26.4641 7.86131 26.5201C7.09082 26.944 6.34293 27.4077 5.62069 27.9093C5.53106 27.9653 5.41903 27.999 5.36302 28.1446L7.20033 28.772C7.37958 28.828 7.58123 28.8392 7.69326 29.0184L7.4692 29.2201C7.40425 29.2502 7.33353 29.2658 7.26194 29.2658C7.19036 29.2658 7.11964 29.2502 7.05469 29.2201L5.55347 28.716C5.2846 28.6375 5.26219 28.6487 5.31821 28.94C5.45264 29.5114 5.57588 30.0603 5.71031 30.6541C5.76077 30.8222 5.76077 31.0014 5.71031 31.1694C5.60167 31.3666 5.46591 31.5477 5.307 31.7072C5.02692 30.5869 4.74685 29.4105 4.45557 28.2678C4.45557 28.1334 4.45557 28.0662 4.60121 27.999C5.61991 27.2755 6.6784 26.6097 7.77168 26.0048" fill="#8F4A51"/>
<path fill-rule="evenodd" clip-rule="evenodd" d="M61.0537 34.8671C61.7251 35.0252 62.3468 35.3475 62.863 35.805C63.3792 36.2625 63.7738 36.8411 64.0113 37.4887C64.1624 38.1069 64.1624 38.7525 64.0113 39.3708C63.8024 40.2942 63.4748 41.1866 63.0367 42.0259C62.7321 39.5575 62.0717 37.1463 61.0761 34.8671" fill="#ED3438"/>
<path fill-rule="evenodd" clip-rule="evenodd" d="M58.6561 42.0592C58.6408 41.7932 58.6818 41.527 58.7764 41.278C58.871 41.029 59.017 40.8027 59.2051 40.614C59.8324 39.9194 62.734 37.4547 69.0078 35.1917C70.6882 34.6876 74.4525 35.2813 75.3151 36.6817C76.1778 38.0821 75.4832 39.7626 70.7779 41.0173C66.0726 42.2721 64.6498 45.5546 62.9357 45.9803C62.2738 46.1948 61.5598 46.1873 60.9026 45.9588C60.2453 45.7302 59.6807 45.2933 59.2947 44.7143C58.8898 44.1014 58.6647 43.3873 58.6449 42.653C58.6124 42.456 58.6162 42.2548 58.6561 42.0592Z" fill="#F4A4C5"/>
<path d="M58.6562 42.0588C58.6245 41.6079 58.7602 41.1612 59.0371 40.8041C59.3146 40.4556 59.6345 40.1433 59.9894 39.8742C60.6766 39.3066 61.3987 38.7828 62.1516 38.3058C63.6566 37.3358 65.2291 36.4747 66.8569 35.7291L68.0892 35.1801C68.5142 34.9852 68.9569 34.8314 69.4112 34.7208C70.3391 34.5753 71.2841 34.5753 72.212 34.7208C73.1678 34.8451 74.0915 35.1492 74.9343 35.617C75.4228 35.9101 75.7988 36.3587 76.002 36.8909C76.2051 37.4232 76.2237 38.0082 76.0546 38.5522C75.8387 39.0605 75.4857 39.4988 75.0352 39.8182C74.6485 40.1087 74.2315 40.3566 73.7916 40.5576C72.9725 40.896 72.1253 41.1622 71.2597 41.353C69.5601 41.7165 67.9589 42.4426 66.5656 43.4816C65.871 43.9969 65.2213 44.6019 64.5267 45.1733C64.1865 45.473 63.8102 45.729 63.4063 45.9351C62.9734 46.0973 62.5129 46.1734 62.0508 46.1591C61.5961 46.1669 61.1453 46.0758 60.7293 45.892C60.3134 45.7082 59.9425 45.4362 59.6421 45.0949C59.0595 44.4029 58.7278 43.5343 58.701 42.6302C58.6574 42.4431 58.6423 42.2504 58.6562 42.0588ZM58.6562 42.0588C58.6172 42.2623 58.6172 42.4714 58.6562 42.675C58.6923 43.5678 59.0322 44.4216 59.6197 45.0949C59.9224 45.4118 60.291 45.6584 60.6994 45.8171C61.1079 45.9758 61.5463 46.0429 61.9836 46.0135C62.4141 45.9967 62.8369 45.8939 63.2271 45.711C63.5983 45.4931 63.9408 45.2297 64.2466 44.9268C64.874 44.3106 65.4789 43.6497 66.1735 43.0559C67.5541 41.8372 69.1937 40.9484 70.9684 40.4568C71.7921 40.208 72.597 39.901 73.3771 39.5381C74.0836 39.271 74.6795 38.7738 75.0688 38.1265C75.1478 37.813 75.1202 37.482 74.9904 37.1859C74.8606 36.8898 74.6359 36.6452 74.3518 36.4909C73.6649 36.0669 72.9051 35.7743 72.1112 35.6282C71.2851 35.439 70.4343 35.3823 69.5905 35.4602C69.172 35.5257 68.7623 35.6384 68.3693 35.7963C67.9548 35.9195 67.5403 36.0876 67.1258 36.2332C65.4557 36.8507 63.8374 37.5999 62.286 38.4738C61.5037 38.9109 60.7548 39.4052 60.0454 39.9526C59.3396 40.4344 58.5778 41.1177 58.6562 42.0588Z" fill="#A45C65"/>
<path fill-rule="evenodd" clip-rule="evenodd" d="M33.617 25.5793C34.0539 24.8175 34.4012 24.0108 34.8717 23.2602C35.1204 22.8367 35.4385 22.458 35.8128 22.1399C37.4679 21.957 39.1342 21.8971 40.7982 21.9607C44.5798 22.0203 48.2915 22.9886 51.6204 24.7839C55.2147 26.8688 58.0933 29.9934 59.8771 33.7463C61.1784 36.3328 61.9983 39.1343 62.2969 42.0142C62.5384 44.4777 62.4024 46.9635 61.8936 49.3859C61.4752 51.2921 60.7369 53.5528 59.8173 55.2741C59.6605 55.5766 59.4812 55.8679 59.3132 56.1592C59.3132 56.26 59.2236 56.3384 59.1787 56.4281C58.5164 57.1306 57.7628 57.741 56.9381 58.243C55.3554 59.2201 53.7279 60.7159 51.9677 61.3172C50.1461 62.0021 48.273 62.5416 46.3661 62.9304C44.9417 63.233 43.4958 63.424 42.0417 63.5018C41.4592 63.5018 40.9214 63.569 40.2828 63.5018C37.2546 63.4651 34.2743 62.7411 31.5668 61.3844C29.6724 60.3836 27.9696 57.9359 26.5366 56.343C26.5047 56.3193 26.4782 56.289 26.4589 56.2542C26.4396 56.2195 26.4279 56.181 26.4246 56.1413C28.0477 54.8709 29.442 53.3327 30.5473 51.5929C30.6818 51.38 30.7826 51.3464 31.0179 51.4472C32.3312 52.0482 33.7929 52.247 35.219 52.0186C36.2148 51.8348 37.1372 51.3701 37.8776 50.6794C38.618 49.9886 39.1454 49.1006 39.3978 48.1199C39.5264 47.6696 39.5264 47.1923 39.3978 46.7419C39.2647 46.4055 39.0146 46.1284 38.6935 45.9616C38.3724 45.7949 38.0019 45.7497 37.6501 45.8345C37.258 45.9017 36.8771 46.025 36.5298 46.1034C36.0533 46.204 35.5611 46.204 35.0846 46.1034C34.9726 46.1034 34.8941 46.1034 34.9053 45.9241C34.9554 44.9986 34.7418 44.0779 34.2892 43.269C33.0441 40.4363 31.0827 37.9767 28.598 36.1326C28.3179 35.9197 28.2059 36.1326 28.049 36.2558C27.6822 36.6473 27.2452 36.9665 26.7607 37.1969C25.755 37.4076 24.7207 37.4455 23.7022 37.3089C22.9559 37.1928 22.2423 36.9215 21.6074 36.5124C20.9725 36.1033 20.4305 35.5655 20.0164 34.9339C19.2247 33.7385 18.666 32.4044 18.3696 31.0016C18.0092 29.3964 17.7992 27.7612 17.7422 26.117C17.7422 25.3664 17.7422 24.6046 17.7422 23.8764C17.7422 23.3611 17.8318 23.2714 18.336 23.2602C19.2546 23.2602 20.1733 23.2602 21.0807 23.2602C22.8284 23.3275 24.5761 23.3275 26.3126 23.4619C27.8474 23.5739 29.3934 23.7196 30.917 23.9772C31.588 24.0624 32.2193 24.3423 32.733 24.7823C33.2467 25.2223 33.6202 25.8032 33.8074 26.4531C34.1897 27.6264 34.312 28.8688 34.1659 30.0941C34.1659 30.5759 34.0427 31.0576 33.9755 31.5393C33.9657 31.6509 33.9393 31.7605 33.8971 31.8642C33.9643 31.7746 33.8971 31.6626 33.9867 31.5505C34.1469 30.7009 34.2294 29.8384 34.2332 28.9738C34.2686 27.953 34.0971 26.9355 33.729 25.9826C33.6781 25.9301 33.6411 25.8657 33.6216 25.7952C33.602 25.7248 33.6004 25.6505 33.617 25.5793Z" fill="#F4A3C5"/>
<path fill-rule="evenodd" clip-rule="evenodd" d="M26.7944 37.1296L28.038 36.2557C30.404 38.002 32.2951 40.3129 33.5387 42.9776C33.8883 43.6895 34.1479 44.4422 34.3117 45.2182C34.3117 45.4311 34.4126 45.7112 34.2445 45.8008C34.0765 45.8904 33.8748 45.6888 33.7404 45.5431C32.8105 44.546 31.9031 43.5378 30.9732 42.5407C30.2695 41.6776 29.5058 40.8652 28.6878 40.1096C27.5496 39.2842 26.2644 38.6834 24.9011 38.3395C23.069 37.8317 21.1938 37.4942 19.2996 37.3312C18.3249 37.2416 17.339 37.1296 16.3644 37.1296C15.9916 37.1612 15.6168 37.1612 15.2441 37.1296C15.5632 37.1503 15.8811 37.1877 16.1963 37.2416C16.8237 37.2416 16.8461 37.1408 16.678 37.8914C16.3876 39.1743 16.1966 40.4777 16.1067 41.7901C15.879 45.2714 16.4222 48.76 17.6975 52.0073C17.6975 52.1305 17.8432 52.2762 17.5855 52.2538C17.3814 52.2366 17.1791 52.2029 16.9805 52.1529C16.9805 52.1529 16.9805 52.2202 16.9805 52.1529C16.9805 52.0857 16.9805 52.1529 16.9805 52.1529C16.9805 52.1529 17.3502 52.1529 17.5071 52.2986C18.9601 52.5615 20.4333 52.6965 21.9099 52.7019C24.4193 52.7336 26.8875 52.0622 29.0351 50.7638C29.111 50.7019 29.206 50.6681 29.3039 50.6681C29.4019 50.6681 29.4969 50.7019 29.5728 50.7638C29.7286 50.8868 29.9024 50.9851 30.0882 51.055C30.301 51.1559 30.3234 51.2567 30.189 51.4584C29.7633 52.0409 29.3376 52.5787 28.867 53.1612C27.803 54.4241 26.5615 55.526 25.1812 56.4325C24.1909 57.008 23.0994 57.3883 21.9659 57.5528C20.924 57.7545 19.8821 57.9898 18.8402 58.225C18.8402 58.225 18.7506 58.225 18.7506 58.3034C18.7506 58.3819 18.8963 58.3034 18.9635 58.3034C19.4788 58.3034 19.9942 58.2026 20.5095 58.1242C20.6539 58.077 20.81 58.0801 20.9525 58.133C21.0949 58.1859 21.2152 58.2854 21.2937 58.4155C21.7112 59.0162 22.1678 59.5888 22.6605 60.1295C22.7389 60.208 22.8622 60.2864 22.7277 60.432C21.9916 61.3788 21.0174 62.1134 19.9045 62.5606C19.3867 62.7112 18.8371 62.7133 18.3181 62.5667C17.7992 62.4201 17.3319 62.1308 16.9693 61.7316C15.9148 60.7125 15.0231 59.5374 14.3254 58.2474C12.7525 55.4121 11.5119 52.4047 10.6284 49.285C9.57528 46.0024 8.65663 42.6863 7.81639 39.3478C7.81639 39.2358 7.70436 39.1349 7.81639 39.0341L10.9533 40.9498C11.0765 41.0283 11.1997 41.2075 11.3454 41.1291C11.491 41.0507 11.8495 40.905 11.9391 40.6698C12.3906 39.6294 13.059 38.6974 13.8997 37.9362C15.3449 36.4238 16.9917 35.1242 18.5714 33.7574C18.8066 33.8471 18.8627 34.0823 18.9747 34.2616C19.5352 35.3348 20.3751 36.2366 21.4058 36.8719C22.3001 37.3616 23.3111 37.5979 24.3298 37.5553C25.1647 37.5223 25.9925 37.3868 26.7944 37.152" fill="#ED3438"/>
<path fill-rule="evenodd" clip-rule="evenodd" d="M19.7814 37.5999C21.4568 37.7949 23.1106 38.1436 24.722 38.6418C25.5664 38.8955 26.3872 39.2216 27.1755 39.6165C28.0956 40.1066 28.9013 40.7862 29.5394 41.6106C30.1891 42.406 30.8837 43.1791 31.5559 43.9521C31.5973 43.9862 31.6308 44.0289 31.654 44.0773C31.6772 44.1257 31.6896 44.1785 31.6903 44.2321C31.1771 43.8151 30.6941 43.3621 30.2451 42.8766C30.0452 42.7437 29.8738 42.5723 29.741 42.3724C29.6738 42.238 29.5394 42.1596 29.4609 42.0251C29.4414 41.9836 29.4148 41.9457 29.3825 41.9131C29.4149 41.9562 29.4449 42.001 29.4721 42.0475C29.5506 42.1708 29.685 42.2492 29.741 42.3948C29.9139 42.5544 30.0613 42.7395 30.1779 42.9438C31.1724 44.1798 32.4072 45.2012 33.8077 45.9462C34.3164 46.2255 34.8758 46.4001 35.4531 46.4598C36.0303 46.5194 36.6136 46.4629 37.1687 46.2935C37.4262 46.2153 37.6952 46.1812 37.9641 46.1927C38.2612 46.1927 38.5462 46.3107 38.7563 46.5208C38.9664 46.7309 39.0844 47.0159 39.0844 47.313C39.1146 48.1878 38.8101 49.0412 38.233 49.6993C37.8233 50.2309 37.3084 50.6724 36.7205 50.9962C36.1326 51.3201 35.4843 51.5193 34.816 51.5814C33.2369 51.7228 31.6505 51.4078 30.2451 50.6739C29.147 50.1532 28.1131 49.5065 27.1643 48.747L26.8842 48.5341C26.8946 48.5988 26.9191 48.6604 26.9558 48.7146C26.9926 48.7688 27.0408 48.8143 27.0971 48.8478C27.588 49.3439 28.1202 49.7974 28.6879 50.2034C28.8224 50.3042 28.856 50.3602 28.6879 50.4499C27.1707 51.408 25.4678 52.0342 23.6913 52.2872H23.5905C23.3776 52.3656 23.2656 52.2872 23.1648 52.0743C22.8444 51.597 22.549 51.1034 22.2797 50.5955C21.109 48.4449 20.2704 46.1295 19.7927 43.728C19.4869 41.9529 19.3704 40.1503 19.4454 38.3505C19.4454 38.1601 19.4454 37.9808 19.5238 37.7904C19.6022 37.5999 19.5238 37.5327 19.7478 37.5999" fill="#F4A4C5"/>
<path fill-rule="evenodd" clip-rule="evenodd" d="M26.4474 56.1978C26.8447 56.5465 27.2189 56.9208 27.5677 57.3181C29.323 59.0387 31.4284 60.3608 33.7406 61.1944C35.1823 61.7516 36.6875 62.1279 38.2218 62.3147C39.3362 62.4565 40.4607 62.5014 41.5828 62.4492C44.3052 62.317 47.0002 61.8427 49.6042 61.0376C51.3852 60.4939 53.1291 59.8352 54.8248 59.0658C56.4713 58.3094 57.9846 57.2917 59.3061 56.0522C59.3061 56.0522 59.3621 56.0522 59.3957 56.0522C59.1585 56.5255 58.861 56.9661 58.5106 57.363C56.5728 59.8379 54.0138 61.7552 51.0942 62.9197C50.9408 62.9798 50.8012 63.0704 50.6838 63.1859C50.5663 63.3014 50.4735 63.4395 50.4108 63.5919C49.8105 64.7754 49.137 65.9203 48.3942 67.02C48.3327 67.0423 48.2653 67.0423 48.2038 67.02C47.7194 66.8176 47.1996 66.7133 46.6746 66.7133C46.1495 66.7133 45.6298 66.8176 45.1453 67.02C44.5545 67.209 43.9983 67.4928 43.4985 67.8603C43.3753 67.9499 43.2744 68.0731 43.0952 68.0507C42.8664 67.275 42.7089 66.48 42.6246 65.6757C42.6246 65.3059 42.8823 65.0483 42.9607 64.7234C43.0968 64.3381 43.2615 63.9636 43.4537 63.6031C43.4487 63.5734 43.4487 63.5431 43.4537 63.5135C43.4537 63.5135 43.4537 63.5135 43.4537 63.5695C43.3099 63.9452 43.1219 64.3025 42.8935 64.6338C42.2998 65.7541 41.7732 66.796 41.0562 67.8378L40.7649 68.2412C40.7351 68.2552 40.7026 68.2624 40.6697 68.2624C40.6368 68.2624 40.6043 68.2552 40.5745 68.2412C40.0901 68.0387 39.5703 67.9345 39.0452 67.9345C38.5202 67.9345 38.0004 68.0387 37.516 68.2412C36.9172 68.4379 36.3537 68.7292 35.8468 69.1038C35.7347 69.1822 35.6339 69.3055 35.4659 69.2718C35.2216 68.3551 35.0382 67.4232 34.9169 66.4823C34.9169 66.247 34.9729 65.9669 34.7377 65.7877C34.4193 65.6588 34.083 65.5794 33.7406 65.5524C32.7821 65.3588 31.8415 65.0852 30.9286 64.7346C30.9078 64.7238 30.8848 64.7181 30.8614 64.7181C30.838 64.7181 30.8149 64.7238 30.7942 64.7346C28.9575 64.0309 27.2502 63.0277 25.7416 61.7658C24.4452 60.658 23.2629 59.4233 22.2126 58.0799C22.2126 58.0799 22.1454 57.9679 22.0894 57.8895C22.5487 57.8111 22.9856 57.7551 23.4113 57.6542C24.3619 57.3972 25.2604 56.9764 26.0665 56.4107C26.1742 56.3332 26.2864 56.2621 26.4025 56.1978" fill="#EC8FB7"/>
<path fill-rule="evenodd" clip-rule="evenodd" d="M19.7814 37.6C19.4901 37.7681 19.591 38.093 19.591 38.3058C19.5573 39.5584 19.6022 40.8119 19.7254 42.0589C20.148 45.6271 21.3862 49.0503 23.344 52.0632C23.4224 52.1977 23.5121 52.2985 23.6689 52.2873C23.131 52.3998 22.5828 52.4561 22.0333 52.4554C21.009 52.5001 19.9827 52.4664 18.9636 52.3545C18.8982 52.3569 18.8339 52.3372 18.781 52.2986C18.7282 52.26 18.6899 52.2047 18.6723 52.1417C17.8134 50.1819 17.2327 48.1117 16.947 45.9912C16.619 43.2091 16.7591 40.3918 17.3616 37.6561C17.4176 37.3984 17.5072 37.2864 17.7985 37.3312C18.4707 37.4208 19.1541 37.4544 19.8262 37.6" fill="#EC8FB7"/>
<path fill-rule="evenodd" clip-rule="evenodd" d="M46.8145 22.4531C47.7812 20.8302 49.0791 19.4293 50.6235 18.3416C51.4118 17.7869 52.2479 17.3032 53.1218 16.8964C53.3011 16.818 53.3795 16.8292 53.4579 17.0196C54.2976 19.0182 54.8011 21.1418 54.9479 23.3046C55.0011 24.1733 54.8713 25.0435 54.567 25.8589C54.4886 26.0381 54.4438 26.1278 54.2309 25.9709C52.0907 24.3568 49.649 23.1874 47.0497 22.5316L46.8145 22.4531Z" fill="#F4A4C5"/>
<path fill-rule="evenodd" clip-rule="evenodd" d="M43.0503 68.0159C43.9515 67.2665 45.0472 66.7886 46.2096 66.6379C46.9454 66.4921 47.7091 66.6281 48.3494 67.0188C47.766 68.0429 47.0077 68.9567 46.1087 69.7188L45.8959 69.8756C45.7192 70.0374 45.505 70.1526 45.2727 70.211C45.0404 70.2694 44.7972 70.2692 44.565 70.2103C44.3328 70.1514 44.1189 70.0358 43.9425 69.8737C43.7661 69.7116 43.6327 69.5083 43.5544 69.2819C43.337 68.885 43.1784 68.4585 43.0839 68.0159" fill="#F4A4C5"/>
<path fill-rule="evenodd" clip-rule="evenodd" d="M35.4097 69.2154C36.315 68.4656 37.4143 67.9878 38.5801 67.8374C39.3124 67.6967 40.0708 67.8324 40.7087 68.2183C40.1281 69.2442 39.3694 70.1585 38.4681 70.9183C38.4019 70.9768 38.3307 71.0293 38.2553 71.0751C38.0811 71.2453 37.8663 71.3679 37.6312 71.4313C37.3961 71.4947 37.1487 71.4967 36.9126 71.4371C36.6766 71.3775 36.4598 71.2584 36.2829 71.091C36.1061 70.9237 35.9751 70.7138 35.9026 70.4814C35.6758 70.0864 35.5097 69.6597 35.4097 69.2154Z" fill="#F4A4C5"/>
<path fill-rule="evenodd" clip-rule="evenodd" d="M62.7114 49.1958C63.1035 49.5207 63.462 49.7895 63.8317 50.092C63.9379 50.1817 64.0245 50.2924 64.0859 50.4171C64.1473 50.5418 64.1823 50.6779 64.1886 50.8167C64.1949 50.9556 64.1724 51.0943 64.1226 51.2241C64.0727 51.3538 63.9966 51.4719 63.8989 51.5708C63.4082 52.0604 62.8205 52.442 62.1737 52.6911L61.7031 52.8816C62.1439 51.6841 62.4813 50.4509 62.7114 49.1958Z" fill="#ED3438"/>
<path fill-rule="evenodd" clip-rule="evenodd" d="M30.8389 64.7344C30.9733 64.6112 31.0965 64.7344 31.2086 64.7344C32.3874 65.1401 33.6031 65.429 34.8384 65.5971L34.6927 65.6979C33.3724 65.5232 32.0782 65.1884 30.8389 64.7008" fill="#EE9EBE"/>
<path fill-rule="evenodd" clip-rule="evenodd" d="M42.8486 64.6106L43.3864 63.4903C43.4424 63.4903 43.476 63.4903 43.4424 63.5463C43.2956 63.9326 43.1196 64.3071 42.9159 64.6666L42.8486 64.6106Z" fill="#9E555F"/>
<path fill-rule="evenodd" clip-rule="evenodd" d="M16.1289 37.197C15.7904 37.2066 15.452 37.1765 15.1206 37.1073C15.5216 37.0458 15.9296 37.0458 16.3305 37.1073C16.2633 37.1073 16.1737 37.1073 16.1289 37.1746" fill="#A2494C"/>
<path fill-rule="evenodd" clip-rule="evenodd" d="M30.1776 42.9449C30.0007 42.7874 29.8462 42.6065 29.7183 42.4071C29.7183 42.3399 29.7183 42.3287 29.7183 42.3399L30.1888 42.8777L30.1216 42.9449" fill="#9D565F"/>
<path fill-rule="evenodd" clip-rule="evenodd" d="M17.4845 52.2644C17.2888 52.2519 17.098 52.1985 16.9243 52.1076C17.1385 52.0905 17.3536 52.1251 17.5517 52.2084L17.4845 52.2644Z" fill="#AE4648"/>
<path fill-rule="evenodd" clip-rule="evenodd" d="M18.9077 58.281C18.8069 58.3707 18.6948 58.281 18.5604 58.281C18.426 58.281 18.6948 58.169 18.7845 58.169H18.9077" fill="#A7484A"/>
<path fill-rule="evenodd" clip-rule="evenodd" d="M59.3621 55.9179H59.2725C59.2783 55.8763 59.2935 55.8367 59.3167 55.8017C59.34 55.7668 59.3708 55.7376 59.4069 55.7162C59.5301 55.817 59.4069 55.8619 59.4069 55.9179" fill="#D57E9B"/>
<path fill-rule="evenodd" clip-rule="evenodd" d="M18.3136 33.2649C17.765 33.5954 17.2442 33.97 16.7564 34.3852C15.4172 35.3371 14.1616 36.4015 13.0034 37.5669C12.3026 38.2241 11.7258 39.002 11.3005 39.8635C11.2109 40.0539 11.1325 40.0764 10.9532 39.9643L3.18945 35.4831C3.18945 35.4831 3.18945 35.4831 3.18945 35.4271C4.4554 33.9595 5.49729 32.3126 6.69602 30.789C7.78953 29.4072 9.13058 28.2409 10.6507 27.3496C10.8393 27.2059 11.0748 27.1378 11.311 27.1585C11.5472 27.1792 11.7672 27.2873 11.9279 27.4617C13.8772 29.0189 15.849 30.5313 17.8207 32.0661L17.9888 32.1558C18.2613 32.4647 18.4091 32.8641 18.4033 33.2761" fill="#74BF4F"/>
<path fill-rule="evenodd" clip-rule="evenodd" d="M18.4483 22.5995C17.865 22.4466 17.2686 22.3491 16.667 22.3082C15.894 22.2298 15.894 22.3082 16.0397 21.4904C16.3091 19.9004 16.7954 18.3549 17.4849 16.8971C18.0694 15.6121 18.9211 14.4663 19.9832 13.5362C20.9354 12.7296 21.8429 11.8669 22.7615 11.0267C23.1424 10.6794 23.1312 10.6906 23.5009 11.0267L26.6714 13.9171L28.3519 15.4631C28.5199 15.6088 28.4527 15.6648 28.3519 15.8104C27.6797 16.5722 26.705 16.561 25.8424 16.7851C23.0976 17.4909 20.3305 18.1407 17.5745 18.8017H17.4961L20.7114 22.6219C20.6824 22.6549 20.6459 22.6803 20.6049 22.696C20.5639 22.7116 20.5196 22.7169 20.4761 22.7115C19.8531 22.7621 19.2268 22.7546 18.6052 22.6891C18.5726 22.6861 18.541 22.6766 18.5121 22.6612C18.4833 22.6458 18.4578 22.6248 18.4371 22.5995" fill="#74BF4F"/>
<path fill-rule="evenodd" clip-rule="evenodd" d="M29.8082 23.4281C29.7522 23.036 29.6514 22.6439 29.629 22.3078C29.5729 21.714 29.4497 21.1315 29.3377 20.5489C29.2936 20.3884 29.29 20.2195 29.3272 20.0572C29.3643 19.895 29.4411 19.7444 29.5505 19.619C30.1781 18.8332 30.8515 18.085 31.5671 17.3784C32.3795 16.5317 33.3763 15.8838 34.4799 15.4851C34.7063 15.3806 34.9555 15.335 35.2043 15.3526C35.453 15.3703 35.6933 15.4505 35.9027 15.5859C37.4711 16.6166 39.0732 17.5913 40.664 18.5996L40.7648 18.678C40.2159 18.8348 39.6445 18.9581 39.1852 19.1261C37.6032 19.6119 36.1849 20.5225 35.0849 21.7588C34.4461 22.5608 33.9497 23.4665 33.6173 24.4364C33.5276 24.6604 33.5164 24.9181 33.2924 25.075C33.0683 25.2318 33.1019 24.9741 33.0347 24.8957C32.4697 24.3017 31.7263 23.9083 30.9173 23.7754C30.5274 23.7385 30.1496 23.6201 29.8082 23.4281Z" fill="#74BF4F"/>
<path fill-rule="evenodd" clip-rule="evenodd" d="M1.64355 20.7504L10.1691 17.8264C10.6172 17.6695 11.0766 17.5239 11.5135 17.3558C11.5511 17.3327 11.5932 17.3179 11.637 17.3122C11.6808 17.3065 11.7253 17.3101 11.7676 17.3228C11.8099 17.3355 11.8491 17.3569 11.8825 17.3858C11.9159 17.4147 11.9429 17.4503 11.9616 17.4903C12.2116 17.8139 12.4327 18.1588 12.6226 18.521C13.2164 19.6413 13.7429 20.7616 14.2022 21.9603C14.3031 22.2068 14.2022 22.2516 13.9894 22.2964C11.9915 22.6624 10.087 23.4242 8.38782 24.537L8.28699 24.6154L11.0206 26.7888C10.5245 27.023 10.042 27.2848 9.57535 27.5731C9.40731 27.6851 9.3737 27.517 9.31768 27.4274C8.84715 26.7328 8.37662 26.0606 7.86128 25.4109C6.96898 24.2854 5.88877 23.3227 4.66839 22.5653C3.76094 21.9939 2.86469 21.445 1.91243 20.9072C1.80693 20.8643 1.71431 20.7948 1.64355 20.7056" fill="#74BF4F"/>
<path fill-rule="evenodd" clip-rule="evenodd" d="M21.428 22.7229C21.3061 22.7016 21.1905 22.6534 21.0897 22.5816C20.9889 22.5099 20.9054 22.4165 20.8454 22.3083C20.1396 21.3225 19.3554 20.3926 18.6048 19.4403C18.3807 19.1715 18.3919 19.1603 18.7616 19.0818L25.6291 17.6591L27.3992 17.2893C27.6569 17.2221 27.7465 17.2893 27.8137 17.5358C28.2283 19.1155 28.6652 20.6951 29.0125 22.2859C29.1217 22.6506 29.1893 23.0264 29.2141 23.4062C29.1744 23.4437 29.1258 23.4705 29.0729 23.4842C29.0201 23.4979 28.9646 23.4981 28.9117 23.4847C27.164 23.2494 25.4163 23.1038 23.6574 23.0141C23.0188 22.9469 22.3802 22.9133 21.7305 22.8909C21.6807 22.8999 21.6295 22.8953 21.5821 22.8776C21.5348 22.8598 21.4931 22.8296 21.4616 22.7901" fill="#74BF4F"/>
<path fill-rule="evenodd" clip-rule="evenodd" d="M15.5129 23.0702C16.0241 23.0588 16.5351 23.1039 17.0365 23.2047C17.0907 23.2754 17.128 23.3576 17.1455 23.445C17.163 23.5324 17.1602 23.6227 17.1373 23.7088C17.0584 24.8277 17.0584 25.9508 17.1373 27.0697C17.1911 28.1027 17.3071 29.1316 17.4846 30.1506C17.563 30.5763 17.6863 30.9908 17.7871 31.4166C17.7871 31.551 17.8767 31.6966 17.7871 31.8311C17.4104 31.6074 17.0641 31.3363 16.7564 31.0244C15.4344 29.9041 14.1349 28.7838 12.8241 27.7307C11.7038 26.7897 10.5835 25.8374 9.46319 24.9075C9.27274 24.7507 9.33996 24.7059 9.46319 24.6275C10.9147 23.8531 12.4931 23.3447 14.1237 23.1263C14.4629 23.0981 14.8039 23.0981 15.1432 23.1263C15.0244 23.4365 14.8663 23.7302 14.6726 24.0001C14.6054 24.1121 14.471 24.1233 14.3477 24.1345C14.1724 24.1232 13.9965 24.1232 13.8212 24.1345C13.7088 24.1361 13.5991 24.1689 13.5044 24.2293C13.4096 24.2897 13.3335 24.3752 13.2847 24.4764C13.2358 24.5776 13.2161 24.6904 13.2278 24.8022C13.2394 24.914 13.282 25.0203 13.3507 25.1092C13.4113 25.2169 13.4826 25.3182 13.5635 25.4117C13.6198 25.495 13.643 25.5963 13.6285 25.6958C13.614 25.7952 13.5628 25.8857 13.4851 25.9494C13.3395 26.1063 13.1938 25.9494 13.0706 25.8934C12.9522 25.8126 12.859 25.7 12.8017 25.5685C12.7688 25.4953 12.7314 25.4243 12.6897 25.3557C12.5889 25.1764 12.4208 24.9972 12.2192 25.1316C12.0175 25.2661 12.2192 25.4789 12.2192 25.6133C12.4077 25.8616 12.6391 26.0741 12.9025 26.2407C12.9484 26.2624 12.989 26.2939 13.0214 26.333C13.0538 26.3721 13.0773 26.4179 13.0901 26.467C13.1029 26.5161 13.1048 26.5675 13.0956 26.6174C13.0864 26.6674 13.0664 26.7147 13.037 26.7561C12.9608 26.9139 12.9007 27.0791 12.8577 27.249C12.8577 27.361 12.8577 27.4619 12.9474 27.5067C13.037 27.5515 13.1602 27.5067 13.2274 27.3946C13.3022 27.2581 13.3659 27.1157 13.4179 26.9689C13.433 26.91 13.4603 26.8548 13.498 26.807C13.5356 26.7592 13.5829 26.7198 13.6367 26.6913C13.6905 26.6629 13.7496 26.6459 13.8103 26.6416C13.871 26.6374 13.932 26.6458 13.9892 26.6664C14.1159 26.7069 14.2484 26.7259 14.3814 26.7225C14.4759 26.7277 14.5698 26.705 14.6515 26.6572C14.7332 26.6094 14.799 26.5386 14.8407 26.4536C14.8682 26.3734 14.8711 26.2869 14.8492 26.2051C14.8272 26.1233 14.7814 26.0499 14.7174 25.9943L14.5606 25.8262C14.2469 25.5013 14.2469 25.4901 14.4934 25.098C14.7399 24.7059 14.7847 24.6611 15.2552 24.8739C15.4232 24.93 15.6361 25.0308 15.7369 24.8739C15.8378 24.7171 15.6361 24.5603 15.4905 24.4594C15.0984 24.1906 15.0647 24.1009 15.4008 23.7984C15.7369 23.496 15.5017 23.3503 15.4008 23.1263" fill="#74BF4F"/>
<path fill-rule="evenodd" clip-rule="evenodd" d="M17.7872 31.8075C17.5141 30.7688 17.3083 29.7135 17.171 28.6482C16.9715 27.0093 16.9227 25.3555 17.0254 23.7077C17.0254 23.5396 17.0254 23.3716 17.0254 23.2035C17.0254 23.0355 17.0814 22.9795 17.1038 22.8674C17.2219 22.7873 17.3662 22.7552 17.5071 22.7778C19.0868 22.7778 20.6664 22.7778 22.2348 22.7778C22.6986 22.7685 23.1625 22.7872 23.624 22.8338C24.9908 22.8338 26.3464 23.0019 27.7019 23.1363L29.1695 23.3044L29.8081 23.4276L31.0405 23.6629C31.9326 23.828 32.7313 24.3192 33.2811 25.0408L33.606 25.545C34.361 27.4666 34.475 29.5807 33.9309 31.5723C33.9309 31.5723 33.9309 31.5723 33.8636 31.5723C33.9309 30.9449 34.0205 30.3287 34.0429 29.7125C34.1249 28.6152 33.9956 27.5123 33.662 26.4636C33.4497 25.7704 33.0296 25.159 32.4586 24.7122C31.8875 24.2654 31.1931 24.0047 30.4691 23.9654C28.4301 23.6853 26.3912 23.506 24.341 23.4276C22.2908 23.3492 20.2071 23.2932 18.1457 23.3156C17.9328 23.3156 17.7872 23.3156 17.776 23.5956C17.6544 26.5314 18.01 29.4674 18.8291 32.2893C19.1841 33.5393 19.8245 34.6899 20.7 35.6502C21.2578 36.2231 21.9334 36.6681 22.68 36.9544C23.4266 37.2407 24.2265 37.3614 25.0244 37.3082C25.6182 37.3082 26.1447 37.1514 26.7833 37.129C26.3977 37.3343 25.9748 37.46 25.5397 37.4987C24.7199 37.6906 23.8684 37.7038 23.043 37.5376C22.2176 37.3713 21.4377 37.0295 20.756 36.5352C19.8527 35.8416 19.1175 34.9532 18.605 33.9361L18.4594 33.7121C18.4415 33.5472 18.3753 33.3912 18.2689 33.2639L17.8544 32.1436C17.8514 32.0229 17.8124 31.9059 17.7424 31.8075" fill="#8F4A50"/>
<path fill-rule="evenodd" clip-rule="evenodd" d="M15.5128 23.0693C15.8713 23.3382 15.8825 23.4614 15.5128 23.7527C15.4509 23.8147 15.3946 23.8822 15.3448 23.9544C15.2215 24.1 15.2327 24.2008 15.4344 24.2569C15.5961 24.3033 15.7354 24.4068 15.8265 24.5481C15.8787 24.5898 15.915 24.6482 15.9293 24.7135C15.9436 24.7788 15.935 24.847 15.9049 24.9066C15.8265 25.0411 15.7033 25.0299 15.58 25.0187C15.3985 25.0151 15.2239 24.9476 15.0871 24.8282C14.9079 24.6714 14.7958 24.7274 14.7062 24.9178C14.3813 25.3996 14.3813 25.3996 14.7846 25.8365C14.9527 26.0158 15.0871 26.2062 14.9527 26.4527C14.8988 26.5697 14.8046 26.6634 14.6875 26.7169C14.5703 26.7703 14.4378 26.7799 14.3141 26.744C13.6755 26.6543 13.6755 26.6543 13.4066 27.2593C13.3636 27.347 13.311 27.4297 13.2498 27.5058C13.149 27.6402 13.0145 27.6066 12.8913 27.5058C12.7681 27.4049 12.7457 27.3489 12.7793 27.2257C12.8129 27.1025 12.7793 27.2257 12.7793 27.2257C12.8689 26.9568 13.0818 26.6543 13.0257 26.4303C12.9697 26.2062 12.6112 26.1054 12.4096 25.9037C12.2583 25.761 12.1265 25.599 12.0175 25.422C11.9502 25.2988 11.9054 25.1643 12.0175 25.0523C12.0649 25.0049 12.1251 24.9723 12.1907 24.9584C12.2563 24.9445 12.3245 24.9498 12.3872 24.9739C12.474 24.9939 12.5539 25.0366 12.6189 25.0976C12.6838 25.1586 12.7314 25.2358 12.7569 25.3212C12.8016 25.5046 12.9085 25.6669 13.0593 25.7805C13.1602 25.7805 13.261 26.0382 13.3842 25.8589C13.5075 25.6797 13.6419 25.5564 13.3842 25.3772C13.3336 25.3302 13.2885 25.2776 13.2498 25.2203C13.1503 25.1167 13.0826 24.9866 13.0547 24.8456C13.0269 24.7046 13.0402 24.5586 13.093 24.4249C13.1538 24.2788 13.262 24.1574 13.4002 24.0802C13.5383 24.003 13.6984 23.9745 13.8548 23.9992C13.9611 24.0387 14.0748 24.055 14.188 24.047C14.3012 24.039 14.4113 24.0068 14.5111 23.9527C14.6108 23.8986 14.6979 23.8238 14.7663 23.7332C14.8347 23.6427 14.883 23.5386 14.9079 23.4278C14.9553 23.291 15.0408 23.1705 15.1543 23.0805H15.5128" fill="#FEFEFD"/>
<path fill-rule="evenodd" clip-rule="evenodd" d="M7.71544 29.0298L5.16113 28.1559C6.11093 27.4736 7.09836 26.8452 8.11875 26.2738C8.51086 26.7107 8.82455 27.2037 9.17184 27.6742C9.23906 27.775 9.26147 27.8422 9.17184 27.9319L7.71544 29.0298Z" fill="#4C2120"/>
<path fill-rule="evenodd" clip-rule="evenodd" d="M5.77729 31.1361C5.58684 30.3183 5.38518 29.4893 5.19473 28.6602C5.13871 28.4474 5.27315 28.4922 5.39638 28.537L7.49136 29.2204C6.88779 29.8294 6.31569 30.4688 5.77729 31.1361Z" fill="#ED3438"/>
<path fill-rule="evenodd" clip-rule="evenodd" d="M21.4282 22.7217H21.6858C21.6858 22.8561 21.5738 22.8113 21.5066 22.8113H17.2046C17.2046 22.8113 17.1486 22.8113 17.115 22.8113C17.0814 22.8113 17.171 22.6097 17.3166 22.6097H18.4369C19.1821 22.6714 19.93 22.6939 20.6776 22.6769C20.9225 22.7157 21.172 22.7157 21.417 22.6769" fill="#8E4C51"/>
<path fill-rule="evenodd" clip-rule="evenodd" d="M17.1147 22.8003H21.3383C21.4503 22.8003 21.5848 22.8003 21.6856 22.8003C22.3374 22.7967 22.9888 22.8379 23.635 22.9235H17.1147V22.8563" fill="#8D5451"/>
<path fill-rule="evenodd" clip-rule="evenodd" d="M47.3409 29.9486C47.6882 30.0046 47.9683 29.7806 48.2708 29.6909C49.4325 29.3454 50.6463 29.2088 51.8558 29.2876C53.0658 29.3358 54.2535 29.6286 55.3472 30.1485C56.4409 30.6684 57.4178 31.4045 58.2191 32.3125C59.1493 33.3526 59.7327 34.6564 59.8884 36.0431C59.9951 36.7171 59.9723 37.4054 59.8212 38.0709C59.581 38.8316 59.1667 39.5259 58.6113 40.0986C56.9685 41.9472 54.6785 43.0942 52.2143 43.3027C50.3806 43.5154 48.5245 43.1924 46.8704 42.3728C45.8422 41.9151 44.9287 41.2343 44.1963 40.3798C43.4638 39.5252 42.9307 38.5184 42.6356 37.4323C42.3409 36.5885 42.3019 35.6766 42.5236 34.8108C42.7667 34.0672 43.1466 33.3757 43.6439 32.7718C44.3743 31.8589 45.2763 31.0977 46.299 30.5312C46.6022 30.2669 46.957 30.0685 47.3409 29.9486Z" fill="#EE6CA2"/>
<path fill-rule="evenodd" clip-rule="evenodd" d="M42.5126 34.81C42.3811 35.9501 42.535 37.105 42.9607 38.1709C43.4056 39.2735 44.1087 40.2532 45.0108 41.0277C46.2433 42.0939 47.7415 42.8063 49.3464 43.0891C50.7089 43.3398 52.1085 43.307 53.4577 42.9928C54.807 42.6786 56.077 42.0898 57.1886 41.263C58.2854 40.4512 59.16 39.3763 59.7317 38.1373C59.7266 38.1114 59.7266 38.0848 59.7317 38.0589C59.5864 39.1404 59.166 40.1664 58.5106 41.0389C57.7887 42.0616 56.8623 42.9233 55.7901 43.5693C54.7179 44.2154 53.5232 44.6317 52.2817 44.7919C50.982 45.0384 49.6448 45.006 48.3585 44.697C47.0723 44.388 45.8663 43.8094 44.8204 42.9994C44.0653 42.4192 43.4372 41.6905 42.9747 40.8581C42.5123 40.0257 42.2254 39.1073 42.1316 38.1597C41.9477 37.0207 42.0995 35.8528 42.5686 34.7988" fill="#BE5F8D"/>
<path fill-rule="evenodd" clip-rule="evenodd" d="M30.3794 28.2905C30.2424 30.0107 29.5992 31.6518 28.5309 33.007C27.9421 33.7646 27.2391 34.426 26.4471 34.9675C26.3313 35.0489 26.1992 35.1041 26.0599 35.1293C25.9206 35.1544 25.7775 35.1489 25.6405 35.1132C25.0191 34.969 24.4326 34.7026 23.9151 34.3295C23.3977 33.9563 22.9598 33.4839 22.6269 32.9398C21.7198 31.5004 21.1138 29.8921 20.8456 28.2121C20.7223 27.5287 20.6439 26.8453 20.5879 26.1619C20.5879 25.9602 20.5879 25.8818 20.8456 25.8594C22.2528 25.7176 23.6698 25.6988 25.0803 25.8034C26.5245 25.8967 27.9418 26.2377 29.2703 26.8117C29.2703 26.8789 29.2703 26.9013 29.1807 26.9237C29.0257 26.939 28.8697 26.9078 28.7325 26.8341C27.6244 26.4981 26.482 26.2876 25.3268 26.2067C24.0627 26.1482 22.796 26.197 21.5402 26.3523C21.3609 26.3523 21.2489 26.3523 21.2713 26.6324C21.4752 28.5564 22.074 30.4176 23.0302 32.0995C23.4947 32.9126 24.1882 33.5711 25.0243 33.9929L25.338 34.1273C25.5203 34.2104 25.7226 34.2399 25.921 34.2121C26.1194 34.1843 26.3058 34.1005 26.4583 33.9705C28.362 32.5327 29.6828 30.4561 30.1777 28.1224C30.1777 27.9768 30.1777 27.7751 30.4018 27.7303C30.4633 27.912 30.4633 28.1088 30.4018 28.2905" fill="#8F4A51"/>
<path fill-rule="evenodd" clip-rule="evenodd" d="M37.202 40.4004C37.2659 39.7473 37.4724 39.1163 37.8069 38.5518C37.8624 38.4278 37.9475 38.3192 38.0548 38.2358C38.162 38.1523 38.2882 38.0965 38.4221 38.0732C38.556 38.05 38.6936 38.06 38.8227 38.1025C38.9518 38.1449 39.0685 38.2184 39.1625 38.3166C39.4158 38.4962 39.6262 38.7295 39.7787 39L39.0057 39.2801C38.8824 39.2801 38.86 39.3921 38.9385 39.5041C40.4733 41.8232 42.2098 43.9069 45.089 44.5791C45.4981 44.6717 45.9139 44.7316 46.3325 44.7584C46.4333 44.7584 46.5566 44.7584 46.6462 44.848C45.9436 44.988 45.2202 44.988 44.5176 44.848C43.1515 44.6725 41.8595 44.1267 40.7813 43.2697C39.7032 42.4127 38.8799 41.2771 38.4007 39.9858C38.2999 39.717 38.2103 39.6722 37.9862 39.8626C37.7066 40.0974 37.448 40.356 37.2132 40.6356C37.191 40.6025 37.1792 40.5635 37.1792 40.5236C37.1792 40.4837 37.191 40.4447 37.2132 40.4116" fill="#8F4A51"/>
<path fill-rule="evenodd" clip-rule="evenodd" d="M39.7454 23.2722C40.4512 23.2722 40.8657 23.4738 40.9889 23.8995C41.0237 23.9719 41.0432 24.0507 41.0461 24.1309C41.049 24.2111 41.0353 24.2911 41.0059 24.3658C40.9764 24.4405 40.9318 24.5083 40.8749 24.5649C40.818 24.6216 40.75 24.6658 40.6752 24.695C40.2222 24.8667 39.7468 24.9723 39.2636 25.0087C38.6095 25.0802 37.9686 25.2424 37.3591 25.4904C37.2168 25.5559 37.055 25.5658 36.9058 25.5182C36.7565 25.4705 36.6305 25.3686 36.5525 25.2327C36.4801 25.0813 36.464 24.9091 36.5071 24.7469C36.5502 24.5847 36.6497 24.4431 36.7877 24.3477C37.4764 23.8291 38.2793 23.4834 39.1292 23.3394C39.3289 23.2802 39.5376 23.2574 39.7454 23.2722Z" fill="#F1C1D9"/>
<path fill-rule="evenodd" clip-rule="evenodd" d="M43.4869 29.6456C43.4721 29.3216 43.5668 29.0019 43.7557 28.7382C43.803 28.6517 43.8726 28.5795 43.9574 28.5293C44.0422 28.479 44.1389 28.4525 44.2375 28.4525C44.336 28.4525 44.4327 28.479 44.5175 28.5293C44.6023 28.5795 44.6719 28.6517 44.7192 28.7382C44.8983 29.0317 44.9931 29.369 44.9931 29.7129C44.9931 30.0568 44.8983 30.394 44.7192 30.6875C44.669 30.7686 44.5989 30.8355 44.5155 30.8819C44.4322 30.9283 44.3384 30.9526 44.2431 30.9526C44.1477 30.9526 44.0539 30.9283 43.9706 30.8819C43.8873 30.8355 43.8172 30.7686 43.7669 30.6875C43.5655 30.3791 43.4711 30.013 43.4981 29.6456" fill="#8F4A51"/>
<path fill-rule="evenodd" clip-rule="evenodd" d="M47.3408 29.9484C47.0167 30.1814 46.6671 30.3768 46.2989 30.531C46.078 30.2692 45.9372 29.9492 45.8935 29.6094C45.8498 29.2696 45.9049 28.9245 46.0524 28.6152C46.1757 28.3688 46.3437 28.1447 46.6462 28.1559C46.9487 28.1671 47.1055 28.3688 47.2288 28.6265C47.4159 29.0414 47.4554 29.5079 47.3408 29.9484Z" fill="#8F4A51"/>
<path fill-rule="evenodd" clip-rule="evenodd" d="M41.8514 24.3804C41.8686 24.1655 41.9677 23.9654 42.1283 23.8215C42.2888 23.6777 42.4986 23.601 42.7141 23.6074C42.9243 23.6211 43.1221 23.7124 43.269 23.8634C43.4159 24.0145 43.5016 24.2147 43.5095 24.4253C43.5038 24.5327 43.4769 24.638 43.4304 24.735C43.3839 24.8321 43.3187 24.919 43.2386 24.9908C43.1585 25.0626 43.0649 25.1179 42.9634 25.1535C42.8618 25.1891 42.7543 25.2043 42.6468 25.1983C42.5396 25.2016 42.4328 25.1825 42.3333 25.1423C42.2338 25.102 42.1438 25.0415 42.069 24.9646C41.9941 24.8876 41.9362 24.796 41.8987 24.6954C41.8613 24.5948 41.8451 24.4876 41.8514 24.3804Z" fill="#F1C1D9"/>
<path fill-rule="evenodd" clip-rule="evenodd" d="M29.2256 26.89L29.3152 26.8116C29.6002 26.9026 29.8687 27.0388 30.1106 27.2149C30.1106 27.2821 30.1106 27.2933 30.021 27.3045C29.7409 27.1925 29.416 27.1701 29.2256 26.89Z" fill="#9C555D"/>
<path fill-rule="evenodd" clip-rule="evenodd" d="M30.0435 27.2704H30.1107C30.5028 27.4944 30.5476 27.6737 30.3908 28.3907C30.3347 28.2114 30.4468 28.0098 30.3235 27.8417C30.2003 27.6737 30.0995 27.5505 30.0435 27.3712" fill="#9F5760"/>
<path fill-rule="evenodd" clip-rule="evenodd" d="M33.8746 31.6065H33.9418C33.9418 31.7073 33.9418 31.8082 33.8746 31.9762C33.841 31.9204 33.8232 31.8565 33.8232 31.7914C33.8232 31.7262 33.841 31.6623 33.8746 31.6065Z" fill="#904B52"/>
<path fill-rule="evenodd" clip-rule="evenodd" d="M37.2024 40.401C37.1968 40.4756 37.1968 40.5505 37.2024 40.625C37.2024 40.625 37.2024 40.7259 37.2024 40.625C37.1758 40.5873 37.1616 40.5423 37.1616 40.4962C37.1616 40.4501 37.1758 40.4051 37.2024 40.3674" fill="#A85F6A"/>
<path fill-rule="evenodd" clip-rule="evenodd" d="M29.8079 42.3395V42.4067L29.5391 42.0706C29.5391 42.0034 29.5391 42.0034 29.5951 42.0146L29.864 42.3395" fill="#A45C66"/>
<path fill-rule="evenodd" clip-rule="evenodd" d="M29.5056 42.0137L29.4496 42.081L29.1919 41.7561C29.3599 41.7561 29.4384 41.8905 29.5056 42.0137Z" fill="#B06773"/>
<path fill-rule="evenodd" clip-rule="evenodd" d="M43.4422 63.5464L43.3862 63.4904C43.3862 63.4904 43.4422 63.3112 43.4759 63.3448C43.5095 63.3784 43.4759 63.4904 43.4759 63.5464" fill="#B26374"/>
<path fill-rule="evenodd" clip-rule="evenodd" d="M11.8833 33.9591C11.8592 34.2074 11.8218 34.4542 11.7713 34.6985C11.7713 34.889 11.7713 34.9562 11.9506 35.0234L12.97 35.4827C13.0177 35.501 13.061 35.5289 13.0973 35.5647C13.1337 35.6004 13.1622 35.6434 13.1811 35.6907C13.2001 35.7381 13.209 35.7888 13.2074 35.8398C13.2058 35.8908 13.1936 35.9408 13.1717 35.9869C13.0821 36.2109 12.9812 36.323 12.7012 36.2446C12.3595 36.1575 12.0259 36.0413 11.7041 35.8973C11.4688 35.774 11.4016 35.8973 11.2896 36.0541C11.0165 36.5615 10.6338 37.0016 10.1693 37.3425C9.95641 37.4993 9.73235 37.6561 9.47467 37.4433C9.38741 37.3269 9.34024 37.1854 9.34024 37.04C9.34024 36.8945 9.38741 36.753 9.47467 36.6367C9.58029 36.4926 9.7296 36.3865 9.90039 36.3342C10.1295 36.2475 10.3308 36.1004 10.483 35.9085C10.8078 35.4603 10.8078 35.4491 10.2925 35.2251C10.2519 35.1904 10.2003 35.1713 10.1469 35.1713C10.0935 35.1713 10.0418 35.1904 10.0012 35.2251C9.85893 35.3645 9.70529 35.492 9.54189 35.606C9.40094 35.7293 9.22844 35.8109 9.04372 35.8416C8.859 35.8724 8.66937 35.8511 8.49606 35.7802C8.32276 35.7092 8.17264 35.5914 8.06253 35.4399C7.95242 35.2885 7.88666 35.1093 7.87263 34.9226C7.82018 34.6156 7.8014 34.3038 7.81662 33.9927C7.82238 33.9227 7.80603 33.8525 7.76985 33.7922C7.73368 33.732 7.6795 33.6845 7.61496 33.6566C7.31248 33.5222 7.0324 33.3542 6.72991 33.2085C6.62561 33.1566 6.53967 33.0741 6.4836 32.972C6.42754 32.8698 6.40403 32.753 6.41623 32.6372C6.41267 32.5198 6.44101 32.4036 6.49822 32.301C6.55542 32.1984 6.63937 32.1133 6.74112 32.0546C6.78644 32.0226 6.83804 32.0006 6.8925 31.99C6.94696 31.9794 7.00304 31.9805 7.05705 31.9933C7.11105 32.006 7.16174 32.03 7.20577 32.0637C7.2498 32.0975 7.28617 32.1402 7.31248 32.189C7.37105 32.2811 7.44276 32.3642 7.52533 32.4355C7.98466 32.7604 7.98466 32.7604 8.19752 32.2675C8.293 32.0299 8.46697 31.8322 8.69046 31.7073C8.74632 31.6655 8.81317 31.6409 8.88282 31.6365C8.95246 31.6321 9.02187 31.6481 9.08253 31.6826C9.1432 31.7171 9.19247 31.7686 9.22432 31.8307C9.25616 31.8928 9.2692 31.9628 9.26182 32.0322C9.26797 32.3691 9.15711 32.6977 8.94813 32.962C8.80249 33.1637 8.82489 33.2757 9.04896 33.399C9.293 33.5299 9.52871 33.6758 9.75475 33.8359C9.77465 33.8615 9.80014 33.8822 9.82926 33.8964C9.85838 33.9107 9.89038 33.9181 9.9228 33.9181C9.95522 33.9181 9.98721 33.9107 10.0163 33.8964C10.0455 33.8822 10.0709 33.8615 10.0908 33.8359C10.2141 33.6678 10.3709 33.5222 10.5054 33.3654C10.6002 33.2288 10.7359 33.126 10.893 33.0716C11.05 33.0172 11.2203 33.0142 11.3792 33.0629C11.5519 33.1361 11.6947 33.2656 11.7842 33.4305C11.8738 33.5953 11.9047 33.7856 11.8721 33.9703" fill="#FEFEFE"/>
<path fill-rule="evenodd" clip-rule="evenodd" d="M21.2823 15.1151C21.4055 14.7566 21.1591 14.6558 20.8454 14.5886C20.6947 14.568 20.5477 14.5266 20.4085 14.4654C20.3744 14.4543 20.3429 14.4362 20.3162 14.4123C20.2895 14.3883 20.2681 14.3591 20.2533 14.3264C20.2385 14.2937 20.2308 14.2583 20.2305 14.2224C20.2302 14.1865 20.2374 14.151 20.2516 14.1181C20.2516 13.95 20.4085 13.9276 20.5541 13.95H20.6101C20.879 14.006 21.1927 14.1629 21.4055 14.0733C21.6184 13.9836 21.6632 13.6363 21.7977 13.4123C21.9123 13.2197 22.0602 13.049 22.2346 12.9081C22.2792 12.8596 22.3389 12.8277 22.404 12.8175C22.4692 12.8073 22.5358 12.8195 22.5931 12.8521C22.6481 12.8926 22.6908 12.9475 22.7165 13.0108C22.7423 13.0741 22.7499 13.1432 22.7387 13.2106C22.728 13.2983 22.6958 13.382 22.6449 13.4543C22.5941 13.5266 22.5263 13.5853 22.4474 13.6251C22.2609 13.7045 22.1123 13.8531 22.0329 14.0396C22.0329 14.1293 21.8425 14.2525 22.0329 14.3309C22.2234 14.4094 22.3466 14.5438 22.5034 14.3309C22.5853 14.2267 22.6793 14.1327 22.7835 14.0509C22.8625 13.9648 22.9629 13.9012 23.0745 13.8665C23.1861 13.8319 23.3048 13.8274 23.4187 13.8536C23.5325 13.8798 23.6374 13.9357 23.7226 14.0156C23.8079 14.0955 23.8704 14.1966 23.9038 14.3085C23.9816 14.5014 24.027 14.7058 24.0383 14.9135C24.0368 15.0009 24.0664 15.0861 24.1218 15.1538C24.1772 15.2214 24.2548 15.2673 24.3408 15.2832C24.5203 15.3349 24.6962 15.3985 24.8673 15.4736C24.9332 15.5043 24.9907 15.5504 25.0348 15.6082C25.0789 15.666 25.1083 15.7337 25.1205 15.8053C25.1326 15.877 25.1271 15.9506 25.1045 16.0196C25.0818 16.0887 25.0427 16.1512 24.9905 16.2018C24.9643 16.2346 24.931 16.261 24.8932 16.2791C24.8554 16.2972 24.814 16.3067 24.7721 16.3067C24.7301 16.3067 24.6887 16.2972 24.6509 16.2791C24.6131 16.261 24.5799 16.2346 24.5536 16.2018C24.5116 16.1543 24.4667 16.1094 24.4192 16.0674C24.1279 15.8658 24.0495 15.8882 23.9374 16.2243C23.9374 16.2243 23.9374 16.2915 23.9374 16.3139C23.9374 16.3363 23.7022 16.7508 23.4445 16.6724C23.1868 16.594 23.2877 16.3251 23.2765 16.1234C23.2765 16.1234 23.2765 16.1234 23.2765 16.0562C23.2765 15.989 23.5117 15.7201 23.3997 15.6193C23.1942 15.4707 22.9676 15.3536 22.7275 15.272C22.6379 15.272 22.5931 15.272 22.5483 15.3616L22.2906 15.7089C22.2407 15.8099 22.1584 15.8912 22.0569 15.9399C21.9553 15.9886 21.8404 16.002 21.7304 15.9778C21.6114 15.9425 21.5077 15.868 21.4365 15.7662C21.3653 15.6645 21.3307 15.5416 21.3383 15.4176V15.1151" fill="#FDFEFD"/>
<path fill-rule="evenodd" clip-rule="evenodd" d="M8.97031 21.6133C8.97031 21.7925 8.97031 21.8934 8.97031 21.9942C8.96878 22.0772 8.94535 22.1582 8.90238 22.2292C8.8594 22.3002 8.79843 22.3586 8.72563 22.3984C8.65283 22.4382 8.57079 22.458 8.48785 22.4559C8.4049 22.4538 8.32399 22.4298 8.25331 22.3863C8.08319 22.2968 7.94589 22.1556 7.8612 21.983C7.70436 21.7141 7.51391 21.7029 7.26744 21.8485C7.11438 21.9354 6.953 22.0067 6.78571 22.0614C6.61766 22.1174 6.50563 22.0614 6.42721 21.871C6.34879 21.6805 6.42721 21.6245 6.56164 21.5573C6.69608 21.4901 7.16661 21.3332 7.27864 21.1203C7.39067 20.9075 7.20022 20.5938 7.16661 20.3249C7.14973 20.1386 7.14973 19.9511 7.16661 19.7648C7.16661 19.6079 7.16661 19.4399 7.41308 19.4063C7.65955 19.3727 7.72677 19.5407 7.80519 19.7088C7.86036 19.853 7.86036 20.0126 7.80519 20.1569C7.76939 20.2381 7.75089 20.3258 7.75089 20.4146C7.75089 20.5033 7.76939 20.591 7.80519 20.6722C7.80519 20.7731 7.80519 20.9747 7.97324 20.9299C8.14128 20.8851 8.35414 20.9299 8.33173 20.6162C8.33173 20.5266 8.33173 20.437 8.33173 20.3473C8.3274 20.2155 8.36071 20.0851 8.42777 19.9715C8.49482 19.8579 8.59285 19.7657 8.71038 19.7058C8.82791 19.6458 8.96008 19.6206 9.09142 19.633C9.22277 19.6455 9.34785 19.695 9.45204 19.776C9.45204 19.776 9.51926 19.776 9.53047 19.776C9.87776 20.2465 10.2923 20.1905 10.7404 19.9552C10.8326 19.9022 10.942 19.8878 11.0449 19.915C11.1477 19.9423 11.2356 20.0091 11.2894 20.1009C11.3276 20.1693 11.3477 20.2465 11.3477 20.3249C11.3477 20.4034 11.3276 20.4805 11.2894 20.549C11.2333 20.7058 11.0877 20.6946 10.9533 20.6834L10.7628 20.7618C10.5387 20.7618 10.4267 20.8627 10.5836 21.1203C10.7404 21.378 10.6844 21.7701 10.5163 21.8485C10.3483 21.927 10.113 21.7589 9.95618 21.4004C9.95618 21.2772 9.95618 21.0419 9.78814 21.0419C9.52604 21.061 9.2706 21.1334 9.03753 21.2548C8.89189 21.322 9.03753 21.5461 9.03753 21.6133" fill="#FEFEFD"/>
<path fill-rule="evenodd" clip-rule="evenodd" d="M26.1556 19.9664C26.3641 20.1243 26.5108 20.3502 26.5701 20.6049C26.5872 20.6576 26.5888 20.714 26.5749 20.7676C26.561 20.8212 26.5322 20.8697 26.4917 20.9074C26.446 20.9403 26.3912 20.9579 26.3349 20.9579C26.2786 20.9579 26.2237 20.9403 26.178 20.9074C25.9878 20.8106 25.8316 20.6582 25.7299 20.4705C25.6627 20.3361 25.5731 20.3025 25.4498 20.4033C24.8897 20.7282 24.8897 20.7282 25.1137 21.3331C25.1663 21.432 25.1859 21.5451 25.1698 21.6559C25.1537 21.7667 25.1026 21.8695 25.0241 21.9493C24.9254 22.023 24.8056 22.0628 24.6824 22.0628C24.5593 22.0628 24.4394 22.023 24.3407 21.9493C24.1391 21.8485 23.9822 21.5908 23.7582 21.6356C23.5341 21.6804 23.3997 21.9157 23.2316 22.0838C23.1889 22.1347 23.1359 22.176 23.076 22.205C23.0161 22.234 22.9508 22.2499 22.8843 22.2518C22.8351 22.2439 22.7889 22.2231 22.7504 22.1914C22.7119 22.1597 22.6826 22.1183 22.6655 22.0715C22.6484 22.0246 22.644 21.9741 22.653 21.9251C22.6619 21.876 22.6838 21.8303 22.7163 21.7925C22.9067 21.5572 23.2428 21.3668 23.2764 21.1203C23.31 20.8738 22.9964 20.6498 22.8955 20.3697C22.8367 20.2048 22.7881 20.0364 22.7499 19.8655C22.7176 19.7937 22.7135 19.7124 22.7384 19.6376C22.7633 19.5629 22.8154 19.5003 22.8843 19.4622C23.0524 19.3838 23.1868 19.4622 23.2988 19.5855C23.3576 19.638 23.4019 19.7047 23.4274 19.7793C23.4529 19.8538 23.4588 19.9337 23.4445 20.0112C23.4279 20.1045 23.4302 20.2002 23.4514 20.2926C23.4726 20.385 23.5121 20.4722 23.5677 20.5489C23.6349 20.6274 23.6237 20.8626 23.8142 20.7618C24.0046 20.661 24.1503 20.5937 24.0607 20.3249C23.971 20.056 23.8366 19.5967 24.1839 19.3166C24.3355 19.2021 24.5204 19.1401 24.7104 19.1401C24.9005 19.1401 25.0853 19.2021 25.237 19.3166C25.3418 19.3946 25.4728 19.4288 25.6024 19.4121C25.7319 19.3954 25.85 19.329 25.9316 19.227C26.0386 19.1313 26.1508 19.0415 26.2677 18.9581C26.3355 18.9072 26.4181 18.8797 26.5029 18.8797C26.5878 18.8797 26.6703 18.9072 26.7382 18.9581C26.8113 18.9985 26.8712 19.0591 26.9109 19.1326C26.9506 19.206 26.9684 19.2893 26.9623 19.3726C26.9623 19.5743 26.7942 19.5967 26.6374 19.6303C26.4704 19.692 26.3179 19.7873 26.1892 19.9104" fill="#FEFEFD"/>
<path fill-rule="evenodd" clip-rule="evenodd" d="M14.2132 24.5482C14.1572 24.6491 14.1236 24.7499 14.0676 24.8283C14.0116 24.9067 14.0676 25.0412 13.8996 24.9403C13.8805 24.9235 13.8652 24.9028 13.8547 24.8796C13.8443 24.8565 13.8389 24.8313 13.8389 24.8059C13.8389 24.7805 13.8443 24.7553 13.8547 24.7321C13.8652 24.709 13.8805 24.6883 13.8996 24.6715C13.9409 24.6184 13.9969 24.5785 14.0605 24.5566C14.1242 24.5347 14.1928 24.5318 14.2581 24.5482" fill="#85C55F"/>
<path fill-rule="evenodd" clip-rule="evenodd" d="M14.1239 25.9598C14.2136 26.0158 14.292 26.0494 14.2808 26.139C14.2784 26.1839 14.2603 26.2266 14.2295 26.2594C14.1988 26.2922 14.1574 26.313 14.1127 26.3183C14.0567 26.3183 13.9559 26.3183 13.9783 26.2062C14.0141 26.1172 14.0632 26.0341 14.1239 25.9598Z" fill="#82C35A"/>
<path fill-rule="evenodd" clip-rule="evenodd" d="M46.0637 36.8721C45.8005 36.9013 45.5341 36.8642 45.2888 36.7643C45.0435 36.6644 44.827 36.5049 44.6589 36.3001C44.4909 36.0954 44.3767 35.8519 44.3266 35.5918C44.2765 35.3317 44.2921 35.0633 44.3721 34.8107C44.6305 33.7497 45.2047 32.7919 46.0188 32.0639C46.8328 31.3358 47.8485 30.8717 48.9317 30.7328C49.2031 30.6971 49.4792 30.7306 49.7342 30.8301C49.9892 30.9296 50.215 31.092 50.3905 31.3021C50.5659 31.5123 50.6855 31.7633 50.7379 32.032C50.7904 32.3007 50.7741 32.5783 50.6906 32.839C50.42 33.9015 49.8324 34.8564 49.0059 35.5769C48.1794 36.2973 47.1532 36.7491 46.0637 36.8721Z" fill="#8F4A50"/>
<path fill-rule="evenodd" clip-rule="evenodd" d="M53.4801 30.744C54.2819 30.8432 55.0459 31.1425 55.7017 31.6143C56.3575 32.0861 56.8842 32.7153 57.2332 33.444C57.7597 34.4971 57.2332 35.3373 56.012 35.3261C55.7934 35.3315 55.5751 35.3089 55.3622 35.2589C54.6687 35.1196 54.0117 34.8376 53.433 34.4306C52.8544 34.0236 52.3668 33.5007 52.0013 32.895C51.7838 32.5628 51.6743 32.1715 51.6876 31.7747C51.7436 31.0913 52.2814 30.7104 53.4241 30.7216" fill="#8F4A50"/>
<path fill-rule="evenodd" clip-rule="evenodd" d="M30.0431 27.2716C30.1888 27.3949 30.4352 27.4621 30.3232 27.7421C30.0812 28.9239 29.6499 30.0588 29.0461 31.1031C28.3328 32.3216 27.3615 33.3693 26.2005 34.1727C26.1196 34.237 26.0239 34.28 25.9221 34.2976C25.8203 34.3152 25.7157 34.3069 25.6179 34.2736C24.5189 33.9602 23.5811 33.2389 22.9964 32.257C22.179 30.9337 21.6237 29.4656 21.3607 27.9326C21.2599 27.4621 21.2039 26.9803 21.1143 26.4986C21.1143 26.3194 21.1143 26.2409 21.3159 26.2185C23.1341 25.9777 24.9761 25.9777 26.7942 26.2185C27.6213 26.3511 28.4349 26.5573 29.2253 26.8347L30.0431 27.2156" fill="#E386AD"/>
<path fill-rule="evenodd" clip-rule="evenodd" d="M8.65674 34.3172C8.90195 34.4128 9.13507 34.5369 9.35133 34.6869C9.21689 34.8101 9.09366 34.9333 8.91441 34.8549C8.73516 34.7765 8.66794 34.5748 8.65674 34.3172Z" fill="#79C152"/>
<path fill-rule="evenodd" clip-rule="evenodd" d="M11.2668 34.4076C11.2668 34.4861 11.2668 34.6541 11.0988 34.6093C10.9307 34.5645 10.7627 34.5533 10.7627 34.374C10.7683 34.3186 10.7943 34.2672 10.8357 34.2299C10.8772 34.1926 10.931 34.1721 10.9868 34.1724C11.0536 34.1767 11.1175 34.2017 11.1697 34.2438C11.2218 34.2859 11.2597 34.3432 11.278 34.4076" fill="#7CC155"/>
<path fill-rule="evenodd" clip-rule="evenodd" d="M22.9404 14.7116C23.2205 14.454 23.2989 14.4876 23.4222 14.8573C23.2535 14.8415 23.0896 14.7919 22.9404 14.7116Z" fill="#7DC255"/>
<path fill-rule="evenodd" clip-rule="evenodd" d="M21.8652 15.1938C21.7755 15.1938 21.6747 15.1378 21.6859 15.0146C21.6971 14.8914 21.6859 14.8577 21.7867 14.9026C21.8876 14.9474 22.0108 14.9026 22.0108 15.0482C22.0108 15.1938 21.9436 15.1714 21.8652 15.1938Z" fill="#86C55F"/>
<path fill-rule="evenodd" clip-rule="evenodd" d="M35.9023 18.4316C36.1075 18.5926 36.2533 18.8172 36.3168 19.0701C36.3357 19.1236 36.3371 19.1816 36.321 19.2359C36.305 19.2902 36.2721 19.3381 36.2272 19.3726C36.184 19.4062 36.1307 19.4245 36.076 19.4245C36.0212 19.4245 35.968 19.4062 35.9247 19.3726C35.7345 19.2758 35.5782 19.1234 35.4766 18.9357C35.4094 18.7901 35.3198 18.7677 35.1965 18.8685C34.6364 19.1934 34.6364 19.1934 34.8604 19.8096C34.9139 19.9063 34.934 20.0179 34.9178 20.1272C34.9016 20.2365 34.85 20.3374 34.7708 20.4145C34.6819 20.4905 34.5714 20.5368 34.4549 20.5468C34.3384 20.5569 34.2216 20.5302 34.121 20.4705C34.0687 20.4473 34.0197 20.4172 33.9754 20.3809C33.4937 20.0672 33.4937 20.0672 33.0679 20.4929C32.6422 20.9187 32.6198 20.8178 32.4406 20.6162C32.2613 20.4145 32.3173 20.4369 32.4406 20.3361C32.6534 20.1008 33.0007 19.888 33.0119 19.6415C33.0231 19.395 32.7206 19.1262 32.6198 18.8349C32.5684 18.6885 32.5273 18.5388 32.4966 18.3868C32.4966 18.2299 32.4966 18.0619 32.6422 17.9834C32.7879 17.905 32.9335 17.9834 33.0567 18.1067C33.1103 18.1629 33.1511 18.2301 33.1762 18.3036C33.2014 18.3771 33.2103 18.4551 33.2024 18.5324C33.1693 18.7194 33.2094 18.9119 33.3144 19.0701C33.3816 19.1486 33.3144 19.395 33.5609 19.283C33.8073 19.171 33.897 19.115 33.8073 18.8461C33.7177 18.5772 33.5833 18.1179 33.9306 17.8378C34.0822 17.7233 34.2671 17.6614 34.4571 17.6614C34.6472 17.6614 34.832 17.7233 34.9837 17.8378C35.0885 17.9158 35.2195 17.95 35.3491 17.9333C35.4786 17.9166 35.5967 17.8502 35.6783 17.7482C35.7869 17.6498 35.9031 17.5599 36.0256 17.4793C36.0917 17.4293 36.1723 17.4023 36.2552 17.4023C36.3381 17.4023 36.4187 17.4293 36.4849 17.4793C36.5589 17.5187 36.6196 17.579 36.6595 17.6527C36.6993 17.7265 36.7166 17.8103 36.7089 17.8938C36.7089 18.0955 36.5297 18.1179 36.3841 18.1627C36.2143 18.2128 36.06 18.3053 35.9359 18.4316" fill="#FEFEFD"/>
<path fill-rule="evenodd" clip-rule="evenodd" d="M34.7596 18.376C34.6812 18.376 34.6252 18.4992 34.5467 18.5441C34.4683 18.5889 34.4347 18.7009 34.3339 18.6337C34.233 18.5665 34.3339 18.5329 34.3339 18.4768C34.3339 18.4208 34.4123 18.3312 34.5019 18.2976C34.5533 18.2895 34.6057 18.2922 34.6559 18.3057C34.7061 18.3193 34.7529 18.3432 34.7932 18.376" fill="#87C661"/>
<path fill-rule="evenodd" clip-rule="evenodd" d="M34.1997 19.7641C34.1999 19.7897 34.1946 19.815 34.1842 19.8383C34.1738 19.8617 34.1586 19.8825 34.1395 19.8995C34.1204 19.9165 34.0979 19.9292 34.0735 19.9367C34.0491 19.9443 34.0234 19.9466 33.998 19.9434C33.9308 19.9434 33.8636 19.9434 33.8748 19.8313C33.8845 19.7777 33.9118 19.7287 33.9524 19.6923C33.9929 19.6558 34.0444 19.6337 34.0988 19.6297C34.1885 19.6297 34.1548 19.7305 34.1997 19.7641Z" fill="#8BC765"/>
<path fill-rule="evenodd" clip-rule="evenodd" d="M9.38479 20.4367C9.30267 20.4792 9.2163 20.513 9.12712 20.5375C9.0487 20.5375 8.97028 20.6608 8.89186 20.5375C8.87882 20.5095 8.87207 20.4789 8.87207 20.4479C8.87207 20.417 8.87882 20.3864 8.89186 20.3583C8.91759 20.3158 8.95813 20.2842 9.00568 20.2698C9.05324 20.2553 9.10447 20.2589 9.14953 20.2799L9.36239 20.4143" fill="#84C45C"/>
<path fill-rule="evenodd" clip-rule="evenodd" d="M8.41005 21.5459C8.41005 21.658 8.34283 21.7028 8.25321 21.7252C8.2323 21.7326 8.20988 21.7348 8.18795 21.7314C8.16602 21.7281 8.14525 21.7194 8.12751 21.7061C8.10976 21.6927 8.09558 21.6753 8.08624 21.6551C8.07689 21.635 8.07267 21.6129 8.07396 21.5907C8.07396 21.4451 8.20839 21.4787 8.28681 21.4451C8.36524 21.4115 8.38764 21.4451 8.41005 21.5459Z" fill="#96CB74"/>
<path fill-rule="evenodd" clip-rule="evenodd" d="M25.0356 19.8874C24.9689 19.952 24.8977 20.0119 24.8227 20.0667C24.7443 20.0667 24.6995 20.2459 24.5763 20.1563C24.453 20.0667 24.5763 20.0555 24.5763 19.9994C24.589 19.9472 24.6194 19.9008 24.6622 19.8682C24.705 19.8356 24.7577 19.8187 24.8115 19.8202C24.8959 19.8337 24.9785 19.8562 25.058 19.8874" fill="#87C661"/>
<path fill-rule="evenodd" clip-rule="evenodd" d="M24.2736 21.4789C24.1952 21.4789 24.1056 21.4789 24.128 21.3557C24.1504 21.2324 24.2064 21.1876 24.3409 21.1876C24.4753 21.1876 24.4305 21.266 24.4417 21.3109C24.4529 21.3557 24.3633 21.4789 24.2736 21.5013" fill="#8BC765"/>
<path d="M75.5029 37.4264L72.6393 35.1703C72.6389 35.1528 72.6386 35.1343 72.6383 35.1147C72.6358 34.9401 72.6369 34.6822 72.6521 34.3561C72.6826 33.7034 72.7694 32.7796 72.9949 31.7036C73.4463 29.5496 74.4496 26.8041 76.6522 24.3966C78.8534 21.9907 82.4481 20.144 85.5437 18.8925C87.083 18.2703 88.4822 17.8017 89.4964 17.4887C89.9728 17.3417 90.3638 17.2292 90.6438 17.1514C90.653 17.1985 90.663 17.2484 90.6738 17.301C90.7589 17.7141 90.8945 18.2938 91.0978 18.9646C91.5027 20.3009 92.1835 22.024 93.2862 23.5126C94.3782 24.9869 95.683 26.1542 96.7089 26.9506C96.741 26.9755 96.7728 27.0001 96.8044 27.0243C95.7979 26.9079 94.4852 26.7991 93.0314 26.787C89.8084 26.7604 85.7948 27.2075 82.9189 29.1985C80.1143 31.1402 78.199 33.3249 76.9839 35.0261C76.3761 35.8769 75.9428 36.6079 75.6602 37.1287C75.6013 37.2373 75.5489 37.3368 75.5029 37.4264Z" fill="#74BF4F" stroke="#5F9D45" stroke-width="0.936625"/>
<path fill-rule="evenodd" clip-rule="evenodd" d="M80.7545 23.0996C81.041 22.7581 81.4329 22.5214 81.8686 22.4269C81.961 22.3976 82.0602 22.3984 82.1521 22.4289C82.244 22.4594 82.324 22.5182 82.3805 22.5968C82.4355 22.6726 82.4637 22.7645 82.4607 22.8581C82.4577 22.9517 82.4235 23.0416 82.3637 23.1137C82.1876 23.4333 81.9185 23.6918 81.5922 23.8551C81.3396 23.9618 81.2963 24.1137 81.4618 24.3299C81.9858 25.3051 81.9858 25.3051 83.0511 24.9565C83.2193 24.8706 83.4111 24.8423 83.597 24.8761C83.7828 24.9098 83.9525 25.0037 84.0798 25.1433C84.2047 25.2994 84.2776 25.4907 84.2883 25.6904C84.299 25.8901 84.2469 26.0881 84.1394 26.2567C84.0968 26.3448 84.0425 26.4268 83.9781 26.5005C83.4153 27.3062 83.4153 27.3062 84.1191 28.0573C84.8228 28.8084 84.6493 28.8411 84.2948 29.1361C83.9402 29.4312 83.9816 29.3367 83.8162 29.1206C83.426 28.7438 83.0816 28.1385 82.6611 28.1057C82.2406 28.0728 81.7644 28.5747 81.2611 28.7308C81.0081 28.8105 80.75 28.8725 80.4885 28.9165C80.2205 28.9077 79.9334 28.8984 79.8075 28.6452C79.6816 28.392 79.8237 28.1475 80.0411 27.9438C80.1402 27.8553 80.2572 27.7894 80.3842 27.7506C80.5111 27.7117 80.645 27.7008 80.7766 27.7186C81.0943 27.7855 81.4255 27.7277 81.7017 27.5571C81.8394 27.4466 82.2568 27.5751 82.0791 27.1478C81.9014 26.7204 81.8106 26.5641 81.3462 26.7023C80.8818 26.8405 80.0895 27.0447 79.6303 26.4357C79.443 26.1702 79.3475 25.8509 79.358 25.5262C79.3686 25.2015 79.4847 24.8891 79.6888 24.6363C79.8279 24.4615 79.8937 24.2396 79.8723 24.0173C79.8509 23.7949 79.7441 23.5896 79.5743 23.4445C79.4122 23.2533 79.2651 23.0499 79.1342 22.8361C79.0525 22.7203 79.0107 22.581 79.0153 22.4394C79.02 22.2978 79.0706 22.1615 79.1597 22.0513C79.2311 21.927 79.3376 21.8266 79.4658 21.7626C79.594 21.6985 79.7382 21.6738 79.8805 21.6915C80.225 21.7027 80.2533 22.0102 80.3218 22.2615C80.398 22.5544 80.5475 22.8231 80.7563 23.0422" fill="#FEFEFD"/>
<path fill-rule="evenodd" clip-rule="evenodd" d="M80.5952 25.0501C80.5908 25.1841 80.7983 25.2866 80.8705 25.4231C80.9427 25.5596 81.1323 25.6233 81.0118 25.7918C80.8913 25.9603 80.8395 25.7862 80.7438 25.7831C80.6481 25.78 80.4993 25.641 80.4469 25.486C80.4358 25.3978 80.4435 25.3083 80.4694 25.2233C80.4952 25.1383 80.5388 25.0597 80.5971 24.9926" fill="#87C661"/>
<path fill-rule="evenodd" clip-rule="evenodd" d="M82.9378 26.0839C82.9815 26.085 83.0244 26.0954 83.0637 26.1144C83.103 26.1334 83.1378 26.1606 83.1658 26.1942C83.1937 26.2278 83.2141 26.267 83.2257 26.3091C83.2373 26.3512 83.2397 26.3953 83.2329 26.4384C83.2291 26.5533 83.2254 26.6681 83.0346 26.6428C82.9434 26.6231 82.8614 26.5737 82.8013 26.5024C82.7412 26.4311 82.7064 26.3419 82.7025 26.2487C82.7075 26.0956 82.8779 26.1586 82.9378 26.0839Z" fill="#8BC765"/>
<path d="M75.3299 39.1235L73.8604 35.8387C73.8681 35.8236 73.8764 35.8075 73.8851 35.7907C73.9659 35.6349 74.0894 35.4072 74.2577 35.1258C74.5946 34.5628 75.1096 33.7868 75.8185 32.9427C77.2376 31.2527 79.4208 29.3041 82.4934 28.2287C85.565 27.1536 89.6047 27.2219 92.9245 27.5776C94.5752 27.7545 96.0302 28.0003 97.0723 28.2018C97.5667 28.2974 97.9676 28.3829 98.2518 28.4463C98.237 28.4971 98.2214 28.5514 98.2052 28.6091C98.0901 29.0189 97.9414 29.6001 97.8063 30.2893C97.5372 31.6614 97.3161 33.4893 97.5366 35.2527C97.7562 37.01 98.3578 38.6453 98.8978 39.8332C98.9139 39.8686 98.9299 39.9037 98.9459 39.9383C98.1241 39.3714 97.0407 38.6757 95.7905 37.9975C92.9649 36.4648 89.2077 34.9776 85.6743 35.3641L85.6735 35.3641C82.2742 35.7418 79.5748 36.7672 77.7229 37.6999C76.7968 38.1663 76.0817 38.6101 75.5957 38.9391C75.4978 39.0055 75.4091 39.0672 75.3299 39.1235Z" fill="#74BF4F" stroke="#5F9D45" stroke-width="0.936625"/>
<path fill-rule="evenodd" clip-rule="evenodd" d="M85.9803 29.4015C86.2752 29.3082 86.5927 29.3156 86.883 29.4225C86.9479 29.4398 87.0057 29.4772 87.0482 29.5293C87.0906 29.5813 87.1155 29.6455 87.1193 29.7126C87.1233 29.7774 87.1056 29.8418 87.069 29.8954C87.0323 29.9491 86.9789 29.989 86.917 30.0089C86.695 30.1304 86.4412 30.1816 86.1894 30.1556C86.0018 30.124 85.9199 30.1968 85.9362 30.385C85.8799 31.1509 85.8799 31.1509 86.6332 31.3435C86.7637 31.3559 86.8865 31.4107 86.9827 31.4997C87.0789 31.5887 87.1433 31.7068 87.1658 31.8359C87.1808 31.9738 87.1523 32.1129 87.0842 32.2338C87.0161 32.3546 86.9119 32.4511 86.7861 32.5098C86.7284 32.5455 86.6661 32.5733 86.601 32.5925C85.9715 32.8545 85.9715 32.8545 86.1038 33.5562C86.2361 34.2579 86.1223 34.2124 85.805 34.2531C85.4876 34.2938 85.547 34.2539 85.5306 34.0658C85.4425 33.7 85.4663 33.2175 85.2324 33.0417C84.9985 32.8659 84.5328 32.9823 84.1801 32.8863C84.0024 32.8387 83.8282 32.7789 83.6588 32.7073C83.5052 32.6024 83.3406 32.49 83.3612 32.2949C83.3817 32.0998 83.5559 32.0096 83.7591 31.9713C83.85 31.9565 83.943 31.9615 84.0318 31.986C84.1206 32.0105 84.203 32.054 84.2734 32.1134C84.4345 32.2709 84.6499 32.3603 84.8751 32.3633C84.9968 32.3499 85.1933 32.5806 85.2484 32.2642C85.3035 31.9479 85.3086 31.8227 84.9853 31.7306C84.662 31.6386 84.1222 31.4631 84.0801 30.9356C84.0694 30.7105 84.1323 30.488 84.2594 30.3019C84.3865 30.1158 84.5708 29.9761 84.7844 29.9042C84.9308 29.8536 85.052 29.7482 85.1223 29.6101C85.1925 29.472 85.2065 29.3121 85.1611 29.1639C85.1374 28.9916 85.127 28.8178 85.13 28.6439C85.1253 28.5457 85.1527 28.4487 85.2082 28.3675C85.2636 28.2863 85.344 28.2254 85.4372 28.194C85.5252 28.1479 85.625 28.1287 85.7238 28.139C85.8227 28.1493 85.9164 28.1885 85.993 28.2518C86.1906 28.3866 86.0926 28.5772 86.0391 28.7498C85.9746 28.9496 85.9621 29.1626 86.0028 29.3685" fill="#FEFEFD"/>
<path fill-rule="evenodd" clip-rule="evenodd" d="M85.1611 30.4833C85.1086 30.5601 85.1919 30.6974 85.1833 30.8042C85.1748 30.911 85.262 31.0188 85.1288 31.0726C84.9955 31.1264 85.03 31.0052 84.9751 30.9677C84.9203 30.9302 84.8849 30.7935 84.912 30.6832C84.9383 30.6275 84.9761 30.578 85.0229 30.5378C85.0697 30.4977 85.1245 30.4679 85.1836 30.4504" fill="#87C661"/>
<path fill-rule="evenodd" clip-rule="evenodd" d="M86.1465 31.9612C86.1716 31.9781 86.1928 32.0001 86.2087 32.0258C86.2246 32.0516 86.2348 32.0804 86.2387 32.1104C86.2425 32.1404 86.2399 32.1709 86.231 32.1998C86.2221 32.2287 86.2072 32.2554 86.1871 32.278C86.1423 32.3437 86.0974 32.4095 85.9953 32.3237C85.9494 32.2783 85.9198 32.219 85.9112 32.155C85.9026 32.091 85.9154 32.026 85.9478 31.97C86.0076 31.8824 86.0837 31.9826 86.1465 31.9612Z" fill="#8BC765"/>
<path d="M73.6064 40.4916C73.487 40.4715 73.3777 40.4545 73.2793 40.4401L74.5543 37.0369C74.5725 37.0303 74.592 37.0234 74.6127 37.0161C74.7787 36.9575 75.0252 36.8757 75.3413 36.7851C75.9737 36.6037 76.8821 36.3877 77.9781 36.2523C80.1727 35.9812 83.0992 36.0354 86.0693 37.3156C89.0366 38.5946 91.9423 41.3832 94.1293 43.8996C95.2166 45.1507 96.1145 46.3205 96.7404 47.1774C97.0353 47.5811 97.2695 47.9149 97.4343 48.1545C97.3896 48.1807 97.342 48.2087 97.2919 48.2387C96.9251 48.4577 96.417 48.7796 95.848 49.1928C94.7167 50.0143 93.3197 51.2149 92.3238 52.7067C91.286 54.183 90.6081 55.7866 90.19 57.0139C90.1728 57.0644 90.156 57.1143 90.1396 57.1636C89.9162 56.1891 89.5845 54.9308 89.1152 53.5693C88.0743 50.5494 86.3281 46.9351 83.5122 44.8369C80.7611 42.7871 78.0589 41.671 76.0423 41.067C75.0337 40.7649 74.1955 40.5906 73.6064 40.4916Z" fill="#74BF4F" stroke="#5F9D45" stroke-width="0.936625"/>
<path fill-rule="evenodd" clip-rule="evenodd" d="M87.8553 41.0487C88.1605 41.2381 88.3942 41.5234 88.5195 41.86C88.5534 41.9303 88.5642 42.0095 88.5504 42.0863C88.5366 42.1631 88.4989 42.2336 88.4427 42.2876C88.3886 42.3402 88.3185 42.3733 88.2435 42.3816C88.1686 42.3899 88.0929 42.3729 88.0287 42.3335C87.7536 42.2297 87.5166 42.0449 87.349 41.8034C87.2349 41.6142 87.1089 41.5971 86.9555 41.7538C86.2379 42.2834 86.2379 42.2834 86.638 43.0929C86.7258 43.2172 86.7704 43.3669 86.7648 43.519C86.7592 43.671 86.7038 43.8171 86.6071 43.9346C86.4969 44.0521 86.3527 44.1322 86.1947 44.1636C86.0367 44.195 85.8729 44.1762 85.7261 44.1097C85.6509 44.0859 85.5793 44.0521 85.5132 44.0091C84.8062 43.6528 84.8062 43.6528 84.288 44.3C83.7698 44.9473 83.7239 44.8127 83.4479 44.5638C83.172 44.3149 83.2521 44.3371 83.4055 44.1804C83.6612 43.8261 84.1043 43.4821 84.0823 43.1431C84.0603 42.804 83.6055 42.4818 83.4233 42.0984C83.3308 41.9058 83.2517 41.7071 83.1867 41.5036C83.1629 41.2889 83.1374 41.0589 83.3249 40.9295C83.5124 40.8001 83.7236 40.8853 83.911 41.0353C83.9928 41.1042 84.0588 41.19 84.1044 41.2868C84.1499 41.3835 84.174 41.489 84.1749 41.596C84.1579 41.857 84.242 42.1145 84.4097 42.3151C84.5136 42.4123 84.459 42.7598 84.7794 42.5691C85.0998 42.3784 85.2139 42.2881 85.0505 41.9337C84.8871 41.5792 84.6334 40.9709 85.0664 40.5349C85.2566 40.3551 85.5002 40.2423 85.7604 40.2135C86.0205 40.1847 86.2829 40.2415 86.5079 40.3752C86.6632 40.4661 86.8477 40.4931 87.0225 40.4505C87.1973 40.408 87.3488 40.2993 87.4451 40.1473C87.5789 39.9961 87.7242 39.8554 87.8797 39.7266C87.9626 39.6481 88.0689 39.5989 88.1824 39.5863C88.2959 39.5738 88.4103 39.5986 88.5084 39.657C88.6157 39.6996 88.708 39.773 88.7737 39.8679C88.8395 39.9628 88.8757 40.075 88.878 40.1904C88.9085 40.4664 88.6666 40.5243 88.474 40.6077C88.2492 40.702 88.0521 40.852 87.9013 41.0436" fill="#FEFEFD"/>
<path fill-rule="evenodd" clip-rule="evenodd" d="M86.2826 41.1458C86.1753 41.1577 86.1173 41.3349 86.0167 41.4081C85.9162 41.4814 85.8872 41.6398 85.739 41.5631C85.5907 41.4864 85.7237 41.4251 85.7152 41.3484C85.7067 41.2717 85.8004 41.1371 85.918 41.0776C85.9871 41.0586 86.0593 41.0545 86.1301 41.0654C86.2008 41.0763 86.2685 41.1019 86.3286 41.1407" fill="#87C661"/>
<path fill-rule="evenodd" clip-rule="evenodd" d="M85.7257 43.1326C85.7298 43.1675 85.7265 43.2029 85.7158 43.2363C85.7052 43.2698 85.6875 43.3006 85.664 43.3267C85.6404 43.3528 85.6116 43.3735 85.5794 43.3876C85.5472 43.4016 85.5124 43.4086 85.4773 43.4081C85.3854 43.4182 85.2936 43.4284 85.292 43.2736C85.2972 43.1988 85.3271 43.1279 85.377 43.0719C85.4268 43.0159 85.4939 42.978 85.5676 42.9642C85.69 42.9506 85.6594 43.0935 85.7257 43.1326Z" fill="#8BC765"/>
</g>
<defs>
<clipPath id="clip0">
<rect width="99.6598" height="83.7821" fill="white" transform="translate(0.669922)"/>
</clipPath>
</defs>
</svg>
