<svg width="101" height="101" viewBox="0 0 101 101" fill="none" xmlns="http://www.w3.org/2000/svg">
<mask id="path-1-inside-1" fill="white">
<path fill-rule="evenodd" clip-rule="evenodd" d="M100.233 55.7139C97.1903 55.7318 94.7091 53.2797 94.6911 50.2369C94.6732 47.1941 97.1254 44.713 100.168 44.6951C100.169 44.6951 100.169 44.6951 100.169 44.6951L99.9983 15.661C99.948 7.12477 92.9871 0.245498 84.4507 0.295752L15.3656 0.702454C6.82916 0.752708 -0.0502714 7.71344 -1.85412e-05 16.2497L0.170904 45.2838C3.21342 45.2663 5.69426 47.7183 5.71218 50.7608C5.73009 53.8033 3.27828 56.2843 0.235774 56.3026L0.406696 85.3362C0.456949 93.8724 7.41783 100.752 15.9543 100.701L85.0394 100.295C93.5758 100.244 100.455 93.2837 100.405 84.7475L100.234 55.7139C100.234 55.7139 100.233 55.7139 100.233 55.7139Z"/>
</mask>
<path fill-rule="evenodd" clip-rule="evenodd" d="M100.233 55.7139C97.1903 55.7318 94.7091 53.2797 94.6911 50.2369C94.6732 47.1941 97.1254 44.713 100.168 44.6951C100.169 44.6951 100.169 44.6951 100.169 44.6951L99.9983 15.661C99.948 7.12477 92.9871 0.245498 84.4507 0.295752L15.3656 0.702454C6.82916 0.752708 -0.0502714 7.71344 -1.85412e-05 16.2497L0.170904 45.2838C3.21342 45.2663 5.69426 47.7183 5.71218 50.7608C5.73009 53.8033 3.27828 56.2843 0.235774 56.3026L0.406696 85.3362C0.456949 93.8724 7.41783 100.752 15.9543 100.701L85.0394 100.295C93.5758 100.244 100.455 93.2837 100.405 84.7475L100.234 55.7139C100.234 55.7139 100.233 55.7139 100.233 55.7139Z" fill="white"/>
<path d="M94.6911 50.2369L96.6911 50.2202L94.6911 50.2369ZM100.233 55.7139L100.233 53.7138L100.226 53.7139L100.233 55.7139ZM100.168 44.6951L100.168 42.6951L100.161 42.6951L100.168 44.6951ZM100.169 44.6951L100.169 46.6951L102.181 46.6901L102.169 44.6784L100.169 44.6951ZM99.9983 15.661L101.998 15.6443L99.9983 15.661ZM84.4507 0.295752L84.4438 -1.70422L84.4507 0.295752ZM15.3656 0.702454L15.3725 2.70243L15.3656 0.702454ZM-1.85412e-05 16.2497L1.99994 16.233L-1.85412e-05 16.2497ZM0.170904 45.2838L-1.82905 45.3005L-1.81731 47.2953L0.177503 47.2838L0.170904 45.2838ZM0.235774 56.3026L0.228679 54.3026L-1.77598 54.3147L-1.76418 56.3193L0.235774 56.3026ZM0.406696 85.3362L2.40665 85.3195L0.406696 85.3362ZM15.9543 100.701L15.9474 98.7015L15.9543 100.701ZM85.0394 100.295L85.0462 102.295L85.0462 102.295L85.0394 100.295ZM100.405 84.7475L102.405 84.7308L100.405 84.7475ZM100.234 55.7139L102.234 55.6972L102.222 53.709L100.234 53.7139L100.234 55.7139ZM92.6912 50.2536C92.7156 54.399 96.0945 57.7382 100.24 57.7138L100.226 53.7139C98.2861 53.7253 96.7025 52.1603 96.6911 50.2202L92.6912 50.2536ZM100.161 42.6951C96.0121 42.7195 92.6668 46.1044 92.6912 50.2536L96.6911 50.2202C96.6797 48.2839 98.2387 46.7064 100.175 46.695L100.161 42.6951ZM100.169 42.6951C100.165 42.6951 100.162 42.6951 100.16 42.6951C100.159 42.6951 100.158 42.6951 100.158 42.6951C100.157 42.6951 100.157 42.6951 100.157 42.6951C100.157 42.6951 100.157 42.6951 100.157 42.6951C100.156 42.6951 100.158 42.6951 100.159 42.6951C100.161 42.6951 100.164 42.6951 100.168 42.6951L100.168 46.6951C100.172 46.6951 100.176 46.695 100.178 46.695C100.179 46.695 100.179 46.695 100.18 46.695C100.18 46.695 100.18 46.695 100.181 46.695C100.181 46.695 100.181 46.695 100.181 46.695C100.181 46.695 100.18 46.695 100.178 46.695C100.176 46.695 100.173 46.695 100.169 46.6951L100.169 42.6951ZM102.169 44.6784L101.998 15.6443L97.9983 15.6777L98.1692 44.7118L102.169 44.6784ZM101.998 15.6443C101.941 6.00546 94.0829 -1.76096 84.4438 -1.70422L84.4575 2.29572C91.8913 2.25196 97.9546 8.24408 97.9983 15.6777L101.998 15.6443ZM84.4438 -1.70422L15.3588 -1.29752L15.3725 2.70243L84.4575 2.29572L84.4438 -1.70422ZM15.3588 -1.29752C5.71583 -1.24075 -2.05674 6.62368 -1.99997 16.2664L1.99994 16.233C1.9562 8.8032 7.94249 2.74617 15.3725 2.70243L15.3588 -1.29752ZM-1.99997 16.2664L-1.82905 45.3005L2.17086 45.2671L1.99994 16.233L-1.99997 16.2664ZM0.177503 47.2838C2.11749 47.2726 3.70079 48.8375 3.71222 50.7775L7.71213 50.7441C7.68773 46.599 4.30935 43.26 0.164305 43.2838L0.177503 47.2838ZM3.71222 50.7775C3.72362 52.7136 2.16482 54.291 0.228679 54.3026L0.242869 58.3026C4.39174 58.2776 7.73656 54.893 7.71213 50.7441L3.71222 50.7775ZM-1.76418 56.3193L-1.59326 85.3529L2.40665 85.3195L2.23573 56.2859L-1.76418 56.3193ZM-1.59326 85.3529C-1.53652 94.9917 6.32204 102.758 15.9611 102.701L15.9474 98.7015C8.51363 98.7452 2.45042 92.7531 2.40665 85.3195L-1.59326 85.3529ZM15.9611 102.701L85.0462 102.295L85.0325 98.2948L15.9474 98.7015L15.9611 102.701ZM85.0462 102.295C94.6891 102.238 102.462 94.3735 102.405 84.7308L98.405 84.7642C98.4488 92.194 92.4625 98.251 85.0325 98.2948L85.0462 102.295ZM102.405 84.7308L102.234 55.6972L98.2341 55.7306L98.405 84.7642L102.405 84.7308ZM100.233 57.7139C100.237 57.7139 100.24 57.7138 100.242 57.7138C100.243 57.7138 100.244 57.7138 100.245 57.7138C100.245 57.7138 100.245 57.7138 100.245 57.7138C100.246 57.7138 100.246 57.7138 100.246 57.7138C100.246 57.7138 100.245 57.7138 100.243 57.7138C100.241 57.7138 100.238 57.7138 100.234 57.7139L100.234 53.7139C100.23 53.7139 100.227 53.7139 100.225 53.7139C100.224 53.7139 100.223 53.7139 100.222 53.7139C100.222 53.7139 100.222 53.7139 100.222 53.7139C100.222 53.7139 100.222 53.7139 100.222 53.7139C100.221 53.7139 100.223 53.7139 100.224 53.7139C100.226 53.7139 100.229 53.7139 100.233 53.7139L100.233 57.7139Z" fill="#003278" mask="url(#path-1-inside-1)"/>
</svg>
