<svg fill="none" height="490" viewBox="0 0 1930 490" width="1930" xmlns="http://www.w3.org/2000/svg"><path d="m0 0h1930v490h-1930z" fill="#fff"/><g fill="#8f8f8f" opacity=".1"><path d="m279.165 403.882c-.241.241-.241.632 0 .872.241.241.631.242.873 0 .24-.24.24-.631-.001-.872s-.631-.241-.872 0z"/><path d="m298.039 420.228c-.49.603-1.771 1.244-2.826 1.244-1.733 0-2.712-.943-2.712-2.637v-11.152h-5.877v11.942c0 4.37 1.959 6.518 6.065 6.518 3.052 0 4.823-.943 6.103-2.374l.377 1.996h4.747v-18.082h-5.877zm18.46.904c-2.901 0-4.408-1.809-4.408-4.559 0-2.637 1.507-4.257 4.37-4.257 1.545 0 2.788.414 3.88 1.131l.829-4.936c-1.582-.678-3.277-1.205-6.141-1.205-5.839 0-9.041 3.352-9.041 9.494 0 6.178 3.014 9.343 8.891 9.343 2.825 0 5.538-.866 6.668-1.621l-.829-4.596c-1.319.679-2.599 1.206-4.219 1.206zm17.992-13.826c-2.412 0-3.994.565-5.2 1.545v-7.912h-6.027v24.827h5.877v-12.545c.49-.603 1.771-1.243 2.825-1.243 1.733 0 2.713.941 2.713 2.637v11.151h5.877v-11.943c0-4.37-1.959-6.517-6.065-6.517zm39.481 0c-3.051 0-4.822.942-6.103 2.373l-.376-1.996h-4.747v18.083h5.877v-12.545c.49-.603 1.77-1.243 2.825-1.243 1.733 0 2.713.941 2.713 2.637v11.151h5.839v-11.943c0-4.37-1.958-6.517-6.028-6.517zm-31.344 10.096c0 6.104 2.261 8.741 6.631 8.741 2.674 0 4.52-.904 5.538-2.374l.301 1.997h4.785v-17.33c-1.922-.602-4.107-1.13-8.213-1.13-5.839 0-9.042 3.579-9.042 10.096zm11.242 2.826c-.526.603-1.393 1.244-2.825 1.244-1.582 0-2.449-1.47-2.449-4.296 0-3.465.942-5.198 2.826-5.198 1.092 0 1.657.075 2.448.264zm-89.175-10.702 3.617-2.976c.754-2.072 1.545-4.182 2.373-5.953.415.942.8 1.886 1.214 2.903 1.988-1.63 3.204-2.603 4.845-3.069-1.017-2.223-1.726-3.753-2.065-4.431h-8.025c-.678 1.432-3.241 6.745-6.217 13.941h2.901c.528 0 .98-.075 1.357-.415zm-9.695 16.24h7.158l2.423-7.574h-6.97c-.829 2.261-1.707 4.748-2.611 7.574zm21.596-7.132 2.536 7.132h7.077c-1.47-4.37-3.052-8.478-4.521-12.245-1.225 2.529-2.385 3.801-5.092 5.113zm3.283-4.359c2.234-3.61 3.014-9.345 3.014-9.345l-.867-.377c-.113-.037-.15-.15-.037-.264l.64-.791c-.414-.791-1.846-2.072-3.956-2.072-1.253 0-2.347.335-3.332.977 0 0-1.431.971-3.516 2.774-2.401 2.077-5.669 5.257-8.615 9.33-.08.113.015.257.128.257h3.805c2.487 0 5.727-.452 9.081-3.994.075-.075.14-.083.215-.046.076.039.086.122.048.197-.527 1.281-1.846 3.881-4.257 5.426h3.24c2.115-.001 3.74-1.024 4.409-2.072zm-1.697-8.533c-.514-.514-.514-1.346 0-1.859.513-.514 1.345-.514 1.859 0 .513.513.513 1.345 0 1.859-.514.513-1.346.513-1.859 0z"/><path d="m275.93 411.545c.177-.267.346-.541.508-.821-.075-.037-.14-.029-.215.046-3.354 3.542-6.594 3.994-9.081 3.994h-3.805c-.113 0-.208-.144-.128-.257 2.946-4.073 6.214-7.253 8.614-9.33l-6.376 5.33c-.49.414-1.093.678-1.921.678h-8.026c-.226 0-.151.189-.113.302.565 1.733 2.072 3.278 4.71 3.278l-1.884 1.921c-.076.075-.076.264.113.264h7.159c5.175 0 8.356-2.249 10.445-5.405zm-2.232 7.892 2.261 6.33h1.658l-2.374-6.631c-.452.112-.98.226-1.545.301zm6.342-14.681c-.242.241-.632.24-.873 0-.241-.241-.241-.632 0-.873s.631-.241.872 0c-.513-.513-1.345-.513-1.859 0-.513.513-.513 1.346 0 1.859.514.514 1.346.513 1.86 0 .512-.513.512-1.345-.001-1.859.241.242.241.632.001.873zm-4.571 11.591c-2.115 0-3.24 0-3.24 0-.829.49-1.093.641-2.261 1.093-.083.033-.113.113-.075.227l2.894 8.1h1.658l-2.656-7.423c1.727 0 5.853-.459 8.089-4.068-.67 1.048-2.295 2.071-4.409 2.071zm9.796-12.848h-2.637l-.641.791c-.112.114-.075.227.038.264l.867.377 2.449-1.13c.151-.076.113-.302-.076-.302z"/><path d="m1793.16 347.882c-.24.241-.24.632 0 .872.25.241.64.242.88 0 .24-.24.24-.631 0-.872s-.63-.241-.88 0z"/><path d="m1812.04 364.228c-.49.603-1.77 1.244-2.83 1.244-1.73 0-2.71-.943-2.71-2.637v-11.152h-5.88v11.942c0 4.37 1.96 6.518 6.07 6.518 3.05 0 4.82-.943 6.1-2.374l.38 1.996h4.75v-18.082h-5.88zm18.46.904c-2.9 0-4.41-1.809-4.41-4.559 0-2.637 1.51-4.257 4.37-4.257 1.55 0 2.79.414 3.88 1.131l.83-4.936c-1.58-.678-3.28-1.205-6.14-1.205-5.84 0-9.04 3.352-9.04 9.494 0 6.178 3.01 9.343 8.89 9.343 2.82 0 5.54-.866 6.67-1.621l-.83-4.596c-1.32.679-2.6 1.206-4.22 1.206zm17.99-13.826c-2.41 0-3.99.565-5.2 1.545v-7.912h-6.03v24.827h5.88v-12.545c.49-.603 1.77-1.243 2.83-1.243 1.73 0 2.71.941 2.71 2.637v11.151h5.88v-11.943c0-4.37-1.96-6.517-6.07-6.517zm39.48 0c-3.05 0-4.82.942-6.1 2.373l-.38-1.996h-4.74v18.083h5.87v-12.545c.49-.603 1.77-1.243 2.83-1.243 1.73 0 2.71.941 2.71 2.637v11.151h5.84v-11.943c0-4.37-1.96-6.517-6.03-6.517zm-31.34 10.096c0 6.104 2.26 8.741 6.63 8.741 2.67 0 4.52-.904 5.54-2.374l.3 1.997h4.78v-17.33c-1.92-.602-4.1-1.13-8.21-1.13-5.84 0-9.04 3.579-9.04 10.096zm11.24 2.826c-.53.603-1.39 1.244-2.82 1.244-1.59 0-2.45-1.47-2.45-4.296 0-3.465.94-5.198 2.82-5.198 1.09 0 1.66.075 2.45.264zm-89.18-10.702 3.62-2.976c.76-2.072 1.55-4.182 2.38-5.953.41.942.79 1.886 1.21 2.903 1.99-1.63 3.2-2.603 4.84-3.069-1.01-2.223-1.72-3.753-2.06-4.431h-8.03c-.67 1.432-3.24 6.745-6.21 13.941h2.9c.53 0 .98-.075 1.35-.415zm-9.69 16.24h7.16l2.42-7.574h-6.97c-.83 2.261-1.71 4.748-2.61 7.574zm21.6-7.132 2.53 7.132h7.08c-1.47-4.37-3.05-8.478-4.52-12.245-1.23 2.529-2.39 3.801-5.09 5.113zm3.28-4.359c2.23-3.61 3.01-9.345 3.01-9.345l-.86-.377c-.12-.037-.15-.15-.04-.264l.64-.791c-.42-.791-1.85-2.072-3.96-2.072-1.25 0-2.34.335-3.33.977 0 0-1.43.971-3.52 2.774-2.4 2.077-5.66 5.257-8.61 9.33-.08.113.01.257.13.257h3.8c2.49 0 5.73-.452 9.08-3.994.08-.075.14-.083.22-.046.07.039.08.122.05.197-.53 1.281-1.85 3.881-4.26 5.426h3.24c2.11-.001 3.74-1.024 4.41-2.072zm-1.7-8.533c-.51-.514-.51-1.346 0-1.859.52-.514 1.35-.514 1.86 0 .51.513.51 1.345 0 1.859-.51.513-1.34.513-1.86 0z"/><path d="m1789.93 355.545c.18-.267.35-.541.51-.821-.08-.037-.14-.029-.22.046-3.35 3.542-6.59 3.994-9.08 3.994h-3.8c-.12 0-.21-.144-.13-.257 2.94-4.073 6.21-7.253 8.61-9.33l-6.37 5.33c-.49.414-1.1.678-1.92.678h-8.03c-.23 0-.15.189-.11.302.56 1.733 2.07 3.278 4.71 3.278l-1.89 1.921c-.07.075-.07.264.12.264h7.15c5.18 0 8.36-2.249 10.45-5.405zm-2.23 7.892 2.26 6.33h1.66l-2.38-6.631c-.45.112-.98.226-1.54.301zm6.34-14.681c-.24.241-.63.24-.87 0-.24-.241-.24-.632 0-.873s.63-.241.87 0c-.51-.513-1.35-.513-1.86 0s-.51 1.346 0 1.859c.51.514 1.35.513 1.86 0s.51-1.345 0-1.859c.24.242.24.632 0 .873zm-4.57 11.591c-2.12 0-3.24 0-3.24 0-.83.49-1.09.641-2.26 1.093-.09.033-.12.113-.08.227l2.9 8.1h1.66l-2.66-7.423c1.73 0 5.85-.459 8.09-4.068-.67 1.048-2.3 2.071-4.41 2.071zm9.8-12.848h-2.64l-.64.791c-.12.114-.08.227.04.264l.86.377 2.45-1.13c.15-.076.11-.302-.07-.302z"/><path clip-rule="evenodd" d="m1689 397v31.25h-125v-31.25zm-98.51 22.209h3.96v-13.007h-3.96v1.269c-.79-1.11-2.22-1.586-3.49-1.586-3.49 0-5.87 3.172-5.87 6.821 0 3.648 2.38 6.82 5.87 6.82 1.27 0 2.7-.475 3.49-1.903zm-2.54-3.173c-1.9 0-3.01-1.428-3.01-3.331 0-1.745 1.11-3.331 3.01-3.331s3.01 1.586 3.01 3.331c0 1.904-1.11 3.331-3.01 3.331zm23 3.172h-4.28v-9.677h-1.27v-3.331h1.27v-3.331h4.28v3.331h2.07v3.331h-2.07zm8.89.317c3.8 0 6.98-2.379 6.98-6.82s-3.18-6.821-6.98-6.821c-3.65 0-6.82 2.379-6.82 6.821 0 4.441 3.17 6.82 6.82 6.82zm0-3.489c-1.91 0-3.02-1.428-3.02-3.331 0-1.904 1.11-3.331 3.02-3.331 2.06 0 3.17 1.427 3.17 3.331s-1.11 3.331-3.17 3.331zm11.89-7.931c.96-1.586 2.23-2.062 3.18-2.062h.16v4.124c-2.7 0-3.34 1.428-3.34 3.808v5.235h-4.12v-13.008h4.12zm22.05-.162v.002zm3.49-2.06c-1.42 0-2.53.634-3.49 2.06v-1.583h-3.8v12.848h3.8v-6.345c0-.187 0-.383-.01-.581v-.001c-.03-1.313-.07-2.749 1.44-2.749 1.46 0 1.44 1.604 1.43 2.972v.359 6.345h3.96v-6.345c0-.132 0-.265 0-.398-.01-1.467-.02-2.933 1.43-2.933 1.3 0 1.29 1.579 1.27 2.939v.392 6.345h3.97v-8.566c0-2.697-.96-4.917-3.65-4.917-1.43 0-2.54.793-3.17 2.22-.8-1.586-1.75-2.062-3.18-2.062zm-76.3 4.601v-3.806c-.95-.476-1.9-.793-2.85-.793-3.97 0-6.98 2.855-6.98 6.979 0 3.965 3.01 6.662 6.66 6.662 1.11 0 2.22-.317 3.17-.793v-3.807c-.63.635-1.58 1.269-2.38 1.269-2.06 0-3.33-1.427-3.33-3.49 0-1.903 1.43-3.331 3.17-3.331.96 0 1.91.634 2.54 1.11zm63.61 8.725h3.97v-13.007h-3.97v1.269c-.79-1.11-2.22-1.586-3.49-1.586-3.49 0-5.87 3.172-5.87 6.821 0 3.648 2.38 6.82 5.87 6.82 1.27 0 2.7-.475 3.49-1.903zm-2.54-3.173c-1.9 0-3.17-1.428-3.17-3.331s1.27-3.331 3.17-3.331c1.91 0 3.02 1.428 3.02 3.331 0 1.904-1.11 3.331-3.02 3.331zm39.03 3.173h-3.97v-1.586c-.79 1.428-2.22 1.903-3.49 1.903-3.33 0-5.71-3.172-5.71-6.82 0-3.649 2.22-6.821 5.71-6.821 1.27 0 2.7.476 3.49 1.586v-1.269h3.97zm-9.52-6.504c0 1.903 1.11 3.331 3.02 3.331 1.9 0 3.01-1.427 3.01-3.331 0-1.903-1.11-3.331-3.01-3.331-1.91 0-3.02 1.428-3.02 3.331zm-70.43-3.808c.63 0 1.59.318 2.22.635l1.27-2.856c-1.11-.634-2.38-.951-3.81-.951-2.54 0-5.07 1.427-5.07 4.6 0 2.38 1.27 3.173 2.53 3.49.15.033.3.065.45.096 1.23.263 2.25.48 2.25 1.332 0 .793-.79.951-1.27.951-1.11 0-2.54-.634-3.33-1.269l-1.43 3.173c1.43.952 3.02 1.586 4.6 1.586 2.7 0 5.56-1.428 5.56-4.917 0-2.38-1.59-3.332-3.49-3.808-.09-.027-.2-.055-.32-.086-.57-.147-1.43-.37-1.43-1.024 0-.634.79-.952 1.27-.952z" fill-rule="evenodd"/><path clip-rule="evenodd" d="m162 349v31.25h-125v-31.25zm-98.5118 22.209h3.9659v-13.007h-3.9659v1.269c-.7931-1.11-2.2212-1.586-3.4901-1.586-3.4901 0-5.8692 3.172-5.8692 6.821 0 3.648 2.3798 6.82 5.8692 6.82 1.2696 0 2.697-.475 3.4901-1.903zm-2.5377-3.173c-1.904 0-3.0143-1.428-3.0143-3.331 0-1.745 1.1103-3.331 3.0143-3.331 1.9033 0 3.0135 1.586 3.0135 3.331 0 1.904-1.1102 3.331-3.0135 3.331zm23.0038 3.172h-4.2831v-9.677h-1.2689v-3.331h1.2689v-3.331h4.2831v3.331h2.0619v3.331h-2.0619zm8.8822.317c3.8073 0 6.9801-2.379 6.9801-6.82s-3.1721-6.821-6.9801-6.821c-3.648 0-6.8209 2.379-6.8209 6.821 0 4.441 3.1722 6.82 6.8209 6.82zm0-3.489c-1.9033 0-3.0136-1.428-3.0136-3.331 0-1.904 1.1103-3.331 3.0136-3.331 2.0626 0 3.1728 1.427 3.1728 3.331s-1.1102 3.331-3.1728 3.331zm11.8975-7.931c.952-1.586 2.221-2.062 3.173-2.062h.158v4.124c-2.696 0-3.331 1.428-3.331 3.808v5.235h-4.125v-13.008h4.125zm22.05-.162-.002.002h.002zm3.489-2.06c-1.428 0-2.538.634-3.489 2.06v-1.583h-3.807v12.848h3.807v-6.345c0-.187-.006-.383-.011-.581v-.001c-.037-1.313-.077-2.749 1.438-2.749 1.456 0 1.442 1.604 1.43 2.972-.001.122-.002.242-.002.359v6.345h3.966v-6.345c0-.132-.001-.265-.002-.398-.013-1.467-.025-2.933 1.429-2.933 1.3 0 1.285 1.579 1.272 2.939-.002.133-.003.265-.003.392v6.345h3.966v-8.566c0-2.697-.952-4.917-3.649-4.917-1.428 0-2.538.793-3.173 2.22-.793-1.586-1.745-2.062-3.172-2.062zm-76.3005 4.601h-.0007v-3.806c-.9523-.476-1.904-.793-2.8556-.793-3.9659 0-6.9795 2.855-6.9795 6.979 0 3.965 3.0136 6.662 6.6623 6.662 1.1102 0 2.2212-.317 3.1728-.793v-3.807c-.6344.635-1.5861 1.269-2.3791 1.269-2.0626 0-3.3315-1.427-3.3315-3.49 0-1.903 1.4282-3.331 3.1729-3.331.952 0 1.9033.634 2.5377 1.11zm63.6085 8.725h3.966v-13.007h-3.966v1.269c-.793-1.11-2.22-1.586-3.489-1.586-3.49 0-5.869 3.172-5.869 6.821 0 3.648 2.379 6.82 5.869 6.82 1.269 0 2.696-.475 3.489-1.903zm-2.538-3.173c-1.904 0-3.172-1.428-3.172-3.331s1.269-3.331 3.172-3.331c1.905 0 3.015 1.428 3.015 3.331 0 1.904-1.111 3.331-3.015 3.331zm39.026 3.173h-3.966v-1.586c-.793 1.428-2.221 1.903-3.49 1.903-3.332 0-5.711-3.172-5.711-6.82 0-3.649 2.222-6.821 5.711-6.821 1.269 0 2.697.476 3.49 1.586v-1.269h3.966zm-9.517-6.504c0 1.903 1.11 3.331 3.014 3.331s3.014-1.427 3.014-3.331c0-1.903-1.111-3.331-3.014-3.331s-3.014 1.428-3.014 3.331zm-70.432-3.808c.6344 0 1.5861.318 2.2205.635l1.2689-2.856c-1.1103-.634-2.3798-.951-3.8073-.951-2.5377 0-5.0762 1.427-5.0762 4.6 0 2.38 1.2696 3.173 2.5384 3.49.1499.033.2981.065.4432.096 1.2374.263 2.2539.48 2.2539 1.332 0 .793-.793.951-1.2689.951-1.1102 0-2.5377-.634-3.3307-1.269l-1.4282 3.173c1.4275.952 3.0142 1.586 4.6003 1.586 2.6964 0 5.552-1.428 5.552-4.917 0-2.38-1.5868-3.332-3.4901-3.808-.0834-.027-.1913-.055-.3124-.086-.5694-.147-1.4323-.37-1.4323-1.024 0-.634.7931-.952 1.2689-.952z" fill-rule="evenodd"/><path d="m1418.89 400.808c.67-1.199 1.31-2.335 1.94-3.472.29-.507.58-1.01.85-1.526.09-.185.19-.222.39-.186 1.53.276 3.06.542 4.59.806.19.034.27.113.27.327-.01 3.484-.01 6.968 0 10.453 0 .234-.1.308-.29.371-1.03.339-2.06.679-3.09 1.041-.3.108-.38.075-.38-.268.01-2.642.01-5.284.01-7.927 0-.123 0-.246 0-.369-.02-.004-.04-.009-.07-.014-.55.999-1.11 1.997-1.67 2.996-.67 1.196-1.34 2.389-2 3.59-.11.196-.22.277-.45.267-.47-.018-.93-.021-1.4.001-.26.013-.38-.07-.48-.318-.77-1.932-1.55-3.857-2.34-5.783-.04-.116-.06-.254-.19-.352-.5 1.277-1 2.547-1.5 3.817-.35.89-.7 1.78-1.04 2.672-.07.17-.13.277-.35.275-1.23-.013-2.46-.006-3.7-.006-.07-.148.03-.254.08-.364 1.39-3.654 2.8-7.307 4.19-10.963.09-.226.2-.347.45-.408.96-.239 1.93-.491 2.88-.773.33-.096.46-.035.6.279.88 1.929 1.78 3.847 2.7 5.834z"/><path d="m1466.34 400.461c-.82 2.08-1.64 4.153-2.43 6.239-.15.389-.32.528-.74.516-1.14-.033-2.28-.012-3.42-.012-.04-.133.03-.233.07-.335 1.41-3.664 2.82-7.327 4.22-10.993.08-.23.2-.347.44-.407.99-.248 1.98-.504 2.96-.79.28-.082.38-.011.49.232.87 1.902 1.76 3.798 2.64 5.696.01.043.03.086.08.197.21-.361.39-.669.56-.979.74-1.33 1.49-2.66 2.23-3.993.09-.159.15-.255.38-.214 1.54.284 3.08.549 4.62.816.18.032.25.113.25.307-.01 3.496-.01 6.992-.01 10.488 0 .18-.04.272-.23.333-1.08.354-2.15.716-3.22 1.094-.38.132-.28-.128-.28-.295 0-2.641 0-5.283 0-7.924 0-.122.03-.251-.06-.411-.54.98-1.08 1.933-1.61 2.885-.68 1.23-1.38 2.455-2.05 3.691-.13.225-.26.31-.52.298-.45-.023-.9-.025-1.36 0-.26.015-.38-.081-.48-.323-.76-1.931-1.55-3.857-2.33-5.782-.05-.115-.05-.259-.2-.334z"/><path d="m1490.26 402.447c0-1.489.01-2.978 0-4.467-.01-.246.05-.336.31-.329.75.018 1.5.02 2.26-.001.26-.008.42.063.43.336.03.371.18.34.46.2.86-.435 1.78-.675 2.75-.726 2.04-.107 3.24 1.021 3.26 3.113.01 2.11 0 4.221 0 6.332v.078c.03.19-.06.239-.24.237-1.02-.008-2.05-.015-3.07.003-.3.006-.25-.17-.25-.347 0-1.735 0-3.47 0-5.206 0-.155 0-.312-.02-.465-.07-.458-.31-.652-.77-.627-.15.008-.29.022-.43.047-1.1.201-1.16.281-1.16 1.381 0 1.619-.01 3.238 0 4.856.01.294-.07.368-.36.362-.95-.02-1.89-.019-2.84-.001-.28.006-.34-.079-.34-.347.02-1.476.01-2.952.01-4.429z"/><path d="m1438.48 402.436c0-1.477.01-2.953 0-4.43-.01-.298.08-.364.36-.356.71.022 1.43.029 2.14-.002.34-.015.5.094.53.42.03.238.1.279.34.161 1.23-.593 2.52-.95 3.9-.671 1.21.245 1.93 1.002 2.13 2.218.04.306.07.618.07.927.01 2.047 0 4.093.01 6.14 0 .307-.08.388-.38.381-.96-.02-1.92-.017-2.88-.001-.26.005-.32-.074-.31-.323.01-1.787 0-3.575 0-5.362 0-.801-.25-1.021-1.04-.934-.06.007-.12.01-.19.022-1.08.196-1.16.299-1.16 1.385 0 1.619-.01 3.238 0 4.857.01.301-.08.361-.36.356-.95-.018-1.9-.016-2.84-.001-.25.004-.32-.062-.32-.319.01-1.489 0-2.979 0-4.468z"/><path d="m1510.46 400.078c-1.15-1.941-2.87-2.753-5.08-2.582-1.94.15-3.41 1.083-4.17 2.881-.77 1.833-.64 3.665.64 5.268 1.14 1.429 2.72 1.903 4.49 1.796 2.5-.15 4.18-1.904 4.53-3.696.02-.088 0-.216.13-.258 0-.621 0-1.243 0-1.865-.19-.509-.26-1.063-.54-1.544zm-2.65 2.396c.01 1.284-.82 2.197-1.97 2.164-.47-.013-.88-.179-1.22-.509-.92-.887-.86-2.622.13-3.44.91-.763 2.31-.424 2.83.696.16.343.25.706.23 1.089z"/><path d="m1437.2 404.061c0-.867.01-1.735 0-2.602 0-.649-.07-1.291-.32-1.898-.59-1.407-1.77-1.908-3.17-2.057-1.58-.168-3.12.129-4.66.396-.19.032-.22.131-.22.295.01.725.01 1.45 0 2.175-.01.252.08.272.29.21.85-.247 1.72-.359 2.6-.414.57-.036 1.14-.066 1.69.134.41.15.66.44.73.877.03.204-.01.302-.25.295-.6-.018-1.19-.015-1.79-.003-.86.016-1.7.113-2.5.453-.77.327-1.32.857-1.53 1.686-.42 1.613.4 3.17 2 3.656 1.35.412 2.68.232 3.96-.347.2-.091.33-.138.39.123.05.192.19.179.33.178.72-.002 1.43-.014 2.14.006.27.008.32-.082.32-.328-.01-.945-.01-1.89-.01-2.835zm-3.02-.316c-.09.724-.41 1.136-1.11 1.314-.29.072-.59.094-.85.134-.35-.056-.68-.037-.98-.186-.3-.154-.46-.403-.45-.747.02-.338.22-.535.54-.633.33-.105.68-.141 1.03-.14.53.001 1.06.007 1.59-.003.2-.005.25.043.23.261z"/><path d="m1488.97 404.005c0-.919 0-1.839 0-2.758-.01-2.218-1.3-3.571-3.51-3.752-1.58-.129-3.12.14-4.66.408-.14.024-.19.084-.19.231v2.292c-.01.193.07.213.23.171.24-.067.49-.135.75-.181 1.08-.2 2.17-.364 3.27-.202.37.054.7.2.9.537.13.205.23.457.13.659-.07.145-.33.035-.51.054-.06.008-.13.001-.19.001-1.06 0-2.13-.045-3.17.234-.99.269-1.82.748-2.15 1.804-.51 1.616.38 3.315 2.01 3.777 1.33.377 2.64.211 3.9-.35.19-.083.35-.206.42.111.04.195.19.177.33.176.71-.001 1.43-.011 2.14.005.24.006.31-.064.3-.303-.01-.971 0-1.943 0-2.914zm-3.03-.161c-.09.646-.45 1.047-1.08 1.212-.5.132-1.02.152-1.53.056-.5-.094-.77-.397-.76-.825 0-.391.25-.622.76-.728.48-.098.95-.067 1.43-.073.3 0 .6.02.89-.005.31-.027.33.113.29.363z"/><path d="m1458.61 399.94c-1.06-1.965-3.54-2.907-5.88-2.318-2.77.696-4.3 3.415-3.54 6.285.57 2.161 2.49 3.541 4.92 3.541 4.41.006 6.24-4.268 4.5-7.508zm-3.09 4.05c-.62.756-1.7.872-2.48.297-.79-.588-.94-1.428-.78-2.329.13-.794.57-1.375 1.38-1.61.16-.046.33-.054.45-.073.86.039 1.43.428 1.74 1.162.38.899.34 1.782-.31 2.553z"/><path clip-rule="evenodd" d="m1396.44 386c.96.225 1.53.936 2.09 1.648.07.086.14.171.21.255l.75.934c2.15 2.655 4.3 5.311 6.46 7.959.72.882.91 1.831.49 2.895-.38.963-.76 1.928-1.13 2.892l-.01.01c-.15.402-.31.803-.47 1.205l.01.004c-.19.613-.42 1.208-.68 1.792-.09.236-.18.473-.26.71-.23.649-.47 1.298-.76 1.926v.007.008l-.01.007c-.34 1.045-.74 2.069-1.17 3.085l-.01-.006v.005c-.32 1.081-1.05 1.707-2.15 1.892-.2.033-.4.059-.6.085-.09.012-.19.024-.28.037v-.002l-3.79.613v.004l-2.41.384v-.003l-.01.004-1.01.16-.01-.001c-.04.009-.09.018-.13.027-.31.064-.63.127-.95.135v.001c-.16.07-.34.088-.51.106-.09.009-.17.018-.26.032l.01-.008.01-.009-.01.003-.01.006-.01.006-.62.091-.01-.007v.009c-.33.079-.66.148-1 .157v.001c-.14.06-.3.077-.45.093-.19.021-.39.042-.56.148h-.23l-.01-.004v.004h-.53l-.01.002h-.23c-.02-.089-.1-.105-.17-.119-.01-.004-.03-.007-.05-.012-.54-.16-.97-.477-1.32-.909l-1.69-2.093-.03-.028c-2.1-2.595-4.21-5.19-6.32-7.78-.17-.208-.27-.444-.38-.679-.07-.144-.14-.289-.22-.427v-1.087-.001-.001-.078l.45-1.09v-.004l.33-.852c.01-.005.01-.01.01-.015l.32-.834v.003-.003c.01-.045.03-.091.04-.137.05-.143.09-.286.18-.411.1-.346.23-.681.39-1.002l-.01-.007.41-1.084.01.012-.01-.013.85-2.179h-.01l1.34-3.496c.06-.15.11-.3.16-.451v-.001c.12-.335.24-.671.39-.991.37-.776.96-1.295 1.84-1.434.26-.044.52-.088.77-.133.65-.111 1.3-.222 1.95-.328.28-.046.56-.082.84-.118.12-.016.25-.032.37-.049v-.003c.29-.048.57-.096.85-.144.77-.131 1.54-.261 2.31-.388.17-.028.34-.045.5-.062.08-.008.16-.016.23-.024l.03.018c-.01-.034 0-.07 0-.109.16-.103.33-.124.51-.145.04-.005.08-.01.13-.017.39-.059.77-.122 1.16-.186h.01v-.001c.99-.163 1.99-.326 3-.41h.47zm-14.98 19.364-.02-.019c.12-.19.2-.391.24-.611v-.001c.11-.191.2-.393.23-.613v.002c.18-.32.31-.657.39-1.011v-.006c.12-.193.19-.41.26-.626.04-.128.07-.255.12-.378l-.01-.017.02.015c.36-.79.66-1.596.93-2.417v-.001c.46-1.068.88-2.152 1.25-3.252v-.005.004c.06-.145.12-.289.18-.434v-.001c.15-.364.29-.729.43-1.096.08-.194.17-.309.4-.362.39-.093.77-.207 1.16-.322.16-.046.31-.093.47-.137.12-.031.25-.059.38-.087.31-.068.62-.137.91-.235.27-.086.37-.014.47.214.33.733.67 1.463 1.01 2.193l.19.402c.34.744.68 1.487 1.04 2.253v.001l.46.989 1.98-3.637-.01-.006c.2-.249.35-.527.49-.805.09-.16.17-.32.27-.474.1-.167.16-.252.4-.201.5.107 1 .186 1.51.265.18.03.37.059.56.09.02.031.04.061.06.092.47.158.95.23 1.43.302.22.033.44.066.66.106.31.059.43.19.43.512 0 .128 0 .256-.01.385-.01.478-.02.957.03 1.436.02.048.04.094.06.136-.07.087-.08.201-.09.313-.01.646-.01 1.293 0 1.94.01.127.02.257.13.346-.04.018-.08.067-.1.162-.04.774-.04 1.549-.03 2.324 0 .327.01.654.01.981 0 .127.01.258.12.347h.01c-.03.016-.05.036-.08.062-.06.202-.05.408-.05.613v.001c0 .076.01.153.01.23-.01.136-.01.253-.01.353 0 .318.01.472-.07.572-.07.094-.2.14-.47.229-.1.034-.22.074-.36.126-.05.019-.1.034-.16.049-.17.048-.34.097-.44.258-.01-.001-.02-.002-.02-.003l-.01-.001c-.01 0-.02 0-.03 0-.28.035-.54.124-.8.212-.14.049-.28.098-.43.138-.07.019-.13.045-.2.072-.15.061-.3.123-.47.084-.08-.093-.07-.202-.07-.31.01-.033.01-.065.01-.097 0-.447 0-.893 0-1.339 0-.277 0-.554 0-.831 0-.082-.01-.162-.02-.239v-5.635l-.09-.026-1.9 3.446c-.01.003-.02.007-.04.012-.11.051-.17.151-.23.253-.39.696-.78 1.395-1.17 2.095l-.01.001-.22.398c-.01.016-.02.033-.03.049-.06.103-.12.21-.09.337l-.01.002c-.34.135-.68.122-1.03.109-.13-.005-.26-.01-.39-.007-.57.015-.58.004-.79-.535v-.003c-.35-.876-.7-1.748-1.06-2.621-.37-.911-.74-1.822-1.1-2.738-.01-.022-.02-.045-.03-.069-.05-.14-.1-.299-.27-.295-.16.004-.22.164-.27.307-.01.022-.02.044-.02.065-.11.282-.22.562-.34.842-.16.416-.33.832-.48 1.253-.05.129-.1.255-.16.382-.12.287-.25.575-.27.896.01.024.03.045.04.064-.13.044-.17.158-.22.271 0 .013-.01.026-.01.039-.03.051-.05.101-.07.152-.09.232-.19.464-.27.702-.04.101-.08.2-.12.299-.11.24-.21.48-.21.75.01.01.01.019.01.029-.09.016-.14.093-.16.173-.06.232-.24.346-.43.441-.28-.151-.57-.118-.86-.086-.06.007-.13.015-.19.02-.04.031-.07.061-.1.09v-.012c-.27-.161-.55-.168-.82-.019-.04-.025-.09-.046-.13-.063-.04-.003-.07-.007-.1-.011-.2-.024-.4-.047-.58.082l-.03-.041c-.08-.036-.17-.031-.26-.026-.11.006-.22.011-.28-.067-.06-.074-.03-.17.01-.272.02-.088.05-.18.03-.268z" fill-rule="evenodd"/><path d="m163.887 245.808c.672-1.199 1.309-2.335 1.946-3.472.284-.507.577-1.01.845-1.526.096-.185.196-.222.393-.186 1.527.276 3.055.542 4.584.806.198.034.272.113.272.327-.007 3.484-.008 6.968.001 10.453.001.234-.096.308-.289.371-1.031.339-2.062.679-3.085 1.041-.305.108-.385.075-.383-.268.013-2.642.007-5.284.007-7.927 0-.123 0-.246 0-.369-.021-.004-.043-.009-.064-.014-.558.999-1.115 1.997-1.673 2.996-.668 1.196-1.341 2.389-2.001 3.59-.107.196-.224.277-.451.267-.466-.018-.933-.021-1.399.001-.261.013-.382-.07-.481-.318-.768-1.932-1.553-3.857-2.337-5.783-.047-.116-.061-.254-.196-.352-.501 1.277-1 2.547-1.497 3.817-.348.89-.697 1.78-1.04 2.672-.065.17-.133.277-.352.275-1.23-.013-2.46-.006-3.693-.006-.073-.148.029-.254.071-.364 1.399-3.654 2.804-7.307 4.2-10.963.086-.226.197-.347.444-.408.965-.239 1.927-.491 2.88-.773.327-.096.463-.035.606.279.873 1.929 1.772 3.847 2.692 5.834z"/><path d="m211.338 245.461c-.814 2.08-1.639 4.153-2.428 6.239-.147.389-.321.528-.741.516-1.138-.033-2.278-.012-3.418-.012-.042-.133.031-.233.07-.335 1.405-3.664 2.816-7.327 4.215-10.993.088-.23.202-.347.444-.407.991-.248 1.98-.504 2.96-.79.279-.082.382-.011.493.232.871 1.902 1.753 3.798 2.632 5.696.02.043.039.086.088.197.205-.361.383-.669.556-.979.745-1.33 1.491-2.66 2.231-3.993.088-.159.154-.255.377-.214 1.538.284 3.08.549 4.621.816.185.032.248.113.247.307-.006 3.496-.005 6.992-.001 10.488 0 .18-.044.272-.23.333-1.08.354-2.157.716-3.228 1.094-.373.132-.274-.128-.274-.295-.003-2.641-.002-5.283-.004-7.924-.001-.122.037-.251-.054-.411-.547.98-1.079 1.933-1.612 2.885-.687 1.23-1.38 2.455-2.055 3.691-.124.225-.259.31-.515.298-.452-.023-.907-.025-1.359 0-.266.015-.382-.081-.478-.323-.769-1.931-1.552-3.857-2.335-5.782-.047-.115-.053-.259-.202-.334z"/><path d="m235.26 247.447c0-1.489.006-2.978-.005-4.467-.001-.246.052-.336.317-.329.751.018 1.503.02 2.253-.001.27-.008.42.063.438.336.024.371.177.34.456.2.864-.435 1.786-.675 2.755-.726 2.036-.107 3.233 1.021 3.251 3.113.019 2.11.004 4.221.004 6.332 0 .026-.003.053.001.078.029.19-.056.239-.239.237-1.023-.008-2.046-.015-3.069.003-.304.006-.255-.17-.255-.347 0-1.735 0-3.47-.001-5.206 0-.155.003-.312-.019-.465-.065-.458-.308-.652-.771-.627-.142.008-.285.022-.424.047-1.098.201-1.165.281-1.165 1.381 0 1.619-.007 3.238.008 4.856.002.294-.076.368-.366.362-.945-.02-1.891-.019-2.836-.001-.279.006-.341-.079-.339-.347.013-1.476.006-2.952.006-4.429z"/><path d="m183.485 247.436c0-1.477.009-2.953-.008-4.43-.004-.298.08-.364.364-.356.712.022 1.426.029 2.137-.002.339-.015.499.094.533.42.024.238.094.279.339.161 1.234-.593 2.521-.95 3.903-.671 1.211.245 1.928 1.002 2.123 2.218.049.306.073.618.074.927.007 2.047-.003 4.093.011 6.14.002.307-.08.388-.384.381-.958-.02-1.917-.017-2.875-.001-.26.005-.318-.074-.316-.323.01-1.787.006-3.575.005-5.362-.001-.801-.247-1.021-1.036-.934-.065.007-.13.01-.193.022-1.081.196-1.167.299-1.167 1.385 0 1.619-.009 3.238.008 4.857.003.301-.085.361-.367.356-.945-.018-1.891-.016-2.836-.001-.252.004-.324-.062-.322-.319.013-1.489.007-2.979.007-4.468z"/><path d="m255.459 245.078c-1.144-1.941-2.87-2.753-5.077-2.582-1.938.15-3.416 1.083-4.171 2.881-.771 1.833-.64 3.665.637 5.268 1.139 1.429 2.718 1.903 4.494 1.796 2.497-.15 4.179-1.904 4.53-3.696.018-.088-.001-.216.129-.258 0-.621 0-1.243 0-1.865-.195-.509-.259-1.063-.542-1.544zm-2.645 2.396c.002 1.284-.828 2.197-1.973 2.164-.47-.013-.882-.179-1.224-.509-.92-.887-.856-2.622.129-3.44.919-.763 2.312-.424 2.837.696.161.343.248.706.231 1.089z"/><path d="m182.204 249.061c0-.867.006-1.735-.001-2.602-.006-.649-.07-1.291-.325-1.898-.589-1.407-1.771-1.908-3.171-2.057-1.577-.168-3.118.129-4.661.396-.185.032-.217.131-.216.295.006.725.011 1.45-.002 2.175-.004.252.081.272.296.21.848-.247 1.721-.359 2.598-.414.566-.036 1.14-.066 1.69.134.413.15.656.44.724.877.032.204-.003.302-.248.295-.595-.018-1.192-.015-1.787-.003-.858.016-1.704.113-2.503.453-.767.327-1.315.857-1.53 1.686-.416 1.613.404 3.17 1.998 3.656 1.352.412 2.688.232 3.967-.347.2-.091.331-.138.389.123.044.192.187.179.332.178.712-.002 1.425-.014 2.136.006.267.008.322-.082.319-.328-.012-.945-.005-1.89-.005-2.835zm-3.029-.316c-.081.724-.401 1.136-1.106 1.314-.286.072-.585.094-.853.134-.344-.056-.673-.037-.972-.186-.308-.154-.468-.403-.452-.747.017-.338.218-.535.533-.633.336-.105.681-.141 1.031-.14.53.001 1.06.007 1.59-.003.203-.005.254.043.229.261z"/><path d="m233.967 249.005c0-.919.004-1.839 0-2.758-.01-2.218-1.295-3.571-3.505-3.752-1.582-.129-3.119.14-4.662.408-.139.024-.194.084-.193.231.006.764.008 1.528-.001 2.292-.003.193.071.213.23.171.249-.067.499-.135.753-.181 1.083-.2 2.169-.364 3.274-.202.372.054.696.2.9.537.123.205.229.457.127.659-.072.145-.333.035-.508.054-.064.008-.13.001-.195.001-1.06 0-2.124-.045-3.163.234-.998.269-1.824.748-2.155 1.804-.507 1.616.38 3.315 2.013 3.777 1.331.377 2.64.211 3.898-.35.185-.083.354-.206.42.111.04.195.188.177.332.176.713-.001 1.425-.011 2.137.005.24.006.307-.064.304-.303-.013-.971-.006-1.943-.006-2.914zm-3.022-.161c-.097.646-.45 1.047-1.082 1.212-.507.132-1.018.152-1.532.056-.5-.094-.774-.397-.765-.825.007-.391.258-.622.766-.728.473-.098.951-.067 1.428-.073.297 0 .595.02.89-.005.307-.027.332.113.295.363z"/><path d="m203.605 244.94c-1.055-1.965-3.532-2.907-5.878-2.318-2.77.696-4.302 3.415-3.54 6.285.574 2.161 2.495 3.541 4.928 3.541 4.405.006 6.231-4.268 4.49-7.508zm-3.08 4.05c-.629.756-1.703.872-2.482.297-.796-.588-.94-1.428-.786-2.329.135-.794.578-1.375 1.387-1.61.159-.046.329-.054.448-.073.854.039 1.427.428 1.736 1.162.379.899.337 1.782-.303 2.553z"/><g clip-rule="evenodd" fill-rule="evenodd"><path d="m141.436 231c.967.225 1.531.936 2.096 1.648.068.086.136.171.204.255l.756.934c2.15 2.655 4.301 5.311 6.46 7.959.72.882.906 1.831.487 2.895-.379.963-.755 1.928-1.131 2.892l-.004.01c-.156.402-.313.803-.47 1.205l.004.004c-.187.613-.418 1.208-.68 1.792-.088.236-.173.473-.258.71-.234.649-.468 1.298-.756 1.926l-.003.007-.003.008-.003.007c-.348 1.045-.749 2.069-1.175 3.085l-.006-.006-.002.005c-.324 1.081-1.048 1.707-2.156 1.892-.198.033-.397.059-.596.085-.093.012-.186.024-.279.037l-.001-.002-3.787.613-.007.004-2.409.384-.002-.003-.003.004-1.016.16-.003-.001c-.045.009-.09.018-.135.027-.312.064-.624.127-.945.135l.001.001c-.166.07-.342.088-.518.106-.085.009-.17.018-.253.032l.006-.008.006-.009-.004.003-.008.006-.008.006-.628.091-.005-.007v.009c-.33.079-.661.148-1.001.157l-.001.001c-.143.06-.297.077-.451.093-.192.021-.385.042-.557.148h-.234l-.004-.004v.004h-.537l-.003.002h-.233c-.025-.089-.099-.105-.168-.119-.018-.004-.035-.007-.051-.012-.539-.16-.968-.477-1.318-.909l-1.698-2.093-.022-.028c-2.105-2.595-4.209-5.19-6.32-7.78-.169-.208-.279-.444-.388-.679-.068-.144-.135-.289-.216-.427v-1.087l.002-.001-.002-.001v-.078l.452-1.09-.007-.004.336-.852c.005-.005.009-.01.014-.015l.313-.834.003.003-.002-.003c.016-.045.03-.091.044-.137.043-.143.087-.286.176-.411h.004c.097-.346.223-.681.383-1.002l-.005-.007.405-1.084.013.012-.004-.013.84-2.179 1.333-3.496h.003c.056-.15.11-.3.163-.451v-.001c.119-.335.238-.671.389-.991.367-.776.959-1.295 1.836-1.434.259-.044.517-.088.776-.133.649-.111 1.297-.222 1.946-.328.278-.046.558-.082.837-.118h.001.001c.125-.016.249-.032.373-.049l-.002-.003c.285-.048.569-.096.853-.144.77-.131 1.54-.261 2.311-.388.165-.028.331-.045.498-.062.077-.008.154-.016.231-.024l.023.018c-.004-.034-.001-.07.007-.109.154-.103.33-.124.503-.145.044-.005.087-.01.13-.017.389-.059.777-.122 1.164-.186h.001.001.001.001.001l.001-.001h.001c.996-.163 1.992-.326 3-.41h.472zm-14.977 19.364-.016-.019c.115-.19.2-.391.238-.611h-.001l.002-.001c.111-.191.194-.393.23-.613l.003.002c.172-.32.303-.657.389-1.011l-.004-.006c.124-.193.19-.41.256-.626.039-.128.078-.255.129-.378l-.014-.017.023.015c.351-.79.659-1.596.929-2.417v-.001c.456-1.068.872-2.152 1.246-3.252l-.001-.005.003.004c.058-.145.117-.289.176-.434v-.001c.149-.364.297-.729.437-1.096.075-.194.171-.309.395-.362.391-.093.776-.207 1.161-.322.155-.046.31-.093.466-.137.127-.031.256-.059.384-.087.308-.068.616-.137.914-.235.262-.086.368-.014.47.214.329.733.667 1.463 1.005 2.193l.186.402c.345.744.69 1.487 1.046 2.253v.001l.46.989 1.979-3.637-.005-.006c.196-.249.343-.527.49-.805.084-.16.169-.32.262-.474.102-.167.162-.252.401-.201.499.107 1.004.186 1.509.265.188.03.375.059.563.09.021.031.042.061.062.092.466.158.948.23 1.431.302h.001.001c.218.033.437.066.654.106.314.059.434.19.43.512-.001.128-.004.256-.006.385-.01.478-.02.957.029 1.436.016.048.037.094.061.136-.077.087-.087.201-.089.313-.013.646-.013 1.293 0 1.94.002.127.014.257.125.346-.042.018-.078.067-.103.162-.041.774-.033 1.549-.026 2.324.004.327.007.654.007.981-.001.127.012.258.128.347h.002c-.025.016-.051.036-.079.062-.058.202-.052.408-.046.613v.001c.002.076.005.153.003.23-.002.136-.001.253-.001.353.001.318.001.472-.072.572-.07.094-.205.14-.469.229-.101.034-.22.074-.362.126-.051.019-.104.034-.158.049-.169.048-.341.097-.447.258-.006-.001-.011-.002-.017-.003l-.013-.001c-.009 0-.019 0-.028 0-.275.035-.535.124-.795.212-.143.049-.287.098-.433.138-.067.019-.132.045-.197.072-.149.061-.299.123-.472.084-.081-.093-.074-.202-.066-.31.002-.033.004-.065.004-.097-.003-.447-.003-.893-.003-1.339.001-.277.001-.554 0-.831 0-.082-.002-.162-.016-.239v-5.635l-.093-.026-1.892 3.446c-.014.003-.028.007-.043.012-.113.051-.173.151-.23.253-.396.696-.787 1.395-1.177 2.095v.001h-.001l-.222.398c-.009.016-.018.033-.028.049-.06.103-.123.21-.096.337l-.013.002c-.334.135-.68.122-1.025.109-.132-.005-.264-.01-.395-.007-.568.015-.573.004-.785-.535l-.002-.003c-.346-.876-.701-1.748-1.057-2.621-.371-.911-.743-1.822-1.103-2.738-.009-.022-.017-.045-.026-.069-.05-.14-.106-.299-.272-.295-.164.004-.221.164-.271.307-.008.022-.016.044-.024.065-.107.282-.22.562-.332.842-.167.416-.333.832-.485 1.253-.046.129-.101.255-.156.382-.126.287-.251.575-.275.896.013.024.029.045.046.064-.131.044-.177.158-.222.271-.005.013-.01.026-.016.039-.021.051-.042.101-.063.152-.097.232-.194.464-.276.702-.035.101-.077.2-.12.299-.102.24-.204.48-.204.75.004.01.008.019.013.029-.098.016-.148.093-.169.173-.06.232-.233.346-.428.441-.277-.151-.568-.118-.859-.086-.063.007-.126.015-.188.02-.042.031-.075.061-.099.09l-.001-.012c-.274-.161-.547-.168-.821-.019-.041-.025-.086-.046-.134-.063-.033-.003-.065-.007-.098-.011-.197-.024-.395-.047-.574.082l-.038-.041c-.078-.036-.17-.031-.259-.026-.112.006-.216.011-.277-.067-.057-.074-.027-.17.006-.272.027-.088.056-.18.033-.268z"/><path d="m1414 71.7145v-35.7145h125v35.7145zm24.79-14.7427.8 2.3315 2.34.0049-3.98-11.5812h-2.79l-3.38 9.5841h-5.3v-9.5841h-2.35v11.577h1.49.86 6.98l.02-.037.04.0142 3.04-8.7377 1.56 4.5037h-1.94l-.53 1.9246zm12.75-3.707 4.2 5.9496v-.0008h2.82l-3.45-4.7618s2.66-.4765 2.66-3.4125-2.9-3.313-2.9-3.313h-4.33-1.66-.72v11.577h2.39v-9.6922h3.41s1.43 0 1.43 1.786c0 1.8648-1.7 1.8677-1.7 1.8677zm10.35 6.0584h7.34v-1.8848h-6.18v-7.8273h5.91v-1.8848h-5.91-1.43-.99v11.577h1.26zm6.6-5.0392v-1.8848h-4.49v1.8848zm7.14 5.0193h2.02c1.31 0 4.09-1.3194 4.09-6.3195 0-4.867-4.21-5.2575-4.21-5.2575h-3.1-.47-1.91v11.577h2.38v-9.6922h2.43s2.46-.0477 2.46 3.5712c0 4.4047-2.5 4.1664-2.5 4.1664h-1.19zm7.89-5.7419c0 3.8122 2.49 6.1963 5.56 6.1963s5.56-2.2987 5.55-6.1963c0-4.1658-2.48-6.1964-5.55-6.1964s-5.56 2.0733-5.56 6.1964zm22.46 2.4388h.03v-8.2732h-2.27v7.7177h-.02s.16 2.2227-2.18 2.2227-2.34-2.2618-2.34-2.2618v-7.6786h-2.27v7.9909l-.03.0049s-.04 3.8884 4.56 3.8884c3.79 0 4.43-2.4765 4.52-3.611zm5.6 3.2142h2.42v-8.6509h-2.42zm-3.46-9.6431h9.25v-1.845h-9.25zm13.05 9.7519h7.35v-1.8848h-6.19v-7.8273h5.92v-1.8848h-5.92-1.43-.99v11.577h1.26zm6.6-5.0392v-1.8848h-4.48v1.8848zm-42.02-.5982c0-2.7276 1.3-4.0989 3.33-4.0989s3.3 1.3428 3.3 4.0989c0 2.579-1.27 4.0996-3.3 4.0996s-3.33-1.5775-3.33-4.0996z"/><path d="m110 147.714v-35.714h125v35.714zm24.786-14.742.808 2.331 2.333.005-3.979-11.581h-2.787l-3.383 9.584h-5.301v-9.584h-2.342v11.577h1.487.855 6.988l.01-.037.049.014 3.035-8.737 1.561 4.503h-1.938l-.535 1.925zm12.756-3.707 4.202 5.949h2.818l-3.452-4.762s2.659-.477 2.659-3.413-2.899-3.313-2.899-3.313h-4.325-1.667-.714v11.577h2.381v-9.692h3.416s1.428 0 1.428 1.786c0 1.865-1.704 1.868-1.704 1.868zm10.345 6.058h7.343.001v-1.885h-6.185v-7.827h5.915v-1.885h-5.915-1.429-.992v11.577h1.262zm6.6-5.039v-1.885h-4.485v1.885zm7.14 5.019h2.021c1.312 0 4.09-1.319 4.09-6.319 0-4.867-4.209-5.258-4.209-5.258h-3.095-.477-1.91v11.577h2.387v-9.692h2.423s2.46-.048 2.46 3.571c0 4.405-2.5 4.167-2.5 4.167h-1.19zm7.897-5.742c0 3.813 2.487 6.197 5.555 6.197s5.556-2.299 5.556-6.197c0-4.165-2.488-6.196-5.556-6.196s-5.555 2.073-5.555 6.196zm22.454 2.439h.027.001v-8.273h-2.265v7.718h-.018s.159 2.222-2.183 2.222c-2.341 0-2.341-2.261-2.341-2.261v-7.679h-2.265v7.991l-.037.005s-.04 3.888 4.563 3.888c3.794 0 4.427-2.476 4.518-3.611zm5.601 3.214h2.421v-8.651h-2.421zm-3.454-9.643h9.248v-1.845h-9.248zm13.048 9.752h7.343v-1.885h-6.185v-7.827h5.916v-1.885h-5.916-1.429-.992v11.577h1.263zm6.6-5.039v-1.885h-4.486v1.885zm-42.023-.598c0-2.728 1.304-4.099 3.334-4.099 2.029 0 3.293 1.343 3.293 4.099 0 2.579-1.264 4.099-3.293 4.099-2.03 0-3.334-1.577-3.334-4.099z"/></g><path d="m847.338 28.48c-14.829 0-15.378 11.5337-15.333 14.5087 0 0-.732 13.5019 14.967 13.5019 13.456 0 14.142-8.4673 14.142-8.4673h-6.178s-1.19 4.6684-7.918 4.5311c-8.605-.1831-8.971-8.513-8.971-8.513h23.891c0 .0458 1.831-15.5614-14.6-15.5614zm-9.062 11.488s.412-7.5519 8.97-7.5519c8.513 0 8.513 7.5519 8.513 7.5519z"/><path d="m878.55 28.4811c-7.46-.0458-10.664 4.3938-10.664 4.3938v-14.8749h-5.996l.092 31.489s-.046 3.6615-.275 6.0873h5.813l.229-3.5242s2.7 4.4396 10.618 4.4396 14.143-4.8516 14.326-13.9138c.228-9.0165-6.683-14.0511-14.143-14.0968zm-1.373 23.9829c-9.428.1373-9.245-9.9776-9.245-9.9776s-.321-9.703 9.245-9.9777c9.566-.2288 9.291 10.1607 9.291 10.1607s.092 9.6573-9.291 9.7946z"/><path d="m920.342 49.3512c0-4.0735.137-7.735 0-10.298-.137-2.975.137-10.1607-12.724-10.7099 0 0-12.311-1.1443-13.593 8.0553h6.316s.504-4.2108 6.911-4.0734c6.042.0915 7.14 3.0665 7.14 6.728 0 0-5.172 0-6.911.0457-3.112 0-14.051.3662-15.058 7.0027-1.236 7.918 5.858 10.3895 11.397 10.3438 5.538-.0458 8.696-1.6935 11.03-4.6685l.229 3.6615 5.492-.0457c-.092.0915-.229-1.9681-.229-6.0415zm-15.607 3.3411s-5.996 0-6.316-4.7599c-.366-5.1262 9.199-4.8058 9.199-4.8058h6.774c0-.0458 1.099 9.703-9.657 9.5657z"/><path d="m917.09 29.4873h6.911l10.115 20.1841 10.161-20.1841h6.27l-18.308 36.0201h-6.728l5.31-10.0234z"/><path d="m952.928 30.9061v-.7323h-.229v-.2746h.229v-.4119h.412v.4119h.503v.2746h-.503v.6866c0 .1373.092.183.229.183.091 0 .183 0 .274-.0457v.2746c-.091.0458-.228.0915-.366.0915-.366-.0457-.549-.1373-.549-.4577z"/><path d="m954.253 29.8994h.412v.2289c.137-.1373.274-.2289.549-.2289s.458.0916.549.2289c.137-.1373.321-.2289.595-.2289.412 0 .641.1831.641.5492v.9154h-.412v-.8238c0-.2289-.137-.3662-.366-.3662s-.412.1373-.412.3662v.778h-.412v-.8238c0-.2288-.137-.3661-.366-.3661s-.412.1373-.412.3661v.7781h-.412v-1.3731z"/><path d="m1665.34 159.48c-14.83 0-15.38 11.534-15.33 14.509 0 0-.74 13.502 14.96 13.502 13.46 0 14.14-8.468 14.14-8.468h-6.17s-1.19 4.669-7.92 4.531c-8.61-.183-8.97-8.513-8.97-8.513h23.89c0 .046 1.83-15.561-14.6-15.561zm-9.06 11.488s.41-7.552 8.97-7.552c8.51 0 8.51 7.552 8.51 7.552z"/><path d="m1696.55 159.481c-7.46-.046-10.66 4.394-10.66 4.394v-14.875h-6l.09 31.489s-.04 3.662-.27 6.087h5.81l.23-3.524s2.7 4.44 10.62 4.44c7.91 0 14.14-4.852 14.32-13.914.23-9.017-6.68-14.051-14.14-14.097zm-1.37 23.983c-9.43.137-9.25-9.978-9.25-9.978s-.32-9.703 9.25-9.977c9.56-.229 9.29 10.16 9.29 10.16s.09 9.658-9.29 9.795z"/><path d="m1738.34 180.351c0-4.073.14-7.735 0-10.298-.14-2.975.14-10.161-12.72-10.71 0 0-12.31-1.144-13.6 8.056h6.32s.5-4.211 6.91-4.074c6.04.092 7.14 3.067 7.14 6.728 0 0-5.17 0-6.91.046-3.11 0-14.05.366-15.06 7.003-1.23 7.918 5.86 10.389 11.4 10.343 5.54-.045 8.7-1.693 11.03-4.668l.23 3.661 5.49-.045c-.09.091-.23-1.968-.23-6.042zm-15.61 3.341s-5.99 0-6.31-4.76c-.37-5.126 9.2-4.805 9.2-4.805h6.77c0-.046 1.1 9.703-9.66 9.565z"/><path d="m1735.09 160.487h6.91l10.12 20.184 10.16-20.184h6.27l-18.31 36.02h-6.73l5.31-10.023z"/><path d="m1770.93 161.906v-.732h-.23v-.275h.23v-.412h.41v.412h.5v.275h-.5v.686c0 .138.09.183.23.183.09 0 .18 0 .27-.045v.274c-.09.046-.23.092-.36.092-.37-.046-.55-.137-.55-.458z"/><path d="m1772.25 160.899h.41v.229c.14-.137.28-.229.55-.229.28 0 .46.092.55.229.14-.137.32-.229.6-.229.41 0 .64.183.64.55v.915h-.41v-.824c0-.229-.14-.366-.37-.366s-.41.137-.41.366v.778h-.41v-.824c0-.228-.14-.366-.37-.366s-.41.138-.41.366v.778h-.41v-1.373z"/><path d="m511.338 430.48c-14.829 0-15.378 11.534-15.333 14.509 0 0-.732 13.502 14.967 13.502 13.456 0 14.142-8.468 14.142-8.468h-6.178s-1.19 4.669-7.918 4.531c-8.605-.183-8.971-8.513-8.971-8.513h23.891c0 .046 1.831-15.561-14.6-15.561zm-9.062 11.488s.412-7.552 8.97-7.552c8.513 0 8.513 7.552 8.513 7.552z"/><path d="m542.55 430.481c-7.46-.046-10.664 4.394-10.664 4.394v-14.875h-5.996l.092 31.489s-.046 3.662-.275 6.087h5.813l.229-3.524s2.7 4.44 10.618 4.44 14.143-4.852 14.326-13.914c.228-9.017-6.683-14.051-14.143-14.097zm-1.373 23.983c-9.428.137-9.245-9.978-9.245-9.978s-.321-9.703 9.245-9.977c9.566-.229 9.291 10.16 9.291 10.16s.092 9.658-9.291 9.795z"/><path d="m584.342 451.351c0-4.073.137-7.735 0-10.298-.137-2.975.137-10.161-12.724-10.71 0 0-12.311-1.144-13.593 8.056h6.316s.504-4.211 6.911-4.074c6.042.092 7.14 3.067 7.14 6.728 0 0-5.172 0-6.911.046-3.112 0-14.051.366-15.058 7.003-1.236 7.918 5.858 10.389 11.397 10.343 5.538-.045 8.696-1.693 11.03-4.668l.229 3.661 5.492-.045c-.092.091-.229-1.968-.229-6.042zm-15.607 3.341s-5.996 0-6.316-4.76c-.366-5.126 9.199-4.805 9.199-4.805h6.774c0-.046 1.099 9.703-9.657 9.565z"/><path d="m581.09 431.487h6.911l10.115 20.184 10.161-20.184h6.27l-18.308 36.02h-6.728l5.31-10.023z"/><path d="m616.928 432.906v-.732h-.229v-.275h.229v-.412h.412v.412h.503v.275h-.503v.686c0 .138.092.183.229.183.091 0 .183 0 .274-.045v.274c-.091.046-.228.092-.366.092-.366-.046-.549-.137-.549-.458z"/><path d="m618.253 431.899h.412v.229c.137-.137.274-.229.549-.229s.458.092.549.229c.137-.137.321-.229.595-.229.412 0 .641.183.641.55v.915h-.412v-.824c0-.229-.137-.366-.366-.366s-.412.137-.412.366v.778h-.412v-.824c0-.228-.137-.366-.366-.366s-.412.138-.412.366v.778h-.412v-1.373z"/><path d="m409.307 62.4826s4.825-.0836 8.214 3.3183c0 0 3.041 2.7264 3.021 10.4565 0 0-.053 2.972-1.596 9.9893-.045.2003-.268.5497-.7.5497h-6.613c-.595 0-.829-.5608-.715-.9333 0 0 .796-2.3327 1.289-5.1517 0 0 1.186-7.8852-1.263-10.386 0 0-1.35-2.1203-4.986-1.3813v17.1516c0 .1852-.138.7007-.769.7007h-7.035c-.387 0-.736-.3212-.736-.6977v-22.8379c0-.3806.21-.7782.792-.7782z"/><path d="m376.878 88.3429c4.914 0 8.648 4.5969 7.107 11.6142-.048.2029-.271.5509-.702.5509h-6.615c-.592 0-.848-.42-.715-.9345.244-.9494.983-5.8212-2.427-4.7691v17.1506c0 .186-.135.703-.765.703h-7.039c-.386 0-.734-.323-.734-.7v-22.8379c0-.3816.211-.7772.79-.7772z"/><path d="m389.369 93.3497c2.681 0 4.303-1.8444 4.303-1.8444v20.4037c0 .198-.14.746-.768.746h-7.036c-.392 0-.739-.344-.739-.741v-20.3211c0-.0011 1.559 1.7568 4.24 1.7568z"/><path d="m369.554 74.1132c.039-8.0815-6.219-10.392-6.219-10.392-5.518-2.3066-9.377-1.035-9.377-1.035v-6.6861h-8.599v25.7284c0 5.9833 8.391 5.3098 8.391 5.3098 7.772 0 11.677-3.861 11.677-3.861 4.36-4.0201 4.127-9.0641 4.127-9.0641zm-8.9.5718c0 2.7818-2.146 5.0702-4.66 5.037-.768-.0121-1.444-.1903-2.021-.4853l.002-9.1174c.607-.3111 1.288-.4853 2.005-.4823.902.0041 4.406.6061 4.674 5.048z"/><path d="m364.195 99.5266s.102-4.4621-3.832-7.6012c-2.847-2.2985-5.244-3.5832-11.709-3.5832 0 0-7.033 0-8.226 0-.244 0-.428.14-.428.3866v27.4632h8.599v-5.239s5.211 1.35 9.378-1.036c3.956-2.268 6.269-5.851 6.218-10.3904zm-8.897.304c-.268 4.4384-3.774 5.0464-4.677 5.0464-.717.005-1.396-.169-2.002-.481l-.002-9.117c.577-.297 1.25-.4752 2.021-.4853 2.511-.0342 4.66 2.2552 4.66 5.0369z"/><path d="m383.482 69.6845c2.564 0 4.645 2.229 4.645 4.9796 0 2.7515-2.081 4.9785-4.645 4.9785-2.567 0-4.646-2.227-4.646-4.9785 0-2.7516 2.079-4.9796 4.646-4.9796zm5.878 11.7784c1.494 0 2.858.5527 3.904 1.4659 2.119-2.1858 3.414-5.0853 3.414-8.2647 0-6.7998-5.91-12.314-13.196-12.314-7.288 0-13.199 5.5142-13.199 12.314 0 6.7847 5.882 12.2858 13.146 12.313.221-3.0818 2.792-5.5142 5.931-5.5142z"/><path d="m411.09 100.502c.005.169.06.324.149.444 5.389 7.08 6.174 10.05 6.3 10.813.056.321-.138.903-.749.903h-6.629c-.466 0-.654-.521-.654-.521-1.338-3.478-3.267-5.462-3.267-5.462-.081-.075-.168-.099-.244-.097h-.002c-.074-.002-.161.022-.243.097 0 0-1.932 1.984-3.267 5.462 0 0-.19.521-.66.521h-6.625c-.609 0-.802-.582-.749-.903.125-.763.913-3.733 6.302-10.813.089-.121.145-.275.147-.444v-.002c-.002-.167-.058-.326-.147-.447-5.389-7.0745-6.177-10.0445-6.302-10.8127-.053-.3212.14-.8981.749-.8981h6.625c.47 0 .66.5215.66.5215 1.335 3.4775 3.267 5.4568 3.267 5.4568.082.0775.169.0987.243.0987h.002c.076 0 .163-.0222.244-.0987 0 0 1.929-1.9803 3.267-5.4568 0 0 .188-.5215.654-.5215h6.629c.611 0 .804.5769.749.8981-.126.7671-.911 3.7372-6.3 10.8127-.089.121-.145.28-.149.447z"/><path d="m913.307 417.483s4.825-.084 8.214 3.318c0 0 3.041 2.726 3.021 10.456 0 0-.053 2.972-1.596 9.99-.045.2-.268.549-.7.549h-6.613c-.595 0-.829-.56-.715-.933 0 0 .796-2.333 1.289-5.152 0 0 1.186-7.885-1.263-10.386 0 0-1.35-2.12-4.986-1.381v17.152c0 .185-.138.7-.769.7h-7.035c-.387 0-.736-.321-.736-.697v-22.838c0-.381.21-.778.792-.778z"/><path d="m880.878 443.343c4.914 0 8.648 4.597 7.107 11.614-.048.203-.271.551-.702.551h-6.615c-.592 0-.848-.42-.715-.934.244-.95.983-5.822-2.427-4.77v17.151c0 .186-.135.703-.765.703h-7.039c-.386 0-.734-.323-.734-.7v-22.838c0-.381.211-.777.79-.777z"/><path d="m893.369 448.35c2.681 0 4.303-1.845 4.303-1.845v20.404c0 .198-.14.746-.768.746h-7.036c-.392 0-.739-.344-.739-.741v-20.321c0-.001 1.559 1.757 4.24 1.757z"/><path d="m873.554 429.113c.039-8.081-6.219-10.392-6.219-10.392-5.518-2.306-9.377-1.035-9.377-1.035v-6.686h-8.599v25.729c0 5.983 8.391 5.309 8.391 5.309 7.772 0 11.677-3.861 11.677-3.861 4.36-4.02 4.127-9.064 4.127-9.064zm-8.9.572c0 2.782-2.146 5.07-4.66 5.037-.768-.012-1.444-.19-2.021-.485l.002-9.118c.607-.311 1.288-.485 2.005-.482.902.004 4.406.606 4.674 5.048z"/><path d="m868.195 454.527s.102-4.462-3.832-7.602c-2.847-2.298-5.244-3.583-11.709-3.583 0 0-7.033 0-8.226 0-.244 0-.428.14-.428.387v27.463h8.599v-5.239s5.211 1.35 9.378-1.036c3.956-2.268 6.269-5.851 6.218-10.39zm-8.897.304c-.268 4.438-3.774 5.046-4.677 5.046-.717.005-1.396-.169-2.002-.481l-.002-9.117c.577-.297 1.25-.475 2.021-.485 2.511-.035 4.66 2.255 4.66 5.037z"/><path d="m887.482 424.685c2.564 0 4.645 2.229 4.645 4.979 0 2.752-2.081 4.979-4.645 4.979-2.567 0-4.646-2.227-4.646-4.979 0-2.751 2.079-4.979 4.646-4.979zm5.878 11.778c1.494 0 2.858.553 3.904 1.466 2.119-2.186 3.414-5.085 3.414-8.265 0-6.8-5.91-12.314-13.196-12.314-7.288 0-13.199 5.514-13.199 12.314 0 6.785 5.882 12.286 13.146 12.313.221-3.082 2.792-5.514 5.931-5.514z"/><path d="m915.09 455.502c.005.169.06.324.149.444 5.389 7.08 6.174 10.05 6.3 10.813.056.321-.138.903-.749.903h-6.629c-.466 0-.654-.521-.654-.521-1.338-3.478-3.267-5.462-3.267-5.462-.081-.075-.168-.099-.244-.097h-.002c-.074-.002-.161.022-.243.097 0 0-1.932 1.984-3.267 5.462 0 0-.19.521-.66.521h-6.625c-.609 0-.802-.582-.749-.903.125-.763.913-3.733 6.302-10.813.089-.121.145-.275.147-.444v-.002c-.002-.167-.058-.326-.147-.447-5.389-7.075-6.177-10.045-6.302-10.813-.053-.321.14-.898.749-.898h6.625c.47 0 .66.522.66.522 1.335 3.477 3.267 5.457 3.267 5.457.082.077.169.098.243.098h.002c.076 0 .163-.022.244-.098 0 0 1.929-1.981 3.267-5.457 0 0 .188-.522.654-.522h6.629c.611 0 .804.577.749.898-.126.767-.911 3.737-6.3 10.813-.089.121-.145.28-.149.447z"/></g></svg>