<svg fill="none" height="262" viewBox="0 0 317 262" width="317" xmlns="http://www.w3.org/2000/svg"><path d="m0 0h317v262h-317z" fill="#fff"/><path d="m82.6499 51.913h1.534v9.087h-1.534zm5.5343 5.343v3.744h-1.456v-6.916h1.456v1.261c.234-.4247.5547-.7583.962-1.001.416-.2427.8623-.364 1.339-.364.78 0 1.4083.2383 1.885.715.4853.4767.728 1.1657.728 2.067v4.238h-1.456v-3.796c0-1.274-.5287-1.911-1.586-1.911-.5027 0-.9403.169-1.313.507-.3727.3293-.559.8147-.559 1.456zm12.1748 1.677c0 .6587-.238 1.1873-.7145 1.586-.4767.39-1.0877.585-1.833.585-.5027 0-1.027-.091-1.573-.273-.5373-.182-1.014-.4377-1.43-.767l.702-1.131c.806.6067 1.586.91 2.34.91.3293 0 .5893-.0737.78-.221.1907-.156.286-.351.286-.585 0-.3467-.4593-.6587-1.378-.936-.0693-.026-.1213-.0433-.156-.052-1.4387-.39-2.158-1.04-2.158-1.95 0-.6413.247-1.1527.741-1.534.5027-.39 1.1527-.585 1.95-.585s1.5513.234 2.2615.702l-.5455 1.079c-.5633-.3727-1.1743-.559-1.833-.559-.3467 0-.6283.065-.845.195-.2167.1213-.325.3077-.325.559 0 .2253.1127.39.338.494.156.078.3727.1517.65.221.286.0693.5373.1387.754.208s.4247.1473.624.234c.208.0867.429.208.663.364.4675.312.7015.7973.7015 1.456zm3.744-3.679v3.51c0 .3293.086.5937.26.793.173.1907.416.286.728.286s.611-.1517.897-.455l.598 1.027c-.512.4593-1.079.689-1.703.689-.616 0-1.144-.2123-1.586-.637-.434-.4333-.65-1.014-.65-1.742v-3.471h-.871v-1.17h.871v-2.171h1.456v2.171h1.82v1.17zm9.542 5.746h-1.326v-.923c-.572.6847-1.339 1.027-2.301 1.027-.719 0-1.317-.2037-1.794-.611-.468-.4073-.702-.949-.702-1.625 0-.6847.252-1.196.754-1.534.503-.338 1.183-.507 2.041-.507h1.885v-.26c0-.9187-.511-1.378-1.534-1.378-.641 0-1.308.234-2.002.702l-.65-.91c.841-.6673 1.794-1.001 2.86-1.001.815 0 1.478.208 1.989.624.52.4073.78 1.053.78 1.937zm-1.456-2.574v-.585h-1.638c-1.048 0-1.573.3293-1.573.988 0 .338.13.598.39.78.26.1733.62.26 1.079.26.468 0 .876-.13 1.222-.39.347-.26.52-.611.52-1.053zm5.239 2.574h-1.456v-9.646h1.456zm3.868 0h-1.456v-9.646h1.456zm7.734 0h-1.456v-6.916h1.456zm-1.365-8.294c-.182-.182-.273-.3987-.273-.65s.091-.468.273-.65.399-.273.65-.273c.252 0 .468.091.65.273s.273.3987.273.65-.091.468-.273.65-.398.273-.65.273c-.251 0-.468-.091-.65-.273zm5.233 4.55v3.744h-1.456v-6.916h1.456v1.261c.234-.4247.554-.7583.962-1.001.416-.2427.862-.364 1.339-.364.78 0 1.408.2383 1.885.715.485.4767.728 1.1657.728 2.067v4.238h-1.456v-3.796c0-1.274-.529-1.911-1.586-1.911-.503 0-.941.169-1.313.507-.373.3293-.559.8147-.559 1.456zm14.066-4.147c-.442 0-.806.091-1.092.273s-.429.4593-.429.832c0 .364.143.6457.429.845.286.1907.893.3987 1.82.624.936.2253 1.638.5417 2.106.949.477.4073.715 1.0097.715 1.807 0 .7887-.299 1.43-.897 1.924s-1.382.741-2.353.741c-1.421 0-2.682-.4897-3.783-1.469l.962-1.157c.919.7973 1.872 1.196 2.86 1.196.494 0 .884-.104 1.17-.312.295-.2167.442-.4983.442-.845 0-.3553-.138-.6283-.416-.819-.268-.1993-.736-.377-1.404-.533-.667-.1647-1.174-.312-1.521-.442-.346-.1387-.654-.3163-.923-.533-.537-.4073-.806-1.0313-.806-1.872s.304-1.4863.91-1.937c.616-.4593 1.374-.689 2.275-.689.581 0 1.157.0953 1.729.286s1.066.4593 1.482.806l-.819 1.157c-.268-.2427-.632-.442-1.092-.598-.459-.156-.914-.234-1.365-.234zm11.973 5.07h-5.421c.034.5027.264.91.689 1.222.424.3033.91.455 1.456.455.866 0 1.525-.273 1.976-.819l.832.91c-.746.7713-1.716 1.157-2.912 1.157-.971 0-1.799-.3207-2.483-.962-.676-.65-1.014-1.5167-1.014-2.6 0-1.092.346-1.9587 1.04-2.6.693-.6413 1.508-.962 2.444-.962.944 0 1.746.286 2.405.858.658.5633.988 1.3433.988 2.34zm-5.421-1.144h3.965c0-.5807-.182-1.027-.546-1.339s-.815-.468-1.352-.468c-.529 0-1.006.1647-1.43.494-.425.3207-.637.7583-.637 1.313zm10.39 4.069c-.962 0-1.79-.325-2.483-.975-.693-.6587-1.04-1.5167-1.04-2.574s.36-1.9153 1.079-2.574c.728-.6673 1.612-1.001 2.652-1.001s1.92.3597 2.639 1.079l-.858 1.053c-.598-.52-1.2-.78-1.807-.78s-1.135.2037-1.586.611c-.442.3987-.663.9187-.663 1.56 0 .6327.221 1.17.663 1.612s.984.663 1.625.663c.65 0 1.261-.2947 1.833-.884l.858.936c-.841.8493-1.811 1.274-2.912 1.274zm6.195-1.924c.416.416.94.624 1.573.624.632 0 1.152-.208 1.56-.624.416-.4247.624-.9707.624-1.638s-.208-1.209-.624-1.625c-.408-.4247-.928-.637-1.56-.637-.633 0-1.157.2123-1.573.637-.408.416-.611.9577-.611 1.625s.203 1.2133.611 1.638zm4.173.897c-.694.6847-1.56 1.027-2.6 1.027s-1.907-.3423-2.6-1.027c-.694-.6933-1.04-1.5383-1.04-2.535s.346-1.8373 1.04-2.522c.693-.6933 1.56-1.04 2.6-1.04s1.906.3467 2.6 1.04c.693.6847 1.04 1.5253 1.04 2.522s-.347 1.8417-1.04 2.535zm4.451-2.821v3.744h-1.456v-6.916h1.456v1.261c.234-.4247.555-.7583.962-1.001.416-.2427.862-.364 1.339-.364.78 0 1.408.2383 1.885.715.485.4767.728 1.1657.728 2.067v4.238h-1.456v-3.796c0-1.274-.529-1.911-1.586-1.911-.503 0-.94.169-1.313.507-.373.3293-.559.8147-.559 1.456zm10.069 3.848c-.875 0-1.638-.3293-2.288-.988s-.975-1.5253-.975-2.6.334-1.9327 1.001-2.574c.668-.6413 1.461-.962 2.379-.962.928 0 1.673.39 2.236 1.17v-3.796h1.456v9.646h-1.456v-1.04c-.537.7627-1.321 1.144-2.353 1.144zm-1.807-3.523c0 .6587.213 1.196.637 1.612.425.416.923.624 1.495.624s1.058-.208 1.456-.624c.399-.4247.598-.9663.598-1.625s-.199-1.209-.598-1.651c-.398-.442-.888-.663-1.469-.663-.58 0-1.079.221-1.495.663s-.624.9967-.624 1.664zm12.948 1.352c0 .6587-.239 1.1873-.715 1.586-.477.39-1.088.585-1.833.585-.503 0-1.027-.091-1.573-.273-.538-.182-1.014-.4377-1.43-.767l.702-1.131c.806.6067 1.586.91 2.34.91.329 0 .589-.0737.78-.221.19-.156.286-.351.286-.585 0-.3467-.46-.6587-1.378-.936-.07-.026-.122-.0433-.156-.052-1.439-.39-2.158-1.04-2.158-1.95 0-.6413.247-1.1527.741-1.534.502-.39 1.152-.585 1.95-.585.797 0 1.551.234 2.262.702l-.546 1.079c-.564-.3727-1.175-.559-1.833-.559-.347 0-.629.065-.845.195-.217.1213-.325.3077-.325.559 0 .2253.112.39.338.494.156.078.372.1517.65.221.286.0693.537.1387.754.208.216.0693.424.1473.624.234.208.0867.429.208.663.364.468.312.702.7973.702 1.456zm7.61-5.421v.572h1.82v1.17h-1.82v5.746h-1.456v-5.746h-.871v-1.17h.871v-.533c0-.728.217-1.3043.65-1.729.442-.4333.971-.65 1.586-.65.624 0 1.192.2297 1.703.689l-.598 1.027c-.286-.3033-.585-.455-.897-.455s-.554.0997-.728.299c-.173.1907-.26.4507-.26.78zm7.148 1.937c-.719 0-1.261.234-1.625.702s-.546 1.0963-.546 1.885v2.964h-1.456v-6.916h1.456v1.391c.234-.4333.55-.7887.949-1.066.407-.2773.836-.4203 1.287-.429l.013 1.469c-.026 0-.052 0-.078 0zm3.325 3.731c.416.416.94.624 1.573.624s1.153-.208 1.56-.624c.416-.4247.624-.9707.624-1.638s-.208-1.209-.624-1.625c-.407-.4247-.927-.637-1.56-.637s-1.157.2123-1.573.637c-.407.416-.611.9577-.611 1.625s.204 1.2133.611 1.638zm4.173.897c-.693.6847-1.56 1.027-2.6 1.027s-1.907-.3423-2.6-1.027c-.693-.6933-1.04-1.5383-1.04-2.535s.347-1.8373 1.04-2.522c.693-.6933 1.56-1.04 2.6-1.04s1.907.3467 2.6 1.04c.693.6847 1.04 1.5253 1.04 2.522s-.347 1.8417-1.04 2.535zm4.451-2.821v3.744h-1.456v-6.916h1.456v1.261c.208-.4247.52-.7583.936-1.001.425-.2427.88-.364 1.365-.364 1.092 0 1.833.4507 2.223 1.352.685-.9013 1.539-1.352 2.561-1.352.78 0 1.409.2383 1.885.715.486.4767.728 1.1657.728 2.067v4.238h-1.456v-3.796c0-1.274-.528-1.911-1.586-1.911-.494 0-.927.1603-1.3.481-.364.312-.554.7713-.572 1.378v3.848h-1.456v-3.796c0-.6587-.117-1.1397-.351-1.443-.234-.312-.602-.468-1.105-.468-.502 0-.94.169-1.313.507-.372.3293-.559.8147-.559 1.456zm-126.7074 19.324h1.5344v3.107c-.858.9447-2.0847 1.417-3.6794 1.417-1.3433 0-2.47-.442-3.38-1.326-.9013-.884-1.352-2.002-1.352-3.354s.4594-2.4787 1.378-3.38c.9274-.9013 2.0454-1.352 3.354-1.352 1.3087 0 2.3964.3813 3.2634 1.144l-.819 1.17c-.3557-.3033-.7154-.5113-1.0794-.624-.3553-.1213-.7713-.182-1.248-.182-.9186 0-1.69.299-2.314.897-.624.5893-.936 1.3693-.936 2.34 0 .962.3034 1.7377.91 2.327.6067.5807 1.339.871 2.197.871.8667 0 1.5904-.1863 2.171-.559zm5.2514 2.6c.416.416.94.624 1.573.624.632 0 1.152-.208 1.56-.624.416-.4247.624-.9707.624-1.638s-.208-1.209-.624-1.625c-.408-.4247-.928-.637-1.56-.637-.633 0-1.157.2123-1.573.637-.408.416-.611.9577-.611 1.625s.203 1.2133.611 1.638zm4.173.897c-.694.6847-1.56 1.027-2.6 1.027s-1.907-.3423-2.6-1.027c-.694-.6933-1.04-1.5383-1.04-2.535s.346-1.8373 1.04-2.522c.693-.6933 1.56-1.04 2.6-1.04s1.906.3467 2.6 1.04c.693.6847 1.04 1.5253 1.04 2.522s-.347 1.8417-1.04 2.535zm4.607-.897c.416.416.94.624 1.573.624s1.153-.208 1.56-.624c.416-.4247.624-.9707.624-1.638s-.208-1.209-.624-1.625c-.407-.4247-.927-.637-1.56-.637s-1.157.2123-1.573.637c-.407.416-.611.9577-.611 1.625s.204 1.2133.611 1.638zm4.173.897c-.693.6847-1.56 1.027-2.6 1.027s-1.907-.3423-2.6-1.027c-.693-.6933-1.04-1.5383-1.04-2.535s.347-1.8373 1.04-2.522c.693-.6933 1.56-1.04 2.6-1.04s1.907.3467 2.6 1.04c.693.6847 1.04 1.5253 1.04 2.522s-.347 1.8417-1.04 2.535zm9.391-5.993v6.032c0 1.222-.333 2.1363-1.001 2.743-.658.6153-1.508.923-2.548.923s-1.98-.325-2.821-.975l.689-1.105c.676.5113 1.357.767 2.041.767.694 0 1.24-.1777 1.638-.533.408-.3553.611-.923.611-1.703v-.884c-.216.4073-.528.7323-.936.975-.398.2427-.849.364-1.352.364-.918 0-1.672-.3207-2.262-.962-.589-.6413-.884-1.4387-.884-2.392s.295-1.7507.884-2.392c.59-.6413 1.339-.962 2.249-.962.919 0 1.664.377 2.236 1.131v-1.027zm-5.395 3.198c0 .5633.174 1.053.52 1.469.356.4073.828.611 1.417.611.598 0 1.079-.1993 1.443-.598.373-.3987.559-.8927.559-1.482 0-.598-.186-1.1007-.559-1.508-.372-.416-.853-.624-1.443-.624-.589 0-1.061.2123-1.417.637-.346.4247-.52.923-.52 1.495zm9.261 3.718h-1.456v-9.646h1.456zm8.847-2.821h-5.421c.034.5027.264.91.689 1.222.424.3033.91.455 1.456.455.866 0 1.525-.273 1.976-.819l.832.91c-.746.7713-1.716 1.157-2.912 1.157-.971 0-1.799-.3207-2.483-.962-.676-.65-1.014-1.5167-1.014-2.6 0-1.092.346-1.9587 1.04-2.6.693-.6413 1.508-.962 2.444-.962.944 0 1.746.286 2.405.858.658.5633.988 1.3433.988 2.34zm-5.421-1.144h3.965c0-.5807-.182-1.027-.546-1.339s-.815-.468-1.352-.468c-.529 0-1.006.1647-1.43.494-.425.3207-.637.7583-.637 1.313zm7.27-1.924v-3.198h1.014v3.198zm8.3 3.822c0 .6587-.238 1.1873-.715 1.586-.476.39-1.087.585-1.833.585-.502 0-1.027-.091-1.573-.273-.537-.182-1.014-.4377-1.43-.767l.702-1.131c.806.6067 1.586.91 2.34.91.33 0 .59-.0737.78-.221.191-.156.286-.351.286-.585 0-.3467-.459-.6587-1.378-.936-.069-.026-.121-.0433-.156-.052-1.438-.39-2.158-1.04-2.158-1.95 0-.6413.247-1.1527.741-1.534.503-.39 1.153-.585 1.95-.585.798 0 1.552.234 2.262.702l-.546 1.079c-.563-.3727-1.174-.559-1.833-.559-.346 0-.628.065-.845.195-.216.1213-.325.3077-.325.559 0 .2253.113.39.338.494.156.078.373.1517.65.221.286.0693.538.1387.754.208.217.0693.425.1473.624.234.208.0867.429.208.663.364.468.312.702.7973.702 1.456zm8.859-.481 2.028-6.539h1.378l2.028 6.539 2.288-6.539h1.651l-3.172 9.087h-1.521l-1.911-6.227h-.104l-1.911 6.227h-1.521l-3.172-9.087h1.651zm17.315-.273h-5.421c.035.5027.264.91.689 1.222.425.3033.91.455 1.456.455.867 0 1.525-.273 1.976-.819l.832.91c-.745.7713-1.716 1.157-2.912 1.157-.971 0-1.798-.3207-2.483-.962-.676-.65-1.014-1.5167-1.014-2.6 0-1.092.347-1.9587 1.04-2.6s1.508-.962 2.444-.962c.945 0 1.746.286 2.405.858.659.5633.988 1.3433.988 2.34zm-5.421-1.144h3.965c0-.5807-.182-1.027-.546-1.339s-.815-.468-1.352-.468c-.529 0-1.005.1647-1.43.494-.425.3207-.637.7583-.637 1.313zm11.027-3.055c.927 0 1.72.3207 2.379.962s.988 1.495.988 2.561-.329 1.9327-.988 2.6c-.65.6673-1.413 1.001-2.288 1.001-.867 0-1.647-.3813-2.34-1.144v1.04h-1.456v-9.646h1.456v3.939c.572-.8753 1.322-1.313 2.249-1.313zm-2.275 3.575c0 .6587.199 1.2003.598 1.625.399.416.884.624 1.456.624s1.07-.208 1.495-.624.637-.9533.637-1.612c0-.6673-.208-1.2177-.624-1.651-.416-.442-.914-.663-1.495-.663s-1.07.221-1.469.663c-.399.4333-.598.9793-.598 1.638zm14.423-4.446c-.442 0-.806.091-1.092.273s-.429.4593-.429.832c0 .364.143.6457.429.845.286.1907.892.3987 1.82.624.936.2253 1.638.5417 2.106.949.476.4073.715 1.0097.715 1.807 0 .7887-.299 1.43-.897 1.924s-1.383.741-2.353.741c-1.422 0-2.683-.4897-3.783-1.469l.962-1.157c.918.7973 1.872 1.196 2.86 1.196.494 0 .884-.104 1.17-.312.294-.2167.442-.4983.442-.845 0-.3553-.139-.6283-.416-.819-.269-.1993-.737-.377-1.404-.533-.668-.1647-1.175-.312-1.521-.442-.347-.1387-.655-.3163-.923-.533-.538-.4073-.806-1.0313-.806-1.872s.303-1.4863.91-1.937c.615-.4593 1.373-.689 2.275-.689.58 0 1.157.0953 1.729.286s1.066.4593 1.482.806l-.819 1.157c-.269-.2427-.633-.442-1.092-.598-.46-.156-.915-.234-1.365-.234zm7.179 2.145v3.51c0 .3293.087.5937.26.793.173.1907.416.286.728.286s.611-.1517.897-.455l.598 1.027c-.511.4593-1.079.689-1.703.689-.615 0-1.144-.2123-1.586-.637-.433-.4333-.65-1.014-.65-1.742v-3.471h-.871v-1.17h.871v-2.171h1.456v2.171h1.82v1.17zm5.501 3.926c.416.416.94.624 1.573.624.632 0 1.152-.208 1.56-.624.416-.4247.624-.9707.624-1.638s-.208-1.209-.624-1.625c-.408-.4247-.928-.637-1.56-.637-.633 0-1.157.2123-1.573.637-.408.416-.611.9577-.611 1.625s.203 1.2133.611 1.638zm4.173.897c-.694.6847-1.56 1.027-2.6 1.027s-1.907-.3423-2.6-1.027c-.694-.6933-1.04-1.5383-1.04-2.535s.346-1.8373 1.04-2.522c.693-.6933 1.56-1.04 2.6-1.04s1.906.3467 2.6 1.04c.693.6847 1.04 1.5253 1.04 2.522s-.347 1.8417-1.04 2.535zm6.622-4.628c-.719 0-1.261.234-1.625.702s-.546 1.0963-.546 1.885v2.964h-1.456v-6.916h1.456v1.391c.234-.4333.551-.7887.949-1.066.408-.2773.837-.4203 1.287-.429l.013 1.469c-.026 0-.052 0-.078 0zm8.275 2.73h-5.421c.035.5027.265.91.689 1.222.425.3033.91.455 1.456.455.867 0 1.526-.273 1.976-.819l.832.91c-.745.7713-1.716 1.157-2.912 1.157-.97 0-1.798-.3207-2.483-.962-.676-.65-1.014-1.5167-1.014-2.6 0-1.092.347-1.9587 1.04-2.6.694-.6413 1.508-.962 2.444-.962.945 0 1.747.286 2.405.858.659.5633.988 1.3433.988 2.34zm-5.421-1.144h3.965c0-.5807-.182-1.027-.546-1.339s-.814-.468-1.352-.468c-.528 0-1.005.1647-1.43.494-.424.3207-.637.7583-.637 1.313z" fill="#62707b"/><path clip-rule="evenodd" d="m153.458 107.735c.669-.182 3.669-.736 6.665-1.227 4.657-.758 5.879-.837 8.606-.613 5.687.47 9.649 2.474 12.42 6.26 1.807 2.5 2.755 5.232 2.928 8.491.076 1.274.15 2.456.16 2.594.012.153.731-.519 1.57-1.461 2.518-2.811 3.109-3.088 4.085-1.99.344.388.354.697.044 1.264-.53.964-7.449 8.258-7.937 8.345-.651.117-1.417-.49-3.653-2.913-1.213-1.319-2.963-2.991-3.941-3.762-1.348-1.047-1.749-1.58-1.812-2.267-.05-.705.12-.952.786-1.15 1.041-.326 2.842.949 5.684 4.024 1.04 1.117 1.945 1.994 2.051 1.991.104-.019.206-.813.236-1.75.186-6.023-1.318-9.726-5.027-12.365-3.745-2.665-9.035-3.221-16.965-1.814-15.976 2.851-34.414 12.397-57.845 29.931-7.8483 5.862-8.6724 6.289-9.1103 4.614-.1078-.431-.0799-1.041.0961-1.336.3896-.722 9.8302-7.831 15.9192-12.012 15.838-10.849 32.197-19.137 45.04-22.854z" fill="#3675e0" fill-rule="evenodd"/><rect fill="#3675e0" height="27" rx="2.70587" width="124" x="20" y="188"/><path d="m44.5717 197.124h1.705l2.959 7.876h-1.639l-.66-1.881h-3.014l-.66 1.881h-1.639zm1.881 4.631-.693-1.98-.286-.946h-.088l-.286.946-.704 1.98zm5.9815 3.421c-.506 0-.968-.124-1.386-.374-.4107-.256-.737-.608-.979-1.056-.2347-.454-.352-.971-.352-1.551 0-.572.1173-1.085.352-1.54.242-.454.5683-.806.979-1.056.418-.256.88-.385 1.386-.385.3814 0 .7187.085 1.012.253.2934.162.517.363.671.605h.088l-.088-.792v-2.156h1.43v7.876h-1.342v-.671h-.088c-.1466.242-.3703.444-.671.605-.2933.162-.6306.242-1.012.242zm.242-1.331c.2713 0 .5244-.069.759-.209.2347-.139.4217-.333.561-.583.1394-.249.209-.535.209-.858 0-.322-.0696-.608-.209-.858-.1393-.249-.3263-.44-.561-.572-.2346-.139-.4877-.209-.759-.209-.264 0-.5133.07-.748.209-.2346.132-.4216.323-.561.572-.1393.25-.209.536-.209.858 0 .323.0697.609.209.858.1394.25.3264.444.561.583.2347.14.484.209.748.209zm6.7289 1.331c-.506 0-.968-.124-1.386-.374-.4107-.256-.737-.608-.979-1.056-.2347-.454-.352-.971-.352-1.551 0-.572.1173-1.085.352-1.54.242-.454.5683-.806.979-1.056.418-.256.88-.385 1.386-.385.3813 0 .7187.085 1.012.253.2933.162.517.363.671.605h.088l-.088-.792v-2.156h1.43v7.876h-1.342v-.671h-.088c-.1467.242-.3703.444-.671.605-.2933.162-.6307.242-1.012.242zm.242-1.331c.2713 0 .5243-.069.759-.209.2347-.139.4217-.333.561-.583.1393-.249.209-.535.209-.858 0-.322-.0697-.608-.209-.858-.1393-.249-.3263-.44-.561-.572-.2347-.139-.4877-.209-.759-.209-.264 0-.5133.07-.748.209-.2347.132-.4217.323-.561.572-.1393.25-.209.536-.209.858 0 .323.0697.609.209.858.1393.25.3263.444.561.583.2347.14.484.209.748.209zm9.4789 1.243c-.2787 0-.5353-.04-.77-.121-.2347-.088-.4253-.205-.572-.352-.3447-.33-.517-.799-.517-1.408v-2.585h-.979v-1.232h.979v-1.584h1.441v1.584h1.375v1.232h-1.375v2.321c0 .286.0623.492.187.616.1027.118.2787.176.528.176.1393 0 .253-.018.341-.055.0953-.036.2163-.099.363-.187v1.408c-.3153.125-.649.187-1.001.187zm4.7314.088c-.5793 0-1.0963-.128-1.551-.385-.4546-.264-.8103-.619-1.067-1.067-.2493-.454-.374-.964-.374-1.529 0-.557.1247-1.063.374-1.518.2567-.454.6124-.81 1.067-1.067.4547-.264.9717-.396 1.551-.396.572 0 1.0854.132 1.54.396.4547.257.8067.613 1.056 1.067.2567.455.385.961.385 1.518 0 .565-.1283 1.075-.385 1.529-.2493.448-.6013.803-1.056 1.067-.4546.257-.968.385-1.54.385zm0-1.331c.2787 0 .5354-.066.77-.198.2347-.132.4217-.322.561-.572.1394-.249.209-.542.209-.88 0-.33-.0696-.619-.209-.869-.1393-.249-.3263-.44-.561-.572-.2346-.132-.4913-.198-.77-.198-.2786 0-.5353.066-.77.198-.2346.132-.4253.323-.572.572-.1393.25-.209.539-.209.869s.0697.624.209.88c.1467.25.3374.44.572.572.2347.132.4914.198.77.198zm10.5442 1.331c-.7627 0-1.4593-.179-2.09-.539-.6307-.366-1.1293-.861-1.496-1.485-.3593-.63-.539-1.327-.539-2.09 0-.762.1797-1.455.539-2.079.3667-.63.8653-1.125 1.496-1.485.6307-.366 1.3273-.55 2.09-.55 1.188 0 2.1707.429 2.948 1.287l-1.045 1.012c-.506-.594-1.1367-.891-1.892-.891-.4913 0-.9387.114-1.342.341-.4033.22-.7223.536-.957.946-.2273.411-.341.884-.341 1.419 0 .536.1137 1.009.341 1.419.2347.411.5537.73.957.957.4033.22.8507.33 1.342.33.8287 0 1.5217-.344 2.079-1.034l1.056 1.001c-.3887.47-.8507.829-1.386 1.078-.528.242-1.1147.363-1.76.363zm4.3007-8.052h1.441v1.991l-.088.979h.088c.1614-.264.396-.476.704-.638.308-.161.6417-.242 1.001-.242.682 0 1.2027.206 1.562.616.3667.404.55.965.55 1.683v3.487h-1.441v-3.311c0-.359-.099-.638-.297-.836-.1906-.198-.4473-.297-.77-.297-.3813 0-.6966.154-.946.462-.242.308-.363.686-.363 1.133v2.849h-1.441zm6.7024 2.266h1.353v.748h.088c.1393-.264.3556-.48.649-.649.2933-.176.616-.264.968-.264.2566 0 .4913.041.704.121v1.441c-.198-.073-.3667-.124-.506-.154-.132-.036-.275-.055-.429-.055-.4254 0-.7627.154-1.012.462-.2494.308-.374.697-.374 1.166v2.794h-1.441zm7.1303 5.786c-.579 0-1.096-.128-1.551-.385-.455-.264-.81-.619-1.0668-1.067-.2494-.454-.374-.964-.374-1.529 0-.557.1246-1.063.374-1.518.2568-.454.6118-.81 1.0668-1.067.455-.264.972-.396 1.551-.396.572 0 1.085.132 1.54.396.455.257.807.613 1.056 1.067.257.455.385.961.385 1.518 0 .565-.128 1.075-.385 1.529-.249.448-.601.803-1.056 1.067-.455.257-.968.385-1.54.385zm0-1.331c.279 0 .535-.066.77-.198s.422-.322.561-.572c.139-.249.209-.542.209-.88 0-.33-.07-.619-.209-.869-.139-.249-.326-.44-.561-.572s-.491-.198-.77-.198-.535.066-.77.198-.425.323-.572.572c-.139.25-.209.539-.209.869s.07.624.209.88c.147.25.337.44.572.572s.491.198.77.198zm4.061-4.455h1.353v.704h.088c.176-.271.411-.484.704-.638.301-.161.635-.242 1.001-.242.396 0 .741.096 1.034.286.294.184.503.418.627.704.184-.293.433-.531.748-.715.323-.183.701-.275 1.133-.275.638 0 1.122.198 1.452.594.338.389.506.917.506 1.584v3.608h-1.43v-3.344c0-.352-.084-.623-.253-.814-.161-.19-.388-.286-.682-.286-.374 0-.674.151-.902.451-.22.294-.33.682-.33 1.166v2.827h-1.441v-3.344c0-.352-.088-.623-.264-.814-.168-.19-.41-.286-.726-.286-.352 0-.638.151-.858.451-.212.294-.319.682-.319 1.166v2.827h-1.441zm12.737 5.786c-.557 0-1.06-.128-1.507-.385-.447-.256-.799-.608-1.056-1.056-.249-.454-.374-.964-.374-1.529 0-.535.125-1.03.374-1.485.249-.462.594-.828 1.034-1.1.44-.271.931-.407 1.474-.407.579 0 1.078.125 1.496.374.418.25.733.591.946 1.023.22.433.33.913.33 1.441 0 .169-.011.33-.033.484h-4.213c.073.448.249.789.528 1.023.286.228.627.341 1.023.341.33 0 .612-.069.847-.209.242-.146.433-.341.572-.583l1.166.572c-.572.998-1.441 1.496-2.607 1.496zm1.331-3.663c-.015-.176-.081-.348-.198-.517-.11-.176-.268-.319-.473-.429-.198-.117-.433-.176-.704-.176-.345 0-.642.103-.891.308-.242.198-.418.47-.528.814z" fill="#fff"/><rect fill="#fff" height="35" rx="3.50659" stroke="#979797" stroke-width=".518369" width="163" x="134" y="165.001"/><path d="m165.709 175.866h2.41l4.183 11.135h-2.317l-.933-2.66h-4.261l-.933 2.66h-2.317zm2.659 6.547-.98-2.799-.404-1.338h-.124l-.405 1.338-.995 2.799zm8.446 4.836c-.715 0-1.368-.176-1.959-.528-.581-.363-1.042-.861-1.384-1.493-.332-.643-.498-1.374-.498-2.193 0-.809.166-1.534.498-2.177.342-.643.803-1.14 1.384-1.493.591-.363 1.244-.544 1.959-.544.539 0 1.016.119 1.431.357.415.229.731.514.948.856h.125l-.125-1.12v-3.048h2.022v11.135h-1.897v-.949h-.125c-.207.342-.523.627-.948.855-.415.228-.892.342-1.431.342zm.342-1.881c.384 0 .742-.099 1.073-.296.332-.197.596-.471.793-.824.197-.352.296-.757.296-1.213s-.099-.86-.296-1.213c-.197-.352-.461-.622-.793-.809-.331-.196-.689-.295-1.073-.295-.373 0-.725.099-1.057.295-.332.187-.596.457-.793.809-.197.353-.296.757-.296 1.213s.099.861.296 1.213c.197.353.461.627.793.824s.684.296 1.057.296zm9.503 1.881c-.715 0-1.368-.176-1.959-.528-.581-.363-1.042-.861-1.384-1.493-.332-.643-.498-1.374-.498-2.193 0-.809.166-1.534.498-2.177.342-.643.803-1.14 1.384-1.493.591-.363 1.244-.544 1.959-.544.539 0 1.016.119 1.431.357.415.229.731.514.948.856h.125l-.125-1.12v-3.048h2.022v11.135h-1.897v-.949h-.125c-.207.342-.523.627-.948.855-.415.228-.892.342-1.431.342zm.342-1.881c.384 0 .742-.099 1.073-.296.332-.197.596-.471.793-.824.197-.352.296-.757.296-1.213s-.099-.86-.296-1.213c-.197-.352-.461-.622-.793-.809-.331-.196-.689-.295-1.073-.295-.373 0-.725.099-1.057.295-.332.187-.596.457-.793.809-.197.353-.296.757-.296 1.213s.099.861.296 1.213c.197.353.461.627.793.824s.684.296 1.057.296zm13.645 1.881c-.788 0-1.498-.181-2.13-.544-.633-.363-1.13-.86-1.493-1.493-.353-.643-.529-1.363-.529-2.161 0-.757.176-1.457.529-2.1.352-.653.84-1.171 1.462-1.555.622-.383 1.316-.575 2.083-.575.819 0 1.524.176 2.115.529.591.352 1.037.834 1.338 1.446.311.611.466 1.291.466 2.037 0 .238-.015.466-.046.684h-5.956c.103.633.352 1.115.746 1.446.404.322.886.483 1.446.483.467 0 .866-.099 1.198-.296.342-.207.611-.482.808-.824l1.649.809c-.809 1.409-2.037 2.114-3.686 2.114zm1.882-5.178c-.021-.249-.114-.492-.28-.731-.156-.249-.379-.451-.669-.606-.28-.166-.611-.249-.995-.249-.487 0-.907.145-1.26.435-.342.28-.591.664-.746 1.151zm5.446.902-2.736-3.903h2.41l1.508 2.27h.094l1.415-2.27h2.488l-2.784 3.903 2.784 4.028h-2.41l-1.524-2.317h-.094l-1.493 2.317h-2.41zm9.941 4.152c-.394 0-.757-.057-1.088-.171-.332-.124-.602-.29-.809-.498-.487-.466-.731-1.13-.731-1.99v-3.655h-1.384v-1.741h1.384v-2.24h2.037v2.24h1.944v1.741h-1.944v3.282c0 .404.088.694.265.87.145.166.394.249.746.249.197 0 .358-.026.482-.077.135-.052.306-.14.513-.265v1.991c-.445.176-.917.264-1.415.264zm6.601.124c-.788 0-1.498-.181-2.13-.544-.633-.363-1.13-.86-1.493-1.493-.352-.643-.529-1.363-.529-2.161 0-.757.177-1.457.529-2.1.352-.653.84-1.171 1.462-1.555.622-.383 1.316-.575 2.084-.575.819 0 1.524.176 2.115.529.591.352 1.036.834 1.337 1.446.311.611.467 1.291.467 2.037 0 .238-.016.466-.047.684h-5.956c.103.633.352 1.115.746 1.446.405.322.887.483 1.446.483.467 0 .866-.099 1.198-.296.342-.207.612-.482.809-.824l1.648.809c-.809 1.409-2.037 2.114-3.686 2.114zm1.882-5.178c-.021-.249-.114-.492-.28-.731-.155-.249-.378-.451-.669-.606-.279-.166-.611-.249-.995-.249-.487 0-.907.145-1.259.435-.343.28-.591.664-.747 1.151zm3.639-3.001h1.913v.995h.124c.239-.384.576-.684 1.011-.902.436-.228.907-.342 1.415-.342.954 0 1.68.29 2.177.871.498.58.747 1.373.747 2.379v4.93h-2.037v-4.681c0-.508-.13-.902-.389-1.182s-.622-.42-1.089-.42c-.549 0-.995.213-1.337.638-.332.425-.498.959-.498 1.601v4.044h-2.037zm12.361 8.179c-.964 0-1.747-.197-2.348-.59-.591-.394-1.006-.908-1.244-1.54l1.819-.793c.166.373.399.658.7.855.311.187.669.28 1.073.28.373 0 .684-.057.933-.171.249-.124.373-.321.373-.591 0-.259-.114-.451-.342-.575-.228-.135-.57-.254-1.026-.358l-.933-.202c-.643-.156-1.177-.436-1.602-.84-.425-.415-.638-.928-.638-1.539 0-.457.135-.866.405-1.229.279-.363.653-.643 1.119-.84.477-.197 1.001-.295 1.571-.295 1.638 0 2.732.575 3.281 1.726l-1.742.762c-.311-.56-.808-.84-1.492-.84-.353 0-.633.068-.84.202-.208.125-.311.285-.311.482 0 .374.352.654 1.057.84l1.167.28c.788.197 1.378.498 1.772.902.405.404.607.902.607 1.493 0 .508-.15.959-.451 1.353-.29.384-.695.684-1.213.902-.508.218-1.073.326-1.695.326zm6.02-9.05c-.363 0-.674-.13-.933-.389-.26-.259-.389-.57-.389-.933s.129-.669.389-.918c.259-.259.57-.388.933-.388.362 0 .668.129.917.388.259.249.389.555.389.918s-.13.674-.389.933c-.249.259-.555.389-.917.389zm-1.027.871h2.037v7.931h-2.037zm8.003 8.179c-.819 0-1.55-.181-2.193-.544-.643-.373-1.146-.876-1.509-1.508-.352-.643-.528-1.364-.528-2.162 0-.788.176-1.503.528-2.146.363-.643.866-1.146 1.509-1.508.643-.374 1.374-.56 2.193-.56.808 0 1.534.186 2.177.56.642.362 1.14.865 1.493 1.508.362.643.544 1.358.544 2.146 0 .798-.182 1.519-.544 2.162-.353.632-.851 1.135-1.493 1.508-.643.363-1.369.544-2.177.544zm0-1.881c.393 0 .756-.094 1.088-.28.332-.187.596-.456.793-.809.197-.352.296-.767.296-1.244 0-.466-.099-.876-.296-1.228-.197-.353-.461-.622-.793-.809s-.695-.28-1.088-.28c-.394 0-.757.093-1.089.28s-.601.456-.809.809c-.197.352-.295.762-.295 1.228 0 .467.098.881.295 1.244.208.353.477.622.809.809.332.186.695.28 1.089.28zm5.731-6.298h1.913v.995h.124c.239-.384.576-.684 1.011-.902.436-.228.907-.342 1.415-.342.954 0 1.68.29 2.177.871.498.58.747 1.373.747 2.379v4.93h-2.037v-4.681c0-.508-.13-.902-.389-1.182s-.622-.42-1.089-.42c-.549 0-.995.213-1.337.638-.332.425-.498.959-.498 1.601v4.044h-2.037z" fill="#3675e0"/><g fill="#62707b"><path d="m50.8812 170.977h-4.7734v5.023h-1.5v-11.375h7.0469v1.235h-5.5469v3.89h4.7734zm4.2141 5.023h-1.4453v-8.453h1.4453zm-1.5625-10.695c0-.234.0703-.432.2109-.594.1459-.161.3594-.242.6407-.242.2812 0 .4948.081.6406.242.1458.162.2187.36.2187.594s-.0729.43-.2187.586-.3594.234-.6406.234c-.2813 0-.4948-.078-.6407-.234-.1406-.156-.2109-.352-.2109-.586zm8.2688 3.539c-.2188-.036-.4558-.055-.711-.055-.9479 0-1.5911.404-1.9297 1.211v6h-1.4453v-8.453h1.4063l.0234.977c.474-.755 1.1458-1.133 2.0156-1.133.2813 0 .4948.037.6407.109zm6.5578 4.914c0-.39-.1485-.692-.4453-.906-.2917-.219-.8047-.406-1.5391-.563-.7292-.156-1.3099-.343-1.7422-.562-.4271-.219-.7448-.479-.9531-.781-.2031-.302-.3047-.662-.3047-1.078 0-.693.2917-1.279.875-1.758.5885-.479 1.3385-.719 2.25-.719.9583 0 1.7344.247 2.3281.742.599.495.8985 1.128.8985 1.899h-1.4532c0-.396-.1692-.737-.5078-1.024-.3333-.286-.7552-.429-1.2656-.429-.526 0-.9375.114-1.2344.343s-.4453.529-.4453.899c0 .349.138.612.4141.789.276.177.7734.346 1.4922.508.7239.161 1.3099.354 1.7578.578s.7786.495.9922.812c.2187.313.3281.696.3281 1.149 0 .755-.3021 1.362-.9063 1.82-.6041.453-1.388.68-2.3515.68-.6771 0-1.2761-.12-1.7969-.36-.5208-.239-.9297-.573-1.2266-1-.2916-.432-.4375-.898-.4375-1.398h1.4453c.0261.484.2188.87.5782 1.156.3646.281.8437.422 1.4375.422.5468 0 .9843-.109 1.3125-.328.3333-.224.5-.521.5-.891zm5.589-8.258v2.047h1.5782v1.117h-1.5782v5.243c0 .338.0703.593.211.765.1406.167.3802.25.7187.25.1667 0 .3959-.031.6875-.093v1.171c-.3802.105-.75.157-1.1094.157-.6458 0-1.1328-.196-1.4609-.586-.3281-.391-.4922-.946-.4922-1.664v-5.243h-1.539v-1.117h1.539v-2.047zm11.2328 9.477c.5157 0 .9662-.156 1.3516-.469.3854-.312.599-.703.6406-1.172h1.3672c-.026.485-.1927.946-.5 1.383-.3073.438-.7187.787-1.2344 1.047-.5104.26-1.052.391-1.625.391-1.151 0-2.0677-.383-2.75-1.149-.677-.771-1.0156-1.823-1.0156-3.156v-.242c0-.823.1511-1.555.4531-2.196.3021-.64.7344-1.138 1.2969-1.492.5677-.354 1.237-.531 2.0078-.531.948 0 1.7344.284 2.3594.852.6302.567.9662 1.304 1.0078 2.211h-1.3672c-.0416-.547-.25-.995-.625-1.344-.3698-.354-.8281-.531-1.375-.531-.7343 0-1.3047.265-1.7109.796-.401.526-.6016 1.289-.6016 2.289v.274c0 .974.2006 1.724.6016 2.25s.974.789 1.7187.789zm6.8547 1.023h-1.4453v-12h1.4453zm4.1907 0h-1.4454v-8.453h1.4454zm-1.5625-10.695c0-.234.0703-.432.2109-.594.1458-.161.3594-.242.6406-.242.2813 0 .4948.081.6406.242.1459.162.2188.36.2188.594s-.0729.43-.2188.586c-.1458.156-.3593.234-.6406.234-.2812 0-.4948-.078-.6406-.234-.1406-.156-.2109-.352-.2109-.586zm7.5729 9.672c.516 0 .967-.156 1.352-.469.385-.312.599-.703.641-1.172h1.367c-.026.485-.193.946-.5 1.383-.307.438-.719.787-1.235 1.047-.51.26-1.052.391-1.625.391-1.151 0-2.067-.383-2.7495-1.149-.6771-.771-1.0156-1.823-1.0156-3.156v-.242c0-.823.151-1.555.4531-2.196.3021-.64.7344-1.138 1.297-1.492.568-.354 1.237-.531 2.008-.531.948 0 1.734.284 2.359.852.63.567.966 1.304 1.008 2.211h-1.367c-.042-.547-.25-.995-.625-1.344-.37-.354-.828-.531-1.375-.531-.735 0-1.305.265-1.711.796-.401.526-.6018 1.289-.6018 2.289v.274c0 .974.2008 1.724.6018 2.25s.974.789 1.718.789zm7.644-2.891-.906.946v2.968h-1.445v-12h1.445v7.258l.773-.929 2.633-2.782h1.758l-3.289 3.532 3.672 4.921h-1.695zm6.003 3.157c0-.25.073-.459.219-.625.151-.167.375-.25.672-.25s.521.083.672.25c.156.166.234.375.234.625 0 .239-.078.44-.234.601-.151.162-.375.242-.672.242s-.521-.08-.672-.242c-.146-.161-.219-.362-.219-.601zm.008-6.899c0-.25.073-.458.219-.625.151-.166.375-.25.672-.25s.521.084.672.25c.156.167.234.375.234.625 0 .24-.078.44-.234.602-.151.161-.375.242-.672.242s-.521-.081-.672-.242c-.146-.162-.219-.362-.219-.602z"/><path d="m169.934 147.93c-1.286-.37-2.224-.823-2.812-1.359-.583-.542-.875-1.209-.875-2 0-.896.357-1.636 1.07-2.219.719-.588 1.651-.883 2.797-.883.781 0 1.477.151 2.086.453.615.302 1.089.719 1.422 1.25.338.532.508 1.112.508 1.743h-1.508c0-.688-.219-1.227-.656-1.618-.438-.395-1.055-.593-1.852-.593-.74 0-1.318.164-1.734.492-.412.323-.617.773-.617 1.351 0 .464.195.857.585 1.18.396.318 1.066.609 2.008.875.948.266 1.688.56 2.219.883.536.318.932.69 1.188 1.117.26.427.39.93.39 1.508 0 .922-.359 1.661-1.078 2.219-.719.552-1.68.828-2.883.828-.781 0-1.51-.149-2.187-.446-.677-.302-1.201-.713-1.571-1.234-.364-.521-.546-1.112-.546-1.773h1.507c0 .687.253 1.231.758 1.632.511.396 1.19.594 2.039.594.792 0 1.399-.161 1.821-.484.421-.323.632-.763.632-1.32 0-.558-.195-.987-.586-1.29-.39-.307-1.099-.609-2.125-.906zm9.73 5.227c-1.146 0-2.078-.375-2.797-1.125-.719-.755-1.078-1.763-1.078-3.024v-.265c0-.839.159-1.586.477-2.242.323-.662.77-1.178 1.343-1.547.579-.375 1.204-.563 1.875-.563 1.099 0 1.954.362 2.563 1.086s.914 1.76.914 3.109v.602h-5.727c.021.833.263 1.508.727 2.023.469.511 1.062.766 1.781.766.511 0 .943-.104 1.297-.312.354-.209.664-.485.93-.829l.883.688c-.709 1.088-1.771 1.633-3.188 1.633zm-.18-7.578c-.583 0-1.073.213-1.468.64-.396.422-.641 1.016-.735 1.782h4.235v-.11c-.042-.734-.24-1.302-.594-1.703-.354-.406-.833-.609-1.438-.609zm8.847 6.398c.516 0 .966-.156 1.352-.469.385-.312.599-.703.64-1.172h1.368c-.026.485-.193.946-.5 1.383-.308.438-.719.787-1.235 1.047-.51.261-1.052.391-1.625.391-1.151 0-2.067-.383-2.75-1.149-.677-.771-1.015-1.823-1.015-3.156v-.242c0-.823.151-1.555.453-2.195.302-.641.734-1.138 1.297-1.493.567-.354 1.237-.531 2.007-.531.948 0 1.735.284 2.36.852.63.567.966 1.304 1.008 2.211h-1.368c-.041-.547-.25-.995-.625-1.344-.369-.354-.828-.531-1.375-.531-.734 0-1.304.265-1.71.797-.402.526-.602 1.289-.602 2.289v.273c0 .974.2 1.724.602 2.25.401.526.973.789 1.718.789zm4.902-3.281c0-.828.161-1.573.484-2.235.328-.661.781-1.171 1.36-1.531.583-.359 1.247-.539 1.992-.539 1.151 0 2.08.399 2.789 1.195.713.797 1.07 1.857 1.07 3.18v.102c0 .823-.159 1.562-.476 2.218-.313.651-.763 1.159-1.352 1.524-.583.364-1.255.547-2.016.547-1.145 0-2.075-.399-2.789-1.196-.708-.796-1.062-1.851-1.062-3.164zm1.453.172c0 .937.216 1.69.648 2.258.438.567 1.021.851 1.75.851.735 0 1.318-.286 1.75-.859.433-.578.649-1.386.649-2.422 0-.927-.222-1.677-.664-2.25-.438-.578-1.021-.867-1.75-.867-.714 0-1.289.283-1.727.851-.437.568-.656 1.38-.656 2.438zm9.722-4.321.047 1.063c.646-.813 1.489-1.219 2.531-1.219 1.786 0 2.687 1.008 2.703 3.024v5.586h-1.445v-5.594c-.005-.61-.146-1.06-.422-1.352-.271-.291-.695-.437-1.274-.437-.468 0-.88.125-1.234.375s-.63.578-.828.984v6.024h-1.445v-8.454zm7.409 4.157c0-1.297.307-2.339.922-3.125.615-.792 1.419-1.188 2.414-1.188.99 0 1.774.339 2.352 1.016v-4.406h1.445v12h-1.328l-.07-.907c-.579.709-1.383 1.063-2.414 1.063-.98 0-1.779-.401-2.399-1.203-.615-.802-.922-1.849-.922-3.141zm1.446.164c0 .958.197 1.708.593 2.25.396.541.943.812 1.641.812.917 0 1.586-.411 2.008-1.234v-3.883c-.433-.797-1.097-1.195-1.992-1.195-.709 0-1.261.273-1.657.82s-.593 1.357-.593 2.43zm21.099.523c-.14 1.203-.585 2.133-1.335 2.789-.745.651-1.737.977-2.977.977-1.344 0-2.422-.482-3.234-1.446-.808-.963-1.211-2.252-1.211-3.867v-1.093c0-1.058.187-1.987.562-2.79.38-.802.917-1.416 1.61-1.843.692-.433 1.494-.649 2.406-.649 1.208 0 2.177.339 2.906 1.016.729.672 1.154 1.604 1.273 2.797h-1.507c-.131-.906-.414-1.563-.852-1.969-.432-.406-1.039-.609-1.82-.609-.959 0-1.711.354-2.258 1.062-.542.708-.813 1.716-.813 3.024v1.101c0 1.235.258 2.216.774 2.945.516.73 1.237 1.094 2.164 1.094.833 0 1.471-.187 1.914-.562.448-.381.745-1.039.891-1.977zm3.699 3.61h-1.445v-12h1.445zm4.191 0h-1.446v-8.454h1.446zm-1.563-10.696c0-.234.07-.432.211-.594.146-.161.359-.242.641-.242.281 0 .494.081.64.242.146.162.219.36.219.594 0 .235-.073.43-.219.586s-.359.235-.64.235c-.282 0-.495-.079-.641-.235-.141-.156-.211-.351-.211-.586zm7.573 9.672c.516 0 .967-.156 1.352-.469.385-.312.599-.703.641-1.172h1.367c-.026.485-.193.946-.5 1.383-.307.438-.719.787-1.235 1.047-.51.261-1.052.391-1.625.391-1.151 0-2.067-.383-2.75-1.149-.677-.771-1.015-1.823-1.015-3.156v-.242c0-.823.151-1.555.453-2.195.302-.641.734-1.138 1.297-1.493.568-.354 1.237-.531 2.008-.531.948 0 1.734.284 2.359.852.63.567.966 1.304 1.008 2.211h-1.367c-.042-.547-.25-.995-.625-1.344-.37-.354-.828-.531-1.375-.531-.735 0-1.305.265-1.711.797-.401.526-.602 1.289-.602 2.289v.273c0 .974.201 1.724.602 2.25s.974.789 1.718.789zm7.644-2.891-.906.946v2.969h-1.445v-12h1.445v7.257l.773-.929 2.633-2.782h1.758l-3.289 3.532 3.672 4.922h-1.695zm6.003 3.157c0-.25.073-.459.219-.625.151-.167.375-.25.672-.25s.521.083.672.25c.156.166.234.375.234.625 0 .239-.078.44-.234.601-.151.162-.375.242-.672.242s-.521-.08-.672-.242c-.146-.161-.219-.362-.219-.601zm.008-6.899c0-.25.073-.458.219-.625.151-.166.375-.25.672-.25s.521.084.672.25c.156.167.234.375.234.625 0 .24-.078.44-.234.602-.151.161-.375.242-.672.242s-.521-.081-.672-.242c-.146-.162-.219-.362-.219-.602z"/></g></svg>