<svg fill="none" height="476" viewBox="0 0 1942 476" width="1942" xmlns="http://www.w3.org/2000/svg"><g fill="#8f8f8f" opacity=".1"><g clip-rule="evenodd" fill-rule="evenodd"><path d="m1614.5 421.709v-2.623c4.4-.663 4.71 2.735 4.72 2.903 0 .006 0 .008 0 .006v9.754c-.69 3.993-4.72 2.795-4.72 2.795v-2.795c1.15-.114 1.09-1.198 1.09-1.198v-7.473c0-1.369-1.09-1.369-1.09-1.369zm-4.33-2.622v24.471h3.69v-24.414zm104.56 5.418c.17.228.29.456.29.741s-.12.514-.29.742-.46.285-.75.285-.52-.114-.75-.285c-.23-.228-.29-.457-.29-.742s.12-.513.29-.741c.18-.228.46-.286.75-.286s.52.115.75.286zm.12-.114c-.23-.229-.52-.343-.87-.343-.34 0-.63.114-.86.343-.23.228-.35.513-.35.855s.12.628.35.856.52.342.86.342c.35 0 .64-.114.87-.399.23-.228.34-.514.34-.856 0-.228-.11-.57-.34-.798zm-.7.798c-.05.057-.11.057-.23.057h-.23v-.456h.18c.11 0 .23 0 .28.057.06.057.06.114.06.171.12.114.06.171-.06.171zm-.63.742h.23v-.514h.17c.12 0 .23 0 .29.057s.12.172.12.286v.114.057h.23v-.057-.114-.114c0-.058 0-.115-.06-.229-.06-.057-.11-.114-.23-.114.12 0 .17-.057.17-.057.12-.057.12-.171.12-.285 0-.171-.06-.285-.23-.342-.06-.057-.18-.057-.35-.057h-.46zm-93.43-3.081h3.63v-3.365h-3.63zm3.63 20.707h-3.63v-19.566h3.63zm30.38-20.707h3.63v-3.365h-3.63zm3.63 20.707h-3.63v-19.566h3.63zm.75 0h3.63v-19.566h-3.63zm35.33 0h-3.63v-19.566h3.63zm-21.67 4.164h3.34v-23.73h-3.34zm-35.05-4.164h-3.63v-19.566h3.63zm-8.76-19.737v20.136s-3.46-.285-3.46-3.423v-13.804c0-.057.23-3.251 3.46-2.909zm.63 2.51v-2.51c3.35-.171 3.52 2.852 3.52 2.852v7.473h-3.57v-2.453c.4-.057.46-.571.46-.571v-4.164c0-.513-.41-.627-.41-.627zm.23 9.412h3.29v5.305s.06 2.966-3.69 2.909v-2.453s.4-.114.4-1.027zm8.48-9.469v-2.168c3.69-1.369 3.63 2.054 3.57 2.054v8.043h-3.11v-6.446c0-1.654-.46-1.483-.46-1.483zm8.07-7.074s.52 3.08-2.19 4.849v3.365h2.13v16.2h3.75v-24.414zm16.89 4.849v2.282s.69.057.69 1.312v15.914h3.46v-17.454s-.18-3.138-4.15-2.054zm5.36 3.88c-.06-1.426-.64-1.711-.64-1.711-.04-.84-.3-1.44-.38-1.641-.02-.059-.03-.084-.02-.071 1.9-1.312 3.11-.855 3.8 0 .64.856.69 1.997.69 1.997v17.055h-3.45zm8.12-3.651v1.939s.69 0 .69 1.198v12.721s.12.855-.69 1.483v1.54s1.56.855 2.88.171c1.33-.742 1.16-2.282 1.16-2.282v-14.032c.05-.057.23-4.392-4.04-2.738zm7.73-.457h1.09v1.997c-.4 0-.52.627-.52.627v13.804c0 .97.52 1.255.52 1.255v2.111h-1.44c-2.3-.399-2.3-3.194-2.3-3.194v-13.063c0-3.48 2.65-3.537 2.65-3.537zm1.73 0h1.09s2.65.057 2.65 3.537v13.063s0 2.795-2.3 3.194h-1.44v-2.111s.52-.285.52-1.255v-13.804s-.12-.627-.58-.627zm8.87 2.396v-2.11c3.58-1.255 3.63 2.224 3.58 2.167v7.872h-3.12v-7.016c0-.685-.46-.913-.46-.913zm4.73-5.248v3.08h-.69v2.51h.69v13.918s-.17 2.225 1.44 2.909c1.61.685 3-.057 3-.057v-2.338s-1.1-.229-1.1-.856v-13.519h.81v-2.624h-.69v-3.023zm4.78 5.989c0-3.536 3.63-3.308 3.63-3.308l.06 1.768c-.23.114-.29.571-.29.571v3.08c0 1.255.46 2.053 2.37 3.422 1.9 1.369 2.07 3.423 2.07 3.423v5.02c-.52 3.365-3.69 2.624-3.69 2.624v-1.712c.23-.114.29-1.14.29-1.14v-3.822c0-.799-.4-1.426-.4-1.426s-2.14-2.168-3.06-2.909c-.92-.742-.98-1.712-.98-1.712zm4.09-3.308v1.882s.24.286.24.913v3.993h3.45v-4.05s-.01-.035-.02-.096v-.001c-.09-.485-.49-2.641-3.67-2.641zm-4.15 16.998v-5.19h3.35v5.133c0 .97.23 1.255.23 1.255v1.769c-3.98 0-3.58-2.967-3.58-2.967z"/><path d="m1600.61 358.855c1.54-1.859 2.29-4.202 2.29-6.953 0-2.305-.6-4.239-1.8-5.763-1.16-1.562-2.67-2.305-4.47-2.305-2.29 0-4.17.929-5.71 2.788s-2.29 4.202-2.29 6.99c0 2.343.6 4.276 1.8 5.763 1.17 1.525 2.67 2.305 4.51 2.305 2.25 0 4.13-.966 5.67-2.825zm-14.69-19.855v12.79c.6-2.008 1.73-3.829 3.46-5.465 2.63-2.454 5.67-3.681 9.24-3.681 2.22 0 3.98.706 5.37 2.156 1.36 1.45 2.07 3.309 2.07 5.652 0 3.346-1.32 6.246-3.95 8.7-1.54 1.45-3.23 2.454-5.1 3.049h12.36v-23.201zm33.59 7.399c-4.17 0-6.05 3.458-6.05 6.804 0 3.309 1.88 6.804 6.05 6.804s6.05-3.457 6.05-6.804c0-3.309-1.92-6.804-6.05-6.804zm0 11.749c-3.16 0-3.79-3.197-3.79-4.945 0-1.747.63-4.945 3.79-4.945s3.79 3.198 3.79 4.945c0 1.748-.67 4.945-3.79 4.945zm12.74-.892h-.04l-3.38-10.485h-2.56l4.74 12.902h2.33l4.96-12.902h-2.41zm12.88-10.857c-4.32 0-6.23 3.198-6.23 7.176 0 3.718 2.18 6.47 5.82 6.47 2.1 0 2.93-.484 3.53-.893 1.65-1.078 2.26-2.9 2.33-3.532h-2.18c-.07.967-1.28 2.528-3.38 2.528-2.52 0-3.79-1.561-3.79-4.238h9.5c0-4.536-1.84-7.511-5.6-7.511zm-3.9 5.8c0-2.007 1.57-3.829 3.6-3.829 2.67 0 3.5 1.859 3.65 3.829zm14.16-3.272h-.04v-2.156h-2.06v12.902h2.17v-7.511c0-1.859 1.28-3.458 3.35-3.458h.82v-2.23c-.03-.007-.06-.014-.09-.021-.14-.029-.26-.054-.47-.054-1.65 0-2.82 1.004-3.68 2.528zm12.02 3.421-2.18-.558c-1.69-.409-2.36-.669-2.36-1.71 0-1.599 1.91-1.822 2.59-1.822 2.78 0 3.08 1.339 3.08 2.157h2.1c0-.632-.34-4.053-4.99-4.053-2.56 0-4.93 1.264-4.93 4.127 0 1.785 1.21 2.677 3.01 3.123l2.55.632c1.88.484 2.6.818 2.6 1.859 0 1.413-1.43 2.045-3.01 2.045-3.08 0-3.38-1.636-3.45-2.64h-2.11c.08 1.562.45 4.499 5.6 4.499 2.93 0 5.15-1.598 5.15-4.275.03-1.711-.94-2.715-3.65-3.384zm8.87-9.184h-2.18v3.607h-1.77v1.785h1.77v8.514c0 1.562.49 2.751 2.63 2.751.11 0 .33-.028.62-.066.29-.037.64-.083 1.03-.119v-1.674h-.79c-.45 0-1.31 0-1.31-1.003v-8.403h2.1v-1.785h-2.1zm9.43 3.235c-4.17 0-6.05 3.458-6.05 6.804 0 3.309 1.88 6.804 6.05 6.804s6.05-3.457 6.05-6.804c0-3.309-1.92-6.804-6.05-6.804zm0 11.749c-3.16 0-3.8-3.197-3.8-4.945 0-1.747.64-4.945 3.8-4.945 3.15 0 3.79 3.198 3.79 4.945 0 1.748-.67 4.945-3.79 4.945zm13.97-9.815c1.85 0 2.82 1.041 3.09 2.751h2.1c-.19-2.231-1.47-4.722-4.88-4.722-4.33 0-6.24 3.198-6.24 7.176 0 3.718 2.18 6.469 5.82 6.469 3.8 0 5.07-2.9 5.3-4.945h-2.1c-.38 1.971-1.66 3.049-3.12 3.049-3.01 0-3.57-2.751-3.57-4.945 0-2.268.86-4.833 3.6-4.833zm17.81-1.562h-2.78l-5.6 5.466v-10.262h-2.1v17.698h2.1v-4.908l1.81-1.636 4.06 6.507h2.81l-5.26-8.069zm2.22 10.262h2.55v2.64h-2.55zm15.63-5.912c-.19-1.71-.75-2.937-1.65-3.644-.91-.706-2.11-1.078-3.65-1.004-1.73 0-3.12.632-4.24 1.896-1.09 1.265-1.66 3.012-1.66 5.28 0 1.859.49 3.384 1.51 4.611 1.01 1.227 2.36 1.859 4.05 1.859 1.51 0 2.75-.409 3.72-1.19.98-.781 1.62-2.045 1.84-3.755h-2.14c-.19.929-.56 1.673-1.09 2.23-.52.558-1.24.818-2.14.818-1.16 0-2.03-.446-2.59-1.338-.57-.892-.83-1.971-.83-3.272s.23-2.38.6-3.235c.6-1.338 1.62-2.008 3.01-2.008 1.01 0 1.76.261 2.22.781.48.521.78 1.19.9 1.971zm12.13-3.048c1.17 1.115 1.73 2.714 1.73 4.87 0 2.082-.49 3.793-1.5 5.131-1.02 1.339-2.59 2.045-4.74 2.045-1.76 0-3.19-.595-4.24-1.785-1.05-1.189-1.58-2.788-1.58-4.833 0-2.157.57-3.867 1.65-5.168 1.09-1.264 2.6-1.934 4.44-1.934 1.69 0 3.08.558 4.24 1.674zm-1.35 8.551c.53-1.078.79-2.305.79-3.606 0-1.19-.19-2.194-.56-2.938-.6-1.189-1.66-1.784-3.16-1.784-1.31 0-2.29.52-2.89 1.524s-.9 2.231-.9 3.644c0 1.375.3 2.528.9 3.42.6.893 1.54 1.376 2.85 1.376 1.43 0 2.41-.558 2.97-1.636zm7.44-9.853h-2.03v12.939h2.18v-6.842c0-1.673.34-2.825 1.01-3.458.68-.632 1.43-.966 2.26-.966.9 0 1.5.297 1.84.892.19.372.3 1.041.3 1.896v8.403h2.22v-7.473c0-1.339.33-2.305.94-2.863.6-.558 1.35-.855 2.21-.855.6 0 1.13.148 1.58.483.41.335.64.93.64 1.785v8.923h2.25v-8.589c0-1.152-.18-2.045-.52-2.714-.64-1.227-1.81-1.859-3.57-1.859-.83 0-1.58.149-2.22.483-.67.335-1.24.818-1.73 1.525-.3-.558-.64-.967-.97-1.264-.64-.484-1.47-.744-2.52-.744-.9 0-1.73.26-2.44.744-.45.297-.9.743-1.43 1.375zm16.91-.297c.41 0 .75-.112 1.05-.409.3-.298.45-.632.45-1.116 0-.409-.15-.743-.45-1.041-.27-.297-.64-.446-1.05-.446-.42 0-.76.149-1.06.409-.33.26-.48.632-.48 1.078s.15.781.45 1.078c.3.298.67.447 1.09.447zm-1.28-1.488c0-.334.15-.595.37-.855.23-.26.53-.372.87-.372s.6.112.86.372c.27.223.38.521.38.855 0 .372-.15.632-.38.893-.22.26-.52.371-.86.371s-.64-.111-.87-.371c-.26-.261-.37-.558-.37-.893zm.6-.855v1.673.037h.38v-.594h.07.11c.05 0 .08.012.1.023.02.007.04.014.05.014.04 0 .08.037.12.111.03 0 .03.075.03.186 0 .071.02.127.03.168.01.023.01.042.01.055h.41v-.037-.037-.037-.186c0-.186-.03-.298-.15-.372-.02-.056-.07-.07-.15-.089-.02-.007-.04-.013-.07-.022.11 0 .22-.038.3-.112.07-.074.11-.149.11-.297 0-.186-.07-.335-.22-.409-.02-.007-.04-.013-.06-.019-.08-.03-.16-.056-.28-.056h-.34zm.53.335c.11 0 .18 0 .26.037.11.037.11.112.11.186s0 .149-.07.186c-.04.037-.12.074-.23.074h-.19v-.483z"/><path d="m1728.35 147.559c0 5.838-14.47 10.56-32.31 10.56-17.85 0-32.35-4.722-32.31-10.56 0-5.837 14.46-10.559 32.31-10.559 17.84 0 32.31 4.722 32.31 10.559zm-47.04-4.015h-2.18v8.217h4.13v-1.45h-1.95zm3.38 0h2.33c2.67 0 3.95 1.562 3.95 3.978 0 2.343-1.02 4.239-3.65 4.239h-2.63zm2.14 6.767h.23c1.5 0 1.5-1.785 1.5-2.863 0-.93-.15-2.454-1.58-2.454h-.15zm9.17-6.767h-1.99v8.217h1.92v-5.28h.03l2.56 5.28h1.91v-8.217h-1.91v5.094h-.04zm7.55 0h2.86l1.99 8.217h-2.33l-.26-1.673h-1.69l-.27 1.673h-2.29zm.79 5.094h1.2l-.56-3.347h-.08zm6.35-5.094h-2.25l1.99 8.217h2.18l1.99-8.217h-2.26l-.79 4.722h-.07zm6.8 4.127-2.14-4.127h2.14l1.09 2.417 1.32-2.417h1.91l-2.14 4.127v4.09h-2.18zm-46.29 0c0-2.119.79-4.275 3.35-4.275 2.55 0 3.34 2.156 3.34 4.275 0 2.12-.79 4.276-3.34 4.276-2.56 0-3.35-2.194-3.35-4.276zm2-.037c0 1.339.33 2.714 1.35 2.714 1.01 0 1.35-1.375 1.35-2.714 0-1.338-.34-2.714-1.35-2.714-1.05 0-1.35 1.376-1.35 2.714z"/><path d="m189.903 271.559c0 5.838-14.464 10.56-32.31 10.56s-32.348-4.722-32.31-10.56c0-5.837 14.464-10.559 32.31-10.559s32.31 4.722 32.31 10.559zm-47.037-4.015h-2.179v8.217h4.132v-1.45h-1.953zm3.381 0h2.33c2.667 0 3.944 1.562 3.944 3.978 0 2.343-1.014 4.239-3.644 4.239h-2.63zm2.142 6.767h.225c1.503 0 1.503-1.785 1.503-2.863 0-.93-.15-2.454-1.578-2.454h-.15zm9.167-6.767h-1.992v8.217h1.916v-5.28h.038l2.555 5.28h1.916v-8.217h-1.916v5.094h-.038zm7.551 0h2.856l1.991 8.217h-2.329l-.263-1.673h-1.691l-.263 1.673h-2.292zm.789 5.094h1.203l-.564-3.347h-.075zm6.349-5.094h-2.254l1.991 8.217h2.179l1.992-8.217h-2.255l-.789 4.722h-.075zm6.801 4.127-2.141-4.127h2.141l1.09 2.417 1.315-2.417h1.916l-2.142 4.127v4.09h-2.179zm-46.287 0c0-2.119.789-4.275 3.344-4.275 2.554 0 3.343 2.156 3.343 4.275 0 2.12-.789 4.276-3.343 4.276-2.555 0-3.344-2.194-3.344-4.276zm1.991-.037c0 1.339.338 2.714 1.353 2.714 1.014 0 1.352-1.375 1.352-2.714 0-1.338-.338-2.714-1.352-2.714-1.052 0-1.353 1.376-1.353 2.714z"/><path d="m1817.6 237.324c0 3.668.19 5.365.35 6.749l.02.228c-1.54-.154-5.59-.21-7.5 0 .05-.945.11-1.893.17-2.843.18-2.938.36-5.892.36-8.814l-.05-14.198c0-1.821-.05-3.548-.1-5.456l-.01-.196h-2.66c-.48 0-5.59.107-8.3.358.16-.608.27-3.457.11-4.068 4.12.252 9.76.252 13.84.252h.25c4.42 0 9.16-.081 14.27-.336-.16.867-.21 3.333-.05 4.152-3.14-.304-6.92-.358-10.59-.358v.071.001c-.06 1.812-.11 3.722-.11 5.629zm-66.43-24.199c-.16 3.88-.16 8.787-.16 13.179v.001c0 8.128.1 9.968 1.65 11.962 1.54 1.99 4.42 3.112 8.14 3.112 4.31 0 7.72-2.143 8.89-5.26.43-1.125.69-2.709.69-6.898 0-6.646-.05-13.34-.48-19.981.75.099 4.1.099 4.9 0l-.16 2.45c-.22 3.625-.37 11.414-.47 16.931-.02 1.175-.05 2.247-.06 3.154-.11 6.027-1.92 8.791-5.43 10.937-2.5 1.536-6.07 2.198-8.94 2.198-6.39 0-14.06-1.942-15.22-9.866-.11-.715-.11-2.248-.11-2.708v-13.9c0-2.603-.11-6.591-.27-9.196 1.23.151 6.12.151 7.19 0zm66.44 41.213c-.37-.021-1.64-.021-1.95 0-.23-.702-.49-1.42-.77-2.121-.49-.01-2.22-.01-2.61 0-.31.701-.56 1.407-.77 2.121-.18-.021-.87-.021-1.08 0 .54-1.148 2.23-4.835 3.2-7.195.14.018.7.018.85 0 .95 2.36 2.27 5.509 3.13 7.195zm-2.98-2.733c-.33-.84-.65-1.658-1-2.464-.39.806-.73 1.624-1.06 2.464zm-35.15-4.41c.06.908.09 1.705.09 2.866v1.411c0 1.156-.03 1.954-.09 2.866.17-.015 1.21-.009 2.01-.004.32.002.6.004.77.004 1.34 0 2.62-.592 2.62-2.072 0-1.249-1.33-1.705-2.02-1.74v-.018c.7-.103 1.83-.579 1.83-1.71 0-1.126-.92-1.603-2.27-1.603-.18 0-.48.002-.82.004h-.01c-.85.005-1.94.011-2.11-.004zm1.79.62c.15-.021.23-.031.56-.031.88 0 1.2.547 1.2 1.213 0 .878-.64 1.313-1.28 1.313h-.51c0-.174 0-.342 0-.513-.01-.175-.01-.353-.01-.542 0-.334.02-.863.04-1.35zm.16 3.091c.09-.002.18-.004.29-.004.9 0 1.39.477 1.39 1.439 0 .903-.58 1.405-1.24 1.405-.16 0-.29-.005-.42-.009-.07-.003-.13-.005-.2-.007 0-.156 0-.392-.01-.662v-.001-.001-.001c0-.36-.01-.78-.01-1.15 0-.233 0-.425.01-.599 0-.144 0-.276 0-.407.06 0 .13-.001.19-.003zm14.49-3.711c.07.908.09 1.705.09 2.866v1.411c0 1.156-.02 1.954-.09 2.866.25-.021 3.94-.008 4.35 0-.02-.121-.02-.767 0-.912-.66.071-1.32.063-1.97.055-.21-.002-.41-.005-.61-.005-.02-.411-.03-.771-.03-1.209 0-.223.01-.445.01-.667v-.001c0-.22 0-.44 0-.657.86 0 1.7.031 2.55.093-.03-.215-.04-.653 0-.89-.85.043-1.57.061-2.55.082 0-.267-.01-.523-.01-.776v-.001-.001c-.02-.463-.03-.916 0-1.404h.05c.41 0 1.74-.001 2.56.051-.02-.158-.02-.78 0-.901-.3.027-3.69.011-4.35 0zm30.6 3.093c-.01.4-.01.846-.01 1.462 0 1.945 1.49 2.724 3.41 2.724 2.18 0 3.32-.995 3.32-3.397 0-1.792.08-3.271.14-3.883-.19.029-.37.052-.56.052s-.38-.024-.57-.052c.05.954.09 1.896.09 2.849 0 1.925-.13 3.715-1.92 3.715-1.47 0-2.25-.414-2.25-2.939 0-1.203.01-2.28.15-3.625-.3.029-.61.052-.92.052-.3 0-.61-.024-.91-.052.02.342.04 1.035.04 2.131 0 .336 0 .634-.01.962zm18.53-1.406c0-.09.01-.177.01-.259 0-.275 0-.497-.03-.605-.43 0-1.39.016-2.07.086.04-.156.04-.756 0-.909 1.03.028 4.83.028 5.78 0-.04.153-.04.753 0 .909-.61-.07-1.57-.076-2.02-.076-.01.097-.01.264-.01.476.01.114.01.241.01.378v2.591c0 1.156.02 1.953.09 2.865-.25-.021-1.6-.021-1.85 0 .07-.912.09-1.709.09-2.865zm18.69-1.258c-.45.93-.97 1.996-1.49 2.675h-.02c-.32-.474-1.16-2.084-1.68-3.105-.34.021-1.67.021-2.01 0 .35.589 1.63 2.804 2.41 4.183v.162c.01.267.02.533.02.8 0 .385-.04.791-.07 1.197-.03.269-.05.538-.07.802.32-.021 1.6-.021 1.91 0-.1-.775-.11-1.482-.11-2.165 0-.17 0-.318.01-.465 0-.146 0-.292 0-.457.72-1.306 1.87-3.282 2.36-4.057-.19.021-.88.021-1.05 0-.04.066-.07.134-.1.202zm-81.11-31.619c.15 4.526.15 5.037.15 7.272v7.129c0 .706-.11 4.663-.21 8.181v.001c-.08 2.816-.16 5.35-.16 5.712 3.89-.208 6.76-.309 10.17-.309 2.44 0 6.11.147 8.82.256.48.019.93.037 1.34.053-.21-.668-.15-3.209 0-3.769-3.14.46-10.8.46-12.34.46h-.96c-.01-.667-.03-1.362-.05-2.083v-.001c-.05-2.306-.11-4.874-.11-7.587 0-7.837.16-14.25.53-21.93-1.33.201-6.07.251-7.4 0 .03.483.07 1.873.11 3.274.04 1.397.08 2.806.11 3.341zm64.15 17.325 2.23 5.375 2.23 5.63c.95-.051 7.26-.051 8.06 0-2.39-4.922-5.89-12.574-7.9-16.987-1.91-4.261-5.08-11.36-7.64-18.103h-3.46c-1.27 3.956-4.34 10.547-9.69 22.003l-6.16 13.087c.75-.104 4.25-.104 4.94 0 .84-2.895 2.55-7.102 4.24-11.005 2.12-.1 10.87-.1 13.15 0zm-11.93-3.142 5.41-12.48 4.99 12.48c-2.25.136-3.84.142-4.88.142-1.27 0-2.53-.043-3.79-.087-.57-.02-1.15-.039-1.73-.055zm-98.34-19.373c-8.29 5.565-13.16 12.563-13.16 21.113 0 19.407 23.68 33.752 57.44 33.752 15.13 0 27.77-3.872 37.14-8.647l-.58.007c-11.31 3.367-22.74 4.752-34.49 4.752-33.94 0-57.31-15.764-57.34-30.333-.02-8.082 3.79-15.057 10.99-20.156zm120.75.478c0-1.184-.97-2.085-2.12-2.085-1.16 0-2.14.901-2.14 2.085 0 1.205.98 2.107 2.14 2.107 1.15 0 2.12-.902 2.12-2.107zm-.38 0c0 1.025-.76 1.799-1.74 1.799-.99 0-1.75-.774-1.75-1.799 0-1.004.76-1.777 1.75-1.777.98 0 1.74.773 1.74 1.777zm-1.61-1.217h-.96v2.45h.39v-1.054h.4l.68 1.054h.41l-.71-1.082c.37-.04.65-.224.65-.667 0-.471-.27-.701-.86-.701zm-.17 1.087h-.4v-.779h.51c.26 0 .54.051.54.377 0 .387-.31.402-.65.402z"/><path d="m1079 366.522c-11.76 0-21.31 9.444-21.31 21.082 0 11.637 9.55 21.081 21.31 21.081s21.3-9.444 21.3-21.081c0-11.638-9.54-21.082-21.3-21.082zm31.93 21.082c0 17.475-14.31 31.604-31.93 31.604-17.66 0-31.94-14.166-31.94-31.604 0-17.475 14.32-31.604 31.94-31.604 17.65 0 31.93 14.129 31.93 31.604zm-31.94-10.82c-6.04 0-10.93 4.871-10.93 10.82 0 5.986 4.92 10.857 10.93 10.857 6.05 0 10.98-4.871 10.98-10.857s-4.93-10.82-10.98-10.82zm-32.31 49.897h3.54v9.444h2.59v-9.444h3.49v-2.157h-9.62zm8.5 9.444h2.59l.94-2.603h4.39l.9 2.603h2.67l-4.39-11.601h-2.63zm5.74-8.738 1.51 4.239h-3.05zm9.36 8.738h-2.59v-11.601h6.38c2.11 0 3.42 1.45 3.42 3.198 0 1.338-.52 2.38-1.84 2.9v.037c1.24.335 1.62 1.562 1.69 2.714.01.086.01.179.01.278.04.764.08 1.881.48 2.474h-2.59c-.22-.536-.28-1.266-.34-1.98-.02-.276-.04-.55-.08-.809-.18-1.227-.63-1.747-1.95-1.747h-2.59zm2.78-9.63h-2.82v3.235h2.82c1.13 0 1.76-.484 1.76-1.636 0-1.116-.6-1.599-1.76-1.599zm14.61 8.291c-.9 1.153-2.06 1.599-3.23 1.599-3.6 0-5.75-2.677-5.75-6.023 0-3.458 2.15-6.135 5.75-6.135 2.41 0 4.66 1.45 4.96 4.09h-2.48c-.3-1.264-1.28-1.933-2.48-1.933-2.29 0-3.19 1.933-3.19 3.978 0 1.933.86 3.867 3.19 3.867 1.69 0 2.63-.893 2.78-2.491h-2.59v-1.897h4.92v6.284h-1.65zm12.44-10.262h-8.79v11.601h8.9v-2.157h-6.31v-2.825h5.67v-1.971h-5.67v-2.491h6.2zm4.77 2.157h-3.49v-2.157h9.58v2.157h-3.5v9.444h-2.59zm6.73 6.953c0 .334-.27.371-.57.371h-.41v-.706h.49c.22 0 .49.037.49.335zm-1.36 1.673h.34v-.967h.41l.61.967h.37l-.64-1.004c.34-.037.6-.223.6-.632 0-.446-.3-.632-.82-.632h-.87zm2.41-1.153c0 .93-.72 1.636-1.62 1.636-.94 0-1.61-.669-1.61-1.636 0-.929.71-1.636 1.61-1.636s1.62.707 1.62 1.636zm-1.62-1.97c-1.09 0-2.03.855-2.03 1.97 0 1.153.94 1.971 2.03 1.971s2.03-.818 2.03-1.971c0-1.152-.94-1.97-2.03-1.97z"/><path d="m161.455 52.2161c7.01 6.7601 4.233 12.2347 3.046 13.9413-.224.3325-.672.4211-1.008.1995-6.249-4.189-4.256-11.2816-3.248-13.8748.202-.5098.829-.6428 1.21-.266zm6.45 14.2515c1.814.1995 7.167.0222 9.384-8.2229.112-.4433-.246-.8866-.694-.8201-2.397.3103-8.69 1.751-9.272 8.3338-.023.3768.224.6871.582.7092zm-.358 4.4553c1.03 1.0417 4.412 3.6792 9.966-.2438.291-.2217.291-.6649-.022-.8644-1.635-1.0417-6.249-3.369-9.966.3768-.18.1994-.157.5319.022.7314zm-6.742-2.5048c-.716-1.6845-3.493-6.3168-11.78-4.2334-.448.1108-.65.6428-.381 1.0196 1.456 1.9504 5.778 6.7822 11.825 4.056.336-.133.471-.5098.336-.8422zm-9.809 7.7577c3.942-5.2307 7.816-3.8122 9.048-3.1473.246.1108.336.4211.224.6428-2.307 4.5215-7.189 3.7457-9.003 3.2803-.336-.0887-.493-.4877-.269-.7758zm34.042 20.2358h-2.24c-.403 0-.739-.3325-.739-.7536v-17.1329c0-.4212.336-.7536.739-.7536h2.24c.403 0 .739.3324.739.7536v17.1329c0 .4211-.336.7536-.739.7536zm12.43-15.7363h3.83c.403 0 .739-.3325.761-.7314v-1.3964c0-.4211-.336-.7536-.739-.7536h-12.788c-.403 0-.739.3325-.739.7536v1.3742c0 .4211.336.7536.739.7536h3.74c.403 0 .739.3325.739.7536v14.2516c0 .4211.336.7535.739.7535h2.24c.403 0 .739-.3324.739-.7535v-14.2516c0-.4211.336-.7536.739-.7536zm10.817 8.799h2.173c.492 0 .851-.4876.716-.9752l-1.746-5.5854h-.068l-1.769 5.5854c-.157.4876.202.9752.694.9752zm3.561 2.9257h-4.927c-.336 0-.605.2216-.716.5319l-.919 2.97c-.089.3103-.38.532-.716.532h-2.307c-.515 0-.874-.5098-.694-.9753l5.755-17.1329c.112-.3103.381-.5098.695-.5098h2.754c.314 0 .605.1995.695.5098l5.733 17.1329c.157.4876-.202.9753-.694.9753h-2.307c-.314 0-.605-.1995-.717-.5098l-.94-2.97c-.09-.3547-.381-.5541-.695-.5541zm21.299-2.0834-.022-.0665v-.0222h-2.15c-.806 0-1.478.5763-1.657 1.352-.135.5541-.359 1.0196-.672 1.3521-.538.5984-1.367.8865-2.486.8865-1.187 0-2.106-.4433-2.755-1.352-.65-.9087-.985-2.0613-.985-3.5019v-3.7458c0-1.4185.313-2.571.94-3.4798.627-.9087 1.501-1.352 2.621-1.352 1.209 0 2.082.3103 2.665.8866.336.3324.582.7757.716 1.3298.202.7758.851 1.3299 1.658 1.3299h2.105l.022-.0665c.045-2.0169-.582-3.5684-1.859-4.6767-1.276-1.1082-3.045-1.6623-5.307-1.6623-2.173 0-3.92.7315-5.264 2.1721-1.321 1.4407-1.993 3.3025-1.993 5.5632v3.7015c0 2.2607.694 4.1225 2.061 5.5632 1.366 1.4407 3.18 2.1499 5.397 2.1499 2.195 0 3.919-.5541 5.151-1.6845 1.254-1.1303 1.859-2.6818 1.814-4.6766zm13.998-4.9205c0-1.4406-.314-2.4159-1.053-3.3468-.717-.9309-1.769-1.618-3.046-1.618-1.254 0-2.239.4655-2.934 1.3964-.694.9309-1.052 2.1278-1.052 3.5684v3.369c0 1.485.403 2.2164 1.097 3.1473.717.9309 1.657 1.8618 2.912 1.8618 1.276 0 2.262-.4654 2.978-1.3963.717-.9309 1.075-2.1278 1.075-3.6128v-3.369zm3.695 3.3912c0 2.2829-.717 4.189-2.15 5.674s-3.315 2.2386-5.621 2.2386c-2.307 0-4.166-.7536-5.599-2.2386-1.434-1.485-2.15-3.3911-2.15-5.674v-3.369c0-2.2829.716-4.1669 2.127-5.6519 1.434-1.5071 3.292-2.2386 5.577-2.2386 2.307 0 4.188.7536 5.621 2.2386 1.456 1.5072 2.173 3.3911 2.173 5.6519v3.369zm11.915 1.0417c.493.4433.739 1.0195.739 1.7288 0 .6871-.269 1.2633-.784 1.6623-.537.4211-1.299.6206-2.284.6206-1.098 0-1.971-.266-2.621-.7758-.425-.3546-.694-.7979-.851-1.3963-.157-.6206-.739-1.0417-1.366-1.0417h-2.374l-.022.0665c-.045 1.9726.649 3.4576 2.082 4.455 1.434.9974 3.158 1.5072 5.152 1.5072 2.038 0 3.695-.4433 4.927-1.3742 1.232-.9088 1.859-2.1721 1.859-3.7679 0-1.5294-.538-2.7706-1.613-3.7015s-2.643-1.6844-4.681-2.2607c-1.343-.4433-2.284-.8866-2.822-1.2855-.537-.399-.806-.9309-.806-1.5515 0-.6871.269-1.2634.762-1.7067.492-.4433 1.209-.6649 2.127-.6649 1.008 0 1.792.2438 2.352.7536.336.2881.582.6649.717 1.1303.179.5985.694 1.0196 1.298 1.0196h2.486l.023-.0665c.045-1.6845-.56-3.0587-1.814-4.1004s-2.912-1.5515-4.972-1.5515c-1.949 0-3.539.4876-4.793 1.4629-1.254.9752-1.881 2.2164-1.881 3.7457 0 1.5072.537 2.7041 1.657 3.5906 1.12.8644 2.732 1.6402 4.882 2.2829 1.255.3768 2.128.7758 2.621 1.2191zm19.417-9.1537h-3.83c-.403 0-.739.3325-.739.7536v14.2516c0 .4211-.336.7535-.739.7535h-2.239c-.403 0-.739-.3324-.739-.7535v-14.2516c0-.4211-.336-.7536-.739-.7536h-3.741c-.403 0-.739-.3325-.739-.7536v-1.3742c0-.4211.336-.7536.739-.7536h12.789c.403 0 .739.3325.739.7536v1.3964c-.023.3989-.359.7314-.762.7314zm-114.971 4.0994c.087.2616.16.4791.213.6437l.09.1551c.067.4433.672 3.5684 2.642 5.7405.314.3547.874.266 1.053-.1773.633-1.5551 2.037-4.9886 3.421-8.3752 1.458-3.5641 2.894-7.0762 3.387-8.2923.112-.2659.381-.4433.672-.4433h1.478c.628 0 1.053.6428.807 1.2191l-8.623 20.4797c-.134.3103-.448.532-.806.532h-1.501c-.291 0-.56-.1552-.694-.399-.784-1.485-3.426-6.5384-3.65-7.0926-.667-1.5603-.948-2.7829-1.233-4.0269-.291-1.2653-.587-2.5528-1.298-4.2403l-.023-.0443c-.828-1.8397-1.679-2.6154-2.239-2.9479-.09-.0665-.023-.2216.089-.1995 1.143.2882 2.083 1.4629 2.598 2.2608.068.0887.202.0222.179-.0887-.828-2.7926-1.119-5.0756-.783-6.5827.448-2.0835-.247-3.1474-.829-3.6571-.09-.0665-.022-.2217.09-.1773.604.2216 1.455.6206 1.858 1.2633.045.0665.135.0665.18 0 .47-.9087 1.791-2.7483 3.113-3.4354.112-.0665.201.0665.134.1551-.761.8423-2.687 3.1473-2.956 5.1421v.0665c0 .1342-.017.2603-.035.398-.011.0896-.024.1842-.032.2891-.284 2.8679 1.871 9.3469 2.698 11.8348z"/><path d="m1548.92 83h-3.07l-3.63 17.111h2.99l1.37-6.2369 3.07 6.2369h3.48l-3.56-6.3968 5.66-5.3571h-3.96l-4.37 4.3177zm-15.75 5.3571h-3.07l-2.51 11.7539h3.07zm1.13-5.0373h-3.07l-.65 2.8785h3.07zm-13.57 5.0376h2.26l.57-2.3987 3.31-1.0394-.81 3.4381h2.75l-.49 2.2388h-2.75l-1.13 5.1172c-.08.2399-.16.7196-.16 1.1194 0 .7196.49 1.1194 1.21 1.1194.57 0 1.14-.0799 1.46-.2399l-.57 2.3987c-.2.029-.4.067-.6.105-.36.069-.7.135-1.01.135-2.1 0-3.56-.7996-3.56-3.0384 0-.8796.16-1.7591.41-2.7186l.88-3.9978h-2.26zm79.9 9.9947c-1.13 1.3593-2.18 2.0789-3.88 2.0789-2.1 0-3.63-1.1993-3.63-3.3582 0-3.8379 4.36-4.1577 7.27-4.1577h1.05c.08-.3198.08-.6397.08-1.0395 0-1.1993-1.29-1.5191-2.34-1.5191-1.38 0-2.67.3198-3.88.8795l.4-2.3987c1.3-.4798 2.67-.7196 4.04-.7196 2.35 0 4.61.8795 4.61 3.598 0 .8803-.37 2.6571-.74 4.4501v.0002.0001c-.3 1.464-.61 2.9388-.72 3.9449h-2.58zm-2.99-.1599c2.27 0 2.99-1.5991 3.48-3.4381h-1.13c-1.46 0-3.96.2399-3.96 2.2388 0 .7196.81 1.1993 1.61 1.1993zm-55.18-7.1161c-.56-.3998-1.37-.5597-2.26-.5597-2.43 0-3.88 2.2388-3.88 4.4776 0 1.5191.49 3.0383 2.59 3.0383.72 0 1.69-.2399 2.5-.5597l-.32 2.3987c-.89.3997-1.86.4797-2.91.4797-3.07 0-5.01-1.9989-5.01-5.0372 0-4.0778 2.75-7.1961 6.95-7.1961 1.13 0 2.26.2398 3.07.4797zm23.92-2.7185h2.26l.56-2.3987 3.32-1.0395-.89 3.4382h2.74l-.48 2.2388h-2.75l-1.13 5.1172c-.08.2399-.16.7196-.16 1.1194 0 .7196.48 1.1194 1.21 1.1194.57 0 1.13-.08 1.46-.2399l-.57 2.3985c-.2.029-.4.067-.6.105-.36.069-.7.135-1.02.135-2.1 0-3.55-.7995-3.55-3.0383 0-.8795.16-1.759.4-2.7185l.89-3.9978h-2.26zm-5.9-.2399c2.91 0 4.85 1.5192 4.85 4.4776 0 .4502-.05.9004-.09 1.3399v.0001.0001.0001.0001c-.04.4189-.08.8281-.08 1.2183h-7.27c0-.5597.08-1.1194.33-2.0789h4.2c.08-.2399.08-.5597.08-.7995v-.0001c0-1.1993-.65-1.9189-1.94-1.9189-1.78 0-2.67 1.0394-3.23 2.5586-.33.7196-.49 1.5192-.49 2.3187v.08.3198c.08 1.839 1.3 2.5586 3.23 2.5586 1.3 0 2.51-.3198 3.64-.8795l-.4 2.3987c-1.22.3196-2.51.6396-3.8.6396-3.48 0-5.74-1.5991-5.74-5.1172 0-3.598 2.83-7.1161 6.71-7.1161zm15.27 1.5987c.08-.4797.16-.9594.24-1.2793h2.91l-.24 1.5992h.08c.81-1.1994 2.18-1.839 3.63-1.839 1.38 0 2.83.7995 2.99 2.2388h.08c.81-1.5192 2.51-2.2388 4.12-2.2388 1.78 0 3.32 1.4392 3.32 3.1982 0 1.0395-.25 2.2388-.57 3.1983l-1.21 5.5972h-3.07l1.21-5.6771.02-.1083c.17-.7127.38-1.6861.38-2.3704 0-.8795-.64-1.4392-1.45-1.4392-2.04 0-2.63 2.347-3.04 3.9468l-.03.131-1.21 5.5972h-3.07l1.21-5.6772.02-.1082v-.0001c.16-.7126.38-1.6861.38-2.3704 0-.8795-.64-1.4392-1.45-1.4392-2.04 0-2.63 2.3471-3.04 3.9469l-.03.1309-1.21 5.5973h-3.07zm35.71.6401c.81 0 1.69.2398 2.02.3997l.56-2.2387c-.64-.16-1.77-.3998-2.9-.3998-2.43 0-5.09 1.0394-5.09 3.7579 0 1.6387 1.23 2.4188 2.34 3.1147.89.5606 1.69 1.0666 1.69 1.9226 0 .9595-1.05 1.2793-2.1 1.2793-1.13 0-2.02-.3998-2.9-.8795l-.65 2.3987c1.13.5596 2.42.7196 3.63.7196 2.67 0 5.34-.9595 5.34-3.9978 0-1.6862-1.39-2.5767-2.54-3.3144-.81-.5216-1.5-.9668-1.5-1.563 0-.9595 1.21-1.1993 2.1-1.1993zm4.04-1.9989h2.26l.57-2.3987 3.31-1.0395-.73 3.5181h2.75l-.49 2.2388h-2.74l-1.13 5.1173c-.09.2398-.17.7196-.17 1.1193 0 .7197.49 1.1194 1.22 1.1194.56 0 1.13-.0799 1.45-.2398l-.57 2.3985c-.2.029-.4.067-.6.105-.35.069-.7.135-1.01.135-2.1 0-3.56-.7995-3.56-3.0383 0-.8795.16-1.7591.41-2.7185l.89-3.9979h-2.27zm21.09-.0001c-.09.5597-.17 1.1194-.25 1.5992l-2.18 10.1543h3.07l1.13-5.277c.41-1.9189 1.46-3.8379 3.64-3.8379.4 0 .89.08 1.21.1599l.65-2.9584c-.41-.0799-.81-.0799-1.21-.0799-1.38 0-2.91 1.1993-3.48 2.4786h-.08l.4-2.2388zm-2.35 4.2378c0-2.9584-1.94-4.4776-4.85-4.4776-3.87 0-6.7 3.5181-6.7 7.1161 0 3.5181 2.26 5.1172 5.74 5.1172 1.29 0 2.58-.32 3.79-.6396l.41-2.3987c-1.13.5597-2.35.8795-3.64.8795-1.94 0-3.15-.7196-3.23-2.5586v-.3198-.08c0-.7995.16-1.5991.48-2.3187.57-1.5192 1.46-2.5586 3.24-2.5586 1.29 0 1.93.7196 1.93 1.9189v.0001c0 .2399 0 .5596-.08.7995h-4.2c-.24.9595-.32 1.5192-.32 2.0789h7.27c0-.3903.04-.7996.08-1.2187.04-.4395.08-.8897.08-1.3399zm16.65-2.239c0-1.4392-1.22-2.6385-2.67-2.6385s-2.67 1.1194-2.67 2.6385c0 1.4393 1.22 2.6386 2.67 2.6386s2.67-1.1993 2.67-2.6386zm-.49 0c0 1.2794-.97 2.2388-2.18 2.2388s-2.18-1.0394-2.18-2.2388c0-1.2793.97-2.2387 2.18-2.2387 1.29 0 2.18.9594 2.18 2.2387zm-2.02-1.5991h-1.21v3.1183h.48v-1.3592h.41l.89 1.3592h.56l-.89-1.3592c.49 0 .81-.3998.81-.8796 0-.5597-.32-.8795-1.05-.8795zm-.08 1.3593h-.57v-.9595h.57c.32 0 .65.1599.65.4797 0 .3998-.25.4798-.65.4798z"/><path d="m1598.91 463.682h-.4c-.09 0-.14-.024-.14-.109v-1.191c0-.085.05-.11.14-.11h.4c.09 0 .14.025.14.11v1.191c0 .085-.05.109-.14.109zm-.92 3.026h-.4c-.1 0-.14-.024-.14-.109v-1.191c0-.085.05-.109.14-.109h.4c.09 0 .14.024.14.109v1.191c0 .085-.05.109-.14.109z"/></g><path d="m1400.48 471.946h-4.52v-13.842c0-.899.35-1.422 1.26-1.422h2.1v-1.422h-9.38v1.422h2.08c.91 0 1.26.523 1.26 1.422v12.457c0 .875-.38 1.398-1.24 1.398h-2.15v1.421h16.2v-7.462h-1.55c0 4.935-.81 6.028-4.06 6.028z"/><path d="m1598.59 453c-6.3 0-11.43 5.08-11.43 11.314 0 6.235 5.13 11.315 11.43 11.315.42 0 .86-.024 1.36-.085.22-.024.43-.061.65-.097 1.48-.268 2.88-.802 4.15-1.617.87-.547 1.65-1.227 2.35-1.993 1.88-2.09 2.79-4.752 2.79-7.523 0-6.246-5-11.314-11.3-11.314zm0 21.401c-1.32 0-2.62-.255-3.85-.753-1.49-.608-2.78-1.519-3.78-2.662 2.67-2.588 4.93-1.373 7.54.037 1.45.778 3 1.616 4.64 1.616.53 0 1.08-.085 1.62-.304-1.77 1.325-3.92 2.066-6.17 2.066zm-1.1-14.389c-.09 0-.14-.024-.14-.109v-2.37c0-.085.04-.109.13-.109h.59c.09-.012.13.024.13.109v2.37c0 .085-.04.109-.12.109zm.05 1.131c.01 0 .01 0 0 0zm0 0h.93.92c.03 0 .19.036.22.34l.79 6.745c.02.146.01.304-.1.413-.06.061-.13.109-.22.134-.04.012-.07.012-.11.024-.01 0-.04 0-.05 0h-2.9c-.01 0-.03 0-.05 0-.03-.012-.07-.012-.11-.024-.08-.025-.16-.073-.22-.134-.1-.109-.11-.267-.1-.413l.79-6.745c.02-.292.18-.328.21-.34zm1.31-1.131c-.08 0-.12-.024-.12-.109v-2.37c0-.085.04-.109.13-.109h.59c.09-.012.13.024.13.109v2.37c0 .085-.05.109-.14.109zm2.35 9.698c.4.037.48.231.56.474l.49 1.349c-1.22-.255-2.34-.923-3.26-1.422-.25-.133-.49-.267-.75-.401zm5.97-.133c-1.35 1.531-2.67 2.054-3.88 2.066l-.81-2.261c-.12-.279-.16-.595-.64-.644l-.18-.024c-.27-.024-.4-.207-.45-.498 0 0-.04-.365-.11-.948v.012c-.23-2.042-.61-5.372-.68-5.967 0-.061-.01-.085-.01-.085.03-.061.06-.061.11-.061h.25c.07 0 .11-.012.11-.073v-.984c0-.061-.06-.086-.09-.086h-.24c-.09 0-.11-.036-.11-.121v-2.297c0-.097.05-.158.12-.158h.11c.01 0 .05 0 .05-.061 0-.328 0-.413 0-.765 0-.061-.03-.073-.03-.085-.02-.013-1.87-.693-1.87-.693-.1-.037-.19-.073-.34-.073-.14 0-.22.036-.33.073 0 0-1.85.68-1.88.693-.01.012-.02.024-.02.085v.765c0 .049.04.061.04.061h.11c.08 0 .12.061.12.158v2.297c0 .085-.03.121-.11.121h-.25c-.03 0-.08.013-.08.086v.984c0 .061.03.073.11.073h.24c.05 0 .09 0 .11.061 0 0 0 .036-.01.085-.07.777-.7 6.161-.83 7.34-1.69-.45-3.49-.267-5.39 1.531-1.21-1.677-1.9-3.706-1.9-5.857 0-5.566 4.57-10.087 10.2-10.087 5.62 0 10.05 4.521 10.05 10.087 0 1.507-.2 2.977-.86 4.326-.23.34-.33.583-.63.924z"/><path d="m1427.05 470.586-5.68-15.459h-3.04l-6.55 15.191c-.42 1.033-.81 1.641-2.06 1.641h-1.25v1.422h8v-1.422h-1.53c-1.32 0-1.59-.243-1.59-.766 0-.352.16-.68.46-1.397l1.05-2.48h8.37l.84 2.212c.26.596.51 1.434.48 1.665-.09.426-.33.766-1.44.766h-1.68v1.422h8.86v-1.422h-1.15c-.97-.012-1.73-.45-2.09-1.373zm-7.56-14.171 3.22 9.322h-7.19z"/><path d="m1485.19 459.514c0-1.775 1.02-3.33 4.27-3.33 2.92 0 5.86 1.944 6.21 5.87h1.44v-6.94h-1.26l-.8 1.641c-1.41-1.312-3.15-2.042-5.8-2.042-4.69 0-6.46 2.698-6.46 5.105 0 7.838 12.9 3.5 12.9 9.175 0 2.625-2.55 3.439-4.78 3.439-3.67 0-6.32-3.001-6.68-6.441h-1.44v7.511h1.44l.8-1.993c1.57 1.58 3.47 2.406 5.77 2.406 4.09 0 7.28-1.689 7.28-5.517-.01-7.681-12.89-3.695-12.89-8.884z"/><path d="m1512.35 456.682h1.93c.91 0 1.26.523 1.26 1.422v12.457c0 .875-.38 1.398-1.24 1.398h-2.04v1.422h17.7v-7.353h-1.44c-.13 3.901-.41 5.931-4.47 5.931h-5.83v-7.292h2.3c2.18 0 2.45.061 2.56 3.342h1.44v-7.766h-1.44c-.11 2.953-.39 3.014-2.56 3.014h-2.3v-6.55h5.82c4.05 0 4.34 2.017 4.47 5.408h1.44v-6.83h-17.61v1.397z"/><path d="m1548.68 456.683h2.14c.91 0 1.27.522 1.27 1.422v11.764h-.05l-12.87-14.608h-6.68v1.422h2.1c.91 0 1.26.522 1.26 1.422v12.456c0 .875-.39 1.398-1.24 1.398h-2.12v1.422h8.56v-1.422h-2.19c-.86 0-1.24-.523-1.24-1.398v-13.003h.06l13.93 15.835h2.26v-15.288c0-.9.36-1.422 1.26-1.422h1.99v-1.544h-8.44z"/><path d="m1570.49 455.139h-10.79v1.422h1.97c.91 0 1.26.523 1.26 1.422v12.457c0 .875-.39 1.397-1.24 1.397h-2.04v1.422h11.34c5.08 0 9.47-2.625 9.47-9.042-.02-6.696-4.29-9.078-9.97-9.078zm-.29 16.698h-4.6v-15.276h4.16c5.35 0 7.72 2.346 7.72 7.644.02 5.311-2.37 7.632-7.28 7.632z"/><path d="m1448.9 456.682h2.15c.91 0 1.26.523 1.26 1.422v11.764h-.05l-12.87-14.608h-6.68v1.422h2.1c.91 0 1.27.523 1.27 1.422v12.457c0 .875-.38 1.398-1.24 1.398h-2.13v1.421h8.56v-1.421h-2.18c-.86 0-1.24-.523-1.24-1.398v-13.004h.06l13.91 15.836h2.26v-15.289c0-.899.36-1.422 1.27-1.422h1.98v-1.422h-8.44v1.422z"/><path d="m1470.46 455.26h-10.78v1.422h1.97c.9 0 1.26.523 1.26 1.422v12.457c0 .875-.39 1.398-1.24 1.398h-2.04v1.421h11.34c5.08 0 9.46-2.625 9.46-9.041-.01-6.709-4.28-9.079-9.97-9.079zm-.27 16.686h-4.6v-15.264h4.16c5.35 0 7.72 2.346 7.72 7.644 0 5.299-2.37 7.62-7.28 7.62z"/><path d="m1503.84 455.588c-.41-.377-.87-.535-1.4-.474-.54.049-.97.28-1.28.693-.27.365-.39.766-.34 1.215.05.438.21.802.48 1.094.27.28.61.425 1.02.45h.14.11c.19 0 .29.073.3.182.01.121-.09.328-.3.608-.23.303-.61.619-1.14.972-.22.146-.32.304-.3.486.01.109.06.207.14.279.09.073.2.098.32.086.31-.025.71-.243 1.22-.657.58-.462 1.03-1.008 1.36-1.64s.47-1.216.41-1.775c-.06-.644-.31-1.142-.74-1.519z"/><g clip-rule="evenodd" fill-rule="evenodd"><path d="m1482.41 395.097c-1.78.809-2.47-1.554-3.1-2.673-.86.891-3.27 4.269-5.74 3.233-2.01-.85-.37-4.082-.1-5.139.42-1.575.02-.539-.63-1.492.48-.912 2.22-1.14 2.91-.29.78.974.27 2.818.13 3.978 1.69-.58 3.79-3.004 4.75-4.579.42-.684 1.4-1.658 1.7-1.306.77.891.23 2.487.06 3.875-.13.933-.46 4.166.02 4.393zm-19.43-2.258 4.1-.995c.42-.414 2.75-8.082 4.4-7.004l.29.684c.15 1.036-1.02 3.854-1.04 5.284.85-.249 1.19-.622 1.9-.249-.25.912-.98 1.099-1.84 1.72-1.82 1.285-.04 8.123-4.44 7.191-.46-.104-.44-3.005 0-4.787-.75.062-2.26.746-3.16 1.036-1.13.352-1.41.58-1.55 1.14-.09.352-.15.829-.34 1.554-.52 2.01-1.09 6.113-3.68 4.994-.42-.29-.57-.497-.65-1.305-.09-.684 0-1.368.12-2.031.21-1.181.59-2.238.82-3.316-1.34.021-2.39-.103-2.8-1.512.02-1.679 2.63-1.472 3.99-1.803 1.05-1.762 2.01-5.243 4.32-7.647 3.37-3.502-.23 6.341-.44 7.046zm27.22-7.978c1.57-.125 6.16-1.596 6.53-.954.4.643-4.88 2.487-6.28 2.964-1.32.435-1.32.207-1.78 1.367l-2.47 6.88c-.4 1.181-.33 1.824-1.38 2.01-1.47-2.818.48-6.569.88-9.076-1.43-.083-2.64-.125-2.58-1.492.04-1.119 2.03-.705 3.75-.933.88-1.16 1.57-2.735 2.41-3.626.67-.705 1.76-.788 1.72.601 0 .58-.61 1.761-.8 2.259zm-26.89-.664c-2.32.746-3.1-2.611-1.36-5.636.92-1.617 2.43-3.461 2.79-4.082.44-.788.19-.995 1.3-.912 1.5 1.968-.76 5.926-1.78 7.916-.53.994-1.14 2.383-.95 2.714zm7.96-3.232c5-.394 7.25.601 9.84.186.4-.062 3.75-1.243 2.7.373-.08.125-.6.498-.83.643-3.56 1.948-7.52.559-12.76 1.471-1.71.311-3.87 1.243-4.46.518-1.17-1.471 2.5-4.248 3.88-5.657l3.16-3.212c-.65.083-5.4 1.015-5.19-.954.06-.663.23-.476.35-.621.61-.456 7.92-.974 8.8-.705.23 1.161.1 1.575-.55 2.487-1.72 2.507-4.08 3.979-4.94 5.471zm-18.87.02c-.9 1.182-1.61 3.772-2.24 5.409-.6 1.554-1.5 4.828-3.39 4.497-1.3-1.658.9-7.647 1.57-9.429 1.13-3.067 2.47-5.429 4-7.688-.69.021-1.26.456-1.78-.062-2.07-2.093 6.83-6.113 10.35-1.326 3.2 4.351-3.19 9.781-8.13 9.2zm44.4-6.424c.85.332 1.48.311 2.3.767-.11 1.036-.94 1.306-2.1 1.492-1.84.29-1.96-.145-3.16-.622-.98 1.285-3.68 2.487-6.09 2.011-.54 1.305-2.89 1.761-4.75 1.823-.95.021-6.03.311-6.41.207-.69-1.72 1.84-3.522 2.51-4.165.38-.373 3.62-3.025 3.75-3.067-1.17-.083-2.53.394-3.83.27-1.26-.125-2.26-1.099-1.26-2.28.27-.124 4.13-.497 4.96-.642 1.49-.249 4.21-.788 4.23 1.057.02 1.243-1.78 2.507-2.43 3.17-.85.891-1.88 2.135-2.91 2.715.63.621 1.7.601 2.73.663.98.062 1.88-.124 2.74-.29-.52-2.694.56-4.207 2.99-5.885 1.99-1.368 5.53-2.218 7.23-1.7.54 1.948-.9 2.653-.5 4.476zm-31.6-2.341c-1.51-2.984 3.91-6.031 4.92-5.471.79.456-1.34 2.984-1.7 3.502-.67 1.015-1.46 2.487-3.22 1.969zm18.07-23.645c1.09-.186 1.67.373 1.9 1.285l1.22 4.746c.5.6 5.95 2.051 7.14 2.466 2.39.828 4.48 1.844 6.7 2.901.94.456 2.6 1.243 1.95 2.59-.55 1.16-2.52.808-3.88.808-16.54 0-28.39 1.43-44.2 3.668-1.44.207-7.5 1.492-8.25.725-1.11-1.139 3.96-3.647 4.82-4.144 2.03-1.161 4-2.259 6.19-3.191 6.64-2.819 4.49-1.244 8.02-6.362 1.41-2.01 1.11-2.114 2.39-2.383zm-21.21-8.475c.16.684-.86.829-2.64 1.554-3.08 1.243-5.7 2.404-8.52 3.999-6.81 3.834-12.36 11.128-14.87 18.651-2.35 7.025-2.3 22.712.82 29.405 2.57 5.512 3.26 5.823 7.14 9.719 3.62 3.647 10.63 8.123 15.78 9.429 1.76.456 3.52.684 5.3.974 1.05.165 1.93.746 1.38.974-3.79 1.637-15.83-3.109-19.51-5.637-4.86-3.315-7.75-7.17-11.16-11.542-4.19-5.367-4.94 4.994 7.52 14.526 11.43 8.745 30.25 8.414 43.28 2.591 9.55-4.269 16.6-10.32 21.42-19.418 1.65-3.129 2.87-5.802 3.85-9.636 1.76-6.9.92-17.821-.84-24.639-2.7-10.444-11.09-16.909-19.97-20.847-6.31-2.777-12.55-1.968-10.05-3.523 2.24-1.409 9.67 1.327 11.76 2.259 3.46 1.513 6.73 3.585 9.41 5.409 13.36 9.035 16.06 28.887 12.33 43.725-.96 3.833-2.47 7.46-4.25 10.506-3.6 6.113-8.82 10.755-14.74 14.63-.8.518-4.36 2.321-3.86 3.295.59 1.14 5.03-.808 5.74-1.202 5.32-2.922 12.06-8.994 15.96-13.635 4.44-5.305 7.41-12.227 8.25-21.158.94-10.03.23-17.055-3.33-25.572-10.39-24.929-36.69-28.203-60.18-19.749-5.13 1.845-10.3 4.414-14.47 7.647-2.16 1.679-4 3.212-5.76 5.305-4.58 5.45-7.01 8.89-8.73 17.055-.61 2.901-1.09 10.796.25 13.242.25.455 1.13 1.699 2.05 1.077.69-.477.51-2.342.55-3.212.08-2.279.33-4.58.73-6.755 1.34-7.378 4.59-14.444 9.99-19.542 1.65-1.554 1.55-1.741 3.83-3.461 3.27-2.383 15.03-8.434 15.54-6.444zm-29.38 52.552c.38-.331.19-5.512-.9-8.019-1.22-2.839-6.24-1.7-3.88 5.47.55 1.907 3.21 3.958 4.78 2.549zm19.72-11.667c2.24-.932 4.32-1.637 5.49-3.315 1.8-2.57-.46-4.248-3.29-4.29-.4 3.026-1.78 5.202-2.2 7.605zm37.95-5.574c.9-.062 1.96-.518 2.66-.932.79-.456.92-1.285 1.21-2.135-1.91.249-3.41 1.554-3.87 3.067zm18.3 36.14v-1.616h-.59v-.332h1.57v.332h-.59v1.616zm1.23 0v-1.948h.61l.36 1.327.35-1.327h.61v1.948h-.38v-1.533l-.4 1.533h-.37l-.4-1.533v1.533z"/><path d="m1588.64 200.478c.26 4.415 3.64 6.982 7.99 6.982 3.17 0 7.63-.924 7.63-5.082 0-3.779-3.61-4.527-7.41-5.318-.28-.057-.56-.116-.84-.175-4.15-.822-8.3-1.9-8.3-6.776 0-4.723 4.67-6.109 8.72-6.109 5.13 0 8.92 2.156 8.92 7.597h-1.77c-.05-4.312-3.11-6.057-7.1-6.057-3.27 0-6.95 1.232-6.95 4.62 0 3.57 3.66 4.329 7.33 5.089v.001c.24.048.47.097.71.146 4.77.873 8.55 2.002 8.55 7.033 0 5.133-5.18 6.571-9.44 6.571-5.49 0-9.59-2.926-9.75-8.47h1.71zm20.39-3.747c-.1 5.647 2.9 10.729 8.87 10.729 4.56 0 7.78-2.67 8.61-7.084h1.76c-.93 5.595-4.66 8.624-10.42 8.624-7 0-10.69-5.493-10.58-12.064-.11-6.571 3.37-12.936 10.63-12.936 7.57 0 10.94 5.903 10.58 12.731zm17.69-1.54c-.11-5.031-3.27-9.651-8.82-9.651-5.34 0-8.51 4.928-8.87 9.651zm19.92 13.244h1.76.05v-18.224c0-4.928-4.25-6.211-8.45-6.211-5.71 0-8.98 2.669-9.24 7.957h1.77c.26-4.158 3.11-6.366 7.41-6.366 5.45 0 6.7 3.594 6.7 4.672 0 3.901-.32 4.414-8.3 4.979-4 .308-8.87 1.438-8.87 7.033 0 5.031 3.52 6.725 8.09 6.725 4.62 0 7.83-2.464 8.97-5.288h.11zm-5.99-11.972c2.57-.208 4.95-.401 5.99-1.58v4.466c0 1.232-.94 8.111-9.03 8.111-4.2 0-6.33-2.31-6.33-5.185 0-3.593 2.44-5.082 6.64-5.544.9-.12 1.83-.195 2.73-.268zm13.25-6.61h.1c.94-3.132 4.88-5.596 9.23-5.442v1.745c-1.86-.256-4.51.257-6.63 2.311-1.77 1.796-2.55 3.285-2.7 6.878v13.039h-1.77v-23.819h1.77zm18.41 17.607c-4.35 0-7.73-2.567-7.99-6.982v.052h-1.71c.16 5.544 4.26 8.47 9.75 8.47 4.26 0 9.45-1.438 9.45-6.571 0-5.031-3.79-6.16-8.56-7.033-.24-.049-.47-.098-.71-.147-3.67-.76-7.33-1.519-7.33-5.089 0-3.388 3.68-4.62 6.95-4.62 3.99 0 7.05 1.745 7.1 6.057h1.77c0-5.441-3.79-7.597-8.92-7.597-4.05 0-8.72 1.386-8.72 6.109 0 4.876 4.15 5.954 8.3 6.776.28.059.56.118.84.175 3.81.791 7.41 1.539 7.41 5.318 0 4.158-4.46 5.082-7.63 5.082z"/><path d="m670.584 363h18.148v17.96h-18.148zm-20 0h18.147v17.96h-18.147zm169.367 6.17c-1.885-.507-4.043-.41-5.722.669-1.068.69-1.853 1.78-2.202 2.988-.288.937-.275 1.906-.263 2.873v.001.001c.005.423.011.847-.009 1.267h-.011c-.912-.011-1.813-.022-2.714 0 .007.698.005 1.391.002 2.083v.001.001c-.001.344-.002.688-.002 1.032.392.005.785.004 1.177.002.522-.002 1.042-.003 1.559.009-.008 2.901-.005 5.806-.003 8.714v.001.001.001.001.002.001.001.001.001.002c.001 1.456.003 2.913.003 4.369h3.924v-13.106h5.744c0 .928-.002 1.856-.003 2.783-.002 1.856-.005 3.711.003 5.566.021 1.305.239 2.686 1.111 3.711.752.906 1.941 1.316 3.096 1.402 1.21.086 2.463-.054 3.586-.539v-3.182c-.861.571-2.049.798-2.987.28-.566-.313-.774-.96-.85-1.553-.08-.669-.072-1.343-.065-2.015v-.001-.001-.001-.001c.003-.334.007-.669 0-1.001 0-.605.001-1.209.002-1.813.003-1.208.005-2.416-.002-3.624.467.004.933.001 1.399-.002.836-.006 1.669-.011 2.503.024v-3.15c-.551.005-1.104.003-1.658.002-.74-.002-1.481-.004-2.222.009-.013-.931-.011-1.858-.009-2.784v-.001-.001-.001-.001-.001c.001-.693.002-1.385-.002-2.076-.381.115-.763.232-1.145.349h-.002l-.002.001h-.001c-.908.278-1.819.557-2.731.815-.02.768-.019 1.537-.018 2.306v.004c0 .46.001.919-.003 1.379h-5.744c.011-.343.006-.687.002-1.031-.009-.63-.018-1.26.074-1.882.12-.755.556-1.52 1.308-1.812.937-.388 1.994-.129 2.888.259-.005-.554-.005-1.108-.005-1.662v-.005c0-.555 0-1.111-.006-1.666zm-89.746.895c.795-.118 1.645.151 2.169.766.61.669.73 1.737.272 2.524-.501.885-1.635 1.295-2.616 1.079-1.014-.183-1.864-1.122-1.82-2.168-.033-1.09.905-2.071 1.995-2.201zm-24.372.486h-5.712v22.641h3.739v-10.14c.004-.885.002-1.772 0-2.659v-.001-.001-.001c-.003-1.555-.006-3.11.022-4.662.065.108.131.227.196.345l.906 2.231v.002c2.018 4.97 4.033 9.933 6.081 14.897.431-.01.86-.009 1.287-.008.513.002 1.025.004 1.536-.014 1.234-3.121 2.484-6.236 3.735-9.351l.001-.004c1.036-2.579 2.071-5.158 3.098-7.742.065-.129.131-.248.207-.367l.001.031c.011.248.021.486.021.724-.006 2.789-.006 5.577-.006 8.364s0 5.573-.005 8.356c.989.016 1.978.014 2.967.012.33-.001.66-.001.989-.001v-22.652c-.523 0-1.046-.002-1.569-.004-1.308-.004-2.616-.009-3.924.014-1.395 3.421-2.802 6.833-4.208 10.245l-.001.002v.002l-.001.001v.001l-.001.002-.001.002-.001.003-.002.003-.003.008c-.888 2.153-1.775 4.307-2.66 6.461-.278-.66-.541-1.323-.805-1.989-.18-.455-.361-.91-.546-1.365-.888-2.231-1.778-4.459-2.668-6.686l-.002-.007h-.001v-.001-.001l-.001-.001v-.001l-.001-.001c-.89-2.229-1.78-4.457-2.668-6.688zm35.173 6.396c1.896-.539 3.935-.518 5.831.022.393.108.763.259 1.123.464-.013.709-.011 1.418-.009 2.125.001.53.003 1.058-.002 1.585-1.264-.96-2.867-1.564-4.48-1.359-1.275.119-2.496.766-3.259 1.791-.981 1.262-1.21 2.944-1.035 4.498.131 1.208.632 2.427 1.58 3.225.992.874 2.376 1.176 3.673 1.079 1.276-.151 2.485-.68 3.521-1.435.005.588.005 1.173.005 1.758s0 1.171.006 1.758c-1.602.95-3.532 1.187-5.363 1.101-1.874-.097-3.749-.799-5.112-2.115-1.482-1.413-2.278-3.419-2.376-5.436-.098-2.093.338-4.282 1.548-6.03 1.014-1.478 2.605-2.535 4.349-3.031zm48.296.313c-1.711-.647-3.619-.874-5.428-.561-1.537.281-3.041 1.068-3.902 2.373-.763 1.122-.861 2.578-.545 3.873.218.873.752 1.65 1.471 2.2.798.603 1.725.999 2.647 1.393.249.106.497.212.743.322l.107.051c.579.275 1.183.562 1.604 1.06.48.691.327 1.823-.468 2.212-.84.399-1.821.388-2.714.248-1.297-.216-2.507-.766-3.565-1.521-.012.715-.01 1.43-.008 2.145.001.536.002 1.072-.002 1.609 1.253.55 2.626.819 3.989.906 1.918.075 4.011-.302 5.46-1.64 1.526-1.327 1.886-3.689 1.025-5.469-.458-.949-1.341-1.607-2.245-2.114-.527-.305-1.09-.536-1.652-.766-.671-.276-1.34-.55-1.945-.949-.654-.41-.829-1.305-.567-1.985.338-.69 1.145-.992 1.875-1.025 1.449-.043 2.921.389 4.12 1.208zm-32.579-.043c1.079-.647 2.464-.701 3.641-.302-.007.863-.005 1.726-.003 2.589.002.431.003.863.003 1.294-.774-.496-1.744-.712-2.649-.615-1.112.13-1.994.971-2.452 1.942-.502 1.025-.589 2.19-.556 3.311v7.767h-3.869v-16.223c1.286-.011 2.583-.011 3.869 0-.007.618-.005 1.236-.003 1.853v.002c.002.309.003.618.003.928.414-1.014 1.035-1.996 2.016-2.546zm-27.041-.252c-.371.002-.742.004-1.112.004v16.234h3.891c.005-2.702.005-5.407.005-8.112 0-2.704 0-5.409.006-8.111-.927-.023-1.86-.019-2.789-.015zm43.521.36c-1.744-.788-3.727-.896-5.613-.658-1.973.248-3.902 1.175-5.156 2.739-1.144 1.392-1.7 3.182-1.809 4.962-.153 2.093.196 4.315 1.439 6.062 1.057 1.51 2.725 2.546 4.534 2.924 1.515.312 3.096.312 4.6 0 1.755-.356 3.411-1.327 4.501-2.751 1.068-1.338 1.602-3.031 1.722-4.725.12-1.736-.054-3.527-.784-5.123-.687-1.5-1.919-2.751-3.434-3.43zm-1.155 3.527c-.85-.842-2.104-1.176-3.281-1.1-.937.054-1.886.366-2.605 1.014-.959.862-1.395 2.146-1.515 3.387-.131 1.369-.033 2.815.6 4.066.49.971 1.395 1.726 2.463 2.006 1.046.27 2.191.249 3.204-.14.872-.334 1.559-1.046 1.93-1.877.566-1.24.621-2.632.555-3.969-.098-1.219-.446-2.503-1.351-3.387zm26.835-4.185c1.961-.237 4.032-.108 5.82.787 1.559.766 2.768 2.168 3.368 3.776.469 1.229.632 2.567.61 3.872 0 1.963-.534 3.97-1.776 5.534-1.167 1.51-2.943 2.481-4.829 2.793-1.842.292-3.782.216-5.526-.463-1.766-.691-3.237-2.093-3.989-3.83-.774-1.769-.861-3.754-.621-5.641.25-1.888 1.111-3.732 2.594-4.984 1.21-1.046 2.768-1.639 4.349-1.844zm1.056 3.095c1.112-.075 2.289.173 3.14.917.784.648 1.22 1.608 1.416 2.589.229 1.144.218 2.319.033 3.473-.152.853-.447 1.705-1.014 2.384-.566.68-1.416 1.09-2.288 1.219-.938.14-1.93.076-2.813-.302-.948-.399-1.678-1.208-2.07-2.146-.469-1.111-.556-2.352-.469-3.538.087-1.155.414-2.341 1.188-3.236.708-.842 1.787-1.306 2.877-1.36zm-149.356 3.032h18.148v17.96h-18.148zm38.149-.001h-18.148v17.96h18.148z"/><path d="m1306.35 22.9277h8.01v5.7625l5.21-5.9685h8.52l-6.74 8.0275 8.27 11.1147h-9.8l-5.46-7.1357v7.1357h-8.01zm44.09 9.0557c0 11.5953-8.77 10.429-10.82 10.429-1.99 0-10.77.8239-10.77-9.9484 0-11.3893 7.76-10.4289 11.03-10.4289 2.7 0 10.56-1.1664 10.56 9.9483zm-13.98 0c0 3.9112.66 6.656 3.32 6.656 2.65 0 3.16-3.2255 3.16-6.8611 0-3.5679-.51-5.9693-3.32-5.9693-2.65 0-3.16 2.4014-3.16 6.1744zm16.89 10.0865v-19.4855h8.02v6.7924h5.2v-6.7924h8.01v19.4855h-8.01v-7.3417h-5.36v7.3417zm24.65-19.4855h8.02v14.3393h6.68c.67 0 1.18-.3434 1.69-1.0291v6.1753h-16.39zm12.3 7.6842v-1.7157c-1.12-.5485-1.43-1.6462-1.43-3.0186 0-.8231.57-2.8812 2.61-2.9499 1.89-.0687 2.96 1.3037 3.01 3.4305.05 1.8522-1.02 3.3619-4.19 4.2537zm22.61-6.3118v4.6656c-2.4-2.1963-7.55-3.0881-7.55-.206 0 2.2641 4.08 1.5775 6.58 3.2246 1.89 1.1664 2.81 2.5388 2.81 4.7342 0 1.6462-1.43 7.1349-9.44 6.5865-6.28-.412-7.81-1.5098-8.47-2.0582v-5.3522s1.99 2.5388 5.66 2.8134c3.11.2747 3.11-1.0291 3.11-1.5097 0-.5484-.35-1.1664-4.89-2.4015-4.14-1.0977-4.24-4.5282-4.24-5.7633 0-1.1664.71-6.5178 9.75-6.5178 1.78 0 5.97.5493 6.68 1.7844z" opacity=".73"/><path d="m285.374 418.327c9.302 1.697 16.163-7.247 20.516-14.951 1.782-3.133 4.42-11.229 1.452-14.297-2.118-2.301-3.872-.438-5.325 1.106-.403.427-.782.83-1.14 1.114l1.253 1.436c2.507 3.134.33 9.009-1.121 12.208-2.243 3.917-6.399 9.793-11.281 8.944-1.055-.261-1.913-1.24-2.309-2.35 2.639-2.611 5.74-7.116 7.521-10.119 1.451-2.481 4.024-7.182 1.649-9.14-1.979-1.306-5.871.587-7.916 2.35-1.254 1.11-2.111 2.089-3.101 3.395-2.704 3.591-5.277 9.793-5.013 14.559-1.32.914-2.771 1.828-4.552 1.305-1.715-.391-2.045-1.828-2.309-3.003-1.1-6.725 5.608-15.271 9.538-20.278l.225-.287s-3.1.849-5.343.914c-1.706.064-3.264-.144-4.687-.335-2.924-.392-5.279-.708-7.187 1.576-.858 1.24-1.32 2.481-1.518 4.047.968-.844 2.377-.766 3.805-.687.227.013.455.026.681.035.469.043.899.088 1.3.13 2.026.212 3.337.349 5.429-.196-2.243 3.134-6.003 9.401-6.729 13.253-.396 2.546-.33 6.659 1.913 8.487 3.694 2.416 7.389.718 10.621-1.501 1.056 1.11 2.243 2.089 3.628 2.285zm6.267-21.544c.99-.457.66.979.66.979-.122 1.514-1.154 3.31-1.987 4.761-.065.112-.128.223-.19.331-.858 1.502-3.958 5.158-5.277 5.941.066-2.154 2.44-6.985 3.628-8.748.594-1.175 2.177-2.807 3.166-3.264zm148.561 4.243c-.528.653-2.243 2.546-2.837 3.133l-.264.262c-4.75 4.7-8.312 7.442-10.423 7.834-1.451.326-2.111.391-2.77-.849v-.065l-.066-.588c0-1.697 2.242-5.484 5.211-8.03 1.121-.979 1.253-1.436 1.253-1.501-.395-.653-.659-.98-1.253-1.176-.769-.058-1.857.671-2.644 1.199-.09.061-.177.119-.259.172-.593.392-2.242 1.894-4.024 3.526-1.451 1.371-3.034 2.742-3.892 3.46 0 0-1.187.979-1.451 1.175 0-.261.066-.718.066-.718 0-.849.989-2.35 2.309-4.309.462-.718 1.649-2.742 1.781-3.134v-.065-.065c-.396-.653-1.122-1.11-1.715-1.11-.066 0-.528.392-.528.392-.99.783-3.1 2.676-5.211 4.57-1.914 1.697-3.695 3.264-4.09 3.59-3.497 2.546-6.465 4.244-9.434 5.223-.528.131-2.375.588-3.232-.392l-.33-.326.396-.196c2.572-1.11 5.871-2.611 8.246-4.57.066 0 3.628-3.068 3.628-6.071v-.392c-.198-1.11-1.188-1.436-2.507-1.567-4.354 0-8.246 2.677-10.291 4.962l-.33.392c-.089.101-.197.221-.32.358h-.001c-1.148 1.278-3.614 4.02-4.626 6.496l-.066.131-.132.065c-1.979.849-4.09 1.632-6.465 1.828-1.254.131-3.101.261-4.09-.653 0 0-.264-.195-.33-.326.198-.131 4.948-2.611 4.948-2.611 3.892-2.351 6.53-5.941 6.53-7.835-.066-2.154-2.111-2.676-3.826-2.676-2.507 0-4.881.914-7.85 3.068-1.715 1.241-5.277 5.288-6.267 9.466 0 0 0 .131-.066.196-.066 0-.396.066-.396.066-1.847.457-5.013 1.24-5.607-.588-.924-2.938 2.045-5.81 4.42-8.03l1.319-1.306c.198-.196.396-.718.33-1.11 0-.195-.132-.326-.264-.391-1.226-.575-2.453-.15-3.741.297l-.085.029c-.106.035-.212.071-.318.106-.884.298-1.774.598-2.717.482h-.329v-.327c.066-.653.395-.979.725-1.305l.132-.131c.066-.065.066-.196.066-.326 0-.131 0-.262-.066-.392-.066-.196-.198-.327-.396-.327-.725-.065-2.045.653-3.232 1.828-1.121 1.11-1.847 2.351-1.847 3.199v.196.066c-.128 1.828-1.732 3.596-3.922 6.009l-.234.258-.99 1.11-.395.391c-1.386 1.437-2.309 2.481-2.573 3.069l-.066.196.198-.066c.989-.326 3.826-1.632 8.971-8.03l.132-.13h.198c.264 0 .528-.066.858-.196l.096-.036c.503-.189 1.057-.397 1.553-.029 0 0 .198.13.33.195-.066.131-.99 1.241-.99 1.241-1.451 1.763-2.902 3.591-2.902 5.745 0 .392.066.849.198 1.306.263 1.305 1.583 1.893 2.638 2.024 2.089.387 4.693-.759 7.048-1.795l.077-.033 1.187-.523c.66-.196.858.196.99.523.132.326.396.848 1.451 1.305 3.431 1.567 8.444.784 14.975-2.285 0 0 .198-.065.33-.13.066.13.132.326.132.326.462 1.241 1.319 2.024 2.77 2.416 5.608.718 10.225-2.416 14.645-5.484 0 0 2.045-1.502 2.375-1.763l.528.522c-.066.131-1.979 2.742-1.979 2.742l-.124.184c-.61.903-1.154 1.71-1.525 2.689l-.132.392.066.195c.066.196.33.262.659.327 3.365-.457 6.663-3.199 8.84-5.027l.66-.522c.923-.784 1.847-1.567 2.177-1.633 0 0 .132-.065.198-.065.066.065.132.196.132.196v.065c0 .143-.141.355-.293.586-.057.086-.116.175-.169.263l-.33.522c-.027.06-.057.125-.089.195-.289.629-.769 1.673-.769 2.613 0 .391.066.718.264 1.044.99 1.567 1.913 1.632 2.837 1.632h.33c3.937-.255 7.748-3.573 11.494-6.835l.248-.216 2.837-2.415s2.309-1.959 2.77-2.416c.066.131.132.392.132.392.264.718.33 1.371.33 1.828l-.066.783c-.066.327-.659 2.808-1.517 3.461l-.198.13-.528.131c-2.111.522-4.486 1.11-5.343 3.199l-.066.457c0 .261.132.653.594.979 1.451.392 3.034 0 4.353-.326l1.716-.392c1.039 0 2.078.11 3.117.22.346.037.692.074 1.039.106.25.027.498.054.746.082 1.584.176 3.132.349 4.729.179 2.375-.652 4.288-3.329 4.882-5.549l.066-.196-.198.066c-2.969 1.436-6.399 1.501-9.236.195 0 0-.198-.065-.264-.13.066-.065.132-.327.132-.327 0-.006.017-.053.048-.138.278-.761 1.667-4.569 1.667-9.328v-.718c-.066-.131-.066-.261-.066-.392 0-.485.229-.858.42-1.17l.042-.07c.264-.392.396-.653.396-1.045v-.196-.13c0-.131-.198-.196-.33-.196-2.243-.522-3.562 1.175-5.079 3.134zm-61.351 9.205c.132-1.241 2.045-3.721 3.035-4.701.923-.914 2.111-1.697 3.298-2.023.594-.131 1.122 0 1.386.326.131.131.131.326.131.522s-.066.457-.263.718c-1.254 1.959-4.552 4.766-7.191 5.615 0 0-.33.13-.462.13 0-.261.066-.587.066-.587zm17.944-.522c.263-1.894 3.034-4.701 3.034-4.701.924-.914 2.111-1.632 3.299-2.024.461-.196.923-.13 1.253.131.132.13.264.326.264.653 0 .196-.066.457-.198.718-.264.718-2.507 2.872-3.167 3.395-.725.652-2.638 2.023-4.09 2.219 0 0-.263.066-.461.066 0-.131.066-.457.066-.457zm-63.66-12.078c3.364-3.395 6.201-5.092 9.236-5.353.395-.065 1.781 0 2.177 1.371.659 1.697-4.09 8.552-7.917 12.6-2.243 2.35-4.485 4.309-6.662 5.81l-.066.066c-.132.261-.132.522 0 .848.198.523.725.979 1.253 1.175 3.892.784 6.267-1.958 8.576-4.635l.923-1.175c.307-.354.633-.747.944-1.122.494-.594.95-1.144 1.233-1.424 4.75-4.505 9.896-5.158 12.93-4.309 1.649.392 2.045.588 2.441.849.198.13.33.261.33.391 0 .131-.132.262-.33.392l-.264.196s-1.913 1.697-2.111 2.481l.132.587.132.196v.066c0 .13 0 .326-.264.652l-.792 1.633c-4.09 8.225-9.763 19.52-19.79 20.434-.33.065-1.121 0-1.451-.653-.132-.326-.198-.653-.198-1.045 0-1.762 1.517-3.721 2.968-4.57.726-.391 1.386-.652 2.111-.783h.132l-.066.131c-.029.063-.059.128-.089.193-.308.664-.636 1.372-.636 2.026l.132.588c.132.261.395.522.791.653h.132c1.583-.261 3.233-2.873 4.09-4.244l.198-.261.066-.131.594-1.109c.659-1.241 1.319-2.481 1.649-3.852 0 0 .132-.588.198-.849-.264.196-.726.522-.726.522-2.045 1.437-5.673 3.134-7.322 1.894-.66-.457-.858-1.241-.99-2.09 0 0-.132-.783-.198-1.044-.198.13-.461.392-.461.392-2.309 2.089-4.816 3.917-8.049 3.46-1.253-.196-2.308-1.437-3.232-2.546 0 0-.132-.196-.198-.262-.066.066-.264.196-.264.196-2.902 1.959-8.114 4.179-10.687 2.155-.527-.523-.659-1.371-.659-2.155 0-.457 0-.848.066-1.24 0 0 .132-.849.132-1.175-.264.196-.66.587-.66.587-3.035 2.873-7.586 5.288-9.895 3.983-1.122-.718-.924-2.351-.594-3.917.594-2.808 3.364-7.247 6.597-9.401 2.639-1.828 6.003-3.134 8.971-3.461 1.782-.195 4.288-.261 6.201.914h.066v.066c-.659 1.828-3.166 4.896-4.815 5.353h-.132c0 .065-.33.588-.33.588-.06.105-.121.211-.183.318-.55.952-1.136 1.968-1.136 3.142 0 .522.132 1.044.395 1.567.198.391.594.652 1.122.783 1.715.392 4.486-.783 5.409-1.24 0 0 .066-.066.132-.066v-.13c.99-5.941 7.323-13.71 8.708-15.016zm-15.7 8.161c-1.979-1.175-4.684-1.241-6.795-.196 0 0-.726.457-.66.457-1.319.914-3.76 3.721-3.76 5.549v.523c.198.587.792 1.044 1.649 1.109 1.847.196 6.201-2.546 8.444-5.222 0 0 1.385-1.894 1.451-2.024-.131-.066-.329-.196-.329-.196zm21.571-9.336c-.528.261-2.177 1.371-3.232 2.611-1.979 2.416-6.201 7.835-6.531 10.12 0 0-.132.457-.132.718.264-.196.66-.457.66-.457 3.298-2.35 8.971-8.944 9.895-12.078.066-.065.132-.196.132-.392 0-.13-.066-.261-.132-.391-.005-.005-.011-.012-.018-.019-.08-.085-.277-.292-.642-.112zm2.375 14.102c-.396 1.044-.066 1.958.858 2.611 2.243 1.045 6.794-3.068 8.576-5.614 0 0 1.187-1.306 1.319-1.437-.132-.13-.396-.326-.396-.326-.462-.392-1.451-1.175-3.892-.718-2.705.522-6.135 4.243-6.465 5.484z"/><path d="m493.824 25.0705h2.429c1.03 0 4.49.1821 4.49 5.2265 0 3.9335-3.368 4.7529-4.196 4.7529h-2.723zm21.897 2.0578 2.871 1.7118 13.285-8.4315 5.134 3.4054-13.193 8.213 2.631 1.5843 13.893-8.6137v-8.4133h9.642v18.2471h7.876v8.2859h-17.518v-10.2526l-16.267 10.6168-14.371-8.4316s-1.27 8.0674-9.182 8.0674h-16.525v-26.533h14.942c6.919 0 10.507 7.2843 10.507 7.2843l13.801-8.8686 5.447 3.8971zm43.703-10.5433v26.5329h17.536v-8.2859h-7.876v-18.247zm12.034 3.2595v-2.768h-1.067v-.4735h2.687v.4735h-1.086v2.768zm1.988 0v-3.2415h.809l.828 2.6042.81-2.6042h.791v3.2415h-.497v-2.7316l-.846 2.7316h-.497l-.883-2.768v2.768z"/><path d="m520.697 442.691h5.916v4.291l3.843-4.445h6.292l-4.973 5.978 6.104 8.276h-7.235l-4.031-5.313v5.313h-5.916zm32.554 6.743c0 8.634-6.48 7.766-7.988 7.766-1.469 0-7.95.613-7.95-7.408 0-8.481 5.728-7.766 8.139-7.766 1.997 0 7.799-.868 7.799 7.408zm-10.324 0c0 2.912.49 4.956 2.45 4.956 1.959 0 2.336-2.402 2.336-5.109 0-2.657-.377-4.445-2.45-4.445-1.959 0-2.336 1.788-2.336 4.598zm12.472 7.511v-14.51h5.915v5.058h3.844v-5.058h5.915v14.51h-5.915v-5.467h-3.956v5.467zm18.199-14.51h5.915v10.678h4.936c.49 0 .867-.256 1.243-.767v4.599h-12.094zm9.08 5.722v-1.278c-.829-.408-1.055-1.225-1.055-2.247 0-.613.415-2.146 1.922-2.197 1.394-.051 2.185.971 2.223 2.555.037 1.379-.754 2.503-3.09 3.167zm16.692-4.7v3.474c-1.771-1.635-5.577-2.299-5.577-.153 0 1.686 3.014 1.175 4.861 2.401 1.394.868 2.072 1.89 2.072 3.525 0 1.226-1.055 5.313-6.971 4.905-4.634-.307-5.764-1.124-6.254-1.533v-3.985s1.469 1.89 4.182 2.095c2.299.204 2.299-.767 2.299-1.125 0-.408-.264-.868-3.617-1.788-3.052-.817-3.128-3.372-3.128-4.291 0-.869.528-4.854 7.197-4.854 1.319 0 4.408.409 4.936 1.329z" opacity=".91"/></g><path d="m256.641 358.136h-12.632v20.86c0 .942-.368 1.742-.955 2.399-.588.582-1.396.872-2.347.942h-7.346c-1.028-.072-1.836-.363-2.423-.942-.59-.654-.955-1.454-.955-2.399v-20.86h-12.632v21.95c.075 2.908.589 5.451 1.837 7.484 1.246 2.036 2.863 3.562 4.993 4.579 2.204 1.018 4.7 1.602 7.564 1.602h12.266v-.144c2.645 0 4.92-.584 6.83-1.674 1.835-1.164 3.305-2.761 4.26-4.799 1.027-2.034 1.542-4.435 1.542-7.051zm-126.399 1.308c-2.203-.944-4.627-1.381-7.271-1.308h-8.152l-3.158.364c-.735.217-1.102.363-1.102.363v-16.863h-12.559v51.752h12.559v-20.934c.074-.873.367-1.744 1.028-2.326.661-.581 1.396-.944 2.424-.944h7.345c.881 0 1.689.366 2.35.944.661.582.953 1.453 1.027 2.326v20.934h12.559v-22.532c0-3.126-.66-5.67-1.909-7.632-1.321-1.89-3.011-3.271-5.141-4.144zm42.745 19.552c-.074.943-.368 1.743-.955 2.399-.661.583-1.469.873-2.424.943h-7.344c-.955-.073-1.763-.364-2.35-.943-.661-.654-.955-1.452-1.029-2.399v-20.86h-12.559v21.95c0 2.908.588 5.451 1.763 7.484 1.175 2.036 2.864 3.562 4.994 4.579 2.204 1.018 4.627 1.602 7.565 1.602h12.339v-.144c2.644 0 4.92-.584 6.756-1.674 1.836-1.164 3.305-2.761 4.335-4.799.953-2.034 1.468-4.435 1.541-7.051v-21.947h-12.632zm22.181 14.756h12.559v-51.752h-12.559z"/><path clip-rule="evenodd" d="m106.553 20.3592v10.0017c0 .2975-.075.3347-.338.2603-4.283-1.0411-7.5142-4.5361-8.1153-8.8491-.7514-5.3912 2.8553-10.5594 8.1523-11.7492.301-.07432.338.0372.338.2603-.037 3.3832-.037 6.7293-.037 10.0753zm43.355 1.0781h-3.869c-.263 0-.338.0743-.338.2974v4.8336c0 .632.263 1.0038.826 1.2269.023.009.046.0175.068.0258.162.0603.303.1128.27.3088-.037.2231-.263.2231-.451.2231h-3.982c-.188 0-.376 0-.413-.2231-.038-.223.15-.2974.338-.3346.563-.2231.826-.5949.826-1.1526v-11.7492c0-.6321-.263-1.0039-.864-1.1898-.188-.0743-.338-.1487-.3-.3346.037-.1859.225-.1859.375-.1859h4.096c.187 0 .375 0 .375.2231.032.1877-.096.2438-.227.3012-.025.0108-.049.0216-.073.0334-.564.1859-.864.5949-.864 1.1526v4.6848c0 .2231.075.2603.263.2603h7.852c.225 0 .263-.0744.263-.2975v-4.6104c0-.6693-.263-1.0039-.864-1.227-.151-.0743-.301-.1487-.263-.3346.037-.1859.187-.1859.338-.1859h4.17c.15 0 .301.0372.338.2231.038.1859-.075.2603-.225.2974-.714.2975-.902.5949-.902 1.3014v11.4889c0 .7436.188 1.0411.902 1.3385.15.0744.3.1487.263.3346-.038.1859-.188.2231-.376.2231h-4.133c-.15 0-.3-.0372-.338-.2231-.037-.1859.075-.2974.263-.3346.639-.2231.902-.6693.902-1.3385v-4.6848c0-.3346-.113-.3718-.413-.3718zm-10.707-5.5769v-1.6731-1.5616c0-.2974-.113-.4462-.376-.5577-2.142-.9667-4.396-1.1154-6.688-.818-4.395.5949-7.777 4.1271-7.927 8.626-.15 3.5694 1.691 6.6182 4.884 8.0311 1.616.7064 3.269.8923 4.997.7808 1.878-.1116 3.569-.7436 5.034-2.0078.338-.2974.564-.6321.489-1.1154-.019-.0731-.01-.1551-.001-.2416.01-.0897.02-.1843.001-.279-.012-.0694-.005-.1497.001-.2307v-.0001c.015-.1791.03-.3616-.152-.4384-.168-.0832-.294.0816-.409.2325-.04.0515-.078.1014-.116.1393-1.315 1.2641-2.856 2.0821-4.734 2.1565-2.405.1115-4.434-.7064-5.861-2.7142-1.09-1.4873-1.428-3.1604-1.315-4.9451.075-1.7103.676-3.2347 1.878-4.4989 1.466-1.5616 3.306-2.0078 5.373-1.859 2.104.1487 3.682 1.0782 4.508 3.0488.038.1487.113.2603.263.2231.151-.0372.151-.1859.151-.2975zm64.169 4.9076v-5.7258c0-.7437-.263-1.1155-1.014-1.3386-.15-.0371-.263-.1115-.263-.2974s.15-.2231.338-.2231h10.895c.263 0 .376.1115.376.3718v2.7142c0 .1487-.037.3346-.225.3346-.199.0328-.252-.0785-.313-.2071l-.011-.0239c-.005-.0097-.009-.0195-.014-.0292-.414-1.1898-1.09-1.6732-2.367-1.6732h-4.584c-.225 0-.338.0372-.338.3347v4.5732c0 .2603.075.2975.301.2975h4.32c.338 0 .639-.0372.939-.1859.301-.1116.451-.3347.564-.6321.037-.1487.15-.2231.3-.2231.151 0 .226.1487.226.2975v3.1232c0 .1487-.075.2602-.226.2602-.15 0-.225-.0372-.263-.1859-.15-.6321-.676-.818-1.202-.818-.789-.0186-1.587-.0186-2.385-.0186-.799 0-1.597 0-2.386-.0185-.15 0-.188.0743-.188.1859v4.9079c0 .1859.075.223.225.223.539 0 1.077.0042 1.616.0083 1.077.0083 2.154.0165 3.231-.0083 1.24-.0372 2.104-.6692 2.667-1.7847.038-.0743.076-.1487.113-.2602.075-.1859.188-.2603.376-.1859.15.0743.188.1859.15.3718l-.338 2.0078c-.038.1858-.066.3717-.094.5576s-.056.3719-.094.5578c-.037.2603-.15.3718-.451.3718h-10.745c-.188 0-.338-.0372-.375-.2231-.038-.1859.112-.2603.263-.2974.638-.1859.901-.5949.901-1.227.075-2.045.075-3.9784.075-5.9118zm-4.095-3.6439v-1.4873c0-.2417-.009-.474-.019-.7064-.009-.2324-.018-.4648-.018-.7065.037-.2602-.075-.4461-.338-.5577-1.804-.8179-3.72-.9667-5.674-.7808-4.207.409-7.251 3.6066-7.514 7.4362-.225 2.7886.677 5.1682 3.006 6.8785 1.653 1.227 3.607 1.5988 5.636 1.5244 1.841-.0372 3.494-.6321 4.884-1.859.263-.2603.451-.5206.413-.9295-.025-.1996-.017-.416-.008-.6266v-.0001c.004-.1032.008-.2051.008-.3029 0-.1487 0-.2602-.15-.3346-.167-.0659-.245.0143-.339.111-.012.0124-.024.0251-.037.0377-.413.409-.902.818-1.428 1.1526-2.179 1.4501-5.297 1.3014-7.176-.3718-1.54-1.3757-2.141-3.1604-2.103-5.1681.037-2.9373 1.991-5.7631 5.41-5.9118 2.141-.0744 4.02.5577 4.921 2.7142.038.1487.151.2603.338.2231.188-.0372.188-.1859.188-.3346zm-89.716-2.1193v-4.6476c0-.2603.037-.3347.338-.3347h8.228c.019 0 .041-.0022.064-.0046.108-.0111.236-.02433.236.1905.038 1.5245 0 3.0489-.676 4.4989-1.503 3.3091-4.095 5.0938-7.739 5.3913-.451.0371-.451 0-.451-.4462zm8.828 15.3932v-4.722-4.5733c0-.409 0-.4461-.451-.409-3.419.2231-5.936 1.8963-7.514 4.9079-.789 1.5244-.939 3.1232-.901 4.7964.037.2602.112.3346.375.3346h8.153c.263 0 .338-.0744.338-.3346zm61.277-9.6672v-5.763c0-.7065-.226-1.0411-.902-1.2642-.15-.0371-.263-.1115-.263-.2974.038-.1859.188-.2231.338-.2231h4.171c.187 0 .3.0372.338.2231.037.1859-.113.2603-.263.2974-.677.2603-.94.5949-.94 1.3386v2.7513 8.7004c0 .6692.301 1.2641.977 1.4129.151.0371.226.1487.226.2974-.038.1859-.188.2231-.338.2231h-3.57-.601c-.15 0-.263-.0744-.3-.2231-.038-.1487.075-.2603.188-.2974.713-.1859.939-.7065.939-1.4129zm-8.191 13.8317v2.0821c0 .7065 0 1.3757.038 2.1565 0 .2231.075.2975.3.2975.324 0 .653-.0041.982-.0082h.001c.664-.0083 1.333-.0167 1.985.0082.322 0 .313-.1639.304-.3278-.001-.0273-.003-.0546-.003-.0812 0-.017 0-.0341.001-.051.003-.1674.006-.3208-.302-.3208h-2.179c-.225 0-.263-.0372-.263-.2603 0-.0728.004-.1496.008-.2278v-.0002-.0002-.0002c.009-.1611.018-.328-.008-.478 0-.2231.076-.2603.301-.2603h1.841c.225 0 .3-.0743.263-.2603v-.2602c0-.2231-.075-.2603-.263-.2603h-1.202c-.094-.0132-.202-.0029-.311.0075-.196.0188-.395.0379-.516-.0818-.12-.1189-.102-.3138-.083-.5166.011-.1144.021-.2314.008-.3386-.038-.2231.038-.2975.263-.2975h1.878c.239 0 .362 0 .424-.061.065-.0636.065-.1937.065-.4595 0-.2231-.075-.2603-.263-.2603h-3.006c-.188 0-.263.0372-.263.2603zm-18.672 2.1189v2.045c0 .223-.037.2974-.3.2974-.099-.0054-.182-.0077-.25-.0096-.168-.0046-.25-.0068-.288-.0489-.038-.0403-.035-.1168-.03-.2665v-.0001-.0001-.0001c.002-.0634.004-.1399.004-.2324v-1.1898c0-.1859-.038-.2231-.225-.2231h-1.804c-.188 0-.225.0744-.225.2231v1.4872c0 .186-.038.2603-.263.2603-.601 0-.601 0-.601-.5577v-3.8668c0-.2603.075-.3347.338-.3347.264 0 .395 0 .461.0658.065.0653.065.1954.065.4548v1.1898c0 .1859.037.2602.263.2602h1.766c.187 0 .225-.0743.225-.223v-1.4501c0-.2231.075-.2975.301-.2975.282 0 .423 0 .493.0705.07.0699.07.2094.07.4873zm32.386 1.8221c.526.3718 1.089.5949 1.84.5949.113-.0372.301-.0372.602-.0372.826-.1487 1.315-.8551 1.127-1.6731-.075-.4462-.414-.7064-.789-.8552-.226-.0743-.451-.1394-.677-.2045-.225-.065-.45-.1301-.676-.2045-.3-.0743-.526-.2602-.451-.5949.038-.3718.301-.4461.601-.4833.376-.0372.752.0372 1.052.2603.339.2231.489.1487.639-.1488v-.0371c.188-.1859.15-.2975-.075-.4462-.488-.2975-1.014-.4462-1.578-.409-1.014.0372-1.578.5949-1.54 1.4872.037.5577.338.9296 1.052 1.1526.187.0558.385.1116.582.1674.197.0557.394.1115.582.1673.263.0743.451.2602.414.5577-.038.3346-.263.4833-.564.5205-.488.0744-.977-.0372-1.39-.2974-.413-.2975-.451-.2975-.751.1115l-.038.0372c-.15.1487-.113.2231.038.3346zm-19.65-1.487v-1.6732c0-.2231-.075-.2974-.301-.2603h-.939c-.263 0-.338-.0743-.3-.2974v-.2603c0-.1487.075-.2231.225-.2231h3.456c.151 0 .226.0744.226.2231v.2603c.037.2231-.075.2974-.301.2974-.201-.0249-.42-.0164-.633-.008-.104.004-.207.008-.306.008-.225 0-.3.0744-.263.2975v3.3091c0 .3696-.155.3565-.336.3411-.037-.0032-.076-.0065-.115-.0065-.263.0372-.413 0-.375-.3346 0-.2789-.01-.5577-.019-.8366-.01-.2788-.019-.5577-.019-.8365zm13.638-2.4171v2.0821c0 .6693 0 1.3386-.037 2.045 0 .2231.075.2975.3.2975h2.555c.488 0 .488-.0001.488-.4834.038-.2231-.037-.2974-.263-.2974h-1.916c-.263 0-.3-.0744-.3-.2975v-3.3091c0-.2603-.075-.3718-.338-.3346h-.188c-.226-.0372-.301.0743-.301.2974zm37.232-20.933c-.038.1115-.075.2137-.113.316-.037.1022-.075.2045-.112.316-.038.0744-.076.1116-.188.1116-.089 0-.084-.0466-.079-.1029.002-.0148.004-.0303.004-.0458-.075-.2231-.151-.409-.263-.6321v.5949c0 .0125.001.0251.002.0375.005.0609.01.1175-.115.1484-.113 0-.113-.0744-.113-.1487v-.6321c0-.0163-.003-.0344-.007-.0527v-.0001c-.013-.0652-.026-.1331.12-.1331.019 0 .038-.001.058-.002.101-.0052.211-.0109.243.1135.007.0277.014.0605.021.0956.033.1536.075.3506.166.3506.102 0 .135-.1193.169-.2425.016-.0588.032-.1185.057-.1665.075-.1116.15-.1859.3-.1487.126.0312.12.1148.115.1849-.001.0134-.002.0262-.002.0382v.632c0 .0744 0 .1488-.113.1488s-.113-.0744-.113-.1488v-.632zm-1.09-.1858c-.338-.0744-.601-.0744-.864 0 .301.0372.301.2231.263.4833v.2603c.013.0248.013.0578.013.0909 0 .0661 0 .1322.1.1322.149 0 .133-.0933.119-.1691-.003-.0199-.006-.0385-.006-.054.009-.0646.002-.1361-.005-.2088-.021-.22-.043-.451.38-.5348zm-51.244.2606c-2.818 1.5616-4.171 3.9783-4.246 7.1759.038.3718.038.7808.038 1.1898.338 2.6398 1.69 4.6104 4.095 5.8002 1.728.8552 3.569.9667 5.448.6693 2.592-.4462 4.546-1.7847 5.785-4.0528.865-1.5616 1.052-3.2719.865-5.0194-.263-2.4539-1.466-4.3502-3.607-5.6515-1.465-.8924-3.081-1.1154-4.772-1.0411-1.277.0744-2.479.3347-3.606.9296zm9.467 5.7635c-.451-2.4539-2.217-4.9451-5.749-4.9822-.037 0-.075.0041-.112.0082-.075.0083-.151.0165-.226-.0082-2.179.1487-3.682 1.1526-4.546 3.1232-.638 1.45-.601 2.9373-.3 4.4617.526 2.5655 2.329 4.5732 5.109 4.8335 2.405.2231 4.584-1.0039 5.486-3.2347.563-1.3757.601-2.7886.338-4.2015zm-14.765 19.5935c-1.427 0-2.479-1.041-2.479-2.4167 0-1.4129 1.052-2.454 2.479-2.454 1.39 0 2.48 1.0411 2.48 2.4168.037 1.3757-1.09 2.4539-2.48 2.4539zm1.578-2.4172c0 .9295-.676 1.6359-1.54 1.6359-.902 0-1.616-.7064-1.616-1.6731 0-.9296.677-1.636 1.578-1.636.902 0 1.578.7065 1.578 1.6732z" fill-rule="evenodd"/></g></svg>