<?xml version="1.0" encoding="UTF-8"?>
<svg width="120px" height="120px" viewBox="0 0 120 120" version="1.1" xmlns="http://www.w3.org/2000/svg" xmlns:xlink="http://www.w3.org/1999/xlink">
    <!-- Generator: Sketch 49 (51002) - http://www.bohemiancoding.com/sketch -->
    <title>User/User04</title>
    <desc>Created with Sketch.</desc>
    <defs></defs>
    <g id="User/User04" stroke="none" stroke-width="1" fill="none" fill-rule="evenodd">
        <g id="702015" transform="translate(18.000000, 4.000000)" fill-rule="nonzero">
            <path d="M42.448049,2.04 C32.2304885,2.04 25.1625754,3.95628708 19.4007509,15.4544587 C15.5594595,23.1198316 17.4802177,48.0326864 17.4802177,48.0326864 L17.4802177,86.36 L67.32,86.36 L67.32,30.785429 C66.8396979,13.8449392 61.5581755,2.04 42.448049,2.04 Z" id="Shape" fill="#FECB66"></path>
            <path d="M40.3906251,2.04 C31.6962064,2.4808381 25.3413011,5.10610424 20.1167457,15.4544587 C16.2178612,23.1198316 18.1674177,48.0326864 18.1674177,48.0326864 L18.1674177,86.36 L40.8,86.36 C34.172102,51.0990153 38.4022329,15.6462446 40.3906251,2.04 Z" id="Shape" fill="#F5AD76"></path>
            <path d="M42.8397736,90.4399973 C49.867699,90.4438679 56.221447,86.2318265 58.9899208,79.7348095 L59.84,77.7920339 L55.976271,77.3063969 C54.0327477,77.059594 52.580029,75.3907149 52.5956497,73.4206179 L52.5956497,63.24 L33.1807908,63.24 L33.1807908,73.4010376 C33.196185,75.3711346 31.7434664,77.0400137 29.8001694,77.2868166 L25.84,77.7724536 L26.6900792,79.7152292 C29.4522142,86.2199872 35.8079997,90.4399973 42.8397736,90.4399973 Z" id="Shape" fill="#FEDAC6"></path>
            <path d="M51.68,71.9834052 L51.68,63.24 L32.64,63.24 L32.64,71.9834052 C39.7800279,75.7388649 44.5399721,75.7388649 51.68,71.9834052 Z" id="Shape" fill="#F5C4B0"></path>
            <path d="M17.68,100.138935 L17.68,78.88 L12.3234414,79.5370165 C6.41544196,80.2617504 1.99521005,85.2479194 2.04034251,91.1327583 L2.04034251,116 L13.7702002,116 C13.7681383,110.915313 14.966554,105.498116 17.2696841,100.950637 L17.68,100.138935 Z" id="Shape" fill="#FEDAC6"></path>
            <path d="M67.5468147,99.5999966 L67.5468147,78.5350201 L59.4548154,77.52 L58.6070069,79.4349163 C54.7824986,88.2763403 44.4710698,92.3631257 35.5757409,88.5617936 C31.4527498,86.799927 28.1676329,83.5329223 26.3932182,79.4349163 L25.5454097,77.52 L17.4534104,78.5350201 L17.4534104,99.5999966 L17.0488104,100.404293 C14.7792575,104.910282 13.590599,110.961479 13.5923829,116 L71.4707105,116 C71.4727376,110.961703 70.2209676,104.910282 67.9511889,100.404293 L67.5468147,99.5999966 Z" id="Shape" fill="#74A32E"></path>
            <path d="M72.6765956,79.5370165 L67.32,78.88 L67.32,100.138935 L67.7305478,100.950637 C70.0334647,105.498116 71.2318887,110.915086 71.2300559,116 L82.96,116 L82.9599944,91.0555289 C82.9657219,85.1996793 78.5553109,80.2599386 72.6765956,79.5370165 Z" id="Shape" fill="#FEDAC6"></path>
            <path d="M2.04,90.9534593 L2.04,115.6 L8.16,115.6 L8.16,80.92 C4.39022344,82.9906888 2.06055937,86.8120818 2.04,90.9534593 Z" id="Shape" fill="#F5C4B0"></path>
            <path d="M63.4862322,32.8665914 C58.6458363,27.8282828 54.7507408,21.9539063 51.9844794,15.5265914 C43.7011956,29.4274914 31.7604892,40.7621617 17.479221,48.28 C17.479221,48.28 15.5623371,23.2334086 19.3961049,15.5265914 C25.1469813,3.96659141 32.2971627,2.04 42.3996105,2.04 C61.5691236,2.04 66.7449124,13.9081914 67.32,30.94 L67.32,34.7931828" id="Shape" fill="#FECB66"></path>
            <path d="M17.4461966,48.28 C34.5346395,39.8128195 46.5410328,27.1599735 52.36,15.64 C37.3663853,29.0798941 29.0841311,36.7600265 17,37.9311488 C17.0970586,43.7296105 17.4461966,48.28 17.4461966,48.28 Z" id="Shape" fill="#F5AD76"></path>
            <path d="M63.92,32.8666388 C59.0469364,27.8612684 55.1255529,22.0252959 52.3406221,15.64 C45.0030959,27.777154 34.8288483,37.9848346 22.6781909,45.4037289 C22.3308096,45.6143514 22.4658269,45.7866178 22.4658269,45.7866178 L22.4658269,48.1983473 C22.9520704,58.9172195 31.8720361,67.3506461 42.691065,67.3199163 C53.4947151,67.3199163 62.383697,58.8846952 62.8584062,48.1792813 L63.92,32.8666388 Z" id="Shape" fill="#FEDAC6"></path>
            <path d="M21.08,43.9906297 L21.1765293,47.8614861 C21.5237633,55.6029722 28.0633378,62.0866058 34.68,65.28 C30.8217686,57.5385139 26.9637633,49.796801 28.892766,40.12 C26.867234,42.055088 21.08,43.9906297 21.08,43.9906297 Z" id="Shape" fill="#F5C4B0"></path>
            <path d="M65.6880446,32.64 L61.88,32.64 L61.88,44.2 L65.6880446,44.2 C68.8430075,44.2 71.4,41.6125469 71.4,38.42 C71.4,35.2274531 68.8430075,32.64 65.6880446,32.64 Z" id="Shape" fill="#FEDAC6"></path>
            <path d="M16.1759113,104 C14.7577098,107.69333 14.3389505,112.048377 14.3175488,116 L27.2375488,116 C19.6408702,112.840191 16.9140409,107.3524 16.1759113,104 Z" id="Shape" fill="#688E26"></path>
            <circle id="Oval" fill="#000000" cx="54.06" cy="36.38" r="3.74"></circle>
            <path d="M41.9847659,50.32 L36.035333,48.3469461 C35.4303966,48.1457792 34.9604843,47.6682969 34.770149,47.0643339 C34.5798136,46.458521 34.6948514,45.7995261 35.0776138,45.2924468 L41.0270466,37.4 L44.2,39.7677572 L39.9024644,45.4700286 L43.2420484,46.5769089 L41.9847659,50.32 Z" id="Shape" fill="#000000"></path>
            <path d="M3.27178955,116 L0.000394104565,116 L0.000394104565,91.0206171 C-0.0515029618,84.1595825 5.027866,78.3361741 11.8169048,77.4883824 L29.1460122,75.3208207 C30.1106207,75.1988004 30.8346976,74.3666581 30.828831,73.3855058 L30.828831,65.28 L34.68,65.28 L34.6798189,73.3698564 C34.7028342,76.2999317 32.529024,78.7965853 29.625496,79.160605 L12.2943578,81.3281667 C7.44423853,81.9339591 3.8166336,86.0951241 3.85318718,91.0051945 L3.85318718,116 L3.27178955,116 Z" id="Shape" fill="#000000"></path>
            <path d="M84.9996059,116 L81.1484174,116 L81.1484174,91.1173458 C81.1870038,86.191875 77.5571792,82.0327699 72.7086126,81.4249391 L55.3786032,79.2592016 C52.471088,78.8915547 50.2971646,76.3949123 50.3201811,73.4530565 L50.32,65.28 L54.1713695,65.28 L54.1713695,73.4666646 C54.1636973,74.4634618 54.8875863,75.2935591 55.8563067,75.4176201 L73.18248,77.5833576 C79.9720979,78.4311455 85.0515056,84.2565688 84.9996059,91.1309539 L84.9996059,115.6 L84.9996059,116 Z" id="Shape" fill="#000000"></path>
            <path d="M65.8239554,46.24 L63.92,46.24 L63.92,42.33 L65.8239554,42.33 C67.9240407,42.33 69.6320893,40.5764909 69.6320893,38.42 C69.6320893,36.2637382 67.9242638,34.51 65.8239554,34.51 L63.92,34.51 L63.92,30.6 L65.8239554,30.6 C70.0243491,30.6 73.44,34.1072473 73.44,38.4197709 C73.44,42.7322945 70.0243491,46.24 65.8239554,46.24 Z" id="Shape" fill="#000000"></path>
            <path d="M42.1687725,92.48 C42.1611247,92.48 42.1534768,92.48 42.1476285,92.48 C34.391133,92.48 27.4041462,87.8138229 24.3483798,80.588995 L23.12,77.6940513 L26.6479087,76.16 L27.8762885,79.0569942 C30.3274248,84.8489321 35.9303754,88.5914431 42.149428,88.5914431 C42.1552763,88.5914431 42.1608997,88.5914431 42.1667481,88.5914431 C48.3896246,88.5914431 53.9925752,84.8507549 56.4437115,79.058817 L57.6720913,76.16 L61.2,77.6940513 L59.9716202,80.5910455 C56.9160787,87.8138229 49.9272925,92.48 42.1687725,92.48 Z" id="Shape" fill="#000000"></path>
            <path d="M42.6969483,69.36 C30.7749325,69.36 21.0241501,60.0607427 20.498837,48.1918555 L20.4,44.2908814 L24.2757741,44.1942005 L24.3727935,48.0584946 C24.8069947,57.8194204 32.8552812,65.4957059 42.6971755,65.4957059 C52.5390698,65.4957059 60.589174,57.8194204 61.0215576,48.0218147 L62.0899061,30.6 L65.96,30.8357022 L64.8936963,48.2246862 C64.3715642,60.0627805 54.621009,69.36 42.6969483,69.36 Z" id="Shape" fill="#000000"></path>
            <path d="M40.1885573,55.76 C40.1865826,55.76 40.1848274,55.76 40.1828527,55.76 L38.76,55.76 L38.76,52.0017228 L40.1828527,52.0017228 C40.1848274,52.0017228 40.1865826,52.0017228 40.1885573,52.0017228 C42.6393306,52.0017228 45.0920786,51.4210363 47.2843907,50.32 L48.96,53.6816839 C46.250985,55.0421244 43.2179062,55.76 40.1885573,55.76 Z" id="Shape" fill="#000000"></path>
            <path d="M17.3666343,50.32 C17.0450608,50.32 16.7234872,50.2388047 16.4346352,50.0780017 C15.8684401,49.7625193 15.4967688,49.1819048 15.446671,48.5334764 C15.3658827,47.4845146 13.5267076,22.7464807 17.5706361,14.6178776 C23.6520997,2.39208643 31.2795986,0 42.4004018,0 C65.371811,0 68.8727879,16.5146272 69.357969,30.900259 L69.36,34.8368707 L65.5085644,34.8368707 L65.5085644,30.9660317 C64.8577446,11.7399801 58.1640501,3.87061221 42.4004018,3.87061221 C32.3330059,3.87061221 26.2632769,5.80024826 21.0156479,16.3479274 C18.4121433,21.5793548 18.6450302,36.9286706 19.0938792,45.2314581 C31.9708125,37.871262 42.7449933,27.2925109 50.3785852,14.4879197 C50.7464202,13.8646663 51.4261252,13.500875 52.1559279,13.5512252 C52.8780579,13.5995341 53.5115014,14.0486032 53.7985481,14.7144954 C56.4925447,20.9774209 60.2514574,26.6440824 64.9712544,31.5582132 L62.2003059,34.2465037 C57.9927699,29.8667198 54.5014966,24.9276408 51.7880929,19.5240702 C43.399875,32.4098567 31.8726479,42.9382576 18.2638809,50.1011355 C17.9790909,50.2462892 17.6728626,50.32 17.3666343,50.32 Z" id="Shape" fill="#000000"></path>
            <rect id="Rectangle-path" fill="#000000" x="65.96" y="44.2" width="4.08" height="34.68"></rect>
            <rect id="Rectangle-path" fill="#000000" x="15.64" y="46.24" width="4.08" height="32.64"></rect>
            <path d="M11.5601096,116 C11.5601096,110.642825 12.7847889,104.877723 15.1055108,100.08675 L15.2998904,99.6829344 L15.2998904,78.88 L19.04,78.88 L19.04,100.139067 C19.04,100.438701 18.9727232,100.736296 18.8436481,101.002864 L18.4509442,101.814571 C16.3883725,106.072182 15.3,111.240055 15.3,116 L12.0535278,116 L11.5601096,116 Z" id="Shape" fill="#000000"></path>
            <path d="M73.4542958,116 L69.7142875,116 C69.7162597,111.239828 68.6135213,106.073994 66.5490383,101.814571 L66.1563461,101.002864 C66.0272748,100.734258 65.96,100.438474 65.96,100.139067 L65.96,78.88 L69.699999,78.88 L69.699999,99.6829344 L69.8943729,100.08675 C72.2169985,104.879761 73.4560396,110.644637 73.4542958,116 Z" id="Shape" fill="#000000"></path>
        </g>
    </g>
</svg>