<?xml version="1.0" encoding="UTF-8"?>
<svg width="120px" height="120px" viewBox="0 0 120 120" version="1.1" xmlns="http://www.w3.org/2000/svg" xmlns:xlink="http://www.w3.org/1999/xlink">
    <!-- Generator: Sketch 49 (51002) - http://www.bohemiancoding.com/sketch -->
    <title>User/User05</title>
    <desc>Created with Sketch.</desc>
    <defs></defs>
    <g id="User/User05" stroke="none" stroke-width="1" fill="none" fill-rule="evenodd">
        <g id="702003" transform="translate(19.000000, 7.000000)" fill-rule="nonzero">
            <path d="M63.9679123,31.9534483 L63.9679123,58.269232 C63.9716569,60.722191 63.4584211,63.1506998 62.4641092,65.3932982 C58.8117641,73.622694 50.6596842,78.9328129 41.655809,78.945809 C33.3869844,78.9438265 25.7686257,74.4628148 21.7497466,67.2352203 L21.054345,65.9946433 C19.6089142,63.3969649 18.8513957,60.4721813 18.8551404,57.4984971 L18.8551404,31.9534483 L32.012922,16.9158577 L50.8099103,16.9158577 L63.9679123,31.9534483 Z" id="Shape" fill="#FEDAC6"></path>
            <path d="M25.0205789,24.9044951 L18.8551404,31.9534483 L18.8551404,57.4984971 C18.8513957,60.4721813 19.6089142,63.3969649 21.054345,65.9946433 L21.7497466,67.2352203 C23.2515673,69.9287173 25.2930565,72.2840955 27.7460156,74.1524503 C26.3739357,62.0286296 22.614538,46.991039 25.0205789,24.9044951 Z" id="Shape" fill="#F5C4B0"></path>
            <path d="M63.9679123,31.9534483 L62.0883236,31.9534483 L62.0883236,43.2316413 L63.9679123,43.2316413 C67.0825712,43.2316413 69.6068986,40.7073138 69.6068986,37.592655 C69.6068986,34.4779961 67.0825712,31.9534483 63.9679123,31.9534483 Z" id="Shape" fill="#FEDAC6"></path>
            <path d="M13.216154,37.5924347 C13.216154,40.7070936 15.7404815,43.2314211 18.8551404,43.2314211 L20.734729,43.2314211 L20.734729,31.9532281 L18.8551404,31.9532281 C15.7407018,31.9534483 13.216154,34.4797583 13.216154,37.5924347 Z" id="Shape" fill="#F5C4B0"></path>
            <path d="M41.4115263,91.6148051 C48.2498986,91.6185497 54.432078,87.543501 57.1257953,81.2577934 L57.764807,79.7729337 L53.4415107,79.265425 C51.7328538,79.0585887 50.1444659,78.2843294 48.9303216,77.0662203 L33.892731,77.0662203 C32.6783665,78.2843294 31.0901988,79.058809 29.3815419,79.265425 L25.0582456,79.7729337 L25.6972573,81.2577934 C28.3909747,87.5452632 34.5713918,91.6185497 41.4115263,91.6148051 Z" id="Shape" fill="#FEDAC6"></path>
            <path d="M67.8400897,80.9571209 L57.7650273,79.7729337 L57.1260156,81.2577934 C53.3948129,89.9363255 43.334729,93.9474951 34.6561969,90.2165127 C30.6335731,88.4871501 27.4288226,85.2804172 25.6974776,81.2577934 L25.0584659,79.7729337 L14.9834035,80.9571209 C7.51549123,81.9551774 1.93840156,88.3274522 1.93840156,95.8629883 L1.93840156,112.780168 L80.8855322,112.780168 L80.8855322,95.8629883 C80.8850916,88.3292144 75.3080019,81.9569396 67.8400897,80.9571209 Z" id="Shape" fill="#215280"></path>
            <g id="Group" transform="translate(18.723197, 1.762183)" fill="#70432C">
                <path d="M38.0265926,15.1536745 L7.95163158,15.1536745 C6.74475634,15.151692 5.55307992,14.8697427 4.47418324,14.3265497 C0.648923977,12.3905712 -0.882853801,7.71946394 1.05312476,3.89420468 C1.4064425,3.19682066 1.8632885,2.55582651 2.40648148,1.99567251 L4.19223392,0.116083821 L6.07182261,3.87548148 L29.8875088,3.87548148 C35.7333314,3.87548148 41.4853177,9.60852437 39.6055088,15.1536745 L38.0265926,15.1536745 Z" id="Shape"></path>
                <path d="M39.6055088,15.1536745 C43.5398031,16.437425 46.077347,20.2589396 45.7332807,24.3828889 L45.2444951,30.1910448 L32.0867135,15.1534542 C32.0869337,15.1536745 39.6055088,15.1536745 39.6055088,15.1536745 Z" id="Shape"></path>
            </g>
            <path d="M32.0131423,16.9158577 L18.8553606,31.9534483 L18.366575,26.1452924 C18.0282359,22.0098889 21.2424581,18.6264971 24.494347,16.916078 C24.494347,16.9158577 32.0131423,16.9158577 32.0131423,16.9158577 Z" id="Shape" fill="#5C3724"></path>
            <path d="M56.449117,56.9909883 C55.8946901,57.8687758 54.7329708,58.1300195 53.8551832,57.5736101 C53.511117,57.35554 53.2481111,57.0321793 53.1033918,56.6526491 L51.7687583,53.1752008 C51.2105867,51.701575 49.7913684,50.7354581 48.2161969,50.7504366 L34.607076,50.7504366 C33.0451209,50.7504366 31.6466082,51.7147914 31.091961,53.1752008 L29.7573275,56.6526491 C29.3888109,57.6225107 28.3044074,58.1112963 27.3325634,57.7427797 C26.9528129,57.5980604 26.6276901,57.3348343 26.4116023,56.9909883 L18.8927932,44.4722183 L18.892807,57.4984971 C18.8890624,60.4721813 19.6465809,63.3969649 21.0920117,65.9946433 L21.7874133,67.2352203 C27.9246569,78.2182476 41.8042729,82.1468148 52.7873002,76.0095712 C57.0936355,73.6035302 60.5014776,69.8648382 62.5015556,65.3554113 C63.4789064,63.1205224 63.9789259,60.7069922 63.967692,58.2690117 L63.967692,45.2991228 L56.449117,56.9909883 Z" id="Shape" fill="#70432C"></path>
            <g id="Group" transform="translate(18.723197, 5.066277)" fill="#5C3724">
                <path d="M0.131929654,39.4059415 L0.13194347,52.4322203 C0.12819883,55.4059045 0.885717349,58.3306881 2.33114815,60.9283665 L3.02654971,62.1689435 C4.56978168,64.9470253 6.68440156,67.3700273 9.2294347,69.2742865 C7.87233333,63.2518051 7.15424366,57.101345 7.08661988,50.9284172 L0.131929654,39.4059415 Z" id="Shape"></path>
                <path d="M1.20357115,0.120269006 C-0.976910331,3.8232768 0.258159844,8.59394737 3.96292982,10.7744288 C5.15460624,11.4755575 6.5117076,11.8478187 7.89524172,11.8495809 L28.3275361,11.8495809 C11.4101365,9.9699922 3.17721637,4.33078558 1.20357115,0.120269006 Z" id="Shape"></path>
            </g>
            <rect id="Rectangle-path" fill="#FEDAC6" x="9.45675634" y="103.381784" width="7.51879532" height="9.39838402"></rect>
            <rect id="Rectangle-path" fill="#F5C4B0" x="1.93796101" y="103.381784" width="7.51879532" height="9.39838402"></rect>
            <rect id="Rectangle-path" fill="#FEDAC6" x="65.847501" y="103.381784" width="15.0375906" height="9.39838402"></rect>
            <path d="M48.9303216,77.066 L33.892731,77.066 C32.6783665,78.2841092 31.0901988,79.0585887 29.3815419,79.2652047 L25.0582456,79.7727135 L25.6972573,81.2575731 C26.9058947,84.0845556 28.8533275,86.5320078 31.3362437,88.3439727 C36.2798285,87.6296277 45.452653,85.9192086 52.614386,78.9455887 C51.3475965,78.3968889 50.1182534,77.7691111 48.9303216,77.066 Z" id="Shape" fill="#F5C4B0"></path>
            <path d="M9.45675634,83.9268402 C4.95481871,85.5189727 1.94368811,89.7726628 1.93796101,94.547078 L1.93796101,103.381563 L9.45675634,103.381563 L9.45675634,83.9268402 Z" id="Shape" fill="#1C496E"></path>
            <circle id="Oval" fill="#000000" cx="30.1333333" cy="37.5924347" r="3.75939766"></circle>
            <circle id="Oval" fill="#000000" cx="52.6897193" cy="37.5924347" r="3.75939766"></circle>
            <path d="M41.4115263,52.6300253 L39.5319376,52.6300253 C38.9924893,52.6300253 38.4792534,52.3987388 38.122191,51.9947583 C37.7651287,51.5905575 37.5997037,51.0530916 37.665345,50.5173879 L39.5449337,35.4797973 L43.274154,35.9458947 L41.411306,50.8687232 L41.411306,52.6300253 L41.4115263,52.6300253 Z" id="Shape" fill="#000000"></path>
            <path d="M63.9679123,45.11123 L62.0883236,45.11123 L62.0883236,41.3518324 L63.9679123,41.3518324 C66.0411209,41.3518324 67.7273099,39.6656433 67.7273099,37.5924347 C67.7273099,35.5192261 66.0411209,33.833037 63.9679123,33.833037 L62.0883236,33.833037 L62.0883236,30.0736394 L63.9679123,30.0736394 C68.1145497,30.0736394 71.4867076,33.4457973 71.4867076,37.5924347 C71.4867076,41.7390721 68.1145497,45.11123 63.9679123,45.11123 Z" id="Shape" fill="#000000"></path>
            <path d="M20.7349493,45.11123 L18.8553606,45.11123 C14.7087232,45.11123 11.3365653,41.7390721 11.3365653,37.5924347 C11.3365653,33.4457973 14.7087232,30.0736394 18.8553606,30.0736394 L20.7349493,30.0736394 L20.7349493,33.833037 L18.8553606,33.833037 C16.782152,33.833037 15.095963,35.5192261 15.095963,37.5924347 C15.095963,39.6656433 16.782152,41.3518324 18.8553606,41.3518324 L20.7349493,41.3518324 L20.7349493,45.11123 Z" id="Shape" fill="#000000"></path>
            <path d="M41.6577914,80.8253977 C32.7105263,80.8234152 24.4529357,75.9663977 20.1071715,68.148692 L19.4155146,66.9156043 C17.8139103,64.0377388 16.9737895,60.7821053 16.9757719,57.4965146 L16.9757684,30.0736394 L20.7351696,30.0736394 L20.7351696,57.4982768 C20.7331871,60.1448558 21.411848,62.7689669 22.6975809,65.0829337 L23.3892378,66.314039 C27.0772671,72.945575 34.0753372,77.0640175 41.6560292,77.0657797 C49.9041481,77.0545458 57.3984932,72.1710955 60.7462008,64.6315945 C61.6409493,62.616538 62.0920682,60.4774678 62.0883236,58.2725361 L62.0883236,30.0736394 L65.8477399,30.0736394 L65.8477212,58.2690117 C65.8514659,61.0001754 65.2913119,63.6542437 64.1822378,66.1543411 C60.2309825,75.0546881 51.39077,80.8124016 41.6577914,80.8253977 Z" id="Shape" fill="#000000"></path>
            <path d="M41.4115263,62.0191579 C39.2986686,62.0191579 37.1860312,61.6828012 35.1764815,61.0116296 L36.3681579,57.4478343 C39.6200468,58.5342203 43.2027856,58.5342203 46.4564366,57.4478343 L47.6463509,61.0116296 C45.6352593,61.6825809 43.524384,62.0191579 41.4115263,62.0191579 Z" id="Shape" fill="#000000"></path>
            <path d="M54.8213002,59.7483645 C54.2968304,59.7483645 53.7705984,59.6375673 53.2800507,59.4157524 C52.3628343,59.0023002 51.6634678,58.2577778 51.3064055,57.3180936 L49.9755166,53.850117 C49.6992943,53.1188109 48.9924386,52.6320078 48.2142144,52.6320078 L34.6053138,52.6320078 C33.7632105,52.5888343 33.0882943,53.1093392 32.8103099,53.8443899 L31.4719318,57.3275653 C31.1899825,58.0756121 30.6542788,58.7318051 29.9681287,59.165963 C29.1222807,59.7016667 28.1147524,59.8728187 27.1354191,59.6584932 C26.1560858,59.4386608 25.3197096,58.8483294 24.7820234,58.000499 L17.2632281,46.1189786 L20.4400039,44.1096491 L27.9587992,55.9894074 L29.2951949,52.5044698 C30.1260643,50.3107719 32.1992729,48.8278947 34.6202924,48.8728304 L48.2104698,48.8728304 C50.5374327,48.8728304 52.6560175,50.3352222 53.482922,52.5099766 L54.8155731,55.9799357 L62.3757797,44.1041423 L65.5488109,46.120961 L57.9923489,58.0024815 C57.5599532,58.6829045 56.9039805,59.216846 56.1521891,59.50254 C55.7217758,59.6675244 55.2724191,59.7483645 54.8213002,59.7483645 Z" id="Shape" fill="#000000"></path>
            <path d="M58.3287057,18.7956667 L26.6748285,18.7956667 C25.1785146,18.7936842 23.6861657,18.4386043 22.3535146,17.7694152 C17.6053119,15.3653567 15.6975283,9.55147368 18.0998246,4.80899805 C18.5377271,3.94244444 19.1036082,3.14725926 19.7802865,2.44987524 L21.5528226,0.583282651 C21.9757466,0.139653021 22.5865634,-0.0671832359 23.1938558,0.0193840156 C23.7991657,0.109695906 24.3236355,0.489226121 24.5980955,1.0381462 L25.9589415,3.75807602 L48.6111462,3.75807602 C52.4099727,3.75807602 56.3442671,5.82203314 58.6337836,9.01378752 C60.5435497,11.675345 61.066037,14.6961676 60.1093918,17.517423 C59.8494698,18.284193 59.1333626,18.7956667 58.3287057,18.7956667 Z M22.4323723,5.11693957 C22.0338986,5.53986355 21.7087758,6.00221637 21.453039,6.50598051 C19.9869025,9.40080702 21.150384,12.9476413 24.0452105,14.4137778 C24.8533918,14.8197407 25.7651014,15.0360487 26.6768109,15.0378109 L56.8006725,15.0378109 C56.9039805,13.3705653 56.1277388,11.9738148 55.5788187,11.2070448 C53.9961579,9.00211306 51.1971501,7.51901559 48.6107057,7.51901559 L24.7950195,7.51901559 C24.0826569,7.51901559 23.432191,7.11679727 23.1127953,6.47954776 L22.4323723,5.11693957 Z" id="Shape" fill="#000000"></path>
            <path d="M63.9679123,33.833037 C63.4359532,33.833037 62.9152281,33.6054951 62.5524386,33.1920429 L49.3946569,18.1544522 L52.225384,15.6788051 L62.4658713,27.3836667 L62.5843782,25.9888986 C62.8795439,22.607269 60.8644873,19.4344581 57.6822047,18.2689942 L58.9774094,14.7389006 C63.7500624,16.4889688 66.7724269,21.2481852 66.3287973,26.3122593 L65.8400117,32.1129259 C65.7778947,32.8647173 65.270386,33.5057115 64.5542788,33.7407427 C64.3626413,33.8030799 64.1632943,33.833037 63.9679123,33.833037 Z" id="Shape" fill="#000000"></path>
            <path d="M18.8551404,33.833037 C18.6597583,33.833037 18.4623938,33.8028596 18.2687739,33.7389805 C17.5526667,33.5039493 17.0451579,32.8629552 16.9812788,32.1111637 L16.4924932,26.3030078 C16.0902749,21.6545887 18.5337622,17.3068421 22.7180663,15.2316511 L24.3890565,18.6000643 C21.5995205,19.9835984 19.9699415,22.8819493 20.2386745,25.9833918 L20.3571813,27.3836667 L30.5976686,15.6788051 L33.4266335,18.1544522 L20.2688519,33.1920429 C19.9060624,33.6074776 19.3870994,33.833037 18.8551404,33.833037 Z" id="Shape" fill="#000000"></path>
            <path d="M3.81776998,112.780168 L0.0583723197,112.780168 L0.0583723197,95.8629883 C0.0583723197,87.423232 6.36654776,80.2145809 14.7349357,79.0942729 L29.1634717,77.3988324 C30.4417154,77.2446413 31.6503528,76.6545302 32.5620624,75.739076 L35.2256023,78.3931442 C33.720037,79.9044366 31.7256862,80.8762807 29.6071014,81.1317973 L15.2030156,82.8234932 C8.72368811,83.691809 3.81578752,89.2970936 3.81776998,95.8629883 L3.81776998,112.780168 Z" id="Shape" fill="#000000"></path>
            <path d="M41.4209981,93.4963762 C41.4135088,93.4963762 41.4060195,93.4963762 41.4002924,93.4963762 C33.8026394,93.4963762 26.9622846,88.9851871 23.9698772,82.0001131 L22.7669669,79.2013255 L26.2219474,77.7182281 L27.4248577,80.5189981 C29.8251715,86.1185556 35.3101871,89.7369786 41.4022749,89.7369786 C41.4080019,89.7369786 41.4135088,89.7369786 41.4192359,89.7369786 C47.5113236,89.7369786 52.9981014,86.1185556 55.3984152,80.5189981 L56.6013255,77.7182281 L60.056306,79.2013255 L58.8533957,82.0020955 C55.8587856,88.983425 49.0168889,93.4963762 41.4209981,93.4963762 Z" id="Shape" fill="#000000"></path>
            <path d="M18.8551404,112.780168 L15.0957427,112.780168 L15.0957427,105.261372 L1.93796101,105.261372 L1.93796101,101.501975 L16.9755517,101.501975 C18.013037,101.501975 18.8551404,102.342096 18.8551404,103.381563 L18.8551404,112.780168 Z" id="Shape" fill="#000000"></path>
            <path d="M82.7649006,112.780168 L79.0055029,112.780168 L79.0055029,95.8629883 C79.0055029,89.2973138 74.0995848,83.6900468 67.5900799,82.821731 L53.2216784,81.1337797 C51.1013314,80.8780429 49.1069805,79.9064191 47.5994327,78.3951267 L50.2609903,75.7410585 C51.174462,76.6565127 52.3850819,77.2466238 53.6670702,77.4008148 L68.059922,79.0925107 C76.4547427,80.2128187 82.7646803,87.423232 82.7646803,95.8632086 L82.7649006,112.780168 Z" id="Shape" fill="#000000"></path>
            <path d="M67.7273099,112.780168 L63.9679123,112.780168 L63.9679123,103.381784 C63.9679123,102.342316 64.8080331,101.502195 65.847501,101.502195 L80.8850916,101.502195 L80.8850916,105.261593 L67.7273099,105.261593 L67.7273099,112.780168 Z" id="Shape" fill="#000000"></path>
        </g>
    </g>
</svg>