<?xml version="1.0" encoding="UTF-8"?>
<svg width="120px" height="120px" viewBox="0 0 120 120" version="1.1" xmlns="http://www.w3.org/2000/svg" xmlns:xlink="http://www.w3.org/1999/xlink">
    <!-- Generator: Sketch 49 (51002) - http://www.bohemiancoding.com/sketch -->
    <title>User/User06</title>
    <desc>Created with Sketch.</desc>
    <defs></defs>
    <g id="User/User06" stroke="none" stroke-width="1" fill="none" fill-rule="evenodd">
        <g id="702012" transform="translate(20.000000, 10.000000)" fill-rule="nonzero">
            <path d="M69.0513878,75.7814454 L56.3704498,74.1860465 L55.5663951,76.0197667 C51.9392627,84.4862974 42.1599878,88.3997953 33.7237305,84.7596469 C29.8135195,83.0724869 26.6979414,79.9440094 25.015101,76.0197667 L24.2110463,74.1860465 L11.5301083,75.7814454 C6.00814774,76.4691173 1.87674135,81.2003001 1.91892478,86.784196 L1.91860465,110 L78.6627907,110 L78.6627855,86.7107011 C78.6681387,81.154312 74.5459399,76.4671832 69.0513878,75.7814454 Z" id="Shape" fill="#DBDBDB"></path>
            <path d="M1.91860465,87.6815816 L1.91860465,110 L9.59302326,110 L9.59302326,76.744186 C3.83715309,78.5916591 1.91860465,82.2868217 1.91860465,87.6815816 Z" id="Shape" fill="#BFBFBF"></path>
            <g id="Group" transform="translate(1.918605, 78.662791)" fill="#8C8C8C">
                <rect id="Rectangle-path" x="0.163365633" y="9.29585271" width="77.0397933" height="3.63831395"></rect>
                <rect id="Rectangle-path" x="0.163365633" y="18.3913178" width="77.0397933" height="3.63831395"></rect>
                <rect id="Rectangle-path" x="0.163365633" y="27.4869961" width="77.0397933" height="3.63831395"></rect>
                <rect id="Rectangle-path" x="1.99757477" y="0.200174419" width="73.37116" height="3.63831395"></rect>
            </g>
            <path d="M40.2904848,86.3372068 C46.9001957,86.340847 52.8758479,82.3794537 55.4795766,76.2690582 L56.2790698,74.4418923 L52.6452617,73.9851544 C50.8173926,73.7530381 49.4511217,72.1834699 49.4658128,70.3306085 L49.4658128,60.755814 L31.2062841,60.755814 L31.2062841,70.3121934 C31.2207622,72.1650548 29.8544913,73.734623 28.0268351,73.9667393 L24.3023256,74.4234772 L25.1018187,76.2506431 C27.6995858,82.3685331 33.6771543,86.3372068 40.2904848,86.3372068 Z" id="Shape" fill="#FEDAC6"></path>
            <path d="M49.244186,70.8751384 L49.244186,60.755814 L31.3372093,60.755814 L31.3372093,70.8751384 C38.052142,74.4369694 42.5290435,74.4369694 49.244186,70.8751384 Z" id="Shape" fill="#F5C4B0"></path>
            <path d="M64.5928071,29.6317829 L64.5928071,25.9366203 C64.5928071,12.6713178 53.8560164,1.91860465 40.610357,1.91860465 C27.3646976,1.91860465 16.627907,12.6713178 16.627907,25.9366203 L16.627907,35.1744186 L64.5930233,35.1744186 L64.5930233,29.6317829 L64.5928071,29.6317829 Z" id="Shape" fill="#70432C"></path>
            <path d="M60.755814,28.9825438 L60.4079235,43.3437861 C60.4609333,51.0986277 56.0857973,58.1943434 49.1631843,61.5814758 L45.5003546,63.427331 L48.9616611,61.6736279 L45.5003546,63.427331 C42.4107608,64.9815873 38.7736849,64.9815873 35.6840911,63.427331 L32.0212614,61.5814758 C25.0986485,58.1941271 20.7235124,51.0984114 20.7765223,43.3437861 L20.4651163,30.828399 L25.007008,20.1404799 C25.5858239,18.7837233 26.9117138,17.9050331 28.3766739,17.90698 L52.9904089,17.90698 C54.3804686,17.90698 55.6494855,18.7006566 56.268649,19.9559593 L60.755814,28.9825438 Z" id="Shape" fill="#FEDAC6"></path>
            <path d="M27.7303146,45.2584169 C26.7567401,36.1414349 27.0819744,26.9334263 28.6930337,17.9076847 L28.311607,17.9076847 C26.827619,17.8784109 25.4762364,18.7591899 24.8968596,20.1322822 L20.4651163,30.6715022 L20.8101456,43.0521957 C20.7720455,50.7084776 25.1056651,57.7121881 31.9624048,61.0671401 L32.6162791,61.3953488 L31.3630201,59.0250233 C28.9652684,54.7946343 28.4931678,50.4732186 27.7303146,45.2584169 Z" id="Shape" fill="#F5C4B0"></path>
            <circle id="Oval" fill="#5C3724" cx="65.2325581" cy="10.2325581" r="8.31395349"></circle>
            <path d="M60.6706894,3.59022117 C60.6706894,3.45944527 60.6706894,3.32845032 60.6706894,3.19767442 C58.3256715,4.73040298 56.9149675,7.33803494 56.9187048,10.13274 C56.8962813,14.7572123 60.64255,18.5238648 65.2835617,18.5464274 C67.3940118,18.5558468 69.4294969,17.7744773 70.9883721,16.3574098 C64.968533,15.0415458 60.6781639,9.73077384 60.6706894,3.59022117 Z" id="Shape" fill="#4F2E20"></path>
            <path d="M22.3181095,10.2325581 C18.643119,14.4777197 16.6242786,19.890041 16.6279119,25.4870636 L16.627907,34.5348837 L26.2209302,34.5348837 C23.5181718,26.7176282 22.1977827,18.496829 22.3181095,10.2325581 Z" id="Shape" fill="#5C3724"></path>
            <path d="M12.7906977,34.8546512 C12.7906977,37.8572175 15.1955299,40.2906977 18.1627487,40.2906977 L21.744186,40.2906977 L21.744186,29.4186047 L18.1627487,29.4186047 C15.1955299,29.4186047 12.7906977,31.8520848 12.7906977,34.8546512 Z" id="Shape" fill="#F5C4B0"></path>
            <path d="M61.7791117,29.4186047 L58.1976744,29.4186047 L58.1976744,40.2906977 L61.7791117,40.2906977 C64.7463306,40.2906977 67.1511628,37.8572175 67.1511628,34.8546512 C67.1511628,31.8520848 64.7463306,29.4186047 61.7791117,29.4186047 Z" id="Shape" fill="#FEDAC6"></path>
            <g id="Group" transform="translate(20.465116, 29.418605)" fill="#EBEBEB">
                <path d="M10.9927168,10.8175235 L5.50632391,10.8175235 C2.4759491,10.8175235 0.0199310366,8.42148144 0.0199310366,5.46510845 L0.0199310366,1.89676208 C0.0199310366,0.912001342 0.83924666,0.112693426 1.84865722,0.112693426 L16.4791097,0.112693426 L16.4791097,5.46510845 C16.4791097,8.42148144 14.0230916,10.8175235 10.9927168,10.8175235 Z" id="Shape"></path>
                <path d="M34.7672288,10.8175235 L29.2808359,10.8175235 C26.2504611,10.8175235 23.794443,8.42148144 23.794443,5.46510845 L23.794443,0.112693426 L38.4248955,0.112693426 C39.434306,0.112693426 40.2536217,0.912001342 40.2536217,1.89676208 L40.2536217,5.46510845 C40.2536217,8.42148144 37.7976036,10.8175235 34.7672288,10.8175235 Z" id="Shape"></path>
            </g>
            <g id="Group" transform="translate(27.500000, 1.918605)" fill="#5C3724">
                <rect id="Rectangle-path" x="11.0487695" y="0.114903101" width="3.66673828" height="16.372093"></rect>
                <rect id="Rectangle-path" transform="translate(3.715396, 10.121199) rotate(164.055391) translate(-3.715396, -10.121199) " x="1.88218728" y="3.49996511" width="3.66641773" height="13.242467"></rect>
                <rect id="Rectangle-path" transform="translate(22.963814, 10.120184) rotate(113.209123) translate(-22.963814, -10.120184) " x="15.9820433" y="8.3009731" width="13.9635412" height="3.63842241"></rect>
            </g>
            <path d="M36.9680304,46.6860465 L33.1728189,43.1422342 C32.4307658,42.4493355 32.4307658,41.3295266 33.1728189,40.6368355 L36.9680304,37.0930233 L39.6511628,39.5984219 L37.1975176,41.8895349 L39.6511628,44.1806478 L36.9680304,46.6860465 Z" id="Shape" fill="#000000"></path>
            <path d="M3.62198364,109.360252 L0.000370652378,109.360252 L0.000370652378,86.2435222 C-0.048438148,79.7908289 4.72867014,74.3140065 11.1137101,73.516672 L27.4116052,71.4798213 C28.3188122,71.3650632 28.9998011,70.5824467 28.9942836,69.6596887 L28.9942836,62.0348837 L32.6162791,62.0348837 L32.6161088,69.645184 C32.6377544,72.3972467 30.5933023,74.7453095 27.8625561,75.0912904 L11.562751,77.128141 C7.00125033,77.697879 3.58951518,81.6113881 3.62389355,86.2292308 L3.62389355,109.360465 L3.62198364,109.360465 L3.62198364,109.360252 Z" id="Shape" fill="#000000"></path>
            <path d="M80.5810248,109.360465 L76.9590111,109.360465 L76.9590111,86.334713 C76.9953012,81.700425 73.5833885,77.788818 69.0214381,77.2190775 L52.7226946,75.1805112 C49.9881983,74.834742 47.9436398,72.4866686 47.9652866,69.7198754 L47.9651163,62.0348837 L51.5873003,62.0348837 L51.5873003,69.7343802 C51.5800847,70.6718605 52.2608968,71.4525607 53.1719711,71.5692392 L69.4671068,73.6078054 C75.8507814,74.4051436 80.6298361,79.8802842 80.5810248,86.3492179 L80.5810248,109.360465 Z" id="Shape" fill="#000000"></path>
            <path d="M40.6198324,87.6162791 C40.6125109,87.6162791 40.6051893,87.6162791 40.5995904,87.6162791 C33.1740034,87.6162791 26.4850964,83.2277746 23.5596955,76.4328783 L22.3837209,73.7102056 L25.7611216,72.2674419 L26.9370961,74.9920431 C29.2836617,80.4393172 34.6475786,83.9591206 40.6013131,83.9591206 C40.606912,83.9591206 40.6122955,83.9591206 40.6178944,83.9591206 C46.5752897,83.9591206 51.9392066,80.4410314 54.2838341,74.9937574 L55.4598087,72.2674419 L58.8372093,73.7102056 L57.6612348,76.4348068 C54.7377719,83.2258461 48.0473575,87.6162791 40.6198324,87.6162791 Z" id="Shape" fill="#000000"></path>
            <path d="M37.8866056,53.0813953 C37.8846246,53.0813953 37.8828638,53.0813953 37.8808828,53.0813953 L36.4534884,53.0813953 L36.4534884,49.5467639 L37.8808828,49.5467639 C37.8828638,49.5467639 37.8846246,49.5467639 37.8866056,49.5467639 C40.3452017,49.5467639 42.8057788,49.0006326 45.0050887,47.9651163 L46.6860465,51.1267547 C43.9683844,52.4064458 40.9256241,53.0813953 37.8866056,53.0813953 Z" id="Shape" fill="#000000"></path>
            <polygon id="Shape" fill="#000000" points="55.3325581 58.8372093 55 58.8372093 55 55"></polygon>
            <path d="M18.3638486,30.6976744 L14.7093023,30.6976744 L14.7093023,25.2804502 C14.7093023,11.3401971 26.184282,0 40.2906977,0 C54.3971134,0 65.872093,11.3399855 65.872093,25.2804502 L65.872093,28.8920036 L62.2175468,28.8920036 L62.2175468,25.2804502 C62.2175468,13.3318734 52.3815135,3.61155335 40.2906977,3.61155335 C28.1998819,3.61155335 18.3638486,13.3318734 18.3638486,25.2804502 L18.3638486,30.6976744 Z" id="Shape" fill="#000000"></path>
            <path d="M39.952921,66.5116279 C37.999607,66.5116279 36.0482111,66.0645291 34.2677436,65.1683987 L30.6302957,63.3359807 C23.3100037,59.7533919 18.5596037,52.1926543 18.4577288,43.9941244 L18.1467757,43.9941244 C14.1346496,43.9941244 10.872093,40.7065951 10.872093,36.6642376 C10.872093,32.62188 14.1348627,29.3343507 18.1467757,29.3343507 L19.9653931,29.3343507 C20.951108,29.3343507 21.7586483,30.127833 21.7840105,31.1210281 L22.0932585,43.5453076 C22.0478624,50.5565131 26.0271668,57.0104556 32.2359986,60.0469482 L35.8934805,61.8886002 C38.434174,63.1695534 41.4695366,63.1695534 44.0121483,61.8905329 L47.4494694,60.1495962 C47.5021119,60.1221089 47.5566726,60.1002049 47.6095282,60.0780862 L47.6513012,60.0561822 C53.8784619,57.0106704 57.8596846,50.5547951 57.8140753,43.602215 L58.15785,29.2886101 C58.1832122,28.295415 58.9890475,27.5 59.9764674,27.5 L61.7950848,27.5 C65.8072109,27.5 69.0697674,30.7875293 69.0697674,34.8298869 C69.0697674,38.8722444 65.8069978,42.1597737 61.7950848,42.1597737 L61.4858367,42.1597737 L61.4493919,43.6331383 C61.5039525,51.9323835 56.7190259,59.6930486 49.2570041,63.341564 L45.6395902,65.1649628 C45.6376721,65.1649628 45.6359671,65.1668955 45.6359671,65.1668955 C43.8557126,66.0645291 41.9043168,66.5116279 39.952921,66.5116279 Z M18.1467757,32.9991868 C16.1408192,32.9991868 14.5093278,34.6428441 14.5093278,36.6642376 C14.5093278,38.6854164 16.1406061,40.3292884 18.1467757,40.3292884 L18.3758878,40.3292884 L18.1467757,32.9991868 Z M61.5753503,38.4966556 L61.795511,38.4966556 C63.8014675,38.4966556 65.4329589,36.8529983 65.4329589,34.8316048 C65.4329589,32.8102113 63.8016807,31.166554 61.795511,31.166554 L61.7518199,31.166554 L61.5753503,38.4966556 Z" id="Shape" fill="#000000"></path>
            <path d="M21.9029651,31.9767442 L18.5465116,30.535909 L22.6006212,21.0639821 C23.7547499,18.3650948 26.3863686,16.627907 29.3154543,16.627907 C29.3336447,16.627907 29.3520491,16.627907 29.3702395,16.627907 L51.5454315,16.627907 C54.3302778,16.6315498 56.8322096,18.1820975 58.0721542,20.6744167 L62.0348837,28.6084384 L58.7678843,30.2449135 L54.8051548,22.3089631 C54.1843265,21.0618393 52.9351796,20.2865654 51.5435055,20.2848512 L29.3554732,20.2848512 C29.346271,20.2848512 29.3372828,20.2848512 29.3280806,20.2848512 C27.8508045,20.2848512 26.5359581,21.1533379 25.9587868,22.5028888 L21.9029651,31.9767442 Z" id="Shape" fill="#000000"></path>
            <path d="M64.5033253,20.4651163 C64.3255784,20.4651163 64.1354206,20.4594521 63.9414766,20.4483416 L64.1514073,16.7358988 C64.3811111,16.7507128 64.6127081,16.7507128 64.838836,16.7358988 C67.6030647,16.7339381 69.9850848,14.9902381 70.8719266,12.3951663 C71.4318822,10.7556004 71.3422725,8.98946143 70.6169806,7.42047999 C69.8935819,5.85324138 68.6245315,4.67095004 67.0431091,4.09102383 C63.7816094,2.89566127 60.1808129,4.67465355 59.0230384,8.05639457 L55.6395349,6.81637203 C57.4561302,1.49965557 63.1120607,-1.29257369 68.2385365,0.584888411 C70.7263634,1.4957342 72.7207057,3.35293592 73.856814,5.81794911 C74.9931327,8.28296229 75.1349096,11.0584168 74.2552197,13.6332282 C72.8658482,17.7118828 69.125168,20.4503022 64.9482187,20.4503022 C64.9463256,20.4503022 64.9446427,20.4503022 64.9427496,20.4503022 C64.8192733,20.4594521 64.6684513,20.4651163 64.5033253,20.4651163 Z" id="Shape" fill="#000000"></path>
            <path d="M31.5696485,42.2093023 L25.988273,42.2093023 C21.8839998,42.2093023 18.5465116,38.9107143 18.5465116,34.8547589 L18.5465116,31.1773794 C18.5465116,29.1494018 20.2152557,27.5 22.2675013,27.5 L37.1512421,27.5 C38.178128,27.5 39.0116279,28.3237313 39.0116279,29.338582 L39.0116279,34.8545434 C39.0116279,38.9109298 35.6739217,42.2093023 31.5696485,42.2093023 Z M22.2675013,31.1773794 L22.2675013,34.8547589 C22.2675013,36.8827366 23.9362454,38.5321383 25.988491,38.5321383 L31.5698665,38.5321383 C33.6218941,38.5321383 35.2908562,36.8829521 35.2908562,34.8547589 L35.2908562,31.1773794 L22.2675013,31.1773794 Z" id="Shape" fill="#000000"></path>
            <path d="M54.8254662,42.2093023 L49.4185086,42.2093023 C45.442494,42.2093023 42.2093023,38.910666 42.2093023,34.8546512 L42.2093023,29.3386089 C42.2093023,28.3237433 43.0167554,27.5 44.0115511,27.5 L58.430175,27.5 C60.4180767,27.5 62.0348837,29.1492104 62.0348837,31.1774333 L62.0348837,34.8548666 C62.0346725,38.9108814 58.8012697,42.2093023 54.8254662,42.2093023 Z M45.8137999,31.1772178 L45.8137999,34.8546512 C45.8137999,36.8826586 47.4303957,38.5320845 49.4185086,38.5320845 L54.8254662,38.5320845 C56.8133679,38.5320845 58.430175,36.882874 58.430175,34.8546512 L58.430175,31.1772178 L45.8137999,31.1772178 Z" id="Shape" fill="#000000"></path>
            <rect id="Rectangle-path" fill="#000000" x="36.4534884" y="27.5" width="7.6744186" height="3.8372093"></rect>
            <circle id="Oval" fill="#000000" cx="29.4186047" cy="33.255814" r="3.8372093"></circle>
            <circle id="Oval" fill="#000000" cx="51.8023256" cy="33.255814" r="3.8372093"></circle>
        </g>
    </g>
</svg>