<?xml version="1.0" encoding="UTF-8"?>
<svg width="120px" height="120px" viewBox="0 0 120 120" version="1.1" xmlns="http://www.w3.org/2000/svg" xmlns:xlink="http://www.w3.org/1999/xlink">
    <!-- Generator: Sketch 49 (51002) - http://www.bohemiancoding.com/sketch -->
    <title>User/User03</title>
    <desc>Created with Sketch.</desc>
    <defs></defs>
    <g id="User/User03" stroke="none" stroke-width="1" fill="none" fill-rule="evenodd">
        <g id="702011" transform="translate(15.000000, 10.000000)" fill-rule="nonzero">
            <path d="M7.38009766,81.73 C2.75085938,79.6803906 0.659140625,74.266543 2.70703125,69.6373047 C3.51183594,67.8167187 4.88876953,66.3078711 6.62857422,65.34 C2.96376953,61.8475 2.82261719,56.045 6.31511719,52.3801953 C7.8478125,50.7705859 9.91568359,49.7732812 12.1285742,49.5732617 C11.4318359,48.4494141 11.0580078,47.1551953 11.0468359,45.8332617 C11.0468359,41.783457 14.330293,38.5 18.3800977,38.5 L18.3800977,27.5 C18.3800977,13.3246094 29.8714453,1.83326172 44.0468359,1.83326172 C58.2222266,1.83326172 69.7135742,13.3246094 69.7135742,27.5 L69.7135742,38.5 C73.7633789,38.5 77.0468359,41.783457 77.0468359,45.8332617 C77.0285742,47.1294141 76.6599023,48.3944141 75.9835742,49.5 C81.0253125,49.9546094 84.7451172,54.4096094 84.2905078,59.4530664 C84.0907031,61.6676758 83.0933984,63.7338281 81.4835742,65.2665234 C85.9256836,67.6938281 87.5591406,73.2634375 85.1318359,77.7057617 C84.1491406,79.5025 82.5945312,80.9196094 80.7135742,81.73 L7.38009766,81.73 Z" id="Shape" fill="#70432C"></path>
            <path d="M26.7035742,8.61673828 C21.4089648,13.4696289 18.3912695,20.3188477 18.3803125,27.5 L18.3803125,38.5 C14.3305078,38.5 11.0470508,41.783457 11.0470508,45.8332617 C11.0653125,47.1294141 11.4339844,48.3944141 12.1103125,49.5 C7.06857422,49.9546094 3.34876953,54.4096094 3.80337891,59.4530664 C4.00318359,61.6676758 5.00048828,63.7338281 6.6103125,65.2665234 C2.16820312,67.6938281 0.534746094,73.2634375 2.96205078,77.7057617 C3.94474609,79.5025 5.49935547,80.9196094 7.3803125,81.73 L55.0470508,81.73 C53.8187891,80.8132617 52.5903125,79.8967383 51.3803125,78.8332617 C27.0150977,59.345 25.8050977,24.6767383 26.7035742,8.61673828 Z" id="Shape" fill="#5C3724"></path>
            <path d="M66.0468359,31.1667383 L62.3800977,31.1667383 L62.3800977,42.1667383 L66.0468359,42.1667383 C69.0847266,42.1667383 71.5468359,39.7046289 71.5468359,36.6667383 C71.5468359,33.6288477 69.0847266,31.1667383 66.0468359,31.1667383 Z" id="Shape" fill="#FEDAC6"></path>
            <path d="M16.5468359,36.6667383 C16.5468359,39.7046289 19.0089453,42.1667383 22.0468359,42.1667383 L25.7135742,42.1667383 L25.7135742,31.1667383 L22.0468359,31.1667383 C19.0089453,31.1667383 16.5468359,33.6288477 16.5468359,36.6667383 Z" id="Shape" fill="#F5C4B0"></path>
            <path d="M72.9035742,75.79 L60.1803125,74.195 L59.3735742,76.0282617 C55.7343359,84.4926758 45.9224219,88.4051953 37.4580078,84.765957 C33.5347461,83.0792188 30.4087695,79.9515234 28.7203125,76.0282617 L27.9135742,74.195 L15.1903125,75.79 C9.64992188,76.4775 5.50472656,81.2075 5.54705078,86.79 L5.54672958,110 L82.547056,110 L82.5470508,86.7167383 C82.5524219,81.1617383 78.4145312,76.4757813 72.9035742,75.79 Z" id="Shape" fill="#A15D30"></path>
            <path d="M44.0468359,86.1667383 C50.7164453,86.1703906 56.74625,82.1957812 59.3735742,76.065 L60.1803125,74.2317383 L56.5135742,73.7734766 C54.6691406,73.5405859 53.2904883,71.9657812 53.3053125,70.1067383 L53.3053125,60.5 L34.8803125,60.5 L34.8803125,70.0882617 C34.8949219,71.9473047 33.5162695,73.5221094 31.6720508,73.755 L27.9137891,74.2132617 L28.7205273,76.0465234 C31.3418359,82.1846094 37.3716406,86.1667383 44.0468359,86.1667383 Z" id="Shape" fill="#FEDAC6"></path>
            <path d="M53.2135742,70.6567383 L53.2135742,60.5 L34.8803125,60.5 L34.8803125,70.6567383 C41.7550977,74.2317383 46.3385742,74.2317383 53.2135742,70.6567383 Z" id="Shape" fill="#F5C4B0"></path>
            <path d="M5.54683594,87.8532617 L5.54683594,110 L12.8800977,110 L12.8800977,77 C7.38009766,78.8332617 5.54683594,82.5 5.54683594,87.8532617 Z" id="Shape" fill="#8F4F24"></path>
            <path d="M64.2135742,31.1667383 L63.2053125,45.8334766 C62.7543555,56.0873242 54.3099219,64.1667383 44.0470508,64.1667383 C33.7839648,64.1667383 25.3397461,56.0873242 24.8887891,45.8334766 L23.8805273,31.1667383 L44.0472656,14.6667383 L64.2135742,31.1667383 Z" id="Shape" fill="#FEDAC6"></path>
            <path d="M31.2135742,25.1167383 L23.8803125,31.1667383 L24.8885742,45.8334766 C25.1930078,52.7048242 29.1620312,58.8850195 35.2835742,62.0217383 C34.4072266,59.7246289 33.6610742,57.3798242 33.0468359,55 C31.8368359,50.16 31.4335742,34.8332617 31.2135742,25.1167383 Z" id="Shape" fill="#F5C4B0"></path>
            <g id="Group" transform="translate(18.906250, 3.867188)" fill="#5C3724">
                <rect id="Rectangle-path" transform="translate(37.970335, 11.711676) rotate(128.156905) translate(-37.970335, -11.711676) " x="36.1371239" y="-4.60772481" width="3.66642175" height="32.6388018"></rect>
                <rect id="Rectangle-path" transform="translate(13.223452, 10.798807) rotate(142.418483) translate(-13.223452, -10.798807) " x="-1.81135627" y="8.96540601" width="30.0696166" height="3.66680109"></rect>
            </g>
            <circle id="Oval" fill="#000000" cx="55.0431836" cy="34.8332617" r="3.66673828"></circle>
            <path d="M45.2989453,45.7398047 L39.7989453,43.906543 C38.8383789,43.5857813 38.3195312,42.5480859 38.640293,41.5873047 L42.3070313,30.5873047 L45.7849219,31.7478906 L42.6976172,41.0080859 L46.4578125,42.2621289 L45.2989453,45.7398047 Z" id="Shape" fill="#000000"></path>
            <path d="M7.38009766,110 L3.71357422,110 L3.71357422,86.7167383 C3.66416016,80.2194336 8.50050781,74.7011719 14.9630078,73.8980859 L31.4630078,71.8448242 C32.3833984,71.7292383 33.0726172,70.9409766 33.0653125,70.0115625 L33.0653125,62.3334766 L36.7322233,62.3334766 L36.7320508,69.9967383 C36.7539648,72.7723047 34.6860938,75.1373047 31.9176172,75.4821289 L15.4176172,77.5353906 C10.7995508,78.1092383 7.34550781,82.0509766 7.38203125,86.7021289 L7.38203125,110 L7.38009766,110 Z" id="Shape" fill="#000000"></path>
            <path d="M84.3985742,110 L80.7318359,110 L80.7318359,86.8082617 C80.7685742,82.1425 77.3125977,78.2026953 72.69625,77.6269141 L56.19625,75.5753711 C53.4279883,75.2271094 51.3581836,72.8621094 51.3800977,70.0753711 L51.3799253,62.3332617 L55.0468359,62.3332617 L55.0468359,70.0882617 C55.0395313,71.0325 55.72875,71.8188281 56.6510742,71.9363477 L73.1474219,73.9878906 C79.6118555,74.7909766 84.4479883,80.3092383 84.3985742,86.8211523 L84.3985742,110 Z" id="Shape" fill="#000000"></path>
            <path d="M66.0468359,44 L64.2135742,44 L64.2135742,40.3332617 L66.0468359,40.3332617 C68.0689453,40.3332617 69.7135742,38.6888477 69.7135742,36.6665234 C69.7135742,34.6444141 68.0691602,32.9997852 66.0468359,32.9997852 L64.2135742,32.9997852 L64.2135742,29.3330469 L66.0468359,29.3330469 C70.0912695,29.3330469 73.3800977,32.6220898 73.3800977,36.6663086 C73.3800977,40.7105273 70.0912695,44 66.0468359,44 Z" id="Shape" fill="#000000"></path>
            <path d="M44.0560742,88 C44.0487695,88 44.0414648,88 44.0358789,88 C36.6254883,88 29.9539453,83.6 27.035293,76.7873047 L25.8620313,74.0575 L29.2316406,72.610957 L30.4049023,75.3426953 C32.7460547,80.8042383 38.0956641,84.3332617 44.0375977,84.3332617 C44.0431836,84.3332617 44.0485547,84.3332617 44.0541406,84.3332617 C49.9960742,84.3332617 55.3474023,80.8040234 57.6885547,75.3426953 L58.8618164,72.610957 L62.2314258,74.0575 L61.0581641,76.7892383 C58.137793,83.6 51.4645313,88 44.0560742,88 Z" id="Shape" fill="#000000"></path>
            <path d="M44.0468359,66 C32.7737695,66 23.55375,57.1761523 23.0570313,45.914043 L22.0504883,29.4451953 L25.7099219,29.221543 L26.7181836,45.721543 C27.12875,55.0496289 34.7408789,62.3334766 44.0468359,62.3334766 C53.352793,62.3334766 60.9649219,55.0496289 61.3737695,45.7529102 L62.3839648,29.2217578 L66.0433984,29.4454102 L65.0351367,45.9454102 C64.5399219,57.1780859 55.3201172,66 44.0468359,66 Z" id="Shape" fill="#000000"></path>
            <path d="M41.7772266,53.1667383 C41.775293,53.1667383 41.7735742,53.1667383 41.7716406,53.1667383 L40.3800977,53.1667383 L40.3800977,49.5 L41.7733594,49.5 C41.775293,49.5 41.7770117,49.5 41.7789453,49.5 C44.17875,49.5 46.582207,48.933457 48.727207,47.8592383 L50.3679687,51.139043 C47.715293,52.4663477 44.745293,53.1667383 41.7772266,53.1667383 Z" id="Shape" fill="#000000"></path>
            <circle id="Oval" fill="#000000" cx="33.0431836" cy="34.8332617" r="3.66673828"></circle>
            <path d="M63.0529883,32.5855664 L44.0468359,17.0351758 L25.0406836,32.5855664 L22.717793,29.7474805 L42.8845312,13.2474805 C43.5591406,12.6938281 44.5308789,12.6938281 45.2074219,13.2474805 L65.3741602,29.7474805 L63.0529883,32.5855664 Z" id="Shape" fill="#000000"></path>
            <path d="M23.8800977,44 L22.0468359,44 C18.0024023,44 14.7135742,40.710957 14.7135742,36.6667383 C14.7135742,32.6225195 18.0026172,29.3334766 22.0468359,29.3334766 L23.8800977,29.3334766 L23.8800977,33 L22.0468359,33 C20.0247266,33 18.3800977,34.6444141 18.3800977,36.6667383 C18.3800977,38.6888477 20.0245117,40.3334766 22.0468359,40.3334766 L23.8800977,40.3334766 L23.8800977,44 Z" id="Shape" fill="#000000"></path>
            <path d="M71.5468359,33 L67.8800977,33 L67.8800977,27.5 C67.8800977,14.3586523 57.1881836,3.66673828 44.0468359,3.66673828 C30.9054883,3.66673828 20.2135742,14.3586523 20.2135742,27.5 L20.2135742,33 L16.5468359,33 L16.5468359,27.5 C16.5468359,12.336543 28.8833789,0 44.0468359,0 C59.210293,0 71.5468359,12.336543 71.5468359,27.5 L71.5468359,33 Z" id="Shape" fill="#000000"></path>
            <rect id="Rectangle-path" fill="#000000" x="42.2099219" y="1.83326172" width="3.66673828" height="12.8332617"></rect>
            <path d="M6.65607422,83.4148047 C4.40837891,82.4486523 2.52742187,80.7326953 1.35222656,78.584043 C-0.057578125,76.0063477 -0.376621094,73.0346289 0.4503125,70.2148047 C1.06626953,68.1138477 2.26337891,66.285957 3.90070312,64.9073047 C2.81896484,63.3507617 2.14994141,61.5303906 1.97763672,59.6163477 C1.51013672,54.4078906 4.76802734,49.7071094 9.54744141,48.1617383 C9.33839844,47.4136523 9.22667969,46.64 9.21378906,45.859043 C9.21378906,40.7788477 13.3258984,36.6648047 18.3805273,36.6648047 L18.3805273,40.331543 C15.3482227,40.331543 12.8805273,42.7992383 12.8805273,45.831543 C12.893418,46.7701953 13.168418,47.7161523 13.674375,48.5411523 C14.0063086,49.0819141 14.0338086,49.7567383 13.7495703,50.3213477 C13.465332,50.8878906 12.9080273,51.2673047 12.2755273,51.3242383 C8.24763672,51.6873242 5.26667969,55.2586719 5.62976562,59.2863477 C5.78917969,61.0592383 6.58667969,62.7092383 7.87552734,63.9357812 C8.29898437,64.3409766 8.50609375,64.9221289 8.42917969,65.5013477 C8.35226562,66.0807812 8.00378906,66.5921094 7.49052734,66.8726953 C5.77091797,67.8113477 4.52052734,69.3623047 3.97052734,71.2432617 C3.42052734,73.1242187 3.63322266,75.1042187 4.571875,76.8238281 C5.35476562,78.2557617 6.60880859,79.3995898 8.10648437,80.0432617 L6.65607422,83.4148047 Z" id="Shape" fill="#000000"></path>
            <path d="M81.4375977,83.4148047 L79.9874023,80.0451953 C81.4833594,79.4017383 82.7393359,78.2576953 83.5239453,76.8257617 C85.4618359,73.2763281 84.152793,68.8140234 80.6033594,66.8744141 C80.0900977,66.5938281 79.7399023,66.0825 79.664707,65.5030664 C79.587793,64.9236328 79.7929687,64.3407617 80.2183594,63.9375 C81.5052734,62.7128906 82.304707,61.060957 82.4641211,59.2880664 C82.827207,55.2621094 79.8460352,51.6888281 75.8183594,51.325957 C75.1858594,51.2690234 74.6302734,50.8896094 74.3443164,50.3230664 C74.0583594,49.7565234 74.0875781,49.0836328 74.4195117,48.5428711 C74.92375,47.7198047 75.19875,46.7736328 75.2133594,45.8057617 C75.2133594,42.800957 72.7456641,40.3332617 69.7133594,40.3332617 L69.7133594,36.6665234 C74.7677734,36.6665234 78.8800977,40.7786328 78.8800977,45.8332617 C78.867207,46.6288281 78.7554883,47.41 78.5445117,48.163457 C83.3239258,49.709043 86.5854687,54.4096094 86.11625,59.6180664 C85.9420117,61.5338281 85.2729883,63.3544141 84.19125,64.910957 C88.0981836,68.2146094 89.2860547,73.9273047 86.7414453,78.5857617 C85.5645312,80.7344141 83.6816406,82.4505859 81.4375977,83.4148047 Z" id="Shape" fill="#000000"></path>
        </g>
    </g>
</svg>