<?xml version="1.0" encoding="UTF-8"?>
<svg width="120px" height="120px" viewBox="0 0 120 120" version="1.1" xmlns="http://www.w3.org/2000/svg" xmlns:xlink="http://www.w3.org/1999/xlink">
    <!-- Generator: Sketch 49 (51002) - http://www.bohemiancoding.com/sketch -->
    <title>User/User02</title>
    <desc>Created with Sketch.</desc>
    <defs></defs>
    <g id="User/User02" stroke="none" stroke-width="1" fill="none" fill-rule="evenodd">
        <g id="702023" transform="translate(18.000000, 7.000000)" fill-rule="nonzero">
            <path d="M63.6531423,13.8686023 L63.0987154,13.6009708 C60.8067758,6.7540078 54.3955127,2.13576608 47.175848,2.13180117 L15.310729,2.13180117 L19.1337856,13.6009708 C14.6895595,15.8222027 12.4262554,20.8666725 13.7241033,25.6626745 L17.2222573,36.5393099 L21.0453138,36.5393099 L21.0453138,26.9816686 C21.0453138,26.9816686 32.5144834,26.9816686 38.2490682,25.0701404 L55.4528226,19.3355556 L63.0989357,32.7162534 L63.0989357,36.5393099 L66.9219922,36.5393099 L69.1775867,25.2421735 C70.1027329,20.6391306 67.8431735,15.9865263 63.6531423,13.8686023 Z" id="Shape" fill="#A15D30"></path>
            <path d="M19.1337856,13.6009708 C14.6990312,15.8279298 12.4511462,20.8761442 13.7624308,25.6626745 L17.2222573,36.5393099 L21.0453138,36.5393099 L21.0453138,26.9816686 C21.0453138,26.9816686 25.5373392,26.9816686 30.2969961,26.5228402 C25.4073782,23.3821891 21.5310156,18.8939084 19.1337856,13.6009708 Z" id="Shape" fill="#8F4F24"></path>
            <path d="M72.2550195,81.0967739 L58.9699201,79.3189513 L58.0524834,81.4408402 C54.2580624,90.2662943 44.0277076,94.3455283 35.2022534,90.5511072 C31.1115653,88.7924483 27.8524074,85.5315283 26.0919864,81.4408402 L25.1745497,79.3189513 L11.8894503,81.0967739 C6.19495517,81.8536316 1.93818129,86.7071248 1.93047173,92.4511813 L1.93047173,113 L82.2144386,113 L82.2144386,92.4511813 C82.2065088,86.7071248 77.9495146,81.8536316 72.2550195,81.0967739 Z" id="Shape" fill="#FECB66"></path>
            <path d="M42.0721248,91.9731891 C49.0261404,91.9769337 55.3131696,87.8329396 58.0524834,81.4406199 L58.9699201,79.318731 L56.8671949,79.0319357 C54.951922,78.7814854 53.5238928,77.1415536 53.5410741,75.2088791 L53.5410741,67.1231014 L30.6029552,67.1231014 L30.6029552,75.3234211 C30.6201365,77.2558752 29.1923275,78.8960273 27.2768343,79.1464776 L25.1741092,79.4332729 L26.0915458,81.5551618 C28.8654425,87.9036472 35.1447622,91.9963177 42.0721248,91.9731891 Z" id="Shape" fill="#FEDAC6"></path>
            <path d="M53.7705984,76.5091501 C53.617729,76.1058304 53.5393119,75.6776199 53.5412943,75.2476472 L53.5412943,67.1237622 L30.6029552,67.1237622 L30.6029552,75.3240819 C30.6049376,75.7542749 30.5265205,76.1822651 30.3736511,76.5855848 C37.7406784,80.288152 46.428462,80.2595166 53.7705984,76.5091501 Z" id="Shape" fill="#F5C4B0"></path>
            <path d="M9.57636452,81.6701442 C5.00592203,83.2854055 1.94368811,87.601653 1.93025146,92.4511813 L1.93025146,113 L9.57636452,113 L9.57636452,81.6701442 Z" id="Shape" fill="#F5AD76"></path>
            <path d="M63.0989357,34.6275614 L61.1874074,34.6275614 L61.1874074,46.096731 L63.0989357,46.096731 C66.2662398,46.096731 68.8335205,43.5294503 68.8335205,40.3621462 C68.8335205,37.1948421 66.2662398,34.6275614 63.0989357,34.6275614 Z" id="Shape" fill="#FEDAC6"></path>
            <path d="M15.310729,40.3621462 C15.310729,43.5294503 17.8780097,46.096731 21.0453138,46.096731 L22.9568421,46.096731 L22.9568421,34.6275614 L21.0453138,34.6275614 C17.8780097,34.6275614 15.310729,37.1948421 15.310729,40.3621462 Z" id="Shape" fill="#F5C4B0"></path>
            <path d="M63.0989357,53.3415068 C63.1238265,56.1515283 62.1182807,58.8714581 60.2699708,60.9876199 L52.0121598,70.3349006 C50.5632047,71.9845244 48.4739162,72.9325789 46.277575,72.9345614 L37.9052222,72.9345614 C35.7088811,72.9325789 33.6195926,71.9845244 32.1706374,70.3349006 L23.9128265,60.8920214 C22.0642963,58.7758596 21.0589708,56.0559298 21.0838616,53.2459084 L21.0838616,26.9816686 C21.0838616,26.9816686 32.5530312,26.9816686 38.287616,25.0701404 L55.4913704,19.3355556 L63.1374834,32.7162534 L63.0989357,53.3415068 Z" id="Shape" fill="#FEDAC6"></path>
            <path d="M28.6914269,26.6565458 C24.581575,26.9814483 21.0453138,26.9814483 21.0453138,26.9814483 L21.0453138,53.3412865 C21.020423,56.151308 22.0259688,58.8712378 23.8742788,60.9873996 L28.6912066,66.3779181 L28.6912066,26.6565458 L28.6914269,26.6565458 Z" id="Shape" fill="#F5C4B0"></path>
            <g id="Group" transform="translate(20.925926, 32.600390)" fill="#EBEBEB">
                <path d="M0.119387914,0.115643275 L17.3231423,0.115643275 L17.3231423,5.85022807 C17.3231423,9.01753216 14.7558616,11.5848129 11.5885575,11.5848129 L5.85397271,11.5848129 C2.68666862,11.5848129 0.119387914,9.01753216 0.119387914,5.85022807 L0.119387914,0.115643275 Z" id="Shape"></path>
                <path d="M24.9692554,0.115643275 L42.1730097,0.115643275 L42.1730097,5.85022807 C42.1730097,9.01753216 39.605729,11.5848129 36.438425,11.5848129 L30.7038402,11.5848129 C27.5365361,11.5848129 24.9692554,9.01753216 24.9692554,5.85022807 L24.9692554,0.115643275 Z" id="Shape"></path>
            </g>
            <path d="M3.84177973,113 L0.0187183233,113 L0.0187231969,92.527616 C0.0129961014,85.7857232 5.05548343,80.0703021 11.7478148,79.2387719 L27.0208772,77.1763567 C27.9843509,77.0521228 28.6991365,76.2300643 28.6916472,75.2648285 L28.6916472,69.0350702 L32.5149181,69.0350702 L32.5147037,75.2474269 C32.5395945,78.1261735 30.3947973,80.5921287 27.5237602,80.9648304 L12.2392437,83.0292281 C7.43751462,83.6274893 3.8362729,87.7067232 3.84001754,92.5256335 L3.84001754,113 L3.84177973,113 Z" id="Shape" fill="#000000"></path>
            <path d="M84.1255263,113 L80.3024698,113 L80.3024698,92.527616 C80.3062144,87.7087057 76.7049727,83.6274893 71.9241696,83.0312105 L56.6110175,80.9648304 C53.7494522,80.5921287 51.604655,78.1261735 51.6295458,75.2302456 L51.6293314,69.0350702 L55.4526023,69.0350702 L55.4526023,75.2474269 C55.4431306,76.2298441 56.1579162,77.0499201 57.1156628,77.1761365 L72.4153782,79.2405341 C79.0885458,80.0720643 84.1310331,85.7855029 84.125306,92.5293782 L84.1255263,113 Z" id="Shape" fill="#000000"></path>
            <path d="M63.0989357,48.0082593 L61.1874074,48.0082593 L61.1874074,44.1852027 L63.0989357,44.1852027 C65.2073879,44.1852027 66.9219922,42.4705984 66.9219922,40.3621462 C66.9219922,38.253694 65.2073879,36.5390897 63.0989357,36.5390897 L61.1874074,36.5390897 L61.1874074,32.7160331 L63.0989357,32.7160331 C67.3158402,32.7160331 70.7450487,36.1452417 70.7450487,40.3621462 C70.7450487,44.5790507 67.3156199,48.0082593 63.0989357,48.0082593 Z" id="Shape" fill="#000000"></path>
            <path d="M22.9568421,48.0082593 L21.0453138,48.0082593 C16.8284094,48.0082593 13.3992008,44.5790507 13.3992008,40.3621462 C13.3992008,36.1452417 16.8284094,32.7160331 21.0453138,32.7160331 L22.9568421,32.7160331 L22.9568421,36.5390897 L21.0453138,36.5390897 C18.9368616,36.5390897 17.2222573,38.253694 17.2222573,40.3621462 C17.2222573,42.4705984 18.9368616,44.1852027 21.0453138,44.1852027 L22.9568421,44.1852027 L22.9568421,48.0082593 Z" id="Shape" fill="#000000"></path>
            <path d="M42.0815965,93.8847173 C42.0738869,93.8847173 42.0663977,93.8847173 42.0606706,93.8847173 C34.3343782,93.8847173 27.3783801,89.2970936 24.3350897,82.1939532 L23.111694,79.347807 L26.6250468,77.8395984 L27.8484425,80.6877271 C30.2895068,86.3822222 35.8672573,90.0618811 42.0624327,90.0618811 C42.0681598,90.0618811 42.0738869,90.0618811 42.079614,90.0618811 C48.2747895,90.0618811 53.8545224,86.3822222 56.2975692,80.6877271 L57.5209649,77.8395984 L61.0343177,79.347807 L59.810922,82.1959357 C56.7660897,89.2970936 49.8061267,93.8847173 42.0815965,93.8847173 Z" id="Shape" fill="#000000"></path>
            <path d="M43.983653,49.9197875 L36.33754,49.9197875 C35.7487505,49.9197875 35.1925614,49.6484113 34.8293314,49.1838558 C34.4680838,48.7193002 34.339885,48.1133294 34.4832827,47.5437037 L38.3063392,32.3279123 L42.0128713,33.2587856 L38.788076,46.0965107 L43.983653,46.0965107 L43.983653,49.9197875 Z" id="Shape" fill="#000000"></path>
            <path d="M39.7057329,57.5659006 L36.33754,57.5659006 L36.33754,53.7428441 L39.701768,53.7428441 C42.2020858,53.737117 44.7138577,53.1445828 46.9579981,52.0302222 L48.6574035,55.4556862 C45.8894542,56.8279864 42.7946199,57.558191 39.7057329,57.5659006 Z" id="Shape" fill="#000000"></path>
            <path d="M46.2813197,74.8460897 L37.9050019,74.8460897 C35.1562164,74.842345 32.5451014,73.6570565 30.7348986,71.5964035 L22.4753255,62.1515419 C20.3173119,59.6780975 19.14546,56.5105731 19.1740955,53.2304893 L19.1740955,26.9816686 C19.1740955,25.9265614 20.0305166,25.0701404 21.0856238,25.0701404 C21.1964211,25.0701404 32.3138148,25.047232 37.6851696,23.256193 L54.888924,17.5216082 C55.7548168,17.2367953 56.7011092,17.5960604 57.1539903,18.387501 L64.8001033,31.7681988 C64.9664094,32.0567563 65.0525361,32.3856238 65.0525361,32.7202183 L65.0104639,53.3340175 C65.0390994,56.6103567 63.8654854,59.7739162 61.7072515,62.243616 L53.4437135,71.6005887 C51.6374756,73.6570565 49.0243782,74.8421248 46.2813197,74.8460897 Z M22.9951696,28.8643411 L22.9951696,53.2456881 C22.9742437,55.6063528 23.8112807,57.8696569 25.3520897,59.6358051 L33.6079181,69.0749396 C34.6916608,70.3097895 36.2591228,71.0208304 37.9069844,71.0228129 L46.277575,71.0228129 C47.9194893,71.0208304 49.4889337,70.3097895 50.5766413,69.0711949 L58.8362144,59.7199493 C60.371076,57.9612904 61.2083333,55.6982066 61.185425,53.3564854 C61.185425,53.3487758 61.185425,53.3430487 61.185425,53.3355595 L61.2237524,33.2206784 L54.6060936,21.642694 L38.891384,26.8821053 C34.322924,28.4057329 26.5812125,28.7744698 22.9951696,28.8643411 Z" id="Shape" fill="#000000"></path>
            <path d="M15.4006004,37.122152 L11.9216101,26.2455166 C10.4975458,21.0671209 12.5504893,15.6651481 16.8303918,12.7405848 L13.4947992,2.73755166 C13.2998577,2.15448928 13.3992008,1.51415595 13.7586862,1.01523782 C14.1199337,0.514337232 14.697269,0.220052632 15.3109493,0.220052632 L47.1950117,0.220052632 C54.9787953,0.227762183 61.8927212,5.02949123 64.6452515,12.2473938 C69.5005068,14.7437466 72.1442222,20.222154 71.05277,25.6203821 L68.7971754,36.9135536 L65.0487914,36.1641852 L67.304386,24.8670487 C68.0652086,21.1032456 66.1994971,17.2878986 62.7645614,15.5807836 L62.2198265,15.2979532 C61.7801618,15.0686491 61.4455673,14.6785458 61.2889532,14.206501 C59.2589181,8.133577 53.5950409,4.04861598 47.1934698,4.04288889 L17.962154,4.04288889 L20.9479532,12.9969825 C21.2499474,13.9012027 20.8389181,14.8875848 19.986462,15.3118304 C16.3660565,17.116306 14.5157641,21.2547934 15.5880526,25.1562671 L19.0441345,35.9564678 L15.4006004,37.122152 Z" id="Shape" fill="#000000"></path>
            <path d="M32.5144834,46.096731 L26.7798986,46.096731 C22.5629942,46.096731 19.1337856,42.6675224 19.1337856,38.4506179 L19.1337856,32.7160331 C19.1337856,31.6609259 19.9902066,30.8045049 21.0453138,30.8045049 L38.2490682,30.8045049 C39.3041754,30.8045049 40.1605965,31.6609259 40.1605965,32.7160331 L40.1605965,38.4506179 C40.1605965,42.6675224 36.7313879,46.096731 32.5144834,46.096731 Z M22.9568421,34.6275614 L22.9568421,38.4506179 C22.9568421,40.5590702 24.6714464,42.2736745 26.7798986,42.2736745 L32.5144834,42.2736745 C34.6229357,42.2736745 36.33754,40.5590702 36.33754,38.4506179 L36.33754,34.6275614 L22.9568421,34.6275614 Z" id="Shape" fill="#000000"></path>
            <path d="M57.3643509,46.096731 L51.6297661,46.096731 C47.4128616,46.096731 43.983653,42.6675224 43.983653,38.4506179 L43.983653,32.7160331 C43.983653,31.6609259 44.8400741,30.8045049 45.8951813,30.8045049 L63.0989357,30.8045049 C64.1560253,30.8045049 65.0104639,31.6609259 65.0104639,32.7160331 L65.0104639,38.4506179 C65.0104639,42.6675224 61.5810351,46.096731 57.3643509,46.096731 Z M47.8067096,34.6275614 L47.8067096,38.4506179 C47.8067096,40.5590702 49.5213138,42.2736745 51.6297661,42.2736745 L57.3643509,42.2736745 C59.4728031,42.2736745 61.1874074,40.5590702 61.1874074,38.4506179 L61.1874074,34.6275614 L47.8067096,34.6275614 Z" id="Shape" fill="#000000"></path>
            <rect id="Rectangle-path" fill="#000000" x="38.2490682" y="30.8045049" width="7.64611306" height="3.82305653"></rect>
        </g>
    </g>
</svg>