<svg width="207" height="275" viewBox="0 0 207 275" fill="none" xmlns="http://www.w3.org/2000/svg">
<path d="M188.072 250.666H179.818L147.857 243.306L141.465 256.09V272.637H133.193L96.2461 194.216L124.736 133.765L176.64 243.927L182.137 242.43L188.072 250.666Z" fill="#62707B"/>
<path d="M124.736 133.765L96.2461 194.216L67.7558 133.765L67.1709 132.522L68.6682 131.811L112.774 111.064L113.796 110.57L114.381 111.812L124.736 133.765Z" fill="#434A54"/>
<path d="M96.2456 195.569C95.7221 195.569 95.2448 195.267 95.0213 194.793L65.9454 133.098C65.6281 132.423 65.9163 131.619 66.5906 131.299L68.0885 130.587L113.208 109.352C113.535 109.193 113.909 109.176 114.249 109.295C114.59 109.415 114.868 109.668 115.021 109.994L125.96 133.187C126.133 133.553 126.133 133.976 125.96 134.342L97.4699 194.793C97.2465 195.267 96.7692 195.569 96.2456 195.569ZM68.9704 133.166L96.2456 191.04L123.239 133.764L113.153 112.382L68.9704 133.166Z" fill="#31394C"/>
<path d="M131.311 119.793L124.737 133.765L96.2462 194.216L67.7559 133.765L68.6683 131.811L84.6857 97.8231L112.774 111.064L114.381 111.812L131.311 119.793Z" fill="#434A54"/>
<path d="M96.2456 195.569C95.7221 195.569 95.2448 195.267 95.0214 194.793L66.5311 134.342C66.3592 133.977 66.3579 133.556 66.5285 133.191L67.442 131.237L83.4608 97.2451C83.6128 96.9211 83.8892 96.6699 84.2276 96.5483C84.5674 96.4293 84.9389 96.4465 85.2628 96.5985L131.889 118.569C132.564 118.888 132.854 119.695 132.536 120.37L97.4699 194.793C97.2465 195.267 96.7692 195.569 96.2456 195.569ZM69.2507 133.762L96.2456 191.04L129.51 120.442L85.3329 99.6249L69.2507 133.762Z" fill="#31394C"/>
<path d="M70.4577 248.949L74.2742 248.804L73.5444 259.907H65.2887L50.6238 230.577L29.6392 235.681L26.9369 237.937H18.6636L23.2843 228.148L67.7554 133.765L96.2457 194.216L70.4577 248.949Z" fill="#62707B"/>
<path d="M106.722 3.87542L118.944 10.9317C121.218 12.2445 123.798 12.9357 126.423 12.9357H140.536C145.88 12.9357 150.818 15.7868 153.491 20.415L160.547 32.6368C161.86 34.9108 163.748 36.7992 166.022 38.1121L178.244 45.1683C182.872 47.8404 185.723 52.7786 185.723 58.1228V72.2353C185.723 74.8611 186.414 77.4406 187.727 79.7146L194.783 91.9364C197.456 96.5646 197.456 102.267 194.783 106.895L187.727 119.117C186.414 121.391 185.723 123.97 185.723 126.596V140.709C185.723 146.053 182.872 150.991 178.244 153.663L166.022 160.719C163.748 162.032 161.86 163.921 160.547 166.195L153.491 178.416C150.818 183.045 145.88 185.896 140.536 185.896H126.423C123.798 185.896 121.218 186.587 118.944 187.9L106.722 194.956C102.094 197.628 96.392 197.628 91.7638 194.956L79.542 187.9C77.268 186.587 74.6885 185.896 72.0627 185.896H57.9502C52.606 185.896 47.6678 183.045 44.9957 178.416L37.9394 166.195C36.6265 163.921 34.7382 162.032 32.4642 160.719L20.2424 153.663C15.6142 150.991 12.7631 146.053 12.7631 140.709V126.596C12.7631 123.97 12.0719 121.391 10.759 119.117L3.70281 106.895C1.0307 102.267 1.0307 96.5646 3.70281 91.9364L10.759 79.7146C12.0719 77.4406 12.7631 74.8611 12.7631 72.2353V58.1228C12.7631 52.7786 15.6142 47.8404 20.2424 45.1683L32.4642 38.1121C34.7382 36.7992 36.6265 34.9108 37.9394 32.6368L44.9957 20.415C47.6678 15.7868 52.606 12.9357 57.9502 12.9357H72.0627C74.6885 12.9357 77.268 12.2445 79.542 10.9317L91.7638 3.87542C96.392 1.20331 102.094 1.20331 106.722 3.87542Z" fill="#62707B"/>
<path d="M122.055 110.561L188.078 250.674L156.125 243.31L141.461 272.641L75.4385 132.528L122.055 110.561Z" fill="#FF6060"/>
<path d="M92.9532 97.8298L26.9302 237.942L58.8836 230.579L73.5472 259.91L139.57 119.797L92.9532 97.8298Z" fill="#FF6060"/>
<path d="M146.433 262.684L141.464 272.637L109.34 204.479L104.5 194.197L109.34 183.952L114.18 194.216L146.433 262.684Z" fill="#FF8383"/>
<path d="M54.4526 179.549L26.937 237.937L37.7678 235.435L64.1028 179.549H54.4526Z" fill="#FF8383"/>
<path d="M114.18 194.216L109.34 204.479L104.5 194.197L109.34 183.952L114.18 194.216Z" fill="#FF6060"/>
<path d="M188.072 250.666L178.813 248.529L128.863 142.53L104.5 194.197L100.372 185.448L76.0287 133.765L75.4438 132.522L76.9412 131.811L115.294 113.748L116.901 113L121.028 111.045L122.051 110.57L122.635 111.812L124.991 116.816L128.863 124.999L132.99 133.765L188.072 250.666Z" fill="#F44A4A"/>
<path d="M139.565 119.793L132.991 133.765L128.863 142.53L104.5 194.197L100.373 202.982L73.5447 259.907L69.2896 251.416L96.246 194.216L71.8822 142.53L76.029 133.765L76.9415 131.811L79.2972 126.806L91.4601 101.018L92.9575 97.8231L121.028 111.045L122.635 111.812L139.565 119.793Z" fill="#F44A4A"/>
<path d="M128.863 142.53L104.5 194.197L100.373 202.982L96.2461 194.216L71.8823 142.53L67.7558 133.765L67.1709 132.522L68.6682 131.811L79.2973 126.806L112.774 111.064L113.796 110.57L114.381 111.812L115.295 113.748L124.736 133.765L128.863 142.53Z" fill="#F44A4A"/>
<path d="M131.311 119.793L128.863 124.999L124.737 133.765L100.373 185.448L96.2462 194.216L71.8824 142.53L67.7559 133.765L68.6683 131.811L84.6857 97.8231L91.4603 101.018L112.774 111.064L114.381 111.812L116.902 113L124.991 116.816L131.311 119.793Z" fill="#F44A4A"/>
<path d="M137.228 124.743L132.99 133.765L128.735 124.743L122.635 111.812L121.028 111.045L82.4026 129.253L80.2838 124.743L76.0287 115.721L75.4438 114.478L76.9412 113.766L87.8627 108.616L101.871 102.024L121.01 93.002L122.051 92.5092L122.654 93.7682V93.7858L132.99 115.721L133.575 116.962L137.228 124.743Z" fill="#FF6060"/>
<path d="M75.4438 132.522L76.9412 131.811L76.0287 133.765L75.4438 132.522Z" fill="#FF6060"/>
<path d="M139.565 101.749L132.991 115.721L132.607 116.506L128.735 124.743L122.635 111.812L121.028 111.045L82.4027 129.253L76.9413 131.811L80.2839 124.743L76.0288 115.721L76.9413 113.766L92.9573 79.779L121.01 93.002L122.654 93.7683V93.7859L139.565 101.749Z" fill="#FF6060"/>
<path d="M203.048 106.9L195.98 119.118C194.683 121.382 193.989 123.976 193.989 126.587V140.704C193.989 146.056 191.14 150.987 186.501 153.671L174.283 160.72C172.001 162.036 170.119 163.916 168.805 166.199L161.755 178.418C159.088 183.038 154.139 185.887 148.806 185.887H134.689C132.059 185.887 129.484 186.581 127.201 187.896L114.983 194.964C110.363 197.63 104.646 197.63 100.026 194.964L87.8077 187.896C85.5248 186.581 82.9495 185.887 80.3197 185.887H66.2024C60.8697 185.887 55.9205 183.038 53.2541 178.418L46.2044 166.199C44.8895 163.916 43.0084 162.036 40.7255 160.72L28.5076 153.671C23.8687 150.987 21.0196 146.056 21.0196 140.704V126.587C21.0196 124.98 20.7641 123.373 20.2527 121.838C19.9241 120.889 19.5219 119.976 19.0287 119.118L11.9612 106.9C9.29484 102.261 9.29484 96.5625 11.9612 91.9423L19.0287 79.7057C20.3258 77.4415 21.0196 74.8662 21.0196 72.2364V58.1191C21.0196 52.7864 23.8687 47.8372 28.5076 45.1709L40.7255 38.1207C43.0084 36.8062 44.8895 34.9068 46.2044 32.6418L53.2541 20.4239C55.9205 15.785 60.8697 12.9358 66.2024 12.9358H80.3197C82.9495 12.9358 85.5248 12.2421 87.8077 10.9276L100.026 3.87744C104.646 1.2111 110.363 1.2111 114.983 3.87744L127.201 10.9276C129.484 12.2421 132.059 12.9358 134.689 12.9358H148.806C151.692 12.9358 154.45 13.7759 156.806 15.274C158.833 16.5519 160.531 18.2872 161.755 20.4239L168.805 32.6418C170.119 34.9068 172.001 36.8062 174.283 38.1207L186.501 45.1709C191.14 47.8372 193.989 52.7864 193.989 58.1191V72.2364C193.989 74.8662 194.683 77.4415 195.98 79.7057L203.048 91.9423C205.714 96.5625 205.714 102.261 203.048 106.9Z" fill="#FFD372"/>
<g opacity="0.3">
<path opacity="0.3" d="M96.5009 111.045C70.7316 123.957 43.2821 127.172 20.2527 121.838C19.9241 120.889 19.5219 119.976 19.0287 119.118L11.9612 106.9C9.29484 102.261 9.29484 96.5624 11.9612 91.9423L19.0287 79.7057C20.3258 77.4415 21.0196 74.8662 21.0196 72.2364V58.1191C21.0196 52.7864 23.8687 47.8372 28.5076 45.1708L40.7255 38.1207C43.0084 36.8062 44.8895 34.9068 46.2044 32.6418L53.2541 20.4239C55.9205 15.785 60.8697 12.9358 66.2024 12.9358H80.3197C82.9495 12.9358 85.5248 12.2421 87.8077 10.9276L100.026 3.87744C104.646 1.2111 110.363 1.2111 114.983 3.87744L127.201 10.9276C129.484 12.2421 132.059 12.9358 134.689 12.9358H148.806C151.692 12.9358 154.45 13.7759 156.806 15.274C162.357 50.1201 138.396 90.0241 96.5009 111.045Z" fill="white"/>
</g>
<path d="M203.048 106.9L195.98 119.118C194.683 121.382 193.989 123.976 193.989 126.587V140.704C193.989 146.056 191.14 150.987 186.502 153.671L174.284 160.72C172.001 162.036 170.119 163.916 168.805 166.199L161.755 178.418C159.089 183.038 154.139 185.887 148.806 185.887H134.689C132.059 185.887 129.484 186.581 127.201 187.896L114.983 194.964C110.363 197.63 104.646 197.63 100.026 194.964L87.8079 187.896C85.525 186.581 82.9497 185.887 80.3199 185.887H66.2026C60.8699 185.887 55.9207 183.038 53.2544 178.418L50.3687 173.414C51.6104 173.743 52.907 173.907 54.2219 173.907H68.3392C70.9512 173.907 73.5444 174.6 75.809 175.916L88.0268 182.965C92.6657 185.631 98.364 185.631 102.985 182.965L115.221 175.916C117.485 174.6 120.06 173.907 122.691 173.907H136.808C142.159 173.907 147.09 171.058 149.756 166.419L156.824 154.201C158.139 151.937 160.02 150.037 162.285 148.722L174.521 141.673C179.141 139.006 181.99 134.057 181.99 128.724V114.606C181.99 111.976 182.684 109.402 183.999 107.119L191.049 94.9002C193.734 90.2801 193.734 84.5818 191.049 79.9429L183.999 67.725C182.684 65.4421 181.99 62.8677 181.99 60.2379V46.1384C181.99 44.8231 181.826 43.5265 181.498 42.2852L186.502 45.1709C191.14 47.8372 193.989 52.7864 193.989 58.1191V72.2364C193.989 74.8662 194.683 77.4415 195.98 79.7057L203.048 91.9423C205.714 96.5625 205.714 102.261 203.048 106.9Z" fill="#FFB85A"/>
<path d="M204.216 91.2585L197.162 79.0329C195.971 76.9757 195.335 74.6197 195.335 72.2372V58.1164C195.335 52.3083 192.207 46.9068 187.185 43.9955L174.959 36.942C172.901 35.7508 171.168 34.0314 169.977 31.9603L162.923 19.7347C160.026 14.712 154.611 11.5845 148.803 11.5845H140.531H134.682C132.3 11.5845 129.944 10.9486 127.886 9.75668L115.661 2.7032C111.911 0.537574 107.484 -0.00449121 103.381 1.05188C99.2794 -0.0177125 94.8523 0.523691 91.0886 2.7032C80.3646 8.42736 77.8559 11.5845 72.067 11.5845C66.9617 11.5845 62.6671 11.5845 57.9462 11.5845C52.1384 11.5845 46.723 14.712 43.8256 19.7347C37.4743 29.9298 36.8502 34.0129 31.7901 36.942L19.5648 43.9955C5.22828 52.283 15.2784 69.2043 9.58714 79.0329L2.53333 91.2585C-5.83547 105.738 11.4146 115.144 11.4146 126.594V140.714C11.4146 146.522 14.5285 151.938 19.5648 154.835C29.7742 161.201 33.7825 161.764 36.7721 166.871C44.4433 180.149 43.9764 179.412 44.4348 180.071C42.357 184.481 53.0949 161.691 17.4392 237.365C17.2362 237.771 17.2769 238.272 17.5205 238.665C17.7641 239.058 18.1974 239.288 18.6578 239.288H26.9297C26.9839 239.288 27.0245 239.288 27.0787 239.275C27.1194 239.288 27.1733 239.275 27.2139 239.261H27.2275L50.7439 233.845L64.0794 260.516C64.3095 260.976 64.7831 261.261 65.2842 261.261H73.5425C73.5564 261.261 73.5564 261.261 73.5696 261.261C73.6509 261.261 73.7322 261.247 73.8 261.234C73.8948 261.22 73.9758 261.193 74.0436 261.166C74.3007 261.072 74.5175 260.882 74.6798 260.652C74.7069 260.598 74.7476 260.543 74.7747 260.489L74.8289 260.354L100.376 206.146L131.975 273.215C132.191 273.689 132.665 273.987 133.193 273.987H141.37C141.462 274.034 141.8 273.976 141.993 273.879H142.007C142.708 273.455 142.596 273.297 142.711 273.161L156.005 246.571L179.508 251.987C179.616 252.015 179.711 252.015 179.819 252.015H188.064H188.105C189.015 252.015 189.753 251.005 189.296 250.091C146.478 159.227 161.606 191.33 158.253 184.214C165.425 179.158 167.533 166.188 174.959 161.889L187.185 154.835C201.473 146.593 191.545 129.501 197.162 119.798L204.216 107.572C207.127 102.536 207.127 96.2944 204.216 91.2585ZM92.4425 5.04533C94.2835 3.97573 96.3278 3.38012 98.3857 3.25849C88.2954 8.70983 86.2123 11.2641 81.1513 11.5574L92.4425 5.04533ZM39.1143 165.517C32.9421 154.859 14.1223 155.239 14.1223 140.714V126.594C14.1223 114.398 -2.36736 105.158 4.87545 92.6123L11.9293 80.3867C18.0982 69.7371 8.33226 53.6052 20.9187 46.3376L33.1439 39.2841C39.1102 35.8283 39.9403 30.9855 46.1678 21.0885C48.4692 17.1083 52.6392 14.5632 57.1883 14.3193C55.1168 15.687 53.3568 17.5281 52.0842 19.7347C45.6906 30.0113 45.0928 34.0408 40.0487 36.942L27.8231 43.9955C13.4831 52.3073 23.5412 69.1991 17.8454 79.0329L10.7919 91.2585C7.88095 96.2944 7.88095 102.536 10.7919 107.572C16.5161 118.296 19.6732 120.805 19.6732 126.594V140.714C19.6732 157.229 39.3786 157.109 45.0307 166.871C45.1093 167.007 50.1008 175.653 49.7828 175.102C52.3793 179.568 51.9868 179.004 52.7069 180.084L51.3937 182.846C46.1001 179.949 45.5621 175.805 39.1143 165.517ZM46.3439 182.386C47.4809 183.55 48.8077 184.525 50.2428 185.297L26.0769 236.58H20.7967L46.3439 182.386ZM66.1234 258.553L53.4652 233.223L58.1494 232.14L71.363 258.553H66.1234ZM73.5154 256.807C66.759 243.294 70.8961 251.568 60.0989 229.974C59.8688 229.513 59.3813 229.229 58.8806 229.229C58.7857 229.229 58.6773 229.242 58.5828 229.256C18.5077 238.496 32.3297 235.309 29.3395 235.998C28.8027 237.138 36.828 220.119 54.6025 182.399C63.9769 191.943 77.9636 183.741 87.1216 189.074C94.7931 193.503 99.8977 196.567 101.608 197.197C101.44 197.552 97.5214 205.854 73.5154 256.807ZM134.046 271.279L101.865 202.991L104.234 197.968C104.437 198.009 104.627 198.05 104.83 198.077L139.326 271.279H134.046ZM182.067 241.075L185.668 248.724C149.088 240.307 157.788 242.309 156.425 241.996C155.816 241.847 155.193 242.145 154.909 242.7C148.557 255.41 164.693 223.121 141.492 269.546C95.1617 171.225 111.554 206.013 107.917 198.294C117.616 198.098 125.752 187.246 134.682 187.246C147.982 187.246 151.387 187.814 155.911 185.595L182.067 241.075ZM201.874 106.218L194.82 118.444C188.652 129.093 198.399 145.235 185.831 152.493L173.605 159.546C167.639 163.002 166.809 167.845 160.581 177.742C155.639 186.301 147.355 184.538 134.682 184.538C123.3 184.538 114.92 198.648 103.381 194.963H103.368L103.354 194.949C101.164 194.322 88.3398 186.653 88.4755 186.732C83.4057 183.795 79.8957 184.538 66.2047 184.538C57.5548 184.538 54.2231 177.282 54.0879 177.146C54.0074 177.007 47.2906 165.375 47.3729 165.517C41.0982 154.581 22.3809 155.359 22.3809 140.714V126.594C22.3809 119.754 18.6178 116.608 13.134 106.218C10.7106 102.022 10.7106 96.8094 13.134 92.6123L20.1875 80.3867C23.6374 74.4325 21.932 69.8347 22.3809 58.1164C22.3809 53.2834 24.9802 48.7611 29.1769 46.3376L41.4025 39.2841C47.3835 35.8193 48.161 31.0454 54.4263 21.0885C61.7373 8.42707 77.8769 18.2725 88.4755 12.0988L100.701 5.04533C104.791 2.64591 110.112 2.60859 114.307 5.04533L125.598 11.5574L126.532 12.0988C129.01 13.534 131.826 14.2922 134.682 14.2922H148.803C149.06 14.2922 149.304 14.3061 149.561 14.3193C154.096 14.5632 158.28 17.1083 160.581 21.0885L167.635 33.3141C169.07 35.7911 171.128 37.849 173.605 39.2841L185.831 46.3376C190.027 48.7611 192.627 53.2834 192.627 58.1164V72.2372C192.627 75.0936 193.385 77.9098 194.82 80.3867L201.874 92.6123C204.297 96.8094 204.297 102.022 201.874 106.218Z" fill="#29343C"/>
<path d="M171.069 99.4116C171.069 134.514 142.615 162.968 107.495 162.968C72.3939 162.968 43.9399 134.514 43.9399 99.4116C43.9399 95.1018 44.36 90.9007 45.1817 86.8468C51.0258 57.7535 76.7038 35.8565 107.495 35.8565C117.229 35.8565 126.471 38.0475 134.726 41.9561C156.221 52.1649 171.069 74.044 171.069 99.4116Z" fill="#F0F1F4"/>
<path d="M134.726 41.9561C128.882 71.0495 103.204 92.9464 72.3944 92.9464C62.66 92.9464 53.4371 90.7554 45.1821 86.8468C51.0262 57.7535 76.7042 35.8565 107.496 35.8565C117.23 35.8565 126.471 38.0475 134.726 41.9561Z" fill="white"/>
<path d="M171.069 99.4116C171.069 134.514 142.615 162.968 107.495 162.968C72.3939 162.968 43.9399 134.514 43.9399 99.4116C43.9399 97.2384 44.0496 95.083 44.2685 92.9464C47.5194 124.999 74.5854 150.018 107.495 150.018C140.424 150.018 167.489 124.999 170.74 92.9464C170.96 95.083 171.069 97.2384 171.069 99.4116Z" fill="#B3BBC2"/>
<path d="M107.495 164.321C71.7042 164.321 42.5859 135.203 42.5859 99.412C42.5859 63.621 71.7042 34.5027 107.495 34.5027C143.297 34.5027 172.423 63.621 172.423 99.412C172.423 135.203 143.297 164.321 107.495 164.321ZM107.495 37.2104C73.1969 37.2104 45.2936 65.1137 45.2936 99.412C45.2936 133.71 73.1969 161.614 107.495 161.614C141.804 161.614 169.715 133.71 169.715 99.412C169.715 65.1137 141.804 37.2104 107.495 37.2104Z" fill="#31394C"/>
<path d="M108.983 68.8684L118.018 87.1768C118.258 87.6633 118.722 88.0005 119.259 88.0785L139.464 91.0144C140.816 91.2109 141.356 92.8724 140.377 93.826L125.757 108.077C125.369 108.456 125.192 109.001 125.283 109.536L128.735 129.659C128.966 131.005 127.552 132.032 126.343 131.397L108.271 121.896C107.791 121.643 107.218 121.643 106.737 121.896L88.6659 131.397C87.4566 132.032 86.0433 131.005 86.2742 129.659L89.7256 109.536C89.8173 109.001 89.64 108.456 89.2515 108.077L74.6314 93.826C73.6531 92.8724 74.1929 91.2109 75.545 91.0144L95.7494 88.0785C96.2863 88.0005 96.7504 87.6633 96.9905 87.1768L106.026 68.8684C106.631 67.6433 108.378 67.6433 108.983 68.8684Z" fill="#FFD372"/>
<path d="M125.759 108.069C125.375 108.452 125.192 109 125.284 109.529L128.735 129.655C128.973 131.007 127.548 132.029 126.343 131.391L108.262 121.893C107.788 121.638 107.221 121.638 106.728 121.893L88.6663 131.391C87.4611 132.029 86.0365 131.007 86.2737 129.655L87.9907 119.628C88.4108 119.647 88.8486 119.647 89.2691 119.647C107.039 119.647 121.613 106.004 123.056 88.6178L139.456 91.0104C140.807 91.2119 141.355 92.8732 140.369 93.823L125.759 108.069Z" fill="#FFB85A"/>
<path d="M87.8952 132.943C87.2751 132.943 86.6603 132.749 86.1328 132.366C85.202 131.689 84.7446 130.564 84.9403 129.431L88.3923 109.307C88.4082 109.212 88.3764 109.115 88.3077 109.048L73.6864 94.7952C72.8627 93.9926 72.5719 92.8133 72.9262 91.7186C73.2818 90.6239 74.2113 89.8399 75.3496 89.6746L95.5555 86.7395C95.6507 86.725 95.734 86.6642 95.7776 86.5769L104.813 68.2696C105.321 67.237 106.352 66.5958 107.503 66.5958C107.503 66.5958 107.503 66.5958 107.505 66.5958C108.655 66.5958 109.686 67.237 110.197 68.2682V68.2696L119.232 86.5782C119.276 86.6642 119.359 86.725 119.454 86.7395L139.659 89.6746C140.798 89.8399 141.728 90.6239 142.082 91.7186C142.438 92.8146 142.147 93.9926 141.323 94.7952L126.703 109.046C126.633 109.115 126.601 109.212 126.617 109.308L130.069 129.431C130.264 130.566 129.805 131.691 128.873 132.367C127.942 133.044 126.73 133.13 125.713 132.594L107.642 123.094C107.555 123.049 107.453 123.05 107.369 123.094L89.2953 132.594C88.8524 132.828 88.3725 132.943 87.8952 132.943ZM107.505 69.3035C107.383 69.3035 107.295 69.359 107.24 69.4674L98.205 87.7761C97.7674 88.6632 96.9213 89.2767 95.9442 89.4181L75.7396 92.3532C75.6193 92.3717 75.54 92.4392 75.5017 92.5542C75.4646 92.6705 75.4898 92.7723 75.577 92.8569L90.197 107.108C90.9043 107.796 91.2269 108.788 91.0603 109.763L87.6083 129.888C87.5884 130.008 87.6268 130.105 87.7259 130.176C87.8251 130.249 87.9296 130.257 88.0366 130.199L106.107 120.698C106.983 120.238 108.027 120.238 108.902 120.698L126.973 130.199C127.081 130.253 127.184 130.245 127.284 130.176C127.381 130.105 127.421 130.007 127.401 129.888L123.949 109.764C123.783 108.788 124.105 107.796 124.814 107.107L139.433 92.8569C139.52 92.7723 139.545 92.6705 139.507 92.5555C139.47 92.4392 139.389 92.3717 139.269 92.3532L119.065 89.4181C118.088 89.2767 117.242 88.6632 116.805 87.7774L107.769 69.4674C107.715 69.359 107.625 69.3035 107.505 69.3035Z" fill="#29343C"/>
</svg>
