<svg width="317" height="262" viewBox="0 0 317 262" fill="none" xmlns="http://www.w3.org/2000/svg">
<rect width="317" height="262" fill="white"/>
<path d="M49.7353 51.913H51.2693V61H49.7353V51.913ZM55.2696 57.256V61H53.8136V54.084H55.2696V55.345C55.5036 54.9203 55.8243 54.5867 56.2316 54.344C56.6476 54.1013 57.094 53.98 57.5706 53.98C58.3506 53.98 58.979 54.2183 59.4556 54.695C59.941 55.1717 60.1836 55.8607 60.1836 56.762V61H58.7276V57.204C58.7276 55.93 58.199 55.293 57.1416 55.293C56.639 55.293 56.2013 55.462 55.8286 55.8C55.456 56.1293 55.2696 56.6147 55.2696 57.256ZM67.4449 58.933C67.4449 59.5917 67.2066 60.1203 66.7299 60.519C66.2533 60.909 65.6423 61.104 64.8969 61.104C64.3943 61.104 63.8699 61.013 63.3239 60.831C62.7866 60.649 62.3099 60.3933 61.8939 60.064L62.5959 58.933C63.4019 59.5397 64.1819 59.843 64.9359 59.843C65.2653 59.843 65.5253 59.7693 65.7159 59.622C65.9066 59.466 66.0019 59.271 66.0019 59.037C66.0019 58.6903 65.5426 58.3783 64.6239 58.101C64.5546 58.075 64.5026 58.0577 64.4679 58.049C63.0293 57.659 62.3099 57.009 62.3099 56.099C62.3099 55.4577 62.5569 54.9463 63.0509 54.565C63.5536 54.175 64.2036 53.98 65.0009 53.98C65.7983 53.98 66.5523 54.214 67.2629 54.682L66.7169 55.761C66.1536 55.3883 65.5426 55.202 64.8839 55.202C64.5373 55.202 64.2556 55.267 64.0389 55.397C63.8223 55.5183 63.7139 55.7047 63.7139 55.956C63.7139 56.1813 63.8266 56.346 64.0519 56.45C64.2079 56.528 64.4246 56.6017 64.7019 56.671C64.9879 56.7403 65.2393 56.8097 65.4559 56.879C65.6726 56.9483 65.8806 57.0263 66.0799 57.113C66.2879 57.1997 66.5089 57.321 66.7429 57.477C67.2109 57.789 67.4449 58.2743 67.4449 58.933ZM71.1881 55.254V58.764C71.1881 59.0933 71.2748 59.3577 71.4481 59.557C71.6215 59.7477 71.8641 59.843 72.1761 59.843C72.4881 59.843 72.7871 59.6913 73.0731 59.388L73.6711 60.415C73.1598 60.8743 72.5921 61.104 71.9681 61.104C71.3528 61.104 70.8241 60.8917 70.3821 60.467C69.9488 60.0337 69.7321 59.453 69.7321 58.725V55.254H68.8611V54.084H69.7321V51.913H71.1881V54.084H73.0081V55.254H71.1881ZM80.7307 61H79.4047V60.077C78.8327 60.7617 78.0657 61.104 77.1037 61.104C76.3844 61.104 75.7864 60.9003 75.3097 60.493C74.8417 60.0857 74.6077 59.544 74.6077 58.868C74.6077 58.1833 74.859 57.672 75.3617 57.334C75.8644 56.996 76.5447 56.827 77.4027 56.827H79.2877V56.567C79.2877 55.6483 78.7764 55.189 77.7537 55.189C77.1124 55.189 76.445 55.423 75.7517 55.891L75.1017 54.981C75.9424 54.3137 76.8957 53.98 77.9617 53.98C78.7764 53.98 79.4394 54.188 79.9507 54.604C80.4707 55.0113 80.7307 55.657 80.7307 56.541V61ZM79.2747 58.426V57.841H77.6367C76.588 57.841 76.0637 58.1703 76.0637 58.829C76.0637 59.167 76.1937 59.427 76.4537 59.609C76.7137 59.7823 77.0734 59.869 77.5327 59.869C78.0007 59.869 78.408 59.739 78.7547 59.479C79.1014 59.219 79.2747 58.868 79.2747 58.426ZM84.5136 61H83.0576V51.354H84.5136V61ZM88.381 61H86.925V51.354H88.381V61ZM92.2484 61H90.7924V54.084H92.2484V61ZM90.8834 52.706C90.7014 52.524 90.6104 52.3073 90.6104 52.056C90.6104 51.8047 90.7014 51.588 90.8834 51.406C91.0654 51.224 91.282 51.133 91.5334 51.133C91.7847 51.133 92.0014 51.224 92.1834 51.406C92.3654 51.588 92.4564 51.8047 92.4564 52.056C92.4564 52.3073 92.3654 52.524 92.1834 52.706C92.0014 52.888 91.7847 52.979 91.5334 52.979C91.282 52.979 91.0654 52.888 90.8834 52.706ZM101.095 58.179H95.6737C95.7084 58.6817 95.9381 59.089 96.3627 59.401C96.7874 59.7043 97.2727 59.856 97.8187 59.856C98.6854 59.856 99.3441 59.583 99.7947 59.037L100.627 59.947C99.8814 60.7183 98.9107 61.104 97.7147 61.104C96.7441 61.104 95.9164 60.7833 95.2317 60.142C94.5557 59.492 94.2177 58.6253 94.2177 57.542C94.2177 56.45 94.5644 55.5833 95.2577 54.942C95.9511 54.3007 96.7657 53.98 97.7017 53.98C98.6464 53.98 99.4481 54.266 100.107 54.838C100.765 55.4013 101.095 56.1813 101.095 57.178V58.179ZM95.6737 57.035H99.6387C99.6387 56.4543 99.4567 56.008 99.0927 55.696C98.7287 55.384 98.2781 55.228 97.7407 55.228C97.2121 55.228 96.7354 55.3927 96.3107 55.722C95.8861 56.0427 95.6737 56.4803 95.6737 57.035ZM106.623 55.449C105.904 55.449 105.362 55.683 104.998 56.151C104.634 56.619 104.452 57.2473 104.452 58.036V61H102.996V54.084H104.452V55.475C104.686 55.0417 105.002 54.6863 105.401 54.409C105.808 54.1317 106.237 53.9887 106.688 53.98L106.701 55.449C106.675 55.449 106.649 55.449 106.623 55.449ZM114.898 58.179H109.477C109.512 58.6817 109.741 59.089 110.166 59.401C110.591 59.7043 111.076 59.856 111.622 59.856C112.489 59.856 113.147 59.583 113.598 59.037L114.43 59.947C113.685 60.7183 112.714 61.104 111.518 61.104C110.547 61.104 109.72 60.7833 109.035 60.142C108.359 59.492 108.021 58.6253 108.021 57.542C108.021 56.45 108.368 55.5833 109.061 54.942C109.754 54.3007 110.569 53.98 111.505 53.98C112.45 53.98 113.251 54.266 113.91 54.838C114.569 55.4013 114.898 56.1813 114.898 57.178V58.179ZM109.477 57.035H113.442C113.442 56.4543 113.26 56.008 112.896 55.696C112.532 55.384 112.081 55.228 111.544 55.228C111.015 55.228 110.539 55.3927 110.114 55.722C109.689 56.0427 109.477 56.4803 109.477 57.035ZM118.255 57.256V61H116.799V54.084H118.255V55.345C118.489 54.9203 118.81 54.5867 119.217 54.344C119.633 54.1013 120.079 53.98 120.556 53.98C121.336 53.98 121.964 54.2183 122.441 54.695C122.926 55.1717 123.169 55.8607 123.169 56.762V61H121.713V57.204C121.713 55.93 121.184 55.293 120.127 55.293C119.624 55.293 119.187 55.462 118.814 55.8C118.441 56.1293 118.255 56.6147 118.255 57.256ZM132.322 53.109C131.88 53.109 131.516 53.2 131.23 53.382C130.944 53.564 130.801 53.8413 130.801 54.214C130.801 54.578 130.944 54.8597 131.23 55.059C131.516 55.2497 132.122 55.4577 133.05 55.683C133.986 55.9083 134.688 56.2247 135.156 56.632C135.632 57.0393 135.871 57.6417 135.871 58.439C135.871 59.2277 135.572 59.869 134.974 60.363C134.376 60.857 133.591 61.104 132.621 61.104C131.199 61.104 129.938 60.6143 128.838 59.635L129.8 58.478C130.718 59.2753 131.672 59.674 132.66 59.674C133.154 59.674 133.544 59.57 133.83 59.362C134.124 59.1453 134.272 58.8637 134.272 58.517C134.272 58.1617 134.133 57.8887 133.856 57.698C133.587 57.4987 133.119 57.321 132.452 57.165C131.784 57.0003 131.277 56.853 130.931 56.723C130.584 56.5843 130.276 56.4067 130.008 56.19C129.47 55.7827 129.202 55.1587 129.202 54.318C129.202 53.4773 129.505 52.8317 130.112 52.381C130.727 51.9217 131.485 51.692 132.387 51.692C132.967 51.692 133.544 51.7873 134.116 51.978C134.688 52.1687 135.182 52.4373 135.598 52.784L134.779 53.941C134.51 53.6983 134.146 53.499 133.687 53.343C133.227 53.187 132.772 53.109 132.322 53.109ZM139.315 61H137.859V54.084H139.315V61ZM137.95 52.706C137.768 52.524 137.677 52.3073 137.677 52.056C137.677 51.8047 137.768 51.588 137.95 51.406C138.132 51.224 138.349 51.133 138.6 51.133C138.851 51.133 139.068 51.224 139.25 51.406C139.432 51.588 139.523 51.8047 139.523 52.056C139.523 52.3073 139.432 52.524 139.25 52.706C139.068 52.888 138.851 52.979 138.6 52.979C138.349 52.979 138.132 52.888 137.95 52.706ZM148.162 58.179H142.741C142.775 58.6817 143.005 59.089 143.43 59.401C143.854 59.7043 144.34 59.856 144.886 59.856C145.752 59.856 146.411 59.583 146.862 59.037L147.694 59.947C146.948 60.7183 145.978 61.104 144.782 61.104C143.811 61.104 142.983 60.7833 142.299 60.142C141.623 59.492 141.285 58.6253 141.285 57.542C141.285 56.45 141.631 55.5833 142.325 54.942C143.018 54.3007 143.833 53.98 144.769 53.98C145.713 53.98 146.515 54.266 147.174 54.838C147.832 55.4013 148.162 56.1813 148.162 57.178V58.179ZM142.741 57.035H146.706C146.706 56.4543 146.524 56.008 146.16 55.696C145.796 55.384 145.345 55.228 144.808 55.228C144.279 55.228 143.802 55.3927 143.378 55.722C142.953 56.0427 142.741 56.4803 142.741 57.035ZM157.258 51.913C158.636 51.913 159.641 52.1773 160.274 52.706C160.907 53.2347 161.223 54.0493 161.223 55.15C161.223 56.2507 160.898 57.0567 160.248 57.568C159.607 58.0793 158.619 58.335 157.284 58.335H155.672V61H154.138V51.913H157.258ZM157.453 56.944C158.302 56.944 158.879 56.7837 159.182 56.463C159.494 56.1337 159.65 55.657 159.65 55.033C159.65 54.4003 159.455 53.954 159.065 53.694C158.675 53.434 158.064 53.304 157.232 53.304H155.672V56.944H157.453ZM164.573 61H163.117V54.084H164.573V61ZM163.208 52.706C163.026 52.524 162.935 52.3073 162.935 52.056C162.935 51.8047 163.026 51.588 163.208 51.406C163.39 51.224 163.606 51.133 163.858 51.133C164.109 51.133 164.326 51.224 164.508 51.406C164.69 51.588 164.781 51.8047 164.781 52.056C164.781 52.3073 164.69 52.524 164.508 52.706C164.326 52.888 164.109 52.979 163.858 52.979C163.606 52.979 163.39 52.888 163.208 52.706ZM173.38 54.084V60.116C173.38 61.338 173.046 62.2523 172.379 62.859C171.72 63.4743 170.871 63.782 169.831 63.782C168.791 63.782 167.851 63.457 167.01 62.807L167.699 61.702C168.375 62.2133 169.055 62.469 169.74 62.469C170.433 62.469 170.979 62.2913 171.378 61.936C171.785 61.5807 171.989 61.013 171.989 60.233V59.349C171.772 59.7563 171.46 60.0813 171.053 60.324C170.654 60.5667 170.204 60.688 169.701 60.688C168.782 60.688 168.028 60.3673 167.439 59.726C166.85 59.0847 166.555 58.2873 166.555 57.334C166.555 56.3807 166.85 55.5833 167.439 54.942C168.028 54.3007 168.778 53.98 169.688 53.98C170.607 53.98 171.352 54.357 171.924 55.111V54.084H173.38ZM167.985 57.282C167.985 57.8453 168.158 58.335 168.505 58.751C168.86 59.1583 169.333 59.362 169.922 59.362C170.52 59.362 171.001 59.1627 171.365 58.764C171.738 58.3653 171.924 57.8713 171.924 57.282C171.924 56.684 171.738 56.1813 171.365 55.774C170.992 55.358 170.511 55.15 169.922 55.15C169.333 55.15 168.86 55.3623 168.505 55.787C168.158 56.2117 167.985 56.71 167.985 57.282ZM182.186 54.084V60.116C182.186 61.338 181.852 62.2523 181.185 62.859C180.526 63.4743 179.677 63.782 178.637 63.782C177.597 63.782 176.657 63.457 175.816 62.807L176.505 61.702C177.181 62.2133 177.861 62.469 178.546 62.469C179.239 62.469 179.785 62.2913 180.184 61.936C180.591 61.5807 180.795 61.013 180.795 60.233V59.349C180.578 59.7563 180.266 60.0813 179.859 60.324C179.46 60.5667 179.01 60.688 178.507 60.688C177.588 60.688 176.834 60.3673 176.245 59.726C175.656 59.0847 175.361 58.2873 175.361 57.334C175.361 56.3807 175.656 55.5833 176.245 54.942C176.834 54.3007 177.584 53.98 178.494 53.98C179.413 53.98 180.158 54.357 180.73 55.111V54.084H182.186ZM176.791 57.282C176.791 57.8453 176.964 58.335 177.311 58.751C177.666 59.1583 178.139 59.362 178.728 59.362C179.326 59.362 179.807 59.1627 180.171 58.764C180.544 58.3653 180.73 57.8713 180.73 57.282C180.73 56.684 180.544 56.1813 180.171 55.774C179.798 55.358 179.317 55.15 178.728 55.15C178.139 55.15 177.666 55.3623 177.311 55.787C176.964 56.2117 176.791 56.71 176.791 57.282ZM185.467 63.756C184.834 63.756 184.262 63.5263 183.751 63.067L184.414 61.884C184.717 62.17 185.029 62.313 185.35 62.313C185.679 62.313 185.944 62.196 186.143 61.962C186.351 61.728 186.455 61.4723 186.455 61.195C186.455 61.0737 185.523 58.7033 183.66 54.084H185.22L187.287 59.18L189.354 54.084H190.914L187.56 62.3C187.361 62.7507 187.075 63.106 186.702 63.366C186.329 63.626 185.918 63.756 185.467 63.756ZM197.684 61H196.228V54.084H197.684V61ZM196.319 52.706C196.137 52.524 196.046 52.3073 196.046 52.056C196.046 51.8047 196.137 51.588 196.319 51.406C196.501 51.224 196.718 51.133 196.969 51.133C197.22 51.133 197.437 51.224 197.619 51.406C197.801 51.588 197.892 51.8047 197.892 52.056C197.892 52.3073 197.801 52.524 197.619 52.706C197.437 52.888 197.22 52.979 196.969 52.979C196.718 52.979 196.501 52.888 196.319 52.706ZM201.551 57.256V61H200.095V54.084H201.551V55.345C201.785 54.9203 202.106 54.5867 202.513 54.344C202.929 54.1013 203.376 53.98 203.852 53.98C204.632 53.98 205.261 54.2183 205.737 54.695C206.223 55.1717 206.465 55.8607 206.465 56.762V61H205.009V57.204C205.009 55.93 204.481 55.293 203.423 55.293C202.921 55.293 202.483 55.462 202.11 55.8C201.738 56.1293 201.551 56.6147 201.551 57.256ZM215.904 61H214.24L211.848 54.084H213.356L215.072 59.31L216.788 54.084H218.296L220.012 59.31L221.728 54.084H223.236L220.844 61H219.18L217.542 56.268L215.904 61ZM231.26 58.179H225.839C225.873 58.6817 226.103 59.089 226.528 59.401C226.952 59.7043 227.438 59.856 227.984 59.856C228.85 59.856 229.509 59.583 229.96 59.037L230.792 59.947C230.046 60.7183 229.076 61.104 227.88 61.104C226.909 61.104 226.081 60.7833 225.397 60.142C224.721 59.492 224.383 58.6253 224.383 57.542C224.383 56.45 224.729 55.5833 225.423 54.942C226.116 54.3007 226.931 53.98 227.867 53.98C228.811 53.98 229.613 54.266 230.272 54.838C230.93 55.4013 231.26 56.1813 231.26 57.178V58.179ZM225.839 57.035H229.804C229.804 56.4543 229.622 56.008 229.258 55.696C228.894 55.384 228.443 55.228 227.906 55.228C227.377 55.228 226.9 55.3927 226.476 55.722C226.051 56.0427 225.839 56.4803 225.839 57.035ZM234.617 57.256V61H233.161V54.084H234.617V55.345C234.851 54.9203 235.171 54.5867 235.579 54.344C235.995 54.1013 236.441 53.98 236.918 53.98C237.698 53.98 238.326 54.2183 238.803 54.695C239.288 55.1717 239.531 55.8607 239.531 56.762V61H238.075V57.204C238.075 55.93 237.546 55.293 236.489 55.293C235.986 55.293 235.548 55.462 235.176 55.8C234.803 56.1293 234.617 56.6147 234.617 57.256ZM243.321 61H241.865V54.084H243.321V61ZM241.956 52.706C241.774 52.524 241.683 52.3073 241.683 52.056C241.683 51.8047 241.774 51.588 241.956 51.406C242.138 51.224 242.355 51.133 242.606 51.133C242.857 51.133 243.074 51.224 243.256 51.406C243.438 51.588 243.529 51.8047 243.529 52.056C243.529 52.3073 243.438 52.524 243.256 52.706C243.074 52.888 242.857 52.979 242.606 52.979C242.355 52.979 242.138 52.888 241.956 52.706ZM252.128 54.084V60.116C252.128 61.338 251.795 62.2523 251.127 62.859C250.469 63.4743 249.619 63.782 248.579 63.782C247.539 63.782 246.599 63.457 245.758 62.807L246.447 61.702C247.123 62.2133 247.804 62.469 248.488 62.469C249.182 62.469 249.728 62.2913 250.126 61.936C250.534 61.5807 250.737 61.013 250.737 60.233V59.349C250.521 59.7563 250.209 60.0813 249.801 60.324C249.403 60.5667 248.952 60.688 248.449 60.688C247.531 60.688 246.777 60.3673 246.187 59.726C245.598 59.0847 245.303 58.2873 245.303 57.334C245.303 56.3807 245.598 55.5833 246.187 54.942C246.777 54.3007 247.526 53.98 248.436 53.98C249.355 53.98 250.1 54.357 250.672 55.111V54.084H252.128ZM246.733 57.282C246.733 57.8453 246.907 58.335 247.253 58.751C247.609 59.1583 248.081 59.362 248.67 59.362C249.268 59.362 249.749 59.1627 250.113 58.764C250.486 58.3653 250.672 57.8713 250.672 57.282C250.672 56.684 250.486 56.1813 250.113 55.774C249.741 55.358 249.26 55.15 248.67 55.15C248.081 55.15 247.609 55.3623 247.253 55.787C246.907 56.2117 246.733 56.71 246.733 57.282ZM260.973 58.179H255.552C255.587 58.6817 255.817 59.089 256.241 59.401C256.666 59.7043 257.151 59.856 257.697 59.856C258.564 59.856 259.223 59.583 259.673 59.037L260.505 59.947C259.76 60.7183 258.789 61.104 257.593 61.104C256.623 61.104 255.795 60.7833 255.11 60.142C254.434 59.492 254.096 58.6253 254.096 57.542C254.096 56.45 254.443 55.5833 255.136 54.942C255.83 54.3007 256.644 53.98 257.58 53.98C258.525 53.98 259.327 54.266 259.985 54.838C260.644 55.4013 260.973 56.1813 260.973 57.178V58.179ZM255.552 57.035H259.517C259.517 56.4543 259.335 56.008 258.971 55.696C258.607 55.384 258.157 55.228 257.619 55.228C257.091 55.228 256.614 55.3927 256.189 55.722C255.765 56.0427 255.552 56.4803 255.552 57.035ZM264.33 57.256V61H262.874V54.084H264.33V55.345C264.564 54.9203 264.885 54.5867 265.292 54.344C265.708 54.1013 266.155 53.98 266.631 53.98C267.411 53.98 268.04 54.2183 268.516 54.695C269.002 55.1717 269.244 55.8607 269.244 56.762V61H267.788V57.204C267.788 55.93 267.26 55.293 266.202 55.293C265.7 55.293 265.262 55.462 264.889 55.8C264.517 56.1293 264.33 56.6147 264.33 57.256ZM44.3145 73.109C43.8725 73.109 43.5085 73.2 43.2225 73.382C42.9365 73.564 42.7935 73.8413 42.7935 74.214C42.7935 74.578 42.9365 74.8597 43.2225 75.059C43.5085 75.2497 44.1152 75.4577 45.0425 75.683C45.9785 75.9083 46.6805 76.2247 47.1485 76.632C47.6252 77.0393 47.8635 77.6417 47.8635 78.439C47.8635 79.2277 47.5645 79.869 46.9665 80.363C46.3685 80.857 45.5842 81.104 44.6135 81.104C43.1922 81.104 41.9312 80.6143 40.8305 79.635L41.7925 78.478C42.7112 79.2753 43.6645 79.674 44.6525 79.674C45.1465 79.674 45.5365 79.57 45.8225 79.362C46.1172 79.1453 46.2645 78.8637 46.2645 78.517C46.2645 78.1617 46.1259 77.8887 45.8485 77.698C45.5799 77.4987 45.1119 77.321 44.4445 77.165C43.7772 77.0003 43.2702 76.853 42.9235 76.723C42.5769 76.5843 42.2692 76.4067 42.0005 76.19C41.4632 75.7827 41.1945 75.1587 41.1945 74.318C41.1945 73.4773 41.4979 72.8317 42.1045 72.381C42.7199 71.9217 43.4782 71.692 44.3795 71.692C44.9602 71.692 45.5365 71.7873 46.1085 71.978C46.6805 72.1687 47.1745 72.4373 47.5905 72.784L46.7715 73.941C46.5029 73.6983 46.1389 73.499 45.6795 73.343C45.2202 73.187 44.7652 73.109 44.3145 73.109ZM56.287 78.179H50.866C50.9007 78.6817 51.1304 79.089 51.555 79.401C51.9797 79.7043 52.465 79.856 53.011 79.856C53.8777 79.856 54.5364 79.583 54.987 79.037L55.819 79.947C55.0737 80.7183 54.103 81.104 52.907 81.104C51.9364 81.104 51.1087 80.7833 50.424 80.142C49.748 79.492 49.41 78.6253 49.41 77.542C49.41 76.45 49.7567 75.5833 50.45 74.942C51.1434 74.3007 51.958 73.98 52.894 73.98C53.8387 73.98 54.6404 74.266 55.299 74.838C55.9577 75.4013 56.287 76.1813 56.287 77.178V78.179ZM50.866 77.035H54.831C54.831 76.4543 54.649 76.008 54.285 75.696C53.921 75.384 53.4704 75.228 52.933 75.228C52.4044 75.228 51.9277 75.3927 51.503 75.722C51.0784 76.0427 50.866 76.4803 50.866 77.035ZM59.6442 81H58.1882V71.354H59.6442V77.022L62.4522 74.084H64.3242L61.6982 76.827L64.5192 81H62.7512L60.6972 77.971L59.6442 79.037V81ZM70.8779 77.828V74.084H72.3339V81H70.8779V79.739C70.6439 80.1637 70.3189 80.4973 69.9029 80.74C69.4955 80.9827 69.0535 81.104 68.5769 81.104C67.7969 81.104 67.1642 80.8657 66.6789 80.389C66.2022 79.9123 65.9639 79.2233 65.9639 78.322V74.084H67.4199V77.88C67.4199 79.154 67.9485 79.791 69.0059 79.791C69.5085 79.791 69.9462 79.6263 70.3189 79.297C70.6915 78.959 70.8779 78.4693 70.8779 77.828ZM76.2022 77.256V81H74.7462V74.084H76.2022V75.345C76.4362 74.9203 76.7568 74.5867 77.1642 74.344C77.5802 74.1013 78.0265 73.98 78.5032 73.98C79.2832 73.98 79.9115 74.2183 80.3882 74.695C80.8735 75.1717 81.1162 75.8607 81.1162 76.762V81H79.6602V77.204C79.6602 75.93 79.1315 75.293 78.0742 75.293C77.5715 75.293 77.1338 75.462 76.7612 75.8C76.3885 76.1293 76.2022 76.6147 76.2022 77.256ZM86.2715 81.104C85.3961 81.104 84.6335 80.7747 83.9835 80.116C83.3335 79.4573 83.0085 78.5907 83.0085 77.516C83.0085 76.4413 83.3421 75.5833 84.0095 74.942C84.6768 74.3007 85.4698 73.98 86.3885 73.98C87.3158 73.98 88.0611 74.37 88.6245 75.15V71.354H90.0805V81H88.6245V79.96C88.0871 80.7227 87.3028 81.104 86.2715 81.104ZM84.4645 77.581C84.4645 78.2397 84.6768 78.777 85.1015 79.193C85.5261 79.609 86.0245 79.817 86.5965 79.817C87.1685 79.817 87.6538 79.609 88.0525 79.193C88.4511 78.7683 88.6505 78.2267 88.6505 77.568C88.6505 76.9093 88.4511 76.359 88.0525 75.917C87.6538 75.475 87.1641 75.254 86.5835 75.254C86.0028 75.254 85.5045 75.475 85.0885 75.917C84.6725 76.359 84.4645 76.9137 84.4645 77.581ZM98.9198 78.179H93.4988C93.5335 78.6817 93.7632 79.089 94.1878 79.401C94.6125 79.7043 95.0978 79.856 95.6438 79.856C96.5105 79.856 97.1692 79.583 97.6198 79.037L98.4518 79.947C97.7065 80.7183 96.7358 81.104 95.5398 81.104C94.5692 81.104 93.7415 80.7833 93.0568 80.142C92.3808 79.492 92.0428 78.6253 92.0428 77.542C92.0428 76.45 92.3895 75.5833 93.0828 74.942C93.7762 74.3007 94.5908 73.98 95.5268 73.98C96.4715 73.98 97.2732 74.266 97.9318 74.838C98.5905 75.4013 98.9198 76.1813 98.9198 77.178V78.179ZM93.4988 77.035H97.4638C97.4638 76.4543 97.2818 76.008 96.9178 75.696C96.5538 75.384 96.1032 75.228 95.5658 75.228C95.0372 75.228 94.5605 75.3927 94.1358 75.722C93.7112 76.0427 93.4988 76.4803 93.4988 77.035ZM102.277 77.256V81H100.821V74.084H102.277V75.345C102.511 74.9203 102.832 74.5867 103.239 74.344C103.655 74.1013 104.101 73.98 104.578 73.98C105.358 73.98 105.986 74.2183 106.463 74.695C106.948 75.1717 107.191 75.8607 107.191 76.762V81H105.735V77.204C105.735 75.93 105.206 75.293 104.149 75.293C103.646 75.293 103.209 75.462 102.836 75.8C102.463 76.1293 102.277 76.6147 102.277 77.256ZM115.226 81L112.444 74.084H113.952L116.058 79.31L118.164 74.084H119.672L116.89 81H115.226ZM122.63 79.18C123.046 79.596 123.57 79.804 124.203 79.804C124.836 79.804 125.356 79.596 125.763 79.18C126.179 78.7553 126.387 78.2093 126.387 77.542C126.387 76.8747 126.179 76.333 125.763 75.917C125.356 75.4923 124.836 75.28 124.203 75.28C123.57 75.28 123.046 75.4923 122.63 75.917C122.223 76.333 122.019 76.8747 122.019 77.542C122.019 78.2093 122.223 78.7553 122.63 79.18ZM126.803 80.077C126.11 80.7617 125.243 81.104 124.203 81.104C123.163 81.104 122.296 80.7617 121.603 80.077C120.91 79.3837 120.563 78.5387 120.563 77.542C120.563 76.5453 120.91 75.7047 121.603 75.02C122.296 74.3267 123.163 73.98 124.203 73.98C125.243 73.98 126.11 74.3267 126.803 75.02C127.496 75.7047 127.843 76.5453 127.843 77.542C127.843 78.5387 127.496 79.3837 126.803 80.077ZM131.254 77.256V81H129.798V74.084H131.254V75.345C131.488 74.9203 131.809 74.5867 132.216 74.344C132.632 74.1013 133.079 73.98 133.555 73.98C134.335 73.98 134.964 74.2183 135.44 74.695C135.926 75.1717 136.168 75.8607 136.168 76.762V81H134.712V77.204C134.712 75.93 134.184 75.293 133.126 75.293C132.624 75.293 132.186 75.462 131.813 75.8C131.441 76.1293 131.254 76.6147 131.254 77.256ZM148.87 76.58H150.404V79.687C149.546 80.6317 148.32 81.104 146.725 81.104C145.382 81.104 144.255 80.662 143.345 79.778C142.444 78.894 141.993 77.776 141.993 76.424C141.993 75.072 142.452 73.9453 143.371 73.044C144.298 72.1427 145.416 71.692 146.725 71.692C148.034 71.692 149.121 72.0733 149.988 72.836L149.169 74.006C148.814 73.7027 148.454 73.4947 148.09 73.382C147.735 73.2607 147.319 73.2 146.842 73.2C145.923 73.2 145.152 73.499 144.528 74.097C143.904 74.6863 143.592 75.4663 143.592 76.437C143.592 77.399 143.895 78.1747 144.502 78.764C145.109 79.3447 145.841 79.635 146.699 79.635C147.566 79.635 148.289 79.4487 148.87 79.076V76.58ZM154.121 79.18C154.537 79.596 155.061 79.804 155.694 79.804C156.327 79.804 156.847 79.596 157.254 79.18C157.67 78.7553 157.878 78.2093 157.878 77.542C157.878 76.8747 157.67 76.333 157.254 75.917C156.847 75.4923 156.327 75.28 155.694 75.28C155.061 75.28 154.537 75.4923 154.121 75.917C153.714 76.333 153.51 76.8747 153.51 77.542C153.51 78.2093 153.714 78.7553 154.121 79.18ZM158.294 80.077C157.601 80.7617 156.734 81.104 155.694 81.104C154.654 81.104 153.787 80.7617 153.094 80.077C152.401 79.3837 152.054 78.5387 152.054 77.542C152.054 76.5453 152.401 75.7047 153.094 75.02C153.787 74.3267 154.654 73.98 155.694 73.98C156.734 73.98 157.601 74.3267 158.294 75.02C158.987 75.7047 159.334 76.5453 159.334 77.542C159.334 78.5387 158.987 79.3837 158.294 80.077ZM162.901 79.18C163.317 79.596 163.842 79.804 164.474 79.804C165.107 79.804 165.627 79.596 166.034 79.18C166.45 78.7553 166.658 78.2093 166.658 77.542C166.658 76.8747 166.45 76.333 166.034 75.917C165.627 75.4923 165.107 75.28 164.474 75.28C163.842 75.28 163.317 75.4923 162.901 75.917C162.494 76.333 162.29 76.8747 162.29 77.542C162.29 78.2093 162.494 78.7553 162.901 79.18ZM167.074 80.077C166.381 80.7617 165.514 81.104 164.474 81.104C163.434 81.104 162.568 80.7617 161.874 80.077C161.181 79.3837 160.834 78.5387 160.834 77.542C160.834 76.5453 161.181 75.7047 161.874 75.02C162.568 74.3267 163.434 73.98 164.474 73.98C165.514 73.98 166.381 74.3267 167.074 75.02C167.768 75.7047 168.114 76.5453 168.114 77.542C168.114 78.5387 167.768 79.3837 167.074 80.077ZM176.466 74.084V80.116C176.466 81.338 176.132 82.2523 175.465 82.859C174.806 83.4743 173.957 83.782 172.917 83.782C171.877 83.782 170.936 83.457 170.096 82.807L170.785 81.702C171.461 82.2133 172.141 82.469 172.826 82.469C173.519 82.469 174.065 82.2913 174.464 81.936C174.871 81.5807 175.075 81.013 175.075 80.233V79.349C174.858 79.7563 174.546 80.0813 174.139 80.324C173.74 80.5667 173.289 80.688 172.787 80.688C171.868 80.688 171.114 80.3673 170.525 79.726C169.935 79.0847 169.641 78.2873 169.641 77.334C169.641 76.3807 169.935 75.5833 170.525 74.942C171.114 74.3007 171.864 73.98 172.774 73.98C173.692 73.98 174.438 74.357 175.01 75.111V74.084H176.466ZM171.071 77.282C171.071 77.8453 171.244 78.335 171.591 78.751C171.946 79.1583 172.418 79.362 173.008 79.362C173.606 79.362 174.087 79.1627 174.451 78.764C174.823 78.3653 175.01 77.8713 175.01 77.282C175.01 76.684 174.823 76.1813 174.451 75.774C174.078 75.358 173.597 75.15 173.008 75.15C172.418 75.15 171.946 75.3623 171.591 75.787C171.244 76.2117 171.071 76.71 171.071 77.282ZM180.332 81H178.876V71.354H180.332V81ZM189.178 78.179H183.757C183.792 78.6817 184.021 79.089 184.446 79.401C184.871 79.7043 185.356 79.856 185.902 79.856C186.769 79.856 187.427 79.583 187.878 79.037L188.71 79.947C187.965 80.7183 186.994 81.104 185.798 81.104C184.827 81.104 184 80.7833 183.315 80.142C182.639 79.492 182.301 78.6253 182.301 77.542C182.301 76.45 182.648 75.5833 183.341 74.942C184.034 74.3007 184.849 73.98 185.785 73.98C186.73 73.98 187.531 74.266 188.19 74.838C188.849 75.4013 189.178 76.1813 189.178 77.178V78.179ZM183.757 77.035H187.722C187.722 76.4543 187.54 76.008 187.176 75.696C186.812 75.384 186.361 75.228 185.824 75.228C185.295 75.228 184.819 75.3927 184.394 75.722C183.969 76.0427 183.757 76.4803 183.757 77.035ZM196.006 78.933C196.006 79.5917 195.768 80.1203 195.291 80.519C194.815 80.909 194.204 81.104 193.458 81.104C192.956 81.104 192.431 81.013 191.885 80.831C191.348 80.649 190.871 80.3933 190.455 80.064L191.157 78.933C191.963 79.5397 192.743 79.843 193.497 79.843C193.827 79.843 194.087 79.7693 194.277 79.622C194.468 79.466 194.563 79.271 194.563 79.037C194.563 78.6903 194.104 78.3783 193.185 78.101C193.116 78.075 193.064 78.0577 193.029 78.049C191.591 77.659 190.871 77.009 190.871 76.099C190.871 75.4577 191.118 74.9463 191.612 74.565C192.115 74.175 192.765 73.98 193.562 73.98C194.36 73.98 195.114 74.214 195.824 74.682L195.278 75.761C194.715 75.3883 194.104 75.202 193.445 75.202C193.099 75.202 192.817 75.267 192.6 75.397C192.384 75.5183 192.275 75.7047 192.275 75.956C192.275 76.1813 192.388 76.346 192.613 76.45C192.769 76.528 192.986 76.6017 193.263 76.671C193.549 76.7403 193.801 76.8097 194.017 76.879C194.234 76.9483 194.442 77.0263 194.641 77.113C194.849 77.1997 195.07 77.321 195.304 77.477C195.772 77.789 196.006 78.2743 196.006 78.933ZM204.865 78.452L206.893 71.913H208.271L210.299 78.452L212.587 71.913H214.238L211.066 81H209.545L207.634 74.773H207.53L205.619 81H204.098L200.926 71.913H202.577L204.865 78.452ZM222.18 78.179H216.759C216.793 78.6817 217.023 79.089 217.448 79.401C217.872 79.7043 218.358 79.856 218.904 79.856C219.77 79.856 220.429 79.583 220.88 79.037L221.712 79.947C220.966 80.7183 219.996 81.104 218.8 81.104C217.829 81.104 217.001 80.7833 216.317 80.142C215.641 79.492 215.303 78.6253 215.303 77.542C215.303 76.45 215.649 75.5833 216.343 74.942C217.036 74.3007 217.851 73.98 218.787 73.98C219.731 73.98 220.533 74.266 221.192 74.838C221.85 75.4013 222.18 76.1813 222.18 77.178V78.179ZM216.759 77.035H220.724C220.724 76.4543 220.542 76.008 220.178 75.696C219.814 75.384 219.363 75.228 218.826 75.228C218.297 75.228 217.82 75.3927 217.396 75.722C216.971 76.0427 216.759 76.4803 216.759 77.035ZM227.786 73.98C228.713 73.98 229.506 74.3007 230.165 74.942C230.824 75.5833 231.153 76.437 231.153 77.503C231.153 78.569 230.824 79.4357 230.165 80.103C229.515 80.7703 228.752 81.104 227.877 81.104C227.01 81.104 226.23 80.7227 225.537 79.96V81H224.081V71.354H225.537V75.293C226.109 74.4177 226.859 73.98 227.786 73.98ZM225.511 77.555C225.511 78.2137 225.71 78.7553 226.109 79.18C226.508 79.596 226.993 79.804 227.565 79.804C228.137 79.804 228.635 79.596 229.06 79.18C229.485 78.764 229.697 78.2267 229.697 77.568C229.697 76.9007 229.489 76.3503 229.073 75.917C228.657 75.475 228.159 75.254 227.578 75.254C226.997 75.254 226.508 75.475 226.109 75.917C225.71 76.3503 225.511 76.8963 225.511 77.555ZM232.998 77.802V76.437H237.314V77.802H232.998ZM242.447 73.109C242.005 73.109 241.641 73.2 241.355 73.382C241.069 73.564 240.926 73.8413 240.926 74.214C240.926 74.578 241.069 74.8597 241.355 75.059C241.641 75.2497 242.248 75.4577 243.175 75.683C244.111 75.9083 244.813 76.2247 245.281 76.632C245.758 77.0393 245.996 77.6417 245.996 78.439C245.996 79.2277 245.697 79.869 245.099 80.363C244.501 80.857 243.717 81.104 242.746 81.104C241.325 81.104 240.064 80.6143 238.963 79.635L239.925 78.478C240.844 79.2753 241.797 79.674 242.785 79.674C243.279 79.674 243.669 79.57 243.955 79.362C244.25 79.1453 244.397 78.8637 244.397 78.517C244.397 78.1617 244.259 77.8887 243.981 77.698C243.713 77.4987 243.245 77.321 242.577 77.165C241.91 77.0003 241.403 76.853 241.056 76.723C240.71 76.5843 240.402 76.4067 240.133 76.19C239.596 75.7827 239.327 75.1587 239.327 74.318C239.327 73.4773 239.631 72.8317 240.237 72.381C240.853 71.9217 241.611 71.692 242.512 71.692C243.093 71.692 243.669 71.7873 244.241 71.978C244.813 72.1687 245.307 72.4373 245.723 72.784L244.904 73.941C244.636 73.6983 244.272 73.499 243.812 73.343C243.353 73.187 242.898 73.109 242.447 73.109ZM249.626 75.254V78.764C249.626 79.0933 249.713 79.3577 249.886 79.557C250.06 79.7477 250.302 79.843 250.614 79.843C250.926 79.843 251.225 79.6913 251.511 79.388L252.109 80.415C251.598 80.8743 251.03 81.104 250.406 81.104C249.791 81.104 249.262 80.8917 248.82 80.467C248.387 80.0337 248.17 79.453 248.17 78.725V75.254H247.299V74.084H248.17V71.913H249.626V74.084H251.446V75.254H249.626ZM255.127 79.18C255.543 79.596 256.068 79.804 256.7 79.804C257.333 79.804 257.853 79.596 258.26 79.18C258.676 78.7553 258.884 78.2093 258.884 77.542C258.884 76.8747 258.676 76.333 258.26 75.917C257.853 75.4923 257.333 75.28 256.7 75.28C256.068 75.28 255.543 75.4923 255.127 75.917C254.72 76.333 254.516 76.8747 254.516 77.542C254.516 78.2093 254.72 78.7553 255.127 79.18ZM259.3 80.077C258.607 80.7617 257.74 81.104 256.7 81.104C255.66 81.104 254.794 80.7617 254.1 80.077C253.407 79.3837 253.06 78.5387 253.06 77.542C253.06 76.5453 253.407 75.7047 254.1 75.02C254.794 74.3267 255.66 73.98 256.7 73.98C257.74 73.98 258.607 74.3267 259.3 75.02C259.994 75.7047 260.34 76.5453 260.34 77.542C260.34 78.5387 259.994 79.3837 259.3 80.077ZM265.923 75.449C265.203 75.449 264.662 75.683 264.298 76.151C263.934 76.619 263.752 77.2473 263.752 78.036V81H262.296V74.084H263.752V75.475C263.986 75.0417 264.302 74.6863 264.701 74.409C265.108 74.1317 265.537 73.9887 265.988 73.98L266.001 75.449C265.975 75.449 265.949 75.449 265.923 75.449ZM274.198 78.179H268.777C268.811 78.6817 269.041 79.089 269.466 79.401C269.89 79.7043 270.376 79.856 270.922 79.856C271.788 79.856 272.447 79.583 272.898 79.037L273.73 79.947C272.984 80.7183 272.014 81.104 270.818 81.104C269.847 81.104 269.019 80.7833 268.335 80.142C267.659 79.492 267.321 78.6253 267.321 77.542C267.321 76.45 267.667 75.5833 268.361 74.942C269.054 74.3007 269.869 73.98 270.805 73.98C271.749 73.98 272.551 74.266 273.21 74.838C273.868 75.4013 274.198 76.1813 274.198 77.178V78.179ZM268.777 77.035H272.742C272.742 76.4543 272.56 76.008 272.196 75.696C271.832 75.384 271.381 75.228 270.844 75.228C270.315 75.228 269.838 75.3927 269.414 75.722C268.989 76.0427 268.777 76.4803 268.777 77.035ZM276.177 80.818C275.995 80.6273 275.904 80.3977 275.904 80.129C275.904 79.8603 275.995 79.635 276.177 79.453C276.368 79.2623 276.597 79.167 276.866 79.167C277.135 79.167 277.364 79.2623 277.555 79.453C277.746 79.635 277.841 79.8603 277.841 80.129C277.841 80.3977 277.746 80.6273 277.555 80.818C277.364 81.0087 277.135 81.104 276.866 81.104C276.597 81.104 276.368 81.0087 276.177 80.818Z" fill="#62707B"/>
<path fill-rule="evenodd" clip-rule="evenodd" d="M153.458 107.735C154.127 107.553 157.127 106.999 160.123 106.508C164.78 105.75 166.002 105.671 168.729 105.895C174.416 106.365 178.378 108.369 181.149 112.155C182.956 114.655 183.904 117.387 184.077 120.646C184.153 121.92 184.227 123.102 184.237 123.24C184.249 123.393 184.968 122.721 185.807 121.779C188.325 118.968 188.916 118.691 189.892 119.789C190.236 120.177 190.246 120.486 189.936 121.053C189.406 122.017 182.487 129.311 181.999 129.398C181.348 129.515 180.582 128.908 178.346 126.485C177.133 125.166 175.383 123.494 174.405 122.723C173.057 121.676 172.656 121.143 172.593 120.456C172.543 119.751 172.713 119.504 173.379 119.306C174.42 118.98 176.221 120.255 179.063 123.33C180.103 124.447 181.008 125.324 181.114 125.321C181.218 125.302 181.32 124.508 181.35 123.571C181.536 117.548 180.032 113.845 176.323 111.206C172.578 108.541 167.288 107.985 159.358 109.392C143.382 112.243 124.944 121.789 101.513 139.323C93.6647 145.185 92.8406 145.612 92.4027 143.937C92.2949 143.506 92.3228 142.896 92.4988 142.601C92.8884 141.879 102.329 134.77 108.418 130.589C124.256 119.74 140.615 111.452 153.458 107.735Z" fill="#3675E0"/>
<rect x="20" y="188" width="124" height="27" rx="2.70587" fill="#3675E0"/>
<path d="M55.2624 196.84H56.6124V199.7H59.6224V196.84H60.9724V204H59.6224V200.98H56.6124V204H55.2624V196.84ZM63.2611 198.34C63.0277 198.34 62.8277 198.257 62.6611 198.09C62.4944 197.924 62.4111 197.724 62.4111 197.49C62.4111 197.257 62.4944 197.06 62.6611 196.9C62.8277 196.734 63.0277 196.65 63.2611 196.65C63.4944 196.65 63.6911 196.734 63.8511 196.9C64.0177 197.06 64.1011 197.257 64.1011 197.49C64.1011 197.724 64.0177 197.924 63.8511 198.09C63.6911 198.257 63.4944 198.34 63.2611 198.34ZM62.6011 198.9H63.9111V204H62.6011V198.9ZM65.3699 198.9H66.5999V199.54H66.6799C66.8332 199.294 67.0499 199.1 67.3299 198.96C67.6099 198.814 67.9132 198.74 68.2399 198.74C68.8532 198.74 69.3199 198.927 69.6399 199.3C69.9599 199.674 70.1199 200.184 70.1199 200.83V204H68.8099V200.99C68.8099 200.664 68.7266 200.41 68.5599 200.23C68.3932 200.05 68.1599 199.96 67.8599 199.96C67.5066 199.96 67.2199 200.097 66.9999 200.37C66.7866 200.644 66.6799 200.987 66.6799 201.4V204H65.3699V198.9ZM71.1814 202.93L73.8414 200.01H71.2614V198.9H75.4514V199.97L72.7914 202.89H75.5314V204H71.1814V202.93ZM78.4739 204.16C77.8606 204.16 77.3939 203.97 77.0739 203.59C76.7539 203.21 76.5939 202.68 76.5939 202V198.9H77.904V201.84C77.904 202.187 77.9873 202.46 78.1539 202.66C78.3206 202.854 78.5406 202.95 78.8139 202.95C79.1873 202.95 79.484 202.814 79.704 202.54C79.924 202.267 80.034 201.92 80.034 201.5V198.9H81.344V204H80.114V203.36H80.034C79.8806 203.607 79.664 203.804 79.384 203.95C79.1106 204.09 78.8073 204.16 78.4739 204.16ZM83.3043 200.02H82.3943V198.9H83.3043V198.62C83.3043 198.04 83.4776 197.587 83.8243 197.26C84.1709 196.927 84.6243 196.76 85.1843 196.76C85.5043 196.76 85.7809 196.797 86.0143 196.87V198.15C85.8876 198.097 85.7743 198.057 85.6743 198.03C85.5809 198.004 85.4709 197.99 85.3443 197.99C85.1243 197.99 84.9476 198.054 84.8143 198.18C84.6809 198.307 84.6143 198.48 84.6143 198.7V198.9H85.8643V200.02H84.6143V204H83.3043V200.02ZM88.7126 204.16C88.0993 204.16 87.6326 203.97 87.3126 203.59C86.9926 203.21 86.8326 202.68 86.8326 202V198.9H88.1426V201.84C88.1426 202.187 88.2259 202.46 88.3926 202.66C88.5593 202.854 88.7793 202.95 89.0526 202.95C89.4259 202.95 89.7226 202.814 89.9426 202.54C90.1626 202.267 90.2726 201.92 90.2726 201.5V198.9H91.5826V204H90.3526V203.36H90.2726C90.1193 203.607 89.9026 203.804 89.6226 203.95C89.3493 204.09 89.0459 204.16 88.7126 204.16ZM88.2626 197.93C88.0626 197.93 87.8926 197.86 87.7526 197.72C87.6126 197.58 87.5426 197.41 87.5426 197.21C87.5426 197.01 87.6126 196.844 87.7526 196.71C87.8926 196.57 88.0626 196.5 88.2626 196.5C88.4626 196.5 88.6293 196.57 88.7626 196.71C88.9026 196.844 88.9726 197.01 88.9726 197.21C88.9726 197.41 88.9026 197.58 88.7626 197.72C88.6293 197.86 88.4626 197.93 88.2626 197.93ZM90.1626 197.93C89.9693 197.93 89.8026 197.86 89.6626 197.72C89.5226 197.58 89.4526 197.41 89.4526 197.21C89.4526 197.01 89.5226 196.844 89.6626 196.71C89.8026 196.57 89.9693 196.5 90.1626 196.5C90.3693 196.5 90.5393 196.57 90.6726 196.71C90.8126 196.844 90.8826 197.01 90.8826 197.21C90.8826 197.41 90.8126 197.58 90.6726 197.72C90.5393 197.86 90.3693 197.93 90.1626 197.93ZM95.2453 206.32C94.5986 206.32 94.0619 206.174 93.6353 205.88C93.2086 205.594 92.9219 205.247 92.7753 204.84L94.0053 204.34C94.1119 204.594 94.2753 204.794 94.4953 204.94C94.7153 205.087 94.9653 205.16 95.2453 205.16C95.6586 205.16 95.9853 205.034 96.2253 204.78C96.4719 204.527 96.5953 204.167 96.5953 203.7V203.3H96.5153C96.3553 203.527 96.1453 203.7 95.8853 203.82C95.6253 203.94 95.3286 204 94.9953 204C94.5753 204 94.1819 203.894 93.8153 203.68C93.4553 203.46 93.1653 203.154 92.9453 202.76C92.7253 202.36 92.6153 201.897 92.6153 201.37C92.6153 200.844 92.7253 200.384 92.9453 199.99C93.1653 199.59 93.4553 199.284 93.8153 199.07C94.1819 198.85 94.5753 198.74 94.9953 198.74C95.3286 198.74 95.6253 198.8 95.8853 198.92C96.1453 199.04 96.3553 199.214 96.5153 199.44H96.5953V198.9H97.8553V203.65C97.8553 204.197 97.7486 204.67 97.5353 205.07C97.3219 205.47 97.0186 205.777 96.6253 205.99C96.2319 206.21 95.7719 206.32 95.2453 206.32ZM95.2653 202.81C95.6319 202.81 95.9453 202.684 96.2053 202.43C96.4653 202.17 96.5953 201.817 96.5953 201.37C96.5953 200.91 96.4653 200.557 96.2053 200.31C95.9519 200.057 95.6386 199.93 95.2653 199.93C94.8919 199.93 94.5753 200.057 94.3153 200.31C94.0553 200.564 93.9253 200.917 93.9253 201.37C93.9253 201.824 94.0553 202.177 94.3153 202.43C94.5753 202.684 94.8919 202.81 95.2653 202.81ZM101.562 204.16C101.055 204.16 100.598 204.044 100.192 203.81C99.7852 203.577 99.4652 203.257 99.2318 202.85C99.0052 202.437 98.8918 201.974 98.8918 201.46C98.8918 200.974 99.0052 200.524 99.2318 200.11C99.4585 199.69 99.7718 199.357 100.172 199.11C100.572 198.864 101.018 198.74 101.512 198.74C102.038 198.74 102.492 198.854 102.872 199.08C103.252 199.307 103.538 199.617 103.732 200.01C103.932 200.404 104.032 200.84 104.032 201.32C104.032 201.474 104.022 201.62 104.002 201.76H100.172C100.238 202.167 100.398 202.477 100.652 202.69C100.912 202.897 101.222 203 101.582 203C101.882 203 102.138 202.937 102.352 202.81C102.572 202.677 102.745 202.5 102.872 202.28L103.932 202.8C103.412 203.707 102.622 204.16 101.562 204.16ZM102.772 200.83C102.758 200.67 102.698 200.514 102.592 200.36C102.492 200.2 102.348 200.07 102.162 199.97C101.982 199.864 101.768 199.81 101.522 199.81C101.208 199.81 100.938 199.904 100.712 200.09C100.492 200.27 100.332 200.517 100.232 200.83H102.772ZM105.126 198.9H106.356V199.54H106.436C106.589 199.294 106.806 199.1 107.086 198.96C107.366 198.814 107.669 198.74 107.996 198.74C108.609 198.74 109.076 198.927 109.396 199.3C109.716 199.674 109.876 200.184 109.876 200.83V204H108.566V200.99C108.566 200.664 108.483 200.41 108.316 200.23C108.149 200.05 107.916 199.96 107.616 199.96C107.263 199.96 106.976 200.097 106.756 200.37C106.543 200.644 106.436 200.987 106.436 201.4V204H105.126V198.9Z" fill="white"/>
<rect x="134" y="165" width="163" height="35" rx="3.50659" fill="white" stroke="#979797" stroke-width="0.518369"/>
<path d="M145.419 177.408H150.867V178.944H147.039V180.936H150.483V182.472H147.039V184.464H150.867V186H145.419V177.408ZM152.309 179.88H153.785V180.696H153.881C154.033 180.408 154.269 180.172 154.589 179.988C154.909 179.796 155.261 179.7 155.645 179.7C155.925 179.7 156.181 179.744 156.413 179.832V181.404C156.197 181.324 156.013 181.268 155.861 181.236C155.717 181.196 155.561 181.176 155.393 181.176C154.929 181.176 154.561 181.344 154.289 181.68C154.017 182.016 153.881 182.44 153.881 182.952V186H152.309V179.88ZM156.974 179.88H158.738L159.794 183.852H159.878L161.102 179.88H162.71L163.934 183.852H164.018L165.074 179.88H166.814L164.858 186H163.166L161.918 182.04H161.834L160.598 186H158.918L156.974 179.88ZM170.515 186.192C169.907 186.192 169.359 186.052 168.871 185.772C168.383 185.492 167.999 185.108 167.719 184.62C167.447 184.124 167.311 183.568 167.311 182.952C167.311 182.368 167.447 181.828 167.719 181.332C167.991 180.828 168.367 180.428 168.847 180.132C169.327 179.836 169.863 179.688 170.455 179.688C171.087 179.688 171.631 179.824 172.087 180.096C172.543 180.368 172.887 180.74 173.119 181.212C173.359 181.684 173.479 182.208 173.479 182.784C173.479 182.968 173.467 183.144 173.443 183.312H168.847C168.927 183.8 169.119 184.172 169.423 184.428C169.735 184.676 170.107 184.8 170.539 184.8C170.899 184.8 171.207 184.724 171.463 184.572C171.727 184.412 171.935 184.2 172.087 183.936L173.359 184.56C172.735 185.648 171.787 186.192 170.515 186.192ZM171.967 182.196C171.951 182.004 171.879 181.816 171.751 181.632C171.631 181.44 171.459 181.284 171.235 181.164C171.019 181.036 170.763 180.972 170.467 180.972C170.091 180.972 169.767 181.084 169.495 181.308C169.231 181.524 169.039 181.82 168.919 182.196H171.967ZM175.688 179.208C175.408 179.208 175.168 179.108 174.968 178.908C174.768 178.708 174.668 178.468 174.668 178.188C174.668 177.908 174.768 177.672 174.968 177.48C175.168 177.28 175.408 177.18 175.688 177.18C175.968 177.18 176.204 177.28 176.396 177.48C176.596 177.672 176.696 177.908 176.696 178.188C176.696 178.468 176.596 178.708 176.396 178.908C176.204 179.108 175.968 179.208 175.688 179.208ZM174.896 179.88H176.468V186H174.896V179.88ZM180.832 186.096C180.528 186.096 180.248 186.052 179.992 185.964C179.736 185.868 179.528 185.74 179.368 185.58C178.992 185.22 178.804 184.708 178.804 184.044V181.224H177.736V179.88H178.804V178.152H180.376V179.88H181.876V181.224H180.376V183.756C180.376 184.068 180.444 184.292 180.58 184.428C180.692 184.556 180.884 184.62 181.156 184.62C181.308 184.62 181.432 184.6 181.528 184.56C181.632 184.52 181.764 184.452 181.924 184.356V185.892C181.58 186.028 181.216 186.096 180.832 186.096ZM185.951 186.192C185.343 186.192 184.795 186.052 184.307 185.772C183.819 185.492 183.435 185.108 183.155 184.62C182.883 184.124 182.747 183.568 182.747 182.952C182.747 182.368 182.883 181.828 183.155 181.332C183.427 180.828 183.803 180.428 184.283 180.132C184.763 179.836 185.299 179.688 185.891 179.688C186.523 179.688 187.067 179.824 187.523 180.096C187.979 180.368 188.323 180.74 188.555 181.212C188.795 181.684 188.915 182.208 188.915 182.784C188.915 182.968 188.903 183.144 188.879 183.312H184.283C184.363 183.8 184.555 184.172 184.859 184.428C185.171 184.676 185.543 184.8 185.975 184.8C186.335 184.8 186.643 184.724 186.899 184.572C187.163 184.412 187.371 184.2 187.523 183.936L188.795 184.56C188.171 185.648 187.223 186.192 185.951 186.192ZM187.403 182.196C187.387 182.004 187.315 181.816 187.187 181.632C187.067 181.44 186.895 181.284 186.671 181.164C186.455 181.036 186.199 180.972 185.903 180.972C185.527 180.972 185.203 181.084 184.931 181.308C184.667 181.524 184.475 181.82 184.355 182.196H187.403ZM190.237 179.88H191.713V180.696H191.809C191.961 180.408 192.197 180.172 192.517 179.988C192.837 179.796 193.189 179.7 193.573 179.7C193.853 179.7 194.109 179.744 194.341 179.832V181.404C194.125 181.324 193.941 181.268 193.789 181.236C193.645 181.196 193.489 181.176 193.321 181.176C192.857 181.176 192.489 181.344 192.217 181.68C191.945 182.016 191.809 182.44 191.809 182.952V186H190.237V179.88ZM197.676 186.192C196.94 186.192 196.38 185.964 195.996 185.508C195.612 185.052 195.42 184.416 195.42 183.6V179.88H196.992V183.408C196.992 183.824 197.092 184.152 197.292 184.392C197.492 184.624 197.756 184.74 198.084 184.74C198.532 184.74 198.888 184.576 199.152 184.248C199.416 183.92 199.548 183.504 199.548 183V179.88H201.12V186H199.644V185.232H199.548C199.364 185.528 199.104 185.764 198.768 185.94C198.44 186.108 198.076 186.192 197.676 186.192ZM202.762 179.88H204.238V180.648H204.334C204.518 180.352 204.778 180.12 205.114 179.952C205.45 179.776 205.814 179.688 206.206 179.688C206.942 179.688 207.502 179.912 207.886 180.36C208.27 180.808 208.462 181.42 208.462 182.196V186H206.89V182.388C206.89 181.996 206.79 181.692 206.59 181.476C206.39 181.26 206.11 181.152 205.75 181.152C205.326 181.152 204.982 181.316 204.718 181.644C204.462 181.972 204.334 182.384 204.334 182.88V186H202.762V179.88ZM212.817 188.784C212.041 188.784 211.397 188.608 210.885 188.256C210.373 187.912 210.029 187.496 209.853 187.008L211.329 186.408C211.457 186.712 211.653 186.952 211.917 187.128C212.181 187.304 212.481 187.392 212.817 187.392C213.313 187.392 213.705 187.24 213.993 186.936C214.289 186.632 214.437 186.2 214.437 185.64V185.16H214.341C214.149 185.432 213.897 185.64 213.585 185.784C213.273 185.928 212.917 186 212.517 186C212.013 186 211.541 185.872 211.101 185.616C210.669 185.352 210.321 184.984 210.057 184.512C209.793 184.032 209.661 183.476 209.661 182.844C209.661 182.212 209.793 181.66 210.057 181.188C210.321 180.708 210.669 180.34 211.101 180.084C211.541 179.82 212.013 179.688 212.517 179.688C212.917 179.688 213.273 179.76 213.585 179.904C213.897 180.048 214.149 180.256 214.341 180.528H214.437V179.88H215.949V185.58C215.949 186.236 215.821 186.804 215.565 187.284C215.309 187.764 214.945 188.132 214.473 188.388C214.001 188.652 213.449 188.784 212.817 188.784ZM212.841 184.572C213.281 184.572 213.657 184.42 213.969 184.116C214.281 183.804 214.437 183.38 214.437 182.844C214.437 182.292 214.281 181.868 213.969 181.572C213.665 181.268 213.289 181.116 212.841 181.116C212.393 181.116 212.013 181.268 211.701 181.572C211.389 181.876 211.233 182.3 211.233 182.844C211.233 183.388 211.389 183.812 211.701 184.116C212.013 184.42 212.393 184.572 212.841 184.572ZM220.519 177.408H222.091V179.58L221.995 180.648H222.091C222.267 180.36 222.523 180.128 222.859 179.952C223.195 179.776 223.559 179.688 223.951 179.688C224.695 179.688 225.263 179.912 225.655 180.36C226.055 180.8 226.255 181.412 226.255 182.196V186H224.683V182.388C224.683 181.996 224.575 181.692 224.359 181.476C224.151 181.26 223.871 181.152 223.519 181.152C223.103 181.152 222.759 181.32 222.487 181.656C222.223 181.992 222.091 182.404 222.091 182.892V186H220.519V177.408ZM228.736 179.208C228.456 179.208 228.216 179.108 228.016 178.908C227.816 178.708 227.716 178.468 227.716 178.188C227.716 177.908 227.816 177.672 228.016 177.48C228.216 177.28 228.456 177.18 228.736 177.18C229.016 177.18 229.252 177.28 229.444 177.48C229.644 177.672 229.744 177.908 229.744 178.188C229.744 178.468 229.644 178.708 229.444 178.908C229.252 179.108 229.016 179.208 228.736 179.208ZM227.944 179.88H229.516V186H227.944V179.88ZM231.275 179.88H232.751V180.648H232.847C233.031 180.352 233.291 180.12 233.627 179.952C233.963 179.776 234.327 179.688 234.719 179.688C235.455 179.688 236.015 179.912 236.399 180.36C236.783 180.808 236.975 181.42 236.975 182.196V186H235.403V182.388C235.403 181.996 235.303 181.692 235.103 181.476C234.903 181.26 234.623 181.152 234.263 181.152C233.839 181.152 233.495 181.316 233.231 181.644C232.975 181.972 232.847 182.384 232.847 182.88V186H231.275V179.88ZM238.257 184.716L241.449 181.212H238.353V179.88H243.381V181.164L240.189 184.668H243.477V186H238.257V184.716ZM247.016 186.192C246.28 186.192 245.72 185.964 245.336 185.508C244.952 185.052 244.76 184.416 244.76 183.6V179.88H246.332V183.408C246.332 183.824 246.432 184.152 246.632 184.392C246.832 184.624 247.096 184.74 247.424 184.74C247.872 184.74 248.228 184.576 248.492 184.248C248.756 183.92 248.888 183.504 248.888 183V179.88H250.46V186H248.984V185.232H248.888C248.704 185.528 248.444 185.764 248.108 185.94C247.78 186.108 247.416 186.192 247.016 186.192ZM252.821 181.224H251.729V179.88H252.821V179.544C252.821 178.848 253.029 178.304 253.445 177.912C253.861 177.512 254.405 177.312 255.077 177.312C255.461 177.312 255.793 177.356 256.073 177.444V178.98C255.921 178.916 255.785 178.868 255.665 178.836C255.553 178.804 255.421 178.788 255.269 178.788C255.005 178.788 254.793 178.864 254.633 179.016C254.473 179.168 254.393 179.376 254.393 179.64V179.88H255.893V181.224H254.393V186H252.821V181.224ZM259.319 186.192C258.583 186.192 258.023 185.964 257.639 185.508C257.255 185.052 257.063 184.416 257.063 183.6V179.88H258.635V183.408C258.635 183.824 258.735 184.152 258.935 184.392C259.135 184.624 259.399 184.74 259.727 184.74C260.175 184.74 260.531 184.576 260.795 184.248C261.059 183.92 261.191 183.504 261.191 183V179.88H262.763V186H261.287V185.232H261.191C261.007 185.528 260.747 185.764 260.411 185.94C260.083 186.108 259.719 186.192 259.319 186.192ZM258.779 178.716C258.539 178.716 258.335 178.632 258.167 178.464C257.999 178.296 257.915 178.092 257.915 177.852C257.915 177.612 257.999 177.412 258.167 177.252C258.335 177.084 258.539 177 258.779 177C259.019 177 259.219 177.084 259.379 177.252C259.547 177.412 259.631 177.612 259.631 177.852C259.631 178.092 259.547 178.296 259.379 178.464C259.219 178.632 259.019 178.716 258.779 178.716ZM261.059 178.716C260.827 178.716 260.627 178.632 260.459 178.464C260.291 178.296 260.207 178.092 260.207 177.852C260.207 177.612 260.291 177.412 260.459 177.252C260.627 177.084 260.827 177 261.059 177C261.307 177 261.511 177.084 261.671 177.252C261.839 177.412 261.923 177.612 261.923 177.852C261.923 178.092 261.839 178.296 261.671 178.464C261.511 178.632 261.307 178.716 261.059 178.716ZM267.166 188.784C266.39 188.784 265.746 188.608 265.234 188.256C264.722 187.912 264.378 187.496 264.202 187.008L265.678 186.408C265.806 186.712 266.002 186.952 266.266 187.128C266.53 187.304 266.83 187.392 267.166 187.392C267.662 187.392 268.054 187.24 268.342 186.936C268.638 186.632 268.786 186.2 268.786 185.64V185.16H268.69C268.498 185.432 268.246 185.64 267.934 185.784C267.622 185.928 267.266 186 266.866 186C266.362 186 265.89 185.872 265.45 185.616C265.018 185.352 264.67 184.984 264.406 184.512C264.142 184.032 264.01 183.476 264.01 182.844C264.01 182.212 264.142 181.66 264.406 181.188C264.67 180.708 265.018 180.34 265.45 180.084C265.89 179.82 266.362 179.688 266.866 179.688C267.266 179.688 267.622 179.76 267.934 179.904C268.246 180.048 268.498 180.256 268.69 180.528H268.786V179.88H270.298V185.58C270.298 186.236 270.17 186.804 269.914 187.284C269.658 187.764 269.294 188.132 268.822 188.388C268.35 188.652 267.798 188.784 267.166 188.784ZM267.19 184.572C267.63 184.572 268.006 184.42 268.318 184.116C268.63 183.804 268.786 183.38 268.786 182.844C268.786 182.292 268.63 181.868 268.318 181.572C268.014 181.268 267.638 181.116 267.19 181.116C266.742 181.116 266.362 181.268 266.05 181.572C265.738 181.876 265.582 182.3 265.582 182.844C265.582 183.388 265.738 183.812 266.05 184.116C266.362 184.42 266.742 184.572 267.19 184.572ZM274.754 186.192C274.146 186.192 273.598 186.052 273.11 185.772C272.622 185.492 272.238 185.108 271.958 184.62C271.686 184.124 271.55 183.568 271.55 182.952C271.55 182.368 271.686 181.828 271.958 181.332C272.23 180.828 272.606 180.428 273.086 180.132C273.566 179.836 274.102 179.688 274.694 179.688C275.326 179.688 275.87 179.824 276.326 180.096C276.782 180.368 277.126 180.74 277.358 181.212C277.598 181.684 277.718 182.208 277.718 182.784C277.718 182.968 277.706 183.144 277.682 183.312H273.086C273.166 183.8 273.358 184.172 273.662 184.428C273.974 184.676 274.346 184.8 274.778 184.8C275.138 184.8 275.446 184.724 275.702 184.572C275.966 184.412 276.174 184.2 276.326 183.936L277.598 184.56C276.974 185.648 276.026 186.192 274.754 186.192ZM276.206 182.196C276.19 182.004 276.118 181.816 275.99 181.632C275.87 181.44 275.698 181.284 275.474 181.164C275.258 181.036 275.002 180.972 274.706 180.972C274.33 180.972 274.006 181.084 273.734 181.308C273.47 181.524 273.278 181.82 273.158 182.196H276.206ZM279.039 179.88H280.515V180.648H280.611C280.795 180.352 281.055 180.12 281.391 179.952C281.727 179.776 282.091 179.688 282.483 179.688C283.219 179.688 283.779 179.912 284.163 180.36C284.547 180.808 284.739 181.42 284.739 182.196V186H283.167V182.388C283.167 181.996 283.067 181.692 282.867 181.476C282.667 181.26 282.387 181.152 282.027 181.152C281.603 181.152 281.259 181.316 280.995 181.644C280.739 181.972 280.611 182.384 280.611 182.88V186H279.039V179.88Z" fill="#3675E0"/>
<path d="M44.9266 170.743H39.9969V174.774H45.7234V176H38.4969V164.625H45.6453V165.86H39.9969V169.516H44.9266V170.743ZM51.75 168.844C51.5313 168.808 51.2943 168.789 51.0391 168.789C50.0911 168.789 49.4479 169.193 49.1094 170V176H47.6641V167.547H49.0703L49.0938 168.524C49.5677 167.769 50.2396 167.391 51.1094 167.391C51.3906 167.391 51.6042 167.428 51.75 167.5V168.844ZM58.3078 173.758C58.3078 173.368 58.1594 173.066 57.8625 172.852C57.5708 172.633 57.0578 172.446 56.3234 172.289C55.5943 172.133 55.0135 171.946 54.5813 171.727C54.1542 171.508 53.8365 171.248 53.6281 170.946C53.425 170.644 53.3234 170.284 53.3234 169.868C53.3234 169.175 53.6151 168.589 54.1984 168.11C54.787 167.631 55.537 167.391 56.4484 167.391C57.4068 167.391 58.1828 167.638 58.7766 168.133C59.3755 168.628 59.675 169.261 59.675 170.032H58.2219C58.2219 169.636 58.0526 169.295 57.7141 169.008C57.3807 168.722 56.9589 168.579 56.4484 168.579C55.9224 168.579 55.5109 168.693 55.2141 168.922C54.9172 169.151 54.7688 169.451 54.7688 169.821C54.7688 170.17 54.9068 170.433 55.1828 170.61C55.4589 170.787 55.9563 170.956 56.675 171.118C57.399 171.279 57.9849 171.472 58.4328 171.696C58.8807 171.92 59.2115 172.191 59.425 172.508C59.6438 172.821 59.7531 173.204 59.7531 173.657C59.7531 174.412 59.451 175.019 58.8469 175.477C58.2427 175.93 57.4589 176.157 56.4953 176.157C55.8182 176.157 55.2193 176.037 54.6984 175.797C54.1776 175.558 53.7688 175.224 53.4719 174.797C53.1802 174.365 53.0344 173.899 53.0344 173.399H54.4797C54.5057 173.883 54.6984 174.269 55.0578 174.555C55.4224 174.836 55.9016 174.977 56.4953 174.977C57.0422 174.977 57.4797 174.868 57.8078 174.649C58.1411 174.425 58.3078 174.128 58.3078 173.758ZM63.8969 165.5V167.547H65.475V168.664H63.8969V173.907C63.8969 174.245 63.9672 174.5 64.1078 174.672C64.2484 174.839 64.488 174.922 64.8266 174.922C64.9932 174.922 65.2224 174.891 65.5141 174.829V176C65.1339 176.105 64.7641 176.157 64.4047 176.157C63.7589 176.157 63.2719 175.961 62.9438 175.571C62.6156 175.18 62.4516 174.625 62.4516 173.907V168.664H60.9125V167.547H62.4516V165.5H63.8969ZM70.9781 176.157C69.8323 176.157 68.9 175.782 68.1813 175.032C67.4625 174.276 67.1031 173.269 67.1031 172.008V171.743C67.1031 170.904 67.262 170.157 67.5797 169.5C67.9026 168.839 68.3505 168.323 68.9234 167.954C69.5016 167.579 70.1266 167.391 70.7984 167.391C71.8974 167.391 72.7516 167.753 73.3609 168.477C73.9703 169.201 74.275 170.237 74.275 171.586V172.188H68.5484C68.5693 173.021 68.8115 173.696 69.275 174.211C69.7438 174.722 70.3375 174.977 71.0563 174.977C71.5667 174.977 71.999 174.873 72.3531 174.664C72.7073 174.456 73.0172 174.18 73.2828 173.836L74.1656 174.524C73.4573 175.612 72.3948 176.157 70.9781 176.157ZM70.7984 168.579C70.2151 168.579 69.7255 168.792 69.3297 169.219C68.9339 169.641 68.6891 170.235 68.5953 171H72.8297V170.891C72.788 170.157 72.5901 169.589 72.2359 169.188C71.8818 168.782 71.4026 168.579 70.7984 168.579ZM80.3406 168.844C80.1219 168.808 79.8849 168.789 79.6297 168.789C78.6818 168.789 78.0385 169.193 77.7 170V176H76.2547V167.547H77.6609L77.6844 168.524C78.1583 167.769 78.8302 167.391 79.7 167.391C79.9813 167.391 80.1948 167.428 80.3406 167.5V168.844ZM89.3625 170.711L87.9719 172.157V176H86.4719V164.625H87.9719V170.25L93.0266 164.625H94.8391L90.3625 169.649L95.1906 176H93.3937L89.3625 170.711ZM98.1469 176H96.7016V164H98.1469V176ZM102.338 176H100.892V167.547H102.338V176ZM100.775 165.305C100.775 165.071 100.845 164.873 100.986 164.711C101.132 164.55 101.345 164.469 101.627 164.469C101.908 164.469 102.121 164.55 102.267 164.711C102.413 164.873 102.486 165.071 102.486 165.305C102.486 165.539 102.413 165.735 102.267 165.891C102.121 166.047 101.908 166.125 101.627 166.125C101.345 166.125 101.132 166.047 100.986 165.891C100.845 165.735 100.775 165.539 100.775 165.305ZM108.348 174.977C108.864 174.977 109.315 174.821 109.7 174.508C110.085 174.196 110.299 173.805 110.341 173.336H111.708C111.682 173.821 111.515 174.282 111.208 174.719C110.901 175.157 110.489 175.506 109.973 175.766C109.463 176.026 108.921 176.157 108.348 176.157C107.197 176.157 106.281 175.774 105.598 175.008C104.921 174.237 104.583 173.185 104.583 171.852V171.61C104.583 170.787 104.734 170.055 105.036 169.414C105.338 168.774 105.77 168.276 106.333 167.922C106.901 167.568 107.57 167.391 108.341 167.391C109.289 167.391 110.075 167.675 110.7 168.243C111.33 168.81 111.666 169.547 111.708 170.454H110.341C110.299 169.907 110.091 169.459 109.716 169.11C109.346 168.756 108.887 168.579 108.341 168.579C107.606 168.579 107.036 168.844 106.63 169.375C106.229 169.901 106.028 170.664 106.028 171.664V171.938C106.028 172.912 106.229 173.662 106.63 174.188C107.031 174.714 107.604 174.977 108.348 174.977ZM115.992 172.086L115.086 173.032V176H113.641V164H115.086V171.258L115.859 170.329L118.492 167.547H120.25L116.961 171.079L120.633 176H118.938L115.992 172.086ZM121.995 175.243C121.995 174.993 122.068 174.784 122.214 174.618C122.365 174.451 122.589 174.368 122.886 174.368C123.183 174.368 123.407 174.451 123.558 174.618C123.714 174.784 123.792 174.993 123.792 175.243C123.792 175.482 123.714 175.683 123.558 175.844C123.407 176.006 123.183 176.086 122.886 176.086C122.589 176.086 122.365 176.006 122.214 175.844C122.068 175.683 121.995 175.482 121.995 175.243ZM122.003 168.344C122.003 168.094 122.076 167.886 122.222 167.719C122.373 167.553 122.597 167.469 122.894 167.469C123.191 167.469 123.415 167.553 123.566 167.719C123.722 167.886 123.8 168.094 123.8 168.344C123.8 168.584 123.722 168.784 123.566 168.946C123.415 169.107 123.191 169.188 122.894 169.188C122.597 169.188 122.373 169.107 122.222 168.946C122.076 168.784 122.003 168.584 122.003 168.344Z" fill="#62707B"/>
<path d="M168.472 151.774H174.98V153.001H166.698V151.876L172.933 142.86H166.8V141.626H174.73V142.727L168.472 151.774ZM184.264 151.008L185.889 144.547H187.334L184.873 153.001H183.702L181.647 146.594L179.647 153.001H178.475L176.022 144.547H177.459L179.123 150.876L181.092 144.547H182.256L184.264 151.008ZM192.619 153.157C191.473 153.157 190.541 152.782 189.822 152.032C189.103 151.277 188.744 150.269 188.744 149.008V148.743C188.744 147.904 188.903 147.157 189.22 146.501C189.543 145.839 189.991 145.323 190.564 144.954C191.142 144.579 191.767 144.391 192.439 144.391C193.538 144.391 194.392 144.753 195.002 145.477C195.611 146.201 195.916 147.237 195.916 148.586V149.188H190.189C190.21 150.021 190.452 150.696 190.916 151.211C191.384 151.722 191.978 151.977 192.697 151.977C193.207 151.977 193.64 151.873 193.994 151.665C194.348 151.456 194.658 151.18 194.923 150.836L195.806 151.524C195.098 152.612 194.035 153.157 192.619 153.157ZM192.439 145.579C191.856 145.579 191.366 145.792 190.97 146.219C190.574 146.641 190.33 147.235 190.236 148.001H194.47V147.891C194.429 147.157 194.231 146.589 193.877 146.188C193.522 145.782 193.043 145.579 192.439 145.579ZM199.466 153.001H198.02V144.547H199.466V153.001ZM197.903 142.305C197.903 142.071 197.973 141.873 198.114 141.711C198.26 141.55 198.473 141.469 198.755 141.469C199.036 141.469 199.249 141.55 199.395 141.711C199.541 141.873 199.614 142.071 199.614 142.305C199.614 142.54 199.541 142.735 199.395 142.891C199.249 143.047 199.036 143.126 198.755 143.126C198.473 143.126 198.26 143.047 198.114 142.891C197.973 142.735 197.903 142.54 197.903 142.305ZM204.047 142.501V144.547H205.625V145.665H204.047V150.907C204.047 151.245 204.117 151.501 204.258 151.672C204.398 151.839 204.638 151.922 204.977 151.922C205.143 151.922 205.372 151.891 205.664 151.829V153.001C205.284 153.105 204.914 153.157 204.555 153.157C203.909 153.157 203.422 152.961 203.094 152.571C202.766 152.18 202.602 151.626 202.602 150.907V145.665H201.062V144.547H202.602V142.501H204.047ZM211.128 153.157C209.982 153.157 209.05 152.782 208.331 152.032C207.612 151.277 207.253 150.269 207.253 149.008V148.743C207.253 147.904 207.412 147.157 207.73 146.501C208.053 145.839 208.501 145.323 209.073 144.954C209.652 144.579 210.277 144.391 210.948 144.391C212.047 144.391 212.902 144.753 213.511 145.477C214.12 146.201 214.425 147.237 214.425 148.586V149.188H208.698C208.719 150.021 208.961 150.696 209.425 151.211C209.894 151.722 210.487 151.977 211.206 151.977C211.717 151.977 212.149 151.873 212.503 151.665C212.857 151.456 213.167 151.18 213.433 150.836L214.316 151.524C213.607 152.612 212.545 153.157 211.128 153.157ZM210.948 145.579C210.365 145.579 209.876 145.792 209.48 146.219C209.084 146.641 208.839 147.235 208.745 148.001H212.98V147.891C212.938 147.157 212.74 146.589 212.386 146.188C212.032 145.782 211.553 145.579 210.948 145.579ZM220.491 145.844C220.272 145.808 220.035 145.79 219.78 145.79C218.832 145.79 218.189 146.193 217.85 147.001V153.001H216.405V144.547H217.811L217.834 145.524C218.308 144.769 218.98 144.391 219.85 144.391C220.131 144.391 220.345 144.428 220.491 144.501V145.844ZM229.513 147.711L228.122 149.157V153.001H226.622V141.626H228.122V147.251L233.177 141.626H234.989L230.513 146.649L235.341 153.001H233.544L229.513 147.711ZM238.297 153.001H236.852V141.001H238.297V153.001ZM242.488 153.001H241.042V144.547H242.488V153.001ZM240.925 142.305C240.925 142.071 240.995 141.873 241.136 141.711C241.282 141.55 241.495 141.469 241.777 141.469C242.058 141.469 242.271 141.55 242.417 141.711C242.563 141.873 242.636 142.071 242.636 142.305C242.636 142.54 242.563 142.735 242.417 142.891C242.271 143.047 242.058 143.126 241.777 143.126C241.495 143.126 241.282 143.047 241.136 142.891C240.995 142.735 240.925 142.54 240.925 142.305ZM248.498 151.977C249.014 151.977 249.465 151.821 249.85 151.508C250.235 151.196 250.449 150.805 250.491 150.336H251.858C251.832 150.821 251.665 151.282 251.358 151.719C251.051 152.157 250.639 152.506 250.123 152.766C249.613 153.027 249.071 153.157 248.498 153.157C247.347 153.157 246.431 152.774 245.748 152.008C245.071 151.237 244.733 150.185 244.733 148.852V148.61C244.733 147.787 244.884 147.055 245.186 146.415C245.488 145.774 245.92 145.277 246.483 144.922C247.051 144.568 247.72 144.391 248.491 144.391C249.439 144.391 250.225 144.675 250.85 145.243C251.48 145.81 251.816 146.547 251.858 147.454H250.491C250.449 146.907 250.241 146.459 249.866 146.11C249.496 145.756 249.038 145.579 248.491 145.579C247.756 145.579 247.186 145.844 246.78 146.376C246.379 146.902 246.178 147.665 246.178 148.665V148.938C246.178 149.912 246.379 150.662 246.78 151.188C247.181 151.714 247.754 151.977 248.498 151.977ZM256.142 149.086L255.236 150.032V153.001H253.791V141.001H255.236V148.258L256.009 147.329L258.642 144.547H260.4L257.111 148.079L260.783 153.001H259.087L256.142 149.086ZM262.145 152.243C262.145 151.993 262.218 151.784 262.364 151.618C262.515 151.451 262.739 151.368 263.036 151.368C263.333 151.368 263.557 151.451 263.708 151.618C263.864 151.784 263.942 151.993 263.942 152.243C263.942 152.482 263.864 152.683 263.708 152.844C263.557 153.006 263.333 153.086 263.036 153.086C262.739 153.086 262.515 153.006 262.364 152.844C262.218 152.683 262.145 152.482 262.145 152.243ZM262.153 145.344C262.153 145.094 262.226 144.886 262.372 144.719C262.523 144.553 262.747 144.469 263.044 144.469C263.341 144.469 263.565 144.553 263.716 144.719C263.872 144.886 263.95 145.094 263.95 145.344C263.95 145.584 263.872 145.784 263.716 145.946C263.565 146.107 263.341 146.188 263.044 146.188C262.747 146.188 262.523 146.107 262.372 145.946C262.226 145.784 262.153 145.584 262.153 145.344Z" fill="#62707B"/>
</svg>
