<svg width="345" height="130" viewBox="0 0 345 130" fill="none" xmlns="http://www.w3.org/2000/svg">
<g clip-path="url(#clip0)">
<path fill-rule="evenodd" clip-rule="evenodd" d="M67.5378 45.1891C66.5665 45.1891 65.6346 45.3569 64.7679 45.6632C63.6338 39.1914 57.9891 34.2725 51.196 34.2725C45.1494 34.2725 40.0131 38.1698 38.1574 43.5907C36.4991 42.3908 34.4625 41.6812 32.2593 41.6812C26.6936 41.6812 22.1815 46.196 22.1815 51.7655C22.1815 57.3343 26.6936 61.8491 32.2593 61.8491C32.5338 61.8491 32.8049 61.8352 33.0738 61.8138C34.6761 65.6641 38.4714 68.3717 42.8999 68.3717C47.2413 68.3717 50.973 65.7687 52.628 62.0388C54.1547 63.8994 56.4707 65.0865 59.0642 65.0865C61.828 65.0865 64.2757 63.738 65.7899 61.6636C66.3536 61.784 66.938 61.8491 67.5378 61.8491C72.1355 61.8491 75.8628 58.1196 75.8628 53.5193C75.8628 48.9187 72.1355 45.1891 67.5378 45.1891Z" fill="#E8EEF1"/>
<path opacity="0.4" fill-rule="evenodd" clip-rule="evenodd" d="M41.2229 38.9761C41.2883 38.7499 41.3669 38.5306 41.4511 38.3146C43.945 35.818 47.3898 34.2727 51.1961 34.2727C57.9891 34.2727 63.6338 39.1913 64.7679 45.6631C65.6347 45.3572 66.5661 45.1894 67.5378 45.1894C70.9281 45.1894 73.8435 47.2186 75.1416 50.1286C74.2211 52.5262 71.0827 53.7212 67.9353 52.8062C65.4734 52.0909 63.706 50.2885 63.2954 48.3323C60.7304 51.7078 55.4787 53.1794 50.2146 51.6499C43.7611 49.7746 39.7356 44.1001 41.2229 38.9761Z" fill="#FEFEFE"/>
<path opacity="0.8" fill-rule="evenodd" clip-rule="evenodd" d="M70.0186 46.9043C69.3642 46.6662 68.6809 46.8942 68.4918 47.4137C68.3026 47.9334 68.6796 48.5473 69.3339 48.7855C69.9883 49.0236 70.6717 48.7956 70.8608 48.2759C71.0499 47.7564 70.673 47.1425 70.0186 46.9043Z" fill="#FEFEFE"/>
<path fill-rule="evenodd" clip-rule="evenodd" d="M28.3775 51.6175C27.6217 47.2681 23.8604 43.9624 19.3339 43.9624C15.3047 43.9624 11.8822 46.5816 10.6457 50.2247C9.54064 49.4183 8.18356 48.9414 6.71547 48.9414C3.00679 48.9414 0.000209808 51.9755 0.000209808 55.7185C0.000209808 59.4609 3.00679 62.4951 6.71547 62.4951C6.89839 62.4951 7.07905 62.4858 7.25821 62.4713C8.32588 65.0589 10.8549 66.8786 13.8058 66.8786C16.6987 66.8786 19.1853 65.1292 20.2881 62.6226C21.3054 63.873 22.8486 64.6708 24.5768 64.6708C26.4185 64.6708 28.0495 63.7645 29.0585 62.3704C29.4341 62.4514 29.8235 62.4951 30.2231 62.4951C33.2869 62.4951 35.7705 59.9887 35.7705 56.8971C35.7705 53.8053 33.2869 51.2989 30.2231 51.2989C29.5759 51.2989 28.955 51.4116 28.3775 51.6175Z" fill="#F2F6F8" stroke="white" stroke-opacity="0.6" stroke-width="0.440397"/>
<path fill-rule="evenodd" clip-rule="evenodd" d="M29.9983 51.2898C30.7667 51.2875 31.5354 51.4497 32.2379 51.7648C32.9405 52.0792 33.578 52.5425 34.0936 53.1188C34.6096 53.6944 35.0039 54.38 35.2448 55.1177C35.4868 55.8551 35.5706 56.645 35.4924 57.4191C35.4155 58.1934 35.1733 58.9509 34.7878 59.6264C34.4037 60.3029 33.8758 60.8969 33.2492 61.3559C32.6239 61.8164 31.9017 62.1438 31.1429 62.3071C30.3843 62.4713 29.5911 62.4717 28.8311 62.3101L28.903 62.2824C28.4069 62.9723 27.753 63.5471 27.0051 63.9474C26.2578 64.3491 25.4169 64.5725 24.5696 64.5976C23.7223 64.6277 22.8687 64.4522 22.0974 64.0972C21.3254 63.7427 20.6364 63.2076 20.0977 62.5472L20.25 62.5263C19.6908 63.7987 18.7537 64.8969 17.5923 65.6477C16.4333 66.403 15.0507 66.8016 13.6713 66.7819C12.9819 66.7745 12.293 66.6662 11.6349 66.4579C10.9769 66.2494 10.3499 65.9432 9.77974 65.5529C8.63771 64.774 7.72948 63.6535 7.20324 62.3698L7.28066 62.4174C7.01152 62.4267 6.74246 62.449 6.47314 62.4334C6.33843 62.4312 6.20445 62.4148 6.0701 62.4061C5.93648 62.3898 5.8025 62.3742 5.6696 62.3529C5.13802 62.265 4.61696 62.1138 4.12046 61.9035C3.62577 61.689 3.1562 61.4164 2.72379 61.0933C2.29401 60.7665 1.90249 60.3892 1.55828 59.9722C1.21789 59.5522 0.925897 59.0923 0.690294 58.6048C0.458498 58.1153 0.284719 57.5983 0.172583 57.0681C0.0609909 56.5377 0.0184754 55.9933 0.0345207 55.452C0.0405037 55.181 0.0700561 54.9113 0.106589 54.6428C0.15128 54.3757 0.203133 54.1094 0.278101 53.8492C0.565557 52.8046 1.112 51.8349 1.84882 51.0469C2.58355 50.2567 3.50983 49.6483 4.52449 49.2932C5.5387 48.9353 6.6383 48.8324 7.70047 48.9886C8.76327 49.1431 9.78554 49.5639 10.6542 50.1989L10.5816 50.2221C11.2342 48.3068 12.5394 46.6332 14.2167 45.5281C15.054 44.9739 15.9822 44.5597 16.9525 44.3102C17.9226 44.06 18.9341 43.9748 19.9313 44.0551C20.9287 44.135 21.9125 44.3807 22.8306 44.7805C23.7493 45.1792 24.5995 45.7359 25.3386 46.4143C26.0781 47.0925 26.7063 47.8934 27.1891 48.7754C27.6724 49.6572 28.0094 50.6199 28.1825 51.6119L28.1685 51.6038C28.755 51.3955 29.3767 51.2891 29.9983 51.2898ZM29.9983 51.3081C29.3787 51.3084 28.7595 51.4154 28.1757 51.6239L28.1639 51.6281L28.1617 51.6156C27.9872 50.6261 27.6497 49.6665 27.1662 48.7883C26.6834 47.9095 26.0558 47.1122 25.3177 46.4375C24.58 45.7626 23.7321 45.2095 22.8163 44.8138C21.9014 44.4162 20.9204 44.1763 19.9278 44.1014C18.9352 44.0258 17.9299 44.1151 16.9673 44.3679C16.0044 44.6201 15.0847 45.0354 14.2565 45.5889C13.4279 46.1418 12.6904 46.8323 12.0822 47.6237C11.4739 48.4148 10.9939 49.3062 10.6713 50.253L10.6505 50.3139L10.5987 50.2762C9.7409 49.6521 8.73285 49.24 7.68592 49.0904C6.63953 48.9388 5.55724 49.0427 4.56062 49.3969C3.56336 49.7486 2.65403 50.3489 1.93372 51.1271C1.21141 51.9032 0.677015 52.8567 0.397265 53.8826C0.324109 54.1381 0.273978 54.3996 0.230647 54.6618C0.195384 54.9252 0.166919 55.19 0.161752 55.456C0.147157 55.9873 0.190035 56.521 0.30063 57.0409C0.411769 57.5605 0.583282 58.0667 0.811361 58.5458C1.04343 59.0231 1.33043 59.4727 1.66475 59.8837C2.00298 60.2912 2.38716 60.6598 2.8086 60.9788C3.23275 61.2941 3.69272 61.56 4.17725 61.7686C4.66351 61.9729 5.17342 62.1191 5.69331 62.2036C5.8233 62.2242 5.95429 62.2389 6.08501 62.2545C6.21637 62.2626 6.34736 62.2784 6.47908 62.28C6.74242 62.2946 7.00531 62.2716 7.26838 62.2621L7.32531 62.26L7.34589 62.3098C7.86414 63.5641 8.75543 64.6568 9.87298 65.4142C10.4309 65.7937 11.0438 66.0907 11.6863 66.2922C12.3288 66.4937 13.0009 66.5973 13.6734 66.6025C15.0185 66.6185 16.3652 66.232 17.4949 65.4951C18.6267 64.7632 19.5402 63.6923 20.085 62.4524L20.1442 62.3175L20.2373 62.4316C20.7589 63.0706 21.4258 63.5884 22.1726 63.9312C22.9189 64.2765 23.7441 64.4398 24.5648 64.4194C25.3856 64.4008 26.2021 64.1903 26.9307 63.8053C27.6599 63.4217 28.3004 62.8671 28.7886 62.1981L28.8161 62.1605L28.8608 62.1704C29.6004 62.3331 30.3746 62.3383 31.1171 62.1832C31.8597 62.0288 32.5689 61.7135 33.185 61.2664C34.4245 60.3781 35.2603 58.9412 35.4208 57.4115C35.5046 56.648 35.429 55.8662 35.1958 55.1336C34.9639 54.4005 34.5733 53.7195 34.0644 53.1452C33.5552 52.5707 32.9238 52.1071 32.2263 51.7911C31.5288 51.4745 30.7642 51.3092 29.9983 51.3081Z" fill="#F3F3F3"/>
<path opacity="0.4" fill-rule="evenodd" clip-rule="evenodd" d="M12.6884 47.1233C12.732 46.9713 12.7844 46.8239 12.8405 46.6787C14.5023 45.0009 16.7978 43.9624 19.334 43.9624C23.8606 43.9624 27.6219 47.2679 28.3776 51.6172C28.9551 51.4116 29.5758 51.2989 30.2233 51.2989C32.4824 51.2989 34.4251 52.6626 35.29 54.6183C34.6766 56.2295 32.5854 57.0327 30.4881 56.4177C28.8476 55.937 27.67 54.7257 27.3963 53.4111C25.6872 55.6796 22.1878 56.6685 18.68 55.6406C14.3798 54.3803 11.6974 50.5668 12.6884 47.1233Z" fill="#FEFEFE"/>
<path opacity="0.8" fill-rule="evenodd" clip-rule="evenodd" d="M8.35476 51.1431C7.60881 51.1431 7.00444 51.6271 7.00444 52.2243C7.00444 52.8219 7.60881 53.3058 8.35476 53.3058C9.1007 53.3058 9.70508 52.8219 9.70508 52.2243C9.70508 51.6271 9.1007 51.1431 8.35476 51.1431Z" fill="#FEFEFE"/>
<path fill-rule="evenodd" clip-rule="evenodd" d="M49.4209 54.3399C48.6652 49.9906 44.9039 46.6848 40.3774 46.6848C36.3482 46.6848 32.9257 49.304 31.6891 52.9471C30.5841 52.1407 29.227 51.6638 27.7589 51.6638C24.0503 51.6638 21.0437 54.698 21.0437 58.4409C21.0437 62.1834 24.0503 65.2175 27.7589 65.2175C27.9418 65.2175 28.1225 65.2082 28.3017 65.1938C29.3693 67.7814 31.8983 69.601 34.8493 69.601C37.7421 69.601 40.2288 67.8517 41.3315 65.345C42.3488 66.5954 43.8921 67.3932 45.6203 67.3932C47.462 67.3932 49.0929 66.4869 50.102 65.0929C50.4776 65.1738 50.8669 65.2175 51.2666 65.2175C54.3303 65.2175 56.814 62.7111 56.814 59.6195C56.814 56.5277 54.3303 54.0213 51.2666 54.0213C50.6194 54.0213 49.9985 54.1341 49.4209 54.3399Z" fill="#E8EEF1"/>
<path fill-rule="evenodd" clip-rule="evenodd" d="M51.0418 54.0123C51.8101 54.0099 52.5788 54.1721 53.2814 54.4872C53.9839 54.8017 54.6215 55.2649 55.137 55.8412C55.653 56.4168 56.0474 57.1024 56.2882 57.8401C56.5303 58.5775 56.614 59.3674 56.5359 60.1415C56.4589 60.9158 56.2168 61.6733 55.8312 62.3488C55.4471 63.0253 54.9193 63.6193 54.2927 64.0783C53.6674 64.5388 52.9452 64.8662 52.1863 65.0295C51.4277 65.1937 50.6345 65.1941 49.8745 65.0325L49.9465 65.0048C49.4504 65.6947 48.7965 66.2695 48.0485 66.6698C47.3013 67.0715 46.4603 67.2949 45.6131 67.32C44.7658 67.3501 43.9122 67.1746 43.1408 66.8196C42.3688 66.4651 41.6799 65.93 41.1412 65.2696L41.2935 65.2487C40.7342 66.5211 39.7972 67.6193 38.6357 68.3701C37.4767 69.1254 36.0941 69.524 34.7148 69.5043C34.0254 69.4969 33.3364 69.3886 32.6784 69.1803C32.0203 68.9718 31.3934 68.6656 30.8232 68.2753C29.6812 67.4964 28.7729 66.3759 28.2467 65.0922L28.3241 65.1398C28.055 65.1491 27.7859 65.1714 27.5166 65.1558C27.3819 65.1536 27.2479 65.1372 27.1136 65.1285C26.9799 65.1122 26.846 65.0966 26.7131 65.0754C26.1815 64.9874 25.6604 64.8363 25.1639 64.6259C24.6692 64.4114 24.1997 64.1388 23.7672 63.8157C23.3375 63.4889 22.9459 63.1117 22.6017 62.6947C22.2613 62.2746 21.9694 61.8147 21.7338 61.3272C21.502 60.8378 21.3282 60.3207 21.216 59.7905C21.1044 59.2601 21.0619 58.7157 21.078 58.1744C21.084 57.9034 21.1135 57.6337 21.15 57.3653C21.1947 57.0981 21.2466 56.8318 21.3216 56.5716C21.609 55.527 22.1555 54.5573 22.8923 53.7693C23.627 52.9791 24.5533 52.3707 25.5679 52.0156C26.5822 51.6577 27.6818 51.5548 28.7439 51.7111C29.8067 51.8655 30.829 52.2863 31.6976 52.9214L31.6251 52.9445C32.2777 51.0292 33.5829 49.3556 35.2601 48.2505C36.0975 47.6963 37.0257 47.2821 37.996 47.0326C38.9661 46.7824 39.9776 46.6972 40.9747 46.7775C41.9722 46.8574 42.9559 47.1031 43.874 47.5029C44.7928 47.9016 45.643 48.4583 46.3821 49.1368C47.1215 49.815 47.7497 50.6158 48.2326 51.4978C48.7159 52.3797 49.0529 53.3423 49.226 54.3343L49.212 54.3262C49.7985 54.1179 50.4202 54.0115 51.0418 54.0123ZM51.0409 54.0302C50.4213 54.0304 49.802 54.1375 49.2182 54.3459L49.2064 54.3502L49.2042 54.3377C49.0298 53.3482 48.6922 52.3886 48.2087 51.5103C47.7259 50.6316 47.0983 49.8342 46.3603 49.1596C45.6225 48.4847 44.7746 47.9316 43.8588 47.5359C42.944 47.1382 41.9629 46.8984 40.9703 46.8235C39.9778 46.7478 38.9724 46.8372 38.0098 47.09C37.0469 47.3422 36.1272 47.7575 35.299 48.311C34.4704 48.8639 33.733 49.5544 33.1247 50.3458C32.5164 51.1369 32.0364 52.0283 31.7138 52.9751L31.693 53.0359L31.6413 52.9983C30.7834 52.3742 29.7754 51.962 28.7284 51.8125C27.6821 51.6609 26.5998 51.7648 25.6031 52.119C24.6059 52.4707 23.6966 53.0709 22.9762 53.8492C22.2539 54.6252 21.7195 55.5788 21.4398 56.6047C21.3666 56.8602 21.3165 57.1217 21.2732 57.3839C21.2379 57.6473 21.2094 57.9121 21.2043 58.178C21.1897 58.7093 21.2326 59.2431 21.3432 59.763C21.4543 60.2825 21.6258 60.7888 21.8539 61.2679C22.086 61.7452 22.373 62.1948 22.7073 62.6058C23.0455 63.0133 23.4297 63.3819 23.8511 63.7009C24.2753 64.0162 24.7352 64.282 25.2198 64.4906C25.706 64.695 26.2159 64.8412 26.7358 64.9257C26.8658 64.9463 26.9968 64.961 27.1275 64.9766C27.2589 64.9846 27.3899 65.0004 27.5216 65.0021C27.7849 65.0167 28.0478 64.9937 28.3109 64.9842L28.3678 64.9821L28.3884 65.0319C28.9067 66.2861 29.798 67.3789 30.9155 68.1363C31.4735 68.5158 32.0864 68.8128 32.7288 69.0143C33.3713 69.2157 34.0434 69.3194 34.7159 69.3246C36.0611 69.3405 37.4077 68.9541 38.5374 68.2172C39.6693 67.4853 40.5828 66.4144 41.1275 65.1745L41.1868 65.0395L41.2799 65.1537C41.8014 65.7927 42.4683 66.3104 43.2151 66.6532C43.9614 66.9986 44.7866 67.1619 45.6073 67.1415C46.4282 67.1229 47.2447 66.9123 47.9732 66.5273C48.7024 66.1438 49.343 65.5892 49.8311 64.9202L49.8586 64.8826L49.9033 64.8925C50.6429 65.0552 51.4172 65.0604 52.1596 64.9052C52.9022 64.7508 53.6114 64.4356 54.2275 63.9885C55.467 63.1001 56.3028 61.6632 56.4634 60.1335C56.5471 59.3701 56.4715 58.5883 56.2383 57.8557C56.0064 57.1226 55.6159 56.4416 55.107 55.8672C54.5978 55.2927 53.9663 54.8292 53.2688 54.5132C52.5713 54.1965 51.8067 54.0313 51.0409 54.0302Z" fill="#F3F3F3"/>
<path opacity="0.4" fill-rule="evenodd" clip-rule="evenodd" d="M33.7319 49.8457C33.7755 49.6937 33.8278 49.5463 33.884 49.4011C35.5458 47.7233 37.8412 46.6848 40.3775 46.6848C44.904 46.6848 48.6653 49.9903 49.421 54.3396C49.9986 54.1341 50.6193 54.0213 51.2667 54.0213C53.5259 54.0213 55.4685 55.385 56.3335 57.3407C55.7201 58.952 53.6288 59.7551 51.5316 59.1401C49.8911 58.6594 48.7134 57.4481 48.4398 56.1335C46.7307 58.402 43.2312 59.3909 39.7235 58.363C35.4232 57.1027 32.7409 53.2892 33.7319 49.8457Z" fill="#FEFEFE"/>
<path fill-rule="evenodd" clip-rule="evenodd" d="M92.5198 44.6957C94.2552 44.6957 95.9198 44.9968 97.4682 45.5441C99.4944 33.9616 109.579 25.1589 121.715 25.1589C132.518 25.1589 141.694 32.134 145.01 41.8355C147.972 39.6876 151.611 38.4179 155.547 38.4179C165.491 38.4179 173.552 46.4977 173.552 56.4649C173.552 66.4319 165.491 74.5119 155.547 74.5119C155.057 74.5119 154.573 74.4865 154.092 74.4481C151.23 81.3392 144.448 86.1851 136.536 86.1851C128.781 86.1851 122.114 81.5268 119.157 74.8512C116.43 78.1809 112.291 80.3054 107.658 80.3054C102.721 80.3054 98.3476 77.8921 95.6425 74.18C94.6352 74.3959 93.5912 74.5119 92.5198 74.5119C84.3057 74.5119 77.6467 67.8372 77.6467 59.6038C77.6467 51.3701 84.3057 44.6957 92.5198 44.6957Z" fill="#E8EEF1"/>
<path opacity="0.7" fill-rule="evenodd" clip-rule="evenodd" d="M106.164 43.2079C106.164 35.3783 110.775 28.6317 117.421 25.5361C118.815 25.2902 120.25 25.1589 121.715 25.1589C132.518 25.1589 141.694 32.1337 145.01 41.8355C147.972 39.6876 151.611 38.4179 155.547 38.4179C160.619 38.4179 165.198 40.5235 168.471 43.9066C169.494 45.8773 170.075 48.1145 170.075 50.4892C170.075 58.3821 163.691 64.7803 155.817 64.7803C149.063 64.7803 143.41 60.0716 141.937 53.7517C138.478 59.1267 132.455 62.6883 125.599 62.6883C114.865 62.6883 106.164 53.9666 106.164 43.2079Z" fill="#FEFEFE"/>
<path fill-rule="evenodd" clip-rule="evenodd" d="M277.325 39.0756C278.296 39.0756 279.228 39.2434 280.095 39.5497C281.229 33.0779 286.874 28.1589 293.667 28.1589C299.713 28.1589 304.85 32.0563 306.705 37.4772C308.364 36.2773 310.4 35.5676 312.604 35.5676C318.169 35.5676 322.681 40.0825 322.681 45.652C322.681 51.2208 318.169 55.7356 312.604 55.7356C312.329 55.7356 312.058 55.7217 311.789 55.7002C310.187 59.5506 306.391 62.2582 301.963 62.2582C297.622 62.2582 293.89 59.6552 292.235 55.9252C290.708 57.7859 288.392 58.973 285.799 58.973C283.035 58.973 280.587 57.6245 279.073 55.5501C278.509 55.6705 277.925 55.7356 277.325 55.7356C272.727 55.7356 269 52.006 269 47.4058C269 42.8052 272.727 39.0756 277.325 39.0756Z" fill="#E8EEF1"/>
<path opacity="0.4" fill-rule="evenodd" clip-rule="evenodd" d="M303.64 32.8625C303.574 32.6364 303.496 32.417 303.412 32.201C300.918 29.7045 297.473 28.1592 293.667 28.1592C286.874 28.1592 281.229 33.0778 280.095 39.5496C279.228 39.2437 278.297 39.0758 277.325 39.0758C273.935 39.0758 271.019 41.1051 269.721 44.0151C270.642 46.4127 273.78 47.6077 276.928 46.6926C279.389 45.9773 281.157 44.175 281.567 42.2188C284.132 45.5943 289.384 47.0659 294.648 45.5364C301.102 43.661 305.127 37.9865 303.64 32.8625Z" fill="#FEFEFE"/>
<path opacity="0.8" fill-rule="evenodd" clip-rule="evenodd" d="M274.844 40.7908C275.499 40.5526 276.182 40.7806 276.371 41.3001C276.56 41.8198 276.183 42.4338 275.529 42.6719C274.875 42.9101 274.191 42.6821 274.002 42.1624C273.813 41.6429 274.19 41.029 274.844 40.7908Z" fill="#FEFEFE"/>
<path fill-rule="evenodd" clip-rule="evenodd" d="M316.393 46.814C317.149 42.4647 320.91 39.1589 325.437 39.1589C329.466 39.1589 332.888 41.7781 334.125 45.4212C335.23 44.6148 336.587 44.1379 338.055 44.1379C341.764 44.1379 344.77 47.1721 344.77 50.915C344.77 54.6575 341.764 57.6916 338.055 57.6916C337.872 57.6916 337.691 57.6823 337.512 57.6679C336.445 60.2555 333.916 62.0751 330.965 62.0751C328.072 62.0751 325.585 60.3258 324.482 57.8191C323.465 59.0695 321.922 59.8673 320.194 59.8673C318.352 59.8673 316.721 58.961 315.712 57.567C315.336 57.6479 314.947 57.6916 314.547 57.6916C311.484 57.6916 309 55.1852 309 52.0936C309 49.0018 311.484 46.4954 314.547 46.4954C315.195 46.4954 315.815 46.6082 316.393 46.814Z" fill="#F2F6F8" stroke="white" stroke-opacity="0.6" stroke-width="0.440397"/>
<path fill-rule="evenodd" clip-rule="evenodd" d="M314.772 46.4864C314.004 46.484 313.235 46.6463 312.533 46.9613C311.83 47.2758 311.192 47.739 310.677 48.3153C310.161 48.8909 309.767 49.5765 309.526 50.3142C309.284 51.0516 309.2 51.8415 309.278 52.6156C309.355 53.3899 309.597 54.1474 309.983 54.823C310.367 55.4994 310.895 56.0934 311.521 56.5524C312.147 57.0129 312.869 57.3403 313.628 57.5036C314.386 57.6678 315.179 57.6683 315.939 57.5066L315.867 57.4789C316.364 58.1688 317.017 58.7436 317.765 59.1439C318.513 59.5456 319.354 59.769 320.201 59.7941C321.048 59.8242 321.902 59.6488 322.673 59.2937C323.445 58.9392 324.134 58.4041 324.673 57.7437L324.521 57.7228C325.08 58.9952 326.017 60.0934 327.178 60.8442C328.337 61.5995 329.72 61.9981 331.099 61.9784C331.789 61.971 332.478 61.8627 333.136 61.6544C333.794 61.4459 334.421 61.1397 334.991 60.7494C336.133 59.9706 337.041 58.8501 337.567 57.5663L337.49 57.6139C337.759 57.6232 338.028 57.6455 338.297 57.63C338.432 57.6277 338.566 57.6113 338.7 57.6027C338.834 57.5863 338.968 57.5708 339.101 57.5495C339.632 57.4615 340.154 57.3104 340.65 57.1001C341.145 56.8855 341.614 56.6129 342.047 56.2898C342.476 55.963 342.868 55.5858 343.212 55.1688C343.553 54.7487 343.845 54.2888 344.08 53.8013C344.312 53.3119 344.486 52.7948 344.598 52.2647C344.71 51.7342 344.752 51.1898 344.736 50.6485C344.73 50.3775 344.7 50.1078 344.664 49.8394C344.619 49.5722 344.567 49.3059 344.492 49.0457C344.205 48.0011 343.659 47.0315 342.922 46.2434C342.187 45.4532 341.261 44.8448 340.246 44.4897C339.232 44.1318 338.132 44.0289 337.07 44.1852C336.007 44.3397 334.985 44.7604 334.116 45.3955L334.189 45.4186C333.536 43.5033 332.231 41.8297 330.554 40.7246C329.716 40.1704 328.788 39.7563 327.818 39.5067C326.848 39.2565 325.836 39.1713 324.839 39.2517C323.842 39.3315 322.858 39.5772 321.94 39.977C321.021 40.3757 320.171 40.9324 319.432 41.6109C318.692 42.2891 318.064 43.0899 317.581 43.9719C317.098 44.8538 316.761 45.8164 316.588 46.8084L316.602 46.8003C316.015 46.592 315.394 46.4856 314.772 46.4864ZM314.773 46.5043C315.393 46.5045 316.012 46.6116 316.596 46.82L316.608 46.8243L316.61 46.8118C316.784 45.8223 317.122 44.8627 317.605 43.9844C318.088 43.1057 318.716 42.3083 319.454 41.6337C320.191 40.9588 321.039 40.4056 321.955 40.0099C322.87 39.6123 323.851 39.3725 324.844 39.2976C325.836 39.2219 326.842 39.3113 327.804 39.5641C328.767 39.8163 329.687 40.2316 330.515 40.7851C331.344 41.3379 332.081 42.0285 332.689 42.8199C333.298 43.611 333.778 44.5024 334.1 45.4492L334.121 45.51L334.173 45.4724C335.031 44.8483 336.039 44.4361 337.085 44.2866C338.132 44.135 339.214 44.2389 340.211 44.5931C341.208 44.9447 342.117 45.545 342.838 46.3233C343.56 47.0993 344.094 48.0529 344.374 49.0787C344.447 49.3343 344.497 49.5958 344.541 49.858C344.576 50.1214 344.605 50.3862 344.61 50.6521C344.624 51.1834 344.581 51.7172 344.471 52.237C344.36 52.7566 344.188 53.2629 343.96 53.742C343.728 54.2193 343.441 54.6689 343.107 55.0798C342.768 55.4873 342.384 55.856 341.963 56.1749C341.539 56.4902 341.079 56.7561 340.594 56.9647C340.108 57.1691 339.598 57.3153 339.078 57.3998C338.948 57.4203 338.817 57.4351 338.686 57.4507C338.555 57.4587 338.424 57.4745 338.292 57.4762C338.029 57.4908 337.766 57.4678 337.503 57.4583L337.446 57.4562L337.426 57.506C336.907 58.7602 336.016 59.8529 334.898 60.6103C334.34 60.9899 333.728 61.2869 333.085 61.4884C332.443 61.6898 331.771 61.7934 331.098 61.7986C329.753 61.8146 328.406 61.4282 327.277 60.6913C326.145 59.9594 325.231 58.8885 324.686 57.6486L324.627 57.5136L324.534 57.6277C324.013 58.2667 323.346 58.7845 322.599 59.1273C321.853 59.4727 321.027 59.6359 320.207 59.6156C319.386 59.5969 318.569 59.3864 317.841 59.0014C317.112 58.6179 316.471 58.0633 315.983 57.3943L315.955 57.3567L315.911 57.3665C315.171 57.5292 314.397 57.5345 313.654 57.3793C312.912 57.2249 312.203 56.9097 311.586 56.4626C310.347 55.5742 309.511 54.1373 309.351 52.6076C309.267 51.8442 309.342 51.0624 309.576 50.3298C309.808 49.5967 310.198 48.9156 310.707 48.3413C311.216 47.7668 311.848 47.3032 312.545 46.9873C313.243 46.6706 314.007 46.5053 314.773 46.5043Z" fill="#F3F3F3"/>
<path opacity="0.4" fill-rule="evenodd" clip-rule="evenodd" d="M332.082 42.3198C332.038 42.1678 331.986 42.0204 331.93 41.8752C330.268 40.1975 327.973 39.1589 325.436 39.1589C320.91 39.1589 317.149 42.4644 316.393 46.8138C315.815 46.6082 315.195 46.4954 314.547 46.4954C312.288 46.4954 310.345 47.8591 309.48 49.8148C310.094 51.4261 312.185 52.2292 314.282 51.6142C315.923 51.1335 317.101 49.9223 317.374 48.6076C319.083 50.8761 322.583 51.8651 326.09 50.8371C330.391 49.5769 333.073 45.7633 332.082 42.3198Z" fill="#FEFEFE"/>
<path opacity="0.8" fill-rule="evenodd" clip-rule="evenodd" d="M336.416 46.3396C337.162 46.3396 337.766 46.8236 337.766 47.4209C337.766 48.0184 337.162 48.5024 336.416 48.5024C335.67 48.5024 335.065 48.0184 335.065 47.4209C335.065 46.8236 335.67 46.3396 336.416 46.3396Z" fill="#FEFEFE"/>
<path fill-rule="evenodd" clip-rule="evenodd" d="M278.049 44.6957C276.314 44.6957 274.649 44.9968 273.101 45.5441C271.074 33.9616 260.99 25.1589 248.854 25.1589C238.051 25.1589 228.874 32.134 225.559 41.8355C222.596 39.6876 218.958 38.4179 215.022 38.4179C205.078 38.4179 197.017 46.4977 197.017 56.4649C197.017 66.4319 205.078 74.5119 215.022 74.5119C215.512 74.5119 215.996 74.4865 216.477 74.4481C219.339 81.3392 226.12 86.1851 234.032 86.1851C241.788 86.1851 248.455 81.5268 251.412 74.8512C254.139 78.1809 258.277 80.3054 262.911 80.3054C267.848 80.3054 272.221 77.8921 274.926 74.18C275.934 74.3959 276.978 74.5119 278.049 74.5119C286.263 74.5119 292.922 67.8372 292.922 59.6038C292.922 51.3701 286.263 44.6957 278.049 44.6957Z" fill="#E8EEF1"/>
<path opacity="0.7" fill-rule="evenodd" clip-rule="evenodd" d="M264.405 43.2079C264.405 35.3783 259.794 28.6317 253.148 25.5361C251.753 25.2902 250.319 25.1589 248.854 25.1589C238.051 25.1589 228.875 32.1337 225.559 41.8355C222.597 39.6876 218.958 38.4179 215.022 38.4179C209.95 38.4179 205.37 40.5235 202.098 43.9066C201.075 45.8773 200.494 48.1145 200.494 50.4892C200.494 58.3821 206.878 64.7803 214.752 64.7803C221.506 64.7803 227.159 60.0716 228.632 53.7517C232.091 59.1267 238.114 62.6883 244.97 62.6883C255.703 62.6883 264.405 53.9666 264.405 43.2079Z" fill="#FEFEFE"/>
<g filter="url(#filter0_d)">
<path fill-rule="evenodd" clip-rule="evenodd" d="M218.561 68.232C217.044 68.232 215.588 68.4932 214.234 68.97C212.462 58.8954 203.644 51.238 193.032 51.238C183.585 51.238 175.561 57.3051 172.662 65.7438C170.072 63.8759 166.89 62.7712 163.448 62.7712C154.753 62.7712 147.704 69.7994 147.704 78.4695C147.704 87.1384 154.753 94.1667 163.448 94.1667C163.877 94.1667 164.3 94.145 164.721 94.1116C167.224 100.105 173.153 104.32 180.071 104.32C186.853 104.32 192.683 100.268 195.269 94.4619C197.654 97.3583 201.272 99.2063 205.324 99.2063C209.641 99.2063 213.465 97.1071 215.831 93.8779C216.711 94.0653 217.624 94.1667 218.561 94.1667C225.744 94.1667 231.567 88.3608 231.567 81.1996C231.567 74.0378 225.744 68.232 218.561 68.232Z" fill="#E8EEF1"/>
<path opacity="0.4" fill-rule="evenodd" clip-rule="evenodd" d="M177.451 58.56C177.553 58.208 177.676 57.8665 177.808 57.5303C181.704 53.6439 187.085 51.2383 193.031 51.2383C203.644 51.2383 212.462 58.895 214.234 68.9697C215.588 68.4935 217.043 68.2323 218.561 68.2323C223.858 68.2323 228.412 71.3911 230.44 75.9212C229.002 79.6535 224.099 81.5138 219.182 80.0893C215.336 78.9758 212.575 76.1702 211.933 73.1249C207.926 78.3796 199.722 80.6704 191.498 78.2894C181.416 75.37 175.128 66.5365 177.451 58.56Z" fill="#FEFEFE"/>
<path opacity="0.8" fill-rule="evenodd" clip-rule="evenodd" d="M222.436 70.9019C221.413 70.5298 220.347 70.8837 220.052 71.6924C219.758 72.5014 220.348 73.4582 221.37 73.8303C222.392 74.2024 223.459 73.8485 223.753 73.0395C224.048 72.2308 223.458 71.274 222.436 70.9019Z" fill="#FEFEFE"/>
</g>
<path fill-rule="evenodd" clip-rule="evenodd" d="M90.7077 60.4638C89.5271 53.6932 83.651 48.5471 76.5795 48.5471C70.2851 48.5471 64.9383 52.6244 63.0065 58.2956C61.2802 57.0403 59.1601 56.2979 56.8666 56.2979C51.0728 56.2979 46.3758 61.0212 46.3758 66.8478C46.3758 72.6737 51.0728 77.397 56.8666 77.397C57.1524 77.397 57.4346 77.3824 57.7145 77.36C59.3825 81.3881 63.3333 84.2208 67.9434 84.2208C72.4627 84.2208 76.3474 81.4976 78.0702 77.5954C79.6594 79.542 82.0704 80.7839 84.7702 80.7839C87.6473 80.7839 90.1953 79.3731 91.7716 77.2029C92.3584 77.3289 92.9667 77.397 93.5911 77.397C98.3773 77.397 102.257 73.4952 102.257 68.6826C102.257 63.8696 98.3773 59.9678 93.5911 59.9678C92.58 59.9678 91.6099 60.1434 90.7077 60.4638Z" fill="#E8EEF1"/>
<path fill-rule="evenodd" clip-rule="evenodd" d="M93.2398 59.9538C94.4402 59.9501 95.6411 60.2027 96.7386 60.6931C97.8362 61.1827 98.8322 61.9038 99.6376 62.8009C100.444 63.697 101.06 64.7642 101.436 65.9126C101.814 67.0605 101.945 68.2902 101.823 69.4952C101.703 70.7006 101.324 71.8798 100.722 72.9314C100.122 73.9844 99.2974 74.9091 98.3185 75.6236C97.3416 76.3405 96.2134 76.8502 95.0279 77.1044C93.8428 77.3599 92.6036 77.3606 91.4163 77.109L91.5288 77.066C90.7537 78.1399 89.7322 79.0347 88.5637 79.6578C87.3963 80.2831 86.0825 80.6309 84.759 80.67C83.4352 80.7168 82.1018 80.4437 80.8967 79.891C79.6907 79.3392 78.6144 78.5062 77.7728 77.4781L78.0107 77.4456C77.137 79.4264 75.6731 81.1359 73.8587 82.3046C72.0481 83.4804 69.8881 84.101 67.7333 84.0702C66.6563 84.0587 65.58 83.8902 64.5519 83.5659C63.5239 83.2413 62.5445 82.7647 61.6537 82.1571C59.8696 80.9446 58.4507 79.2004 57.6286 77.2019L57.7496 77.276C57.3291 77.2905 56.9088 77.3252 56.488 77.3011C56.2776 77.2975 56.0683 77.272 55.8584 77.2585C55.6497 77.2331 55.4403 77.2089 55.2327 77.1758C54.4023 77.0388 53.5883 76.8035 52.8126 76.4761C52.0398 76.1422 51.3062 75.7178 50.6307 75.2149C49.9593 74.7061 49.3476 74.1189 48.8099 73.4697C48.2781 72.8158 47.822 72.0999 47.4539 71.341C47.0918 70.5791 46.8203 69.7742 46.6451 68.9489C46.4708 68.1231 46.4044 67.2757 46.4294 66.433C46.4388 66.0112 46.4849 65.5913 46.542 65.1734C46.6118 64.7576 46.6928 64.343 46.81 63.9379C47.259 62.3118 48.1127 60.8024 49.2638 59.5756C50.4116 58.3455 51.8587 57.3984 53.4438 56.8456C55.0282 56.2885 56.7461 56.1283 58.4054 56.3715C60.0657 56.612 61.6628 57.267 63.0198 58.2556L62.9065 58.2916C63.926 55.3101 65.965 52.7048 68.5852 50.9845C69.8934 50.1218 71.3434 49.477 72.8593 49.0886C74.3748 48.6991 75.9549 48.5665 77.5128 48.6915C79.071 48.8158 80.6078 49.1983 82.0421 49.8207C83.4774 50.4413 84.8057 51.3079 85.9603 52.3641C87.1155 53.4199 88.0969 54.6665 88.8512 56.0396C89.6063 57.4124 90.1327 58.9109 90.4032 60.4552L90.3812 60.4425C91.2975 60.1182 92.2687 59.9527 93.2398 59.9538ZM93.2397 59.9822C92.2718 59.9827 91.3044 60.1493 90.3924 60.4738L90.374 60.4804L90.3704 60.461C90.0979 58.9206 89.5705 57.4268 88.8153 56.0596C88.061 54.6916 87.0806 53.4504 85.9275 52.4002C84.7751 51.3496 83.4504 50.4885 82.0197 49.8725C80.5905 49.2536 79.0579 48.8802 77.5072 48.7636C75.9566 48.6458 74.3861 48.7849 72.8822 49.1785C71.3779 49.571 69.9412 50.2176 68.6474 51.0792C67.3528 51.9398 66.2008 53.0148 65.2505 54.2467C64.3003 55.4783 63.5504 56.8659 63.0464 58.3398L63.0139 58.4345L62.9331 58.3759C61.5929 57.4043 60.0181 56.7628 58.3826 56.5299C56.7479 56.294 55.0571 56.4557 53.5001 57.0071C51.9422 57.5545 50.5216 58.489 49.3963 59.7005C48.2679 60.9086 47.433 62.393 46.996 63.9899C46.8817 64.3877 46.8034 64.7948 46.7357 65.203C46.6806 65.613 46.6362 66.0252 46.6281 66.4392C46.6053 67.2663 46.6723 68.0972 46.845 68.9065C47.0187 69.7153 47.2866 70.5034 47.6429 71.2492C48.0055 71.9922 48.4538 72.6921 48.9761 73.3319C49.5045 73.9662 50.1047 74.5401 50.7631 75.0366C51.4257 75.5274 52.1443 75.9413 52.9012 76.266C53.6609 76.5842 54.4575 76.8118 55.2697 76.9433C55.4727 76.9753 55.6774 76.9982 55.8816 77.0225C56.0868 77.0351 56.2914 77.0597 56.4972 77.0622C56.9086 77.085 57.3193 77.0491 57.7303 77.0343L57.8192 77.0311L57.8514 77.1086C58.661 79.0611 60.0534 80.7621 61.7993 81.9412C62.6709 82.532 63.6284 82.9944 64.6321 83.308C65.6359 83.6216 66.6858 83.7829 67.7363 83.791C69.8378 83.8159 71.9416 83.2143 73.7064 82.0672C75.4747 80.9278 76.9018 79.2608 77.7528 77.3306L77.8454 77.1205L77.9908 77.2982C78.8055 78.2929 79.8474 79.0989 81.0141 79.6326C82.18 80.1702 83.4692 80.4243 84.7513 80.3926C86.0336 80.3636 87.3092 80.0359 88.4474 79.4366C89.5866 78.8395 90.5872 77.9762 91.3498 76.9348L91.3928 76.8762L91.4626 76.8915C92.618 77.1449 93.8276 77.153 94.9875 76.9115C96.1476 76.6711 97.2555 76.1804 98.2181 75.4843C100.154 74.1015 101.46 71.8646 101.711 69.4833C101.842 68.2949 101.724 67.0778 101.359 65.9374C100.997 64.7962 100.387 63.736 99.5919 62.842C98.7964 61.9477 97.8099 61.226 96.7203 60.7342C95.6307 60.2412 94.4361 59.9839 93.2397 59.9822Z" fill="#F3F3F3"/>
<path opacity="0.4" fill-rule="evenodd" clip-rule="evenodd" d="M66.1974 53.4676C66.2655 53.231 66.3473 53.0016 66.435 52.7756C69.0311 50.1638 72.6171 48.5471 76.5794 48.5471C83.6509 48.5471 89.5269 53.6928 90.7075 60.4634C91.6098 60.1434 92.5794 59.9678 93.5909 59.9678C97.1202 59.9678 100.155 62.0907 101.506 65.1351C100.548 67.6434 97.2811 68.8936 94.0046 67.9363C91.4418 67.1879 89.602 65.3024 89.1746 63.2559C86.5045 66.7872 81.0376 68.3267 75.5577 66.7266C68.8397 64.7647 64.6492 58.8282 66.1974 53.4676Z" fill="#FEFEFE"/>
<path opacity="0.8" fill-rule="evenodd" clip-rule="evenodd" d="M59.4276 59.7253C58.2623 59.7253 57.3181 60.4788 57.3181 61.4085C57.3181 62.3387 58.2623 63.0921 59.4276 63.0921C60.5929 63.0921 61.5371 62.3387 61.5371 61.4085C61.5371 60.4788 60.5929 59.7253 59.4276 59.7253Z" fill="#FEFEFE"/>
<g filter="url(#filter1_d)">
<path fill-rule="evenodd" clip-rule="evenodd" d="M300.27 61.0451C299.091 54.2918 293.223 49.1589 286.162 49.1589C279.876 49.1589 274.536 53.2258 272.607 58.8824C270.883 57.6303 268.766 56.8898 266.476 56.8898C260.69 56.8898 256 61.601 256 67.4127C256 73.2237 260.69 77.9349 266.476 77.9349C266.761 77.9349 267.043 77.9203 267.323 77.898C268.988 81.9157 272.934 84.7411 277.537 84.7411C282.05 84.7411 285.93 82.0249 287.65 78.1327C289.237 80.0743 291.645 81.3131 294.341 81.3131C297.214 81.3131 299.758 79.9059 301.333 77.7413C301.919 77.8669 302.526 77.9349 303.149 77.9349C307.929 77.9349 311.804 74.0431 311.804 69.2428C311.804 64.4421 307.929 60.5503 303.149 60.5503C302.14 60.5503 301.171 60.7255 300.27 61.0451Z" fill="#E8EEF1"/>
<path opacity="0.4" fill-rule="evenodd" clip-rule="evenodd" d="M275.794 54.0668C275.862 53.8309 275.943 53.6019 276.031 53.3766C278.624 50.7715 282.205 49.1589 286.161 49.1589C293.223 49.1589 299.091 54.2914 300.27 61.0447C301.171 60.7255 302.139 60.5503 303.149 60.5503C306.674 60.5503 309.704 62.6678 311.054 65.7044C310.097 68.2063 306.834 69.4532 303.562 68.4984C301.003 67.752 299.166 65.8713 298.739 63.83C296.073 67.3523 290.613 68.8879 285.141 67.2918C278.432 65.3349 274.248 59.4137 275.794 54.0668Z" fill="#FEFEFE"/>
</g>
</g>
<defs>
<filter id="filter0_d" x="144.181" y="49.4764" width="90.9089" height="60.1287" filterUnits="userSpaceOnUse" color-interpolation-filters="sRGB">
<feFlood flood-opacity="0" result="BackgroundImageFix"/>
<feColorMatrix in="SourceAlpha" type="matrix" values="0 0 0 0 0 0 0 0 0 0 0 0 0 0 0 0 0 0 127 0"/>
<feOffset dy="1.76159"/>
<feGaussianBlur stdDeviation="1.76159"/>
<feColorMatrix type="matrix" values="0 0 0 0 0.752941 0 0 0 0 0.858824 0 0 0 0 0.901961 0 0 0 0.6 0"/>
<feBlend mode="normal" in2="BackgroundImageFix" result="effect1_dropShadow"/>
<feBlend mode="normal" in="SourceGraphic" in2="effect1_dropShadow" result="shape"/>
</filter>
<filter id="filter1_d" x="252.477" y="47.3973" width="62.8503" height="42.6285" filterUnits="userSpaceOnUse" color-interpolation-filters="sRGB">
<feFlood flood-opacity="0" result="BackgroundImageFix"/>
<feColorMatrix in="SourceAlpha" type="matrix" values="0 0 0 0 0 0 0 0 0 0 0 0 0 0 0 0 0 0 127 0"/>
<feOffset dy="1.76159"/>
<feGaussianBlur stdDeviation="1.76159"/>
<feColorMatrix type="matrix" values="0 0 0 0 0.752941 0 0 0 0 0.858824 0 0 0 0 0.901961 0 0 0 0.6 0"/>
<feBlend mode="normal" in2="BackgroundImageFix" result="effect1_dropShadow"/>
<feBlend mode="normal" in="SourceGraphic" in2="effect1_dropShadow" result="shape"/>
</filter>
<clipPath id="clip0">
<rect y="0.158936" width="345" height="129" fill="white"/>
</clipPath>
</defs>
</svg>
