<svg width="46" height="20" viewBox="0 0 46 20" fill="none" xmlns="http://www.w3.org/2000/svg">
<path d="M3.41454 10.0037C6.7094 10.0037 9.46835 8.39594 9.46835 5.02168C9.46835 1.84591 7.04682 1.07182 4.01 1.07182C2.6206 1.07182 1.40983 1.21076 0.23877 1.36955V14.9658H3.41454V10.0037ZM3.41454 7.72109V3.35441C3.55348 3.31471 3.85121 3.25516 4.34742 3.25516C5.32 3.25516 6.39182 3.69183 6.39182 5.37896C6.39182 7.16533 4.92303 7.72109 3.41454 7.72109Z" fill="#B3BBC2"/>
<path d="M14.0799 14.9658V4.90259L11.1423 5.77593V14.9658H14.0799ZM13.9012 0L10.6461 0.932882V1.56804L12.492 3.59259L13.7425 3.15592L14.2784 0.377122L13.9012 0Z" fill="#B3BBC2"/>
<path d="M25.0408 4.20789C24.1873 4.26744 22.9765 4.88274 22.4406 5.39881C21.9444 5.10108 21.2497 4.90259 20.1779 4.90259C18.1533 4.90259 16.2082 6.1332 16.2082 8.51503C16.2082 10.2816 17.2998 11.0755 17.8358 11.3137C17.28 11.7702 16.5654 12.6237 16.3273 13.2191C16.3868 13.7749 16.7441 14.2513 17.1609 14.5093C16.4861 15.0452 15.7914 15.8987 15.7914 16.772C15.7914 18.0225 17.4388 19.0943 19.8206 19.0943C22.3414 19.0943 25.3187 18.0423 25.3187 15.0254C25.3187 13.0405 23.175 12.8023 21.1505 12.7626C19.0862 12.7229 19.0465 12.5641 19.0465 12.3061C19.0465 12.0878 19.245 11.7702 19.4236 11.6114C19.6618 11.6511 19.9794 11.6511 20.2374 11.6511C22.1826 11.6511 24.0682 10.6587 24.0682 8.43564C24.0682 7.74094 23.83 7.04624 23.5521 6.62942C23.969 6.47063 24.882 6.33169 25.3385 6.33169L25.0408 4.20789ZM21.5077 8.57458C21.5077 9.20973 21.1306 9.72579 20.297 9.72579C19.3442 9.72579 18.8083 9.01124 18.8083 8.07836C18.8083 7.32412 19.3442 6.8676 20.0389 6.8676C20.9123 6.8676 21.5077 7.5226 21.5077 8.57458ZM18.7091 14.9658C21.6864 14.9658 22.5796 15.0849 22.5796 15.859C22.5796 16.6926 21.5474 17.0698 20.3764 17.0698C19.0465 17.0698 18.3518 16.6331 18.3518 15.8788C18.3518 15.4819 18.5305 15.1643 18.7091 14.9658Z" fill="#B3BBC2"/>
<path d="M34.9844 4.20789C34.131 4.26744 32.9202 4.88274 32.3843 5.39881C31.8881 5.10108 31.1934 4.90259 30.1215 4.90259C28.097 4.90259 26.1518 6.1332 26.1518 8.51503C26.1518 10.2816 27.2435 11.0755 27.7794 11.3137C27.2237 11.7702 26.5091 12.6237 26.2709 13.2191C26.3305 13.7749 26.6877 14.2513 27.1046 14.5093C26.4297 15.0452 25.735 15.8987 25.735 16.772C25.735 18.0225 27.3824 19.0943 29.7643 19.0943C32.285 19.0943 35.2623 18.0423 35.2623 15.0254C35.2623 13.0405 33.1187 12.8023 31.0941 12.7626C29.0299 12.7229 28.9902 12.5641 28.9902 12.3061C28.9902 12.0878 29.1887 11.7702 29.3673 11.6114C29.6055 11.6511 29.9231 11.6511 30.1811 11.6511C32.1263 11.6511 34.0119 10.6587 34.0119 8.43564C34.0119 7.74094 33.7737 7.04624 33.4958 6.62942C33.9126 6.47063 34.8257 6.33169 35.2822 6.33169L34.9844 4.20789ZM31.4514 8.57458C31.4514 9.20973 31.0743 9.72579 30.2406 9.72579C29.2879 9.72579 28.752 9.01124 28.752 8.07836C28.752 7.32412 29.2879 6.8676 29.9826 6.8676C30.8559 6.8676 31.4514 7.5226 31.4514 8.57458ZM28.6528 14.9658C31.63 14.9658 32.5232 15.0849 32.5232 15.859C32.5232 16.6926 31.4911 17.0698 30.32 17.0698C28.9902 17.0698 28.2955 16.6331 28.2955 15.8788C28.2955 15.4819 28.4741 15.1643 28.6528 14.9658Z" fill="#B3BBC2"/>
<path d="M40.7599 12.3855H40.7004L38.4972 4.90259L35.5397 5.79578L38.4773 14.9658H39.6087L37.604 18.5782L40.4423 19.3325L45.8411 5.20032H42.844L40.7599 12.3855Z" fill="#B3BBC2"/>
</svg>
