<svg width="55" height="57" viewBox="0 0 55 57" fill="none" xmlns="http://www.w3.org/2000/svg">
<path fill-rule="evenodd" clip-rule="evenodd" d="M50.873 65.9792C50.7089 66.0886 50.5438 66.1964 50.3811 66.3078C50.0244 66.5521 49.635 66.7364 49.2454 66.9181C48.9462 67.0577 48.6391 67.1798 48.326 67.2883C48.0518 67.3834 47.7738 67.4593 47.4884 67.5011C47.3345 67.5236 47.1732 67.5187 47.0176 67.5027C46.393 67.4385 45.8434 67.1872 45.3389 66.8206C44.901 66.5024 44.5262 66.1194 44.1639 65.7209C43.9247 65.4578 43.7194 65.1684 43.4975 64.8919C43.425 64.8672 43.3509 64.8846 43.2775 64.8838C43.2262 64.8842 43.1747 64.8852 43.1233 64.8819C43.1132 64.8811 43.103 64.8801 43.0929 64.8792C42.8983 64.9174 42.7036 64.955 42.5091 64.9937C42.4541 65.0046 42.4306 65.0503 42.4062 65.0938C42.2563 65.3617 42.084 65.6153 41.9168 65.8723C41.7041 66.199 41.4802 66.5198 41.2206 66.8079C40.9444 67.1144 40.6665 67.4258 40.3061 67.6444C40.0991 67.77 39.8843 67.867 39.6452 67.9203C39.4278 67.9685 39.2176 68.0464 38.9963 68.0842C38.7354 68.1287 38.4751 68.1705 38.2099 68.1739C38.1356 68.1747 38.0621 68.1726 37.988 68.1937C37.8501 68.2328 37.7042 68.2299 37.5683 68.2043C37.4357 68.1793 37.3048 68.1846 37.1736 68.172C36.8863 68.1444 36.5983 68.1252 36.3129 68.0748C35.626 67.9538 34.9579 67.7675 34.3066 67.5197C34.1131 67.4461 33.9227 67.3643 33.7286 67.2927C33.6092 67.2487 33.5167 67.1696 33.4234 67.0891C33.3101 67.14 33.2559 67.2597 33.1375 67.3132C32.6167 67.5487 32.0991 67.7918 31.5561 67.9736C31.0301 68.1498 30.4936 68.2852 29.9455 68.3745C29.7328 68.4091 29.5173 68.4134 29.3053 68.4415C29.0402 68.4763 28.7762 68.4757 28.5117 68.4713C28.0725 68.4639 27.6418 68.3889 27.2109 68.3042C26.6507 68.1942 26.2073 67.8938 25.8039 67.5118C25.3388 67.0713 24.9322 66.5816 24.5665 66.0569C24.5571 66.0432 24.5466 66.0304 24.5365 66.0172C24.4155 65.859 24.4167 65.8631 24.2322 65.9171C23.6761 66.0799 23.1297 66.2738 22.5649 66.4088C21.9939 66.5452 21.4191 66.6609 20.8416 66.7634C20.6387 66.7993 20.4309 66.8082 20.2256 66.8309C20.0945 66.8453 19.9622 66.8541 19.8331 66.8788C19.1262 67.0143 18.1343 66.7677 17.6036 66.3291C17.3738 66.1392 17.1563 65.9353 16.9964 65.6786C16.9841 65.6589 16.9629 65.6446 16.9458 65.6278C16.6292 65.1336 16.4384 64.5893 16.3158 64.0196C16.2672 63.7935 16.2321 63.5642 16.2372 63.3311C16.2399 63.2065 16.2417 63.0819 16.2369 62.9575C16.2257 62.669 16.3349 62.4243 16.5003 62.1978C16.6339 62.015 16.8051 61.874 16.9914 61.7489C17.0523 61.7079 17.0518 61.6735 16.9918 61.6422C16.8667 61.5772 16.7409 61.5135 16.6146 61.4507C15.6118 60.953 14.6423 60.397 13.6954 59.7998C12.8332 59.2558 11.9995 58.6712 11.1919 58.0503C10.6937 57.6672 10.2055 57.2706 9.73863 56.8483C9.49925 56.6317 9.26184 56.4127 9.02027 56.1991C8.60939 55.8356 8.23183 55.4393 7.84805 55.0493C7.55842 54.7551 7.29692 54.4334 7.01871 54.1279C6.71227 53.7914 6.42627 53.4383 6.14297 53.0823C5.83912 52.7003 5.5523 52.3059 5.2663 51.9106C4.81929 51.2926 4.41797 50.6453 4.0292 49.9901C3.65683 49.3626 3.31914 48.7157 3.00761 48.0565C2.68943 47.3829 2.40063 46.6953 2.14723 45.9944C1.88594 45.2717 1.65445 44.539 1.45773 43.7955C1.30772 43.2285 1.17588 42.6572 1.06823 42.0815C0.973038 41.5714 0.882101 41.0597 0.828327 40.5424C0.789087 40.1654 0.740193 39.7897 0.69597 39.4133C0.693997 39.3969 0.694724 39.3802 0.694309 39.3637C0.679879 38.8346 0.616659 38.3081 0.627144 37.7775C0.637732 37.2462 0.61832 36.7142 0.63441 36.1833C0.642092 35.9269 0.644272 35.6699 0.658806 35.4139C0.674689 35.1342 0.710814 34.8557 0.73739 34.5767C0.75701 34.3714 0.770297 34.1656 0.795938 33.9612C0.822721 33.7487 0.861858 33.5378 0.894246 33.3259C0.956428 32.9185 1.01134 32.5104 1.09315 32.1059C1.28997 31.1337 1.52925 30.1729 1.81473 29.2225C2.09138 28.3015 2.42606 27.4026 2.79189 26.5148C2.92757 26.1857 3.07861 25.8628 3.22789 25.5396C3.36326 25.2461 3.49832 24.9522 3.64697 24.6655C3.90618 24.1652 4.16021 23.6612 4.44475 23.1754C4.85044 22.4829 5.26537 21.7951 5.72358 21.1352C6.28519 20.3263 6.8684 19.5334 7.49364 18.7728C7.78753 18.4153 8.08598 18.0614 8.39969 17.7197C8.65154 17.4453 8.89331 17.162 9.1573 16.8983C9.25581 16.7999 9.3672 16.6951 9.41516 16.571C9.4626 16.4482 9.3508 16.3227 9.31031 16.1985C9.1082 15.5768 8.94065 14.9457 8.84047 14.3001C8.77351 13.8688 8.72151 13.4354 8.6915 12.9976C8.64479 12.3173 8.67832 11.638 8.66638 10.9585C8.66337 10.7861 8.69192 10.6131 8.70718 10.4405C8.72597 10.2269 8.74092 10.013 8.76697 9.80052C8.79397 9.57974 8.82666 9.35937 8.86684 9.14066C8.9501 8.68642 9.00781 8.22699 9.12294 7.77898C9.23183 7.35464 9.35859 6.93456 9.45638 6.50772C9.53818 6.15096 9.67344 5.81298 9.784 5.46649C9.88189 5.15965 9.9993 4.85914 10.1056 4.55501C10.2314 4.19502 10.3841 3.84625 10.5397 3.49851C10.763 2.99964 10.959 2.48831 11.2133 2.00356C11.4903 1.47531 11.7741 0.950593 12.0534 0.423488C12.1117 0.313561 12.1628 0.199795 12.2183 0.0885192C12.2465 0.0319473 12.2909 -2.36733e-05 12.3571 0.00547782C12.4808 0.0156504 12.6059 0.0173112 12.7279 0.0372412C13.5912 0.178515 14.4526 0.329443 15.3107 0.501235C16.0163 0.642405 16.7157 0.808904 17.4152 0.97426C17.9783 1.10744 18.5349 1.2703 19.0917 1.42891C19.4498 1.53095 19.8037 1.64814 20.1591 1.76014C20.8386 1.97429 21.5087 2.21521 22.172 2.47482C22.9912 2.79546 23.7847 3.17226 24.5637 3.57927C25.1737 3.89784 25.7579 4.26021 26.3113 4.6695C26.7443 4.98973 27.1605 5.33144 27.5331 5.72194C27.6812 5.87713 27.8205 6.04103 27.9594 6.20452C28.0065 6.25985 28.0447 6.28673 28.1262 6.26784C28.4157 6.20057 28.7081 6.14587 28.9994 6.0865C29.3715 6.01083 29.7444 5.94211 30.1211 5.89145C30.4314 5.84972 30.7396 5.79191 31.0497 5.748C31.4334 5.69371 31.817 5.63423 32.2027 5.59977C32.5232 5.57102 32.8447 5.54517 33.1655 5.51984C33.4027 5.50105 33.6467 5.52991 33.8795 5.45663C33.8948 5.45185 33.9126 5.4532 33.9291 5.45414C34.3026 5.47708 34.6723 5.40826 35.046 5.41303C35.8515 5.4232 36.6573 5.40628 37.4625 5.4205C37.833 5.42704 38.2059 5.43068 38.574 5.49099C38.6065 5.49628 38.6403 5.494 38.6734 5.49337C38.9555 5.48777 39.2339 5.53842 39.5146 5.54777C39.9196 5.56136 40.319 5.62987 40.7227 5.65873C41.0426 5.68146 41.3596 5.74156 41.678 5.78464C41.9476 5.82128 42.218 5.85336 42.4871 5.89446C42.9113 5.95934 43.3371 6.01716 43.7575 6.10134C44.3649 6.22289 44.9714 6.3488 45.5754 6.48738C46.1317 6.61516 46.6819 6.76349 47.2332 6.90964C47.2891 6.92449 47.3499 6.92989 47.3999 6.95594C47.5199 7.01843 47.6101 6.98002 47.6771 6.87975C47.7565 6.76069 47.8628 6.66799 47.9615 6.56783C48.1421 6.38441 48.3234 6.20161 48.5076 6.02183C48.8631 5.67482 49.2308 5.34162 49.606 5.01578C49.8807 4.77704 50.1611 4.54587 50.4431 4.31605C50.88 3.96001 51.3392 3.6346 51.8006 3.31167C52.3644 2.91712 52.951 2.55827 53.5533 2.22767C53.8794 2.04871 54.2059 1.8683 54.5481 1.71686C54.8734 1.57278 55.1947 1.41947 55.5242 1.28473C55.9681 1.10318 56.4153 0.932116 56.8744 0.7897C57.27 0.667006 57.6653 0.544313 58.0689 0.45359C58.4958 0.357573 58.9216 0.258443 59.3569 0.197926C59.6586 0.15599 59.9605 0.105335 60.263 0.0737794C60.7816 0.0198025 61.3028 -0.0111305 61.8255 0.00371319C61.9176 0.00641204 61.9772 0.0375526 62.0292 0.115715C62.2633 0.467396 62.4772 0.831325 62.6819 1.20034C62.8468 1.49721 63.0029 1.79938 63.1501 2.10549C63.4444 2.7174 63.7066 3.34302 63.9415 3.98057C64.1273 4.48546 64.2891 4.99741 64.4388 5.51372C64.5976 6.06148 64.7211 6.61744 64.8291 7.17714C64.9153 7.62256 64.9801 8.07056 65.0326 8.52117C65.0815 8.94001 65.1053 9.35978 65.137 9.77966C65.1747 10.2776 65.1585 10.7742 65.1596 11.2711C65.1602 11.5509 65.1233 11.8309 65.1001 12.1105C65.0884 12.2507 65.0903 12.3907 65.0761 12.5314C64.9803 13.4781 64.8081 14.4106 64.5645 15.3292C64.3991 15.953 64.1967 16.5658 63.9639 17.1682C63.9586 17.1822 63.9418 17.1917 63.9302 17.2034C63.9136 17.2222 63.9073 17.244 63.9035 17.2691C63.8945 17.3306 63.9386 17.4157 63.8679 17.4487C63.7904 17.4848 63.7343 17.41 63.6772 17.3659C63.6447 17.341 63.6108 17.3181 63.5773 17.2946C63.2629 16.9646 62.9582 16.625 62.6448 16.2945C60.621 14.1605 58.3329 12.3622 55.7894 10.8818C53.3802 9.47957 50.8349 8.39785 48.1719 7.59183C46.5192 7.0914 44.8352 6.7147 43.1276 6.44482C42.3573 6.32316 41.586 6.20286 40.8109 6.1275C40.2758 6.07549 39.7354 6.04477 39.2008 5.99463C37.9072 5.87308 36.6134 5.90744 35.3202 5.9174C34.4429 5.92415 33.5669 6.0129 32.6913 6.08785C31.8298 6.16165 30.9811 6.31175 30.1294 6.44659C29.0875 6.61132 28.0606 6.84591 27.0386 7.105C25.3047 7.5446 23.6175 8.12444 21.9717 8.82043C20.679 9.36715 19.4275 9.99993 18.2005 10.684C16.7759 11.478 15.4172 12.37 14.1121 13.3444C12.4251 14.604 10.8697 16.0168 9.44319 17.5604C7.61738 19.536 6.03501 21.6955 4.75639 24.0703C3.78089 25.8821 2.98601 27.7677 2.42482 29.748C2.0784 30.9701 1.80736 32.2084 1.63057 33.469C1.49562 34.4317 1.45098 35.3971 1.39305 36.3653C1.34416 37.182 1.39876 37.9916 1.43011 38.8002C1.46676 39.7426 1.6206 40.68 1.79345 41.6113C2.13592 43.4559 2.66981 45.2409 3.42814 46.956C3.64593 47.4485 3.86113 47.9445 4.13592 48.4107C4.24107 48.5892 4.33606 48.7744 4.40987 48.9689C4.36097 49.1181 4.40094 49.2416 4.47994 49.3796C5.09491 50.4539 5.76386 51.4923 6.51866 52.4733C7.12055 53.2555 7.74164 54.0228 8.43852 54.724C9.22187 55.5123 9.98913 56.3188 10.8476 57.0279C11.9741 57.9583 13.1469 58.8257 14.3872 59.6007C16.0809 60.6588 17.8616 61.5468 19.7077 62.3013C20.7052 62.709 21.7213 63.0721 22.7956 63.3835C22.6528 63.0811 22.5165 62.8109 22.3938 62.5348C22.1957 62.0898 22.1254 61.6135 22.0184 61.1458C22.0177 61.1426 22.0157 61.1342 22.0163 61.1209C22.0213 61.0088 21.9684 60.8509 22.0952 60.8086C22.2175 60.7681 22.2877 60.9127 22.3512 61.0072C22.8404 61.7333 23.2328 62.5128 23.5359 63.3303C23.7762 63.9783 24.1639 64.533 24.524 65.1083C24.6339 65.2841 24.7507 65.4558 24.8714 65.6249C25.2435 66.1441 25.6486 66.6327 26.0886 67.0985C26.6417 67.6841 27.3347 67.8987 28.0944 67.9526C29.283 68.0367 30.4417 67.8719 31.5644 67.4649C31.7206 67.4084 31.8696 67.3356 32.0257 67.2797C32.0486 67.2678 32.0722 67.2573 32.0956 67.2468C32.118 67.2343 32.1413 67.2235 32.1647 67.2131C32.3289 67.1337 32.5017 67.0742 32.6648 66.9912C33.101 66.7695 33.3128 66.2882 33.1514 65.8238C32.7304 64.6129 32.5371 63.3478 32.2501 62.1051C32.2297 62.0163 32.2056 61.902 32.2985 61.8558C32.3926 61.8089 32.4647 61.9065 32.5265 61.9696C32.8111 62.2602 32.9778 62.6213 33.1286 62.9912C33.1598 63.0674 33.1718 63.1509 33.2343 63.2601C33.287 62.825 33.4409 62.4542 33.6 62.0863C33.645 61.9826 33.6642 61.8346 33.8359 61.8477C33.9123 61.9286 33.9053 62.0312 33.907 62.1297C33.9184 62.7767 33.9202 63.4245 33.8469 64.0678C33.7848 64.6129 33.832 65.1618 33.7638 65.7065C33.7411 65.8864 33.7269 66.0691 33.7113 66.2508C33.6839 66.5695 33.7902 66.8038 34.1099 66.9108C34.9823 67.2875 35.8837 67.553 36.8315 67.6663C37.4355 67.7384 38.0303 67.7361 38.6383 67.6807C39.7604 67.5781 40.5827 67.0352 41.1972 66.1249C41.4497 65.775 41.6896 65.4164 41.9169 65.0494C42.0212 64.8806 42.1039 64.7054 42.1663 64.5118C42.4514 63.6264 42.8518 62.8024 43.5353 62.1451C43.5712 62.1105 43.6053 62.074 43.6462 62.0452C43.6863 62.0169 43.7288 61.978 43.7805 61.9999C43.8477 62.0285 43.8354 62.0946 43.832 62.1515C43.81 62.5143 43.6756 62.8464 43.5394 63.1757C43.3551 63.6215 43.111 64.0371 42.8331 64.4727C43.2185 64.4289 43.5657 64.3306 43.9149 64.2512C46.0812 63.7582 48.1872 63.0762 50.2259 62.1935C52.7804 61.0877 55.1874 59.7197 57.4148 58.0486C58.3235 57.367 59.2173 56.6625 60.0321 55.8657C60.1862 55.7151 60.3591 55.5853 60.5141 55.4342C61.7151 54.2624 62.8599 53.0402 63.8819 51.7066C63.9498 51.6181 64.0041 51.5005 64.1488 51.5126C64.2074 51.543 64.2167 51.5863 64.1827 51.6409C64.0432 51.8961 63.8463 52.1097 63.6703 52.3378C63.4536 52.6188 63.2212 52.8878 62.9933 53.1601C62.8185 53.3688 62.643 53.5771 62.4626 53.7809C62.1279 54.1589 61.7731 54.5186 61.4337 54.8916C61.1538 55.1992 60.8309 55.4585 60.5489 55.7616C60.3008 56.0282 60.0251 56.2663 59.7465 56.5009C59.5316 56.6821 59.3304 56.8792 59.116 57.0607C58.6871 57.4237 58.2529 57.78 57.8087 58.1244C57.2005 58.596 56.575 59.043 55.9389 59.4749C55.3432 59.8792 54.7318 60.26 54.1109 60.6252C53.533 60.9649 52.9401 61.2774 52.35 61.5953C51.8616 61.8582 51.3472 62.0654 50.8582 62.3375C50.8431 62.3875 50.8989 62.3957 50.924 62.422C51.1182 62.6256 51.3324 62.8095 51.5031 63.0359C51.754 63.3685 51.9089 63.7398 51.9267 64.1551C51.9375 64.4027 51.8777 64.6472 51.7762 64.8763C51.6087 65.2546 51.3498 65.564 51.0351 65.8275C50.9778 65.8756 50.9213 65.9225 50.873 65.9792Z" fill="#906162"/>
<path fill-rule="evenodd" clip-rule="evenodd" d="M68.7246 41.8892C68.7293 41.9054 68.7264 41.9201 68.7155 41.9331C68.7247 42.1335 68.6388 42.3029 68.5397 42.4673C67.4936 44.2041 66.3232 45.8515 65.0515 47.4315C63.815 48.9679 62.45 50.3827 61.0191 51.7297C59.3254 53.3238 57.4796 54.7327 55.5133 55.9811C54.4478 56.6578 53.3549 57.2854 52.2267 57.849C50.2403 58.8411 48.1826 59.6516 46.0467 60.2645C44.714 60.6469 43.37 60.9792 42.0028 61.2023C40.7937 61.3997 39.5787 61.5532 38.3533 61.6393C37.5747 61.6939 36.7947 61.6794 36.0202 61.7399C35.3368 61.793 34.6628 61.726 33.9846 61.7248C33.9084 61.7246 33.839 61.695 33.7647 61.6892C33.3346 61.7775 32.9068 61.7082 32.4792 61.6677C31.8036 61.6038 31.1292 61.5354 30.4564 61.4404C29.578 61.3165 28.7026 61.1786 27.8346 60.9992C25.4032 60.4969 23.0177 59.8269 20.6876 58.9687C18.2557 58.0727 15.9093 56.9877 13.6415 55.7317C11.9777 54.8102 10.3746 53.7939 8.83454 52.6798C7.36259 51.6151 5.93473 50.4939 4.5938 49.2654C4.47118 49.153 4.42159 49.0099 4.38311 48.8578C4.34607 48.8034 4.30395 48.7518 4.27283 48.6943C3.71389 47.6578 3.22549 46.5894 2.81883 45.4837C2.48407 44.5733 2.21186 43.6447 1.98342 42.7023C1.83342 42.0838 1.70862 41.4597 1.61235 40.8318C1.53869 40.3514 1.47718 39.8678 1.43464 39.3821C1.4029 39.0203 1.38143 38.6577 1.34408 38.2965C1.33298 38.1896 1.34387 38.0808 1.34097 37.9729C1.33609 37.7916 1.36369 37.6078 1.30435 37.43C1.317 37.0828 1.26721 36.7342 1.33371 36.3881C1.34605 36.3238 1.34118 36.2559 1.34118 36.1896C1.34118 35.8414 1.32333 35.4915 1.37095 35.1464C1.39802 34.9499 1.38703 34.7513 1.4305 34.5556C1.46068 34.4198 1.4612 34.2761 1.46473 34.1357C1.4749 33.7378 1.57386 33.3522 1.62231 32.9595C1.65353 32.7058 1.69441 32.4528 1.74223 32.2017C1.92139 31.2589 2.14162 30.3254 2.41498 29.4059C2.65088 28.6126 2.92101 27.8307 3.22684 27.0606C3.61596 26.0814 4.06058 25.1281 4.54504 24.1939C4.8767 23.5544 5.24248 22.9328 5.62133 22.3195C5.90879 21.8542 6.20995 21.3982 6.52407 20.9507C6.98062 20.3004 7.45606 19.6641 7.95794 19.0478C8.26615 18.6693 8.5782 18.2947 8.90425 17.9311C9.16951 17.6353 9.44047 17.3452 9.70926 17.053C10.0128 16.7229 10.3256 16.402 10.6512 16.0955C10.9102 15.8516 11.1549 15.5919 11.4319 15.3664C11.6113 15.2204 11.7703 15.0498 11.9443 14.8968C12.2112 14.662 12.4807 14.4301 12.7536 14.2022C13.5416 13.5444 14.3615 12.9288 15.2036 12.3418C15.7817 11.9388 16.3722 11.555 16.9696 11.1825C17.4331 10.8934 17.9142 10.6323 18.3894 10.3623C19.0815 9.96904 19.7956 9.61761 20.5114 9.27075C21.0402 9.01439 21.576 8.77172 22.122 8.55304C22.5751 8.37151 23.027 8.18614 23.4843 8.01541C24.0272 7.8126 24.5742 7.62101 25.1304 7.45671C25.3766 7.38395 25.6189 7.29832 25.865 7.22536C26.1346 7.14544 26.4059 7.07113 26.6776 6.99858C27.0372 6.90268 27.3955 6.80044 27.7585 6.71949C28.4034 6.57553 29.0493 6.43334 29.699 6.31325C30.3075 6.20085 30.9207 6.11169 31.5336 6.02493C31.8929 5.97407 32.2536 5.93245 32.6156 5.89892C32.9439 5.86862 33.2736 5.84911 33.6014 5.81039C33.6506 5.80468 33.7008 5.80707 33.7506 5.80603C33.8743 5.80375 33.9996 5.8188 34.1191 5.77054C34.1338 5.76462 34.1521 5.76514 34.1685 5.76628C34.4922 5.78797 34.8127 5.73224 35.1356 5.72456C35.7325 5.71034 36.3295 5.7037 36.9264 5.70691C37.349 5.7092 37.7726 5.70619 38.1937 5.73525C38.4251 5.75113 38.6591 5.73878 38.8864 5.77168C39.1745 5.8134 39.4639 5.80022 39.7514 5.83084C40.1534 5.8735 40.5555 5.91605 40.9573 5.96006C41.2691 5.9941 41.5816 6.02358 41.8921 6.06665C42.4885 6.14947 43.0865 6.22244 43.6778 6.34003C44.0829 6.42057 44.4908 6.48731 44.8954 6.56993C45.2516 6.64268 45.6061 6.72447 45.9595 6.8103C46.4416 6.92738 46.924 7.04466 47.4022 7.17596C47.7929 7.28327 48.1782 7.41 48.5652 7.53061C48.8735 7.62671 49.1823 7.72199 49.488 7.82568C50.296 8.09969 51.0913 8.40721 51.8778 8.73747C52.3822 8.94921 52.8801 9.17453 53.3713 9.41491C53.5871 9.52046 53.8084 9.61502 54.0217 9.72524C54.7058 10.079 55.3797 10.4518 56.0456 10.8393C56.5613 11.1396 57.0588 11.4683 57.5567 11.7963C57.9229 12.0374 58.2771 12.2971 58.6319 12.5553C59.234 12.9935 59.8128 13.462 60.3836 13.9398C60.6372 14.1523 60.8712 14.388 61.1206 14.6059C61.6649 15.0813 62.1584 15.609 62.6638 16.1235C62.9237 16.3881 63.1803 16.6595 63.4084 16.9546C63.4585 17.0195 63.5148 17.0818 63.5895 17.122C63.5982 17.1732 63.6271 17.2131 63.6612 17.2502C64.0197 17.6409 64.341 18.0629 64.6568 18.4868C65.3844 19.4635 66.0575 20.4773 66.6338 21.5526C66.7824 21.8299 66.9393 22.1032 67.0798 22.3847C67.235 22.6959 67.3722 23.016 67.5234 23.3292C67.7359 23.7697 67.9179 24.2231 68.0951 24.6783C68.3355 25.2959 68.5446 25.9245 68.7412 26.5576C68.9033 27.0797 69.033 27.6099 69.1665 28.139C69.2493 28.467 69.2976 28.8034 69.371 29.1339C69.4893 29.6668 69.561 30.2066 69.6386 30.7463C69.6913 31.1144 69.7252 31.4839 69.7622 31.8526C69.8056 32.2882 69.8157 32.7273 69.8381 33.1647C69.8645 33.6787 69.8703 34.1918 69.8671 34.7055C69.8659 34.9034 69.8427 35.1012 69.8323 35.2992C69.8221 35.4894 69.8263 35.6801 69.8185 35.8706C69.8096 36.086 69.7743 36.2978 69.7636 36.5128C69.747 36.8421 69.7038 37.1704 69.6618 37.4979C69.6187 37.8334 69.5668 38.1679 69.513 38.5018C69.438 38.9665 69.3603 39.4306 69.2494 39.8887C69.1696 40.218 69.0998 40.55 69.0186 40.8791C68.9474 41.1676 68.8717 41.4553 68.7661 41.7338C68.7262 41.7787 68.7602 41.8432 68.7246 41.8892Z" fill="#E999B8"/>
<path fill-rule="evenodd" clip-rule="evenodd" d="M33.7138 61.634C33.9131 61.6339 34.1124 61.6334 34.3118 61.6338C34.4028 61.634 34.4925 61.6336 34.5823 61.6627C34.6435 61.6825 34.713 61.6816 34.7789 61.6821C35.0279 61.684 35.2771 61.6831 35.5263 61.6828C35.6091 61.6827 35.692 61.6868 35.7716 61.6543C35.851 61.622 35.9358 61.6342 36.0183 61.634C36.4584 61.633 36.8986 61.6335 37.3387 61.633C37.438 61.6329 37.5364 61.6358 37.6337 61.6005C37.6862 61.5815 37.7481 61.5859 37.8058 61.5845C37.9216 61.5815 38.0346 61.5753 38.1501 61.5489C38.2689 61.5216 38.3979 61.5318 38.522 61.5357C38.7969 61.5443 39.0649 61.5006 39.3328 61.4489C39.3812 61.4396 39.4317 61.4346 39.4808 61.4365C39.7394 61.4463 39.9916 61.4084 40.2412 61.3457C40.2649 61.3397 40.2911 61.3352 40.3151 61.3383C40.4919 61.3614 40.6629 61.3127 40.8309 61.2799C41.0979 61.2279 41.377 61.2532 41.6357 61.1499C41.6794 61.1324 41.7341 61.1388 41.7836 61.1388C41.8671 61.1387 41.9462 61.1193 42.0276 61.1024C42.326 61.041 42.6271 60.9921 42.9272 60.9385C42.9597 60.9327 42.9923 60.9268 43.0245 60.9195C43.3215 60.8519 43.6192 60.7884 43.9191 60.7326C44.1618 60.6874 44.3978 60.6076 44.6385 60.5497C44.9744 60.4691 45.3017 60.3552 45.6426 60.2936C45.7646 60.2715 45.8758 60.2142 45.9953 60.1804C46.6156 60.0052 47.2334 59.8198 47.8407 59.6034C48.3931 59.4067 48.9441 59.2053 49.4903 58.9923C49.8755 58.842 50.2487 58.6622 50.6325 58.5084C50.941 58.3847 51.231 58.2245 51.5308 58.084C51.7405 57.9855 51.9545 57.896 52.162 57.793C52.3694 57.6901 52.568 57.5693 52.776 57.4678C53.1398 57.29 53.4884 57.085 53.8446 56.8941C54.2899 56.6554 54.7106 56.3778 55.1506 56.1314C55.4379 55.9703 55.7052 55.7734 55.9782 55.5881C56.2583 55.3981 56.5389 55.2078 56.8214 55.0222C57.0484 54.873 57.2609 54.7033 57.4948 54.5623C57.7334 54.4182 57.942 54.2257 58.1663 54.0578C58.3772 53.8999 58.561 53.7066 58.7946 53.5779C59.02 53.3222 59.3422 53.1795 59.5666 52.9207C59.6408 52.835 59.7388 52.7653 59.8366 52.7054C59.9519 52.6348 60.0427 52.5403 60.1367 52.4477C60.3541 52.2332 60.5894 52.0397 60.8294 51.8509C60.8811 51.8101 60.9269 51.7615 60.9739 51.7149C61.7199 50.9744 62.4716 50.2391 63.2075 49.4886C63.4021 49.2901 63.5977 49.0869 63.7602 48.8573C63.8025 48.7974 63.8607 48.7478 63.9147 48.6965C64.1126 48.5083 64.2736 48.289 64.4503 48.0828C64.638 47.8638 64.8151 47.6358 65.0067 47.4218C65.2547 47.1448 65.4668 46.8414 65.7041 46.557C65.8674 46.3615 66.0197 46.1567 66.1729 45.9531C66.2768 45.8151 66.3741 45.6721 66.4736 45.5307C66.5495 45.423 66.6176 45.3101 66.7139 45.2171C66.7484 45.1839 66.7669 45.1343 66.794 45.0932C66.857 44.9968 66.9161 44.8972 66.9856 44.8057C67.1598 44.5763 67.3213 44.3388 67.4734 44.0944C67.5862 43.913 67.7159 43.7421 67.8308 43.5618C68.0564 43.2074 68.2779 42.8505 68.4987 42.4933C68.5596 42.3949 68.602 42.2877 68.6382 42.1773C68.6553 42.1247 68.6538 42.0602 68.7089 42.0238C68.7242 42.0458 68.741 42.0525 68.7655 42.0349C68.7966 42.0128 68.8007 41.9631 68.8465 41.9567C68.8715 41.9942 68.8532 42.0326 68.8509 42.0702C68.8368 42.0894 68.8162 42.1068 68.8095 42.1283C68.7283 42.3848 68.6538 42.6434 68.5685 42.8983C68.465 43.2073 68.3531 43.5137 68.2447 43.8211C68.2179 43.8975 68.1742 43.9688 68.1745 44.0534C68.14 44.1278 68.1014 44.2005 68.0719 44.2768C67.8188 44.93 67.5395 45.5715 67.2359 46.2034C67.1075 46.471 66.9867 46.7426 66.8458 47.0038C66.5798 47.4969 66.3193 47.9935 66.028 48.4729C66.0028 48.5146 65.9881 48.5623 65.9683 48.6072C65.8124 48.8483 65.6549 49.0885 65.5009 49.3309C65.1169 49.9356 64.7122 50.5261 64.285 51.1017C64.2075 51.2062 64.1157 51.3031 64.0693 51.4285C64.0052 51.4696 63.9642 51.5307 63.9183 51.5897C63.5746 52.0324 63.2246 52.4698 62.8541 52.8913C62.5926 53.1887 62.3283 53.4833 62.0628 53.7771C61.5074 54.3915 60.9117 54.9664 60.3126 55.5359C59.619 56.1954 58.8797 56.8056 58.1255 57.3979C57.3052 58.0423 56.4559 58.6452 55.5818 59.214C54.9087 59.6519 54.2191 60.0631 53.5152 60.4511C52.9927 60.7391 52.4681 61.0224 51.9319 61.2836C51.2095 61.6353 50.4789 61.9692 49.7349 62.274C48.8303 62.6447 47.9144 62.9848 46.9829 63.2824C46.1786 63.5395 45.3658 63.7673 44.5466 63.9736C44.025 64.105 43.4987 64.2145 42.9744 64.3332C42.8718 64.3564 42.7674 64.3775 42.6523 64.373C42.6635 64.3385 42.6655 64.3117 42.6791 64.2935C42.9992 63.8686 43.2433 63.401 43.4498 62.9143C43.5849 62.596 43.6784 62.2634 43.731 61.9207C43.7334 61.9061 43.7261 61.8772 43.7193 61.8761C43.698 61.8721 43.6667 61.8696 43.6537 61.8816C43.4724 62.0512 43.2926 62.2227 43.1434 62.4218C42.7546 62.941 42.4589 63.5103 42.2293 64.1143C42.2 64.1913 42.1645 64.2691 42.1541 64.3494C42.1297 64.5358 42.0434 64.6929 41.9423 64.8448C41.7274 65.1675 41.5109 65.4891 41.2948 65.8112C41.2629 65.8587 41.2304 65.9059 41.1982 65.9533C39.9957 64.9492 38.6292 64.8822 37.1936 65.2848C36.1644 65.5733 35.2262 66.0609 34.3445 66.658C34.2554 66.7183 34.1694 66.7838 34.0569 66.7951C33.9946 66.7735 33.9312 66.7546 33.8702 66.7297C33.6537 66.6416 33.5591 66.4613 33.5667 66.2229C33.5756 65.9437 33.6147 65.6674 33.622 65.3877C33.6281 65.151 33.6508 64.9134 33.6628 64.6759C33.6679 64.5779 33.6781 64.4793 33.6769 64.3809C33.6733 64.0686 33.7045 63.757 33.725 63.4468C33.7601 62.9133 33.7787 62.3805 33.7769 61.8464C33.7767 61.7849 33.7986 61.71 33.713 61.6786C33.7004 61.6684 33.6963 61.6584 33.7007 61.6487C33.7052 61.6389 33.7094 61.634 33.7138 61.634Z" fill="#E285A9"/>
<path fill-rule="evenodd" clip-rule="evenodd" d="M33.9024 61.6923C33.9023 61.7071 33.902 61.7219 33.9016 61.7367C33.7688 62.0014 33.6555 62.2746 33.5558 62.5525C33.4782 62.7684 33.4341 62.9941 33.3975 63.2206C33.3937 63.2442 33.386 63.2686 33.3735 63.2887C33.3688 63.2962 33.3352 63.2977 33.332 63.2922C33.3116 63.2573 33.2908 63.2211 33.2797 63.1826C33.1969 62.897 33.0704 62.6294 32.9326 62.3672C32.8211 62.1548 32.676 61.9654 32.5011 61.7993C32.4841 61.783 32.4616 61.7719 32.4404 61.7606C32.4346 61.7575 32.4244 61.7621 32.4102 61.7639C32.3834 61.8963 32.4393 62.0206 32.4666 62.1443C32.555 62.5434 32.6333 62.9448 32.7224 63.3437C32.9063 64.1669 33.0814 64.9934 33.3812 65.7861C33.4156 65.8771 33.4182 65.9596 33.3998 66.0493C33.3602 66.2436 33.2945 66.4283 33.2003 66.6037C33.1518 66.6942 33.0848 66.7593 32.9899 66.804C32.7506 66.9173 32.5167 67.0419 32.2663 67.1308C32.0566 66.9703 31.8589 66.7955 31.651 66.6327C30.5591 65.7774 29.2983 65.3911 27.9278 65.2561C26.9032 65.1553 25.9119 65.3237 24.9152 65.4926C24.7679 65.3351 24.6584 65.1505 24.5437 64.9709C24.3308 64.6381 24.1122 64.3089 23.9146 63.9663C23.807 63.7798 23.7195 63.5884 23.6447 63.3871C23.4586 62.8859 23.2241 62.4056 22.9796 61.9297C22.8176 61.6146 22.6416 61.3084 22.444 61.0143C22.38 60.9192 22.302 60.8331 22.2283 60.7446C22.2214 60.7362 22.1963 60.7338 22.1855 60.7395C22.1744 60.7455 22.1621 60.766 22.1643 60.7777C22.1915 60.9226 22.1759 61.071 22.217 61.2159C22.2726 61.4124 22.2958 61.6161 22.3497 61.8145C22.489 62.3271 22.7227 62.7965 22.983 63.2559C22.9946 63.2763 22.9987 63.301 23.0062 63.3232C22.9462 63.3638 22.8887 63.3319 22.8398 63.3162C22.3341 63.1549 21.8281 62.9939 21.3263 62.8214C20.911 62.6786 20.4983 62.5271 20.0893 62.3672C19.6573 62.1984 19.2315 62.0141 18.8023 61.8383C18.08 61.5423 17.3842 61.1911 16.6892 60.8395C16.2681 60.6266 15.8568 60.3943 15.4441 60.1655C14.654 59.7274 13.8958 59.2382 13.1509 58.7296C12.5094 58.2917 11.8877 57.8265 11.2845 57.3378C10.9448 57.0626 10.6171 56.7735 10.2842 56.4904C9.62754 55.9318 9.02579 55.3177 8.42665 54.7027C7.84041 54.101 7.29556 53.4614 6.77766 52.7988C6.31073 52.2014 5.86179 51.5921 5.44124 50.9622C5.13501 50.5034 4.84949 50.0317 4.57197 49.5553C4.48511 49.4062 4.40419 49.2536 4.32336 49.1078C4.34781 49.0364 4.40169 49.1007 4.42593 49.074C4.43976 49.0587 4.43726 49.0288 4.44205 49.0055C4.5185 49.0532 4.53358 49.14 4.5729 49.2108C4.60952 49.2765 4.64436 49.3443 4.71301 49.3795C4.81942 49.4344 4.89453 49.523 4.97576 49.6046C5.17985 49.8093 5.40213 49.9925 5.63451 50.1646C5.68079 50.1989 5.72323 50.2398 5.76151 50.2828C5.89445 50.4318 6.06504 50.5368 6.21586 50.6648C6.43534 50.8511 6.66605 51.0245 6.89291 51.2022C7.06808 51.3394 7.24491 51.4745 7.42091 51.6108C7.62925 51.7721 7.83136 51.9422 8.04772 52.0923C8.244 52.2285 8.42499 52.3847 8.63042 52.5093C8.78499 52.6031 8.91928 52.727 9.07042 52.8285C9.28927 52.9755 9.5076 53.1245 9.7224 53.2767C10.1408 53.573 10.5724 53.8487 11.0015 54.1283C11.3817 54.3761 11.7726 54.6079 12.1608 54.8433C12.4151 54.9976 12.672 55.1478 12.9298 55.2963C13.252 55.4822 13.5754 55.6663 13.9003 55.8479C14.1025 55.9609 14.3055 56.0732 14.5129 56.1766C15.3 56.569 16.0878 56.9601 16.8783 57.3457C17.1085 57.458 17.3487 57.5504 17.5843 57.6519C17.6071 57.6618 17.63 57.6715 17.6522 57.6826C18.0976 57.9041 18.5646 58.0749 19.0242 58.2636C19.6367 58.5149 20.2504 58.7622 20.8742 58.9861C21.5603 59.2323 22.2504 59.4666 22.9472 59.6796C23.6346 59.8896 24.3176 60.1155 25.0214 60.2721C25.3438 60.344 25.6554 60.4642 25.9786 60.5304C26.2132 60.5785 26.4474 60.6294 26.6777 60.6902C26.9493 60.7619 27.2313 60.7908 27.4959 60.8888C27.7221 60.8888 27.9293 60.9969 28.1547 61.0022C28.163 61.0024 28.1719 61.0014 28.1795 61.0041C28.4541 61.1015 28.7499 61.095 29.029 61.1759C29.1782 61.2191 29.3401 61.2166 29.4929 61.2498C29.7674 61.3094 30.0537 61.299 30.3225 61.3893C30.5737 61.3817 30.8134 61.4655 31.0585 61.484C31.2649 61.4996 31.4726 61.5153 31.6743 61.5501C31.906 61.59 32.1408 61.5627 32.3664 61.6015C32.5788 61.6381 32.7973 61.6132 33.0053 61.6806C33.0661 61.7002 33.1373 61.6907 33.2037 61.6911C33.4366 61.6923 33.6696 61.692 33.9024 61.6923Z" fill="#E285A9"/>
<path fill-rule="evenodd" clip-rule="evenodd" d="M11.5518 10.9009C11.5518 11.1334 11.5554 11.2991 11.551 11.4644C11.5441 11.7211 11.5856 11.9724 11.6213 12.2249C11.6339 12.3145 11.6256 12.407 11.6375 12.4967C11.7027 12.9865 11.7762 13.4754 11.9039 13.953C11.9396 14.0867 11.9196 14.169 11.8126 14.2523C11.4475 14.5364 11.1106 14.8531 10.7684 15.164C10.3273 15.5646 9.89193 15.9707 9.47281 16.3941C9.4612 16.4058 9.44876 16.4168 9.43591 16.4273C9.39652 16.4595 9.3536 16.4521 9.33805 16.4069C9.314 16.337 9.29586 16.2649 9.27315 16.1944C9.13642 15.77 9.03006 15.338 8.94153 14.901C8.87767 14.5859 8.83828 14.2676 8.7963 13.9497C8.74903 13.5906 8.72332 13.2299 8.71202 12.867C8.70424 12.6194 8.68372 12.3709 8.69782 12.1241C8.71534 11.8185 8.70601 11.5126 8.72207 11.2076C8.73451 10.9703 8.78376 10.7351 8.80283 10.4979C8.86171 9.76496 9.02654 9.05035 9.17167 8.33253C9.27471 7.82298 9.45021 7.33184 9.58477 6.83026C9.76069 6.17473 10.0347 5.55406 10.26 4.91611C10.4254 4.44784 10.6539 4.0073 10.8596 3.55672C11.0036 3.24116 11.142 2.9225 11.2999 2.61388C11.4991 2.22424 11.7157 1.84339 11.9245 1.45862C12.0111 1.29877 12.097 1.13851 12.1827 0.978245C12.2101 0.927135 12.2335 0.873956 12.2625 0.82388C12.3496 0.67355 12.3949 0.651926 12.5639 0.68431C13.2446 0.814775 13.926 0.942137 14.6054 1.07933C14.929 1.14461 15.2472 1.23566 15.5702 1.30425C16.0635 1.40906 16.55 1.54004 17.0366 1.6703C17.4757 1.78773 17.9106 1.92089 18.348 2.04421C18.9451 2.21265 19.5311 2.41626 20.1169 2.61853C20.6872 2.81552 21.2495 3.03579 21.8052 3.27189C22.3309 3.49516 22.8504 3.7323 23.3569 3.99633C23.7972 4.22571 24.2286 4.4704 24.6495 4.73453C25.1477 5.0472 25.6252 5.38821 26.0681 5.77319C26.3362 6.00639 26.5764 6.27167 26.8279 6.5237C26.8604 6.5564 26.8407 6.60119 26.7896 6.61454C26.5257 6.68334 26.2623 6.75484 25.997 6.81857C25.7233 6.88437 25.4549 6.96683 25.187 7.05198C24.7454 7.19238 24.3027 7.32915 23.8614 7.47017C23.7118 7.51797 23.5636 7.57074 23.4174 7.62826C23.3308 7.6623 23.2631 7.65661 23.1905 7.59215C22.7607 7.21038 22.2671 6.92224 21.7648 6.65096C21.0942 6.28884 20.3939 5.98994 19.6779 5.72922C19.1572 5.53957 18.6298 5.37 18.0992 5.2088C17.4025 4.99712 16.6978 4.81751 15.9903 4.6498C15.4122 4.51271 14.8318 4.3809 14.2446 4.28468C13.9517 4.23668 13.6598 4.18308 13.3676 4.13197C13.3349 4.12628 13.3027 4.11738 13.2699 4.11469C13.1452 4.10445 13.1056 4.12628 13.0551 4.23657C13.0277 4.29648 13.0053 4.35866 12.981 4.42001C12.8139 4.84224 12.6435 5.26333 12.4817 5.68763C12.4171 5.85689 12.3758 6.03484 12.3165 6.20628C12.1113 6.80015 11.9653 7.40923 11.8348 8.02297C11.7492 8.42595 11.6979 8.8338 11.6482 9.24185C11.6185 9.48675 11.5756 9.73133 11.5921 9.98005C11.5152 10.3067 11.5707 10.6388 11.5518 10.9009Z" fill="#EA9AB9"/>
<path fill-rule="evenodd" clip-rule="evenodd" d="M64.144 10.3135C64.178 10.6403 64.1136 11.0133 64.1006 11.388C64.0859 11.8099 64.0258 12.2314 63.9652 12.65C63.9045 13.0692 63.8322 13.4876 63.7409 13.9009C63.6188 14.4536 63.4764 15.0019 63.292 15.5379C63.1974 15.8128 63.1067 16.0893 63.011 16.3639C62.9762 16.4635 62.9274 16.4706 62.8703 16.4015C62.3673 15.7937 61.7976 15.251 61.2495 14.6873C61.0843 14.5173 61.0795 14.5156 61.1708 14.3056C61.4444 13.6765 61.6032 13.0169 61.6964 12.3376C61.7293 12.0979 61.7301 11.8556 61.7601 11.6176C61.8032 11.2756 61.8025 10.9336 61.785 10.594C61.765 10.2046 61.7569 9.81387 61.7033 9.42551C61.6556 9.08028 61.6137 8.73464 61.5588 8.39015C61.4683 7.82265 61.3414 7.26434 61.1993 6.70864C61.028 6.03846 60.8229 5.37862 60.5961 4.72661C60.4077 4.1847 60.1964 3.65073 59.9657 3.12543C59.9288 3.04166 59.8859 2.9605 59.8436 2.87944C59.8167 2.82773 59.7733 2.81321 59.7191 2.83494C59.5591 2.89939 59.3981 2.96196 59.2391 3.02902C58.8528 3.19207 58.4668 3.35575 58.082 3.52215C57.9007 3.60049 57.7216 3.68374 57.543 3.76783C56.5067 4.255 55.4984 4.79545 54.5275 5.40682C53.7946 5.8682 53.0882 6.36854 52.4175 6.9187C52.1183 7.16406 51.8203 7.41246 51.5427 7.68561C51.4138 7.81241 51.2758 7.9317 51.1464 8.05934C51.0993 8.10583 51.0536 8.10875 50.9913 8.08431C50.4786 7.88355 49.9669 7.67996 49.4501 7.49122C49.0799 7.35605 48.7023 7.2422 48.3279 7.11915C48.133 7.05512 47.9374 6.99286 47.7429 6.92747C47.6783 6.90575 47.6655 6.86438 47.7093 6.81842C47.8236 6.6984 47.9336 6.57254 48.0591 6.46558C48.1602 6.3793 48.2553 6.28811 48.3476 6.19347C48.6541 5.87958 48.9888 5.59787 49.3137 5.30487C49.805 4.86188 50.3282 4.46005 50.8549 4.0627C51.4549 3.60979 52.0833 3.19991 52.7288 2.8175C53.1328 2.57819 53.5398 2.34327 53.9624 2.13885C54.577 1.84168 55.1994 1.56341 55.8421 1.33194C56.2367 1.18988 56.6324 1.05482 57.0355 0.941805C57.5726 0.791286 58.113 0.657479 58.6626 0.561485C59.0659 0.491083 59.4722 0.448883 59.8776 0.39676C60.3031 0.342131 60.7284 0.352263 61.1539 0.336072C61.3201 0.329805 61.4154 0.394149 61.4879 0.531716C61.5577 0.663955 61.6369 0.790868 61.7077 0.922376C62.0309 1.52247 62.3289 2.13457 62.5914 2.76537C62.8534 3.39565 63.0841 4.03711 63.2824 4.69037C63.4778 5.33444 63.6449 5.98602 63.7762 6.64774C63.8683 7.11246 63.9346 7.58084 64.004 8.04879C64.0416 8.30325 64.0285 8.56626 64.0754 8.81821C64.1325 9.12405 64.0827 9.43303 64.1384 9.73877C64.1693 9.9084 64.144 10.0886 64.144 10.3135Z" fill="#EA9AB9"/>
<path fill-rule="evenodd" clip-rule="evenodd" d="M12.7314 7.46224C12.7169 7.33453 12.7366 7.21242 12.7717 7.08852C12.8633 6.76501 12.9326 6.43442 13.0349 6.11472C13.1632 5.71436 13.2812 5.30955 13.453 4.92462C13.5183 4.77862 13.5833 4.63231 13.6404 4.48292C13.6821 4.37361 13.7574 4.35024 13.8586 4.3697C13.9317 4.38365 14.0042 4.40088 14.0777 4.41294C14.9775 4.56105 15.8691 4.74839 16.7574 4.95655C17.3154 5.08743 17.8671 5.24158 18.4177 5.39783C19.1205 5.59711 19.8098 5.84387 20.4896 6.11345C21.0939 6.35302 21.6821 6.63149 22.2472 6.95541C22.5507 7.12932 22.8375 7.33273 23.115 7.54808C23.1631 7.58551 23.155 7.63879 23.098 7.66639C23.0532 7.68806 23.0064 7.7054 22.9598 7.72316C22.3456 7.95722 21.7427 8.21878 21.1424 8.48741C20.4578 8.79379 19.7859 9.12723 19.1161 9.46533C18.9452 9.5516 18.7968 9.68068 18.6094 9.73397C18.5203 9.73375 18.4501 9.69115 18.3901 9.6293C17.5127 8.72465 16.4298 8.16496 15.2799 7.71988C14.7009 7.49575 14.095 7.38749 13.4813 7.33104C13.2255 7.30746 12.9725 7.36572 12.7314 7.46224Z" fill="#B15E7C"/>
<path fill-rule="evenodd" clip-rule="evenodd" d="M56.1351 5.03522C56.2403 5.03005 56.3253 5.07533 56.4091 5.13374C56.7566 5.37599 57.0704 5.65875 57.3448 5.97709C57.5805 6.25055 57.8097 6.53353 57.9919 6.84886C58.0743 6.99144 58.1697 7.12698 58.2455 7.27286C58.3288 7.43332 58.398 7.60122 58.4705 7.76727C58.6162 8.10111 58.6758 8.45977 58.7654 8.80953C58.7775 8.85657 58.7744 8.90796 58.7745 8.95738C58.775 9.36194 58.7733 9.76639 58.7757 10.1709C58.7763 10.2555 58.7486 10.3324 58.7333 10.413C58.6872 10.6544 58.6476 10.8965 58.5962 11.1374C58.5277 11.4603 58.4127 11.767 58.3288 12.0835C58.1057 11.9283 57.8853 11.7689 57.6591 11.6182C56.9023 11.1138 56.1409 10.6168 55.3484 10.1687C54.9597 9.94888 54.5704 9.73062 54.1702 9.53181C53.9776 9.43607 53.795 9.31996 53.5996 9.23115C52.9148 8.91985 52.2495 8.56584 51.5441 8.29982C51.4845 8.27728 51.4147 8.26229 51.381 8.18155C52.8088 6.90045 54.4167 5.88497 56.1351 5.03522Z" fill="#D87A9E"/>
<path fill-rule="evenodd" clip-rule="evenodd" d="M12.5602 7.57917C12.5769 7.55172 12.5959 7.5253 12.6096 7.49642C12.6247 7.46477 12.6462 7.43414 12.6808 7.43752C12.8572 7.45422 13.0236 7.3816 13.1978 7.38447C13.3132 7.38631 13.4263 7.3899 13.5423 7.41601C13.6774 7.44633 13.8197 7.46088 13.9579 7.47163C14.1755 7.48853 14.3817 7.54578 14.5882 7.60079C14.9959 7.70936 15.3881 7.86002 15.7768 8.02513C16.2732 8.23602 16.7332 8.51021 17.2059 8.76278C17.2783 8.8014 17.347 8.84902 17.4108 8.90034C17.5451 9.0086 17.6689 9.13048 17.8086 9.23086C17.9841 9.35694 18.1343 9.50781 18.2891 9.655C18.3364 9.69996 18.39 9.73857 18.4406 9.78006C17.9862 10.0339 17.5291 10.2831 17.078 10.5427C16.7059 10.757 16.3364 10.9769 15.9737 11.2064C15.527 11.4891 15.0857 11.7803 14.6471 12.0752C14.0649 12.4667 13.4986 12.88 12.947 13.3127C12.7656 13.455 12.5856 13.599 12.4045 13.7418C12.3568 13.7794 12.3233 13.7638 12.3009 13.6966C12.2438 13.5252 12.2332 13.3452 12.2029 13.1691C12.1656 12.9526 12.1383 12.7345 12.1068 12.5171C12.1045 12.5009 12.1021 12.4847 12.1021 12.4684C12.1025 12.126 12.0381 11.7865 12.058 11.4426C12.0699 11.2388 12.0639 11.0336 12.0594 10.8292C12.0524 10.5106 12.0876 10.1958 12.134 9.88146C12.14 9.8412 12.1381 9.79993 12.1392 9.75906C12.1437 9.60409 12.1623 9.45179 12.1936 9.29897C12.2457 9.04404 12.272 8.78388 12.3268 8.52956C12.3954 8.21082 12.4816 7.89587 12.5602 7.57917Z" fill="#D87A9E"/>
<path fill-rule="evenodd" clip-rule="evenodd" d="M24.3442 43.084C24.3228 43.0589 24.3062 43.0263 24.2796 43.0099C23.8784 42.7627 23.4909 42.496 23.1221 42.2027C22.9736 42.0847 22.8256 41.966 22.6781 41.8466C22.1421 41.4124 21.6864 40.8955 21.1975 40.4128C21.1276 40.3437 21.076 40.2566 21.0109 40.1821C20.6186 39.7336 20.2803 39.2446 19.9427 38.7555C19.8162 38.5722 19.7123 38.3735 19.5958 38.183C19.3577 37.7937 19.166 37.3802 18.9685 36.9703C18.8367 36.6965 18.7328 36.4091 18.6219 36.1256C18.4476 35.6795 18.3182 35.2183 18.1868 34.7586C18.1053 34.4737 18.0216 34.1853 17.9861 33.8927C17.9475 33.5743 17.8519 33.2644 17.8597 32.9376C17.8642 32.7511 17.8126 32.5634 17.7881 32.3761C17.7794 32.3109 17.7713 32.2449 17.771 32.1793C17.7696 31.6988 17.7651 31.2182 17.7728 30.7379C17.7757 30.5576 17.7952 30.3751 17.8319 30.1987C17.8542 30.0918 17.8656 29.9873 17.8658 29.8801C17.8659 29.7553 17.8899 29.6349 17.9134 29.5128C17.9728 29.2059 18.014 28.8954 18.0761 28.5891C18.1135 28.4042 18.1683 28.2215 18.2312 28.0434C18.2623 27.9555 18.2613 27.865 18.2883 27.7777C18.3346 27.628 18.399 27.4853 18.4419 27.3336C18.5067 27.1039 18.5893 26.8781 18.6798 26.657C18.8263 26.299 18.9721 25.9394 19.1426 25.5924C19.4445 24.9778 19.7897 24.3866 20.1883 23.8286C20.3899 23.5465 20.5907 23.2637 20.8203 23.0025C20.9452 22.8602 21.0537 22.7035 21.1792 22.5617C21.3053 22.4191 21.4419 22.2855 21.5766 22.1506C21.7875 21.9394 21.9985 21.7284 22.2137 21.5217C22.3028 21.4362 22.4012 21.3601 22.4983 21.2835C22.7897 21.0533 23.0703 20.8088 23.3805 20.603C23.704 20.3884 24.0257 20.1711 24.3531 19.963C24.5128 19.8614 24.6825 19.7748 24.8505 19.6868C25.0268 19.5944 25.2079 19.5116 25.3841 19.4191C25.9436 19.1252 26.5385 18.9211 27.1379 18.7291C27.4527 18.6283 27.7695 18.5327 28.0895 18.4501C28.3045 18.3946 28.5265 18.3664 28.7452 18.3252C28.8181 18.3114 28.8898 18.2909 28.9632 18.2804C29.2159 18.2447 29.4714 18.2231 29.7217 18.1752C30.0424 18.1139 30.3647 18.1293 30.6868 18.1277C31.1928 18.125 31.6991 18.1344 32.205 18.1256C32.4224 18.1218 32.6343 18.156 32.8446 18.1907C32.9679 18.2113 33.0898 18.2222 33.2132 18.2291C33.2464 18.2309 33.2818 18.2242 33.3124 18.2337C33.5261 18.3004 33.7489 18.3195 33.9674 18.3607C34.4061 18.4434 34.8375 18.5579 35.265 18.6826C35.6457 18.7937 36.0254 18.9118 36.3909 19.0708C36.6108 19.1663 36.834 19.2545 37.0549 19.348C37.4145 19.5001 37.7583 19.6823 38.1048 19.8591C38.5172 20.0695 38.9095 20.3162 39.2917 20.5765C39.6125 20.7949 39.9261 21.0243 40.2351 21.2589C40.3992 21.3835 40.5416 21.5363 40.703 21.6648C41.1127 21.9913 41.4602 22.3813 41.8315 22.7473C42.0143 22.9274 42.1709 23.1296 42.3314 23.3288C42.4194 23.4379 42.5161 23.54 42.609 23.6454C42.7164 23.7898 42.8461 23.915 42.9634 24.0511C43.574 24.8223 44.0451 25.6758 44.4559 26.565C44.945 27.6235 45.2885 28.7294 45.4892 29.8752C45.6798 30.9627 45.7022 32.0593 45.6264 33.1625C45.5153 34.7814 45.0536 36.3009 44.3607 37.753C43.8306 38.8644 43.1325 39.8672 42.3022 40.7834C41.4671 41.705 40.5291 42.4975 39.4782 43.1569C38.3203 43.8836 37.0838 44.4355 35.7613 44.7962C35.1846 44.9535 34.6057 45.0877 34.0122 45.1641C32.9093 45.3062 31.811 45.3663 30.6954 45.2571C29.3558 45.1261 28.0646 44.8254 26.809 44.3601C26.0628 44.0836 25.3358 43.7593 24.6677 43.3191C24.5574 43.2442 24.4486 43.1672 24.3442 43.084Z" fill="#E16094"/>
<path fill-rule="evenodd" clip-rule="evenodd" d="M24.5081 43.3835C24.6623 43.4619 24.8161 43.5409 24.9708 43.6183C25.2302 43.748 25.4872 43.8831 25.7506 44.0043C26.1934 44.2079 26.6423 44.3963 27.1083 44.5452C27.3438 44.6203 27.5764 44.7063 27.8145 44.7735C28.0207 44.8317 28.2309 44.8757 28.4387 44.9284C28.5508 44.9568 28.6598 45.002 28.7733 45.0195C29.083 45.0668 29.3825 45.1671 29.6993 45.1803C29.8378 45.1861 29.9747 45.2283 30.1123 45.2542C30.1286 45.2572 30.1448 45.2647 30.1607 45.2641C30.4265 45.253 30.6873 45.3109 30.9513 45.3206C31.0999 45.3261 31.2493 45.3089 31.3947 45.3599C31.4396 45.3757 31.4935 45.3694 31.5431 45.3674C31.8566 45.3549 32.1727 45.4027 32.4836 45.3243C32.5305 45.3123 32.5829 45.3219 32.6326 45.3211C32.7647 45.3189 32.8977 45.3328 33.0262 45.2831C33.063 45.269 33.1083 45.2738 33.1496 45.2746C33.4074 45.2797 33.6576 45.2243 33.9112 45.1916C34.1572 45.1598 34.4011 45.1215 34.6439 45.0738C34.9271 45.0181 35.2114 44.9652 35.4834 44.8662C35.5553 44.84 35.63 44.8391 35.7003 44.8184C35.9457 44.7464 36.1902 44.671 36.4324 44.5893C36.5968 44.5337 36.7553 44.4609 36.9194 44.4042C37.4772 44.2113 38.0011 43.9443 38.5229 43.6748C39.0674 43.394 39.5746 43.052 40.076 42.7005C40.34 42.5155 40.574 42.2932 40.8444 42.1174C40.8581 42.1086 40.8694 42.0958 40.8814 42.0845C41.1772 41.8084 41.4913 41.549 41.7637 41.2516C42.0693 40.9177 42.3982 40.6036 42.6633 40.2326C42.7779 40.0724 42.9117 39.9249 43.0247 39.7623C43.1185 39.6272 43.2199 39.4973 43.311 39.3603C43.6168 38.9006 43.9027 38.4277 44.1458 37.9331C44.3453 37.5271 44.5175 37.1073 44.6782 36.6832C44.8417 36.2516 44.9759 35.8114 45.0955 35.367C45.1809 35.0503 45.2724 34.7306 45.3084 34.4064C45.3483 34.0481 45.4618 33.6966 45.426 33.3303C45.5189 32.798 45.4551 32.261 45.4717 31.7265C45.4763 31.5789 45.4825 31.431 45.4345 31.2854C45.4148 31.2252 45.4275 31.1544 45.4256 31.0885C45.4209 30.916 45.4095 30.7459 45.3813 30.5735C45.3284 30.2499 45.2777 29.9257 45.2174 29.6033C45.1767 29.3855 45.1185 29.1703 45.0597 28.9562C44.9199 28.4481 44.764 27.9445 44.5716 27.4536C44.4665 27.1857 44.3348 26.9282 44.2233 26.6626C44.1018 26.3737 43.9406 26.1055 43.7999 25.8266C43.6885 25.6055 43.5615 25.3939 43.4286 25.1864C43.2197 24.8604 42.9983 24.5426 42.7821 24.2214C42.7707 24.1751 42.7873 24.1579 42.834 24.1717C42.8889 24.2217 42.9522 24.265 42.997 24.3226C43.1489 24.5179 43.3193 24.6972 43.4772 24.8869C43.6829 25.1339 43.88 25.3887 44.0708 25.6473C44.3848 26.0724 44.6583 26.5236 44.9224 26.9809C45.2825 27.6044 45.5718 28.2593 45.8311 28.9295C46.0788 29.569 46.252 30.2299 46.3989 30.8965C46.4605 31.1753 46.5299 31.4575 46.5298 31.7489C46.5297 31.8543 46.5546 31.9632 46.58 32.0637C46.6172 32.2116 46.6213 32.3591 46.6183 32.5054C46.6103 32.8932 46.6945 33.2761 46.6712 33.664C46.6652 33.7624 46.6673 33.8594 46.6434 33.9581C46.6206 34.0523 46.6262 34.1543 46.6265 34.253C46.6275 34.5745 46.5915 34.891 46.5411 35.2093C46.5025 35.4521 46.4704 35.6962 46.4308 35.9396C46.3776 36.2655 46.3002 36.5853 46.2081 36.9006C46.0857 37.3193 45.9621 37.7396 45.8038 38.1454C45.5791 38.7209 45.322 39.2845 45.0186 39.8242C44.6996 40.3919 44.3414 40.9363 43.9433 41.4516C43.6815 41.7904 43.4092 42.123 43.0961 42.4198C42.7838 42.716 42.487 43.0283 42.1714 43.3208C41.9602 43.5166 41.7352 43.6999 41.5035 43.8716C41.1854 44.1074 40.8609 44.3359 40.5283 44.5508C40.2367 44.7392 39.9359 44.9145 39.6223 45.0665C39.4955 45.1278 39.3693 45.1904 39.2437 45.2543C38.6374 45.5629 38.0081 45.8166 37.3584 46.0178C36.8928 46.1621 36.4213 46.2838 35.9405 46.3751C35.6241 46.4351 35.3043 46.4734 34.9896 46.5417C34.9415 46.552 34.8908 46.5562 34.8416 46.5549C34.5594 46.5471 34.2835 46.6307 34.0007 46.6097C33.6649 46.6867 33.3237 46.6416 32.985 46.6523C32.8859 46.6554 32.7857 46.6604 32.6896 46.6236C32.667 46.6149 32.6404 46.6097 32.6164 46.6117C32.3666 46.6339 32.1227 46.5704 31.8748 46.5622C31.7264 46.5572 31.5794 46.5433 31.4317 46.5145C31.1081 46.4512 30.7762 46.4244 30.4563 46.3468C30.1279 46.2671 29.797 46.1962 29.4726 46.0941C29.0781 45.9699 28.6836 45.8446 28.2959 45.7029C27.9628 45.5811 27.6446 45.419 27.3214 45.2712C26.8016 45.0335 26.3099 44.7443 25.8307 44.4363C25.5183 44.2356 25.2215 44.0095 24.9275 43.7826C24.7848 43.6725 24.626 43.5801 24.5068 43.441C24.4925 43.4279 24.4879 43.415 24.493 43.4023C24.4982 43.3898 24.5031 43.3835 24.5081 43.3835Z" fill="#AE4F7A"/>
<path fill-rule="evenodd" clip-rule="evenodd" d="M57.094 18.8014C57.094 18.8434 57.0926 18.8856 57.0943 18.9276C57.1109 19.3541 56.8973 19.6651 56.5757 19.9075C56.4652 19.9907 56.321 20.043 56.1841 20.0747C55.906 20.1389 55.6184 20.1778 55.3413 20.0803C55.02 19.9671 54.7299 19.8005 54.5462 19.4954C54.5159 19.4452 54.4907 19.3897 54.4512 19.3479C54.2031 19.0859 53.9932 18.7857 53.7105 18.5592C53.502 18.3923 53.3245 18.1902 53.0863 18.0546C52.899 17.9479 52.7327 17.8005 52.5674 17.6593C52.2545 17.392 51.9162 17.1588 51.5881 16.9124C51.0652 16.5199 50.5313 16.1427 49.9892 15.7764C49.7403 15.6083 49.4958 15.4285 49.2909 15.2019C49.0401 14.9248 48.8378 14.6206 48.7187 14.2645C48.7134 14.2486 48.7058 14.2327 48.7041 14.2164C48.6594 13.7726 48.7302 13.3685 49.0583 13.0298C49.3241 12.7555 49.6384 12.5897 50.0022 12.4853C50.3371 12.3893 50.6614 12.409 50.9954 12.4739C51.5742 12.5865 52.0848 12.8533 52.5939 13.134C52.9424 13.3259 53.2357 13.5901 53.5603 13.8126C53.5878 13.8314 53.6104 13.8574 53.6343 13.8811C53.8667 14.1115 54.1303 14.3071 54.3705 14.5274C54.6296 14.7649 54.894 15.0005 55.1042 15.2885C55.2174 15.4435 55.3508 15.5849 55.4836 15.7242C55.7332 15.9858 55.9518 16.2703 56.1466 16.5743C56.2051 16.6659 56.2807 16.7465 56.3395 16.8379C56.5757 17.2053 56.7985 17.5799 56.9534 17.991C57.0447 18.2338 57.094 18.4907 57.094 18.8014Z" fill="#ECBCCE"/>
<path fill-rule="evenodd" clip-rule="evenodd" d="M43.6552 12.0412C43.6611 11.8458 43.6522 11.6975 43.6986 11.5479C43.7516 11.377 43.8288 11.2226 43.9426 11.0822C44.0448 10.9562 44.1523 10.8398 44.2873 10.7369C44.5077 10.5691 44.7577 10.482 45.0255 10.4332C45.2431 10.3936 45.4697 10.4003 45.6877 10.4274C45.9302 10.4576 46.1629 10.5282 46.3771 10.6538C46.6874 10.8357 46.9312 11.0716 47.1103 11.3658C47.2202 11.5461 47.3087 11.7334 47.3007 11.9503C47.2976 12.0356 47.3573 12.1156 47.3462 12.2064C47.3067 12.5331 47.2169 12.8465 47.0163 13.1194C46.9111 13.2625 46.7661 13.3762 46.6064 13.473C46.243 13.6931 45.8442 13.7876 45.4176 13.7558C44.8868 13.7162 44.4345 13.5056 44.0891 13.1287C43.7943 12.8069 43.6173 12.4341 43.6552 12.0412Z" fill="#ECBCCE"/>
<path fill-rule="evenodd" clip-rule="evenodd" d="M36.2472 15.8818C36.2747 16.2338 36.2337 16.5342 36.1105 16.819C36.0277 17.0104 35.9233 17.1847 35.7532 17.3073C35.5194 17.4758 35.2662 17.4884 35.0086 17.3997C34.7522 17.3115 34.56 17.1219 34.4047 16.8983C34.1233 16.4929 33.9619 16.0379 33.9357 15.5332C33.9333 15.4855 33.9223 15.4382 33.9155 15.3908C33.9109 15.3591 33.9 15.3267 33.903 15.2958C33.9418 14.8797 33.9692 14.4602 34.2272 14.11C34.3853 13.8956 34.5787 13.7691 34.8483 13.7622C35.1452 13.7545 35.3805 13.869 35.5882 14.0813C35.8766 14.3762 36.0584 14.7325 36.1619 15.1367C36.1937 15.2608 36.2307 15.3857 36.244 15.5125C36.2582 15.6478 36.2472 15.7861 36.2472 15.8818Z" fill="#7A393F"/>
<path fill-rule="evenodd" clip-rule="evenodd" d="M31.5496 14.6701C31.4732 14.7624 31.3824 14.7724 31.3018 14.7999C30.9188 14.9312 30.5356 15.0614 30.1511 15.1878C29.1068 15.531 28.153 16.043 27.2958 16.7367C27.2774 16.7516 27.2599 16.7689 27.239 16.7792C27.2274 16.7849 27.2056 16.7836 27.1959 16.7759C27.1857 16.7676 27.181 16.7483 27.18 16.7335C27.179 16.7182 27.185 16.7024 27.1886 16.6869C27.2957 16.2323 27.5186 15.8431 27.8378 15.5063C28.3368 14.9798 28.9496 14.6606 29.6496 14.5158C29.943 14.4551 30.2458 14.4131 30.5472 14.443C30.8832 14.4764 31.2243 14.4994 31.5496 14.6701Z" fill="#7A393F"/>
<path fill-rule="evenodd" clip-rule="evenodd" d="M42.6417 24.1252C42.6251 24.1392 42.6084 24.1531 42.5916 24.1671C42.4825 24.0641 42.3575 23.9714 42.3055 23.8314C42.4353 23.914 42.5502 24.0094 42.6417 24.1252Z" fill="#C8618B"/>
<path fill-rule="evenodd" clip-rule="evenodd" d="M24.4909 43.557C24.4904 43.5831 24.49 43.609 24.4894 43.635C24.3516 43.5593 24.2289 43.4629 24.1548 43.2994C24.2909 43.3419 24.4043 43.4251 24.4909 43.557Z" fill="#C1658B"/>
<path fill-rule="evenodd" clip-rule="evenodd" d="M24.8942 31.5427C24.4853 31.5713 24.103 31.5029 23.7329 31.3627C23.0653 31.1099 22.558 30.6723 22.2208 30.0352C22.0349 29.6837 21.9198 29.3095 21.859 28.9195C21.8086 28.5952 21.7854 28.2654 21.8149 27.9385C21.8772 27.2491 22.0384 26.5819 22.3077 25.9432C22.6158 25.2126 23.0329 24.5515 23.5406 23.9442C23.7833 23.6539 24.0491 23.3869 24.324 23.1316C24.6835 22.7978 25.0812 22.5114 25.5078 22.2655C25.8843 22.0483 26.2736 21.8639 26.6852 21.7281C26.995 21.626 27.3127 21.5626 27.6362 21.5176C27.8231 21.4916 28.0083 21.4761 28.1947 21.4838C28.6863 21.5043 29.1628 21.5897 29.606 21.8224C30.1114 22.0876 30.5029 22.4682 30.777 22.9706C31.0075 23.3928 31.1466 23.8412 31.1792 24.3254C31.1902 24.4882 31.2169 24.65 31.213 24.8142C31.2051 25.1504 31.1742 25.4846 31.1096 25.8139C30.942 26.6684 30.6135 27.4576 30.1498 28.1923C29.9002 28.588 29.6094 28.9491 29.3071 29.3049C28.8194 29.8788 28.2373 30.3365 27.6082 30.7329C27.0385 31.0919 26.4167 31.3407 25.7557 31.4754C25.4684 31.5339 25.1768 31.5688 24.8942 31.5427Z" fill="#7A393F"/>
<path fill-rule="evenodd" clip-rule="evenodd" d="M33.2428 25.8186C33.2076 25.4037 33.2764 25.0089 33.382 24.6219C33.5047 24.172 33.7169 23.7665 34.0499 23.4406C34.4495 23.0497 34.9218 22.8212 35.4878 22.8296C35.5207 22.8302 35.5537 22.8317 35.5865 22.8294C36.1578 22.7901 36.6671 22.9889 37.1566 23.2587C37.6386 23.5244 38.0553 23.8786 38.4155 24.2939C38.8075 24.7457 39.138 25.2438 39.3871 25.7951C39.5726 26.2063 39.7118 26.6306 39.8209 27.0703C39.9517 27.5975 39.9704 28.1304 39.9403 28.6633C39.9073 29.2471 39.7316 29.7964 39.3971 30.2794C39.05 30.7804 38.5804 31.1023 37.9796 31.1864C37.433 31.2632 36.9009 31.1902 36.391 30.9609C35.7801 30.686 35.2615 30.2822 34.8117 29.7867C34.3859 29.3177 34.0514 28.7846 33.7852 28.2046C33.5965 27.7933 33.4453 27.3685 33.3529 26.9273C33.2764 26.5614 33.1994 26.1901 33.2428 25.8186Z" fill="#7A393F"/>
</svg>
