<svg width="17" height="17" viewBox="0 0 17 17" fill="none" xmlns="http://www.w3.org/2000/svg">
<path fill-rule="evenodd" clip-rule="evenodd" d="M7.21894 13.9464C3.44044 13.9464 0.375 10.9097 0.375 7.16071C0.375 3.41174 3.44044 0.375 7.21894 0.375C10.9974 0.375 14.0629 3.41174 14.0629 7.16071C14.0629 8.67257 13.5643 10.0686 12.7216 11.1964L16.662 15.0999C16.9072 15.3428 16.909 15.7385 16.6661 15.9837C16.4232 16.2289 16.0275 16.2308 15.7822 15.9879L11.8838 12.126C10.6613 13.2555 9.02123 13.9464 7.21894 13.9464ZM7.21893 12.6964C10.3097 12.6964 12.8129 10.2166 12.8129 7.16068C12.8129 4.10472 10.3097 1.62497 7.21893 1.62497C4.12818 1.62497 1.625 4.10472 1.625 7.16068C1.625 10.2166 4.12818 12.6964 7.21893 12.6964Z" fill="#62707B"/>
</svg>
