<svg width="22" height="23" viewBox="0 0 22 23" fill="none" xmlns="http://www.w3.org/2000/svg">
<circle cx="11" cy="11.9415" r="10" fill="white" stroke="#62707B" stroke-width="2"/>
<path d="M7.71766 14.4539L7.71775 14.454C7.84507 14.2895 8.00809 14.1825 8.20665 14.1825C8.3086 14.1825 8.40569 14.2032 8.4947 14.2476C8.5819 14.2794 8.68392 14.332 8.79825 14.4005L8.80675 14.4056L8.80658 14.4059C9.17524 14.6582 9.53219 14.8407 9.87747 14.956C10.231 15.0714 10.6008 15.1293 10.9875 15.1293C11.5202 15.1293 11.9039 15.0204 12.1609 14.8256L12.1626 14.8243L12.1627 14.8243C12.4199 14.6346 12.5529 14.3628 12.5529 13.9843C12.5529 13.7736 12.4855 13.6156 12.3574 13.4946C12.2119 13.3572 12.0269 13.2472 11.7982 13.1673L11.7934 13.1656L11.7935 13.1655C11.554 13.0734 11.2143 12.967 10.7716 12.8466C10.1498 12.6812 9.63919 12.5147 9.24221 12.3463L9.23936 12.3451L9.23937 12.345C8.82721 12.161 8.47297 11.885 8.17731 11.52C7.86667 11.1365 7.7203 10.6289 7.7203 10.0153C7.7203 9.273 7.97528 8.63488 8.48369 8.11052C8.96043 7.61885 9.57399 7.30542 10.3158 7.16549V6.48733C10.3158 6.25563 10.3838 6.05279 10.5324 5.89566C10.682 5.72871 10.8803 5.64787 11.1111 5.64787C11.3419 5.64787 11.5403 5.72871 11.6899 5.89566C11.8385 6.05279 11.9065 6.25563 11.9065 6.48733V7.14941C12.7072 7.28141 13.4055 7.60162 13.9971 8.11107C14.2325 8.29762 14.3537 8.54768 14.3537 8.84797C14.3537 9.06357 14.2895 9.25854 14.1604 9.4264C14.0382 9.59609 13.8736 9.70041 13.6696 9.70041C13.5758 9.70041 13.4832 9.68394 13.3926 9.65224L13.3866 9.65015L13.3867 9.65003C13.3034 9.61726 13.2006 9.55705 13.0829 9.47763L13.0767 9.47347L13.0768 9.47334C12.7475 9.22885 12.4386 9.05098 12.1502 8.93647L12.145 8.93438L12.145 8.9343C11.8741 8.81583 11.5434 8.75356 11.1482 8.75356C10.6629 8.75356 10.2949 8.86836 10.0272 9.08094L10.025 9.08275L10.0249 9.08273C9.76451 9.28217 9.63232 9.55602 9.63232 9.92452C9.63232 10.173 9.70612 10.3632 9.84496 10.5097C9.99831 10.6625 10.1945 10.784 10.4379 10.8718C10.6951 10.9646 11.0483 11.0712 11.4992 11.1917C11.4994 11.1918 11.4996 11.1918 11.4998 11.1919L11.4572 11.3513C12.0587 11.5069 12.549 11.6669 12.928 11.8312C13.307 11.9955 13.6284 12.2462 13.892 12.5835L7.71766 14.4539ZM7.71766 14.4539L7.71398 14.4591C7.59371 14.6273 7.53491 14.8214 7.53491 15.0349C7.53491 15.1887 7.55767 15.3292 7.6103 15.4507C7.66538 15.5779 7.76033 15.6849 7.88262 15.7747C8.21935 16.0547 8.61806 16.2786 9.07646 16.4478C9.48743 16.5996 9.90886 16.7013 10.3405 16.7528V17.3955C10.3405 17.6272 10.4085 17.8301 10.5571 17.9872C10.7067 18.1542 10.9051 18.235 11.1359 18.235C11.3667 18.235 11.565 18.1542 11.7146 17.9872C11.8632 17.8301 11.9312 17.6272 11.9312 17.3955V16.7174C12.6702 16.5787 13.2723 16.2745 13.7267 15.7978C14.2191 15.29 14.4649 14.6647 14.4649 13.9324C14.4649 13.3373 14.3232 12.8467 14.0206 12.4801L7.71766 14.4539Z" fill="#00BA4A" stroke="#00BA4A" stroke-width="0.33"/>
</svg>
