<svg width="24" height="25" viewBox="0 0 24 25" fill="none" xmlns="http://www.w3.org/2000/svg">
<path d="M19.612 6.12191C19.1722 5.67347 18.65 5.31773 18.0752 5.07503C17.5005 4.83232 16.8844 4.7074 16.2623 4.7074C15.6401 4.7074 15.0241 4.83232 14.4493 5.07503C13.8746 5.31773 13.3524 5.67347 12.9126 6.12191L11.9998 7.05216L11.087 6.12191C10.1986 5.21651 8.99364 4.70787 7.73725 4.70787C6.48085 4.70787 5.27591 5.21651 4.38751 6.12191C3.4991 7.02731 3 8.2553 3 9.53572C3 10.8162 3.4991 12.0441 4.38751 12.9495L5.30029 13.8798L11.9998 20.7074L18.6992 13.8798L19.612 12.9495C20.0521 12.5013 20.4011 11.9691 20.6393 11.3834C20.8774 10.7976 21 10.1698 21 9.53572C21 8.90168 20.8774 8.27385 20.6393 7.68809C20.4011 7.10234 20.0521 6.57015 19.612 6.12191V6.12191Z" stroke="#62707B" stroke-width="2" stroke-linecap="round" stroke-linejoin="round"/>
<circle cx="12" cy="11.7074" r="2" fill="#00BA4A"/>
</svg>
