<?xml version="1.0" encoding="iso-8859-1"?>
<!-- Generator: Adobe Illustrator 17.1.0, SVG Export Plug-In . SVG Version: 6.00 Build 0)  -->
<!DOCTYPE svg PUBLIC "-//W3C//DTD SVG 1.1//EN" "http://www.w3.org/Graphics/SVG/1.1/DTD/svg11.dtd">
<svg version="1.1" id="Layer_1" xmlns="http://www.w3.org/2000/svg" xmlns:xlink="http://www.w3.org/1999/xlink" x="0px" y="0px"
	 viewBox="0 0 252 98" style="enable-background:new 0 0 252 98;" xml:space="preserve">
<pattern  width="124.494" height="101.977" patternUnits="userSpaceOnUse" id="New_Pattern_Swatch_1" viewBox="0 -101.977 124.494 101.977" style="overflow:visible;">
	<g>
		<polygon style="fill:none;" points="0,0 124.494,0 124.494,-101.977 0,-101.977 		"/>
		<g>
			<polygon style="fill:#8A3D46;" points="124.494,0 0,0 0,-101.977 124.494,-101.977 			"/>
		</g>
	</g>
</pattern>
<g>
	<path style="fill:#FFFFFF;" d="M134.699,49.918c8.968,0,16.477-4.376,16.477-13.56c0-8.644-6.591-10.751-14.857-10.751
		c-3.782,0-7.077,0.378-10.265,0.81v37.007h8.644V49.918z M134.699,43.706V31.82c0.378-0.108,1.189-0.27,2.539-0.27
		c2.647,0,5.564,1.189,5.564,5.781C142.802,42.193,138.805,43.706,134.699,43.706z"/>
	<path style="fill:#FFFFFF;" d="M163.707,63.424v-27.39l-7.996,2.377v25.013H163.707z M163.221,22.69l-8.86,2.539v1.729l5.024,5.51
		l3.404-1.189l1.459-7.563L163.221,22.69z"/>
	<path style="fill:#FFFFFF;" d="M193.528,34.143c-2.323,0.162-5.619,1.837-7.077,3.241c-1.351-0.81-3.241-1.351-6.159-1.351
		c-5.511,0-10.805,3.35-10.805,9.832c0,4.808,2.971,6.969,4.43,7.617c-1.513,1.243-3.458,3.566-4.106,5.186
		c0.162,1.513,1.134,2.809,2.269,3.512c-1.837,1.459-3.728,3.782-3.728,6.159c0,3.404,4.484,6.321,10.967,6.321
		c6.861,0,14.965-2.863,14.965-11.075c0-5.402-5.835-6.051-11.345-6.159c-5.619-0.108-5.727-0.54-5.727-1.243
		c0-0.594,0.54-1.459,1.026-1.891c0.648,0.108,1.513,0.108,2.215,0.108c5.294,0,10.427-2.701,10.427-8.752
		c0-1.891-0.648-3.782-1.405-4.916c1.135-0.432,3.62-0.81,4.862-0.81L193.528,34.143z M183.912,46.029
		c0,1.729-1.026,3.133-3.296,3.133c-2.593,0-4.052-1.945-4.052-4.484c0-2.053,1.459-3.295,3.35-3.295
		C182.291,41.383,183.912,43.165,183.912,46.029z M176.294,63.424c8.104,0,10.535,0.324,10.535,2.431
		c0,2.269-2.809,3.295-5.997,3.295c-3.62,0-5.51-1.189-5.51-3.241C175.322,64.829,175.808,63.965,176.294,63.424z"/>
	<path style="fill:#FFFFFF;" d="M220.592,34.143c-2.323,0.162-5.618,1.837-7.077,3.241c-1.351-0.81-3.241-1.351-6.159-1.351
		c-5.51,0-10.805,3.35-10.805,9.832c0,4.808,2.971,6.969,4.43,7.617c-1.513,1.243-3.458,3.566-4.106,5.186
		c0.162,1.513,1.135,2.809,2.269,3.512c-1.837,1.459-3.728,3.782-3.728,6.159c0,3.404,4.484,6.321,10.967,6.321
		c6.861,0,14.965-2.863,14.965-11.075c0-5.402-5.835-6.051-11.345-6.159c-5.619-0.108-5.727-0.54-5.727-1.243
		c0-0.594,0.54-1.459,1.026-1.891c0.648,0.108,1.513,0.108,2.215,0.108c5.294,0,10.427-2.701,10.427-8.752
		c0-1.891-0.648-3.782-1.405-4.916c1.135-0.432,3.62-0.81,4.862-0.81L220.592,34.143z M210.976,46.029
		c0,1.729-1.026,3.133-3.296,3.133c-2.593,0-4.052-1.945-4.052-4.484c0-2.053,1.459-3.295,3.35-3.295
		C209.355,41.383,210.976,43.165,210.976,46.029z M203.359,63.424c8.104,0,10.535,0.324,10.535,2.431
		c0,2.269-2.809,3.295-5.997,3.295c-3.62,0-5.51-1.189-5.51-3.241C202.386,64.829,202.872,63.965,203.359,63.424z"/>
	<path style="fill:#FFFFFF;" d="M236.312,56.401h-0.162l-5.997-20.367l-8.05,2.431l7.996,24.959h3.079l-5.456,9.832l7.725,2.053
		l14.695-38.465h-8.158L236.312,56.401z"/>
</g>
<g>
	<g>
		
			<ellipse transform="matrix(0.9998 0.0173 -0.0173 0.9998 1.6156 -0.9786)" style="opacity:0.22;" cx="57.265" cy="92.719" rx="23.34" ry="4.119"/>
		<g>
			<path style="fill:#EC1C24;" d="M90.68,38.132c8.783,1.677,4.387,9.383,2.613,14.968c-0.547,1.722-0.667,3.449,0.165,5.112
				c0.696,1.391,2.565,2.041,3.06,3.447c0.897,2.553-3.436,3.827-5.154,4.244"/>
			<pattern  id="SVGID_1_" xlink:href="#New_Pattern_Swatch_1" patternTransform="matrix(0.735 0 0 0.735 -1793.8792 -1263.6907)">
			</pattern>
			<path style="fill:url(#SVGID_1_);" d="M90.688,38.091c10.196,1.766,3.867,10.307,2.698,16.08
				c-0.664,3.277,1.136,4.437,3.157,6.741c2.185,2.924-3.146,4.711-5.17,5.032c2.806-1.266,6.77-2.653,3.198-5.679
				c-3.052-2.585-2.153-6.207-0.729-9.471C96.309,45.137,98.05,40.507,90.688,38.091z"/>
		</g>
		<g>
			<path style="fill:#EC1C24;" d="M41.996,68.124c-3.921,3.483-7.039,8.761-11.548,11.4c-5.542,3.244-9.896-5.592-11.707-9.407
				c-4.887-10.293-7.448-21.93-10.157-32.944c-0.724-2.941-1.43-5.888-2.09-8.844c-0.307-1.374,8.262-4.718,9.594-4.553
				c7.927,0.981,16.242,0.448,24.221,0.474c-3.307,2.863-6.615,5.726-9.922,8.589"/>
			<pattern  id="SVGID_2_" xlink:href="#New_Pattern_Swatch_1" patternTransform="matrix(0.735 0 0 0.735 -1793.8792 -1263.6907)">
			</pattern>
			<path style="fill:url(#SVGID_2_);" d="M42.024,68.155c-5.284,4.798-12.526,17.621-19.544,8.532
				c-7.361-9.533-9.905-22.964-12.934-34.322c-1.214-4.648-2.378-9.309-3.459-13.989c0.979-2.694,7.528-4.829,10.213-5.014
				c8.134,0.869,16.522,0.503,24.706,0.642c-3.524,2.965-7.054,5.921-10.592,8.868c2.75-3.085,6.546-5.985,9.725-8.817
				c0.056,0.152,0.113,0.304,0.169,0.456c-6.809,0.073-13.634,0.111-20.441-0.103c-5.477-0.172-8.434,0.965-13.147,4.213
				c0.054-0.14,0.108-0.28,0.162-0.42c3.223,14.632,6.017,31.415,13.514,44.595c3.364,5.914,7.658,9.944,13.165,3.86
				C36.359,73.832,38.909,70.444,42.024,68.155z"/>
		</g>
		<g>
			<path style="fill:#F4A0C4;" d="M67.492,24.949c0,0,1.232-9.555,12.591-14.375c0,0,6.269,13.803-0.603,17.146"/>
			
				<pattern  id="SVGID_3_" xlink:href="#New_Pattern_Swatch_1" patternTransform="matrix(0.6426 0 0 0.6426 -2669.8958 -1589.0923)">
			</pattern>
			<path style="fill:url(#SVGID_3_);" d="M79.663,28.096l-0.366-0.752c5.816-2.829,1.49-14.016,0.568-16.221
				c-10.66,4.723-11.947,13.787-11.959,13.879l-0.829-0.107c0.013-0.098,1.395-9.849,12.842-14.707l0.375-0.159l0.169,0.371
				c0.065,0.143,1.597,3.542,2.306,7.417C83.734,23.084,82.659,26.638,79.663,28.096z"/>
		</g>
		<g>
			<path style="fill:#F4A0C4;" d="M44.726,20.775c12.283-3.709,27.626-3.157,37.689,5.566c14.004,12.138,16.361,36.528,2.421,49.636
				c-7.538,7.088-20.098,10.497-30.262,9.953c-10.293-0.551-18.212-6.202-23.888-14.557c-6.663-9.807-8.027-21.175-4.783-32.475
				c1.347-4.692,3.044-11.541,7.212-14.707"/>
			<pattern  id="SVGID_4_" xlink:href="#New_Pattern_Swatch_1" patternTransform="matrix(0.735 0 0 0.735 -1793.8792 -1263.6907)">
			</pattern>
			<path style="fill:url(#SVGID_4_);" d="M44.701,20.696c15.473-4.761,33.938-2.304,43.594,11.786
				c11.338,16.479,7.379,41.264-11.868,49.601c-18.207,7.887-37.166,5.674-47.767-12.406c-5.096-8.629-6.464-18.755-3.887-28.426
				c1.416-5.472,3.507-13.615,8.304-17.134c-9.08,11.618-11.188,30.011-3.951,43.174c4.174,7.591,10.529,14.348,19.064,16.758
				c9.78,2.762,20.272,0.117,29.302-3.912c17.863-8.09,20.183-32.187,10.148-47.212c-5.223-7.816-13.242-12.425-22.499-13.661
				C58.006,18.31,51.37,20.407,44.701,20.696z"/>
		</g>
		<pattern  id="SVGID_5_" xlink:href="#New_Pattern_Swatch_1" patternTransform="matrix(0.735 0 0 0.735 -1793.8792 -1263.6907)">
		</pattern>
		<path style="fill:#400000;stroke:url(#SVGID_5_);stroke-miterlimit:10;" d="M30.499,33.182c0.482-2.732,7.516-6.946,9.81-8.931
			c-5.934-0.019-11.869-0.06-17.802-0.194c-2.324-0.053-4.989-0.587-7.294-0.334c-3.084,0.339-6.253,2.835-8.728,4.566
			c3.957,1.319,7.913,2.638,11.87,3.956c2.155,0.718,4.311,1.437,6.466,2.155C27.025,35.134,28.259,34.133,30.499,33.182z"/>
		<g>
			<path style="fill:#EB8BB4;" d="M76.762,78.971c0,0-4.356,9.847-7.963,12.255c-3.608,2.409-5.249-1.353-5.448-8.319"/>
			<path style="fill:#F4A0C4;" d="M68.034,86.343c1.987-0.527,3.666-0.277,4.492,0.529c-1.128,1.652-2.324,3.088-3.45,3.84
				c-2.453,1.637-4.05,0.596-4.941-2.299C65.143,87.509,66.528,86.742,68.034,86.343z"/>
		</g>
		<g>
			<path style="fill:#F0BFD8;" d="M62.609,22.118c-0.282,0.607,0.006,1.307,0.645,1.568c0.639,0.26,1.386-0.02,1.669-0.626
				c0.283-0.605-0.006-1.308-0.647-1.567C63.64,21.232,62.891,21.512,62.609,22.118z"/>
			<path style="fill:#F0BFD8;" d="M58.055,21.053c0,0,2.483-0.717,3.139,0.7c0,0,0.596,1.196-1.216,1.525
				c0,0-1.069,0.118-2.758,0.45c0,0-0.626,0.041-1.41,0.451c0,0-0.694,0.407-1.298-0.359c0,0-0.57-0.779,0.76-1.627
				C55.272,22.193,56.237,21.49,58.055,21.053z"/>
		</g>
		<g>
			<path style="fill:#6EBD44;" d="M22.874,21.913c0.558-8.886,4.507-14.185,10.869-20.017c1.262-1.157,8.15,6.212,9.619,7.497
				c-4.572,3.796-10.043,8.729-11.846,14.564"/>
			<path style="fill:#569A37;" d="M22.811,21.909c0.294-7.799,3.038-13.191,8.553-18.387c1.379-1.299,2.228-3.259,3.773-1.946
				c3.069,2.608,6.169,5.182,9.209,7.823c-5.051,4.213-9.684,8.954-12.89,14.538c1.78-6.01,6.709-11.188,11.503-15.042
				c-0.006,0.326-0.012,0.651-0.018,0.977c-3.021-2.671-5.989-5.406-8.985-8.105c0.203-0.002,0.405-0.005,0.608-0.007
				c-2.463,2.197-5.857,4.441-7.577,7.327C24.393,13.019,23.841,17.601,22.811,21.909z"/>
		</g>
		<g>
			<path style="fill:#6EBD44;" d="M39.035,22.823c2.565-4.919,6.126-11.147,11.285-13.673c3.888-1.904,9.128,3.278,12.389,5.25
				c-8.383,0.898-11.322,6.435-14.569,13.431"/>
			<path style="fill:#569A37;" d="M38.98,22.795c2.127-4.264,7.649-15.477,14.041-14.737c1.633,0.189,4.094,2.388,5.493,3.204
				c2.015,1.176,4.031,2.352,6.046,3.527c-4.088,0.382-8.54,1.51-11.438,4.621c-2.342,2.287-3.078,6.05-5.037,8.395
				c2.701-7.424,5.713-13.321,14.579-13.999c-0.087,0.368-0.175,0.737-0.262,1.105c-2.695-1.688-7.98-4.147-9.48-6.012
				C46.215,9.062,42.141,18.493,38.98,22.795z"/>
		</g>
		<path style="fill:#EB8BB4;" d="M81.684,74.699c-18.021,7.91-32.438,5.932-41.448-3.296c-9.011-9.228-13.967-21.314-10.137-35.376
			c1.374-5.044,2.746-8.528,3.943-10.928l-0.564,0.162c0,0-3.83,1.978-7.659,16.04c-3.83,14.062,1.126,26.148,10.137,35.376
			c9.01,9.228,23.428,11.206,41.449,3.296c5.132-2.253,9.148-5.915,11.937-10.38C87.163,71.676,84.606,73.417,81.684,74.699z"/>
		
			<pattern  id="SVGID_6_" xlink:href="#New_Pattern_Swatch_1" patternTransform="matrix(-0.8158 0.1652 0.289 1.4267 -12576.6191 3107.5417)">
		</pattern>
		<ellipse style="fill:url(#SVGID_6_);" cx="66.124" cy="30.564" rx="1.138" ry="1.878"/>
		
			<pattern  id="SVGID_7_" xlink:href="#New_Pattern_Swatch_1" patternTransform="matrix(-0.8158 0.1652 0.289 1.4267 -12576.6191 3107.5417)">
		</pattern>
		<ellipse style="fill:url(#SVGID_7_);" cx="69.766" cy="30.108" rx="1.138" ry="1.878"/>
		<path style="fill:#BC5588;" d="M62.855,43.31c0.822,6.448,7.519,10.954,14.96,10.066c7.442-0.89,12.808-6.837,11.987-13.285
			c-0.821-6.449-7.519-10.954-14.96-10.065C67.4,30.914,62.035,36.862,62.855,43.31z"/>
		<path style="fill:#ED659F;" d="M78.505,50.848c-7.441,0.889-14.139-3.618-14.961-10.066c-0.118-0.937-0.105-1.862,0.025-2.764
			c1.698-4.138,5.954-7.357,11.273-7.991c7.441-0.889,14.138,3.616,14.96,10.065c0.119,0.936,0.103,1.862-0.025,2.763
			C88.08,46.994,83.823,50.212,78.505,50.848z"/>
		<path style="fill:#8A3D46;" d="M70.471,32.934c-2.645,1.45-4.507,4.307-4.161,6.381c0.347,2.076,2.774,2.582,5.42,1.132
			c2.646-1.449,4.508-4.308,4.16-6.381C75.544,31.99,73.117,31.484,70.471,32.934z"/>
		<g>
			<path style="fill:#6EBD44;" d="M35.393,26.693c-2.549-4.461-5.829-8.36-9.106-12.292c4.468-1,8.935-2,13.403-3.001
				c2.037-0.456,1.829-0.593,2.402,1.497c1.225,4.465,2.256,9.126,2.317,13.773"/>
			<path style="fill:#569A37;" d="M35.339,26.724c-2.715-4.572-6.274-8.53-9.729-12.542c3.904-0.94,7.809-1.879,11.711-2.83
				c5.031-1.225,4.714-1.941,5.885,3.336c0.873,3.982,1.432,7.909,1.266,11.981c-1.329-4.911-2.09-10.404-3.543-15.491
				c0.25,0.144,0.5,0.288,0.75,0.432c-5.092,1.098-10.209,2.096-15.311,3.152c0.068-0.2,0.136-0.4,0.204-0.599
				C29.649,17.98,33.585,22.273,35.339,26.724z"/>
		</g>
		<path style="fill:#8A3D46;" d="M79.748,37.399c2.089,1.613,4.677,2.101,5.782,1.089c1.104-1.011,0.304-3.14-1.785-4.754
			c-2.088-1.613-4.678-2.1-5.782-1.088C76.859,33.658,77.658,35.785,79.748,37.399z"/>
		<path style="fill:none;stroke:#00B5E8;stroke-miterlimit:10;" d="M48.841,33.214c0,0-2.59-7.555-8.532-8.963
			c-5.94-1.41-11.205,0.346-11.205,0.346s-0.223,9.489,5.861,12.401"/>
		<g>
			<path style="fill:#F4A0C4;" d="M90.093,50.823c4.573-3.894,12.928,2.248,8.063,7.073C93.552,62.461,85.082,56.247,90.093,50.823z
				"/>
			<pattern  id="SVGID_8_" xlink:href="#New_Pattern_Swatch_1" patternTransform="matrix(0.735 0 0 0.735 -1793.8792 -1263.6907)">
			</pattern>
			<path style="fill:url(#SVGID_8_);" d="M90.067,50.79c4.543-3.056,11.992,0.661,9.064,6.317
				C95.552,63.809,84.326,57.277,90.067,50.79z M90.121,50.854c-4.77,4.472,3.01,10.751,7.553,7.022
				C102.919,53.607,94.819,47.173,90.121,50.854z"/>
		</g>
		<g>
			<path style="fill:#EB8BB4;" d="M65.152,80.793c0,0-4.356,9.847-7.963,12.255c-3.608,2.408-5.249-1.354-5.448-8.319"/>
			<path style="fill:#F4A0C4;" d="M56.425,88.164c1.987-0.527,3.666-0.277,4.492,0.529c-1.128,1.652-2.324,3.087-3.45,3.84
				c-2.452,1.638-4.05,0.596-4.941-2.298C53.534,89.33,54.919,88.563,56.425,88.164z"/>
			<g>
				
					<pattern  id="SVGID_9_" xlink:href="#New_Pattern_Swatch_1" patternTransform="matrix(0.8412 0.4334 -0.7522 0.8001 -4148.0381 2159.1204)">
				</pattern>
				<path style="fill:url(#SVGID_9_);" d="M51.841,84.996c0.321,1.621,0.572,3.26,0.99,4.856c0.257,0.981,0.669,1.956,1.195,2.824
					c0.596,0.984,1.496,1.225,2.505,0.689c0.808-0.428,1.637-0.976,2.197-1.677c1.284-1.609,2.367-3.376,3.598-5.03
					c0.25-0.336,0.245-0.975,0.502-1.194c-1.911,3.294-2.845,7.196-7.177,8.958c-0.267,0-0.535,0-0.802,0
					c-1.587-0.636-2.198-1.985-2.554-3.513c-0.163-0.698-0.303-1.401-0.454-2.102C51.841,87.536,51.841,86.266,51.841,84.996z"/>
			</g>
		</g>
		<g>
			<path style="fill:#EC1C24;" d="M21.964,41.718c5.631,0.131,11.63,0.719,16.894,2.819c3.979,1.587,6.244,4.897,9.037,7.99
				c0.318,0.352,2.736,2.364,2.752,2.856c-0.01-0.307,0.973-1.409,0.571-2.694c-0.642-2.053-1.676-3.992-2.884-5.765
				C43.433,39.73,35.37,35.582,26.971,33.978"/>
			<pattern  id="SVGID_10_" xlink:href="#New_Pattern_Swatch_1" patternTransform="matrix(0.735 0 0 0.735 -1793.8792 -1263.6907)">
			</pattern>
			<path style="fill:url(#SVGID_10_);" d="M21.965,41.676c8.413,0.072,17.378,0.905,23.285,7.362
				c1.838,2.009,3.626,4.09,5.597,5.971c-0.364-0.192-0.695,0.17-0.602,0.533c3.526-2.462-3.745-10.596-5.812-12.696
				c-4.985-4.785-11.093-7.102-17.454-8.91c7,1.385,13.629,4.009,18.725,9.206c2.091,2.142,3.873,4.629,5.116,7.357
				c0.353,0.776,2.342,6.46-0.368,5.265c0.199-0.185,0.397-0.37,0.596-0.555c0.352,1.34-5.019-4.224-5.604-4.899
				C39.246,43.161,30.843,42.617,21.965,41.676z"/>
		</g>
		<g>
			<path style="fill:#EC1C24;" d="M24.696,64.254c4.217,0.858,8.693,1.103,12.891,0c1.105-0.29,8.853-4.916,9.115-4.706
				c2.368,1.905-5.891,9.142-7.151,9.907c-3.738,2.267-8.078,3.395-12.351,4.132"/>
			<pattern  id="SVGID_11_" xlink:href="#New_Pattern_Swatch_1" patternTransform="matrix(0.735 0 0 0.735 -1793.8792 -1263.6907)">
			</pattern>
			<path style="fill:url(#SVGID_11_);" d="M24.703,64.213c4.978,0.885,10.5,1.122,15.214-1.015c0.874-0.376,8.024-5.883,7.075-2.661
				c0.332,3.008-4.129,7.11-6.033,8.493c-3.976,2.841-8.975,4.017-13.752,4.598c5.225-1.854,10.866-2.789,15.161-6.858
				c0.661-0.626,5.004-5.47,4.106-6.997c0.35,1.025-7.283,4.264-8.401,4.568C33.924,65.457,28.7,65.521,24.703,64.213z"/>
		</g>
		<g>
			<path style="fill:#F4A0C4;" d="M43.36,48.546c1.756,2.372,3.949,4.648,6.57,6.052c2.45,1.312,8.984-0.918,8.744,3.005
				c-0.635,10.418-14.51,5.425-18.957,1.186"/>
			<pattern  id="SVGID_12_" xlink:href="#New_Pattern_Swatch_1" patternTransform="matrix(0.735 0 0 0.735 -1793.8792 -1263.6907)">
			</pattern>
			<path style="fill:url(#SVGID_12_);" d="M43.394,48.522c2.651,3.466,7.089,7.934,11.887,6.567
				c4.889-1.393,3.862,4.594,1.583,6.893c-5.111,5.154-13.103,1.214-17.175-3.162c4.359,2.798,10.329,6.959,15.661,3.421
				c2.367-1.578,4.924-7.922,0.068-6.663C50.664,56.81,45.494,52.319,43.394,48.522z"/>
		</g>
		<g>
			<path style="fill:#6EBD44;" d="M16.5,33.522c-3.159-7.121-8.488-13.878-16.162-16.39c2.855-1.005,5.71-2.011,8.566-3.016
				c2.063-0.726,6.04-1.293,7.678-2.776c1.642-1.487,6.748,13.524,6.748,16.947"/>
			<path style="fill:#569A37;" d="M16.442,33.547c-3.234-7.023-8.617-13.408-16.133-15.993c-1.266-0.334,1.776-1.513,1.705-1.486
				c2.031-0.745,4.062-1.49,6.092-2.235c2.727-1,5.449-2.011,8.178-3.006c-0.122,0.108-0.244,0.215-0.366,0.323
				c1.525-2.872,4.511,4.367,4.955,5.481c1.57,3.933,2.838,7.439,2.519,11.656c-0.749-2.915-1.179-5.627-2.494-8.685
				c-1.163-2.704-2.878-5.149-4.082-7.712c0.109,0.043,0.221-0.07,0.267-0.156c-4.432,2.901-11.589,4.105-16.605,5.798
				c-0.047-0.274-0.093-0.547-0.14-0.821c2.195,0.122,4.893,2.447,6.643,3.702C11.059,23.184,15.32,28.891,16.442,33.547z"/>
		</g>
		<g>
			<path style="fill:#6EBD44;" d="M26.515,23.962c-4.599-0.125-9.354,1.339-13.141,3.923C8.986,30.881,7.073,36,3.069,39.213
				c4.477,2.656,8.954,5.311,13.43,7.967c0.968-6.109,10.529-11,15.024-14.569"/>
			<path style="fill:#569A37;" d="M26.512,24.024c-6.786-0.14-13.214,3.11-17.472,8.27c-3.082,4.042-4.109,9.491-8.143,5.198
				c5.308,3.048,10.616,6.097,15.924,9.146c-0.313,0.222-0.626,0.444-0.939,0.665c-0.852-5.086,12.13-12.393,15.603-14.741
				c-2.207,2.934-15.078,10.297-14.367,14.494c-3.021,1.457-11.213-5.626-14.258-7.49c0.153-0.227,0.305-0.453,0.458-0.68
				c-0.037-0.043-0.279-0.128-0.358-0.063c0.921,0.319,6.661-8.234,8.218-9.547C15.039,25.809,21.547,23.196,26.512,24.024z"/>
		</g>
		<g>
			<path style="fill:#6EBD44;" d="M28.564,36.026c-5.387-4.325-10.775-8.65-16.162-12.975c5.748-3.418,11.642-3.451,17.994-1.863
				c2.221,0.555,2.447,6.633,2.948,8.692"/>
			<path style="fill:#569A37;" d="M28.525,36.075c-5.64-4.341-11.27-8.696-16.892-13.06c4.137-2.716,8.878-4.093,13.771-3.426
				c1.521,0.207,4.565,0.259,5.766,1.248c1.632,0.466,2.097,7.519,2.113,9.058c-0.94-2.735-1.738-5.524-2.508-8.311
				c0.094,0.117,0.187,0.235,0.281,0.352c-6.483-1.439-12.334-2.129-18.418,1.49c0.014-0.24,0.028-0.481,0.041-0.721
				C17.498,26.704,24.843,31.24,28.525,36.075z"/>
		</g>
		<g>
			<path style="fill:#F4A0C4;" d="M50.36,33.935c1.281-5.733,0.488-11.467-6.119-12.469c-1.558-0.236-18.589-1.786-18.656-0.882
				c-0.666,9.051,1.521,24.463,14.135,21.134"/>
			
				<pattern  id="SVGID_13_" xlink:href="#New_Pattern_Swatch_1" patternTransform="matrix(0.6426 0 0 0.6426 -2669.8958 -1589.0923)">
			</pattern>
			<path style="fill:url(#SVGID_13_);" d="M50.299,33.921c0.903-4.394,0.906-10.911-4.603-11.889
				c-6.57-1.166-13.445-1.141-20.097-1.036c0.187-0.172,0.374-0.344,0.561-0.515c-0.65,9.969,1.355,22.505,13.575,21.298
				c-6.676,2.067-11.514-1.557-13.53-7.868c-1.196-3.692-1.436-7.725-1.292-11.579c0.109-2.818-0.243-2.495,2.438-2.429
				C35.999,20.117,56.719,18.963,50.299,33.921z"/>
		</g>
		<path style="fill:#BE6588;" d="M30.937,25.352c1.712-0.205,2.991-0.257,4.372-0.25c-0.724,1.121-1.271,3.679-0.434,5.589
			c1.185,2.702,3.727,4.22,5.906,5.815c-1.245,1.189-2.266,1.724-2.266,1.724C31.416,37.295,30.937,25.352,30.937,25.352z"/>
		<path style="fill:#E280AA;" d="M45.171,27.226c0,0-4.094-3.305-14.452-2.058c0,0,0.696,12.127,7.796,13.062
			C38.515,38.23,44.443,35.136,45.171,27.226z"/>
		<g>
			
				<pattern  id="SVGID_14_" xlink:href="#New_Pattern_Swatch_1" patternTransform="matrix(0.6426 0 0 0.6426 -2669.8958 -1589.0923)">
			</pattern>
			<path style="fill:url(#SVGID_14_);" d="M44.343,26.798c-4.134-2.02-9.131-1.893-13.58-1.304c0.094-0.113,0.187-0.227,0.281-0.34
				c0.4,4.703,2.101,11.454,7.537,12.514C38.702,37.125,48.216,28.866,44.343,26.798C44.065,26.662,44.605,26.938,44.343,26.798z
				 M45.227,27.202c-0.196,6.052-6.056,16.073-11.703,8.388c-1.737-2.364-2.508-5.493-2.916-8.343
				c-0.391-2.689-0.153-2.481,2.394-2.575C37.031,24.522,41.807,24.778,45.227,27.202z"/>
		</g>
		<g>
			<path style="fill:#FFFFFF;" d="M13,33.582c0.242,0.126,0.332,0.39,0.272,0.789c-0.035,0.303-0.128,0.599-0.279,0.889
				c-0.03,0.058-0.084,0.144-0.162,0.257c-0.078,0.113-0.132,0.199-0.162,0.257c-0.03,0.058-0.051,0.109-0.061,0.153
				c0.372,0.255,0.941,0.615,1.711,1.077c0.333-0.355,0.664-0.718,0.993-1.089c0.451-0.392,0.88-0.482,1.287-0.27
				c0.445,0.232,0.663,0.654,0.652,1.264c-0.001,0.024-0.078,0.526-0.232,1.505l0.087,0.045c0.358,0.187,0.676,0.335,0.952,0.442
				c0.029,0.015,0.106,0.04,0.229,0.074c0.124,0.034,0.21,0.063,0.258,0.089c0.311,0.162,0.511,0.298,0.601,0.406
				c0.129,0.178,0.122,0.391-0.018,0.637l-0.19,0.363c-0.808-0.127-1.605-0.383-2.389-0.767c-0.02,0.038-0.045,0.099-0.076,0.181
				c-0.036,0.068-0.063,0.122-0.084,0.16c-0.233,0.446-0.617,0.947-1.155,1.504c-0.671,0.672-1.171,0.922-1.5,0.75
				c-0.193-0.101-0.3-0.285-0.32-0.555c-0.016-0.23,0.032-0.451,0.144-0.664c0.106-0.204,0.287-0.361,0.543-0.474
				c0.418-0.188,0.641-0.294,0.665-0.318c0.232-0.162,0.505-0.531,0.818-1.107c-0.146-0.027-0.47-0.172-0.974-0.435
				c-0.502,0.465-0.883,0.771-1.144,0.917c-0.498,0.27-0.96,0.293-1.387,0.071c-0.483-0.253-0.784-0.693-0.9-1.32
				c-0.053-0.275-0.081-0.837-0.08-1.687l-1.714-0.894c-0.223-0.116-0.351-0.313-0.385-0.589c-0.034-0.277,0.009-0.531,0.131-0.764
				c0.06-0.116,0.167-0.214,0.32-0.294c0.128-0.056,0.258-0.118,0.391-0.184l0.305,0.159c0.125,0.066,0.219,0.182,0.279,0.349
				c0.038,0.094,0.375,0.319,1.014,0.677c0.134-0.447,0.23-0.723,0.286-0.83c0.121-0.233,0.304-0.439,0.546-0.621
				C12.554,33.529,12.797,33.477,13,33.582z M13.441,38.045l-1.132-0.591c0.048,0.309,0.076,0.478,0.086,0.507
				c0.05,0.162,0.159,0.286,0.323,0.372c0.116,0.061,0.238,0.051,0.367-0.03C13.213,38.222,13.332,38.136,13.441,38.045z
				 M15.953,37.306c-0.116-0.06-0.222-0.035-0.316,0.075l-0.217,0.275l0.712,0.372c0.046-0.111,0.093-0.225,0.141-0.342
				C16.321,37.569,16.215,37.442,15.953,37.306z"/>
		</g>
		<g>
			<path style="fill:#FFFFFF;" d="M15.087,18.796c-0.175,0.061-0.348-0.016-0.518-0.231c-0.134-0.158-0.238-0.342-0.312-0.552
				c-0.015-0.042-0.033-0.109-0.053-0.201c-0.02-0.091-0.038-0.157-0.052-0.2c-0.014-0.042-0.031-0.076-0.047-0.102
				c-0.3,0.066-0.743,0.182-1.33,0.35c0.022,0.33,0.048,0.664,0.08,0.999c-0.015,0.406-0.169,0.661-0.464,0.765
				c-0.323,0.113-0.634,0.025-0.932-0.263c-0.011-0.012-0.225-0.283-0.64-0.814l-0.063,0.022c-0.259,0.091-0.48,0.18-0.662,0.268
				c-0.021,0.007-0.069,0.034-0.143,0.08c-0.075,0.046-0.129,0.075-0.164,0.087c-0.225,0.079-0.385,0.115-0.481,0.11
				c-0.149-0.019-0.251-0.121-0.308-0.305l-0.092-0.263c0.438-0.343,0.935-0.62,1.491-0.831c-0.01-0.028-0.028-0.069-0.055-0.122
				c-0.017-0.049-0.031-0.088-0.041-0.116c-0.113-0.322-0.184-0.746-0.211-1.272c-0.022-0.645,0.086-1.01,0.324-1.093
				c0.14-0.049,0.282-0.017,0.425,0.099c0.121,0.098,0.21,0.225,0.263,0.379c0.051,0.147,0.046,0.311-0.017,0.49
				c-0.101,0.295-0.152,0.455-0.151,0.478c-0.027,0.19,0.029,0.498,0.17,0.92c0.081-0.06,0.304-0.154,0.668-0.283
				c0.002-0.465,0.027-0.796,0.076-0.995c0.098-0.372,0.3-0.613,0.608-0.722c0.35-0.123,0.709-0.068,1.074,0.166
				c0.162,0.101,0.453,0.348,0.876,0.744l1.241-0.437c0.161-0.056,0.318-0.029,0.471,0.083c0.153,0.111,0.26,0.251,0.319,0.42
				c0.03,0.083,0.029,0.182-0.003,0.296c-0.031,0.09-0.061,0.183-0.09,0.28l-0.221,0.078c-0.091,0.032-0.193,0.024-0.304-0.023
				c-0.064-0.025-0.333,0.038-0.808,0.189c0.16,0.274,0.253,0.45,0.28,0.527c0.059,0.168,0.077,0.355,0.054,0.56
				C15.32,18.599,15.234,18.745,15.087,18.796z M12.664,16.943l0.82-0.288c-0.176-0.119-0.273-0.184-0.292-0.192
				c-0.105-0.05-0.216-0.054-0.335-0.013c-0.085,0.03-0.136,0.095-0.156,0.197C12.682,16.748,12.67,16.846,12.664,16.943z
				 M11.865,18.535c0.084-0.03,0.12-0.094,0.11-0.192l-0.036-0.236l-0.515,0.181c0.034,0.074,0.068,0.151,0.104,0.229
				C11.564,18.595,11.676,18.601,11.865,18.535z"/>
		</g>
		<g>
			<path style="fill:#FFFFFF;" d="M34.602,10.993c-0.174-0.065-0.257-0.235-0.25-0.509c-0.001-0.207,0.036-0.415,0.114-0.624
				c0.016-0.042,0.045-0.104,0.088-0.187c0.043-0.083,0.072-0.145,0.088-0.187c0.016-0.041,0.025-0.078,0.029-0.108
				c-0.273-0.141-0.687-0.336-1.245-0.584c-0.195,0.268-0.388,0.54-0.579,0.819c-0.272,0.302-0.553,0.399-0.846,0.29
				c-0.32-0.12-0.503-0.386-0.547-0.799c-0.001-0.016,0.009-0.362,0.031-1.035l-0.063-0.023c-0.257-0.096-0.484-0.169-0.68-0.218
				c-0.021-0.008-0.075-0.018-0.161-0.031c-0.087-0.013-0.147-0.025-0.182-0.038c-0.223-0.083-0.369-0.158-0.439-0.223
				c-0.102-0.109-0.115-0.253-0.041-0.432l0.098-0.261c0.556,0.018,1.115,0.123,1.677,0.317c0.01-0.028,0.022-0.07,0.036-0.129
				c0.018-0.049,0.032-0.087,0.043-0.115c0.12-0.32,0.336-0.691,0.653-1.112c0.397-0.509,0.713-0.72,0.949-0.632
				c0.14,0.052,0.227,0.168,0.263,0.348c0.03,0.153,0.016,0.307-0.041,0.46c-0.054,0.146-0.164,0.268-0.327,0.366
				c-0.267,0.162-0.408,0.252-0.422,0.271c-0.143,0.128-0.297,0.401-0.46,0.816c0.101,0.006,0.333,0.077,0.694,0.212
				c0.3-0.356,0.531-0.594,0.696-0.715c0.314-0.223,0.623-0.278,0.93-0.164c0.347,0.13,0.588,0.402,0.718,0.816
				c0.06,0.181,0.125,0.558,0.196,1.132l1.232,0.459c0.16,0.06,0.263,0.182,0.309,0.366c0.046,0.184,0.039,0.36-0.024,0.527
				c-0.031,0.083-0.095,0.158-0.191,0.225c-0.082,0.049-0.165,0.101-0.249,0.157l-0.219-0.082c-0.091-0.034-0.163-0.105-0.218-0.213
				c-0.033-0.061-0.28-0.185-0.741-0.372c-0.053,0.313-0.094,0.508-0.123,0.584c-0.063,0.167-0.168,0.322-0.317,0.465
				C34.907,10.992,34.748,11.047,34.602,10.993z M33.929,8.018l0.814,0.304c-0.058-0.204-0.092-0.316-0.101-0.335
				c-0.048-0.105-0.131-0.18-0.249-0.224c-0.084-0.032-0.166-0.015-0.246,0.051C34.068,7.879,33.996,7.948,33.929,8.018z
				 M32.296,8.728c0.083,0.031,0.152,0.005,0.207-0.077l0.123-0.204l-0.511-0.191c-0.022,0.079-0.044,0.16-0.067,0.243
				C32.026,8.581,32.108,8.658,32.296,8.728z"/>
		</g>
		<g>
			<path style="fill:#FFFFFF;" d="M39.337,17.325c-0.148,0.113-0.336,0.092-0.564-0.059c-0.177-0.109-0.332-0.252-0.468-0.429
				c-0.027-0.035-0.064-0.093-0.112-0.174c-0.047-0.08-0.085-0.138-0.111-0.174c-0.027-0.036-0.053-0.063-0.076-0.082
				c-0.265,0.156-0.651,0.403-1.157,0.744c0.123,0.307,0.251,0.616,0.385,0.925c0.111,0.391,0.044,0.681-0.204,0.871
				c-0.272,0.207-0.595,0.22-0.967,0.038c-0.015-0.008-0.302-0.2-0.86-0.577l-0.053,0.041c-0.218,0.167-0.4,0.32-0.546,0.46
				c-0.018,0.013-0.055,0.054-0.112,0.12c-0.056,0.066-0.1,0.111-0.129,0.134c-0.189,0.144-0.33,0.229-0.423,0.253
				c-0.147,0.028-0.276-0.037-0.388-0.195L33.382,19c0.311-0.461,0.697-0.879,1.161-1.252c-0.018-0.023-0.048-0.056-0.09-0.1
				c-0.031-0.041-0.057-0.074-0.075-0.097c-0.207-0.271-0.406-0.653-0.594-1.145c-0.22-0.607-0.23-0.987-0.03-1.14
				c0.118-0.09,0.263-0.103,0.435-0.038c0.146,0.056,0.269,0.149,0.367,0.279c0.095,0.124,0.14,0.282,0.136,0.472
				c-0.005,0.312-0.003,0.48,0.004,0.501c0.033,0.189,0.182,0.464,0.446,0.823c0.058-0.082,0.242-0.241,0.548-0.476
				c-0.142-0.443-0.22-0.766-0.236-0.969c-0.022-0.385,0.096-0.676,0.356-0.875c0.295-0.225,0.653-0.284,1.073-0.174
				c0.184,0.046,0.538,0.191,1.063,0.437l1.045-0.799c0.135-0.104,0.294-0.126,0.473-0.067c0.18,0.059,0.325,0.158,0.434,0.3
				c0.053,0.07,0.084,0.165,0.089,0.282c-0.002,0.095-0.002,0.193,0.001,0.294l-0.186,0.142c-0.077,0.059-0.175,0.083-0.296,0.071
				c-0.07-0.003-0.306,0.14-0.71,0.431c0.237,0.211,0.379,0.349,0.429,0.414c0.108,0.142,0.184,0.314,0.225,0.516
				C39.498,17.065,39.46,17.23,39.337,17.325z M36.459,16.312l0.691-0.528c-0.204-0.059-0.317-0.091-0.337-0.093
				c-0.115-0.016-0.222,0.015-0.322,0.091c-0.071,0.054-0.101,0.133-0.087,0.235C36.416,16.12,36.435,16.218,36.459,16.312z
				 M36.192,18.072c0.07-0.054,0.085-0.127,0.045-0.217l-0.107-0.213l-0.434,0.331c0.055,0.06,0.111,0.122,0.17,0.185
				C35.924,18.223,36.033,18.194,36.192,18.072z"/>
		</g>
		<g>
			<path style="fill:#FFFFFF;" d="M54.009,15.094c-0.148,0.113-0.336,0.092-0.564-0.059c-0.177-0.109-0.333-0.252-0.468-0.428
				c-0.027-0.035-0.064-0.093-0.112-0.174c-0.047-0.08-0.085-0.138-0.111-0.174c-0.027-0.036-0.053-0.063-0.076-0.082
				c-0.265,0.156-0.651,0.404-1.157,0.744c0.123,0.307,0.251,0.616,0.385,0.925c0.112,0.391,0.044,0.681-0.204,0.871
				c-0.272,0.208-0.596,0.221-0.968,0.038c-0.015-0.008-0.302-0.2-0.86-0.577l-0.053,0.04c-0.219,0.167-0.4,0.32-0.546,0.46
				c-0.018,0.013-0.055,0.054-0.112,0.12c-0.057,0.067-0.1,0.111-0.129,0.134c-0.189,0.144-0.33,0.229-0.423,0.253
				c-0.147,0.028-0.276-0.037-0.388-0.195l-0.168-0.222c0.311-0.461,0.697-0.879,1.161-1.252c-0.018-0.023-0.048-0.056-0.09-0.099
				c-0.031-0.042-0.057-0.074-0.075-0.098c-0.207-0.272-0.406-0.653-0.594-1.145c-0.22-0.607-0.23-0.987-0.03-1.14
				c0.118-0.091,0.263-0.103,0.435-0.038c0.146,0.056,0.269,0.149,0.367,0.279c0.095,0.123,0.14,0.281,0.136,0.471
				c-0.005,0.312-0.004,0.48,0.004,0.501c0.033,0.189,0.182,0.464,0.447,0.823c0.058-0.082,0.242-0.241,0.548-0.476
				c-0.142-0.443-0.22-0.765-0.236-0.969c-0.022-0.385,0.096-0.676,0.356-0.875c0.295-0.225,0.653-0.284,1.073-0.174
				c0.184,0.046,0.538,0.191,1.063,0.437l1.044-0.799c0.136-0.103,0.295-0.126,0.474-0.067c0.18,0.058,0.326,0.158,0.434,0.3
				c0.053,0.07,0.084,0.165,0.089,0.282c-0.002,0.095-0.002,0.193,0.001,0.294l-0.185,0.142c-0.077,0.059-0.176,0.083-0.295,0.071
				c-0.07-0.004-0.306,0.14-0.71,0.43c0.237,0.211,0.379,0.349,0.429,0.414c0.108,0.142,0.184,0.314,0.225,0.516
				C54.17,14.835,54.133,15,54.009,15.094z M51.132,14.081l0.69-0.527c-0.204-0.059-0.317-0.091-0.337-0.093
				c-0.115-0.015-0.222,0.015-0.322,0.091c-0.071,0.054-0.1,0.133-0.087,0.235C51.088,13.89,51.108,13.988,51.132,14.081z
				 M50.865,15.842c0.07-0.054,0.085-0.127,0.045-0.217l-0.107-0.213l-0.434,0.332c0.055,0.06,0.111,0.122,0.17,0.185
				C50.596,15.992,50.706,15.964,50.865,15.842z"/>
		</g>
		<g>
			<path style="fill:#FFFFFF;" d="M23.422,23.322c-0.092,0.162-0.273,0.216-0.543,0.167c-0.205-0.032-0.404-0.101-0.598-0.211
				c-0.039-0.022-0.096-0.061-0.172-0.116c-0.075-0.055-0.132-0.094-0.17-0.116C21.9,23.023,21.865,23.008,21.836,23
				c-0.182,0.247-0.44,0.627-0.772,1.138c0.233,0.234,0.472,0.468,0.717,0.7c0.256,0.316,0.308,0.609,0.154,0.881
				c-0.168,0.298-0.461,0.437-0.874,0.415c-0.017-0.001-0.356-0.065-1.018-0.193l-0.033,0.058c-0.135,0.239-0.243,0.452-0.322,0.637
				c-0.011,0.019-0.03,0.071-0.056,0.154c-0.026,0.084-0.048,0.141-0.067,0.174c-0.117,0.207-0.214,0.34-0.289,0.399
				c-0.124,0.083-0.269,0.074-0.434-0.027l-0.242-0.138c0.105-0.547,0.297-1.082,0.577-1.607c-0.026-0.014-0.066-0.033-0.121-0.056
				c-0.045-0.026-0.081-0.046-0.107-0.06c-0.297-0.168-0.63-0.441-0.996-0.82c-0.441-0.472-0.599-0.817-0.475-1.037
				c0.073-0.129,0.201-0.197,0.385-0.205c0.156-0.005,0.306,0.032,0.447,0.113c0.136,0.076,0.24,0.204,0.31,0.38
				c0.119,0.289,0.185,0.443,0.201,0.46c0.104,0.161,0.349,0.355,0.734,0.581c0.021-0.098,0.128-0.316,0.317-0.652
				c-0.304-0.351-0.503-0.618-0.597-0.799c-0.171-0.345-0.177-0.659-0.016-0.944c0.183-0.323,0.489-0.517,0.919-0.581
				c0.188-0.03,0.57-0.035,1.149-0.015l0.647-1.145c0.084-0.148,0.221-0.232,0.409-0.247c0.189-0.017,0.361,0.017,0.517,0.106
				c0.077,0.044,0.142,0.119,0.192,0.225c0.035,0.088,0.074,0.178,0.116,0.27l-0.115,0.204c-0.048,0.084-0.129,0.145-0.244,0.182
				c-0.065,0.024-0.227,0.249-0.484,0.674c0.302,0.101,0.486,0.173,0.558,0.212c0.155,0.088,0.292,0.216,0.41,0.386
				C23.467,23.02,23.498,23.186,23.422,23.322z M20.377,23.519l0.428-0.756c-0.211,0.025-0.327,0.041-0.346,0.047
				c-0.112,0.031-0.198,0.101-0.26,0.211c-0.044,0.078-0.04,0.161,0.012,0.251C20.262,23.36,20.318,23.443,20.377,23.519z
				 M20.823,25.243c0.043-0.077,0.029-0.15-0.044-0.217l-0.182-0.154l-0.268,0.475c0.074,0.034,0.151,0.069,0.229,0.104
				C20.635,25.487,20.724,25.418,20.823,25.243z"/>
		</g>
		<g>
			
				<pattern  id="SVGID_15_" xlink:href="#New_Pattern_Swatch_1" patternTransform="matrix(-0.8158 0.1652 0.289 1.4267 -12576.6191 3107.5417)">
			</pattern>
			<path style="fill:url(#SVGID_15_);" d="M55.412,47.172c0,0,0.763-6.926,4.06-2.638C59.472,44.534,56.666,45.135,55.412,47.172z"
				/>
		</g>
	</g>
	
		<pattern  id="SVGID_16_" xlink:href="#New_Pattern_Swatch_1" patternTransform="matrix(-0.8158 0.1652 0.289 1.4267 -12576.6191 3107.5417)">
	</pattern>
	<path style="fill:url(#SVGID_16_);" d="M69.785,53.211c0,0-2.898,0.833-7.013-1.123c-4.114-1.957-5.777-6.936-5.777-6.936
		l0.754-0.472c0,0,2.742,4.009,3.898,5.022C62.804,50.715,67.147,53.346,69.785,53.211z"/>
	<g>
		
			<pattern  id="SVGID_17_" xlink:href="#New_Pattern_Swatch_1" patternTransform="matrix(0.8412 0.4334 -0.7522 0.8001 -4148.0381 2159.1204)">
		</pattern>
		<path style="fill:url(#SVGID_17_);" d="M63.351,84.484c0.343,1.705,0.61,1.008,1.056,2.687c0.274,1.032,0.713,2.058,1.273,2.97
			c0.635,1.035,1.594,1.289,2.67,0.725c0.861-0.451,1.745-1.026,2.342-1.765c1.369-1.693,2.522-3.552,3.835-5.292
			c0.267-0.354,0.261-1.026,0.535-1.256c-2.037,3.465-3.032,7.57-7.649,9.424c-0.285,0-0.57,0-0.855,0
			c-1.691-0.669-2.343-2.088-2.722-3.696c-0.173-0.734-0.323-1.474-0.484-2.211C63.351,84.735,63.351,85.82,63.351,84.484z"/>
	</g>
</g>
</svg>
