<svg width="135" height="57" viewBox="0 0 135 57" fill="none" xmlns="http://www.w3.org/2000/svg">
<path fill-rule="evenodd" clip-rule="evenodd" d="M30.3651 51.6704C30.3636 51.5911 30.3629 51.5117 30.3606 51.4323C30.3421 50.7836 30.3421 50.7833 29.7108 50.6752C25.9236 50.0276 22.7336 48.2847 20.1602 45.4106C19.8169 45.0269 19.8164 45.0277 19.4527 45.4116C19.0028 45.8862 18.5313 46.3354 17.974 46.6846C16.7998 47.4192 15.7337 47.378 14.6279 46.5422C13.8372 45.9445 13.2358 45.1722 12.6754 44.3647C11.1802 42.2113 10.1521 39.8288 9.2845 37.3676C7.9158 33.4863 6.79296 29.5309 5.74707 25.5517C6.03018 25.5304 6.19837 25.7079 6.35522 25.9066C6.45337 26.5658 6.66078 27.1987 6.82995 27.84C7.67535 31.0427 8.59867 34.2221 9.67711 37.3544C10.5255 39.8193 11.5561 42.1954 13.0409 44.3508C13.5657 45.113 14.1495 45.8205 14.8863 46.387C15.1468 46.5871 15.4365 46.7361 15.7483 46.8391C16.4001 47.0538 17.0181 46.939 17.6028 46.6186C18.2847 46.2451 18.8674 45.7409 19.3959 45.173C19.6073 44.9458 19.5986 44.8945 19.3858 44.6534C18.9996 44.2154 18.6386 43.7556 18.2943 43.2847C18.1249 43.0526 17.9397 42.9878 17.662 43.0255C17.1949 43.0885 16.7305 43.1959 16.2536 43.1701C16.1924 43.149 16.1315 43.1277 16.1404 43.0436C16.2602 42.9224 16.4245 42.9119 16.5757 42.877C17.5853 42.6451 18.5984 42.4276 19.6154 42.2314C20.5656 42.0484 21.4127 41.6402 22.196 41.0913C23.7511 40.0019 25.0168 38.6215 26.1196 37.0826C26.3019 36.8279 26.2922 36.7994 26.0128 36.6332C25.962 36.603 25.9063 36.5782 25.8614 36.5402C25.6059 36.3262 25.3702 36.3934 25.1055 36.5474C23.927 37.2341 22.6764 37.7403 21.3264 37.96C20.157 38.15 18.9838 38.2361 17.7937 38.1443C16.9774 38.0816 16.1643 38.0111 15.3557 37.8866C15.22 37.8658 15.0802 37.8541 14.9655 37.7631C14.9421 37.7101 14.9692 37.6704 14.9986 37.6312C15.0755 37.4985 15.001 37.379 14.9576 37.2632C14.3579 35.6611 13.9426 34.0123 13.7332 32.3135C13.5744 31.0239 13.5354 29.7315 13.6202 28.4315C13.7026 27.1716 13.8883 25.9314 14.1697 24.7035C14.2123 24.5168 14.1887 24.3886 13.964 24.3784C13.9048 24.3757 13.8474 24.3583 13.7978 24.3226C13.7393 24.1929 13.8516 24.1998 13.9184 24.1701C14.7174 24.1259 15.511 24.2236 16.3036 24.2948C17.5202 24.4042 18.7306 24.5698 19.9279 24.8196C21.3023 25.1063 22.6451 25.4902 23.909 26.1204C24.7339 26.5316 25.4212 27.1079 26.0205 27.8105C26.655 28.5543 27.3354 29.2576 27.9823 29.991C28.42 30.4872 28.9017 30.9428 29.3263 31.4514C29.4149 31.5573 29.5111 31.659 29.6243 31.7389C29.7106 31.7999 29.8095 31.9142 29.9081 31.8549C30.0215 31.7867 29.9712 31.6394 29.953 31.5244C29.914 31.2793 29.8543 31.0393 29.7769 30.8032C29.2176 29.0962 28.3266 27.5781 27.1926 26.196C26.4304 25.2672 25.5638 24.4498 24.6264 23.7046C24.5415 23.6371 24.45 23.5754 24.4143 23.464C24.544 23.1758 24.69 23.1175 24.9337 23.277C25.2811 23.5047 25.5973 23.776 25.9063 24.052C27.7581 25.7064 29.2526 27.6262 30.1752 29.9592C30.4191 30.5752 30.6625 31.198 30.6095 31.8852C30.592 32.1121 30.7338 32.1806 30.9217 32.188C31.4043 32.2071 31.8842 32.2175 32.3575 32.0717C32.7619 31.9472 33.1711 31.844 33.6066 31.9479C34.1893 32.0866 34.5933 32.5079 34.6845 33.1086C34.8088 33.925 34.5861 34.6715 34.1612 35.3456C33.1937 36.8795 31.8085 37.6805 29.9799 37.7163C28.9823 37.7359 28.0415 37.5372 27.13 37.1597C26.9396 37.0811 26.8252 37.1057 26.7125 37.2832C26.004 38.3995 25.1684 39.4116 24.2081 40.3178C23.8416 40.6635 23.4537 40.9852 23.0527 41.2902C22.6086 41.5846 22.157 41.8654 21.6808 42.1082C21.0135 42.4487 20.3156 42.6726 19.5737 42.7636C19.2896 42.7988 19.2758 42.8284 19.461 43.0585C21.0243 45.0011 22.8051 46.6903 25.003 47.9008C25.6446 48.2542 26.3068 48.555 26.9904 48.8132C28.0871 49.2477 29.2311 49.4987 30.3863 49.71C30.5523 49.7682 30.5451 49.9193 30.5653 50.0534C30.7025 50.9733 30.8186 51.8971 31.0709 52.7949C31.1922 53.3187 31.3797 53.8152 31.684 54.2623C32.0061 54.736 32.4894 54.886 33.03 54.6899C33.6465 54.4659 34.0877 54.0141 34.5067 53.5404C34.9447 53.0449 35.3309 52.5074 35.6878 51.9497C36.2801 51.0655 36.8094 50.1437 37.3068 49.2028C37.3968 49.0327 37.4543 48.833 37.655 48.746C37.7053 48.7608 37.7275 48.7988 37.7379 48.8472C37.7475 48.9295 37.7255 49.0084 37.6829 49.0733C37.4547 49.4215 37.4686 49.7918 37.5425 50.1832C37.6409 50.7064 37.7386 51.2292 37.8802 51.7426C38.0044 52.2557 38.1874 52.7438 38.4853 53.184C38.8089 53.6616 39.2891 53.8152 39.8299 53.621C40.4479 53.399 40.8906 52.9469 41.3101 52.4727C41.7485 51.977 42.1352 51.439 42.4931 50.881C43.1755 49.8823 43.7483 48.8181 44.3225 47.7557C44.4722 47.4789 44.6177 47.2805 44.9602 47.1751C45.5508 46.9933 46.1008 46.6826 46.6421 46.3765C48.0436 45.5852 49.3043 44.6021 50.4197 43.4409C51.132 42.6996 51.7887 41.9065 52.3145 41.0142C52.369 40.9517 52.4474 40.8984 52.3971 40.7952C52.4506 40.5676 52.5966 40.387 52.7068 40.1896C53.5707 38.6388 54.1653 36.9869 54.5698 35.2608C54.6193 35.051 54.5747 34.952 54.3577 34.9046C53.8812 34.801 53.4447 34.5994 53.0408 34.3218C52.3401 33.84 52.0385 33.1532 51.9981 32.3242C51.965 31.6471 52.0873 31.0028 52.3914 30.3962C52.4442 30.2913 52.4859 30.1755 52.6028 30.1189C52.66 30.115 52.6881 30.1479 52.7017 30.1988C52.712 30.3017 52.6745 30.3945 52.6366 30.4855C52.3978 31.0551 52.4178 31.6508 52.4819 32.2438C52.5722 33.0796 53.0484 33.6649 53.7897 33.9895C54.9288 34.488 56.0911 34.5426 57.2063 33.9111C57.8611 33.5401 58.1874 32.9236 58.2608 32.1783C58.3084 31.6987 58.248 31.2243 58.0862 30.7714C57.8034 29.9778 57.2475 29.4674 56.4374 29.2447C56.0366 29.1346 55.6297 29.0634 55.2107 29.0788C55.0748 29.084 54.933 29.1026 54.807 29.0223C54.7838 28.9965 54.7779 28.9672 54.7893 28.9342C54.9409 28.832 54.9567 28.6917 54.9372 28.5181C54.6391 25.8887 53.8896 23.3965 52.677 21.0497C51.8141 19.3796 50.7527 17.8494 49.4784 16.4634C47.4833 14.2928 45.0593 12.8115 42.2938 11.8765C40.7004 11.3379 39.057 11.0244 37.3822 10.8548C36.0246 10.7171 34.666 10.7434 33.3077 10.757C32.6709 10.7635 32.0356 10.8684 31.3964 10.884C31.3365 10.7146 31.3636 10.675 31.5782 10.6147C32.826 10.517 34.0729 10.4133 35.3275 10.427C37.0276 10.4456 38.7125 10.5941 40.3737 10.9634C40.6087 11.0157 40.7133 10.9537 40.8339 10.7541C42.3278 8.2842 44.4904 6.61687 47.1048 5.49317C47.2668 5.42348 47.3028 5.48945 47.3561 5.61395C47.9953 7.09949 48.4873 8.63041 48.7613 10.2278C48.96 11.388 49.0407 12.5494 48.763 13.7105C48.6937 13.9999 48.6034 14.2829 48.4683 14.5478C48.4061 14.6698 48.4002 14.7449 48.5198 14.8476C50.8 16.8044 52.4955 19.2006 53.7525 21.9227C53.8272 22.0844 53.9318 22.1617 54.0923 22.2076C54.6561 22.3686 55.1767 22.6218 55.6475 22.9749C56.6169 23.7026 56.9676 24.6857 56.8354 25.8719C56.7311 26.8066 56.4176 27.6798 56.0724 28.5446C56.0324 28.6453 55.9935 28.7462 55.9422 28.8772C56.8038 28.9764 57.5627 29.2608 58.0875 29.9833C58.5299 30.5926 58.6781 31.2972 58.6858 32.0308C58.7008 33.4546 57.9287 34.3189 56.1168 34.9007C56.2517 35.014 56.3664 35.1092 56.4795 35.2057C57.3457 35.9453 57.3207 36.8917 56.4098 37.5789C55.8822 37.9767 55.2771 38.2157 54.645 38.3804C54.4403 38.4337 54.337 38.5272 54.2563 38.7222C52.7601 42.3418 50.3975 45.2109 46.9913 47.1709C46.1693 47.6441 45.301 48.0183 44.4285 48.3819C44.23 48.4647 44.1133 48.5848 44.0189 48.7718C43.3518 50.0993 42.6164 51.386 41.7108 52.567C41.6931 52.6235 41.6928 52.6887 41.6529 52.7339C41.0358 53.4325 40.419 54.1324 39.4383 54.3161C38.872 54.4225 38.4146 54.2298 38.0446 53.8013C37.6515 53.3459 37.4755 52.7909 37.3329 52.2207C37.2372 51.8073 37.1628 51.3902 37.1403 50.9651C37.1351 50.8671 37.1351 50.7526 37.0173 50.7211C36.8902 50.6871 36.8168 50.7798 36.762 50.8773C36.5253 51.2979 36.2952 51.7225 36.0313 52.1275C35.4949 53.0079 34.9055 53.8462 34.1462 54.5512C33.7057 54.9602 33.2236 55.29 32.6154 55.392C32.0482 55.4869 31.5905 55.2962 31.2282 54.8605C30.6938 54.2179 30.5523 53.427 30.3925 52.6384C30.3266 52.312 30.4149 51.9913 30.3651 51.6704Z" fill="#8F4A50"/>
<mask id="mask0" mask-type="alpha" maskUnits="userSpaceOnUse" x="19" y="51" width="29" height="6">
<path fill-rule="evenodd" clip-rule="evenodd" d="M47.4175 56.9672H19.8899L19.8899 51.6699H47.4175V56.9672Z" fill="white"/>
</mask>
<g mask="url(#mask0)">
<path opacity="0.2" fill-rule="evenodd" clip-rule="evenodd" d="M37.3899 52.2101C37.512 52.5751 37.6104 52.9479 37.7899 53.2924C38.2918 54.2556 39.0967 54.5197 40.0637 54.0289C40.7389 53.6859 41.2285 53.1302 41.7108 52.5667C41.7907 52.6756 41.9104 52.6733 42.0277 52.6922C43.5023 52.9298 44.9731 53.183 46.3654 53.7603C46.6503 53.8786 46.9107 54.0322 47.1489 54.2286C47.5112 54.5272 47.5075 54.948 47.1349 55.2308C46.7026 55.5584 46.2017 55.7429 45.6907 55.8887C44.3272 56.2773 42.9311 56.4834 41.5224 56.6263C40.4371 56.7361 39.3515 56.8153 38.2622 56.8723C37.8099 56.8961 37.3581 56.903 36.9063 56.9169C36.2375 56.9375 35.5682 56.9765 34.8999 56.9653C33.5225 56.9422 32.1439 56.9264 30.7691 56.8445C28.2021 56.6922 25.6425 56.4499 23.1243 55.8961C22.2402 55.7017 21.3622 55.4731 20.5607 55.0271C20.2495 54.854 19.8941 54.6822 19.8899 54.2705C19.8855 53.8546 20.2386 53.6753 20.5558 53.5143C21.4436 53.0635 22.4096 52.875 23.3756 52.6895C24.5815 52.4576 25.8025 52.3378 27.0228 52.2274C27.8738 52.1506 28.7306 52.1349 29.5848 52.0935C29.6928 52.0883 29.8014 52.0938 29.9099 52.0903C30.3185 52.0766 30.335 52.0608 30.3654 51.6699C30.4477 52.2763 30.4771 52.8903 30.6497 53.4826C30.7609 53.864 30.8889 54.238 31.1069 54.5728C31.5989 55.3282 32.2825 55.5353 33.1038 55.1732C33.7908 54.8704 34.2998 54.3464 34.7758 53.7846C35.2242 53.2554 35.5906 52.6674 35.9798 52.0957C36.4553 52.067 36.9361 51.967 37.3899 52.2101Z" fill="black"/>
</g>
<path fill-rule="evenodd" clip-rule="evenodd" d="M6.30928 25.8876C6.12186 25.7757 5.93443 25.6636 5.747 25.5518C4.61628 24.8499 3.50158 24.1208 2.3494 23.4572C1.63397 23.0447 1.08402 22.4736 0.488941 21.8112C0.865521 21.9458 1.13556 22.1249 1.3987 22.2995C1.62435 22.4493 1.7558 22.4262 1.93361 22.2251C2.74028 21.3134 3.48728 20.3554 4.19284 19.3636C4.24783 19.1593 4.40665 19.0204 4.51368 18.8488C4.9645 18.222 5.49398 17.6663 6.04442 17.1291C6.11396 17.0624 6.18104 16.9932 6.25823 16.9347C6.62347 16.6363 6.98377 16.3318 7.36824 16.0587C7.5278 15.9451 7.52016 15.8397 7.4114 15.6904C7.13939 15.3167 6.8686 14.9417 6.58401 14.5771C6.5152 14.4772 6.38105 14.4192 6.3882 14.2704C5.64367 13.3054 4.75611 12.4966 3.72255 11.858C2.57406 11.1482 1.43495 10.4184 0.180427 9.90227C-0.0301814 9.81572 0.0465156 9.61633 0.00681072 9.46877C-0.0358535 9.31128 0.132337 9.32269 0.221858 9.28946C3.16594 8.19899 6.111 7.111 9.05582 6.02251C9.15743 5.98506 9.26273 5.95406 9.35842 5.90471C9.86817 5.64207 10.1296 5.67853 10.5274 6.10361C11.0418 6.65368 11.3503 7.33147 11.6586 8.00703C12.0574 8.88 12.3861 9.7815 12.6922 10.6899C12.8196 11.0689 13.0931 10.8697 13.3023 10.8992C13.523 10.9302 13.465 10.7202 13.483 10.6021C13.7992 8.51172 14.3351 6.49619 15.453 4.67535C15.8387 4.04691 16.3139 3.49213 16.8459 2.9862C17.8563 2.02544 18.8713 1.06963 19.8807 0.108121C19.9927 0.00147954 20.0602 -0.0550652 20.2134 0.0763766C22.0785 1.6817 23.9496 3.28058 25.8266 4.87177C26.0054 5.02355 26.0076 5.08877 25.8226 5.23088C25.5178 5.46524 25.2369 5.73135 24.9476 5.98605C24.884 6.04185 24.7994 6.08476 24.8347 6.20256C25.0672 6.97583 25.2574 7.76101 25.4502 8.58686C25.9334 7.93015 26.3987 7.31634 26.9176 6.74618C27.7211 5.86304 28.5896 5.06249 29.6925 4.56499C29.8447 4.49654 30.0042 4.44322 30.1628 4.39089C30.697 4.21481 31.1717 4.2287 31.697 4.55036C33.6479 5.7445 35.6339 6.8811 37.6068 8.03927C37.6907 8.08862 37.7743 8.13823 37.9319 8.23098C37.4342 8.29521 37.011 8.3339 36.5933 8.40632C34.8231 8.71335 33.167 9.30012 31.7488 10.4521C31.6881 10.5015 31.6348 10.5602 31.5781 10.6148C31.4923 10.6746 31.4084 10.7366 31.3566 10.8318C31.3594 10.896 31.3275 10.9469 31.2856 10.9885C30.6106 11.6594 30.2326 12.5212 29.7842 13.3386C29.6681 13.5502 29.6217 13.8073 29.4064 13.9586C29.2037 13.8547 29.1147 13.6774 29.0873 13.4596C29.3226 12.9572 29.4999 12.4297 29.7354 11.9272C30.5339 10.2222 31.8906 9.12925 33.57 8.38871C34.2139 8.10499 34.8872 7.91577 35.6172 7.7558C35.2539 7.49242 34.8988 7.28881 34.5535 7.07181C33.4664 6.38881 32.3737 5.71399 31.2984 5.01214C31.018 4.82912 30.7492 4.82019 30.455 4.89037C29.8114 5.04438 29.2402 5.35389 28.7085 5.73978C27.5445 6.58448 26.6222 7.66776 25.7388 8.78948C25.6211 8.93903 25.6224 9.09502 25.6589 9.26689C25.8214 10.0335 25.9334 10.8087 26.031 11.5857C26.0507 11.7427 26.123 11.9146 26.0059 12.0696C25.7953 12.0914 25.5891 12.0926 25.4179 11.9374C25.212 11.2341 25.0909 10.5101 24.9104 9.80035C24.6611 8.82123 24.4098 7.84285 24.1341 6.87118C24.046 6.56117 24.0105 6.54356 23.6931 6.61003C21.2334 7.1229 18.7692 7.61519 16.3117 8.13971C16.2922 8.14393 16.273 8.1474 16.2538 8.15162C15.9272 8.22081 15.9238 8.22924 16.1243 8.48345C16.5776 9.05757 17.0348 9.62873 17.49 10.2014C17.638 10.3871 17.7783 10.5781 17.9147 10.7725C18.0612 10.9818 18.1914 11.21 18.4651 11.2849C18.5122 11.2978 18.5428 11.3442 18.5095 11.402C18.3002 11.5158 18.0965 11.4538 17.8932 11.3826C17.6449 11.24 17.5058 10.991 17.3295 10.7812C16.6358 9.95683 15.9322 9.1414 15.2256 8.32844C14.8473 7.89345 14.8557 7.84707 15.4061 7.71191C18.1633 7.03436 20.9246 6.37343 23.6823 5.69762C24.0598 5.60512 24.3363 5.39927 24.6063 5.14904C24.7496 5.01636 24.6473 4.93948 24.5587 4.86309C24.0736 4.44273 23.613 3.99558 23.1353 3.56727C22.4297 2.93462 21.7276 2.29824 21.0272 1.65988C20.772 1.42725 20.4965 1.21645 20.2637 0.958773C20.0938 0.770538 19.9436 0.872468 19.8082 1.00416C19.4753 1.3278 19.1211 1.62764 18.7766 1.93839C18.168 2.48697 17.5406 3.01522 16.9487 3.58116C16.1033 4.38941 15.4843 5.35984 14.9899 6.4213C14.3997 7.68785 14.0261 9.01789 13.7556 10.3824C13.6705 10.8112 13.6697 10.8211 14.1107 10.872C14.6204 10.9305 15.1248 11.0208 15.6276 11.1182C15.7036 11.1329 15.9026 11.0843 15.8266 11.2988C15.5687 11.3915 15.3011 11.3233 15.0394 11.3499C14.9413 11.3595 14.8157 11.299 14.7566 11.4394C14.7504 11.4706 14.7423 11.5012 14.7339 11.5317C14.6939 11.6368 14.6944 11.7618 14.5866 11.8335C14.1459 11.8744 13.7154 11.7216 13.2749 11.764C13.1632 11.7687 13.0515 11.7618 12.9402 11.7618C11.7064 11.7191 10.5417 12.0416 9.39714 12.455C8.94312 12.6189 8.49823 12.8089 8.06715 13.0289C7.8124 13.1591 7.80574 13.1846 8.02374 13.3656C8.74484 13.9648 9.4615 14.5695 10.1826 15.1684C11.7005 16.4295 13.2118 17.6988 14.7181 18.9737C14.906 19.1327 15.0855 19.3031 15.2954 19.435C15.3904 19.5228 15.4382 19.627 15.4047 19.7587C15.2424 19.8881 15.1477 19.7316 15.0518 19.6577C14.0663 18.8979 13.0855 18.1318 12.0998 17.3721C11.2704 16.733 10.4443 16.09 9.626 15.4365C9.47679 15.3174 9.34584 15.2976 9.16976 15.3938C7.39636 16.3628 5.94281 17.6883 4.78225 19.3448C4.03279 20.4146 3.27642 21.4796 2.43645 22.4803C2.29169 22.6529 2.28306 22.7221 2.49465 22.8446C4.29716 23.8872 6.10065 24.9281 7.90611 25.9657C8.28244 26.182 8.66025 26.3967 9.02968 26.6247C9.22204 26.7432 9.33031 26.7293 9.44202 26.5096C9.93944 25.5334 10.68 24.7483 11.4685 24.0119C12.6766 22.8838 14.0096 21.9104 15.34 20.9362C15.4643 20.8452 15.5763 20.7165 15.7578 20.7522C15.9107 20.8551 15.9758 20.9984 15.9539 21.1817C15.6493 21.547 15.2661 21.8278 14.909 22.1343C13.8236 23.0653 12.7126 23.9688 11.7301 25.0126C11.0813 25.7021 10.4381 26.4022 10.0773 27.3064C9.9752 27.5624 9.73722 27.6819 9.51181 27.8056C9.42402 27.854 9.33844 27.8233 9.25977 27.7766C8.30982 27.2134 7.37885 26.6192 6.43579 26.0446C6.37611 26.0084 6.32457 25.9617 6.30928 25.8876Z" fill="#5F9D45"/>
<path fill-rule="evenodd" clip-rule="evenodd" d="M6.38827 14.2705C6.46768 14.3613 6.54733 14.452 6.62674 14.5428C6.62107 14.6827 6.49702 14.7055 6.40874 14.7561C5.73351 15.1442 5.07159 15.5542 4.4304 15.9971C4.35247 16.0509 4.25234 16.0819 4.19759 16.2146C4.74878 16.4026 5.29799 16.5804 5.843 16.7701C5.99664 16.8235 6.17692 16.8319 6.28099 16.9891C6.21366 17.0489 6.14658 17.1089 6.07926 17.1689C5.95077 17.2396 5.82993 17.1821 5.71008 17.1424C5.26198 16.9938 4.81585 16.8401 4.36702 16.6942C4.12706 16.6164 4.10955 16.6345 4.1643 16.8869C4.27552 17.3986 4.39242 17.9087 4.51351 18.4181C4.54976 18.5706 4.60401 18.7232 4.54976 18.8836C4.45481 19.0614 4.33446 19.2207 4.19291 19.3638C3.94013 18.3385 3.68759 17.3133 3.43432 16.288C3.40448 16.1665 3.48093 16.1095 3.56478 16.0507C4.47873 15.4133 5.406 14.798 6.38827 14.2705Z" fill="#8F4A51"/>
<path fill-rule="evenodd" clip-rule="evenodd" d="M29.3979 13.9246C29.7878 13.2423 30.0953 12.5149 30.5161 11.8496C30.7531 11.4748 31.0132 11.1182 31.3565 10.8317C32.8379 10.6693 34.3248 10.614 35.8131 10.6703C39.2127 10.799 42.4667 11.5108 45.466 13.1895C48.7921 15.051 51.1291 17.8423 52.8428 21.2045C54.0268 23.5275 54.7387 25.9962 55.026 28.59C55.0465 28.7763 55.0751 28.9578 54.7994 28.9521C54.7062 29.0302 54.5945 29.0585 54.4781 29.0751C54.3959 29.0816 54.318 29.1089 54.2381 29.1257C54.1358 29.1451 54.0366 29.1738 53.9479 29.2319C53.8379 29.278 53.7333 29.3385 53.6147 29.3633C53.4635 29.3792 53.3358 29.4437 53.2302 29.5533C53.1348 29.6398 53.0369 29.7239 52.9407 29.8097C52.8161 29.9015 52.7681 30.0706 52.6169 30.1361C52.0773 31.0155 51.9483 31.9713 52.1643 32.9636C52.3091 33.6275 52.7547 34.091 53.3348 34.4233C53.6872 34.6257 54.0588 34.7859 54.462 34.8439C54.6788 34.8752 54.723 34.9588 54.6749 35.1693C54.2842 36.8743 53.7054 38.5082 52.8726 40.0471C52.7269 40.3161 52.5685 40.5788 52.4159 40.8441C52.3843 40.9275 52.3362 41.0029 52.3002 41.0842C51.7133 41.7404 50.9902 42.225 50.2637 42.7009C48.8656 43.6171 47.3255 44.2341 45.7719 44.8169C44.1518 45.4245 42.4993 45.92 40.8028 46.2633C39.5259 46.5219 38.241 46.7072 36.9369 46.7677C36.4151 46.792 35.8937 46.8295 35.3719 46.8151C32.6456 46.7407 30.0302 46.1913 27.5892 44.9288C25.877 44.0431 24.4 42.8493 23.0996 41.4277C23.053 41.3766 23.0047 41.326 22.9956 41.2524C23.9581 40.4888 24.8452 39.6483 25.6119 38.6828C25.9939 38.2024 26.3643 37.7133 26.6817 37.1876C26.7964 36.9974 26.8921 36.9688 27.099 37.0591C28.2992 37.5851 29.5466 37.7791 30.8512 37.5722C32.6046 37.2937 34.183 35.8303 34.579 34.0932C34.6732 33.6803 34.6853 33.2661 34.5452 32.8624C34.3255 32.2292 33.7169 31.885 33.0054 32.0036C32.6569 32.0618 32.3176 32.1739 31.9703 32.2416C31.5405 32.3257 31.1084 32.3123 30.6783 32.2216C30.5829 32.2015 30.5055 32.1839 30.523 32.0581C30.6391 31.2099 30.3109 30.4558 29.9915 29.7137C28.8766 27.1246 27.1249 25.0428 24.9068 23.3373C24.6627 23.1496 24.5623 23.3252 24.4195 23.4462C24.0841 23.7932 23.7152 24.094 23.2698 24.2909C22.3642 24.4543 21.4582 24.5382 20.54 24.3906C19.1348 24.1647 18.0603 23.4326 17.2472 22.2746C16.4995 21.2095 16.0852 20.0056 15.7843 18.756C15.44 17.3255 15.2928 15.8694 15.2223 14.4C15.1897 13.7259 15.1816 13.0534 15.1786 12.38C15.1764 11.919 15.264 11.8349 15.7093 11.8332C16.5276 11.8302 17.3471 11.8037 18.1641 11.8384C19.7183 11.9046 21.2757 11.9039 22.8274 12.0199C24.2025 12.1229 25.5751 12.2543 26.9379 12.4827C28.2467 12.7019 29.0889 13.4412 29.5163 14.6867C29.8795 15.7449 29.9491 16.8322 29.8428 17.9393C29.8014 18.3718 29.7345 18.8001 29.6746 19.2291C29.6524 19.3274 29.6497 19.4325 29.5984 19.5153C29.6578 19.4399 29.6529 19.335 29.6763 19.2403C29.8102 18.4799 29.9074 17.7116 29.8998 16.9431C29.8909 16.0329 29.8243 15.1197 29.449 14.2659C29.4019 14.1585 29.3439 14.0488 29.3979 13.9246Z" fill="#F4A3C5"/>
<path fill-rule="evenodd" clip-rule="evenodd" d="M23.3136 24.2348C23.6823 23.9719 24.051 23.7093 24.4194 23.4464C26.5275 25.0532 28.2082 27.0149 29.328 29.4389C29.6267 30.0857 29.8893 30.7469 30.0198 31.4537C30.0548 31.6434 30.114 31.8865 29.9552 31.9718C29.8279 32.0405 29.6316 31.8751 29.5081 31.7411C28.6841 30.8481 27.8693 29.9458 27.0368 29.061C26.3539 28.3353 25.7689 27.5129 24.9805 26.8912C23.9782 26.1008 22.8036 25.6678 21.5984 25.3149C19.9604 24.8357 18.2829 24.5716 16.5867 24.4087C15.7149 24.3251 14.8444 24.2343 13.9674 24.2341C13.6254 24.2118 13.2789 24.2733 12.94 24.1857C13.2172 24.2591 13.5139 24.1897 13.7877 24.2896C14.3534 24.333 14.3692 24.2038 14.2187 24.8685C13.9588 26.0152 13.7933 27.1761 13.711 28.3524C13.4907 31.5048 14.0059 34.5361 15.1312 37.4742C15.1734 37.5836 15.258 37.7113 15.0284 37.6863C14.8461 37.6739 14.6651 37.654 14.4878 37.6049C14.4478 37.6057 14.4769 37.6575 14.474 37.6178C14.4732 37.6077 14.4834 37.602 14.5016 37.6089C14.6552 37.6657 14.8326 37.6357 14.9734 37.7396C16.273 37.9735 17.5828 38.1022 18.9037 38.1004C21.1757 38.0977 23.3077 37.565 25.2592 36.3729C25.4335 36.2665 25.564 36.2352 25.7354 36.3694C25.8735 36.4778 26.034 36.5638 26.1953 36.6347C26.3909 36.7208 26.4111 36.8133 26.2863 36.9884C25.9132 37.5117 25.5287 38.0263 25.108 38.5111C24.1395 39.6274 23.0747 40.634 21.8228 41.4329C20.9395 41.9963 19.9607 42.2577 18.9503 42.4551C18.0151 42.6377 17.0864 42.8542 16.1549 43.0558C16.1374 43.0878 16.0839 43.0801 16.0789 43.126C16.1426 43.1071 16.2121 43.1664 16.2733 43.1116C16.732 43.0583 17.1934 43.0221 17.6482 42.9454C17.9493 42.8948 18.1552 42.9397 18.3458 43.214C18.7177 43.7495 19.132 44.2549 19.5688 44.7397C19.6361 44.8141 19.7481 44.8771 19.6314 45.0086C18.9167 45.8136 18.1522 46.5606 17.1078 46.9095C16.0822 47.252 15.2373 46.8336 14.4868 46.1663C13.4996 45.2878 12.7995 44.184 12.1297 43.06C10.6347 40.5505 9.71261 37.8006 8.82726 35.0383C7.88914 32.1102 7.07285 29.146 6.31574 26.1655C6.29256 26.0748 6.21956 25.9823 6.30933 25.8878C7.24178 26.4599 8.17275 27.0343 9.10815 27.6017C9.21938 27.6692 9.33085 27.8274 9.46328 27.7567C9.65835 27.6528 9.90891 27.5571 9.98783 27.346C10.3526 26.3701 11.0411 25.6343 11.7385 24.9084C13.0345 23.559 14.4999 22.3993 15.913 21.1812C16.1236 21.2563 16.1709 21.4664 16.2669 21.6303C16.8287 22.5915 17.5093 23.4345 18.5027 23.9801C19.3165 24.4265 20.1833 24.617 21.1109 24.5924C21.864 24.5724 22.591 24.4265 23.3136 24.2348Z" fill="#ED3438"/>
<path fill-rule="evenodd" clip-rule="evenodd" d="M17.0493 24.649C18.5487 24.8173 20.0161 25.142 21.4598 25.5765C22.2146 25.8037 22.9449 26.0953 23.6489 26.4544C24.4906 26.8837 25.1696 27.4985 25.7644 28.2289C26.3447 28.9411 26.9585 29.6259 27.5561 30.324C27.6054 30.3816 27.6791 30.4264 27.6786 30.5698C27.1886 30.197 26.7962 29.768 26.3854 29.3598C26.192 29.2551 26.0835 29.0654 25.9393 28.9114C25.8808 28.7904 25.7607 28.7184 25.6949 28.6031C25.6707 28.5667 25.6539 28.5243 25.6162 28.4977C25.6544 28.5319 25.6732 28.5796 25.7005 28.6215C25.7745 28.7289 25.8877 28.8047 25.943 28.9273C26.0717 29.0909 26.2488 29.2169 26.3279 29.42C27.2498 30.5068 28.287 31.4539 29.5702 32.0972C30.531 32.5791 31.5275 32.7373 32.5747 32.4087C32.801 32.3378 33.0366 32.3142 33.275 32.3222C33.8568 32.3413 34.2302 32.7036 34.264 33.2884C34.3116 34.1071 33.9892 34.8007 33.5024 35.4195C32.7256 36.4063 31.7019 36.9546 30.4543 37.0992C29.0037 37.2674 27.6646 36.8964 26.3696 36.2895C25.3834 35.8267 24.4744 35.2382 23.6161 34.5679C23.5473 34.514 23.4771 34.4622 23.3685 34.3801C23.39 34.5408 23.4864 34.5964 23.555 34.6636C24.0147 35.1135 24.5005 35.5331 25.0285 35.8999C25.1516 35.9852 25.1757 36.0365 25.032 36.1241C23.6526 36.9646 22.1821 37.5516 20.5734 37.7579C20.5443 37.7616 20.5145 37.7577 20.4849 37.7574C20.2943 37.8271 20.1892 37.7128 20.0972 37.5732C19.8131 37.1434 19.5527 36.6984 19.3093 36.2451C18.2715 34.3124 17.511 32.2788 17.0939 30.1172C16.7876 28.53 16.7401 26.9284 16.7822 25.3198C16.7869 25.1512 16.8264 24.9857 16.8473 24.8186C16.8611 24.7087 16.8856 24.5887 17.0493 24.649Z" fill="#F4A4C5"/>
<path fill-rule="evenodd" clip-rule="evenodd" d="M22.9955 41.2524C23.359 41.5285 23.651 41.8796 23.9728 42.1991C25.5524 43.765 27.3993 44.8941 29.4755 45.6649C30.7712 46.146 32.1081 46.4479 33.4734 46.6056C34.4576 46.7192 35.4515 46.7859 36.4446 46.7343C38.8816 46.6081 41.2671 46.187 43.6023 45.4665C45.1925 44.9762 46.7489 44.3971 48.2633 43.7089C49.7514 43.0329 51.1026 42.14 52.3046 41.0245C52.3283 40.9915 52.3529 40.9906 52.3791 41.0216C52.1865 41.4603 51.8782 41.8219 51.5879 42.1919C49.8148 44.4517 47.6273 46.1783 44.9636 47.2474C44.6221 47.3846 44.4951 47.585 44.3532 47.8469C43.7892 48.8887 43.2363 49.9375 42.549 50.9057C42.4903 50.9281 42.4304 50.9248 42.3766 50.8978C41.4698 50.439 40.5574 50.6076 39.6491 50.8822C39.1176 51.0429 38.6338 51.3063 38.182 51.6304C38.073 51.7083 37.9775 51.8233 37.8197 51.7966C37.5997 51.1064 37.4885 50.3939 37.395 49.6789C37.3521 49.35 37.6288 49.1231 37.6976 48.8272C37.8047 48.479 37.9891 48.1655 38.1364 47.8359C38.1438 47.8106 38.1546 47.7863 38.162 47.7606C38.1541 47.773 38.1467 47.7891 38.1383 47.8114C37.9669 48.1281 37.8843 48.4892 37.6377 48.7632C37.1114 49.7262 36.5901 50.6922 35.9972 51.6165C35.9178 51.7403 35.8278 51.8571 35.7425 51.9771C35.6838 51.9992 35.6238 51.996 35.5703 51.9689C34.6635 51.5101 33.7513 51.6788 32.8425 51.9533C32.3017 52.1172 31.8097 52.3861 31.352 52.7191C31.2514 52.7925 31.1596 52.8952 31.0134 52.8679C30.7567 52.056 30.6612 51.2125 30.5231 50.377C30.4886 50.1689 30.5675 49.9214 30.3601 49.7567C30.0849 49.5978 29.7668 49.6171 29.4703 49.5531C28.6439 49.3751 27.8284 49.167 27.038 48.8652C26.9983 48.8503 26.9618 48.8525 26.924 48.8674C25.2638 48.2526 23.7755 47.3407 22.4117 46.2167C21.2332 45.2453 20.2213 44.1109 19.2603 42.9287C19.2243 42.8846 19.1966 42.8342 19.1498 42.7635C19.5614 42.6894 19.9498 42.6403 20.3276 42.5473C21.188 42.3357 21.9617 41.9268 22.6963 41.4384C22.7942 41.3735 22.8956 41.3142 22.9955 41.2524Z" fill="#EC8FB7"/>
<path fill-rule="evenodd" clip-rule="evenodd" d="M17.0493 24.6489C16.7936 24.8014 16.8801 25.0863 16.8777 25.2813C16.8629 26.396 16.8385 27.5096 16.9628 28.6258C17.1776 30.5541 17.6696 32.4012 18.4119 34.1824C18.9024 35.3599 19.4898 36.4905 20.1863 37.5614C20.2612 37.6767 20.3352 37.7687 20.4849 37.7573C20.0055 37.887 19.5103 37.8779 19.0215 37.9071C18.1053 37.9622 17.1899 37.9131 16.2764 37.8231C16.1393 37.8094 16.0732 37.7598 16.0182 37.6338C15.2505 35.874 14.7373 34.0452 14.4799 32.1386C14.1413 29.6335 14.363 27.1626 14.8547 24.7019C14.9018 24.4661 14.982 24.3713 15.2394 24.4081C15.8417 24.4944 16.4523 24.5199 17.0493 24.6489Z" fill="#EC8FB7"/>
<path fill-rule="evenodd" clip-rule="evenodd" d="M41.1847 11.127C42.0636 9.64043 43.2052 8.4391 44.583 7.45899C45.2847 6.96001 46.0319 6.54113 46.809 6.17235C46.97 6.09596 47.0366 6.10688 47.1057 6.28469C47.806 8.09214 48.3604 9.93506 48.4388 11.8898C48.4702 12.6663 48.3888 13.4331 48.0995 14.1657C48.0342 14.3312 47.99 14.4133 47.7972 14.2667C45.8713 12.8005 43.7196 11.8055 41.3867 11.1962C41.3299 11.1815 41.2754 11.1582 41.1847 11.127Z" fill="#F4A4C5"/>
<path fill-rule="evenodd" clip-rule="evenodd" d="M52.9063 29.7414C53.0133 29.6757 53.0814 29.5535 53.2155 29.5277C53.3174 29.3883 53.4868 29.3692 53.6254 29.296C53.7206 29.2573 53.8156 29.2187 53.9105 29.1797C54.0035 29.1383 54.1095 29.141 54.2 29.0924C54.29 29.0981 54.3714 29.0646 54.454 29.0364C54.5707 29.0423 54.6829 28.9888 54.8008 29.0106C55.2538 28.9932 55.7063 28.9838 56.1532 29.0813C57.5047 29.3759 58.2618 30.265 58.3444 31.655C58.4359 33.1912 57.4978 34.2826 55.9663 34.4168C55.2094 34.483 54.4745 34.4024 53.7751 34.0768C52.8853 33.6629 52.4306 32.9613 52.365 31.9839C52.3228 31.3594 52.396 30.76 52.6688 30.1921C52.7023 30.0175 52.8412 29.8992 52.9063 29.7414Z" fill="#F4A4C5"/>
<path fill-rule="evenodd" clip-rule="evenodd" d="M37.8196 51.7967C38.6521 51.133 39.5895 50.7005 40.6443 50.5661C41.3055 50.4818 41.9615 50.5247 42.5489 50.9059C41.9861 51.8079 41.3634 52.659 40.5193 53.3217C40.4571 53.3705 40.3932 53.4172 40.3269 53.4598C39.4322 54.0339 38.7533 53.8643 38.2428 52.9313C38.0477 52.5749 37.9042 52.1962 37.8196 51.7967Z" fill="#F4A4C5"/>
<path fill-rule="evenodd" clip-rule="evenodd" d="M31.0134 52.868C31.8458 52.2039 32.7834 51.7719 33.8379 51.6374C34.4991 51.5531 35.1551 51.5958 35.7425 51.9772C35.18 52.8792 34.5573 53.7306 33.7129 54.3928C33.6507 54.4419 33.5871 54.4887 33.5208 54.5314C32.6251 55.106 31.9456 54.9361 31.4364 54.0026C31.2415 53.646 31.098 53.2673 31.0134 52.868Z" fill="#F4A4C5"/>
<path fill-rule="evenodd" clip-rule="evenodd" d="M53.8865 22.2085C55.1092 22.6849 56.1521 23.2382 56.5265 24.5531C56.6858 25.1126 56.6187 25.6738 56.5072 26.2274C56.3403 27.0555 56.0175 27.831 55.6411 28.6023C55.3558 26.4169 54.8056 24.3088 53.8865 22.2085Z" fill="#ED3438"/>
<path fill-rule="evenodd" clip-rule="evenodd" d="M55.3747 34.9478C55.722 35.2364 56.0416 35.4827 56.3387 35.754C56.7508 36.1302 56.7629 36.6429 56.3967 37.0707C55.9794 37.557 55.4243 37.833 54.8613 38.0972C54.7394 38.1544 54.6119 38.1991 54.4406 38.2685C54.8497 37.1766 55.1454 36.098 55.3747 34.9478Z" fill="#ED3438"/>
<path fill-rule="evenodd" clip-rule="evenodd" d="M26.9241 48.8674C27.0444 48.7643 27.1512 48.8694 27.2506 48.9039C28.2997 49.2695 29.3789 49.5051 30.4911 49.6732C30.4366 49.7079 30.3984 49.7322 30.3601 49.7568C29.1754 49.6139 28.0346 49.2997 26.9241 48.8674Z" fill="#EE9EBE"/>
<path fill-rule="evenodd" clip-rule="evenodd" d="M37.6376 48.7633C37.7994 48.4285 37.9611 48.0939 38.1232 47.7594C38.1708 47.7492 38.2043 47.7519 38.1712 47.8139C38.0299 48.1594 37.8943 48.5079 37.6975 48.8273L37.6376 48.7633Z" fill="#9E555F"/>
<path fill-rule="evenodd" clip-rule="evenodd" d="M13.7877 24.2897C13.4836 24.3326 13.1909 24.2383 12.8917 24.2068C13.251 24.2019 13.6109 24.1327 13.9675 24.2341C13.9058 24.247 13.8338 24.2267 13.7877 24.2897Z" fill="#A2494C"/>
<path fill-rule="evenodd" clip-rule="evenodd" d="M26.3277 29.4201C26.1628 29.2842 26.0427 29.1089 25.9159 28.9398C25.8903 28.8788 25.9191 28.8703 25.9699 28.883C26.1085 29.0419 26.2469 29.2009 26.3852 29.3599C26.3662 29.38 26.347 29.4001 26.3277 29.4201Z" fill="#9D565F"/>
<path fill-rule="evenodd" clip-rule="evenodd" d="M14.9733 37.7392C14.8046 37.7035 14.6248 37.7095 14.4749 37.6001C14.6645 37.6001 14.8524 37.6021 15.0283 37.6859C15.01 37.7035 14.9915 37.7216 14.9733 37.7392Z" fill="#AE4648"/>
<path fill-rule="evenodd" clip-rule="evenodd" d="M52.908 29.7417C52.901 29.9304 52.7597 30.048 52.6691 30.1923C52.6518 30.1737 52.6344 30.1549 52.6171 30.1363C52.6858 29.984 52.7748 29.8464 52.908 29.7417Z" fill="#A45C65"/>
<path fill-rule="evenodd" clip-rule="evenodd" d="M54.8027 29.0107C54.6899 29.0776 54.5654 29.0593 54.4436 29.06C54.4307 29.0491 54.4265 29.0387 54.4315 29.0285C54.4362 29.0186 54.4409 29.0139 54.4456 29.0139L54.8015 28.9521C54.8022 28.9717 54.8025 28.9913 54.8027 29.0107Z" fill="#944E56"/>
<path fill-rule="evenodd" clip-rule="evenodd" d="M16.2749 43.1117C16.1831 43.1891 16.076 43.1648 15.9629 43.1606C15.9909 43.0477 16.0785 43.0611 16.1558 43.0557C16.1955 43.0745 16.2352 43.0931 16.2749 43.1117Z" fill="#A7484A"/>
<path fill-rule="evenodd" clip-rule="evenodd" d="M52.3795 41.0218L52.3046 41.0248C52.317 40.9491 52.3415 40.8809 52.4167 40.8442C52.5288 40.9296 52.433 40.9712 52.3795 41.0218Z" fill="#D57E9B"/>
<path fill-rule="evenodd" clip-rule="evenodd" d="M15.7403 20.7833C15.2288 21.0422 14.8029 21.4266 14.3454 21.7624C13.1545 22.6366 11.9883 23.546 10.9616 24.6154C10.368 25.2332 9.79069 25.8735 9.4368 26.6741C9.36183 26.8435 9.29475 26.8549 9.12952 26.7592C6.8222 25.4189 4.5092 24.0884 2.19794 22.7546C2.18314 22.7462 2.17451 22.7266 2.15552 22.7031C3.29389 21.3943 4.22042 19.9212 5.28628 18.5559C6.26016 17.3085 7.46265 16.313 8.82125 15.4946C9.27946 15.2186 9.55937 15.2684 9.9611 15.5906C11.6958 16.9809 13.4613 18.3325 15.2167 19.6968C15.2618 19.7317 15.3185 19.7518 15.3698 19.7789C15.6226 20.0653 15.7373 20.4036 15.7403 20.7833Z" fill="#74BF4F"/>
<path fill-rule="evenodd" clip-rule="evenodd" d="M15.855 11.262C15.3413 11.0949 14.8059 11.0282 14.275 10.9744C13.5773 10.9037 13.583 10.9317 13.7115 10.2415C13.9749 8.8259 14.3904 7.45791 15.0222 6.16532C15.5727 5.03889 16.2822 4.03026 17.2494 3.20862C18.0975 2.48817 18.9054 1.71986 19.7279 0.969149C20.066 0.660633 20.0573 0.667577 20.3903 0.972125C21.3208 1.82302 22.2621 2.66202 23.1963 3.50945C23.7001 3.96627 24.1943 4.43376 24.6996 4.88909C24.8456 5.02053 24.7931 5.0684 24.6759 5.20133C24.0754 5.88259 23.2106 5.87391 22.4396 6.07083C19.9868 6.69778 17.5214 7.27563 15.0612 7.87307C15.0442 7.87729 15.0294 7.89043 14.9929 7.91126C15.9525 9.05059 16.9086 10.1864 17.8647 11.3221C17.8082 11.3883 17.7303 11.4004 17.6511 11.4022C17.1024 11.4151 16.5539 11.4173 16.0089 11.3412C15.9497 11.3327 15.8952 11.3099 15.855 11.262Z" fill="#74BF4F"/>
<path fill-rule="evenodd" clip-rule="evenodd" d="M26.0345 12.0264C25.9765 11.6782 25.8941 11.3317 25.8665 10.981C25.8243 10.4478 25.7143 9.92628 25.6053 9.40745C25.5358 9.07563 25.5854 8.84895 25.8049 8.58185C26.3753 7.88744 26.94 7.18931 27.5955 6.57401C28.3615 5.8548 29.1753 5.20379 30.1983 4.8799C30.6328 4.74226 31.0156 4.72589 31.4422 5.00787C32.839 5.93069 34.2689 6.80292 35.6857 7.69499C35.7104 7.71037 35.7311 7.73145 35.7809 7.77237C35.2946 7.90703 34.8248 8.01789 34.3675 8.16744C32.9453 8.63219 31.7016 9.38712 30.7085 10.525C30.1016 11.2201 29.7374 12.0532 29.4017 12.9023C29.3243 13.0982 29.3068 13.3331 29.111 13.4705C28.9899 13.4829 28.9423 13.3807 28.8791 13.312C28.3657 12.7515 27.726 12.4368 26.9896 12.2855C26.6675 12.2193 26.3205 12.2312 26.0345 12.0264Z" fill="#74BF4F"/>
<path fill-rule="evenodd" clip-rule="evenodd" d="M0.85791 9.60714C3.40149 8.74954 5.93717 7.89517 8.47212 7.03931C8.87287 6.9039 9.27584 6.77296 9.66795 6.61547C9.85464 6.54058 9.96537 6.59365 10.0704 6.73551C10.2877 7.02939 10.486 7.33493 10.6576 7.65858C11.1866 8.65505 11.6216 9.69469 12.0682 10.7294C12.1617 10.9461 12.0897 10.9937 11.8801 11.0309C10.066 11.3506 8.39197 12.0336 6.84028 13.0269C6.8166 13.042 6.79687 13.0633 6.74977 13.1037C7.56877 13.7433 8.37964 14.3762 9.22627 15.0374C8.77151 15.2696 8.34487 15.4846 7.94313 15.7432C7.79467 15.8385 7.76113 15.6874 7.70614 15.6054C7.2938 14.9913 6.86716 14.3891 6.40747 13.8083C5.60301 12.7913 4.64862 11.9542 3.55513 11.2668C2.74623 10.7586 1.94992 10.2301 1.09861 9.79413C1.01204 9.74974 0.926222 9.70411 0.85791 9.60714Z" fill="#74BF4F"/>
<path fill-rule="evenodd" clip-rule="evenodd" d="M18.5161 11.3684C18.2618 11.3426 18.1092 11.1891 17.9662 10.9848C17.3437 10.0964 16.6426 9.26931 15.9651 8.42412C15.7705 8.18132 15.7799 8.17115 16.1057 8.10395C18.1496 7.68135 20.1931 7.25602 22.2368 6.83144C22.7645 6.72182 23.295 6.62436 23.8183 6.49589C24.0457 6.43984 24.1303 6.50308 24.1872 6.71984C24.5581 8.13147 24.9537 9.53666 25.2615 10.9644C25.3298 11.2814 25.442 11.5909 25.4447 11.921C25.3665 11.9993 25.2672 12.0026 25.1693 11.9897C23.6119 11.7836 22.0481 11.6487 20.4796 11.5676C19.909 11.514 19.3373 11.4768 18.7642 11.4639C18.6717 11.4574 18.576 11.4597 18.5161 11.3684Z" fill="#74BF4F"/>
<path fill-rule="evenodd" clip-rule="evenodd" d="M13.242 11.682C13.7022 11.6523 14.1533 11.7264 14.6043 11.8006C14.7328 11.931 14.701 12.0955 14.6892 12.2497C14.6132 13.2474 14.6327 14.2434 14.6862 15.2424C14.7355 16.1639 14.8497 17.0741 15.0142 17.9798C15.0833 18.3598 15.1873 18.7315 15.2754 19.1073C15.304 19.2298 15.357 19.3558 15.2724 19.4788C14.9106 19.3099 14.6497 19.0076 14.3496 18.7598C13.173 17.7889 12.0085 16.8026 10.8403 15.8212C9.83753 14.9787 8.83949 14.1311 7.83108 13.2958C7.66338 13.1572 7.71936 13.118 7.86783 13.0451C9.18129 12.397 10.5374 11.8933 12.0053 11.7284C12.3108 11.6939 12.6114 11.6788 12.916 11.6882C12.846 11.9846 12.6447 12.2108 12.4997 12.4665C12.4415 12.5689 12.3217 12.58 12.2105 12.5855C12.0531 12.5929 11.8943 12.5756 11.7379 12.5991C11.261 12.6706 11.076 13.0565 11.3165 13.4726C11.3715 13.5674 11.4442 13.6487 11.5083 13.7362C11.6427 13.92 11.5604 14.0834 11.4373 14.2186C11.3113 14.357 11.1848 14.2479 11.0699 14.1732C10.9589 14.1013 10.8861 13.9959 10.8274 13.8791C10.7964 13.8171 10.7668 13.7543 10.732 13.6946C10.6356 13.5279 10.493 13.3734 10.3078 13.492C10.1012 13.6244 10.2676 13.7973 10.3638 13.92C10.5347 14.1375 10.7325 14.3339 10.9675 14.4845C11.1485 14.6003 11.1932 14.7429 11.0926 14.9378C11.02 15.0787 10.9712 15.2305 10.933 15.3847C10.9101 15.4765 10.9098 15.569 11.0119 15.6136C11.1229 15.662 11.2011 15.6054 11.258 15.5115C11.33 15.3922 11.3796 15.2627 11.4307 15.1337C11.5244 14.8981 11.6852 14.792 11.9429 14.8567C12.0571 14.8855 12.1737 14.9155 12.2926 14.9133C12.4733 14.9098 12.6203 14.8334 12.6995 14.6653C12.7737 14.5075 12.6926 14.3786 12.5949 14.2598C12.551 14.2062 12.5 14.1588 12.4519 14.1092C12.167 13.8154 12.1663 13.8064 12.3944 13.4587C12.6457 13.0761 12.6529 13.0741 13.0724 13.2586C13.1084 13.2745 13.062 13.2586 13.0995 13.2705C13.2485 13.3181 13.4381 13.4071 13.5279 13.2417C13.6211 13.0701 13.4398 12.9625 13.3116 12.8744C12.9611 12.6344 12.9266 12.5493 13.225 12.2787C13.4726 12.0545 13.3195 11.8819 13.242 11.682Z" fill="#74BF4F"/>
<path fill-rule="evenodd" clip-rule="evenodd" d="M15.2725 19.4792C15.0395 18.5495 14.8289 17.6162 14.7169 16.6614C14.5445 15.1925 14.5033 13.7213 14.5946 12.2457C14.6037 12.0979 14.6015 11.9491 14.6047 11.801C14.6254 11.7011 14.6461 11.6011 14.6668 11.5014C14.7734 11.407 14.9046 11.4194 15.0318 11.4184C16.4385 11.4079 17.8457 11.4127 19.2516 11.4511C19.6622 11.4625 20.0761 11.4385 20.4857 11.4957C21.7054 11.5129 22.9163 11.6495 24.1282 11.7723C24.5676 11.8169 25.0059 11.8715 25.4448 11.9213C25.6412 11.9565 25.8379 11.9918 26.0345 12.027C26.3992 12.0986 26.7647 12.1681 27.129 12.243C27.9376 12.4096 28.6018 12.8141 29.111 13.4708C29.2067 13.6224 29.3024 13.7737 29.3981 13.9249C30.1862 15.6778 30.0575 17.4818 29.6933 19.2987C29.6708 19.3173 29.6494 19.315 29.6289 19.2952C29.6878 18.7439 29.7675 18.1951 29.7936 17.64C29.8407 16.652 29.7682 15.6788 29.4531 14.7357C28.9936 13.36 28.0035 12.6988 26.6022 12.5059C24.7834 12.2559 22.9597 12.1038 21.1274 12.0287C19.2847 11.9531 17.4412 11.9149 15.5971 11.9273C15.4141 11.9285 15.2774 11.9297 15.2742 12.1827C15.2404 14.8098 15.3973 17.4136 16.2077 19.9365C16.5628 21.0412 17.0723 22.0629 17.8797 22.9126C18.9318 24.0199 20.2526 24.4133 21.736 24.3877C22.267 24.3783 22.7849 24.254 23.3136 24.2349C22.9728 24.4502 22.5802 24.4941 22.1982 24.5643C20.6635 24.8468 19.222 24.6474 17.9305 23.7047C17.0972 23.0964 16.5258 22.2725 16.0375 21.3802C16 21.3115 15.9546 21.2472 15.913 21.181C15.8972 21.0302 15.8306 20.902 15.7403 20.784C15.617 20.4489 15.4935 20.1141 15.3699 19.7793C15.3583 19.6724 15.3369 19.5688 15.2725 19.4792Z" fill="#8F4A50"/>
<path fill-rule="evenodd" clip-rule="evenodd" d="M13.2421 11.6821C13.5642 11.9202 13.5718 12.0326 13.2917 12.2892C13.2342 12.3416 13.1947 12.4132 13.1439 12.4733C13.0339 12.6037 13.0438 12.6947 13.2221 12.7409C13.3721 12.7795 13.4853 12.8753 13.5743 12.9973C13.6451 13.094 13.7094 13.2012 13.6367 13.3247C13.5698 13.438 13.4554 13.4253 13.3462 13.4179C13.1844 13.4067 13.0312 13.3554 12.9111 13.2515C12.7501 13.1121 12.6539 13.163 12.5715 13.3276C12.5671 13.3366 12.5602 13.344 12.5545 13.3519C12.2559 13.783 12.2559 13.783 12.6236 14.1676C12.7745 14.3256 12.8907 14.4985 12.774 14.7234C12.6529 14.957 12.445 15.0168 12.1984 14.9803C11.6319 14.8965 11.6332 14.8977 11.3878 15.4389C11.3513 15.5192 11.3022 15.5956 11.2477 15.6648C11.1557 15.7806 11.0433 15.7499 10.9276 15.6985C10.8117 15.6472 10.8018 15.5602 10.8307 15.4543C10.8359 15.4352 10.8406 15.4158 10.8472 15.3972C10.9323 15.1576 11.1244 14.8903 11.0721 14.6867C11.024 14.5002 10.6963 14.4032 10.5249 14.2232C10.3957 14.087 10.2598 13.9571 10.1715 13.7877C10.1148 13.6786 10.0687 13.564 10.1683 13.4581C10.2583 13.3621 10.3742 13.3619 10.497 13.3899C10.6689 13.4293 10.7661 13.5419 10.826 13.6991C10.8859 13.8574 10.9471 14.0228 11.1047 14.1054C11.1915 14.1508 11.2763 14.3417 11.389 14.1847C11.4734 14.0669 11.6221 13.9117 11.425 13.7482C11.3806 13.7113 11.3486 13.658 11.3143 13.6094C11.1614 13.3929 11.0388 13.1672 11.173 12.8954C11.3118 12.6136 11.5641 12.4797 11.8527 12.5172C12.2936 12.5744 12.5545 12.4065 12.6961 11.9986C12.738 11.8773 12.8187 11.7749 12.9161 11.6886C13.0248 11.6863 13.1336 11.6844 13.2421 11.6821Z" fill="#FEFEFD"/>
<path fill-rule="evenodd" clip-rule="evenodd" d="M6.28093 16.9893C5.53541 16.7393 4.78965 16.4895 3.98865 16.221C4.85278 15.5776 5.74158 15.0633 6.62643 14.543C6.9823 14.9286 7.26368 15.3711 7.56899 15.7951C7.62916 15.8787 7.64544 15.9452 7.54729 16.0191C7.12311 16.3395 6.70264 16.6654 6.28093 16.9893Z" fill="#4C2120"/>
<path fill-rule="evenodd" clip-rule="evenodd" d="M4.54993 18.8835C4.37631 18.1472 4.2022 17.4111 4.02982 16.6745C3.98321 16.4756 4.09616 16.5198 4.20886 16.5567C4.83205 16.7616 5.45574 16.965 6.07943 17.1686C5.54427 17.7176 5.0286 18.2838 4.54993 18.8835Z" fill="#ED3438"/>
<path fill-rule="evenodd" clip-rule="evenodd" d="M18.5162 11.3687L18.7502 11.3915C18.7421 11.5059 18.6526 11.4689 18.5939 11.4689C17.3137 11.4704 16.0333 11.4729 14.7529 11.4696C14.721 11.4696 14.6969 11.4535 14.6702 11.4419C14.6409 11.2888 14.7208 11.2593 14.8532 11.2613C15.1871 11.267 15.5211 11.2626 15.8552 11.2621C16.5243 11.307 17.1938 11.3402 17.8649 11.3221C18.0802 11.3635 18.296 11.3952 18.5162 11.3687Z" fill="#8E4C51"/>
<path fill-rule="evenodd" clip-rule="evenodd" d="M14.6701 11.4419C15.9268 11.4419 17.1836 11.4429 18.4406 11.4405C18.5444 11.4402 18.6581 11.4777 18.7501 11.3916C19.3306 11.3921 19.9091 11.4233 20.4855 11.4955C18.5459 11.4973 16.6065 11.4992 14.6666 11.5012C14.6679 11.4814 14.6691 11.4618 14.6701 11.4419Z" fill="#8D5451"/>
<path fill-rule="evenodd" clip-rule="evenodd" d="M41.6511 17.8205C41.9594 17.8696 42.206 17.6735 42.479 17.5936C43.5286 17.2871 44.5986 17.1467 45.6815 17.2258C47.9144 17.3888 49.8601 18.2111 51.3625 19.9295C52.1921 20.8789 52.7001 21.988 52.8508 23.2558C52.9236 23.8661 52.9475 24.47 52.7934 25.0707C52.5958 25.775 52.1781 26.3546 51.7053 26.8828C50.1785 28.5888 48.2532 29.5032 45.9908 29.7418C44.3175 29.9181 42.7214 29.6471 41.2178 28.9083C39.3396 27.9854 38.0037 26.5582 37.4394 24.4965C37.231 23.7354 37.0917 22.9492 37.3376 22.1574C37.5361 21.4734 37.926 20.8933 38.3529 20.341C38.9978 19.5062 39.8059 18.8579 40.7196 18.3398C40.9773 18.0708 41.3226 17.9611 41.6511 17.8205Z" fill="#EE6CA2"/>
<path fill-rule="evenodd" clip-rule="evenodd" d="M37.3375 22.1572C37.2285 23.1961 37.3547 24.2042 37.7422 25.1744C38.1414 26.1741 38.7587 27.0144 39.5696 27.7217C40.6912 28.7001 41.9943 29.2834 43.4387 29.5631C44.4989 29.7682 45.5658 29.7709 46.6302 29.5842C48.0376 29.3374 49.3274 28.8067 50.4677 27.9335C51.4458 27.1845 52.2273 26.2714 52.7361 25.136C52.7474 25.1107 52.774 25.0923 52.7933 25.0708C52.6749 26.0588 52.2719 26.936 51.7025 27.7309C50.3294 29.6472 48.4354 30.7223 46.1386 31.0841C43.7063 31.4673 41.4591 30.9956 39.4776 29.4788C38.0502 28.3866 37.1636 26.9425 36.9459 25.1472C36.8228 24.1343 36.8919 23.112 37.3375 22.1572Z" fill="#BE5F8D"/>
<path fill-rule="evenodd" clip-rule="evenodd" d="M26.5147 16.3363C26.3914 17.9118 25.8134 19.3091 24.8619 20.5543C24.3423 21.2344 23.7248 21.8129 23.0168 22.2961C22.7864 22.4535 22.5669 22.4865 22.3006 22.4285C21.1235 22.1718 20.267 21.4672 19.6093 20.4908C18.7481 19.2119 18.3257 17.7648 18.0448 16.2668C17.9316 15.6634 17.8625 15.0541 17.8095 14.4425C17.7935 14.2568 17.8413 14.1923 18.0413 14.1744C19.2993 14.0613 20.5575 14.006 21.8177 14.1236C23.1058 14.2436 24.3709 14.4676 25.5584 15.0174C25.5675 15.0774 25.529 15.1017 25.4824 15.1201C25.3384 15.1513 25.2119 15.0856 25.0814 15.0444C24.0614 14.723 23.0185 14.5613 21.9504 14.4827C20.8128 14.3991 19.6914 14.4968 18.5654 14.6067C18.4073 14.6221 18.3057 14.6548 18.3341 14.8555C18.5757 16.5756 18.9829 18.2427 19.8988 19.7421C20.3395 20.4638 20.9124 21.0548 21.6841 21.4275C21.7728 21.4705 21.8638 21.5079 21.9551 21.5451C22.3188 21.6932 22.6293 21.6674 22.9672 21.4099C24.7147 20.0777 25.7998 18.33 26.2945 16.1947C26.3253 16.0617 26.2982 15.8837 26.494 15.8395C26.5759 16.002 26.5332 16.1696 26.5147 16.3363Z" fill="#8F4A51"/>
<path fill-rule="evenodd" clip-rule="evenodd" d="M32.5991 27.1498C32.6818 26.567 32.8221 26.0015 33.1449 25.5015C33.4662 25.0045 33.867 24.9388 34.3489 25.2858C34.5765 25.4497 34.7726 25.6665 34.9008 25.8991C34.6697 25.9837 34.4404 26.0692 34.2098 26.1513C34.1005 26.19 34.0801 26.2453 34.1464 26.3462C35.5171 28.424 37.07 30.2771 39.6449 30.8768C40.0101 30.9618 40.3786 31.0194 40.7534 31.0385C40.8435 31.0429 40.9532 31.002 41.0341 31.1191C40.3892 31.2741 39.7507 31.2076 39.125 31.1074C36.5082 30.6875 34.6894 29.2313 33.6734 26.7713C33.575 26.5322 33.5042 26.494 33.2973 26.6624C33.0426 26.8695 32.8218 27.1056 32.6063 27.3497C32.5604 27.2847 32.5661 27.2177 32.5991 27.1498Z" fill="#8F4A51"/>
<path fill-rule="evenodd" clip-rule="evenodd" d="M34.8737 11.8586C35.4991 11.8591 35.8428 12.0389 35.9763 12.4178C36.0907 12.7427 36.0051 12.961 35.6981 13.1301C35.3065 13.3456 34.8613 13.3134 34.4431 13.4051C33.8714 13.5309 33.2783 13.5604 32.7407 13.8359C32.4756 13.9716 32.1747 13.8555 32.0235 13.6058C31.877 13.363 31.9604 13.0416 32.2332 12.8198C32.8455 12.3223 33.5696 12.0833 34.3242 11.9211C34.5151 11.8802 34.7074 11.8286 34.8737 11.8586Z" fill="#F1C1D9"/>
<path fill-rule="evenodd" clip-rule="evenodd" d="M38.208 17.5486C38.2026 17.2956 38.2598 16.9975 38.4477 16.7396C38.6941 16.4013 39.0573 16.4038 39.3069 16.7396C39.63 17.1748 39.625 18.0545 39.2975 18.4783C39.0507 18.7975 38.702 18.797 38.4548 18.4774C38.295 18.27 38.2095 17.9692 38.208 17.5486Z" fill="#8F4A51"/>
<path fill-rule="evenodd" clip-rule="evenodd" d="M41.6512 17.8207C41.3876 18.0789 41.0192 18.1466 40.7198 18.34C40.323 17.8795 40.2302 17.1652 40.5028 16.6263C40.6135 16.4076 40.7632 16.2126 41.0317 16.2159C41.2991 16.2191 41.4441 16.414 41.5528 16.636C41.7395 17.0179 41.7292 17.4164 41.6512 17.8207Z" fill="#8F4A51"/>
<path fill-rule="evenodd" clip-rule="evenodd" d="M36.7464 12.8483C36.7538 12.475 37.1203 12.1499 37.5247 12.1574C37.8904 12.1643 38.2327 12.5224 38.2266 12.8912C38.2199 13.2796 37.8682 13.5978 37.4601 13.5846C37.0315 13.5712 36.738 13.2682 36.7464 12.8483Z" fill="#F1C1D9"/>
<path fill-rule="evenodd" clip-rule="evenodd" d="M25.4825 15.0863C25.5079 15.0635 25.5331 15.0406 25.5583 15.0181C25.8172 15.0945 26.0441 15.2343 26.268 15.3799C26.2742 15.4377 26.2372 15.4546 26.1906 15.4625C25.9435 15.3583 25.6485 15.3447 25.4825 15.0863Z" fill="#9C555D"/>
<path fill-rule="evenodd" clip-rule="evenodd" d="M26.2059 15.4317C26.2268 15.4144 26.2473 15.3968 26.2682 15.3794C26.6199 15.5835 26.66 15.7388 26.5164 16.3364C26.4691 16.1772 26.5675 16.0001 26.4574 15.8486C26.419 15.6822 26.264 15.5862 26.2059 15.4317Z" fill="#9F5760"/>
<path fill-rule="evenodd" clip-rule="evenodd" d="M53.6278 29.2964C53.5152 29.4177 53.3537 29.4521 53.2156 29.528C53.2895 29.3376 53.4554 29.3115 53.6278 29.2964Z" fill="#B46A77"/>
<path fill-rule="evenodd" clip-rule="evenodd" d="M29.6292 19.2949C29.6508 19.2962 29.6724 19.2972 29.694 19.2984C29.6759 19.3914 29.658 19.4841 29.6297 19.631C29.5598 19.4767 29.5789 19.3852 29.6292 19.2949Z" fill="#904B52"/>
<path fill-rule="evenodd" clip-rule="evenodd" d="M54.2085 29.1157C54.1195 29.1836 54.016 29.1861 53.9106 29.1802C53.9885 29.0859 54.1095 29.1082 54.2085 29.0708C54.2278 29.0807 54.2343 29.0906 54.2278 29.1008C54.2216 29.1107 54.2149 29.1157 54.2085 29.1157Z" fill="#A05961"/>
<path fill-rule="evenodd" clip-rule="evenodd" d="M54.2068 29.1154V29.0705C54.2869 29.0516 54.367 29.0325 54.4469 29.0137C54.4476 29.029 54.4469 29.0447 54.4449 29.0598C54.3782 29.1325 54.2921 29.1216 54.2068 29.1154Z" fill="#A05861"/>
<path fill-rule="evenodd" clip-rule="evenodd" d="M32.5995 27.1494C32.602 27.2161 32.6045 27.2828 32.6067 27.3493C32.5998 27.3806 32.5814 27.4398 32.5554 27.3828C32.5221 27.3094 32.5422 27.2196 32.5995 27.1494Z" fill="#A85F6A"/>
<path fill-rule="evenodd" clip-rule="evenodd" d="M25.9718 28.8832C25.9536 28.9021 25.9355 28.9211 25.9174 28.94L25.6776 28.6451C25.6491 28.5829 25.6801 28.5762 25.7309 28.5876C25.8113 28.686 25.8914 28.7847 25.9718 28.8832Z" fill="#A45C66"/>
<path fill-rule="evenodd" clip-rule="evenodd" d="M25.7321 28.5873C25.7143 28.6064 25.6964 28.6257 25.6788 28.6448C25.6012 28.5496 25.5235 28.4544 25.4459 28.3589C25.6017 28.3723 25.6649 28.4816 25.7321 28.5873Z" fill="#B06773"/>
<path fill-rule="evenodd" clip-rule="evenodd" d="M38.1717 47.8139C38.1555 47.7958 38.1392 47.7777 38.1233 47.7593C38.1434 47.708 38.1682 47.6043 38.2012 47.6266C38.2842 47.6824 38.224 47.7563 38.1717 47.8139Z" fill="#B26374"/>
<path fill-rule="evenodd" clip-rule="evenodd" d="M10.0111 21.3998C9.98319 21.594 9.96593 21.8333 9.91044 22.0632C9.87024 22.2291 9.92894 22.2943 10.0668 22.3523C10.3746 22.4818 10.6809 22.6157 10.9812 22.7611C11.1647 22.8501 11.232 23.0031 11.1571 23.2067C11.0836 23.4056 10.9879 23.5125 10.741 23.4359C10.4404 23.3426 10.1255 23.2821 9.84903 23.1326C9.64163 23.0202 9.57727 23.0936 9.48035 23.2697C9.23003 23.7248 8.89562 24.1164 8.47564 24.4242C8.29265 24.5581 8.09068 24.7032 7.86379 24.5053C7.69955 24.3622 7.70941 24.0192 7.86848 23.7878C7.96244 23.6514 8.10103 23.5795 8.24802 23.5165C8.44851 23.4307 8.63249 23.3287 8.76738 23.1412C9.0579 22.7372 9.05765 22.7288 8.59993 22.5255C8.49414 22.4783 8.42459 22.4848 8.34025 22.5639C8.21053 22.6852 8.0744 22.8012 7.93013 22.9044C7.29091 23.3612 6.58929 23.0696 6.43885 22.2913C6.38583 22.0166 6.37819 21.7388 6.38731 21.4618C6.39224 21.312 6.34341 21.2274 6.20876 21.1629C5.94217 21.0354 5.68545 20.8876 5.42132 20.7552C5.20776 20.6483 5.13007 20.4737 5.14043 20.2453C5.15079 20.0233 5.22897 19.8495 5.43316 19.7319C5.6487 19.6082 5.80999 19.6697 5.94168 19.8495C6.00013 19.9296 6.05216 20.009 6.13453 20.0685C6.53947 20.3619 6.5412 20.3644 6.72591 19.9212C6.81765 19.7009 6.96883 19.5365 7.17154 19.4227C7.43937 19.2726 7.67612 19.4056 7.67982 19.7138C7.68352 20.0191 7.58783 20.3028 7.40336 20.5444C7.26723 20.7227 7.29239 20.8239 7.49042 20.9268C7.70842 21.0404 7.9141 21.1795 8.11706 21.3192C8.23766 21.4022 8.32151 21.3988 8.41596 21.2805C8.5331 21.1342 8.66603 21.0002 8.79254 20.8614C9.05099 20.5781 9.31511 20.4861 9.57431 20.589C9.87049 20.7066 10.0256 20.9787 10.0111 21.3998Z" fill="#FEFEFE"/>
<path fill-rule="evenodd" clip-rule="evenodd" d="M18.3908 4.57926C18.5039 4.25884 18.2783 4.17129 18.0018 4.11425C17.8682 4.08648 17.7353 4.04531 17.6085 3.99422C17.4696 3.93842 17.4302 3.83153 17.4689 3.68025C17.5086 3.52549 17.607 3.50888 17.7353 3.52723C17.7545 3.52996 17.7747 3.52797 17.7942 3.53169C18.0332 3.57708 18.3128 3.71993 18.499 3.64082C18.6687 3.56865 18.7306 3.25145 18.8524 3.04982C18.955 2.88068 19.0793 2.72444 19.2389 2.60466C19.3345 2.53298 19.4423 2.46677 19.5627 2.55158C19.6699 2.62673 19.6995 2.74379 19.6852 2.86704C19.666 3.03469 19.5817 3.16167 19.4295 3.24227C19.2704 3.32709 19.1234 3.43125 19.0586 3.60808C19.0278 3.69265 18.8877 3.804 19.0312 3.87195C19.1516 3.929 19.3069 4.0644 19.45 3.8727C19.5202 3.77846 19.6073 3.69463 19.6966 3.6175C20.051 3.31122 20.5055 3.41042 20.6865 3.84567C20.7575 4.01604 20.8041 4.20725 20.8125 4.39127C20.8216 4.58968 20.9173 4.66557 21.0833 4.71641C21.2428 4.76526 21.4007 4.82379 21.5523 4.89323C21.8059 5.0093 21.8579 5.34435 21.6599 5.53606C21.5351 5.65684 21.4071 5.67866 21.2727 5.55292C21.2298 5.51299 21.193 5.46438 21.1454 5.4314C20.8857 5.25036 20.8214 5.27193 20.7232 5.56706C20.7141 5.59508 20.7102 5.62658 20.6951 5.65113C20.5923 5.81953 20.4912 6.03802 20.2564 5.96907C20.0115 5.8969 20.1183 5.65907 20.1148 5.48174C20.1146 5.4624 20.122 5.44281 20.124 5.42322C20.138 5.27962 20.3343 5.1214 20.2322 5.02815C20.0717 4.88207 19.8381 4.8161 19.6342 4.71938C19.5521 4.68045 19.5069 4.73997 19.4655 4.7975C19.3908 4.90191 19.319 5.00831 19.2426 5.11148C19.1185 5.27888 18.9683 5.40958 18.7444 5.34534C18.5067 5.27714 18.4004 5.09635 18.3912 4.8543C18.3883 4.77518 18.3908 4.69582 18.3908 4.57926Z" fill="#FDFEFD"/>
<path fill-rule="evenodd" clip-rule="evenodd" d="M31.4371 7.54475C31.61 7.71513 31.7757 7.87186 31.8135 8.11391C31.83 8.21932 31.8211 8.31678 31.7348 8.383C31.6472 8.45046 31.5451 8.43186 31.4554 8.38275C31.2877 8.29124 31.1501 8.16302 31.0618 7.9919C30.9954 7.86418 30.9173 7.84409 30.8075 7.93312C30.7999 7.93932 30.791 7.94403 30.7826 7.94899C30.281 8.24312 30.2788 8.24412 30.478 8.78526C30.552 8.9859 30.5693 9.1776 30.3967 9.33136C30.2208 9.4881 30.0193 9.47421 29.8181 9.377C29.774 9.35567 29.7333 9.32715 29.6918 9.30036C29.2578 9.01987 29.2578 9.01987 28.882 9.39535C28.6082 9.66865 28.4797 9.69395 28.3202 9.51365C28.2454 9.42908 28.2129 9.3517 28.3044 9.26093C28.3113 9.25399 28.3162 9.24506 28.3229 9.23787C28.5056 9.03326 28.8203 8.83734 28.8344 8.62183C28.8484 8.40259 28.5725 8.16004 28.4802 7.8979C28.4346 7.7677 28.3956 7.63428 28.3668 7.49936C28.3364 7.35825 28.3387 7.21441 28.495 7.14273C28.6432 7.07478 28.7614 7.15761 28.8667 7.25161C28.9784 7.35155 29.0045 7.48597 28.9956 7.63056C28.985 7.80118 28.9853 7.97652 29.1005 8.11094C29.1619 8.18311 29.153 8.39689 29.3209 8.29521C29.4442 8.22056 29.6208 8.1536 29.536 7.9108C29.4282 7.60253 29.3409 7.26277 29.6511 7.00608C29.9577 6.75238 30.2914 6.85058 30.5935 7.01179C30.8381 7.14248 31.0238 7.12835 31.213 6.92722C31.2995 6.83521 31.4139 6.76924 31.5155 6.69112C31.6537 6.58497 31.792 6.60977 31.9284 6.69211C32.066 6.77519 32.14 6.89423 32.1257 7.06164C32.1101 7.24441 31.9742 7.26004 31.8354 7.29501C31.6914 7.33097 31.5747 7.42918 31.4371 7.54475Z" fill="#FEFEFD"/>
<path fill-rule="evenodd" clip-rule="evenodd" d="M7.40091 10.3847C7.40091 10.5407 7.40757 10.6305 7.39968 10.7187C7.36935 11.0635 7.06453 11.2279 6.75577 11.0709C6.59917 10.9913 6.49214 10.8554 6.40977 10.7128C6.26822 10.4665 6.102 10.4571 5.87807 10.589C5.74367 10.6684 5.59619 10.7311 5.44748 10.7785C5.29508 10.8271 5.19569 10.7649 5.12639 10.6057C5.05487 10.4412 5.15401 10.3894 5.25488 10.3304C5.47461 10.2019 5.79274 10.13 5.89213 9.94026C5.9819 9.76914 5.82258 9.47327 5.79422 9.23023C5.77499 9.06407 5.78214 8.89294 5.79669 8.72604C5.80853 8.58616 5.84823 8.43513 6.01618 8.4138C6.20286 8.39024 6.30397 8.52639 6.36637 8.67768C6.42136 8.81085 6.39177 8.9485 6.34047 9.08267C6.28326 9.23172 6.23887 9.38672 6.30817 9.5442C6.3459 9.62976 6.29337 9.8108 6.46353 9.76567C6.59597 9.7307 6.79844 9.72549 6.78117 9.48964C6.7755 9.41127 6.78611 9.33117 6.79227 9.2523C6.83913 8.65362 7.31361 8.41851 7.82016 8.74241C7.84507 8.75828 7.87589 8.77093 7.89217 8.79349C8.19723 9.21411 8.56543 9.16277 8.96494 8.95073C9.15977 8.84756 9.32475 8.91353 9.45644 9.08391C9.55238 9.20791 9.55065 9.34257 9.49886 9.47774C9.4451 9.61786 9.32204 9.60967 9.19972 9.60447C9.12228 9.60124 9.04361 9.61141 8.96667 9.62257C8.76494 9.65183 8.66974 9.71011 8.80859 9.94026C8.95335 10.1801 8.89983 10.5186 8.75285 10.594C8.59107 10.6771 8.39206 10.5062 8.25395 10.1917C8.20537 10.0811 8.24581 9.86611 8.1013 9.87405C7.87145 9.88645 7.62953 9.95266 7.42533 10.0593C7.30473 10.1223 7.41226 10.3175 7.40091 10.3847Z" fill="#FEFEFD"/>
<path fill-rule="evenodd" clip-rule="evenodd" d="M22.7364 8.91288C22.9075 9.08301 23.0752 9.23901 23.1134 9.48081C23.1302 9.58547 23.1213 9.68343 23.0357 9.75064C22.9484 9.81933 22.8463 9.80098 22.7566 9.75237C22.5881 9.6616 22.4508 9.53314 22.3617 9.36226C22.2964 9.23628 22.2199 9.20999 22.1087 9.30101C22.1011 9.30721 22.0922 9.31192 22.0836 9.31688C21.5792 9.61151 21.5773 9.61225 21.777 10.1524C21.851 10.3525 21.87 10.5455 21.6974 10.6988C21.5109 10.8642 21.303 10.8386 21.0922 10.734C20.9109 10.6439 20.7696 10.4086 20.5671 10.4525C20.3763 10.4937 20.2475 10.7025 20.0976 10.8453C20.0127 10.9264 19.9166 11.009 19.7888 10.9959C19.5947 10.976 19.5084 10.7436 19.6406 10.5857C19.8103 10.383 20.1074 10.2067 20.1363 9.99046C20.1622 9.79478 19.8867 9.56811 19.8049 9.32258C19.755 9.17279 19.7025 9.02324 19.6667 8.86998C19.6339 8.72986 19.6372 8.58502 19.7925 8.51236C19.941 8.44267 20.0594 8.5255 20.1647 8.619C20.2766 8.71845 20.3038 8.85262 20.2949 8.99745C20.2845 9.16783 20.2843 9.34342 20.3987 9.47833C20.4606 9.55099 20.4527 9.76353 20.6187 9.66483C20.742 9.59142 20.9198 9.52421 20.8355 9.28117C20.7282 8.9729 20.6401 8.63313 20.9491 8.37571C21.2554 8.12101 21.5894 8.21872 21.8917 8.37992C22.1358 8.50988 22.3215 8.49872 22.5112 8.29709C22.5978 8.20483 22.7124 8.13911 22.8138 8.06074C22.9514 7.95435 23.0898 7.97741 23.2264 8.06C23.3637 8.14283 23.4387 8.26138 23.4251 8.42878C23.4104 8.61181 23.2757 8.62892 23.1364 8.66314C22.9918 8.69861 22.8757 8.79756 22.7364 8.91288Z" fill="#FEFEFD"/>
<path fill-rule="evenodd" clip-rule="evenodd" d="M12.0825 13.0071C12.0317 13.1045 11.9997 13.1881 11.9478 13.2568C11.9129 13.3034 11.9171 13.4498 11.8008 13.3575C11.7331 13.3042 11.6894 13.2164 11.7574 13.1229C11.827 13.0269 11.9205 12.9882 12.0825 13.0071Z" fill="#85C55F"/>
<path fill-rule="evenodd" clip-rule="evenodd" d="M11.9757 14.2642C12.0576 14.3051 12.1268 14.3408 12.1161 14.4221C12.1052 14.5032 12.0539 14.5754 11.9656 14.5779C11.9182 14.5794 11.8292 14.5573 11.8512 14.4817C11.8741 14.403 11.9333 14.3351 11.9757 14.2642Z" fill="#82C35A"/>
<path fill-rule="evenodd" clip-rule="evenodd" d="M40.5117 23.9566C39.4205 23.9603 38.8301 23.2656 38.9879 22.1633C39.2375 20.421 41.3293 18.5484 43.0561 18.5213C44.2233 18.503 44.8378 19.2403 44.6258 20.4039C44.3047 22.1655 42.2375 23.9509 40.5117 23.9566Z" fill="#8F4A50"/>
<path fill-rule="evenodd" clip-rule="evenodd" d="M47.1337 18.5259C48.4708 18.7253 49.747 19.4509 50.4817 20.9362C50.95 21.8834 50.4427 22.6256 49.3929 22.6241C49.1976 22.6239 48.9966 22.6085 48.8079 22.5614C47.5522 22.2469 46.542 21.5771 45.8582 20.4531C45.6759 20.1533 45.558 19.8225 45.5847 19.4673C45.6296 18.8642 46.1063 18.5237 47.1337 18.5259Z" fill="#8F4A50"/>
<path fill-rule="evenodd" clip-rule="evenodd" d="M26.206 15.4319C26.3386 15.5408 26.5608 15.5956 26.456 15.8488C26.2309 16.9207 25.8836 17.9459 25.3241 18.8928C24.6745 19.9917 23.8303 20.9046 22.7849 21.633C22.6148 21.7513 22.455 21.7754 22.2606 21.7238C21.2313 21.4505 20.4956 20.791 19.923 19.9238C19.1474 18.749 18.738 17.4303 18.4588 16.0643C18.372 15.6385 18.3165 15.206 18.2396 14.7779C18.2112 14.6205 18.2396 14.5528 18.4206 14.5319C20.0515 14.3454 21.6811 14.2919 23.3112 14.5369C24.053 14.6482 24.7729 14.8464 25.4824 15.086C25.7236 15.2013 25.9648 15.3166 26.206 15.4319Z" fill="#E386AD"/>
<path fill-rule="evenodd" clip-rule="evenodd" d="M7.1217 21.7183C7.35401 21.8172 7.55131 21.909 7.73775 22.0476C7.61567 22.1585 7.50938 22.2713 7.34736 22.2036C7.15722 22.1237 7.13379 21.9467 7.1217 21.7183Z" fill="#79C152"/>
<path fill-rule="evenodd" clip-rule="evenodd" d="M9.44596 21.7993C9.40133 21.8727 9.41538 22.0173 9.29824 21.9801C9.18258 21.9434 9.00674 21.927 8.99367 21.7663C8.98627 21.6792 9.0864 21.5805 9.19269 21.5917C9.30909 21.6036 9.407 21.674 9.44596 21.7993Z" fill="#7CC155"/>
<path fill-rule="evenodd" clip-rule="evenodd" d="M19.8687 4.21921C20.119 3.99179 20.1905 4.0156 20.2978 4.34891C20.1414 4.35685 20.0228 4.27253 19.8687 4.21921Z" fill="#7DC255"/>
<path fill-rule="evenodd" clip-rule="evenodd" d="M18.9066 4.64602C18.8322 4.61005 18.7409 4.59617 18.7474 4.49176C18.7511 4.43695 18.7551 4.35436 18.8414 4.38586C18.9158 4.41289 19.0408 4.39404 19.0413 4.51656C19.0415 4.58625 18.977 4.63262 18.9066 4.64602Z" fill="#86C55F"/>
<path fill-rule="evenodd" clip-rule="evenodd" d="M30.4151 7.48891C30.3507 7.54273 30.2956 7.59977 30.2304 7.64019C30.1704 7.67739 30.1252 7.78106 30.0354 7.71782C30.0069 7.69773 30.004 7.6273 30.0064 7.58067C30.0114 7.48841 30.0823 7.44873 30.1604 7.42393C30.252 7.39492 30.3298 7.43013 30.4151 7.48891Z" fill="#87C661"/>
<path fill-rule="evenodd" clip-rule="evenodd" d="M29.9232 8.72981C29.9071 8.84241 29.8379 8.88804 29.7439 8.89027C29.6839 8.89201 29.6179 8.8491 29.6266 8.79057C29.642 8.68492 29.7385 8.63259 29.831 8.61474C29.9056 8.60011 29.8841 8.6998 29.9232 8.72981Z" fill="#8BC765"/>
<path fill-rule="evenodd" clip-rule="evenodd" d="M7.7726 9.32822C7.66902 9.37038 7.60811 9.4056 7.54251 9.41899C7.47222 9.43337 7.39848 9.52638 7.33239 9.4428C7.30724 9.4113 7.32203 9.32326 7.34892 9.27986C7.39972 9.19703 7.48653 9.17123 7.5795 9.21315C7.63129 9.23621 7.67814 9.27118 7.7726 9.32822Z" fill="#84C45C"/>
<path fill-rule="evenodd" clip-rule="evenodd" d="M6.90171 10.3176C6.90915 10.4175 6.84095 10.457 6.76209 10.4785C6.66264 10.5058 6.60014 10.4426 6.59518 10.3597C6.58749 10.2338 6.71497 10.2566 6.78813 10.2253C6.8717 10.1899 6.88336 10.261 6.90171 10.3176Z" fill="#96CB74"/>
<path fill-rule="evenodd" clip-rule="evenodd" d="M21.7351 8.84029C21.6525 8.91073 21.6066 8.96603 21.5479 8.99554C21.4781 9.03051 21.4355 9.15799 21.3319 9.08235C21.304 9.06201 21.2993 8.98959 21.3067 8.9447C21.3255 8.82715 21.4192 8.78846 21.5213 8.78474C21.5768 8.78301 21.6332 8.81252 21.7351 8.84029Z" fill="#87C661"/>
<path fill-rule="evenodd" clip-rule="evenodd" d="M21.0614 10.2623C20.9872 10.2519 20.9123 10.2276 20.9282 10.1453C20.946 10.0545 21.0356 10.0091 21.1164 9.98455C21.1968 9.96049 21.2037 10.0488 21.2119 10.0944C21.2322 10.2075 21.1437 10.2363 21.0614 10.2623Z" fill="#8BC765"/>
<path d="M77.3644 30.3463C81.802 30.3463 85.5179 28.181 85.5179 23.6364C85.5179 19.3592 82.2565 18.3166 78.1664 18.3166C76.2951 18.3166 74.6644 18.5037 73.0872 18.7176V37.0295H77.3644V30.3463ZM77.3644 27.2721V21.3909C77.5515 21.3374 77.9525 21.2572 78.6208 21.2572C79.9307 21.2572 81.3743 21.8453 81.3743 24.1176C81.3743 26.5235 79.3961 27.2721 77.3644 27.2721Z" fill="#899197"/>
<path d="M91.7288 37.0295V23.476L87.7724 24.6523V37.0295H91.7288ZM91.4882 16.873L87.1041 18.1295V18.9849L89.5902 21.7117L91.2744 21.1235L91.9961 17.381L91.4882 16.873Z" fill="#899197"/>
<path d="M106.491 22.5404C105.342 22.6206 103.711 23.4493 102.989 24.1443C102.321 23.7433 101.385 23.476 99.9418 23.476C97.2151 23.476 94.5953 25.1334 94.5953 28.3414C94.5953 30.7206 96.0656 31.7899 96.7873 32.1107C96.0388 32.7255 95.0765 33.875 94.7557 34.677C94.8359 35.4255 95.317 36.0671 95.8784 36.4146C94.9695 37.1364 94.0339 38.2859 94.0339 39.4622C94.0339 41.1463 96.2527 42.5899 99.4606 42.5899C102.856 42.5899 106.866 41.173 106.866 37.1097C106.866 34.4364 103.978 34.1156 101.252 34.0622C98.4715 34.0087 98.418 33.7948 98.418 33.4473C98.418 33.1532 98.6854 32.7255 98.926 32.5117C99.2467 32.5651 99.6745 32.5651 100.022 32.5651C102.642 32.5651 105.181 31.2285 105.181 28.2344C105.181 27.2988 104.861 26.3631 104.486 25.8018C105.048 25.5879 106.277 25.4008 106.892 25.4008L106.491 22.5404ZM101.733 28.4216C101.733 29.277 101.225 29.9721 100.102 29.9721C98.819 29.9721 98.0972 29.0097 98.0972 27.7532C98.0972 26.7374 98.819 26.1226 99.7547 26.1226C100.931 26.1226 101.733 27.0047 101.733 28.4216ZM97.9636 37.0295C101.973 37.0295 103.176 37.1899 103.176 38.2325C103.176 39.3552 101.786 39.8631 100.209 39.8631C98.418 39.8631 97.4824 39.275 97.4824 38.2592C97.4824 37.7245 97.723 37.2968 97.9636 37.0295Z" fill="#899197"/>
<path d="M119.884 22.5404C118.734 22.6206 117.104 23.4493 116.382 24.1443C115.713 23.7433 114.778 23.476 113.334 23.476C110.608 23.476 107.988 25.1334 107.988 28.3414C107.988 30.7206 109.458 31.7899 110.18 32.1107C109.431 32.7255 108.469 33.875 108.148 34.677C108.228 35.4255 108.709 36.0671 109.271 36.4146C108.362 37.1364 107.426 38.2859 107.426 39.4622C107.426 41.1463 109.645 42.5899 112.853 42.5899C116.248 42.5899 120.258 41.173 120.258 37.1097C120.258 34.4364 117.371 34.1156 114.644 34.0622C111.864 34.0087 111.81 33.7948 111.81 33.4473C111.81 33.1532 112.078 32.7255 112.318 32.5117C112.639 32.5651 113.067 32.5651 113.414 32.5651C116.034 32.5651 118.574 31.2285 118.574 28.2344C118.574 27.2988 118.253 26.3631 117.879 25.8018C118.44 25.5879 119.67 25.4008 120.285 25.4008L119.884 22.5404ZM115.125 28.4216C115.125 29.277 114.617 29.9721 113.495 29.9721C112.211 29.9721 111.49 29.0097 111.49 27.7532C111.49 26.7374 112.211 26.1226 113.147 26.1226C114.323 26.1226 115.125 27.0047 115.125 28.4216ZM111.356 37.0295C115.366 37.0295 116.569 37.1899 116.569 38.2325C116.569 39.3552 115.179 39.8631 113.602 39.8631C111.81 39.8631 110.875 39.275 110.875 38.2592C110.875 37.7245 111.115 37.2968 111.356 37.0295Z" fill="#899197"/>
<path d="M127.662 33.5542H127.582L124.615 23.476L120.632 24.679L124.588 37.0295H126.112L123.412 41.8948L127.235 42.9107L134.506 23.877H130.469L127.662 33.5542Z" fill="#899197"/>
</svg>
