<svg fill="none" height="262" viewBox="0 0 317 262" width="317" xmlns="http://www.w3.org/2000/svg"><path d="m0 0h317v262h-317z" fill="#fff"/><g clip-rule="evenodd" fill-rule="evenodd"><path d="m132.882 226.133c-.68-1.071-.68-1.071-3.388-1.44.484-2.12.853-2.522 2.098-2.258 1.475.323 1.809 1.198 1.29 3.698z" fill="#fffffe"/><path d="m128.55 234.36c2.085.519 2.212-.046 1.901 2.902-1.521-.655-3.029-1.496-4.722-.288.195-1.807 1.393-2.972 2.821-2.614z" fill="#fffffe"/><path d="m127.72 237.482c1.348.035 2.823 1.358 2.731 2.476-.058.806-.968 1.268-2.523 1.268-1.947 0-2.973-.6-2.927-1.693.035-.956 1.533-2.075 2.719-2.051z" fill="#fffffe"/><path d="m128.701 227.043c.357-1.106 1.198-1.277 2.016-1.014.438.15.968.946.945 1.43-.115 2.062-.403 4.125-.622 6.116-1.647-.149-3.03-.263-4.493-.391.703-1.981 1.475-4.043 2.154-6.141z" fill="#fffffe"/><path d="m127.72 237.482c-1.186-.024-2.684 1.094-2.719 2.051-.046 1.093.98 1.693 2.927 1.693 1.555 0 2.465-.462 2.523-1.268.092-1.118-1.383-2.442-2.731-2.476zm.83-3.122c-1.428-.359-2.626.806-2.821 2.614 1.693-1.209 3.201-.368 4.722.288.311-2.948.184-2.384-1.901-2.902zm-3.433-.772c1.394-3.295 2.327-6.787 3.491-10.173.611-1.763 1.452-2.293 2.869-2.144 2.327.253 2.673 1.418 2.742 3.122.046 1.142-.035 2.304-.254 3.422-.115.622-.714 1.13-.979 1.74-.288.656-.542 1.36-.622 2.063-.254 2.315-.53 4.63-.622 6.946-.104 2.708-1.118 3.814-3.825 3.906-.749-.138-1.521-.184-2.235-.415-1.141-.369-1.809-1.141-1.774-2.443.046-2.084.368-4.032 1.209-6.024zm5.922-.013c.219-1.992.507-4.054.622-6.116.023-.484-.507-1.28-.945-1.429-.818-.264-1.659-.093-2.016 1.013-.68 2.098-1.452 4.16-2.155 6.141 1.463.127 2.846.241 4.494.391zm.554-11.14c-1.244-.264-1.613.138-2.097 2.258 2.707.37 2.707.37 3.387 1.44.519-2.5.185-3.374-1.29-3.698z" fill="#374b5a"/><path d="m109.311 236.064c1.209-.092 2.05-.576 2.615-1.658 1.405-2.638 2.822-5.277 4.286-7.88.195-.347.656-.553 1.025-.772.034-.023.276.299.403.438-.173.345-.288.599-.426.851-1.175 2.212-2.523 4.366-3.514 6.671-1.256 2.926-3.595 3.652-6.417 3.78-.703.023-1.406.194-2.12.206-.323 0-.645-.229-.968-.346.242-.252.45-.668.726-.714 1.452-.252 2.915-.472 4.39-.576z" fill="#374b5a"/><path d="m93.7695 233.842c-.0346-.15-.0691-.3-.1152-.45.7258-.219 1.4401-.426 2.2696-.681-.1728 1.533-.7028 1.741-2.1544 1.131z" fill="#fffffe"/><path d="m92.5598 233.646c-.0461-1.072 1.2673-1.982 2.7304-1.913 1.0945.035 1.8548.473 1.8664 1.693.0115.968-1.2443 1.902-2.5461 1.902-.9447-.185-1.9816-.346-2.0507-1.682zm1.0945-.254c.0461.15.0806.299.1152.449 1.4516.611 1.9816.402 2.1544-1.13-.8295.255-1.5438.462-2.2696.681z" fill="#374b5a"/><path d="m92.3164 237.77h6.8551c.3111-.012.6222-.092.9335-.138.046-.185.092-.38.15-.566-.5535-.149-1.1065-.426-1.648-.426-1.3365-.011-2.6614-.011-3.9979-.011v-1.301c1.3019 0 2.5578-.934 2.5462-1.903-.0115-1.22-.7719-1.657-1.8664-1.692l.0115-.507c.4033 0 .818.012 1.2213.034 4.2973.185 8.5833.496 12.8803.738.3.012.715-.127.876-.334.83-1.095 1.648-2.212 2.362-3.387 1.048-1.728.438-2.846-1.59-2.87l-.012-.828c1.567-.023 3.134-.036 4.701-.046 2.558-.023 3.399 1.162 2.397 3.548-1.072 2.523-2.316 4.988-3.411 7.51-.841 1.926-2.419 2.836-4.343 2.997-3.814.323-7.627.506-11.4409.668-2.2121.092-4.4241.022-6.6247.022 0-.126 0-.242 0-.356zm14.9666-.276c2.822-.128 5.161-.854 6.417-3.78.991-2.304 2.339-4.459 3.514-6.671.138-.252.253-.505.426-.851-.127-.138-.369-.461-.403-.438-.369.219-.83.425-1.025.772-1.464 2.604-2.881 5.242-4.286 7.88-.565 1.082-1.406 1.566-2.615 1.658-1.475.104-2.938.324-4.39.576-.276.046-.484.462-.726.714.323.117.645.346.968.346.714-.012 1.417-.183 2.12-.206z" fill="#b4b5b4"/><path d="m93.5037 229.936c-2.5807-.127-5.1613-.024-7.742-.024.0922-1.774.9562-2.638 2.8917-2.731 1.4286-.068 2.8687 0 4.3088-.022 4.9309-.103 9.8618-.208 14.7808-.345 1.36-.035 2.719-.219 4.263-.358-.737 2.996-2.523 4.516-5.069 4.367-4.482-.242-8.9517-.658-13.4333-.887z" fill="#fffffe"/><path d="m107.743 226.814c-4.919.137-9.8499.242-14.7808.346-1.4401.022-2.8802-.046-4.3088.022-1.9355.092-2.7995.956-2.8917 2.73 2.5807 0 5.1613-.102 7.742.024 4.4816.23 8.9513.646 13.4333.888 2.546.148 4.332-1.371 5.069-4.368-1.544.139-2.903.324-4.263.358zm-20.2292-.542c2.2004-.126 4.4008-.022 6.6012-.022 0-.196 0-.38 0-.576 4.4008 0 8.813.022 13.214-.012 1.244-.013 2.477-.265 3.721-.254 2.028.024 2.638 1.141 1.59 2.869-.715 1.175-1.532 2.293-2.362 3.387-.161.208-.576.346-.875.334-4.298-.242-8.583-.553-12.8803-.738-.4032-.022-.8179-.034-1.2211-.034-2.5115-.08-5.0114-.046-7.5113-.08-.1037 0-.1959.011-.288 0-1.1175-.184-2.7303.552-3.0299-1.28-.2419-1.497 1.4516-3.502 3.0414-3.594z" fill="#374b5a"/><path d="m95.2897 231.733c-1.4632-.069-2.7766.841-2.7305 1.913.0691 1.336 1.106 1.498 2.0508 1.682v1.302c-4.0785-.023-8.1686-.023-12.2471 0-.5761 0-1.1406.16-1.7167.242.6107.298 1.2213.599 1.8434.898.0346.012.0922 0 .1383 0h9.6893v1.152c-4.2167 0-8.445.022-12.6618-.011-1.9471-.023-2.7421-1.141-1.7858-2.915 1.348-2.5 2.9955-4.839 4.5624-7.212.3802-.6.9448-1.083 1.371-1.649 1.348-1.774 3.2951-2.268 5.3229-2.304 7.3044-.125 14.6091-.196 21.9131-.252l.012.828c-1.245-.01-2.477.242-3.722.255-4.401.033-8.8133.011-13.2144.011v.576c-2.2006 0-4.4012-.103-6.6017.022-1.5899.092-3.2836 2.098-3.0416 3.595.2995 1.832 1.9125 1.095 3.0301 1.28.0921.011.1843 0 .288 0 2.5001.034 5.0002 0 7.5118.08z" fill="#b4b5b4"/><path d="m99.1719 237.77c-2.2811 0-4.5737 0-6.8548 0-3.2259 0-6.4517 0-9.689 0-.0461 0-.1037.012-.1383 0-.6221-.299-1.2327-.6-1.8433-.898.576-.082 1.1405-.242 1.7166-.242 4.0783-.023 8.1682-.023 12.2466 0 1.3364 0 2.6613 0 3.9977.01.5415 0 1.0945.278 1.6476.426-.058.186-.104.382-.15.566-.311.046-.622.127-.9331.138z" fill="#374b5a"/><path d="m111.038 224.579c-7.304.056-14.6084.126-21.9126.252-2.0277.036-3.9747.53-5.3226 2.304-.4263.566-.9908 1.048-1.371 1.649-1.5668 2.373-3.2143 4.712-4.5622 7.212-.9562 1.774-.1613 2.891 1.7857 2.915 4.2166.033 8.4448.011 12.6614.011v.356c2.2004 0 4.4124.07 6.6244-.022 3.8139-.162 7.6269-.345 11.4399-.668 1.924-.161 3.503-1.072 4.344-2.997 1.094-2.522 2.338-4.987 3.41-7.51 1.002-2.386.161-3.571-2.397-3.548-1.566.01-3.133.023-4.7.046zm-20.5175-.854c2.9493.07 5.8986-.15 8.8594-.242.4724-.022.9451-.102 1.4171-.102 4.989-.012 9.977.069 14.966-.036 2.972-.058 4.861 1.983 3.467 5.046-1.221 2.684-2.396 5.369-3.675 8.031-1.083 2.247-3.099 3.157-5.449 3.34-4.424.347-8.86.576-13.2837.854-.0115-.186-.0115-.37-.023-.542-5.7028 0-11.4056.092-17.1084-.046-2.8111-.057-4.0092-1.464-2.9724-4.216 1.6245-4.275 4.3779-7.846 7.8111-10.785 1.613-1.381 3.8365-1.348 5.9909-1.302z" fill="#374b5a"/><path d="m255.182 160.307c.184-5.012.105-10.046-.092-15.071-.173-4.388-.898-8.754-1.001-13.145-.174-7.523-.047-15.058-.047-22.58-.195 0-.404 0-.6 0 0-7.58.15-15.1609-.046-22.7427-.161-6.4044-.701-12.7985-1.094-19.1925-.288-4.9079-4.228-8.6763-9.171-8.7904-4.458-.1037-8.916-.2661-13.374-.2431-10.267.0357-20.532.2201-30.797.2201-7.811 0-15.633-.197-23.443-.2535-13.861-.1267-27.72-.2316-41.568-.288-4.171-.0115-8.353.2984-12.512.2535-8.007-.1037-16.002-.2765-23.9967-.5876-4.1025-.1625-8.1809-.8525-12.2708-.9908-4.4009-.1382-8.8134 0-13.2028.2293-2.1659.1163-3.7788 1.4401-4.712 3.4689-.4032.8974-.8526 1.7972-1.2212 2.7189-1.7512 4.2857-1.8088 8.871-1.9586 13.3641-.4377 12.8457-.6336 25.6898-.9216 38.5368-.1844 7.914-.4378 15.817-.5069 23.722-.1037 10.599-.0922 21.198-.0565 31.796.0104 3.584 1.1394 5.092 3.9966 5.945.7258.22 1.4758.358 2.2235.437 2.523.242 5.0461.555 7.5692.647 4.0207.149 8.053.253 12.0737.149 4.1014-.116 8.1913-.6 12.3041-.771 4.355-.185 8.721-.196 13.088-.277 4.262-.082 8.537-.324 12.788-.185 6.083.185 12.143.829 18.214.98 10.265.242 20.531.207 30.795.334 5.853.08 11.705.392 17.546.333 12.041-.114 24.08-.402 36.107-.634 5.184-.102 10.357-.217 15.541-.39 2.477-.082 4.966-.219 7.432-.507.852-.092 1.728-.415 1.808-1.774.288-4.909.934-9.806 1.106-14.712zm2.339 42.662c3.388-.451 5.23-.715 5.956-4.655-1.636.15-3.249.288-4.85.448-5.644.555-11.268 1.407-16.923 1.614-9.253.335-18.504.264-27.755.346-3.685.035-7.384-.036-11.06.081-6.417.196-12.833.53-19.251.747-.829.025-1.671.046-2.5.046-1.233 0-2.453-.033-3.675-.102-5.346-.311-10.68-.818-16.026-1.025-6.083-.231-12.177-.323-18.26-.267-9.781.082-19.563.359-29.344.497-7.661.104-15.3224.207-22.9952.172-5.7489-.022-11.4978-.334-17.2466-.402-2.8687-.035-5.7489.345-8.6176.217-4.5161-.206-9.0784-.494-12.9033-4.204.6797 3.202 2.0968 5.473 4.2857 7.28.2996.255.7835.37 1.1982.405 2.6728.218 5.3341.506 8.007.564 4.9424.116 9.8848 0 14.8272.137 5.8411.163 11.6706.623 17.5116.715 5.369.092 10.737-.126 16.106-.253 11.982-.265 23.963-.587 35.945-.829 10.403-.209 20.808-.426 31.21-.508 1.198-.011 2.409-.011 3.606-.022 5.553-.035 11.106.321 16.66.518 1.577.058 3.144.219 4.722.288 4.495.219 8.987.667 13.468.553 7.846-.195 15.68-.691 23.514-1.163 4.804-.277 9.621-.565 14.39-1.198zm6.175-5.981c.886-2.764-.128-5.081-1.625-7.257-2.119-3.054-4.285-6.084-6.429-9.125-1.187-1.682-2.339-3.421-4.873-2.35-.208.092-.471.011-.713.011-4.701.116-9.401.231-14.103.334-12.615.277-25.219.668-37.833.784-9.782.091-19.575-.116-29.356-.265-4.931-.069-9.862-.161-14.793-.253-5.38-.092-10.76-.209-16.141-.323-1.578-.035-3.145-.231-4.723-.299-3.871-.185-7.754-.462-11.625-.451-4.884.024-9.769.266-14.666.473-6.44.266-12.8914.692-19.343.83-7.5461.162-15.0807.137-22.7421-1.67-4.1129 5.864-8.2719 11.784-12.477 17.765 1.9585 1.809 3.7903 3.133 6.0599 3.502 2.5346.402 5.0922.772 7.6499.84 4.9781.128 9.9539.013 14.9424.036 6.7512.056 13.5139.288 20.2649.196 8.111-.116 16.233-.576 24.344-.692.795-.012 1.578-.024 2.373-.024 12.281-.068 24.563.14 36.843.242.288 0 .576.024.864.046 4.851.37 9.701.934 14.563 1.038 4.343.104 8.71-.392 13.066-.484 4.595-.092 9.192.034 13.789-.07 4.264-.092 8.514-.448 12.776-.517 9.587-.151 19.184-.173 28.768-.334 2.039-.035 4.067-.461 6.094-.739 3.043-.402 6.095-.828 9.045-1.244zm-.242-7.143c2.453 3.572 1.9 7.305.368 11.003-.805 1.97-2.685 2.708-4.596 2.984-3.538.519-7.086.899-10.646 1.198-5.379.448-10.772.91-16.164 1.106-6.659.242-13.317.356-19.977.277-4.631-.046-9.251-.553-13.881-.785-4.829-.23-9.667-.563-14.505-.53-11.695.082-23.4.324-35.094.566-11.889.242-23.767.553-35.656.818-5.323.127-10.646.356-15.9567.252-6.371-.114-12.7305-.598-19.0899-.794-4.0323-.126-8.0646.047-12.0969-.057-2.9147-.069-5.8295-.288-8.7212-.611-.8871-.092-1.9931-.53-2.5115-1.198-1.3365-1.764-2.5692-3.64-3.5254-5.634-.9447-1.947-.0691-3.871 1.0484-5.495 3.318-4.794 6.7281-9.494 10.1152-14.228.4378-.622.9332-1.198 1.4747-1.891-2.3963-1.59-2.5461-4.054-2.5691-6.324-.1152-9.977-.1152-19.965-.0116-29.942.0922-9.827.3341-19.655.5542-29.482.2523-11.3132.4597-22.6381.8975-33.9516.1728-4.4021.1497-8.9171 1.705-13.1348.7143-1.9344 1.659-3.8468 2.8226-5.5404 1.7973-2.6497 4.8388-2.8122 7.6153-2.7765 5.9217.0807 11.8434.5069 17.7777.7834 4.3883.2074 8.7897.4378 13.1787.5876 3.836.1498 7.673.2765 11.509.2765 4.171 0 8.341-.265 12.512-.2535 15.115.0565 30.219.1729 45.335.2881 8.294.0564 16.589.2534 24.896.2534 7.569 0 15.149-.2431 22.73-.2431 6.718-.0103 13.445-.0795 20.138.3341 5.727.3583 9.874 3.5611 10.312 9.9667.449 6.5438.898 13.0876 1.13 19.6314.242 6.8549.242 13.7217.321 20.5877.117 8.157.092 16.313.334 24.459.139 4.389.831 8.766 1.014 13.144.209 4.782.301 9.585.115 14.356-.194 5.057-.576 10.114-1.254 15.127-.312 2.269.448 3.755 1.704 5.413 2.315 3.065 4.47 6.279 6.648 9.459z" fill="#374b5a"/><path d="m262.071 189.731c1.498 2.176 2.512 4.493 1.626 7.257-2.951.416-6.003.842-9.045 1.244-2.028.278-4.055.704-6.095.738-9.584.162-19.181.184-28.767.335-4.263.069-8.513.425-12.777.517-4.596.104-9.193-.022-13.789.07-4.356.092-8.722.588-13.066.484-4.861-.104-9.712-.668-14.562-1.038-.288-.022-.576-.046-.864-.046-12.28-.103-24.562-.31-36.843-.242-.795 0-1.579.011-2.374.024l-.023-1.82c2.258-.046 4.505-.266 6.751-.254 15.392.116 30.785.265 46.176.404v.16h7.626c.669 0 1.348.057 2.017-.022 1.556-.174 1.994-1.118.98-2.329-.969-1.162-2.086-2.222-3.227-3.224-.541-.474-1.278-.958-1.957-1.004-2.651-.195-5.323-.321-7.974-.321v-1.475c1.579.012 3.157.012 4.735.012 12.513.023 25.023.01 37.535.01h16.407c.817 0 1.646.092 2.442-.033.772-.127 1.566-.405.978-1.521-.956-1.844-1.866-3.71-2.856-5.53-.554-1.037-1.36-1.706-2.651-1.567-1.231.138-2.476.206-3.721.299-4.24.323-8.468.796-12.707.934-5.657.184-11.325.275-16.969.115-6.407-.173-12.801-.704-19.207-1.037-3.917-.208-7.845-.38-11.774-.461-4.712-.115-9.424-.253-14.147-.323l.023-1.22c4.931.092 9.861.184 14.792.253 9.781.149 19.574.356 29.356.265 12.615-.116 25.218-.507 37.834-.784 4.701-.103 9.402-.218 14.102-.335.242 0 .506.082.713-.01 2.535-1.071 3.687.668 4.874 2.35 2.144 3.041 4.31 6.071 6.428 9.125z" fill="#fffffe"/><path d="m248.834 164.904c.207-9.355.554-18.71.53-28.054-.046-16.982-.3-33.963-.53-50.9454-.068-5.5519-.346-11.1049-.565-16.6591-.103-2.3272-.989-3.5818-3.201-3.8134-5.035-.5299-10.094-1.0829-15.14-1.1164-11.404-.0921-22.822.0922-34.24.242-7.096.0795-14.181.2984-21.277.4723-11.603.2881-23.193.6452-34.794.8641-7.201.1371-14.39.0115-21.59.1141-4.355.0691-8.71.4274-13.065.5195-2.488.0565-4.9883-.2995-7.4653-.2315-7.765.2085-15.507.5541-23.272.7845-2.9378.0922-3.1222.2189-3.3065 3.0991-.288 4.4816-.7143 8.9517-.8871 13.4333-.3226 8.4793-.6797 16.9579-.7258 25.4379-.0461 9.631.3687 19.274.3226 28.906-.0461 10.011-.4493 20.023-.5991 30.033-.0346 2.558.1613 3.723 2.1083 4.367.7604.253 1.5784.416 2.3733.427 4.5507.035 9.1014.081 13.6406.023 12.949-.173 25.887-.496 38.837-.543 12.177-.056 24.366.163 36.544.255.391 0 .771.023 1.152.033 5.542.267 11.094.797 16.636.739 11.981-.105 23.941-.518 35.91-.772 4.136-.081 8.26-.013 12.385-.013h14.228 4.182c1.048 0 1.545-.472 1.555-1.578.036-2.003.208-4.02.254-6.024zm6.256-19.668c.197 5.025.276 10.059.092 15.071-.172 4.906-.818 9.803-1.106 14.712-.08 1.359-.956 1.682-1.808 1.774-2.466.288-4.955.425-7.432.507-5.184.173-10.357.288-15.541.39-12.027.232-24.066.52-36.107.634-5.841.059-11.693-.253-17.546-.333-10.264-.127-20.53-.092-30.795-.334-6.071-.151-12.131-.795-18.214-.98-4.251-.139-8.526.103-12.788.185-4.367.081-8.733.092-13.088.277-4.1128.171-8.2027.655-12.3041.771-4.0207.104-8.053 0-12.0737-.149-2.5231-.092-5.0462-.405-7.5692-.647-.7477-.079-1.4977-.217-2.2235-.437-2.8572-.853-3.9862-2.361-3.9966-5.945-.0357-10.598-.0472-21.197.0565-31.796.0691-7.905.3225-15.808.5069-23.722.288-12.847.4839-25.6911.9216-38.5368.1498-4.4931.2074-9.0784 1.9586-13.3641.3686-.9217.818-1.8215 1.2212-2.7189.9332-2.0288 2.5461-3.3526 4.712-3.4689 4.3894-.2293 8.8019-.3675 13.2028-.2293 4.0899.1383 8.1683.8283 12.2708.9908 7.9947.3111 15.9897.4839 23.9967.5876 4.159.0449 8.341-.265 12.512-.2535 13.848.0564 27.707.1613 41.568.288 7.81.0565 15.632.2535 23.443.2535 10.265 0 20.53-.1844 30.797-.2201 4.458-.023 8.916.1394 13.374.2431 4.943.1141 8.883 3.8825 9.171 8.7904.393 6.394.933 12.7881 1.094 19.1925.196 7.5818.046 15.1627.046 22.7427h.6c0 7.522-.127 15.057.047 22.58.103 4.391.828 8.757 1.001 13.145z" fill="#fffffe"/><path d="m248.2 139.8c.046-10.981-.056-21.97-.23-32.95-.196-12.4538-.552-24.9193-.853-37.3732-.046-2.166-.829-3.0415-3.005-3.1809-5.209-.3445-10.415-.8641-15.611-.8411-13.917.0461-27.812.2881-41.718.5312-13.134.2304-26.266.6209-39.401.841-15.91.2534-31.832.356-47.7424.6106-9.0092.1497-18.007.4723-27.143.7143-.1613.6797-.3571 1.1751-.402 1.682-.4044 5.0922-.8998 10.1844-1.1302 15.2881-.2996 7.1314-.5069 14.2743-.553 21.417-.045 7.523.1613 15.057.2189 22.58.0576 7.477.1728 14.943.0806 22.419-.0564 5.507-.5069 11.004-.5875 16.51-.045 3.054.5645 3.456 3.2258 3.548 4.7811.174 9.5738.104 14.3549.046 12.8569-.15 25.7029-.46 38.5489-.518 11.889-.045 23.779.15 35.68.243.381 0 .761.023 1.152.033 5.679.278 11.372.818 17.062.762 12.409-.104 24.804-.599 37.212-.772 9.493-.139 18.998-.023 28.491-.023h1.463c.127-2.097.311-3.953.357-5.819.208-8.582.507-17.165.53-25.748zm1.164-2.95c.024 9.344-.323 18.699-.53 28.054-.046 2.004-.218 4.021-.254 6.024-.01 1.106-.507 1.578-1.555 1.578-1.394 0-2.788 0-4.182 0-4.747 0-9.482 0-14.228 0-4.125 0-8.249-.068-12.385.013-11.969.254-23.929.667-35.91.772-5.542.058-11.094-.472-16.636-.739-.381-.01-.761-.033-1.152-.033-12.178-.092-24.367-.311-36.544-.255-12.95.047-25.888.37-38.837.543-4.5392.058-9.0899.012-13.6406-.023-.7949-.011-1.6129-.174-2.3733-.427-1.947-.644-2.1429-1.809-2.1083-4.367.1498-10.01.553-20.022.5991-30.033.0461-9.632-.3687-19.275-.3226-28.906.0461-8.48.4032-16.9586.7258-25.4379.1728-4.4816.5991-8.9517.8871-13.4333.1843-2.8802.3687-3.0069 3.3065-3.0991 7.765-.2304 15.507-.576 23.272-.7845 2.477-.068 4.9773.288 7.4653.2315 4.355-.0921 8.71-.4504 13.065-.5195 7.2-.1026 14.389.023 21.59-.1141 11.601-.2189 23.191-.576 34.794-.8641 7.096-.1739 14.181-.3928 21.277-.4723 11.418-.1498 22.836-.3341 34.24-.242 5.046.0335 10.105.5865 15.14 1.1164 2.212.2316 3.098 1.4862 3.201 3.8134.219 5.5542.497 11.1072.565 16.6591.23 16.9824.484 33.9634.53 50.9454z" fill="#374b5a"/><path d="m247.97 106.85c.174 10.98.276 21.969.23 32.95-.023 8.583-.322 17.166-.53 25.748-.046 1.866-.23 3.722-.357 5.819-.461 0-.955 0-1.463 0-9.493 0-18.998-.116-28.491.023-12.408.173-24.803.668-37.212.772-5.69.056-11.383-.484-17.062-.762-.391-.01-.771-.033-1.152-.033-11.901-.093-23.791-.288-35.68-.243-12.846.058-25.692.368-38.5489.518-4.7811.058-9.5738.128-14.3549-.046-2.6613-.092-3.2708-.494-3.2258-3.548.0806-5.506.5311-11.003.5875-16.51.0922-7.476-.023-14.942-.0806-22.419-.0576-7.523-.2639-15.057-.2189-22.58.0461-7.1427.2534-14.2856.553-21.417.2304-5.1037.7258-10.1959 1.1302-15.2881.0449-.5069.2407-1.0023.402-1.682 9.136-.242 18.1338-.5646 27.143-.7143 15.9104-.2546 31.8324-.3572 47.7424-.6106 13.135-.2201 26.267-.6106 39.401-.841 13.906-.2431 27.801-.4851 41.718-.5312 5.196-.023 10.402.4966 15.611.8411 2.176.1394 2.959 1.0149 3.005 3.1809.301 12.4539.657 24.9194.853 37.3732z" fill="#eff2f5"/><path d="m85.872 185.779c-2.6958-.057-3.1797.356-3.076 2.661 1.9712.127 2.2004-1.543 3.076-2.661zm1.796-3.135c-1.682-.529-2.5345.335-3.0645 1.903 1.5899.218 2.7189-.208 3.0645-1.903zm3.6524 2.697c-3.2373-.393-4.6083.346-5.4493 2.96 3.9286.174 4.1014.081 5.4493-2.96zm1.8551-2.939c-3.7443-.402-3.9632-.321-4.7927 1.844 3.3065.231 4.136-.092 4.7927-1.844zm-1.82 5.565c4.6198.484 5.3802.116 6.1751-3.076-2.4078.404-5.4493-.564-6.1751 3.076zm7.4537-5.979c-1.7166.588-3.9401-.679-4.9654 1.959 3.5368.265 4.47-.081 4.9654-1.959zm-.9557 5.69c3.7325.347 4.2515 0 4.1015-2.763-3.3411-.093-3.3411-.093-4.1015 2.763zm5.0805-5.632c-.91 0-1.82 0-2.787 0-.1847.519-.369 1.037-.5532 1.567 3.0172.404 3.1322.358 3.3402-1.567zm4.839 2.834c-.875 0-1.636 0-2.385 0-2.201-.023-2.201-.023-2.535 2.223-.023.184-.035.359-.046.451h4.805c.058-.935.104-1.729.161-2.674zm.219-1.255c0-.576 0-1.026 0-1.544-1.335 0-2.603 0-3.871 0-.08.563-.15 1.071-.219 1.544zm5.471 3.79c0-.772 0-1.464 0-2.35-1.497-.071-2.949-.138-4.458-.22-.115.91-.219 1.648-.333 2.57zm-1.416-3.56c1.786.196 1.821.185 1.683-1.774-1.452 0-2.916 0-4.449 0v1.602c.968.056 1.867.069 2.766.172zm6.877.392c0-.783 0-1.44 0-2.19-1.382 0-2.603 0-3.858 0-.092.658-.161 1.244-.242 1.89 1.359.093 2.695.196 4.1.3zm.024 3.111c0-.635 0-1.187 0-2.005-1.475-.07-2.823-.138-4.182-.207v2.212zm5.829-2.801c-.092-.874-.161-1.612-.254-2.464-1.601 0-3.053 0-4.435 0v2.13c1.555.105 3.053.22 4.689.334zm-4.55 2.834h4.758c-.127-.598-.231-1.106-.357-1.716-1.464-.092-2.881-.173-4.401-.265zm10.335.092c-.151-.655-.254-1.116-.381-1.646-1.475 0-2.846 0-4.205 0-.104.114-.207.219-.31.334.379.438.725 1.187 1.162 1.256 1.187.173 2.408.056 3.734.056zm-4.599-2.948h4.343c-.149-.992-.288-1.891-.426-2.766-1.509.116-2.823.22-4.251.345.115.842.219 1.614.334 2.421zm9.656.391c0-1.187 0-2.154 0-3.157-1.532 0-2.984 0-4.551 0 .139.991.265 1.867.404 2.812 1.359.114 2.684.218 4.147.345zm.3 2.881c0-.714 0-1.175 0-1.751-1.51-.115-2.961-.219-4.62-.347.184.726.311 1.234.449 1.764 1.475.114 2.834.23 4.171.334zm5.725-3.18c0-1.084 0-2.097 0-3.065-1.613 0-3.134 0-4.712 0v3.375c1.601-.103 3.11-.206 4.712-.31zm-4.435 3.134h4.839c-.035-.645-.058-1.28-.092-2.052-1.717.138-3.261.255-4.747.37zm5.691-3.251h5.104c-.219-1.185-.415-2.268-.622-3.42-1.567.148-2.984.288-4.482.426zm5.772 3.47c-.161-.795-.288-1.475-.438-2.201-1.693 0-3.341 0-5.461 0 .473.922.738 2.05 1.164 2.109 1.521.217 3.099.092 4.735.092zm1.151-3.665c1.476.057 2.95.024 4.552.024-.138-1.106-.254-1.983-.369-2.891-1.82-.105-3.549-.209-5.381-.323.138 1.036.184 1.842.392 2.614.057.254.518.565.806.576zm2.247 3.744h3.376c-.173-.598-.254-1.116-.461-1.59-.161-.368-.472-.966-.737-.978-1.59-.092-3.192-.046-4.805-.046.219 2.614.219 2.614 2.627 2.614zm9.459-4.032c0-.921 0-1.693 0-2.535-2.062 0-4.056 0-6.234 0 .115 1.002-.484 2.304.922 2.489 1.729.208 3.503.046 5.312.046zm-4.205 3.986c1.693.092 3.386.046 5.252.046-.299-1.095-.53-1.981-.76-2.834-2.05 0-3.951 0-5.978 0 .23.772.345 1.383.61 1.924.185.358.565.853.876.864zm10.08-4.376c-.646-2.408-1.371-2.696-4.586-2.006v2.466c1.636-.162 3.089-.312 4.586-.46zm-3.64 4.365h5.046c-.218-.841-.345-1.601-.633-2.281-.149-.347-.611-.784-.934-.784-1.381 0-2.775.149-4.251.254.3 1.083.53 1.936.772 2.811zm6.671-4.263c1.221-.011 2.442 0 3.675 0-.058-.783-.104-1.37-.15-1.946-1.947-.092-3.836-.173-5.726-.255.139 2.179.185 2.225 2.201 2.201zm.149 4.287c1.59.057 3.193.033 4.829.033-1.28-4.078-.266-3.26-4.206-3.236-.657.011-1.325.08-2.074.125.253.853.449 1.671.749 2.443.105.277.46.622.702.635zm10.668-4.321c-.172-.622-.311-1.14-.449-1.637-1.993-.137-3.894-.263-5.783-.391-.103.116-.196.231-.299.347.472.552.888 1.531 1.428 1.601 1.636.218 3.318.08 5.103.08zm-4.019 4.308c1.878.071 3.755.036 5.804.036-.392-.979-.621-1.751-.99-2.454-.162-.3-.576-.658-.887-.668-1.762-.07-3.525-.036-5.529-.036.322.91.554 1.682.875 2.397.138.299.473.725.727.725zm11.763-4.275c-.024-.23-.07-.632-.116-1.116-2.293-.195-4.529-.391-6.765-.587-.079.15-.171.31-.263.46.494.415.966 1.141 1.496 1.187 1.833.148 3.689.056 5.648.056zm-4.057 4.299c1.843.046 3.686.022 5.554.022-.669-2.81-.9-3.052-3.238-3.133-1.324-.046-2.65-.011-4.171-.011.357.956.635 1.796 1.015 2.592.126.253.552.518.84.53zm10.817-3.723c.081-.102.161-.217.242-.333-.288-.356-.563-1.024-.875-1.048-1.647-.104-3.306-.045-5.217-.045.31.403.552 1.046.864 1.082 1.658.195 3.317.242 4.986.344zm-3.27 3.699c1.497.103 3.006.046 4.678.046-.301-.957-.543-1.716-.807-2.535-1.889-.137-3.663-.264-5.623-.402.311.807.484 1.404.784 1.934.23.381.61.935.968.957zm4.724-3.57h6.497c-.196-.472-.356-.876-.484-1.188-2.189-.125-4.228-.242-6.496-.367.171.553.309.979.483 1.555zm2.153 3.836c1.842.058 3.686.022 5.644.022-.334-.897-.656-1.715-1.014-2.649-2.13 0-4.216 0-6.29 0 .519 2.374.599 2.593 1.66 2.627zm11.417-3.364c.059-.138.116-.288.173-.426-.392-.438-.76-1.222-1.186-1.256-1.716-.15-3.457-.057-5.288-.057.195.599.312.989.472 1.463 1.96.092 3.894.184 5.829.276zm1.648 3.398c.08-.138.16-.265.242-.404-.53-.622-.98-1.681-1.59-1.784-1.82-.313-3.711-.242-5.564-.324-.117.116-.22.242-.334.358.564.714 1.035 1.957 1.692 2.062 1.81.276 3.698.092 5.554.092zm6.785-3.433c-.68-2.051-.68-2.073-2.477-1.981-1.715.079-3.421.218-5.459.345.552.644.944 1.544 1.405 1.567 2.143.161 4.309.069 6.531.069zm1.405 3.375c.034-.172.069-.346.105-.53-.589-.53-.301-1.75-1.671-1.704-2.006.079-3.999.022-6.464.022.737.946 1.198 2.073 1.752 2.132 2.074.218 4.182.08 6.278.08zm5.737-3.375c-.39-1.095-.632-1.751-.956-2.65-1.888.218-3.744.427-5.991.669.714.886 1.106 1.853 1.614 1.912 1.681.196 3.399.069 5.333.069zm-3.8 3.1c1.611.218 3.27.079 4.952.079-.61-2.383-.599-2.383-2.707-2.188-1.139.093-2.281.162-3.905.276.679.784 1.106 1.763 1.66 1.833zm12.131-3.733c-.588-2.315-.83-2.57-2.776-2.511-1.717.057-3.422.229-5.623.379.714 1.038 1.175 2.35 1.705 2.374 2.212.127 4.436-.128 6.694-.242zm-5.84 3.766h7.982c-.472-.91-.828-1.669-1.279-2.372-.137-.22-.553-.416-.818-.392-2.177.184-4.343.414-6.647.644.253.704.495 1.394.762 2.12zm9.134-.356c.588 1.116-.206 1.394-.978 1.521-.796.125-1.625.033-2.442.033-5.462 0-10.935 0-16.407 0-12.512 0-25.022.013-37.535-.01-1.578 0-3.156 0-4.735-.012-9.746-.011-19.481-.046-29.216-.081-3.503-.023-7.005-.103-10.507-.185-6.291-.15-12.581-.402-18.872-.438-4.838-.022-9.688.196-14.527.346-6.6016.22-13.2031.472-19.8045.738-1.0599.034-1.6244-.391-1.3709-1.428.2534-1.038.6566-2.041 1.0829-3.019.4608-1.083 1.0023-2.144 1.5899-3.168.1382-.253.5645-.474.8756-.495 2.2465-.139 4.5046-.277 6.7511-.3 11.7969-.115 23.5949-.127 35.3919-.334 6.463-.116 12.926-.692 19.39-.76 2.43-.025 4.861-.013 7.281.021 4.723.071 9.435.209 14.147.324 3.929.081 7.857.253 11.774.461 6.406.333 12.8.864 19.207 1.037 5.644.16 11.312.069 16.969-.115 4.239-.139 8.468-.611 12.707-.935 1.246-.092 2.49-.16 3.721-.298 1.291-.139 2.097.53 2.651 1.567.99 1.82 1.9 3.685 2.856 5.53z" fill="#374b5a"/><path d="m156.125 195.918c0-1.222.104-2.144-.034-3.03-.069-.405-.634-1.027-.98-1.038-3.26-.068-6.509-.011-9.769-.011-4.781.011-9.551 0-14.332.022-.392.013-.899.092-1.175.334-1.383 1.211-2.708 2.478-4.044 3.723zm32.131.632c.081-.206.163-.402.242-.598-1.336-1.198-2.672-2.408-4.032-3.583-.196-.161-.518-.253-.783-.265-2.143-.115-4.285-.276-6.439-.288-6.268-.034-12.547-.012-18.825-.012-.438 0-.887.046-1.21.057v4.149c10.427.184 20.736.355 31.047.54zm.786-1.336c1.014 1.21.576 2.154-.981 2.328-.668.079-1.348.022-2.016.022-2.546 0-5.092 0-7.627 0 0-.057 0-.103 0-.16-15.391-.139-30.784-.288-46.176-.404-2.247-.012-4.493.208-6.751.254-.415.011-.841-.277-1.266-.426.16-.462.217-1.014.517-1.372 2.604-3.156 5.507-5.737 10.081-4.516 13.572-.103 27.144-.207 40.715-.276h.346c2.651 0 5.322.126 7.973.322.68.046 1.416.53 1.958 1.003 1.14 1.002 2.258 2.062 3.227 3.225z" fill="#374b5a"/><path d="m175.884 189.189v1.475c-.116 0-.23 0-.346 0-13.57.069-27.143.173-40.715.275-4.573-1.22-7.477 1.361-10.08 4.516-.3.359-.357.911-.518 1.373.426.149.852.437 1.267.426l.023 1.82c-8.111.115-16.233.576-24.344.691-6.751.093-13.5137-.139-20.2649-.196-4.9885-.023-9.9643.093-14.9424-.035-2.5577-.068-5.1153-.438-7.6499-.84-2.2696-.369-4.1014-1.694-6.0599-3.502 4.2051-5.981 8.3641-11.901 12.477-17.765 7.6614 1.807 15.196 1.831 22.7421 1.67 6.4516-.138 12.903-.564 19.343-.831 4.897-.206 9.782-.448 14.666-.472 3.871-.011 7.754.266 11.625.45 1.578.068 3.145.264 4.723.3 5.381.114 10.761.23 16.141.323l-.023 1.22c-2.419-.035-4.85-.046-7.281-.022-6.463.068-12.926.644-19.39.76-11.797.208-23.594.219-35.3916.334-2.2465.023-4.5046.162-6.7511.3-.3111.022-.7374.242-.8756.495-.5876 1.024-1.1291 2.085-1.5899 3.168-.4263.979-.8295 1.981-1.0829 3.019-.2535 1.037.311 1.462 1.3709 1.428 6.6014-.266 13.2029-.518 19.8042-.738 4.839-.15 9.689-.368 14.528-.346 6.29.036 12.581.288 18.871.438 3.502.082 7.005.163 10.507.186 9.735.034 19.47.069 29.217.08z" fill="#fffffe"/><g fill="#b3bbc2"><path d="m263.478 198.314c-.726 3.94-2.568 4.204-5.956 4.654-4.769.634-9.586.922-14.39 1.198-7.834.473-15.668.968-23.514 1.164-4.481.114-8.973-.334-13.468-.553-1.578-.069-3.145-.231-4.722-.288-5.554-.197-11.107-.553-16.66-.519-1.197.012-2.408.012-3.606.022l-.023-2.396c.829 0 1.671-.022 2.5-.046 6.418-.218 12.834-.552 19.251-.748 3.676-.116 7.374-.046 11.06-.08 9.251-.082 18.502-.012 27.755-.346 5.655-.207 11.279-1.06 16.923-1.614 1.601-.16 3.214-.299 4.85-.448z"/><path d="m188.498 195.951c-.079.196-.161.392-.242.598-10.311-.184-20.62-.356-31.047-.54 0-1.486 0-2.742 0-4.148.323-.012.772-.058 1.21-.058 6.278 0 12.557-.022 18.825.013 2.154.011 4.296.173 6.439.288.265.011.587.104.783.265 1.36 1.175 2.696 2.384 4.032 3.582z"/><path d="m181.138 201.596.023 2.396c-10.402.082-20.807.3-31.21.508-11.982.242-23.963.565-35.945.83-5.369.127-10.737.344-16.106.252-5.841-.092-11.6705-.552-17.5116-.714-4.9424-.137-9.8848-.022-14.8272-.137-2.6729-.059-5.3342-.347-8.007-.565-.4147-.034-.8986-.149-1.1982-.404-2.1889-1.808-3.606-4.078-4.2857-7.28 3.8249 3.71 8.3872 3.998 12.9033 4.204 2.8687.128 5.7489-.252 8.6176-.218 5.7488.068 11.4977.38 17.2466.402 7.6728.036 15.3342-.068 22.9952-.171 9.781-.139 19.563-.415 29.344-.497 6.083-.056 12.177.036 18.26.266 5.346.208 10.68.714 16.026 1.025 1.222.07 2.442.103 3.675.103z"/><path d="m156.091 192.887c.138.886.034 1.809.034 3.03-10.15 0-20.184 0-30.334 0 1.336-1.244 2.661-2.511 4.044-3.722.276-.242.783-.321 1.175-.334 4.781-.022 9.551-.012 14.332-.022 3.26 0 6.509-.058 9.769.01.346.012.911.634.98 1.038z"/><path d="m142.9 184.511h5.104c-.219-1.186-.415-2.269-.622-3.421-.576.055-1.131.108-1.678.161h-.001-.001c-.94.09-1.855.178-2.802.265zm10.19-.167c.421-.003.849-.005 1.286-.005-.084-.672-.16-1.258-.232-1.819v-.002l-.001-.007-.004-.029v-.005l-.002-.01c-.044-.344-.087-.68-.13-1.02-1.821-.105-3.549-.208-5.381-.322.039.294.071.57.101.832.076.659.142 1.229.29 1.782.058.254.519.565.807.575 1.073.042 2.145.036 3.266.03zm14.315-.708c-.646-2.408-1.371-2.696-4.586-2.006v2.467c.836-.083 1.625-.163 2.395-.241h.004.001.001c.735-.075 1.455-.147 2.185-.22zm5.473.1c.409.002.82.003 1.232.003-.058-.782-.104-1.37-.15-1.946-1.727-.082-3.408-.155-5.085-.227l-.641-.028c.138 2.179.184 2.225 2.2 2.201.814-.007 1.627-.005 2.444-.003zm8.159-.814c-.082-.3-.159-.58-.235-.854-1.361-.093-2.68-.182-3.981-.27h-.001c-.603-.041-1.202-.081-1.8-.121-.05.055-.097.11-.143.166h-.001c-.051.06-.102.12-.156.18.15.176.295.395.439.613.31.47.621.941.99.989 1.173.156 2.37.129 3.612.102.49-.011.986-.022 1.491-.022-.078-.279-.148-.538-.215-.783zm53.649 1.325c-.587-2.316-.829-2.57-2.775-2.512-1.127.038-2.249.125-3.509.223-.66.051-1.358.105-2.115.156.244.354.458.74.655 1.096h.001c.381.688.7 1.263 1.05 1.279 1.608.092 3.222-.018 4.851-.128.612-.041 1.226-.083 1.842-.114zm-5.84 3.766h7.983c-.115-.222-.223-.434-.327-.639l-.001-.001c-.324-.637-.61-1.201-.951-1.732-.137-.22-.553-.416-.818-.392-1.703.144-3.399.316-5.159.494-.491.05-.986.1-1.488.15.092.257.184.513.275.769.158.444.317.89.486 1.351zm-1.338.046c-.472 0-.943.011-1.412.022-1.199.028-2.382.055-3.54-.101-.367-.047-.678-.492-1.044-1.015-.186-.266-.387-.553-.617-.818.564-.04 1.069-.074 1.536-.106.88-.059 1.626-.109 2.37-.17h.003c.995-.092 1.518-.141 1.856.085.374.25.524.835.839 2.065zm-1.775-4.904-.003-.01c-.107-.295-.214-.589-.331-.914-1.888.217-3.743.426-5.989.668.246.305.453.62.641.905.356.54.639.969.972 1.008 1.195.139 2.408.115 3.704.09.527-.011 1.069-.021 1.628-.021-.247-.693-.435-1.21-.621-1.724zm-5.009 4.57c-.036.184-.07.358-.105.53-.586 0-1.173.011-1.761.022-1.511.027-3.023.055-4.517-.102-.368-.039-.695-.549-1.089-1.165-.199-.311-.415-.65-.663-.967.761 0 1.477.005 2.162.011 1.535.011 2.915.022 4.302-.033.894-.03 1.082.479 1.268.984.1.268.198.536.403.72zm-1.52-2.869c-.671-2.028-.678-2.049-2.468-1.957-1.101.051-2.199.126-3.382.207-.661.046-1.348.093-2.077.138.184.215.351.459.508.689.313.458.589.863.896.878 1.569.118 3.149.1 4.755.082.589-.006 1.181-.013 1.776-.013zm-6.533 3.053c-.037.062-.073.122-.109.181l-.001.002c-.044.073-.088.146-.132.222-.53 0-1.062.015-1.595.03-1.333.037-2.666.074-3.959-.122-.446-.072-.806-.668-1.169-1.267-.171-.283-.342-.566-.524-.796.054-.055.106-.111.157-.168v-.001c.058-.064.116-.128.177-.189.528.023 1.059.034 1.59.045 1.335.028 2.673.055 3.975.279.416.07.758.586 1.101 1.104.16.241.321.483.489.68zm-1.796-3.227c.026-.065.052-.13.078-.193-.123-.137-.243-.308-.363-.48-.265-.376-.531-.753-.824-.776-1.236-.108-2.487-.09-3.774-.072-.499.007-1.003.014-1.514.014.085.259.155.479.22.683v.002c.085.268.162.51.253.779 1.874.088 3.725.176 5.577.264l.252.012c.032-.075.064-.154.095-.233zm-7.488 3.625c-1.37.007-2.696.014-4.023-.028-1.061-.034-1.141-.253-1.66-2.627h6.291c.122.319.239.624.355.923.223.578.438 1.135.658 1.726-.548 0-1.088.003-1.621.006zm-6.177-3.864h6.496c-.123-.299-.233-.569-.329-.807-.056-.139-.107-.266-.154-.381-2.189-.126-4.229-.242-6.497-.368.062.2.12.384.176.564l.001.001v.002l.001.002v.001c.1.315.196.62.306.986zm-.046 3.616c-.449 0-.886.004-1.314.008-1.167.011-2.269.022-3.365-.054-.357-.022-.737-.576-.967-.956-.212-.375-.361-.784-.54-1.277-.074-.204-.153-.422-.244-.658 1.96.139 3.734.265 5.622.402.265.82.507 1.579.808 2.535zm-1.408-3.745c.08-.102.161-.217.242-.334-.093-.114-.184-.26-.275-.407-.194-.311-.389-.624-.601-.641-1.197-.075-2.401-.065-3.703-.053-.489.004-.992.008-1.513.008.101.133.196.291.288.445.188.315.366.614.576.638 1.208.142 2.418.205 3.632.269.45.024.902.047 1.354.075zm-5.261 3.745c-.48 0-.958.002-1.435.003-1.38.005-2.75.01-4.12-.025-.288-.011-.715-.276-.84-.53-.29-.606-.52-1.238-.771-1.927-.079-.215-.159-.437-.245-.665.47 0 .921-.003 1.358-.006.982-.008 1.898-.014 2.814.018 2.339.08 2.569.322 3.239 3.132zm-1.521-4.539v-.001-.001c-.026-.232-.059-.542-.093-.896-2.293-.196-4.528-.391-6.763-.587h-.001c-.08.15-.172.31-.264.459.153.129.304.288.456.447.337.354.675.709 1.041.741 1.319.107 2.65.089 4.024.07.534-.007 1.075-.014 1.623-.014-.006-.061-.014-.134-.023-.218zm-5.936 4.529c-.516 0-1.021.002-1.519.004-1.476.006-2.881.013-4.286-.04-.255 0-.589-.426-.727-.726-.229-.51-.413-1.049-.616-1.646l-.001-.001-.001-.003c-.081-.239-.166-.487-.257-.746.504 0 .993-.002 1.47-.004 1.421-.006 2.741-.012 4.06.04.311.01.725.368.887.668.244.463.426.957.635 1.521.108.291.222.6.355.933zm-8.745.013c-1.25.004-2.483.008-3.709-.036-.242-.013-.598-.358-.702-.635-.213-.547-.373-1.118-.539-1.707v-.001c-.068-.242-.137-.487-.21-.735.26-.015.51-.034.753-.052.458-.034.892-.066 1.32-.073.685-.004 1.22-.033 1.643-.055.775-.041 1.177-.062 1.438.12.28.195.398.624.643 1.514.12.434.269.978.483 1.657-.374 0-.747.001-1.117.003h-.001-.001zm-5.483-.059h-5.046c-.112-.405-.221-.804-.336-1.224-.133-.489-.275-1.005-.436-1.587.379-.027.753-.057 1.123-.087 1.069-.085 2.102-.168 3.128-.168.323 0 .785.438.934.785.206.486.33 1.015.464 1.584.053.226.107.458.169.697zm-6.232.056c-.475 0-.939.003-1.395.006-1.334.009-2.596.017-3.859-.052-.311-.01-.691-.506-.876-.864-.185-.379-.298-.794-.428-1.274-.055-.204-.113-.42-.182-.65h5.979c.089.329.178.664.271 1.013.148.556.306 1.149.49 1.821zm-1.048-4.032v-2.535h-6.234c.031.265.011.552-.008.833-.053.78-.104 1.52.93 1.656 1.199.144 2.42.11 3.659.076.547-.015 1.099-.03 1.653-.03zm-6.084 4.032h-3.375c-1.169 0-1.771 0-2.105-.299-.355-.317-.41-.97-.522-2.315.404 0 .807-.003 1.209-.006 1.205-.008 2.403-.017 3.595.052.265.012.576.61.737.978.136.31.218.64.306.999.047.188.096.385.155.591zm-6.981-1.124v.003c.065.333.132.675.207 1.042-.443 0-.881.009-1.315.018-1.17.024-2.311.048-3.42-.111-.287-.039-.5-.562-.753-1.18-.123-.302-.256-.626-.411-.928h5.461c.081.39.154.767.231 1.156zm-6.418.826h-4.838v-1.682c.41-.032.824-.064 1.246-.096 1.105-.085 2.257-.174 3.5-.274.012.263.022.51.032.747.02.459.038.879.06 1.305zm-.403-3.134v-3.065h-4.712v3.375c.869-.056 1.711-.112 2.556-.168h.001c.711-.047 1.423-.095 2.155-.142zm-5.726 1.429v1.751c-.641-.05-1.287-.103-1.949-.157h-.001-.001c-.717-.058-1.453-.118-2.219-.177-.097-.373-.189-.734-.298-1.168h-.001c-.046-.184-.096-.38-.15-.596.91.07 1.757.133 2.587.194.682.051 1.351.101 2.032.153zm-.299-1.129v-3.158h-4.551c.138.992.265 1.867.403 2.812.502.042.999.083 1.501.124.856.07 1.724.141 2.647.222zm-5.311-.392h-4.344c-.089-.626-.172-1.231-.258-1.865v-.001l-.001-.003-.075-.552c1.429-.125 2.742-.229 4.251-.345.139.875.277 1.774.427 2.766zm.142 2.46v-.001l-.001-.003c-.095-.417-.176-.767-.268-1.154h-4.205c-.046.05-.092.099-.138.148-.058.061-.115.122-.172.186.116.134.229.297.343.462.256.371.516.746.819.794.84.122 1.697.099 2.596.076.372-.01.75-.02 1.138-.02-.039-.169-.075-.326-.109-.474l-.002-.011zm-5.465.396h-4.758v-1.981c.577.035 1.139.069 1.695.102h.001c.908.053 1.797.106 2.705.163.04.193.078.376.115.554v.002c.08.385.155.751.242 1.16zm-.321-3.947c-.045-.443-.089-.88-.14-1.352h-4.435v2.131c.878.059 1.739.121 2.616.185.676.049 1.361.099 2.072.149-.041-.391-.077-.754-.113-1.113zm-5.716 1.909v2.004h-4.182v-2.212c1.36.07 2.707.138 4.182.208zm-.023-1.106v-2.19h-3.859c-.072.509-.129.976-.189 1.461-.018.141-.035.284-.053.429.977.067 1.943.139 2.931.213.386.029.775.058 1.17.087zm-5.194-2.166c.138 1.959.103 1.97-1.683 1.774-.621-.071-1.243-.1-1.887-.129-.288-.013-.58-.026-.879-.044v-1.601zm-.267 5.334v-2.35l-.056-.003c-1.478-.069-2.912-.136-4.402-.217-.052.406-.101.777-.15 1.146v.001.001c-.06.458-.12.912-.183 1.422zm-5.472-5.334v1.544h-4.09c.04-.27.079-.551.121-.848v-.001-.002-.001l.001-.005c.031-.22.063-.449.097-.687zm-.218 2.799h-2.385c-1.089-.011-1.639-.017-1.958.252-.325.275-.409.836-.578 1.972-.013.108-.023.212-.031.299-.005.061-.01.113-.015.151h4.806c.032-.518.06-.993.089-1.475v-.001-.001c.023-.386.047-.776.072-1.197zm-7.628-2.834h2.787c-.207 1.925-.322 1.971-3.3397 1.568.1842-.53.3685-1.049.5527-1.568zm-2.2924 5.633c3.7324.347 4.2514 0 4.1014-2.764-1.745-.048-2.5782-.071-3.0848.325-.4635.362-.6533 1.074-1.0166 2.439zm-4.0092-3.732c.6953-1.788 1.9415-1.782 3.2071-1.775.6012.003 1.2067.006 1.7597-.183-.4955 1.878-1.429 2.223-4.9668 1.958zm-2.4887 4.02c4.6199.484 5.3802.116 6.1752-3.076-.552.093-1.1372.113-1.7202.134-1.9604.069-3.8955.137-4.455 2.942zm-2.9721-3.72c.8295-2.166 1.0484-2.247 4.7926-1.845-.6567 1.753-1.4862 2.075-4.7926 1.845zm-2.5115 4.054c.841-2.614 2.212-3.353 5.4493-2.96-1.3479 3.042-1.5207 3.134-5.4493 2.96zm-1.2674-3.755c.5303-1.568 1.3833-2.432 3.0664-1.902-.3458 1.695-1.4756 2.121-3.0664 1.902zm1.2673 1.233c-2.6958-.058-3.1797.356-3.076 2.66 1.4626.095 1.9662-.8 2.4864-1.725.1809-.322.3637-.647.5896-.935z"/></g><path d="m113.579 87.4698c-.129.0769-.26.1499-.387.2291-.093-.0946-.196-.1799-.311-.2568.231.0105.463.0197.698.0277zm32.422 9.1629c-.555-.6319-1.373-.9727-2.055-1.4569-1.003-.7129-1.902-1.537-2.744-2.4311-1.475-1.5677-2.75-3.3149-4.288-4.8251-.183-.179-.372-.3536-.565-.5246-.083-.1566-.207-.2982-.385-.4051-.109-.0655-.222-.1271-.334-.1908-2.479-1.9447-5.657-3.3027-8.73-4.0485-.278-.0902-.558-.1531-.839-.1891-.075-.0159-.15-.0317-.225-.0462-.312-.8167-1.427-1.3906-2.242-.5862-2.982 2.9429-6.848 3.1171-10.815 2.9825-2.206-.0748-3.836-.5-5.836-1.3963-1.043-.4675-1.949-1.1148-2.998-1.0541-.355-.4956-1.007-.7722-1.714-.3883-2.092 1.1377-4.152 2.3039-6.295 3.3453-1.6935.8228-3.5854 1.4816-5.1528 2.5432-.1693-.0739-.3592-.0941-.5505-.0216-1.3616.5176-1.7807 1.8963-2.2248 3.2191-.2155.373-.4244.7512-.6562 1.1127-.6403.9987-1.3369 1.9565-2.0489 2.9042-.2044.2726-.9521 1.1042-1.3135 1.8628-.0497.0484-.0981.0981-.1482.146-.066-.0167-.1315-.0347-.2006-.0461-1.0554-.1768-1.4191 1.19-.4375 1.588 1.3681.5237 2.1733 4.0465 2.7353 5.2725.8879 1.937 1.7824 3.869 2.6351 5.822.2784.636 1.1175.677 1.6509.432.978-.448 1.9979-.863 2.9878-1.326-.5159 3.221-.3835 6.498-.4262 9.772-.0532 4.049-.1059 8.097-.1587 12.146-.106 8.075-.6051 16.218-.3408 24.291.0211.647.4226 1.024.894 1.14.1953.264.5031.452.9315.463 6.7411.184 13.4831-.247 20.2311-.15 6.747.096 13.486.079 20.232-.033.975-.016 1.238-1.123.792-1.715.435-3.255.233-6.623.157-9.891-.091-3.899-.234-7.799-.352-11.698-.068-2.243-.14-4.485-.209-6.728.088-1.662.145-3.327.162-5.012.029-2.813.475-5.952.167-8.801.93.295 1.929.528 2.718.943.764.401 1.643.045 1.908-.777.829-2.566 1.655-5.131 2.571-7.669.035-.098.077-.199.114-.297 1.318-1.84 2.312-3.969 2.612-6.1788.006-.0422.004-.0814.006-.1223.04-.0026.08.0009.12-.0061.049-.0079.098-.0163.146-.0242.93-.1566 1.034-1.3545.514-1.9469z" fill="#fffffe"/></g><path d="m109.5 105.5 11-.5-5.5 11.5h5.5l-1.5 5.5-6.5 11.5.5-12-3.5-.5z" fill="#989898"/><path clip-rule="evenodd" d="m139.364 114.086c-.002.008-.001.015-.002.022-.012-.026-.026-.052-.046-.077-.284-.356-.745-.556-1.183-.729 2.627-5.594 4.087-11.638 7.263-16.9836.276.2075.55.4199.83.6178-2.691 5.4958-5.265 11.2298-6.862 17.1498zm-1.569-.918c-.642-.261-1.312-.471-1.996-.585-.122-.02-.256.013-.32.131-.014.025-.027.051-.041.076-1.961-3.825-2.366-8.104-2.028-12.376.35-4.4395.936-9.4187 3.073-13.3987.013-.0237.021-.0466.026-.069 2.272 3.3788 5.207 6.5258 8.446 9.0422-3.153 5.1735-5.44 11.3965-7.095 17.2055-.021-.008-.044-.017-.065-.026zm-24.018 43.293c-7.12-.061-14.3026-.465-21.4176-.227.0123-.526.0224-1.053.0338-1.58 7.1168.401 14.2658.356 21.3908.449 7.166.094 14.345.224 21.511.071-.001.449-.001.898-.001 1.348-7.158-.235-14.354 0-21.517-.061zm-20.6561-37.818c.0554-3.135-.0756-6.342.3096-9.456.0163-.132.0361-.261.0541-.392.0189-.018.04-.033.0589-.051.1324-.126.1051-.311.0075-.434.3356-2.268.8316-4.475.8404-6.797.0185-4.8094-1.2648-9.6266-3.8172-13.7076 3.6712-1.0485 7.1621-2.7029 10.4678-4.6198.968 6.0371 6.824 10.7453 12.894 10.8051 6.444.0633 12.227-5.0112 13.36-11.2651 1.001.4125 2.021.7872 3.006 1.1997 2.005.8395 3.835 1.9165 5.767 2.8888-2.653 3.709-3.062 9.1797-3.408 13.5999-.367 4.694.169 9.404 2.565 13.531.056.096.135.146.218.166-.34 3.527-.134 7.155-.136 10.693-.001 3.507-.003 7.013-.004 10.519-.003 6.366-.006 12.732-.009 19.098-7.17-.015-14.34.135-21.511.118-7.127-.017-14.2557-.304-21.3821-.259.2661-11.879.5084-23.758.719-35.637zm-2.5341-8.861c-.8641-2.387-1.9565-4.72-2.9948-7.037-.9605-2.143-2.1131-4.3947-3.7675-6.0878-.0269-.0273-.0572-.0299-.0862-.0237.9917-.8637 1.7986-1.8629 2.5951-2.9711 1.3434-1.8699 2.7234-3.7438 3.957-5.6897 2.4324 4.7644 3.7411 9.9427 3.2969 15.3203-.1446 1.746-.4929 3.452-.7586 5.173-.7348.51-1.4653.944-2.2419 1.316zm-1.479.606c-1.5581-4.575-4.096-8.738-6.5258-12.8903.0216-.0035.0436-.0118.0651-.0263.3606-.2428.6953-.5018 1.0124-.7732-.0093.0255-.0115.0533.0039.0823 1.1131 2.1131 2.4166 4.0795 3.3977 6.2735 1.0312 2.307 1.9143 4.697 3.055 6.951.0005 0 .0005 0 .0009.001-.3245.139-.6592.267-1.0092.382zm13.8152-28.3261c.432 5.7029 5.317 10.1819 11.087 10.1151 5.942-.0686 10.538-4.7412 10.971-10.5413.519.2903 1.059.5471 1.607.789-1.07 5.8788-6.224 10.8201-12.353 10.9137-6.233.095-11.219-4.581-12.911-10.313.538-.3153 1.071-.6359 1.599-.9635zm21.251.0774c-.66 5.1269-4.832 9.2621-10.164 9.3447-5.65.088-9.877-4.2631-10.635-9.6529 5.965 4.2354 14.599 3.8862 20.799.3082zm22.68 14.4327c-4.142-2.895-6.876-6.8753-10.36-10.4273-.097-.099-.236-.0682-.318.014-1.455-1.1482-3.221-1.905-4.916-2.6249-2.02-.8576-4.142-1.8238-6.281-2.3291-.095-.2462-.452-.2682-.628-.0774-6.76 4.1594-14.355 3.6422-21.25.1324-.046-.0233-.088-.0251-.124-.0132-.072-.0101-.15-.0022-.23.0484-3.9201 2.4491-8.0596 4.2833-12.317 6.0455-.132-.146-.4038-.1812-.5634.0268-2.4728 3.22-4.3286 7.1423-7.4418 9.8165-.0523.0449-.062.1051-.0479.1606-.2243-.0374-.4837.1996-.3311.4525 2.5102 4.1542 4.833 8.3542 6.7504 12.8172-.0053.115.0941.236.2467.214 1.2648-.177 2.5678-.66 3.6479-1.402-.0893.685-.1566 1.375-.1847 2.072-.1174 2.947-.1055 5.904-.1552 8.852-.205 12.096-.4543 24.189-.7459 36.283-.011.45.6377.472.7283.078 7.0948.582 14.3277.426 21.4437.499 3.517.036 7.033.059 10.55.069 1.688.004 3.376.005 5.064.002 1.256-.002 3.029.255 4.414-.007.283.052.56.068.849.066.147-.001.291-.003.429-.027.062.039.141.054.237.027.039-.011.078-.022.117-.033.091-.026.16-.088.2-.166.201.017.415-.1.415-.36 0-7.153-.001-14.305-.001-21.457 0-3.507-.001-7.013-.001-10.519 0-3.619.22-7.337-.152-10.939-.001-.001-.001-.001-.001-.001.031-.087.028-.189-.033-.293-.057-.099-.108-.2-.163-.3.004.002.007.002.011.003.066.014.127-.019.157-.07.533.179 1.063.358 1.581.581.522.225 1.036.622 1.6.703.185.026.318-.088.335-.234.083.127.317.131.391-.055 2.272-5.721 4.382-11.448 7.095-16.9864.019-.0378.024-.0743.029-.1108.126-.1403.155-.3896-.046-.5308z" fill="#131514" fill-rule="evenodd"/><path clip-rule="evenodd" d="m109.739 105.881c-.004-.04-.02-.07-.032-.104 3.355.052 6.704-.194 10.043-.528-1.426 3.903-3.14 7.675-5.145 11.317-.181.328.052.669.401.699 1.751.155 3.474.114 5.207-.083-2.145 5.384-4.637 10.609-7.453 15.671-.017-3.823.255-7.618.809-11.412.039-.271-.109-.551-.418-.549-.976.007-1.951.013-2.927.019.157-5.02-.004-10.03-.485-15.03zm11.07 10.304c-1.697.246-3.358.298-5.052.197 1.996-3.711 3.691-7.549 5.086-11.527.09-.255-.151-.596-.431-.566-3.676.398-7.362.604-11.047.901-.191.015-.284.169-.279.314-.135.057-.233.18-.215.377.487 5.153.629 10.316.431 15.488-.009.242.216.458.455.454.967-.018 1.934-.036 2.902-.055-.577 4.231-.831 8.484-.771 12.756.007.44.61.615.836.226 3.346-5.773 6.225-11.779 8.658-17.992.145-.371-.266-.617-.573-.573z" fill="#989898" fill-rule="evenodd"/><path d="m161.97 93.7878v-1.9297h6.21v1.567l-2.075 2.365c.813.1354 1.442.4788 1.887 1.0301.444.5417.667 1.1704.667 1.8862 0 1.064-.363 1.9006-1.088 2.5106-.716.599-1.635.899-2.757.899s-2.259-.397-3.41-1.19l.929-1.7988c.958.6771 1.814 1.0158 2.568 1.0158.455 0 .827-.111 1.117-.3339.3-.2225.45-.5417.45-.9576 0-.4256-.169-.7593-.508-1.0011-.338-.2515-.807-.3773-1.407-.3773-.319 0-.769.0919-1.35.2757v-1.6686l1.945-2.2924zm14.826-1.9297v1.9587h-4.005v1.6976c.3-.0871.644-.1306 1.031-.1306.977 0 1.818.295 2.524.8851.706.59 1.059 1.388 1.059 2.394 0 .9963-.367 1.8231-1.102 2.4811-.726.648-1.625.972-2.699.972-1.374 0-2.52-.508-3.439-1.523l1.19-1.6544c.087.087.203.1934.348.3192.145.1257.411.295.798.5078.387.2031.774.3044 1.161.3044s.73-.1158 1.03-.3479c.3-.2322.45-.5756.45-1.0302s-.164-.8028-.493-1.0447c-.32-.2515-.735-.3772-1.248-.3772s-1.108.1838-1.785.5513l-.943-1.0156v-4.9476zm2.622 9.9679c-.339-.242-.508-.556-.508-.943s.131-.701.392-.9433c.261-.2515.575-.3772.943-.3772.367 0 .682.1209.943.3627.271.2418.406.5268.406.8558 0 .319-.14.706-.421 1.161l-.87 1.494h-1.436zm10.329-9.9679v1.9587h-4.005v1.6976c.3-.0871.643-.1306 1.03-.1306.977 0 1.819.295 2.525.8851.706.59 1.059 1.388 1.059 2.394 0 .9963-.368 1.8231-1.103 2.4811-.725.648-1.625.972-2.698.972-1.374 0-2.52-.508-3.439-1.523l1.19-1.6544c.087.087.203.1934.348.3192.145.1257.411.295.798.5078.387.2031.774.3044 1.161.3044s.73-.1158 1.03-.3479c.3-.2322.45-.5756.45-1.0302s-.165-.8028-.494-1.0447c-.319-.2515-.735-.3772-1.248-.3772-.512 0-1.107.1838-1.784.5513l-.943-1.0156v-4.9476zm4.812 2.5681c-.319.6191-.478 1.4364-.478 2.452 0 1.0157.159 1.833.478 2.4521.32.6191.818.9287 1.495.9287s1.175-.3096 1.494-.9287.479-1.4364.479-2.4521c0-1.0156-.16-1.8329-.479-2.452s-.817-.9286-1.494-.9286-1.175.3095-1.495.9286zm1.495 7.6898c-1.403 0-2.452-.474-3.149-1.422-.696-.9574-1.044-2.2294-1.044-3.8158 0-1.596.348-2.8679 1.044-3.8159.697-.9576 1.746-1.4364 3.149-1.4364 1.402 0 2.452.4788 3.148 1.4364.697.948 1.045 2.2199 1.045 3.8159 0 1.5864-.348 2.8584-1.045 3.8158-.696.948-1.746 1.422-3.148 1.422zm9.505-5.6295v-1.2188h1.407c.29-1.1027.842-1.9829 1.654-2.6406.822-.6675 1.819-1.0012 2.989-1.0012 1.451 0 2.694.5852 3.729 1.7556l-1.291 1.6831c-.706-.8609-1.538-1.2913-2.496-1.2913-1.083 0-1.833.4981-2.249 1.4944h3.381v1.2188h-3.642c-.01.0967-.014.2418-.014.4353 0 .1934.004.3337.014.4207h3.642v1.2188h-3.308c.232.4546.546.8029.943 1.0447.406.2418.851.3627 1.335.3627.957 0 1.741-.3821 2.35-1.1462l1.335 1.4795c-.522.61-1.127 1.064-1.814 1.364-.677.3-1.354.45-2.031.45-1.093 0-2.046-.319-2.858-.958-.813-.648-1.369-1.5133-1.669-2.5967h-1.407v-1.2188h1.219c-.01-.087-.015-.2273-.015-.4207 0-.1935.005-.3386.015-.4353z" fill="#374b5a"/><rect fill="#fff" height="10" rx="5" stroke="#000" stroke-width="1.25" width="91.25" x="147.375" y="121.625"/><rect fill="#3aaa35" height="8.75" rx="4.375" width="50" x="148" y="122.25"/><path d="m167.28 148.25-.731-1.699h-3.297l-.731 1.699h-1.867l3.397-7.864h1.699l3.397 7.864zm-2.374-5.524-.99 2.284h1.969zm8.507-.63c.705 0 1.331.296 1.878.889.555.585.833 1.324.833 2.216 0 .893-.278 1.639-.833 2.239-.547.6-1.192.9-1.935.9-.735 0-1.327-.296-1.777-.889v2.982h-1.688v-8.236h1.688v.675c.517-.517 1.129-.776 1.834-.776zm-1.857 3.139c0 .487.135.889.405 1.204.278.307.612.461 1.002.461s.731-.154 1.023-.461c.293-.315.439-.717.439-1.204 0-.488-.142-.896-.427-1.226s-.627-.495-1.024-.495c-.398 0-.735.165-1.013.495-.27.322-.405.731-.405 1.226zm9.349-3.139c.705 0 1.331.296 1.879.889.555.585.832 1.324.832 2.216 0 .893-.277 1.639-.832 2.239-.548.6-1.193.9-1.935.9-.735 0-1.328-.296-1.778-.889v2.982h-1.687v-8.236h1.687v.675c.518-.517 1.129-.776 1.834-.776zm-1.856 3.139c0 .487.135.889.405 1.204.277.307.611.461 1.001.461s.731-.154 1.024-.461c.292-.315.439-.717.439-1.204 0-.488-.143-.896-.428-1.226s-.626-.495-1.024-.495c-.397 0-.735.165-1.012.495-.27.322-.405.731-.405 1.226zm7.515 3.015h-1.687v-8.348h1.687zm3.285 0h-1.687v-6.053h1.687zm-1.552-6.818c-.188-.195-.282-.431-.282-.708 0-.278.094-.51.282-.698.195-.195.431-.292.708-.292.278 0 .51.097.698.292.195.188.292.42.292.698 0 .277-.097.513-.292.708-.188.188-.42.282-.698.282-.277 0-.513-.094-.708-.282zm6.052 5.412c.562 0 1.069-.282 1.519-.844l1.001 1.125c-.78.81-1.624 1.215-2.531 1.215-.908 0-1.677-.285-2.307-.855-.622-.578-.933-1.328-.933-2.25 0-.93.315-1.684.945-2.261.637-.585 1.391-.878 2.261-.878.435 0 .874.09 1.316.27.45.18.844.446 1.181.799l-.877 1.147c-.195-.232-.435-.412-.72-.54-.278-.127-.555-.191-.833-.191-.442 0-.825.146-1.147.439-.315.285-.473.686-.473 1.204 0 .51.158.907.473 1.192.322.285.697.428 1.125.428zm8.787 1.406h-1.587v-.731c-.435.547-.975.821-1.62.821-.637 0-1.173-.184-1.608-.551-.435-.375-.653-.87-.653-1.485 0-.623.225-1.088.675-1.395.45-.308 1.065-.462 1.845-.462h1.26v-.033c0-.645-.341-.968-1.024-.968-.292 0-.603.06-.933.18-.323.113-.597.255-.822.428l-.753-1.092c.795-.577 1.702-.866 2.722-.866.735 0 1.335.184 1.8.551.465.368.698.949.698 1.744zm-1.699-2.306v-.293h-1.058c-.675 0-1.012.21-1.012.63 0 .218.079.386.236.506.165.113.398.169.698.169s.562-.09.787-.27c.233-.187.349-.435.349-.742zm5.185-2.532v2.712c0 .232.06.416.18.551.12.127.262.191.427.191.315 0 .582-.142.799-.427l.63 1.181c-.525.48-1.08.72-1.665.72-.577 0-1.069-.191-1.474-.574-.397-.382-.596-.904-.596-1.564v-2.79h-.709v-1.215h.709v-1.811h1.699v1.811h1.462v1.215zm4.628 4.838h-1.687v-6.053h1.687zm-1.552-6.818c-.188-.195-.281-.431-.281-.708 0-.278.093-.51.281-.698.195-.195.431-.292.709-.292.277 0 .51.097.697.292.195.188.293.42.293.698 0 .277-.098.513-.293.708-.187.188-.42.282-.697.282-.278 0-.514-.094-.709-.282zm4.5 3.792c0 .495.139.9.416 1.215.285.307.645.461 1.08.461.443 0 .803-.154 1.08-.461.285-.315.428-.72.428-1.215s-.143-.9-.428-1.215c-.277-.315-.637-.473-1.08-.473-.435 0-.795.158-1.08.473-.277.315-.416.72-.416 1.215zm4.702 0c0 .877-.303 1.616-.911 2.216-.607.6-1.372.9-2.295.9-.915 0-1.676-.3-2.284-.9-.607-.6-.911-1.339-.911-2.216 0-.878.304-1.617.911-2.217.608-.607 1.369-.911 2.284-.911.923 0 1.688.304 2.295.911.608.6.911 1.339.911 2.217zm2.941-.349v3.375h-1.687v-6.053h1.687v.675c.51-.517 1.084-.776 1.721-.776.638 0 1.17.225 1.598.675.435.45.652 1.05.652 1.8v3.679h-1.687v-3.42c0-.93-.341-1.395-1.024-1.395-.337 0-.634.124-.889.371-.247.24-.371.596-.371 1.069zm-53.651 17.465c-.712 0-1.35-.304-1.912-.911-.563-.608-.844-1.362-.844-2.262s.274-1.635.821-2.205c.548-.577 1.189-.866 1.924-.866s1.335.259 1.8.776v-2.97h1.687v8.348h-1.687v-.799c-.473.593-1.069.889-1.789.889zm-1.057-3.105c0 .487.146.889.438 1.204.293.307.634.461 1.024.461s.72-.154.99-.461c.278-.315.416-.717.416-1.204 0-.495-.138-.904-.416-1.226-.27-.33-.604-.495-1.001-.495-.398 0-.739.165-1.024.495s-.427.738-.427 1.226zm11.374 2.137c-.683.645-1.485.968-2.408.968-.915 0-1.672-.281-2.272-.844-.6-.57-.9-1.331-.9-2.284 0-.952.303-1.71.911-2.272.615-.563 1.339-.844 2.171-.844.833 0 1.538.251 2.115.754.585.502.878 1.192.878 2.07v.9h-4.41c.052.33.225.6.517.81.293.21.623.315.99.315.593 0 1.08-.199 1.463-.596zm-1.215-2.756c-.038-.36-.173-.637-.405-.832-.233-.195-.518-.293-.855-.293-.33 0-.634.101-.912.304-.277.202-.438.476-.483.821zm7.483 1.755c0 .593-.222 1.069-.664 1.429-.435.36-.99.54-1.665.54-.45 0-.919-.079-1.406-.236-.488-.165-.927-.405-1.317-.72l.743-1.058c.63.488 1.301.731 2.014.731.217 0 .39-.041.517-.123.128-.09.191-.207.191-.349 0-.143-.09-.274-.27-.394-.172-.12-.427-.232-.765-.337-.33-.105-.585-.195-.765-.27-.172-.075-.371-.184-.596-.327-.457-.285-.686-.705-.686-1.26 0-.562.225-1.02.675-1.372.45-.353 1.031-.529 1.744-.529.712 0 1.425.24 2.137.72l-.63 1.125c-.525-.36-1.05-.54-1.575-.54-.517 0-.776.143-.776.428 0 .157.082.281.247.371s.439.195.822.315c.382.12.652.214.81.281.165.06.36.158.585.293.42.255.63.682.63 1.282zm7.157.473c.562 0 1.069-.282 1.519-.844l1.001 1.125c-.78.81-1.624 1.215-2.531 1.215-.908 0-1.677-.285-2.307-.855-.622-.578-.933-1.328-.933-2.25 0-.93.315-1.684.945-2.261.637-.585 1.391-.878 2.261-.878.435 0 .874.09 1.316.27.45.18.844.446 1.181.799l-.877 1.147c-.195-.232-.435-.412-.72-.54-.278-.127-.555-.191-.833-.191-.442 0-.825.146-1.147.439-.315.285-.473.686-.473 1.204 0 .51.158.907.473 1.192.322.285.697.428 1.125.428zm4.896-1.62c0 .495.139.9.417 1.215.285.307.645.461 1.08.461.442 0 .802-.154 1.08-.461.285-.315.427-.72.427-1.215s-.142-.9-.427-1.215c-.278-.315-.638-.473-1.08-.473-.435 0-.795.158-1.08.473-.278.315-.417.72-.417 1.215zm4.703 0c0 .877-.304 1.616-.911 2.216-.608.6-1.373.9-2.295.9-.915 0-1.677-.3-2.284-.9-.608-.6-.911-1.339-.911-2.216 0-.878.303-1.617.911-2.217.607-.607 1.369-.911 2.284-.911.922 0 1.687.304 2.295.911.607.6.911 1.339.911 2.217zm3.672 3.116c-.712 0-1.35-.304-1.912-.911-.563-.608-.844-1.362-.844-2.262s.274-1.635.821-2.205c.548-.577 1.189-.866 1.924-.866s1.335.259 1.8.776v-2.97h1.687v8.348h-1.687v-.799c-.473.593-1.069.889-1.789.889zm-1.057-3.105c0 .487.146.889.438 1.204.293.307.634.461 1.024.461s.72-.154.99-.461c.278-.315.416-.717.416-1.204 0-.495-.138-.904-.416-1.226-.27-.33-.604-.495-1.001-.495-.398 0-.739.165-1.024.495s-.427.738-.427 1.226zm11.374 2.137c-.683.645-1.485.968-2.408.968-.915 0-1.672-.281-2.272-.844-.6-.57-.9-1.331-.9-2.284 0-.952.303-1.71.911-2.272.615-.563 1.339-.844 2.171-.844.833 0 1.538.251 2.115.754.585.502.878 1.192.878 2.07v.9h-4.41c.052.33.225.6.517.81.293.21.623.315.99.315.593 0 1.08-.199 1.463-.596zm-1.215-2.756c-.038-.36-.173-.637-.405-.832-.233-.195-.518-.293-.855-.293-.33 0-.634.101-.912.304-.277.202-.438.476-.483.821zm7.483 1.755c0 .593-.222 1.069-.664 1.429-.435.36-.99.54-1.665.54-.45 0-.919-.079-1.406-.236-.488-.165-.927-.405-1.317-.72l.743-1.058c.63.488 1.301.731 2.014.731.217 0 .39-.041.517-.123.128-.09.191-.207.191-.349 0-.143-.09-.274-.27-.394-.172-.12-.427-.232-.765-.337-.33-.105-.585-.195-.765-.27-.172-.075-.371-.184-.596-.327-.457-.285-.686-.705-.686-1.26 0-.562.225-1.02.675-1.372.45-.353 1.031-.529 1.744-.529.712 0 1.425.24 2.137.72l-.63 1.125c-.525-.36-1.05-.54-1.575-.54-.517 0-.776.143-.776.428 0 .157.082.281.247.371s.439.195.822.315c.382.12.652.214.81.281.165.06.36.158.585.293.42.255.63.682.63 1.282z" fill="#374b5a"/></svg>