<svg width="94" height="123" viewBox="0 0 94 123" fill="none" xmlns="http://www.w3.org/2000/svg">
<path d="M90 33.55C89.9 33.55 89.9 33.55 90 33.55L60 3.55C60 3.55 59.9001 3.55 59.9001 3.45C57.9001 1.45 55.1 0.25 52.1 0.25H17C8.00005 0.35 0.800049 7.55 0.800049 16.55V106.55C0.800049 115.55 8.10005 122.75 17 122.75H77C86 122.75 93.2 115.45 93.2 106.55V41.55C93.2 38.45 92 35.65 90 33.55ZM90.8 106.55C90.8 114.15 84.6 120.35 77 120.35H17C9.40005 120.35 3.20005 114.15 3.20005 106.55V16.55C3.20005 8.95 9.40005 2.75 17 2.75H52C54.4001 2.75 56.6 3.75 58.2 5.35C58.2 5.35 58.2001 5.35 58.3001 5.45C59.6001 6.85 60.5 8.55 60.7 10.55V10.65C60.7 10.95 60.7 11.25 60.7 11.55V16.55C60.7 25.55 68.0001 32.75 76.9001 32.75H81.9001C82.2001 32.75 82.5 32.75 82.8 32.75C82.9 32.75 82.9 32.75 83 32.75C83.2 32.75 83.4 32.85 83.7 32.85C83.8 32.85 83.8001 32.85 83.9001 32.85C84.1001 32.95 84.4001 32.95 84.6001 33.05H84.7C84.9 33.15 85.2001 33.25 85.4001 33.35C85.4001 33.35 85.4 33.35 85.5 33.35C85.7 33.45 86 33.55 86.2 33.65C86.4 33.75 86.7001 33.95 86.9001 34.05C86.9001 34.05 86.9 34.05 87 34.05C87.2 34.15 87.4001 34.35 87.6001 34.55L87.7 34.65C89.6 36.25 90.8 38.65 90.8 41.35V106.55Z" fill="#B3BBC2"/>
<path d="M47.0002 91.5498C49.7617 91.5498 52.0002 89.3112 52.0002 86.5498C52.0002 83.7884 49.7617 81.5498 47.0002 81.5498C44.2388 81.5498 42.0002 83.7884 42.0002 86.5498C42.0002 89.3112 44.2388 91.5498 47.0002 91.5498Z" fill="#B3BBC2"/>
<path d="M51.0002 47.5498H43.0002V75.5498H51.0002V47.5498Z" fill="#B3BBC2"/>
</svg>
