<svg width="171" height="172" viewBox="0 0 171 172" fill="none" xmlns="http://www.w3.org/2000/svg">
<rect x="1" y="1.14624" width="169" height="169.122" rx="4" fill="white" stroke="#F0F1F4" stroke-width="2"/>
<path d="M31.1565 96.0942C31.6554 96.4837 32.2586 96.7165 32.8898 96.7632C33.521 96.8099 34.1519 96.6683 34.7027 96.3565C35.2534 96.0446 35.6994 95.5764 35.984 95.0111C36.2687 94.4459 36.3794 93.8088 36.302 93.1806C36.2247 92.5525 35.9628 91.9613 35.5495 91.482C35.1361 91.0026 34.59 90.6566 33.98 90.4877C33.37 90.3187 32.7237 90.3345 32.1226 90.5329C31.5216 90.7313 30.9929 91.1035 30.6034 91.6024C30.0821 92.2718 29.8475 93.1206 29.9512 93.9627C30.0549 94.8047 30.4884 95.5713 31.1565 96.0942ZM34.1105 92.3105C34.36 92.5053 34.5461 92.7696 34.6453 93.0701C34.7445 93.3706 34.7524 93.6938 34.6679 93.9988C34.5834 94.3038 34.4104 94.5769 34.1707 94.7835C33.9311 94.9902 33.6355 95.1212 33.3214 95.1598C33.0073 95.1985 32.6888 95.1432 32.4062 95.0008C32.1235 94.8585 31.8894 94.6355 31.7335 94.3602C31.5776 94.0848 31.5068 93.7693 31.5301 93.4537C31.5535 93.1381 31.6699 92.8365 31.8646 92.5871C32.126 92.2529 32.5093 92.0362 32.9304 91.9843C33.3514 91.9325 33.7759 92.0498 34.1105 92.3105ZM72.6789 133.576C72.3463 133.316 71.9442 133.161 71.5234 133.13C71.1025 133.098 70.682 133.193 70.3148 133.401C69.9476 133.609 69.6503 133.921 69.4605 134.298C69.2707 134.675 69.197 135.099 69.2485 135.518C69.3001 135.937 69.4747 136.331 69.7502 136.65C70.0258 136.97 70.3899 137.201 70.7966 137.313C71.2032 137.426 71.6341 137.415 72.0348 137.283C72.4355 137.151 72.7879 136.903 73.0476 136.57C73.3952 136.124 73.5516 135.558 73.4824 134.997C73.4133 134.435 73.1243 133.924 72.6789 133.576ZM70.7095 136.098C70.5432 135.968 70.4192 135.792 70.353 135.592C70.2869 135.391 70.2816 135.176 70.338 134.973C70.3943 134.769 70.5096 134.587 70.6694 134.449C70.8292 134.312 71.0262 134.224 71.2356 134.199C71.445 134.173 71.6573 134.21 71.8458 134.305C72.0342 134.399 72.1903 134.548 72.2942 134.732C72.3982 134.915 72.4454 135.126 72.4298 135.336C72.4142 135.546 72.3366 135.747 72.2068 135.914C72.0325 136.136 71.777 136.281 71.4963 136.316C71.2156 136.35 70.9326 136.272 70.7095 136.098Z" fill="#F0F1F4"/>
<path d="M32.4593 53.0281C32.6938 53.379 32.8189 53.7914 32.8189 54.2134C32.8182 54.779 32.5933 55.3213 32.1933 55.7213C31.7933 56.1212 31.2511 56.3462 30.6854 56.3468C30.2635 56.3468 29.851 56.2217 29.5002 55.9873C29.1493 55.7529 28.8759 55.4197 28.7144 55.0298C28.5529 54.64 28.5107 54.211 28.593 53.7972C28.6753 53.3833 28.8785 53.0032 29.1769 52.7048C29.4752 52.4065 29.8554 52.2033 30.2692 52.1209C30.6831 52.0386 31.112 52.0809 31.5019 52.2424C31.8917 52.4038 32.2249 52.6773 32.4593 53.0281Z" fill="#F0F1F4"/>
<path d="M52.4593 128.028C52.6938 128.379 52.8189 128.791 52.8189 129.213C52.8182 129.779 52.5933 130.321 52.1933 130.721C51.7933 131.121 51.2511 131.346 50.6854 131.347C50.2635 131.347 49.851 131.222 49.5002 130.987C49.1493 130.753 48.8759 130.42 48.7144 130.03C48.5529 129.64 48.5107 129.211 48.593 128.797C48.6753 128.383 48.8785 128.003 49.1769 127.705C49.4752 127.406 49.8554 127.203 50.2692 127.121C50.6831 127.039 51.112 127.081 51.5019 127.242C51.8917 127.404 52.2249 127.677 52.4593 128.028Z" fill="#F0F1F4"/>
<path d="M145.222 70.4558C145.572 70.2214 145.985 70.0963 146.407 70.0963C146.973 70.0969 147.515 70.3219 147.915 70.7218C148.315 71.1218 148.54 71.6641 148.54 72.2297C148.54 72.6517 148.415 73.0641 148.181 73.415C147.946 73.7658 147.613 74.0393 147.223 74.2007C146.833 74.3622 146.405 74.4045 145.991 74.3221C145.577 74.2398 145.197 74.0366 144.898 73.7383C144.6 73.4399 144.397 73.0598 144.314 72.6459C144.232 72.2321 144.274 71.8031 144.436 71.4133C144.597 71.0234 144.871 70.6902 145.222 70.4558Z" fill="#F0F1F4"/>
<path d="M129.5 123.44C129.851 123.205 130.263 123.08 130.685 123.08C131.251 123.081 131.793 123.306 132.193 123.706C132.593 124.105 132.818 124.648 132.819 125.213C132.819 125.635 132.694 126.048 132.459 126.399C132.225 126.75 131.892 127.023 131.502 127.184C131.112 127.346 130.683 127.388 130.269 127.306C129.855 127.224 129.475 127.02 129.177 126.722C128.879 126.424 128.675 126.043 128.593 125.63C128.511 125.216 128.553 124.787 128.714 124.397C128.876 124.007 129.149 123.674 129.5 123.44Z" fill="#F0F1F4"/>
<path d="M89.0087 26.654L90.5949 24.5675L89.5933 24L88.5756 26.3361H88.5415L87.5079 24.016L86.4881 24.6006L88.0583 26.6369V26.6711L85.6038 26.3532V27.4882L88.0743 27.1714V27.2044L86.4881 29.2408L87.4396 29.8414L88.5255 27.4882H88.5575L89.5592 29.8243L90.6109 29.2237L89.0087 27.2215V27.1874L91.5283 27.4882V26.3532L89.0087 26.6871V26.654Z" fill="#F0F1F4"/>
<path d="M75.975 42.9254L75.0619 44.0977L75.6091 44.4444L76.2342 43.0886H76.2534L76.8305 44.4348L77.4364 44.0881L76.5137 42.935V42.9158L77.9644 43.0886V42.4358L76.5137 42.6278V42.6086L77.4268 41.4074L76.8497 41.08L76.263 42.4251H76.2438L75.6486 41.0896L75.0619 41.4256L75.9654 42.599V42.6182L74.552 42.4358V43.0886L75.975 42.9062V42.9254Z" fill="#F0F1F4"/>
<path d="M24.8812 106.583L26.2231 104.818L25.3762 104.338L24.5153 106.314H24.4865L23.6108 104.352L22.7488 104.847L24.0769 106.569V106.597L22 106.329V107.289L24.0908 107.021V107.049L22.7488 108.772L23.5531 109.281L24.4727 107.289H24.5004L25.3474 109.266L26.237 108.758L24.8812 107.063V107.034L27.0136 107.289V106.329L24.8812 106.611V106.583Z" fill="#F0F1F4"/>
<path d="M85.975 144.599L85.0619 143.427L85.6091 143.08L86.2342 144.436H86.2534L86.8305 143.09L87.4364 143.436L86.5137 144.589V144.609L87.9644 144.436V145.089L86.5137 144.897V144.916L87.4268 146.117L86.8497 146.444L86.263 145.099H86.2438L85.6486 146.435L85.0619 146.099L85.9654 144.925V144.906L84.552 145.089V144.436L85.975 144.618V144.599Z" fill="#F0F1F4"/>
<path d="M110.433 129.778L111.775 131.543L110.928 132.023L110.067 130.046H110.039L109.163 132.009L108.301 131.514L109.629 129.792V129.764L107.552 130.032V129.072L109.643 129.34V129.312L108.301 127.589L109.105 127.08L110.025 129.072H110.052L110.899 127.095L111.789 127.603L110.433 129.298V129.326L112.566 129.072V130.032L110.433 129.75V129.778Z" fill="#F0F1F4"/>
<path d="M126.363 59.5009V58.3883L123.892 58.7158V58.6828L125.448 56.6368L124.466 56.08L123.467 58.3713H123.433L122.42 56.096L121.419 56.6688L122.96 58.6668V58.6998L120.552 58.3883V59.5009L122.976 59.1905V59.2236L121.419 61.2205L122.353 61.8093L123.418 59.5009H123.449L124.432 61.7933L125.464 61.2045L123.892 59.2396V59.2065L126.363 59.5009Z" fill="#F0F1F4"/>
<path d="M89.1528 90.3057C101.388 90.3057 111.306 80.3875 111.306 68.1528C111.306 55.9182 101.388 46 89.1528 46C76.9182 46 67 55.9182 67 68.1528C67 80.3875 76.9182 90.3057 89.1528 90.3057Z" stroke="#DADDE2" stroke-width="5" stroke-linecap="round" stroke-linejoin="round"/>
<path d="M126 105.469L106.004 85.4728" stroke="#DADDE2" stroke-width="5" stroke-linecap="round" stroke-linejoin="round"/>
<path d="M87.6733 80.932V78.888C85.3026 78.5147 83.1186 77.4413 81.1213 75.668L83.7253 72.504C85.1813 73.7733 86.4973 74.5853 87.6733 74.94V70.768C85.7133 70.264 84.2759 69.592 83.3613 68.752C82.4466 67.8933 81.9893 66.6707 81.9893 65.084C81.9893 63.4787 82.5119 62.1627 83.5573 61.136C84.6026 60.0907 85.9746 59.4653 87.6733 59.26V57.888H90.6413V59.316C92.5079 59.5773 94.3653 60.352 96.2133 61.64L93.9173 64.944C92.7413 64.104 91.6493 63.544 90.6413 63.264V67.296C92.6573 67.8187 94.1413 68.5187 95.0933 69.396C96.0639 70.2733 96.5493 71.5147 96.5493 73.12C96.5493 74.7253 96.0079 76.0507 94.9253 77.096C93.8613 78.1413 92.4333 78.7667 90.6413 78.972V80.932H87.6733ZM92.0693 73.344C92.0693 72.952 91.9666 72.6253 91.7613 72.364C91.5559 72.1027 91.1826 71.86 90.6413 71.636V75.08C91.5933 74.7813 92.0693 74.2027 92.0693 73.344ZM87.6733 63.152C86.8706 63.432 86.4693 63.9453 86.4693 64.692C86.4693 65.4387 86.8706 66.008 87.6733 66.4V63.152Z" fill="#DADDE2"/>
<rect x="57.0001" y="78.9178" width="6.36108" height="38.1665" rx="1.13591" fill="#DADDE2"/>
<rect x="69.7537" y="95.3977" width="6.3768" height="21.5217" rx="1.13591" fill="#DADDE2"/>
<rect x="82.4445" y="101.182" width="6.36108" height="15.9027" rx="1.13591" fill="#DADDE2"/>
</svg>
