<svg width="46" height="46" viewBox="0 0 46 46" fill="#fff" xmlns="http://www.w3.org/2000/svg">
<path fill-rule="evenodd" clip-rule="evenodd" d="M14.443 17.9355V28.6783C14.443 29.3869 15.0175 29.9613 15.7261 29.9613H32.2115L32.2254 30.093C32.2994 30.7976 31.9456 31.4123 31.4351 31.466L13.4314 33.3582C12.9208 33.4119 12.447 32.8842 12.3729 32.1796L11.0489 19.5822C10.9748 18.8776 11.3286 18.2629 11.8391 18.2092L14.443 17.9355Z" fill="#ADB8C0"/>
<path fill-rule="evenodd" clip-rule="evenodd" d="M25.7381 15.3334C26.6454 15.3334 27.3809 14.5979 27.3809 13.6906C27.3809 13.6716 27.3806 13.6526 27.38 13.6338H34.2169C34.9255 13.6338 35.4999 14.2082 35.4999 14.9168V27.5832C35.4999 28.2918 34.9255 28.8662 34.2169 28.8662H27.3735C27.2941 28.0329 26.5922 27.3811 25.7381 27.3811C24.884 27.3811 24.1821 28.0329 24.1027 28.8662H16.8211C16.1125 28.8662 15.5381 28.2918 15.5381 27.5832V14.9168C15.5381 14.2082 16.1125 13.6338 16.8211 13.6338H24.0962C24.0956 13.6526 24.0952 13.6716 24.0952 13.6906C24.0952 14.5979 24.8308 15.3334 25.7381 15.3334ZM26.1733 22.2461C26.2953 22.3762 26.3564 22.5513 26.3564 22.7712C26.3564 22.9832 26.288 23.1515 26.1511 23.2762C26.0143 23.401 25.8279 23.4634 25.5918 23.4634C25.3074 23.4634 25.0895 23.3782 24.9379 23.2078C24.7863 23.0375 24.7106 22.7927 24.7106 22.4735H23.5476C23.5476 23.0234 23.6985 23.464 24.0003 23.7953C24.3021 24.1267 24.728 24.3218 25.2779 24.3808V25.1776H25.9178V24.3768C26.4167 24.3258 26.8084 24.1582 27.0928 23.8738C27.3771 23.5894 27.5193 23.2192 27.5193 22.7632C27.5193 22.5191 27.4818 22.3051 27.4066 22.1214C27.3315 21.9376 27.2229 21.774 27.0807 21.6304C26.9385 21.4869 26.7641 21.3581 26.5576 21.2441C26.351 21.1301 26.0874 21.0087 25.7669 20.8799C25.4463 20.7512 25.227 20.6251 25.1089 20.5017C24.9909 20.3783 24.9319 20.2146 24.9319 20.0108C24.9319 19.7908 24.9922 19.6184 25.113 19.4937C25.2337 19.3689 25.404 19.3066 25.624 19.3066C25.8467 19.3066 26.0244 19.3864 26.1572 19.546C26.29 19.7056 26.3564 19.9464 26.3564 20.2683H27.5193C27.5193 19.7452 27.3852 19.3193 27.1169 18.9907C26.8486 18.662 26.4771 18.4642 26.0023 18.3971V17.5239H25.3584V18.3851C24.8782 18.4333 24.4933 18.6024 24.2035 18.8921C23.9138 19.1818 23.7689 19.5534 23.7689 20.0067C23.7689 20.2696 23.8112 20.4963 23.8957 20.6868C23.9802 20.8773 24.0982 21.0429 24.2498 21.1838C24.4014 21.3246 24.5831 21.4493 24.7951 21.558C25.007 21.6666 25.2592 21.776 25.5516 21.886C25.844 21.9959 26.0512 22.116 26.1733 22.2461Z" fill="#ADB8C0"/>
</svg>
