<svg width="46" height="46" viewBox="0 0 46 46" fill="none" xmlns="http://www.w3.org/2000/svg">
<path fill-rule="evenodd" clip-rule="evenodd" d="M27.5727 12.3215C27.7503 12.3215 27.9303 12.329 28.1087 12.3439C31.3312 12.6138 33.9357 15.3892 34.1872 18.8001C34.3339 20.7903 33.7113 22.6962 32.4186 24.1737L24.8514 32.3046C24.4576 32.7277 23.9249 32.9642 23.36 32.9642C22.7951 32.9642 22.2624 32.7277 21.8687 32.3046L14.2831 24.1534C13.0085 22.696 12.3862 20.79 12.5328 18.8001C12.7843 15.3892 15.3888 12.6138 18.6116 12.3439C18.7897 12.329 18.9697 12.3215 19.1473 12.3215C20.6874 12.3215 22.1752 12.8899 23.36 13.9245C24.5448 12.8899 26.0326 12.3215 27.5727 12.3215ZM23.0467 31.2217C23.1416 31.3238 23.2602 31.3764 23.3894 31.3764C23.5186 31.3764 23.6371 31.3238 23.732 31.2217L31.3065 23.0837C32.2919 21.957 32.7712 20.4896 32.6571 18.9404C32.4637 16.3176 30.4631 14.1857 28.024 13.9815C27.8881 13.9701 27.7505 13.9644 27.6154 13.9644C26.3952 13.9644 25.2163 14.4369 24.2949 15.2972C24.0457 15.5299 23.7243 15.6615 23.3894 15.6615C23.0544 15.6615 22.733 15.5299 22.4838 15.2972C21.5624 14.4369 20.3836 13.9644 19.1633 13.9644C19.0282 13.9644 18.8906 13.9701 18.755 13.9814C16.3157 14.1857 14.3151 16.3176 14.1217 18.9403C14.0075 20.4893 14.4866 21.9568 15.4539 23.0633L23.0467 31.2217ZM23.6554 22.9218C23.7907 23.0706 23.8584 23.2707 23.8584 23.5221C23.8584 23.7644 23.7825 23.9568 23.6308 24.0994C23.4791 24.242 23.2724 24.3133 23.0107 24.3133C22.6954 24.3133 22.4538 24.2159 22.2857 24.0212C22.1177 23.8265 22.0337 23.5467 22.0337 23.1817H20.7443C20.7443 23.8104 20.9116 24.3141 21.2462 24.6928C21.5808 25.0715 22.053 25.2946 22.6627 25.3621V26.2728H23.3721V25.3575C23.9253 25.2992 24.3595 25.1075 24.6748 24.7825C24.9901 24.4574 25.1477 24.0342 25.1477 23.5129C25.1477 23.2339 25.1061 22.9893 25.0228 22.7792C24.9395 22.5692 24.819 22.3821 24.6614 22.2181C24.5038 22.054 24.3105 21.9068 24.0814 21.7765C23.8524 21.6461 23.5602 21.5074 23.2048 21.3602C22.8493 21.213 22.6062 21.0689 22.4753 20.9278C22.3445 20.7867 22.279 20.5997 22.279 20.3666C22.279 20.1152 22.346 19.9181 22.4798 19.7755C22.6136 19.6329 22.8025 19.5616 23.0464 19.5616C23.2933 19.5616 23.4903 19.6529 23.6375 19.8353C23.7847 20.0178 23.8584 20.293 23.8584 20.661H25.1477C25.1477 20.063 24.999 19.5762 24.7016 19.2006C24.4041 18.8249 23.9922 18.5987 23.4658 18.5221V17.5239H22.7519V18.5083C22.2195 18.5635 21.7927 18.7567 21.4715 19.0879C21.1503 19.4191 20.9897 19.8438 20.9897 20.362C20.9897 20.6625 21.0365 20.9217 21.1302 21.1394C21.2239 21.3571 21.3548 21.5465 21.5228 21.7075C21.6909 21.8685 21.8924 22.0111 22.1273 22.1353C22.3623 22.2595 22.6419 22.3844 22.9661 22.5101C23.2903 22.6359 23.52 22.7731 23.6554 22.9218Z" fill="#00CBE9"/>
</svg>
