<svg width="47" height="46" viewBox="0 0 47 46" fill="none" xmlns="http://www.w3.org/2000/svg">
<path fill-rule="evenodd" clip-rule="evenodd" d="M36.0475 29.4362V16.4684C36.0475 14.9404 34.8395 13.6904 33.3445 13.6904H25.785L25.7412 14.1903C25.6428 15.3146 24.7324 16.1802 23.6509 16.1802C22.5694 16.1802 21.6589 15.3146 21.5606 14.1903L21.5168 13.6904H13.4852C11.9901 13.6904 10.7822 14.9404 10.7822 16.4684V29.4362C10.7822 30.9642 11.9901 32.2141 13.4852 32.2141H21.5168L21.5606 31.7142C21.6589 30.5899 22.5694 29.7243 23.6509 29.7243C24.7324 29.7243 25.6428 30.5899 25.7412 31.7142L25.785 32.2141H33.3445C34.8395 32.2141 36.0475 30.9642 36.0475 29.4362ZM34.9522 29.4361C34.9522 30.3675 34.2261 31.1189 33.3445 31.1189H26.7504C26.4027 29.685 25.1407 28.6291 23.6509 28.6291C22.161 28.6291 20.8991 29.685 20.5514 31.1189H13.4852C12.6036 31.1189 11.8775 30.3675 11.8775 29.4361V16.4684C11.8775 15.537 12.6036 14.7857 13.4852 14.7857H20.5514C20.8991 16.2195 22.161 17.2754 23.6509 17.2754C25.1407 17.2754 26.4027 16.2195 26.7504 14.7857H33.3445C34.2261 14.7857 34.9522 15.537 34.9522 16.4684V29.4361ZM23.344 18.0714H24.4392V19.5254H23.344V18.0714ZM24.4392 20.9793H23.344V22.4333H24.4392V20.9793ZM23.344 23.8873H24.4392V25.3413H23.344V23.8873ZM24.4392 26.7952H23.344V28.2258H24.4392V26.7952Z" fill="#ADB8C0"/>
</svg>
