<?xml version="1.0" encoding="utf-8"?>
<!-- Generator: Adobe Illustrator 17.0.0, SVG Export Plug-In . SVG Version: 6.00 Build 0)  -->
<!DOCTYPE svg PUBLIC "-//W3C//DTD SVG 1.1//EN" "http://www.w3.org/Graphics/SVG/1.1/DTD/svg11.dtd">
<svg version="1.1" id="Layer_1" xmlns="http://www.w3.org/2000/svg" xmlns:xlink="http://www.w3.org/1999/xlink" x="0px" y="0px"
	 width="12px" height="15px" viewBox="0 0 12 15" enable-background="new 0 0 12 15" xml:space="preserve">
<g id="piggy-icon">
	<path fill="#B3BBC2" d="M9.332,7.7C7.878,8.805,6.325,8.268,4.885,7.414c0.189-1.579,0.472-2.925,0.563-3.117
		c0.208-0.438,0.629-2.866,2.936-2.216C10.69,2.731,10.373,6.909,9.332,7.7z M9.609,1.049C8.063,0.23,6.057,1.019,5.107,2.164
		C4.412,3,3.602,4.235,3.389,6.818c0.035,0.01-1.924-1.192-1.924-1.192L0.689,6.426c1.417,1.187,2.486,1.783,2.446,1.801
		c-0.342,3.591,0.807,6.037,0.807,6.037l1.586-0.131C5.085,12.398,4.641,10.58,4.77,8.796c0.687,0.339,1.189,0.439,1.374,0.471
		c1.864,0.316,4.07-0.117,5.01-2.487C12.095,4.41,11.154,1.869,9.609,1.049z"/>
	<path fill="#B3BBC2" d="M4.885,7.414L4.419,7.358L4.382,7.662l0.263,0.156L4.885,7.414z M5.448,4.297l0.424,0.202l0,0L5.448,4.297z
		 M8.384,2.081L8.256,2.533h0L8.384,2.081z M5.107,2.164l0.361,0.3l0,0L5.107,2.164z M3.389,6.818L2.92,6.779L2.888,7.168
		l0.376,0.103L3.389,6.818z M1.464,5.626l0.246-0.4L1.389,5.029l-0.262,0.27L1.464,5.626z M0.689,6.426L0.352,6.098L0,6.461
		l0.387,0.325L0.689,6.426z M3.135,8.226L2.948,7.795l-0.255,0.11L2.667,8.182L3.135,8.226z M3.941,14.263l-0.425,0.2l0.139,0.295
		l0.325-0.027L3.941,14.263z M5.528,14.133l0.039,0.468l0.554-0.046l-0.138-0.539L5.528,14.133z M4.77,8.796l0.208-0.421
		L4.351,8.066l-0.05,0.697L4.77,8.796z M6.144,9.267L6.065,9.73h0L6.144,9.267z M11.154,6.78l-0.437-0.173v0L11.154,6.78z
		 M9.048,7.326c-0.619,0.471-1.243,0.587-1.88,0.5c-0.657-0.09-1.341-0.4-2.042-0.816L4.645,7.818
		C5.384,8.256,6.197,8.642,7.04,8.757c0.863,0.118,1.742-0.049,2.576-0.683L9.048,7.326z M5.352,7.47
		c0.093-0.778,0.209-1.499,0.313-2.047c0.052-0.274,0.1-0.502,0.141-0.671c0.045-0.19,0.07-0.259,0.067-0.253L5.024,4.096
		C4.976,4.197,4.93,4.369,4.891,4.534c-0.044,0.187-0.096,0.43-0.15,0.714c-0.108,0.568-0.227,1.31-0.323,2.11L5.352,7.47z
		 M5.872,4.499c0.041-0.086,0.08-0.203,0.112-0.3C6.021,4.09,6.061,3.97,6.11,3.84c0.098-0.262,0.225-0.542,0.4-0.783
		c0.173-0.239,0.382-0.426,0.642-0.527c0.256-0.1,0.608-0.136,1.104,0.004l0.255-0.904c-0.657-0.185-1.222-0.161-1.7,0.025
		C6.337,1.839,5.995,2.165,5.748,2.506C5.503,2.845,5.342,3.213,5.23,3.51C5.174,3.658,5.129,3.795,5.094,3.9
		c-0.04,0.118-0.059,0.172-0.07,0.196L5.872,4.499z M8.256,2.533c0.852,0.24,1.313,1.165,1.388,2.334
		C9.681,5.43,9.62,5.995,9.494,6.456c-0.132,0.484-0.312,0.768-0.447,0.87l0.568,0.748c0.386-0.293,0.636-0.828,0.785-1.371
		c0.154-0.565,0.224-1.234,0.181-1.896c-0.083-1.28-0.617-2.769-2.071-3.178L8.256,2.533z M9.829,0.634
		C8.922,0.153,7.902,0.156,7.003,0.419C6.106,0.681,5.285,1.214,4.745,1.863l0.723,0.6c0.411-0.495,1.068-0.93,1.799-1.143
		C7.994,1.108,8.75,1.126,9.389,1.465L9.829,0.634z M4.745,1.863C3.997,2.764,3.143,4.089,2.92,6.779l0.936,0.078
		c0.205-2.476,0.971-3.622,1.611-4.393L4.745,1.863z M3.264,7.271c0.012,0.003,0.058,0.016,0.117,0.017
		c0.033-0.001,0.117-0.013,0.166-0.027c0.071-0.032,0.207-0.147,0.261-0.231c0.034-0.088,0.049-0.249,0.039-0.315
		C3.836,6.672,3.808,6.606,3.794,6.581C3.768,6.535,3.74,6.505,3.731,6.496C3.709,6.473,3.69,6.457,3.685,6.453
		C3.678,6.447,3.671,6.442,3.667,6.439C3.653,6.429,3.64,6.42,3.633,6.415C3.617,6.404,3.594,6.39,3.568,6.373
		C3.516,6.34,3.441,6.293,3.351,6.237c-0.18-0.112-0.422-0.262-0.665-0.411c-0.243-0.15-0.487-0.3-0.67-0.412
		C1.924,5.357,1.848,5.31,1.794,5.277C1.767,5.261,1.746,5.248,1.732,5.239c-0.007-0.004-0.013-0.008-0.016-0.01
		C1.714,5.228,1.712,5.227,1.711,5.226c0,0-0.001-0.001-0.001-0.001c0,0,0,0,0,0c0,0,0,0,0,0c0,0,0,0-0.246,0.4
		c-0.246,0.4-0.246,0.4-0.246,0.4c0,0,0,0,0,0c0,0,0,0,0,0c0,0,0.001,0,0.001,0.001C1.221,6.028,1.223,6.029,1.224,6.03
		c0.004,0.002,0.009,0.006,0.016,0.01c0.014,0.009,0.035,0.022,0.062,0.038c0.053,0.033,0.13,0.08,0.221,0.136
		c0.183,0.112,0.427,0.262,0.669,0.412c0.243,0.15,0.483,0.298,0.661,0.409C2.944,7.09,3.016,7.135,3.064,7.166
		c0.025,0.016,0.04,0.026,0.048,0.031c0.006,0.004,0.001,0.001-0.007-0.005C3.103,7.19,3.097,7.186,3.09,7.18
		C3.086,7.177,3.068,7.162,3.047,7.14C3.038,7.131,3.01,7.101,2.984,7.055C2.97,7.03,2.942,6.964,2.931,6.922
		c-0.01-0.066,0.005-0.227,0.039-0.315C3.024,6.522,3.16,6.408,3.231,6.376C3.28,6.361,3.363,6.349,3.396,6.348
		c0.06,0.001,0.105,0.013,0.117,0.017L3.264,7.271z M1.127,5.299L0.352,6.098l0.674,0.654l0.775-0.799L1.127,5.299z M0.387,6.786
		c0.723,0.606,1.358,1.061,1.806,1.367C2.417,8.305,2.596,8.421,2.71,8.497c0.06,0.04,0.096,0.063,0.115,0.077
		c0.013,0.009,0.001,0.002-0.017-0.015c0,0-0.049-0.043-0.087-0.115C2.704,8.412,2.648,8.302,2.672,8.153
		c0.03-0.194,0.166-0.31,0.277-0.358l0.373,0.862C3.434,8.609,3.57,8.493,3.6,8.297c0.023-0.151-0.032-0.262-0.05-0.296
		c-0.04-0.075-0.093-0.122-0.099-0.128c-0.03-0.028-0.062-0.051-0.077-0.062c-0.038-0.027-0.09-0.062-0.147-0.099
		C3.108,7.634,2.938,7.523,2.723,7.376c-0.43-0.293-1.039-0.73-1.732-1.311L0.387,6.786z M2.667,8.182
		c-0.176,1.855,0.032,3.415,0.285,4.515c0.127,0.55,0.265,0.986,0.373,1.287c0.054,0.151,0.1,0.267,0.134,0.348
		c0.017,0.04,0.03,0.072,0.04,0.094c0.005,0.011,0.009,0.02,0.012,0.026c0.001,0.003,0.003,0.006,0.004,0.008
		c0,0.001,0.001,0.002,0.001,0.002c0,0,0,0.001,0,0.001c0,0,0,0,0,0c0,0,0,0,0.425-0.199c0.425-0.2,0.425-0.199,0.425-0.199
		c0,0,0,0,0,0c0,0,0,0,0,0c0,0,0,0,0,0c0,0-0.001-0.001-0.001-0.003c-0.001-0.003-0.004-0.009-0.007-0.016
		c-0.007-0.016-0.018-0.04-0.032-0.074c-0.028-0.067-0.069-0.169-0.117-0.304c-0.097-0.27-0.224-0.67-0.342-1.18
		c-0.235-1.021-0.43-2.479-0.265-4.215L2.667,8.182z M3.98,14.731l1.586-0.131l-0.077-0.936l-1.586,0.131L3.98,14.731z
		 M5.983,14.016c-0.445-1.744-0.867-3.49-0.745-5.186L4.301,8.763c-0.135,1.871,0.331,3.762,0.771,5.486L5.983,14.016z M4.562,9.218
		C5.299,9.581,5.847,9.693,6.065,9.73l0.158-0.926C6.071,8.778,5.614,8.689,4.978,8.375L4.562,9.218z M6.066,9.73
		c0.991,0.168,2.101,0.143,3.106-0.264c1.019-0.413,1.901-1.207,2.419-2.513l-0.873-0.347c-0.422,1.064-1.114,1.671-1.898,1.989
		C8.02,8.919,7.096,8.952,6.223,8.804L6.066,9.73z M11.591,6.954c0.512-1.289,0.513-2.626,0.173-3.756
		c-0.337-1.122-1.024-2.081-1.935-2.564l-0.44,0.83c0.635,0.337,1.191,1.058,1.475,2.004c0.282,0.938,0.283,2.057-0.146,3.138
		L11.591,6.954z"/>
</g>
</svg>
