<svg fill="none" height="262" viewBox="0 0 317 262" width="317" xmlns="http://www.w3.org/2000/svg"><path d="m0 0h317v262h-317z" fill="#fff"/><path d="m61.9602 51.913h1.534v9.087h-1.534zm5.5343 5.343v3.744h-1.456v-6.916h1.456v1.261c.234-.4247.5547-.7583.962-1.001.416-.2427.8624-.364 1.339-.364.78 0 1.4084.2383 1.885.715.4854.4767.728 1.1657.728 2.067v4.238h-1.456v-3.796c0-1.274-.5286-1.911-1.586-1.911-.5026 0-.9403.169-1.313.507-.3726.3293-.559.8147-.559 1.456zm12.1753 1.677c0 .6587-.2383 1.1873-.715 1.586-.4766.39-1.0876.585-1.833.585-.5026 0-1.027-.091-1.573-.273-.5373-.182-1.014-.4377-1.43-.767l.702-1.131c.806.6067 1.586.91 2.34.91.3294 0 .5894-.0737.78-.221.1907-.156.286-.351.286-.585 0-.3467-.4593-.6587-1.378-.936-.0693-.026-.1213-.0433-.156-.052-1.4386-.39-2.158-1.04-2.158-1.95 0-.6413.247-1.1527.741-1.534.5027-.39 1.1527-.585 1.95-.585.7974 0 1.5514.234 2.262.702l-.546 1.079c-.5633-.3727-1.1743-.559-1.833-.559-.3466 0-.6283.065-.845.195-.2166.1213-.325.3077-.325.559 0 .2253.1127.39.338.494.156.078.3727.1517.65.221.286.0693.5374.1387.754.208.2167.0693.4247.1473.624.234.208.0867.429.208.663.364.468.312.702.7973.702 1.456zm3.7432-3.679v3.51c0 .3293.0867.5937.26.793.1733.1907.416.286.728.286s.611-.1517.897-.455l.598 1.027c-.5113.4593-1.079.689-1.703.689-.6153 0-1.144-.2123-1.586-.637-.4333-.4333-.65-1.014-.65-1.742v-3.471h-.871v-1.17h.871v-2.171h1.456v2.171h1.82v1.17zm9.5426 5.746h-1.326v-.923c-.572.6847-1.339 1.027-2.301 1.027-.7193 0-1.3173-.2037-1.794-.611-.468-.4073-.702-.949-.702-1.625 0-.6847.2513-1.196.754-1.534s1.183-.507 2.041-.507h1.885v-.26c0-.9187-.5113-1.378-1.534-1.378-.6413 0-1.3087.234-2.002.702l-.65-.91c.8407-.6673 1.794-1.001 2.86-1.001.8147 0 1.4777.208 1.989.624.52.4073.78 1.053.78 1.937zm-1.456-2.574v-.585h-1.638c-1.0487 0-1.573.3293-1.573.988 0 .338.13.598.39.78.26.1733.6197.26 1.079.26.468 0 .8753-.13 1.222-.39s.52-.611.52-1.053zm5.2389 2.574h-1.456v-9.646h1.456zm3.8675 0h-1.4561v-9.646h1.4561zm8.846-2.821h-5.421c.035.5027.265.91.689 1.222.425.3033.91.455 1.456.455.867 0 1.526-.273 1.976-.819l.832.91c-.745.7713-1.716 1.157-2.912 1.157-.97 0-1.798-.3207-2.483-.962-.676-.65-1.014-1.5167-1.014-2.6 0-1.092.347-1.9587 1.04-2.6.694-.6413 1.508-.962 2.444-.962.945 0 1.747.286 2.405.858.659.5633.988 1.3433.988 2.34zm-5.421-1.144h3.965c0-.5807-.182-1.027-.546-1.339s-.814-.468-1.352-.468c-.528 0-1.005.1647-1.43.494-.424.3207-.637.7583-.637 1.313zm10.949-1.586c-.719 0-1.261.234-1.625.702s-.546 1.0963-.546 1.885v2.964h-1.456v-6.916h1.456v1.391c.234-.4333.551-.7887.949-1.066.408-.2773.837-.4203 1.287-.429l.013 1.469c-.026 0-.052 0-.078 0zm12.143 2.73h-5.421c.034.5027.264.91.689 1.222.424.3033.91.455 1.456.455.866 0 1.525-.273 1.976-.819l.832.91c-.746.7713-1.716 1.157-2.912 1.157-.971 0-1.799-.3207-2.483-.962-.676-.65-1.014-1.5167-1.014-2.6 0-1.092.346-1.9587 1.04-2.6.693-.6413 1.508-.962 2.444-.962.944 0 1.746.286 2.405.858.658.5633.988 1.3433.988 2.34zm-5.421-1.144h3.965c0-.5807-.182-1.027-.546-1.339s-.815-.468-1.352-.468c-.529 0-1.006.1647-1.43.494-.425.3207-.637.7583-.637 1.313zm8.778.221v3.744h-1.456v-6.916h1.456v1.261c.234-.4247.555-.7583.962-1.001.416-.2427.862-.364 1.339-.364.78 0 1.408.2383 1.885.715.485.4767.728 1.1657.728 2.067v4.238h-1.456v-3.796c0-1.274-.529-1.911-1.586-1.911-.503 0-.94.169-1.313.507-.373.3293-.559.8147-.559 1.456zm16.043 1.677c0 .6587-.239 1.1873-.715 1.586-.477.39-1.088.585-1.833.585-.503 0-1.027-.091-1.573-.273-.538-.182-1.014-.4377-1.43-.767l.702-1.131c.806.6067 1.586.91 2.34.91.329 0 .589-.0737.78-.221.19-.156.286-.351.286-.585 0-.3467-.46-.6587-1.378-.936-.07-.026-.122-.0433-.156-.052-1.439-.39-2.158-1.04-2.158-1.95 0-.6413.247-1.1527.741-1.534.502-.39 1.152-.585 1.95-.585.797 0 1.551.234 2.262.702l-.546 1.079c-.564-.3727-1.175-.559-1.833-.559-.347 0-.629.065-.845.195-.217.1213-.325.3077-.325.559 0 .2253.112.39.338.494.156.078.372.1517.65.221.286.0693.537.1387.754.208.216.0693.424.1473.624.234.208.0867.429.208.663.364.468.312.702.7973.702 1.456zm8.384-.754h-5.421c.034.5027.264.91.689 1.222.424.3033.91.455 1.456.455.866 0 1.525-.273 1.976-.819l.832.91c-.746.7713-1.716 1.157-2.912 1.157-.971 0-1.799-.3207-2.483-.962-.676-.65-1.014-1.5167-1.014-2.6 0-1.092.346-1.9587 1.04-2.6.693-.6413 1.508-.962 2.444-.962.944 0 1.746.286 2.405.858.658.5633.988 1.3433.988 2.34zm-5.421-1.144h3.965c0-.5807-.182-1.027-.546-1.339s-.815-.468-1.352-.468c-.529 0-1.006.1647-1.43.494-.425.3207-.637.7583-.637 1.313zm10.39 4.069c-.962 0-1.79-.325-2.483-.975-.693-.6587-1.04-1.5167-1.04-2.574s.36-1.9153 1.079-2.574c.728-.6673 1.612-1.001 2.652-1.001s1.92.3597 2.639 1.079l-.858 1.053c-.598-.52-1.2-.78-1.807-.78s-1.135.2037-1.586.611c-.442.3987-.663.9187-.663 1.56 0 .6327.221 1.17.663 1.612s.984.663 1.625.663c.65 0 1.261-.2947 1.833-.884l.858.936c-.841.8493-1.811 1.274-2.912 1.274zm6.194-1.924c.416.416.941.624 1.573.624.633 0 1.153-.208 1.56-.624.416-.4247.624-.9707.624-1.638s-.208-1.209-.624-1.625c-.407-.4247-.927-.637-1.56-.637-.632 0-1.157.2123-1.573.637-.407.416-.611.9577-.611 1.625s.204 1.2133.611 1.638zm4.173.897c-.693.6847-1.56 1.027-2.6 1.027s-1.906-.3423-2.6-1.027c-.693-.6933-1.04-1.5383-1.04-2.535s.347-1.8373 1.04-2.522c.694-.6933 1.56-1.04 2.6-1.04s1.907.3467 2.6 1.04c.694.6847 1.04 1.5253 1.04 2.522s-.346 1.8417-1.04 2.535zm4.452-2.821v3.744h-1.456v-6.916h1.456v1.261c.234-.4247.555-.7583.962-1.001.416-.2427.862-.364 1.339-.364.78 0 1.408.2383 1.885.715.485.4767.728 1.1657.728 2.067v4.238h-1.456v-3.796c0-1.274-.529-1.911-1.586-1.911-.503 0-.94.169-1.313.507-.373.3293-.559.8147-.559 1.456zm10.069 3.848c-.875 0-1.638-.3293-2.288-.988s-.975-1.5253-.975-2.6.334-1.9327 1.001-2.574c.668-.6413 1.461-.962 2.379-.962.928 0 1.673.39 2.236 1.17v-3.796h1.456v9.646h-1.456v-1.04c-.537.7627-1.321 1.144-2.353 1.144zm-1.807-3.523c0 .6587.213 1.196.637 1.612.425.416.923.624 1.495.624s1.058-.208 1.456-.624c.399-.4247.598-.9663.598-1.625s-.199-1.209-.598-1.651c-.398-.442-.888-.663-1.469-.663-.58 0-1.079.221-1.495.663s-.624.9967-.624 1.664zm14.456.598h-5.421c.034.5027.264.91.689 1.222.424.3033.91.455 1.456.455.866 0 1.525-.273 1.976-.819l.832.91c-.746.7713-1.716 1.157-2.912 1.157-.971 0-1.799-.3207-2.483-.962-.676-.65-1.014-1.5167-1.014-2.6 0-1.092.346-1.9587 1.04-2.6.693-.6413 1.508-.962 2.444-.962.944 0 1.746.286 2.405.858.658.5633.988 1.3433.988 2.34zm-5.421-1.144h3.965c0-.5807-.182-1.027-.546-1.339s-.815-.468-1.352-.468c-.529 0-1.006.1647-1.43.494-.425.3207-.637.7583-.637 1.313zm12.249 1.898c0 .6587-.239 1.1873-.715 1.586-.477.39-1.088.585-1.833.585-.503 0-1.027-.091-1.573-.273-.538-.182-1.014-.4377-1.43-.767l.702-1.131c.806.6067 1.586.91 2.34.91.329 0 .589-.0737.78-.221.19-.156.286-.351.286-.585 0-.3467-.46-.6587-1.378-.936-.07-.026-.122-.0433-.156-.052-1.439-.39-2.158-1.04-2.158-1.95 0-.6413.247-1.1527.741-1.534.502-.39 1.152-.585 1.95-.585.797 0 1.551.234 2.262.702l-.546 1.079c-.564-.3727-1.175-.559-1.833-.559-.347 0-.629.065-.845.195-.217.1213-.325.3077-.325.559 0 .2253.112.39.338.494.156.078.372.1517.65.221.286.0693.537.1387.754.208.216.0693.424.1473.624.234.208.0867.429.208.663.364.468.312.702.7973.702 1.456zm11.419 2.067h-1.326v-.923c-.572.6847-1.339 1.027-2.301 1.027-.719 0-1.317-.2037-1.794-.611-.468-.4073-.702-.949-.702-1.625 0-.6847.252-1.196.754-1.534.503-.338 1.183-.507 2.041-.507h1.885v-.26c0-.9187-.511-1.378-1.534-1.378-.641 0-1.308.234-2.002.702l-.65-.91c.841-.6673 1.794-1.001 2.86-1.001.815 0 1.478.208 1.989.624.52.4073.78 1.053.78 1.937zm-1.456-2.574v-.585h-1.638c-1.048 0-1.573.3293-1.573.988 0 .338.13.598.39.78.26.1733.62.26 1.079.26.468 0 .876-.13 1.222-.39.347-.26.52-.611.52-1.053zm-.208-5.226h-1.326l-1.586-1.248 1.534-.637zm11.564.78c.927 0 1.72.3207 2.379.962.658.6413.988 1.495.988 2.561s-.33 1.9327-.988 2.6c-.65.6673-1.413 1.001-2.288 1.001-.867 0-1.647-.3813-2.34-1.144v3.562h-1.456v-9.438h1.456v1.209c.572-.8753 1.321-1.313 2.249-1.313zm-2.275 3.575c0 .6587.199 1.2003.598 1.625.398.416.884.624 1.456.624s1.07-.208 1.495-.624c.424-.416.637-.9533.637-1.612 0-.6673-.208-1.2177-.624-1.651-.416-.442-.915-.663-1.495-.663-.581 0-1.071.221-1.469.663-.399.4333-.598.9793-.598 1.638zm13.207 3.445h-1.326v-.923c-.572.6847-1.339 1.027-2.301 1.027-.719 0-1.317-.2037-1.794-.611-.468-.4073-.702-.949-.702-1.625 0-.6847.251-1.196.754-1.534s1.183-.507 2.041-.507h1.885v-.26c0-.9187-.511-1.378-1.534-1.378-.641 0-1.309.234-2.002.702l-.65-.91c.841-.6673 1.794-1.001 2.86-1.001.815 0 1.478.208 1.989.624.52.4073.78 1.053.78 1.937zm-1.456-2.574v-.585h-1.638c-1.049 0-1.573.3293-1.573.988 0 .338.13.598.39.78.26.1733.62.26 1.079.26.468 0 .875-.13 1.222-.39s.52-.611.52-1.053zm7.41-2.977c-.72 0-1.261.234-1.625.702s-.546 1.0963-.546 1.885v2.964h-1.456v-6.916h1.456v1.391c.234-.4333.55-.7887.949-1.066.407-.2773.836-.4203 1.287-.429l.013 1.469c-.026 0-.052 0-.078 0zm3.634-.195v3.51c0 .3293.086.5937.26.793.173.1907.416.286.728.286s.611-.1517.897-.455l.598 1.027c-.512.4593-1.079.689-1.703.689-.616 0-1.144-.2123-1.586-.637-.434-.4333-.65-1.014-.65-1.742v-3.471h-.871v-1.17h.871v-2.171h1.456v2.171h1.82v1.17zm5.395 5.746h-1.456v-6.916h1.456zm-1.365-8.294c-.182-.182-.273-.3987-.273-.65s.091-.468.273-.65.399-.273.65-.273c.252 0 .468.091.65.273s.273.3987.273.65-.091.468-.273.65-.398.273-.65.273c-.251 0-.468-.091-.65-.273zm7.404 2.743c-.72 0-1.261.234-1.625.702s-.546 1.0963-.546 1.885v2.964h-1.456v-6.916h1.456v1.391c.234-.4333.55-.7887.949-1.066.407-.2773.836-.4203 1.287-.429l.013 1.469c-.026 0-.052 0-.078 0zm-190.4158 25.655c-.8753 0-1.638-.3293-2.288-.988s-.975-1.5253-.975-2.6.3337-1.9327 1.001-2.574c.6674-.6413 1.4604-.962 2.379-.962.9274 0 1.6727.39 2.236 1.17v-3.796h1.456v9.646h-1.456v-1.04c-.5373.7627-1.3216 1.144-2.353 1.144zm-1.807-3.523c0 .6587.2124 1.196.637 1.612.4247.416.923.624 1.495.624s1.0574-.208 1.456-.624c.3987-.4247.598-.9663.598-1.625s-.1993-1.209-.598-1.651c-.3986-.442-.8883-.663-1.469-.663-.5806 0-1.079.221-1.495.663s-.624.9967-.624 1.664zm14.4554.598h-5.421c.0347.5027.2643.91.689 1.222.4247.3033.91.455 1.456.455.8667 0 1.5253-.273 1.976-.819l.832.91c-.7453.7713-1.716 1.157-2.912 1.157-.9707 0-1.7983-.3207-2.483-.962-.676-.65-1.014-1.5167-1.014-2.6 0-1.092.3467-1.9587 1.04-2.6s1.508-.962 2.444-.962c.9447 0 1.7463.286 2.405.858.6587.5633.988 1.3433.988 2.34zm-5.421-1.144h3.965c0-.5807-.182-1.027-.546-1.339s-.8147-.468-1.352-.468c-.5287 0-1.0053.1647-1.43.494-.4247.3207-.637.7583-.637 1.313zm15.3755 3.965h-3.978v-9.087h3.536c.6153 0 1.144.0737 1.586.221.4507.1473.7843.3467 1.001.598.416.468.624.9967.624 1.586 0 .7107-.2253 1.2393-.676 1.586-.1647.1213-.2773.1993-.338.234-.0607.026-.169.0737-.325.143.5633.1213 1.0097.377 1.339.767.338.3813.507.858.507 1.43 0 .6327-.2167 1.1917-.65 1.677-.5113.5633-1.3867.845-2.626.845zm-2.444-5.317h1.95c1.1093 0 1.664-.377 1.664-1.131 0-.4333-.1343-.7453-.403-.936s-.6847-.286-1.248-.286h-1.963zm0 3.9h2.405c.5633 0 .9923-.0867 1.287-.26.3033-.182.455-.52.455-1.014 0-.806-.6457-1.209-1.937-1.209h-2.21zm9.3487-.403c.416.416.9404.624 1.573.624.6327 0 1.1527-.208 1.56-.624.4162-.4247.6242-.9707.6242-1.638s-.208-1.209-.6242-1.625c-.4073-.4247-.9273-.637-1.56-.637-.6326 0-1.157.2123-1.573.637-.4073.416-.611.9577-.611 1.625s.2037 1.2133.611 1.638zm4.1732.897c-.694.6847-1.5602 1.027-2.6002 1.027s-1.9066-.3423-2.6-1.027c-.6933-.6933-1.04-1.5383-1.04-2.535s.3467-1.8373 1.04-2.522c.6934-.6933 1.56-1.04 2.6-1.04s1.9062.3467 2.6002 1.04c.693.6847 1.04 1.5253 1.04 2.522s-.347 1.8417-1.04 2.535zm7.831-2.249v-3.744h1.456v6.916h-1.456v-1.261c-.234.4247-.559.7583-.975 1.001-.407.2427-.849.364-1.326.364-.78 0-1.412-.2383-1.898-.715-.476-.4767-.715-1.1657-.715-2.067v-4.238h1.456v3.796c0 1.274.529 1.911 1.586 1.911.503 0 .941-.1647 1.313-.494.373-.338.559-.8277.559-1.469zm5.663-2.574v3.51c0 .3293.086.5937.26.793.173.1907.416.286.728.286s.611-.1517.897-.455l.598 1.027c-.512.4593-1.079.689-1.703.689-.616 0-1.144-.2123-1.586-.637-.434-.4333-.65-1.014-.65-1.742v-3.471h-.871v-1.17h.871v-2.171h1.456v2.171h1.82v1.17zm5.395 5.746h-1.456v-6.916h1.456zm-1.365-8.294c-.182-.182-.273-.3987-.273-.65s.091-.468.273-.65.399-.273.65-.273c.252 0 .468.091.65.273s.273.3987.273.65-.091.468-.273.65-.398.273-.65.273c-.251 0-.468-.091-.65-.273zm6.598 8.398c-.867 0-1.63-.3337-2.288-1.001-.65-.6673-.975-1.534-.975-2.6s.329-1.9197.988-2.561c.658-.6413 1.451-.962 2.379-.962.927 0 1.677.4377 2.249 1.313v-1.209h1.456v9.438h-1.456v-3.562c-.694.7627-1.478 1.144-2.353 1.144zm-1.807-3.536c0 .6587.212 1.196.637 1.612.424.416.923.624 1.495.624s1.057-.208 1.456-.624c.398-.4247.598-.9663.598-1.625s-.2-1.2047-.598-1.638c-.399-.442-.889-.663-1.469-.663-.581 0-1.079.221-1.495.663-.416.4333-.624.9837-.624 1.651zm12.856.26v-3.744h1.456v6.916h-1.456v-1.261c-.234.4247-.559.7583-.975 1.001-.407.2427-.849.364-1.326.364-.78 0-1.413-.2383-1.898-.715-.477-.4767-.715-1.1657-.715-2.067v-4.238h1.456v3.796c0 1.274.529 1.911 1.586 1.911.503 0 .94-.1647 1.313-.494.373-.338.559-.8277.559-1.469zm10.303.351h-5.421c.035.5027.265.91.689 1.222.425.3033.91.455 1.456.455.867 0 1.526-.273 1.976-.819l.832.91c-.745.7713-1.716 1.157-2.912 1.157-.97 0-1.798-.3207-2.483-.962-.676-.65-1.014-1.5167-1.014-2.6 0-1.092.347-1.9587 1.04-2.6.694-.6413 1.508-.962 2.444-.962.945 0 1.747.286 2.405.858.659.5633.988 1.3433.988 2.34zm-5.421-1.144h3.965c0-.5807-.182-1.027-.546-1.339s-.814-.468-1.352-.468c-.528 0-1.005.1647-1.43.494-.424.3207-.637.7583-.637 1.313zm14.232 1.417 2.028-6.539h1.378l2.028 6.539 2.288-6.539h1.651l-3.172 9.087h-1.521l-1.911-6.227h-.104l-1.911 6.227h-1.521l-3.172-9.087h1.651zm17.315-.273h-5.421c.034.5027.264.91.689 1.222.424.3033.91.455 1.456.455.866 0 1.525-.273 1.976-.819l.832.91c-.746.7713-1.716 1.157-2.912 1.157-.971 0-1.799-.3207-2.483-.962-.676-.65-1.014-1.5167-1.014-2.6 0-1.092.346-1.9587 1.04-2.6.693-.6413 1.508-.962 2.444-.962.944 0 1.746.286 2.405.858.658.5633.988 1.3433.988 2.34zm-5.421-1.144h3.965c0-.5807-.182-1.027-.546-1.339s-.815-.468-1.352-.468c-.529 0-1.006.1647-1.43.494-.425.3207-.637.7583-.637 1.313zm11.027-3.055c.927 0 1.72.3207 2.379.962s.988 1.495.988 2.561-.329 1.9327-.988 2.6c-.65.6673-1.413 1.001-2.288 1.001-.867 0-1.647-.3813-2.34-1.144v1.04h-1.456v-9.646h1.456v3.939c.572-.8753 1.322-1.313 2.249-1.313zm-2.275 3.575c0 .6587.199 1.2003.598 1.625.399.416.884.624 1.456.624s1.07-.208 1.495-.624.637-.9533.637-1.612c0-.6673-.208-1.2177-.624-1.651-.416-.442-.914-.663-1.495-.663s-1.07.221-1.469.663c-.399.4333-.598.9793-.598 1.638zm14.293 3.549c-.876 0-1.638-.3293-2.288-.988s-.975-1.5253-.975-2.6.333-1.9327 1.001-2.574c.667-.6413 1.46-.962 2.379-.962.927 0 1.672.39 2.236 1.17v-3.796h1.456v9.646h-1.456v-1.04c-.538.7627-1.322 1.144-2.353 1.144zm-1.807-3.523c0 .6587.212 1.196.637 1.612.424.416.923.624 1.495.624s1.057-.208 1.456-.624c.398-.4247.598-.9663.598-1.625s-.2-1.209-.598-1.651c-.399-.442-.889-.663-1.469-.663-.581 0-1.079.221-1.495.663s-.624.9967-.624 1.664zm14.455.598h-5.421c.035.5027.264.91.689 1.222.425.3033.91.455 1.456.455.867 0 1.525-.273 1.976-.819l.832.91c-.745.7713-1.716 1.157-2.912 1.157-.971 0-1.798-.3207-2.483-.962-.676-.65-1.014-1.5167-1.014-2.6 0-1.092.347-1.9587 1.04-2.6s1.508-.962 2.444-.962c.945 0 1.746.286 2.405.858.659.5633.988 1.3433.988 2.34zm-5.421-1.144h3.965c0-.5807-.182-1.027-.546-1.339s-.815-.468-1.352-.468c-.529 0-1.005.1647-1.43.494-.425.3207-.637.7583-.637 1.313zm17.69-.455h1.534v3.107c-.858.9447-2.085 1.417-3.679 1.417-1.344 0-2.47-.442-3.38-1.326-.902-.884-1.352-2.002-1.352-3.354s.459-2.4787 1.378-3.38c.927-.9013 2.045-1.352 3.354-1.352 1.308 0 2.396.3813 3.263 1.144l-.819 1.17c-.356-.3033-.715-.5113-1.079-.624-.356-.1213-.772-.182-1.248-.182-.919 0-1.69.299-2.314.897-.624.5893-.936 1.3693-.936 2.34 0 .962.303 1.7377.91 2.327.606.5807 1.339.871 2.197.871.866 0 1.59-.1863 2.171-.559zm5.25 2.6c.416.416.941.624 1.573.624.633 0 1.153-.208 1.56-.624.416-.4247.624-.9707.624-1.638s-.208-1.209-.624-1.625c-.407-.4247-.927-.637-1.56-.637-.632 0-1.157.2123-1.573.637-.407.416-.611.9577-.611 1.625s.204 1.2133.611 1.638zm4.173.897c-.693.6847-1.56 1.027-2.6 1.027s-1.906-.3423-2.6-1.027c-.693-.6933-1.04-1.5383-1.04-2.535s.347-1.8373 1.04-2.522c.694-.6933 1.56-1.04 2.6-1.04s1.907.3467 2.6 1.04c.694.6847 1.04 1.5253 1.04 2.522s-.346 1.8417-1.04 2.535zm4.608-.897c.416.416.94.624 1.573.624s1.153-.208 1.56-.624c.416-.4247.624-.9707.624-1.638s-.208-1.209-.624-1.625c-.407-.4247-.927-.637-1.56-.637s-1.157.2123-1.573.637c-.407.416-.611.9577-.611 1.625s.204 1.2133.611 1.638zm4.173.897c-.693.6847-1.56 1.027-2.6 1.027s-1.907-.3423-2.6-1.027c-.693-.6933-1.04-1.5383-1.04-2.535s.347-1.8373 1.04-2.522c.693-.6933 1.56-1.04 2.6-1.04s1.907.3467 2.6 1.04c.693.6847 1.04 1.5253 1.04 2.522s-.347 1.8417-1.04 2.535zm9.391-5.993v6.032c0 1.222-.333 2.1363-1.001 2.743-.658.6153-1.508.923-2.548.923s-1.98-.325-2.821-.975l.689-1.105c.676.5113 1.357.767 2.041.767.694 0 1.24-.1777 1.638-.533.408-.3553.611-.923.611-1.703v-.884c-.216.4073-.528.7323-.936.975-.398.2427-.849.364-1.352.364-.918 0-1.672-.3207-2.262-.962-.589-.6413-.884-1.4387-.884-2.392s.295-1.7507.884-2.392c.59-.6413 1.339-.962 2.249-.962.919 0 1.664.377 2.236 1.131v-1.027zm-5.395 3.198c0 .5633.174 1.053.52 1.469.356.4073.828.611 1.417.611.598 0 1.079-.1993 1.443-.598.373-.3987.559-.8927.559-1.482 0-.598-.186-1.1007-.559-1.508-.372-.416-.853-.624-1.443-.624-.589 0-1.061.2123-1.417.637-.346.4247-.52.923-.52 1.495zm9.261 3.718h-1.456v-9.646h1.456zm8.847-2.821h-5.421c.034.5027.264.91.689 1.222.424.3033.91.455 1.456.455.866 0 1.525-.273 1.976-.819l.832.91c-.746.7713-1.716 1.157-2.912 1.157-.971 0-1.799-.3207-2.483-.962-.676-.65-1.014-1.5167-1.014-2.6 0-1.092.346-1.9587 1.04-2.6.693-.6413 1.508-.962 2.444-.962.944 0 1.746.286 2.405.858.658.5633.988 1.3433.988 2.34zm-5.421-1.144h3.965c0-.5807-.182-1.027-.546-1.339s-.815-.468-1.352-.468c-.529 0-1.006.1647-1.43.494-.425.3207-.637.7583-.637 1.313z" fill="#62707b"/><path clip-rule="evenodd" d="m153.458 107.735c.669-.182 3.669-.736 6.665-1.227 4.657-.758 5.879-.837 8.606-.613 5.687.47 9.649 2.474 12.42 6.26 1.807 2.5 2.755 5.232 2.928 8.491.076 1.274.15 2.456.16 2.594.012.153.731-.519 1.57-1.461 2.518-2.811 3.109-3.088 4.085-1.99.344.388.354.697.044 1.264-.53.964-7.449 8.258-7.937 8.345-.651.117-1.417-.49-3.653-2.913-1.213-1.319-2.963-2.991-3.941-3.762-1.348-1.047-1.749-1.58-1.812-2.267-.05-.705.12-.952.786-1.15 1.041-.326 2.842.949 5.684 4.024 1.04 1.117 1.945 1.994 2.051 1.991.104-.019.206-.813.236-1.75.186-6.023-1.318-9.726-5.027-12.365-3.745-2.665-9.035-3.221-16.965-1.814-15.976 2.851-34.414 12.397-57.845 29.931-7.8483 5.862-8.6724 6.289-9.1103 4.614-.1078-.431-.0799-1.041.0961-1.336.3896-.722 9.8302-7.831 15.9192-12.012 15.838-10.849 32.197-19.137 45.04-22.854z" fill="#3675e0" fill-rule="evenodd"/><rect fill="#3675e0" height="27" rx="2.70587" width="124" x="20" y="188"/><path d="m38.3322 197.124h1.705l2.959 7.876h-1.639l-.66-1.881h-3.014l-.66 1.881h-1.639zm1.881 4.631-.693-1.98-.286-.946h-.088l-.286.946-.704 1.98zm4.5476-2.981c-.2567 0-.4767-.091-.66-.275-.1833-.183-.275-.403-.275-.66 0-.256.0917-.473.275-.649.1833-.183.4033-.275.66-.275s.473.092.649.275c.1833.176.275.393.275.649 0 .257-.0917.477-.275.66-.176.184-.3923.275-.649.275zm-1.056 8.712c-.2933 0-.5427-.025-.748-.077v-1.397c.1907.103.385.154.583.154.176 0 .3007-.055.374-.165.0807-.102.121-.264.121-.484v-6.127h1.441v6.16c0 .66-.165 1.148-.495 1.463-.33.316-.7553.473-1.276.473zm5.9975-2.31c-.5793 0-1.0963-.128-1.551-.385-.4547-.264-.8103-.619-1.067-1.067-.2493-.454-.374-.964-.374-1.529 0-.557.1247-1.063.374-1.518.2567-.454.6123-.81 1.067-1.067.4547-.264.9717-.396 1.551-.396.572 0 1.0853.132 1.54.396.4547.257.8067.613 1.056 1.067.2567.455.385.961.385 1.518 0 .565-.1283 1.075-.385 1.529-.2493.448-.6013.803-1.056 1.067-.4547.257-.968.385-1.54.385zm0-1.331c.2787 0 .5353-.066.77-.198s.4217-.322.561-.572c.1393-.249.209-.542.209-.88 0-.33-.0697-.619-.209-.869-.1393-.249-.3263-.44-.561-.572s-.4913-.198-.77-.198-.5353.066-.77.198-.4253.323-.572.572c-.1393.25-.209.539-.209.869s.0697.624.209.88c.1467.25.3373.44.572.572s.4913.198.77.198zm6.139 1.331c-.6747 0-1.188-.209-1.54-.627s-.528-1.001-.528-1.749v-3.41h1.441v3.234c0 .382.0917.682.275.902.1833.213.4253.319.726.319.4107 0 .737-.15.979-.451.242-.3.363-.682.363-1.144v-2.86h1.441v5.61h-1.353v-.704h-.088c-.1687.272-.407.488-.715.649-.3007.154-.6343.231-1.001.231zm7.1418-.088c-.2786 0-.5353-.04-.77-.121-.2346-.088-.4253-.205-.572-.352-.3446-.33-.517-.799-.517-1.408v-2.585h-.979v-1.232h.979v-1.584h1.441v1.584h1.375v1.232h-1.375v2.321c0 .286.0624.492.187.616.1027.118.2787.176.528.176.1394 0 .253-.018.341-.055.0954-.036.2164-.099.363-.187v1.408c-.3153.125-.649.187-1.001.187zm4.6765.088c-.5574 0-1.0597-.128-1.507-.385-.4474-.256-.7994-.608-1.056-1.056-.2494-.454-.374-.964-.374-1.529 0-.535.1246-1.03.374-1.485.2493-.462.594-.828 1.034-1.1.44-.271.9313-.407 1.474-.407.5793 0 1.078.125 1.496.374.418.25.7333.591.946 1.023.22.433.33.913.33 1.441 0 .169-.011.33-.033.484h-4.213c.0733.448.2493.789.528 1.023.286.228.627.341 1.023.341.33 0 .6123-.069.847-.209.242-.146.4326-.341.572-.583l1.166.572c-.572.998-1.441 1.496-2.607 1.496zm1.331-3.663c-.0147-.176-.0807-.348-.198-.517-.11-.176-.2677-.319-.473-.429-.198-.117-.4327-.176-.704-.176-.3447 0-.6417.103-.891.308-.242.198-.418.47-.528.814zm2.5812-2.123h1.353v.748h.088c.1393-.264.3556-.48.649-.649.2933-.176.616-.264.968-.264.2566 0 .4913.041.704.121v1.441c-.198-.073-.3667-.124-.506-.154-.132-.036-.275-.055-.429-.055-.4254 0-.7627.154-1.012.462-.2494.308-.374.697-.374 1.166v2.794h-1.441zm9.1587 5.786c-.594 0-1.0816-.172-1.463-.517-.3813-.352-.572-.81-.572-1.375 0-.374.099-.704.297-.99s.4694-.506.814-.66c.3447-.154.726-.231 1.144-.231.5794 0 1.0744.085 1.485.253v-.242c0-.308-.1173-.557-.352-.748-.2273-.19-.5353-.286-.924-.286-.264 0-.5206.063-.77.187-.242.118-.4436.275-.605.473l-.924-.726c.2714-.352.6124-.623 1.023-.814.4107-.19.858-.286 1.342-.286.858 0 1.5107.198 1.958.594.4474.396.671.976.671 1.738v3.454h-1.419v-.572h-.088c-.1686.22-.3923.4-.671.539-.2713.14-.5866.209-.946.209zm.341-1.122c.418 0 .748-.132.99-.396.2494-.271.374-.586.374-.946-.374-.176-.7663-.264-1.177-.264-.748 0-1.122.279-1.122.836 0 .228.0807.415.242.561.1614.14.3924.209.693.209zm-1.276-7.238h1.683l.462 1.496h-1.166zm11.8456 8.36c-.7626 0-1.4593-.179-2.09-.539-.6306-.366-1.1293-.861-1.496-1.485-.3593-.63-.539-1.327-.539-2.09 0-.762.1797-1.455.539-2.079.3667-.63.8654-1.125 1.496-1.485.6307-.366 1.3274-.55 2.09-.55 1.188 0 2.1707.429 2.948 1.287l-1.045 1.012c-.506-.594-1.1366-.891-1.892-.891-.4913 0-.9386.114-1.342.341-.4033.22-.7223.536-.957.946-.2273.411-.341.884-.341 1.419 0 .536.1137 1.009.341 1.419.2347.411.5537.73.957.957.4034.22.8507.33 1.342.33.8287 0 1.5217-.344 2.079-1.034l1.056 1.001c-.3886.47-.8506.829-1.386 1.078-.528.242-1.1146.363-1.76.363zm4.3008-8.052h1.441v1.991l-.088.979h.088c.1613-.264.396-.476.704-.638.308-.161.6416-.242 1.001-.242.682 0 1.2031.206 1.5621.616.367.404.55.965.55 1.683v3.487h-1.4411v-3.311c0-.359-.099-.638-.297-.836-.1907-.198-.4474-.297-.77-.297-.3814 0-.6967.154-.946.462-.242.308-.363.686-.363 1.133v2.849h-1.441zm6.7021 2.266h1.353v.748h.088c.14-.264.356-.48.649-.649.294-.176.616-.264.968-.264.257 0 .492.041.704.121v1.441c-.198-.073-.366-.124-.506-.154-.132-.036-.275-.055-.429-.055-.425 0-.762.154-1.012.462-.249.308-.374.697-.374 1.166v2.794h-1.441zm7.131 5.786c-.58 0-1.097-.128-1.551-.385-.455-.264-.811-.619-1.067-1.067-.25-.454-.374-.964-.374-1.529 0-.557.124-1.063.374-1.518.256-.454.612-.81 1.067-1.067.454-.264.971-.396 1.551-.396.572 0 1.085.132 1.54.396.454.257.806.613 1.056 1.067.256.455.385.961.385 1.518 0 .565-.129 1.075-.385 1.529-.25.448-.602.803-1.056 1.067-.455.257-.968.385-1.54.385zm0-1.331c.278 0 .535-.066.77-.198.234-.132.421-.322.561-.572.139-.249.209-.542.209-.88 0-.33-.07-.619-.209-.869-.14-.249-.327-.44-.561-.572-.235-.132-.492-.198-.77-.198-.279 0-.536.066-.77.198-.235.132-.426.323-.572.572-.14.25-.209.539-.209.869s.069.624.209.88c.146.25.337.44.572.572.234.132.491.198.77.198zm4.061-4.455h1.353v.704h.088c.176-.271.411-.484.704-.638.301-.161.634-.242 1.001-.242.396 0 .741.096 1.034.286.293.184.502.418.627.704.183-.293.433-.531.748-.715.323-.183.7-.275 1.133-.275.638 0 1.122.198 1.452.594.337.389.506.917.506 1.584v3.608h-1.43v-3.344c0-.352-.084-.623-.253-.814-.161-.19-.389-.286-.682-.286-.374 0-.675.151-.902.451-.22.294-.33.682-.33 1.166v2.827h-1.441v-3.344c0-.352-.088-.623-.264-.814-.169-.19-.411-.286-.726-.286-.352 0-.638.151-.858.451-.213.294-.319.682-.319 1.166v2.827h-1.441zm12.737 5.786c-.558 0-1.06-.128-1.507-.385-.448-.256-.8-.608-1.056-1.056-.25-.454-.374-.964-.374-1.529 0-.535.124-1.03.374-1.485.249-.462.594-.828 1.034-1.1.44-.271.931-.407 1.474-.407.579 0 1.078.125 1.496.374.418.25.733.591.946 1.023.22.433.33.913.33 1.441 0 .169-.011.33-.033.484h-4.213c.073.448.249.789.528 1.023.286.228.627.341 1.023.341.33 0 .612-.069.847-.209.242-.146.432-.341.572-.583l1.166.572c-.572.998-1.441 1.496-2.607 1.496zm1.331-3.663c-.015-.176-.081-.348-.198-.517-.11-.176-.268-.319-.473-.429-.198-.117-.433-.176-.704-.176-.345 0-.642.103-.891.308-.242.198-.418.47-.528.814z" fill="#fff"/><rect fill="#fff" height="35" rx="3.50659" stroke="#979797" stroke-width=".518369" width="163" x="134" y="165"/><path d="m155.352 177.976h2.17l3.766 10.024h-2.086l-.84-2.394h-3.836l-.84 2.394h-2.086zm2.394 5.894-.882-2.52-.364-1.204h-.112l-.364 1.204-.896 2.52zm5.79-3.794c-.327 0-.607-.117-.84-.35s-.35-.513-.35-.84.117-.602.35-.826c.233-.233.513-.35.84-.35s.602.117.826.35c.233.224.35.499.35.826s-.117.607-.35.84c-.224.233-.499.35-.826.35zm-1.344 11.088c-.373 0-.691-.033-.952-.098v-1.778c.243.131.49.196.742.196.224 0 .383-.07.476-.21.103-.131.154-.336.154-.616v-7.798h1.834v7.84c0 .84-.21 1.461-.63 1.862s-.961.602-1.624.602zm7.635-2.94c-.737 0-1.395-.163-1.974-.49-.579-.336-1.031-.789-1.358-1.358-.317-.579-.476-1.227-.476-1.946 0-.709.159-1.353.476-1.932.327-.579.779-1.031 1.358-1.358.579-.336 1.237-.504 1.974-.504.728 0 1.381.168 1.96.504.579.327 1.027.779 1.344 1.358.327.579.49 1.223.49 1.932 0 .719-.163 1.367-.49 1.946-.317.569-.765 1.022-1.344 1.358-.579.327-1.232.49-1.96.49zm0-1.694c.355 0 .681-.084.98-.252s.537-.411.714-.728.266-.691.266-1.12c0-.42-.089-.789-.266-1.106s-.415-.56-.714-.728-.625-.252-.98-.252-.681.084-.98.252-.541.411-.728.728c-.177.317-.266.686-.266 1.106s.089.793.266 1.12c.187.317.429.56.728.728s.625.252.98.252zm7.815 1.694c-.858 0-1.512-.266-1.96-.798s-.672-1.274-.672-2.226v-4.34h1.834v4.116c0 .485.117.868.35 1.148.234.271.542.406.924.406.523 0 .938-.191 1.246-.574s.462-.868.462-1.456v-3.64h1.834v7.14h-1.722v-.896h-.112c-.214.345-.518.621-.91.826-.382.196-.807.294-1.274.294zm9.092-.112c-.355 0-.681-.051-.98-.154-.299-.112-.541-.261-.728-.448-.439-.42-.658-1.017-.658-1.792v-3.29h-1.246v-1.568h1.246v-2.016h1.834v2.016h1.75v1.568h-1.75v2.954c0 .364.079.625.238.784.131.149.355.224.672.224.177 0 .322-.023.434-.07.121-.047.275-.126.462-.238v1.792c-.401.159-.826.238-1.274.238zm5.954.112c-.71 0-1.349-.163-1.918-.49-.57-.327-1.018-.775-1.344-1.344-.318-.579-.476-1.227-.476-1.946 0-.681.158-1.311.476-1.89.317-.588.756-1.055 1.316-1.4s1.185-.518 1.876-.518c.737 0 1.372.159 1.904.476s.933.751 1.204 1.302c.28.551.42 1.162.42 1.834 0 .215-.014.42-.042.616h-5.362c.093.569.317 1.003.672 1.302.364.289.798.434 1.302.434.42 0 .779-.089 1.078-.266.308-.187.55-.434.728-.742l1.484.728c-.728 1.269-1.834 1.904-3.318 1.904zm1.694-4.662c-.019-.224-.103-.443-.252-.658-.14-.224-.341-.406-.602-.546-.252-.149-.551-.224-.896-.224-.439 0-.817.131-1.134.392-.308.252-.532.597-.672 1.036zm3.287-2.702h1.722v.952h.112c.177-.336.453-.611.826-.826.373-.224.784-.336 1.232-.336.327 0 .625.051.896.154v1.834c-.252-.093-.467-.159-.644-.196-.168-.047-.35-.07-.546-.07-.541 0-.971.196-1.288.588s-.476.887-.476 1.484v3.556h-1.834zm9.477-2.884h1.834v10.024h-1.834zm3.579 0h1.666v3.164h-1.666zm6.755 10.248c-.71 0-1.349-.163-1.918-.49-.57-.327-1.018-.775-1.344-1.344-.318-.579-.476-1.227-.476-1.946 0-.681.158-1.311.476-1.89.317-.588.756-1.055 1.316-1.4s1.185-.518 1.876-.518c.737 0 1.372.159 1.904.476s.933.751 1.204 1.302c.28.551.42 1.162.42 1.834 0 .215-.014.42-.042.616h-5.362c.093.569.317 1.003.672 1.302.364.289.798.434 1.302.434.42 0 .779-.089 1.078-.266.308-.187.55-.434.728-.742l1.484.728c-.728 1.269-1.834 1.904-3.318 1.904zm1.694-4.662c-.019-.224-.103-.443-.252-.658-.14-.224-.341-.406-.602-.546-.252-.149-.551-.224-.896-.224-.439 0-.817.131-1.134.392-.308.252-.532.597-.672 1.036zm4.914.812-2.464-3.514h2.17l1.358 2.044h.084l1.274-2.044h2.24l-2.506 3.514 2.506 3.626h-2.17l-1.372-2.086h-.084l-1.344 2.086h-2.17zm8.96 3.738c-.354 0-.681-.051-.98-.154-.298-.112-.541-.261-.728-.448-.438-.42-.658-1.017-.658-1.792v-3.29h-1.246v-1.568h1.246v-2.016h1.834v2.016h1.75v1.568h-1.75v2.954c0 .364.08.625.238.784.131.149.355.224.672.224.178 0 .322-.023.434-.07.122-.047.276-.126.462-.238v1.792c-.401.159-.826.238-1.274.238zm5.954.112c-.709 0-1.348-.163-1.918-.49-.569-.327-1.017-.775-1.344-1.344-.317-.579-.476-1.227-.476-1.946 0-.681.159-1.311.476-1.89.318-.588.756-1.055 1.316-1.4s1.186-.518 1.876-.518c.738 0 1.372.159 1.904.476s.934.751 1.204 1.302c.28.551.42 1.162.42 1.834 0 .215-.014.42-.042.616h-5.362c.094.569.318 1.003.672 1.302.364.289.798.434 1.302.434.42 0 .78-.089 1.078-.266.308-.187.551-.434.728-.742l1.484.728c-.728 1.269-1.834 1.904-3.318 1.904zm1.694-4.662c-.018-.224-.102-.443-.252-.658-.14-.224-.34-.406-.602-.546-.252-.149-.55-.224-.896-.224-.438 0-.816.131-1.134.392-.308.252-.532.597-.672 1.036zm3.287-2.702h1.722v.896h.112c.215-.345.518-.616.91-.812.392-.205.817-.308 1.274-.308.859 0 1.512.261 1.96.784s.672 1.237.672 2.142v4.438h-1.834v-4.214c0-.457-.116-.812-.35-1.064-.233-.252-.56-.378-.98-.378-.494 0-.896.191-1.204.574-.298.383-.448.863-.448 1.442v3.64h-1.834zm11.139 7.364c-.868 0-1.572-.177-2.114-.532-.532-.355-.905-.817-1.12-1.386l1.638-.714c.15.336.36.593.63.77.28.168.602.252.966.252.336 0 .616-.051.84-.154.224-.112.336-.289.336-.532 0-.233-.102-.406-.308-.518-.205-.121-.513-.229-.924-.322l-.84-.182c-.578-.14-1.059-.392-1.442-.756-.382-.373-.574-.835-.574-1.386 0-.411.122-.779.364-1.106.252-.327.588-.579 1.008-.756.43-.177.901-.266 1.414-.266 1.475 0 2.46.518 2.954 1.554l-1.568.686c-.28-.504-.728-.756-1.344-.756-.317 0-.569.061-.756.182-.186.112-.28.257-.28.434 0 .336.318.588.952.756l1.05.252c.71.177 1.242.448 1.596.812.364.364.546.812.546 1.344 0 .457-.135.863-.406 1.218-.261.345-.625.616-1.092.812-.457.196-.966.294-1.526.294zm5.431-8.148c-.327 0-.607-.117-.84-.35-.234-.233-.35-.513-.35-.84s.116-.602.35-.826c.233-.233.513-.35.84-.35.326 0 .602.117.826.35.233.224.35.499.35.826s-.117.607-.35.84c-.224.233-.5.35-.826.35zm-.924.784h1.834v7.14h-1.834zm7.215 7.364c-.738 0-1.396-.163-1.974-.49-.579-.336-1.032-.789-1.358-1.358-.318-.579-.476-1.227-.476-1.946 0-.709.158-1.353.476-1.932.326-.579.779-1.031 1.358-1.358.578-.336 1.236-.504 1.974-.504.728 0 1.381.168 1.96.504.578.327 1.026.779 1.344 1.358.326.579.49 1.223.49 1.932 0 .719-.164 1.367-.49 1.946-.318.569-.766 1.022-1.344 1.358-.579.327-1.232.49-1.96.49zm0-1.694c.354 0 .681-.084.98-.252.298-.168.536-.411.714-.728.177-.317.266-.691.266-1.12 0-.42-.089-.789-.266-1.106-.178-.317-.416-.56-.714-.728-.299-.168-.626-.252-.98-.252-.355 0-.682.084-.98.252-.299.168-.542.411-.728.728-.178.317-.266.686-.266 1.106s.088.793.266 1.12c.186.317.429.56.728.728.298.168.625.252.98.252zm5.171-5.67h1.722v.896h.112c.214-.345.518-.616.91-.812.392-.205.816-.308 1.274-.308.858 0 1.512.261 1.96.784s.672 1.237.672 2.142v4.438h-1.834v-4.214c0-.457-.117-.812-.35-1.064-.234-.252-.56-.378-.98-.378-.495 0-.896.191-1.204.574-.299.383-.448.863-.448 1.442v3.64h-1.834z" fill="#3675e0"/><g fill="#62707b"><path d="m37.9969 171.547v4.453h-1.5v-11.375h4.1953c1.2448 0 2.2187.318 2.9219.954.7083.635 1.0625 1.476 1.0625 2.523 0 1.104-.3464 1.956-1.0391 2.555-.6875.593-1.6745.89-2.9609.89zm0-1.226h2.6953c.8021 0 1.4167-.188 1.8437-.563.4271-.38.6407-.927.6407-1.64 0-.677-.2136-1.219-.6407-1.625-.427-.407-1.013-.618-1.7578-.633h-2.7812zm12.7531-1.477c-.2187-.036-.4557-.055-.7109-.055-.948 0-1.5912.404-1.9297 1.211v6h-1.4453v-8.453h1.4062l.0235.977c.4739-.755 1.1458-1.133 2.0156-1.133.2812 0 .4948.037.6406.109zm4.9875 7.313c-1.1458 0-2.0781-.375-2.7969-1.125-.7187-.756-1.0781-1.763-1.0781-3.024v-.265c0-.839.1589-1.586.4766-2.243.3229-.661.7708-1.177 1.3437-1.546.5781-.375 1.2031-.563 1.875-.563 1.099 0 1.9531.362 2.5625 1.086s.9141 1.76.9141 3.109v.602h-5.7266c.0208.833.263 1.508.7266 2.023.4687.511 1.0625.766 1.7812.766.5104 0 .9427-.104 1.2969-.313.3542-.208.6641-.484.9297-.828l.8828.688c-.7083 1.088-1.7708 1.633-3.1875 1.633zm-.1797-7.578c-.5833 0-1.0729.213-1.4687.64-.3959.422-.6407 1.016-.7344 1.781h4.2344v-.109c-.0417-.734-.2396-1.302-.5938-1.703-.3542-.406-.8333-.609-1.4375-.609zm6.8156-1.032.0391.938c.6198-.729 1.4557-1.094 2.5078-1.094 1.1823 0 1.987.453 2.4141 1.359.2812-.406.6458-.734 1.0937-.984.4532-.25.987-.375 1.6016-.375 1.8542 0 2.7969.982 2.8281 2.945v5.664h-1.4453v-5.578c0-.604-.138-1.054-.4141-1.351-.276-.302-.7395-.453-1.3906-.453-.5364 0-.9818.161-1.3359.484-.3542.318-.5599.747-.6172 1.289v5.609h-1.4531v-5.539c0-1.229-.6016-1.843-1.8047-1.843-.9479 0-1.5964.403-1.9453 1.211v6.171h-1.4453v-8.453zm14.5422 8.453h-1.4453v-8.453h1.4453zm-1.5625-10.695c0-.234.0703-.432.211-.594.1458-.161.3593-.242.6406-.242.2812 0 .4948.081.6406.242.1458.162.2188.36.2188.594s-.073.43-.2188.586-.3594.234-.6406.234c-.2813 0-.4948-.078-.6406-.234-.1407-.156-.211-.352-.211-.586zm7.6907 10.852c-1.1459 0-2.0782-.375-2.7969-1.125-.7188-.756-1.0781-1.763-1.0781-3.024v-.265c0-.839.1588-1.586.4765-2.243.3229-.661.7708-1.177 1.3438-1.546.5781-.375 1.2031-.563 1.875-.563 1.0989 0 1.9531.362 2.5625 1.086.6093.724.914 1.76.914 3.109v.602h-5.7265c.0208.833.263 1.508.7265 2.023.4688.511 1.0625.766 1.7813.766.5104 0 .9427-.104 1.2969-.313.3541-.208.664-.484.9296-.828l.8829.688c-.7084 1.088-1.7709 1.633-3.1875 1.633zm-.1797-7.578c-.5834 0-1.073.213-1.4688.64-.3958.422-.6406 1.016-.7344 1.781h4.2344v-.109c-.0417-.734-.2396-1.302-.5937-1.703-.3542-.406-.8334-.609-1.4375-.609zm9.5421.265c-.2187-.036-.4557-.055-.7109-.055-.9479 0-1.5911.404-1.9297 1.211v6h-1.4453v-8.453h1.4063l.0234.977c.474-.755 1.1458-1.133 2.0156-1.133.2813 0 .4948.037.6406.109zm9.2958 6.133c.515 0 .966-.156 1.351-.469.386-.312.599-.703.641-1.172h1.367c-.026.485-.193.946-.5 1.383-.307.438-.719.787-1.234 1.047-.511.26-1.053.391-1.625.391-1.151 0-2.0681-.383-2.7504-1.149-.6771-.771-1.0157-1.823-1.0157-3.156v-.242c0-.823.1511-1.555.4532-2.196.302-.64.7343-1.138 1.2968-1.492.5681-.354 1.2371-.531 2.0081-.531.948 0 1.734.284 2.359.852.63.567.966 1.304 1.008 2.211h-1.367c-.042-.547-.25-.995-.625-1.344-.37-.354-.828-.531-1.375-.531-.735 0-1.305.265-1.7112.796-.401.526-.6015 1.289-.6015 2.289v.274c0 .974.2005 1.724.6015 2.25.4012.526.9742.789 1.7192.789zm6.854 1.023h-1.445v-12h1.445zm4.191 0h-1.445v-8.453h1.445zm-1.563-10.695c0-.234.071-.432.211-.594.146-.161.36-.242.641-.242s.495.081.641.242c.145.162.218.36.218.594s-.073.43-.218.586c-.146.156-.36.234-.641.234s-.495-.078-.641-.234c-.14-.156-.211-.352-.211-.586zm7.574 9.672c.515 0 .966-.156 1.351-.469.386-.312.599-.703.641-1.172h1.367c-.026.485-.193.946-.5 1.383-.307.438-.719.787-1.234 1.047-.511.26-1.052.391-1.625.391-1.151 0-2.068-.383-2.75-1.149-.677-.771-1.016-1.823-1.016-3.156v-.242c0-.823.151-1.555.453-2.196.302-.64.735-1.138 1.297-1.492.568-.354 1.237-.531 2.008-.531.948 0 1.734.284 2.359.852.631.567.967 1.304 1.008 2.211h-1.367c-.042-.547-.25-.995-.625-1.344-.37-.354-.828-.531-1.375-.531-.734 0-1.305.265-1.711.796-.401.526-.601 1.289-.601 2.289v.274c0 .974.2 1.724.601 2.25s.974.789 1.719.789zm5.237.266c0-.25.073-.459.219-.625.151-.167.375-.25.672-.25s.521.083.672.25c.156.166.234.375.234.625 0 .239-.078.44-.234.601-.151.162-.375.242-.672.242s-.521-.08-.672-.242c-.146-.161-.219-.362-.219-.601zm.008-6.899c0-.25.073-.458.219-.625.151-.166.375-.25.672-.25s.521.084.672.25c.156.167.234.375.234.625 0 .24-.078.44-.234.602-.151.161-.375.242-.672.242s-.521-.081-.672-.242c-.146-.162-.219-.362-.219-.602z"/><path d="m163.362 153.001v-11.375h3.211c.99 0 1.865.218 2.625.656.761.437 1.347 1.06 1.758 1.867.417.807.628 1.734.633 2.781v.727c0 1.073-.208 2.013-.625 2.82-.411.807-1.003 1.427-1.773 1.859-.766.433-1.659.654-2.68.665zm1.5-10.141v8.914h1.579c1.156 0 2.054-.359 2.695-1.078.646-.719.969-1.742.969-3.07v-.665c0-1.291-.305-2.294-.914-3.007-.605-.719-1.464-1.084-2.579-1.094zm12.582 10.297c-1.146 0-2.078-.375-2.797-1.125-.719-.755-1.078-1.763-1.078-3.024v-.265c0-.839.159-1.586.476-2.242.323-.662.771-1.178 1.344-1.547.578-.375 1.203-.563 1.875-.563 1.099 0 1.953.362 2.563 1.086.609.724.914 1.76.914 3.109v.602h-5.727c.021.833.263 1.508.727 2.023.468.511 1.062.766 1.781.766.51 0 .943-.104 1.297-.312.354-.209.664-.485.929-.829l.883.688c-.708 1.088-1.771 1.633-3.187 1.633zm-.18-7.578c-.583 0-1.073.213-1.469.64-.396.422-.64 1.016-.734 1.782h4.234v-.11c-.041-.734-.239-1.302-.593-1.703-.355-.406-.834-.609-1.438-.609zm10.675 6.586c-.562.661-1.388.992-2.477.992-.901 0-1.588-.261-2.062-.781-.469-.527-.706-1.303-.711-2.329v-5.5h1.445v5.461c0 1.282.521 1.922 1.563 1.922 1.104 0 1.838-.411 2.203-1.234v-6.149h1.445v8.454h-1.375zm6.745-4.532 1.875-3.086h1.688l-2.766 4.18 2.852 4.274h-1.672l-1.953-3.165-1.953 3.165h-1.68l2.852-4.274-2.766-4.18h1.672zm6.972 5.368h-1.445v-8.454h1.445zm-1.562-10.696c0-.234.07-.432.211-.594.146-.161.359-.242.64-.242.282 0 .495.081.641.242.146.162.219.36.219.594 0 .235-.073.43-.219.586s-.359.235-.641.235c-.281 0-.494-.079-.64-.235-.141-.156-.211-.351-.211-.586zm7.69 10.852c-1.145 0-2.078-.375-2.797-1.125-.718-.755-1.078-1.763-1.078-3.024v-.265c0-.839.159-1.586.477-2.242.323-.662.771-1.178 1.344-1.547.578-.375 1.203-.563 1.875-.563 1.099 0 1.953.362 2.562 1.086.61.724.914 1.76.914 3.109v.602h-5.726c.021.833.263 1.508.726 2.023.469.511 1.063.766 1.781.766.511 0 .943-.104 1.297-.312.355-.209.664-.485.93-.829l.883.688c-.708 1.088-1.771 1.633-3.188 1.633zm-.179-7.578c-.584 0-1.073.213-1.469.64-.396.422-.641 1.016-.734 1.782h4.234v-.11c-.042-.734-.24-1.302-.594-1.703-.354-.406-.833-.609-1.437-.609zm.82-2.282h-1.242l-2.016-2.296h1.742zm5.995 1.25.039.938c.62-.729 1.456-1.094 2.508-1.094 1.182 0 1.987.453 2.414 1.36.281-.407.646-.735 1.094-.985.453-.25.987-.375 1.602-.375 1.854 0 2.796.982 2.828 2.945v5.665h-1.446v-5.579c0-.604-.138-1.054-.414-1.351-.276-.302-.739-.453-1.39-.453-.537 0-.982.161-1.336.484-.354.318-.56.747-.617 1.289v5.61h-1.454v-5.54c0-1.229-.601-1.843-1.804-1.843-.948 0-1.597.403-1.946 1.211v6.172h-1.445v-8.454zm16.48 8.61c-1.146 0-2.078-.375-2.797-1.125-.719-.755-1.078-1.763-1.078-3.024v-.265c0-.839.159-1.586.477-2.242.322-.662.77-1.178 1.343-1.547.578-.375 1.203-.563 1.875-.563 1.099 0 1.953.362 2.563 1.086.609.724.914 1.76.914 3.109v.602h-5.727c.021.833.263 1.508.727 2.023.469.511 1.062.766 1.781.766.511 0 .943-.104 1.297-.312.354-.209.664-.485.93-.829l.882.688c-.708 1.088-1.77 1.633-3.187 1.633zm-.18-7.578c-.583 0-1.073.213-1.468.64-.396.422-.641 1.016-.735 1.782h4.235v-.11c-.042-.734-.24-1.302-.594-1.703-.354-.406-.834-.609-1.438-.609zm13.116 6.398c.516 0 .966-.156 1.352-.469.385-.312.598-.703.64-1.172h1.367c-.026.485-.192.946-.5 1.383-.307.438-.718.787-1.234 1.047-.51.261-1.052.391-1.625.391-1.151 0-2.068-.383-2.75-1.149-.677-.771-1.016-1.823-1.016-3.156v-.242c0-.823.151-1.555.453-2.195.303-.641.735-1.138 1.297-1.493.568-.354 1.237-.531 2.008-.531.948 0 1.734.284 2.36.852.63.567.966 1.304 1.007 2.211h-1.367c-.042-.547-.25-.995-.625-1.344-.37-.354-.828-.531-1.375-.531-.734 0-1.305.265-1.711.797-.401.526-.601 1.289-.601 2.289v.273c0 .974.2 1.724.601 2.25s.974.789 1.719.789zm6.855 1.024h-1.446v-12h1.446zm4.19 0h-1.445v-8.454h1.445zm-1.562-10.696c0-.234.07-.432.211-.594.146-.161.359-.242.64-.242.282 0 .495.081.641.242.146.162.219.36.219.594 0 .235-.073.43-.219.586s-.359.235-.641.235c-.281 0-.494-.079-.64-.235-.141-.156-.211-.351-.211-.586zm7.573 9.672c.516 0 .966-.156 1.352-.469.385-.312.599-.703.64-1.172h1.368c-.026.485-.193.946-.5 1.383-.308.438-.719.787-1.235 1.047-.51.261-1.052.391-1.625.391-1.151 0-2.068-.383-2.75-1.149-.677-.771-1.015-1.823-1.015-3.156v-.242c0-.823.151-1.555.453-2.195.302-.641.734-1.138 1.297-1.493.567-.354 1.237-.531 2.007-.531.948 0 1.735.284 2.36.852.63.567.966 1.304 1.008 2.211h-1.368c-.041-.547-.25-.995-.625-1.344-.369-.354-.828-.531-1.375-.531-.734 0-1.304.265-1.711.797-.401.526-.601 1.289-.601 2.289v.273c0 .974.2 1.724.601 2.25s.974.789 1.719.789zm5.238.266c0-.25.073-.459.218-.625.151-.167.375-.25.672-.25s.521.083.672.25c.156.166.235.375.235.625 0 .239-.079.44-.235.601-.151.162-.375.242-.672.242s-.521-.08-.672-.242c-.145-.161-.218-.362-.218-.601zm.007-6.899c0-.25.073-.458.219-.625.151-.166.375-.25.672-.25s.521.084.672.25c.156.167.234.375.234.625 0 .24-.078.44-.234.602-.151.161-.375.242-.672.242s-.521-.081-.672-.242c-.146-.162-.219-.362-.219-.602z"/></g></svg>